<?xml version="1.0" encoding="utf-8"?>
<!-- Generator: Adobe Illustrator 25.1.0, SVG Export Plug-In . SVG Version: 6.00 Build 0)  -->
<svg version="1.1" id="Tirui" xmlns="http://www.w3.org/2000/svg" xmlns:xlink="http://www.w3.org/1999/xlink" x="0px" y="0px"
	 viewBox="0 0 600 400" enable-background="new 0 0 600 400" xml:space="preserve">
<g id="Self_Supporting">
	<g id="background_8_">
		<path fill="#F9EBD2" d="M439.96,333.718h60.542c0,0,17.99-16.944,11.416-31.283c-6.573-14.339,1.445-25.88,1.445-25.88
			s16.545-0.222,13.777-22.363c0,0,16.952-8.339,8.995-18.354c-7.957-10.014-20.757-8.564-20.757-21.744
			c0,0,9.687,3.917,11.762-5.785c2.076-9.701-8.072-10.319-8.072-10.319s6.227-9.069,1.153-12.528s-7.15-1.682-7.15-1.682
			s-6.458,2.605-7.842-3.161c-1.384-5.766,7.15-8.533,3.69-16.836c-3.46-8.303-11.301-3.46-16.606-9.917
			c0,0-0.692,4.151,3.921,5.305c4.613,1.153,7.15,6.267,7.15,6.267s-5.766,2.036-6.227,4.804c-0.461,2.768,3.46,4.151,3.46,4.151
			s-4.843-0.231-8.072,5.535c-3.229,5.766,3.921,13.028,8.764,9.627c0,0,8.764,7.781,3.921,12.569s-15.41-2.87-23.388,4.303
			c-7.978,7.173-2.904,16.629-2.904,16.629s-12.893,0.767-18.67,17.566s6.908,28.688,6.908,28.688s-7.712,15.218-17.464,8.007
			s-30.508-10.688-40.426-0.762s-3.462,25.88-3.462,25.88s-29.749,3.103-28.596,31.283H439.96z"/>
		<path fill="#F9EBD2" d="M367.828,333.718h-71.099c0,0-21.025-23.463-9.129-40.616c11.896-17.152,34.028-9.102,15.769-36.642
			c-18.259-27.541,1.714-33.844,1.714-33.844s-10.277-14.255-5.027-19.607c5.25-5.352,19.912-5.075,22.402-14.205
			c2.49-9.129-15.769-16.464-9.406-28.013s16.506-9.058,16.506-9.058s-0.945-7.47,5.799-7.746
			c6.743-0.277,11.446,5.533,11.446,5.533s11.217-7.47,15.153,0.553c3.936,8.023,15.002,9.683,16.385,0.553
			c0,0-1.629-12.726,8.73-11.619c0,0,6.846-6.363,4.314-14.939c-2.531-8.576-10.154-10.513-10.154-10.513s7.154-1.383,12.23,6.916
			c5.076,8.3,17.795,6.64,18.075,14.109c0.28,7.47-10.554,5.81-10.554,5.81s11.814,9.959,3.301,18.536
			c-8.513,8.576-16.127-5.061-16.127-5.061s-7.878,6.582,1.251,20.069c9.129,13.487-6.363,24.83-16.599,19.297
			c-10.236-5.533-30.985-8.023-29.878,6.64c1.107,14.662,20.472,9.855,27.942,25.261c7.47,15.406-4.703,24.812-4.703,24.812
			s26.643,0.727,27.292,24.57C394.11,298.359,366.721,311.534,367.828,333.718z"/>
		<path fill="#F9EBD2" d="M202.081,333.718h61.015c0,0,18.043-18.891,7.835-32.701c-10.209-13.81-29.202-7.328-13.533-29.502
			c15.669-22.174-1.471-27.249-1.471-27.249s8.819-11.477,4.314-15.786c-4.505-4.309-17.088-4.086-19.225-11.437
			c-2.137-7.351,13.533-13.256,8.072-22.554s-14.165-7.293-14.165-7.293s0.811-6.014-4.976-6.237
			c-5.787-0.223-9.823,4.455-9.823,4.455s-9.626-6.014-13.004,0.445c-3.378,6.46-12.874,7.796-14.061,0.445
			c0,0,1.398-10.246-7.492-9.355c0,0-5.875-5.123-3.702-12.028c2.172-6.905,8.714-8.464,8.714-8.464s-6.139-1.114-10.495,5.569
			c-4.356,6.682-15.271,5.346-15.511,11.36c-0.24,6.014,9.057,4.678,9.057,4.678s-10.138,8.019-2.833,14.924
			s13.84-4.075,13.84-4.075s6.761,5.299-1.074,16.158c-7.835,10.859,5.461,19.992,14.245,15.537s26.59-6.46,25.641,5.346
			c-0.95,11.805-17.569,7.935-23.979,20.339s4.036,19.978,4.036,19.978s-22.864,0.585-23.421,19.783
			C179.527,305.249,203.031,315.857,202.081,333.718z"/>
		<path fill="#84B1BE" d="M46.553,333.718h507.565C554.118,333.718,220.725,311.472,46.553,333.718z"/>
	</g>
	<g id="witch">
		<path fill="#DB833A" d="M391.409,161.721c1.772,5.02,11.436,17.495,27.125,19.033s33.373-3.548,35.506-9.519l-59.285-10.4
			C394.755,160.835,390.889,160.499,391.409,161.721z"/>
		<path fill="#B22449" d="M414.145,183.374c0,0,5.004-6.555,24.549-5.345C438.694,178.03,430.418,188.558,414.145,183.374z"/>
		<path fill="#F99680" d="M432.393,176.74c0.121-1.534-1.024-2.876-2.558-2.997c-0.172-0.014-0.34-0.006-0.506,0.011
			c-0.316-2.792-2.571-5.06-5.477-5.29c-3.297-0.26-6.181,2.201-6.442,5.499c-0.038,0.483-0.012,0.955,0.061,1.413
			c-0.001,0-0.006-0.001-0.006-0.001s1.335,10.086,3.879,10.286c2.544,0.201,3.133-0.641,3.555,1.952c0,0,4.916-1.388,5.719-3.623
			c0,0-2.092-2.104-1.871-4.826c0-0.002,0-0.004,0-0.005c0.207,0.068,0.422,0.12,0.649,0.138
			C430.93,179.419,432.272,178.274,432.393,176.74z"/>
		<g>
			<path fill="#D35971" d="M432.352,176.051l-0.096,1.334c0.067-0.206,0.119-0.419,0.136-0.645
				C432.412,176.503,432.391,176.274,432.352,176.051z"/>
			<path fill="#D35971" d="M432.255,177.403l0.001-0.019c-0.002,0.007-0.006,0.013-0.008,0.02
				C432.251,177.404,432.253,177.404,432.255,177.403z"/>
			<path fill="#D35971" d="M432.126,175.34l-14.712-1.405c-0.001,0.009-0.003,0.018-0.004,0.028
				c-0.038,0.483-0.012,0.955,0.061,1.413c-0.001,0-0.006-0.001-0.006-0.001s0.091,0.682,0.268,1.691l0,0.001
				c0,0,7.823,2.434,14.514,0.338c0.002-0.007,0.006-0.013,0.008-0.02l0.096-1.334C432.31,175.801,432.231,175.564,432.126,175.34z"
				/>
		</g>
		<path fill="#F9B655" d="M420.444,175.008c-6.342-1.599-13.484-6.563-19.882-10.335c-6.035-3.558-9.154-4.331-9.154-2.953
			c0,0-0.787-2.559,6.594-0.984c7.382,1.575,19.39,3.346,19.39,3.346s-1.936-1.444-2.001-2.1c-0.066-0.656,3.346-0.722,3.346-1.115
			c0-0.394-1.115-1.181-0.984-2.297s5.84,0,5.84-0.591s0-0.591,0-0.591s-1.509-5.577-1.312-7.152
			c0.197-1.575,2.362,0.394,4.265-0.722c1.903-1.115,12.533-6.496,12.73-7.349c0.197-0.853-2.493-10.105-1.837-10.302
			c0.656-0.197,10.039,11.286,10.039,12.008s-11.024,16.076-11.024,16.863s2.69,3.281,2.559,3.871
			c-0.131,0.591-3.018,0.394-2.362,1.181s4.528,3.346,10.039,3.281c5.512-0.066,7.349,2.165,7.349,2.165s-4.331-0.853-10.63,0.919
			C437.111,173.926,430.392,177.516,420.444,175.008z"/>
		<path fill="#B22449" d="M380.681,204.634c0,0,3.182,23.999,9.908,31.562C390.589,236.196,391.507,219.004,380.681,204.634z"/>
		<path fill="#F99680" d="M381.829,205.684c0,0-1.312,1.772-5.282-0.164c-4.629-2.257-16.732-12.402-17.716-15.256
			c-0.984-2.854,0.492-4.183-0.935-7.234c-1.427-3.051-1.427-3.051-1.427-3.051s1.329-2.313,1.329-4.109s-0.984-1.747-0.984-1.747
			s-2.362,3.199-2.854,4.035c-0.492,0.837-0.295,5.069-1.083,4.085c-0.787-0.984-2.707-2.215-3.642-3.937
			c-0.935-1.722,0.148-5.118,0.541-5.61c0.394-0.492,3.297-0.492,2.805-2.805c0,0-3.592,0.443-4.134,1.28
			c-0.541,0.837-1.968,3.74-1.968,4.478c0,0-0.689-2.215-0.689-2.756s2.362-1.624,1.23-3.592c0,0-3.396,2.805-3.346,3.248
			s0.394,3.199,0.443,3.592c0.049,0.394,0.492,1.87,0.492,1.87s-2.411-0.886-2.756-1.575c0,0,1.033-1.329,0.295-2.756
			c-0.738-1.427-0.787-0.64-1.033-0.148c-0.246,0.492-1.526,3.346-1.427,3.543c0.098,0.197,3.297,3.15,3.297,3.15
			s-2.215,0.246-2.904,0.098c-0.689-0.148-1.624-2.116-2.264-2.707c-0.64-0.591-1.673-1.083-2.461,0c0,0,2.018,2.854,2.411,3.691
			s2.854,1.821,4.134,2.51c1.28,0.689,6.152,5.659,7.923,7.283c1.772,1.624,9.793,14.255,16.027,20.554
			c6.234,6.299,15.682,11.548,17.454,10.892c1.772-0.656,5.249-1.772,5.249-1.772S386.16,210.769,381.829,205.684z"/>
		<path fill="#B22449" d="M475.759,209.359c0,0-3.735,15.173-14.367,22.202l-0.79-2.004
			C460.601,229.557,465.424,217.134,475.759,209.359z"/>
		<path fill="#F99680" d="M468.804,215.855l3.018,2.822c0,0,3.871-1.247,11.811-1.837c7.94-0.591,15.354-2.034,15.617-2.756
			c0.262-0.722,1.05-3.412,1.64-4.396c0.591-0.984-0.574-4.856-0.476-5.102s0.098-0.246,0.098-0.246l3.051-1.329
			c0,0,0.837,2.165-0.394,2.559c0,0,0.197,3.1,1.772,3.691c1.575,0.591,4.97-0.591,5.61-1.23s1.722-3.346,2.264-3.445
			c0.541-0.098,0.984,0.246,0.984,0.246s-0.591,1.624-0.689,2.215c-0.098,0.591-0.837,1.575-0.837,1.575l1.804-0.115
			c0,0,0.262-1.181,0.656-1.476c0.394-0.295,0.886-0.131,0.886-0.131l-0.328,1.673c0,0,0.656,0.066,0.853-0.689
			c0.197-0.755,0.427-1.64,1.083-1.804c0.656-0.164,0.82,0.131,0.82,0.131s-0.492,1.115-0.623,2.067s-0.23,2.362-0.558,2.329
			c-0.328-0.033-1.608-0.066-1.608-0.066s-0.427,1.575-0.623,1.509s-4.363,0.295-5.118,0.558c-0.755,0.262-4.56,5.052-5.545,5.282
			c-0.984,0.23-14.436,4.708-20.932,7.759c-6.496,3.051-13.287,5.217-13.976,5.217c-0.689,0-6.696-4.924-6.696-4.924
			S463.669,221.76,468.804,215.855z"/>
		<path fill="#F99680" d="M419.722,302.14c0,0,7.612,11.024,5.381,16.601c0,0,5.118,4.593,10.892-1.444l-7.874-19.291
			C428.121,298.006,425.89,302.337,419.722,302.14z"/>
		<path fill="#B22449" d="M435.179,261.846l11.741,19.461c0,0,11.417,3.445,19.98,3.248c8.563-0.197,23.031-5.709,26.279-14.272
			L435.179,261.846z"/>
		<path fill="#D35971" d="M419.722,302.14c0,0,5.321,5.338,10.379,0.717l-1.841-4.512L419.722,302.14z"/>
		<path fill="#F99680" d="M468.147,303.124c0,0,0.656,5.643-3.806,10.039c0,0,16.863,4.134,18.11,5.577c0,0,6.89-3.018,6.89-6.365
			C489.341,312.376,477.268,308.899,468.147,303.124z"/>
		<path fill="#E53362" d="M438.694,178.03c0,0-5.783,5.869-13.197,6.46c-7.415,0.591-11.352-1.115-11.352-1.115v3.937
			c0,0-4.003-0.328-11.352,6.562c-7.349,6.89-10.827,9.711-22.113,10.761c0,0,6.496,9.363,8.268,17.969
			c1.772,8.606,1.64,13.593,1.64,13.593s5.315-7.546,10.433-14.37s6.562-7.743,6.562-7.743s1.05,6.299-2.493,15.354
			c-3.543,9.055-6.365,15.486-7.087,20.866c0,0,26.968-1.745,39.96,11.543c12.992,13.287,14.37,18.871,31.693,18.477
			c17.323-0.394,23.523-10.039,23.523-10.039s-12.894-10.138-20.472-19.193c-7.579-9.055-12.106-21.534-12.106-21.534
			s5.413-12.915,15.157-20.198c0,0-24.705-12.795-27.461-15.748s-10.039-7.677-10.039-7.677L438.694,178.03z"/>
		<path fill="#D35971" d="M468.147,303.124c0,0,5.347,4.586,1.558,11.413l-5.364-1.374L468.147,303.124z"/>
		<path fill="#F9B655" d="M414.145,187.311c0,0,2.789,3.675,9.022,3.904c6.234,0.23,15.092-5.282,15.092-5.282l2.662,1.798
			c0,0-8.386,7.29-18.221,6.765s-11.165-6.609-11.165-6.609S413.194,187.147,414.145,187.311z"/>
		<path fill="#F9B655" d="M380.681,204.634c0,0,9.547,13.386,9.908,31.562l2.796-3.927c0,0,1.509-14.187-8.944-28.096
			L380.681,204.634z"/>
		<path fill="#F9B655" d="M460.601,229.557l-2.067-4.424c0,0,2.896-10.952,13.653-17.645l3.572,1.87
			C475.759,209.359,466.638,216.051,460.601,229.557z"/>
		<path fill="#B22449" d="M407.583,214.083c-1.115-5.184-7.152-1.837-6.562,7.743L407.583,214.083z"/>
		<path fill="#B22449" d="M458.535,225.133l-8.465-17.645C450.07,207.488,459.322,207.934,458.535,225.133z"/>
		<path fill="#343A3A" d="M411.192,246.891c0,0-18.176,0.262-18.766,8.136c-0.591,7.874,21.653,45.538,26.706,47.047
			c5.052,1.509,8.793-1.64,9.449-4.724s0.262-12.336,0.262-12.336s6.496,11.409,12.402,17.45
			c5.905,6.041,20.604,11.224,23.097,10.699s4.987-5.381,3.806-10.039c-1.181-4.659-8.596-10.499-13.583-14.37
			s-10.626-20.779-16.601-26.909C431.989,255.717,421.698,246.869,411.192,246.891z"/>
		<path fill="#F9B655" d="M432.193,256.46c0,0,9.511,5.949,16.597,12.445s18.602,10.039,27.461,6.89
			c8.858-3.15,13.958-7.782,13.958-7.782l2.971,2.27c0,0-6.496,11.024-22.244,10.827c-15.748-0.197-21.021-5.889-26.209-12.049
			S434.046,257.963,432.193,256.46z"/>
		<path fill="#303535" d="M428.843,285.014c-0.919-9.121-9.974-19.357-9.974-19.357l21.692-0.507c0,0,4.016,20.201-9.953,22.821
			L428.843,285.014z"/>
		<path fill="#343A3A" d="M425.103,318.741c0,0-3.609,7.283-7.415,8.727s-10.761,2.1-10.761,1.575s0.41-1.476,0-1.722
			s-0.951,0.837-1.345,0.591c-0.394-0.246-1.23-2.51-1.378-2.904c-0.148-0.394-2.953-0.738-2.953-0.492s1.526,0.492,1.526,1.476
			s0.295,3.937,0.64,3.937c0.345,0,2.953,3.789,2.953,3.789h36.073l-6.447-16.421l-1.919-4.701l-8.796,1.57
			C425.28,314.167,425.809,317.436,425.103,318.741z"/>
		<path fill="#343A3A" d="M480.792,317.872c0,0,2.775,0.868,2.709,2.542c-0.066,1.674-2.756,8.826-3.084,9.023
			c-0.328,0.197-2.838-0.886-3.576-0.295s-1.673-0.541-1.673-1.033c0-0.492-0.689,0.344-0.886,0.246
			c-0.197-0.098-1.083-1.772-1.575-1.575c-0.492,0.197-0.935,0.787-0.984,0.984c-0.049,0.197,0.984-0.394,1.181,0.049
			s0.295,2.313,0.837,2.313c0.541,0,3.1,3.592,3.1,3.592h8.218l17.41-17.41c0.474-0.474,0.239-1.285-0.415-1.432l-16.348-3.672
			C485.707,311.204,486.318,314.723,480.792,317.872z"/>
		<path fill="#D35971" d="M471.024,217.93c0,0-5.186,4.771-4.54,11.256l-4.115-3.246c0,0,3.963-6.909,6.64-9.893L471.024,217.93z"/>
		<path fill="#D35971" d="M381.23,206.129c0,0,4.662,9.941,3.483,15.919l3.442-1.144c0,0-3.21-10.037-6.617-14.957L381.23,206.129z"
			/>
		<g>
			<path fill="#474F50" d="M419.43,178.456c-0.588,0-1.026-0.28-1.229-0.506c-0.184-0.206-0.166-0.522,0.04-0.706
				c0.202-0.182,0.515-0.167,0.699,0.033c0.069,0.07,0.438,0.384,1.128-0.024c0.237-0.141,0.544-0.063,0.686,0.174
				c0.142,0.237,0.063,0.544-0.174,0.685C420.158,178.363,419.769,178.456,419.43,178.456z"/>
		</g>
		<g>
			<path fill="#474F50" d="M424.368,178.626c-0.588,0-1.026-0.28-1.229-0.506c-0.184-0.206-0.166-0.522,0.04-0.706
				c0.202-0.182,0.515-0.167,0.699,0.033c0.07,0.071,0.438,0.384,1.128-0.024c0.236-0.141,0.544-0.063,0.686,0.174
				s0.063,0.544-0.174,0.685C425.097,178.533,424.707,178.626,424.368,178.626z"/>
		</g>
	</g>
	<g id="car">
		<ellipse fill="#2C466D" cx="270.901" cy="306.654" rx="28.739" ry="26.812"/>
		<circle fill="#69BCC9" cx="267.047" cy="306.654" r="26.812"/>
		<ellipse fill="#2C466D" cx="333.406" cy="306.654" rx="28.739" ry="26.812"/>
		<path fill="#D3ECEF" d="M305.003,215.746c-18.601-44.239-41.223-48.344-52.534-48.344c-11.311,0-44.742,0-44.742,0l34.764,31.817
			l71.31,116.568h49.518C388.203,259.483,323.603,259.985,305.003,215.746z M267.923,231.903l-25.433-50.468c0,0,8.973,0,16.514,0
			c7.541,0,27.231,26.156,34.353,50.468H267.923z"/>
		<ellipse fill="#2C466D" cx="181.584" cy="306.654" rx="28.739" ry="26.812"/>
		<path fill="#69BCC9" d="M119.24,268.783c0,0,7.371-5.511,7.459-14.946l94.349,61.951c0,0-25.151-8.343-60.711-0.15L119.24,268.783
			z"/>
		<linearGradient id="SVGID_1_" gradientUnits="userSpaceOnUse" x1="267.0886" y1="309.3102" x2="267.5913" y2="341.4843">
			<stop  offset="0" style="stop-color:#007EAB"/>
			<stop  offset="0.9944" style="stop-color:#C5F9FF;stop-opacity:0"/>
		</linearGradient>
		<circle fill="url(#SVGID_1_)" cx="267.047" cy="306.654" r="26.812"/>
		<path fill="#8ECEDD" d="M313.8,283.864c-8.546-15.836-33.431-31.169-50.272-67.365s-30.834-49.098-48.094-49.098h-89.652
			c0,0-0.251,6.618,8.044,9.132c8.295,2.514,10.557,2.626,1.257,20.542c-5.511,10.615-12.345,25.353-16.999,35.602
			c-3.122,6.875-0.77,14.995,5.542,19.14l97.423,63.969h17.093h75.66C313.8,315.787,322.346,299.7,313.8,283.864z M141.288,222.549
			l16.919-41.915c0,0,41.614,0,55.299,0c18.21,0,39.966,51.268,39.966,51.268L141.288,222.549z"/>
		<ellipse fill="#2C466D" cx="124.107" cy="306.654" rx="28.739" ry="26.812"/>
		<circle fill="#69BCC9" cx="120.252" cy="306.654" r="26.812"/>
		<linearGradient id="SVGID_2_" gradientUnits="userSpaceOnUse" x1="120.294" y1="309.3102" x2="120.7967" y2="341.4843">
			<stop  offset="0" style="stop-color:#007EAB"/>
			<stop  offset="0.9944" style="stop-color:#C5F9FF;stop-opacity:0"/>
		</linearGradient>
		<circle fill="url(#SVGID_2_)" cx="120.252" cy="306.654" r="26.812"/>
		<path fill="#69BCC9" d="M286.346,283.389c2.208,1.192,4.662-1.078,3.593-3.348c-6.472-13.753-21.722-42.468-42.163-57.103
			c-27.482-19.676-72.973-26.865-106.488-0.389c0,0,20.02,16.573,60.573,32.325C237.961,268.897,266.359,272.595,286.346,283.389z"
			/>
		<path fill="#8ECEDD" d="M158.64,315.787H91.991c-4.359,0-8.149-2.988-9.166-7.227l-1.558-6.493
			c-0.765-3.189,0.182-6.546,2.501-8.865l23.324-23.324c2.928-2.928,7.416-3.605,11.074-1.667
			c11.019,5.837,34.061,18.786,47.103,31.446C171.313,305.525,167.064,315.787,158.64,315.787z"/>
		<g>
			<path fill="#69BCC9" d="M264.91,181.435c-4.189,0-5.907,0-5.907,0c7.541,0,27.231,26.156,34.353,50.468h5.027
				c0,0-3.307-9.557-10.725-23.614C279.741,193.284,269.1,181.435,264.91,181.435z"/>
		</g>
		<g>
			<linearGradient id="SVGID_3_" gradientUnits="userSpaceOnUse" x1="251.4209" y1="180.8" x2="277.73" y2="204.5116">
				<stop  offset="0" style="stop-color:#007EAB"/>
				<stop  offset="0.9944" style="stop-color:#C5F9FF;stop-opacity:0"/>
			</linearGradient>
			<path fill="url(#SVGID_3_)" d="M264.91,181.435c-4.189,0-5.907,0-5.907,0c7.541,0,27.231,26.156,34.353,50.468h5.027
				c0,0-3.307-9.557-10.725-23.614C279.741,193.284,269.1,181.435,264.91,181.435z"/>
		</g>
		
			<ellipse transform="matrix(0.0691 -0.9976 0.9976 0.0691 11.4546 603.5996)" fill="#8ECEDD" cx="329.142" cy="295.662" rx="6.2" ry="4.252"/>
		
			<ellipse transform="matrix(0.0691 -0.9976 0.9976 0.0691 39.3787 633.5237)" fill="#8ECEDD" cx="359.138" cy="295.662" rx="6.2" ry="4.252"/>
		<path fill="#D3ECEF" d="M152.846,250.182c0,0,42.312,20.863,66.694,25.89c24.382,5.027,31.085,8.889,20.695,15.379
			C229.846,297.941,198.258,290.651,152.846,250.182z"/>
		<path fill="#D3ECEF" d="M135.607,304.489h-31.652c-2.252,0-3.45-2.657-1.959-4.345l10.443-11.823
			c0.813-0.921,2.159-1.151,3.232-0.553l21.208,11.823C139.234,300.904,138.302,304.489,135.607,304.489z"/>
	</g>
	<g id="grass_8_">
		<g>
			<path fill="#A8A848" d="M70.612,333.535c0,0,3.606-43.011-24.81-52.734s21.572,52.734,21.572,52.734H70.612z"/>
		</g>
		<g>
			<path fill="#A8A848" d="M63.365,333.535c0,0-14.63-29.822-31.992-27.893c-17.363,1.929,27.33,27.893,27.33,27.893H63.365z"/>
		</g>
		<g>
			<path fill="#FFFFFF" d="M69.635,333.785c-0.106,0-0.205-0.068-0.238-0.175c-8.354-26.551-17.813-42.987-30.672-53.293
				c-0.107-0.087-0.125-0.244-0.039-0.352c0.088-0.106,0.245-0.125,0.352-0.039c12.94,10.372,22.45,26.882,30.836,53.533
				c0.042,0.132-0.031,0.272-0.163,0.313C69.685,333.781,69.659,333.785,69.635,333.785z"/>
		</g>
		<g>
			<path fill="#FFFFFF" d="M61.376,333.785c-0.076,0-0.151-0.035-0.2-0.101c-14.797-19.887-32.881-26.729-33.062-26.796
				c-0.129-0.048-0.195-0.191-0.147-0.321c0.048-0.129,0.187-0.196,0.321-0.147c0.182,0.067,18.405,6.962,33.289,26.966
				c0.083,0.111,0.06,0.268-0.051,0.35C61.48,333.77,61.428,333.785,61.376,333.785z"/>
		</g>
	</g>
	<g id="object_7_">
		<g>
			<g>
				<path fill="#F7CB6B" d="M377.195,113.514l-0.022-0.022c-0.243,0.014-0.487,0.022-0.734,0.022c0.246,0,0.491,0.009,0.734,0.022
					L377.195,113.514z"/>
			</g>
			<g>
				<path fill="#F7CB6B" d="M350.02,113.514l0.022,0.022c0.243-0.014,0.487-0.022,0.734-0.022c-0.246,0-0.491-0.009-0.734-0.022
					L350.02,113.514z"/>
			</g>
			<g>
				<path fill="#F7CB6B" d="M363.607,99.926l-0.022,0.022c0.014,0.243,0.022,0.487,0.022,0.733c0-0.246,0.009-0.491,0.022-0.733
					L363.607,99.926z"/>
			</g>
			<g>
				<circle fill="#F7CB6B" cx="363.607" cy="113.514" r="12.832"/>
			</g>
			<g>
				<path fill="#F7CB6B" d="M363.607,126.345c0,0.246-0.009,0.491-0.022,0.733l0.022,0.022l0.022-0.022
					C363.616,126.836,363.607,126.592,363.607,126.345z"/>
			</g>
		</g>
		<g>
			<g>
				<path fill="#F7CB6B" d="M390.597,90.252l-0.013-0.013c-0.143,0.008-0.287,0.013-0.433,0.013c0.145,0,0.289,0.005,0.433,0.013
					L390.597,90.252z"/>
			</g>
			<g>
				<path fill="#F7CB6B" d="M374.568,90.252l0.013,0.013c0.143-0.008,0.287-0.013,0.433-0.013c-0.145,0-0.289-0.005-0.433-0.013
					L374.568,90.252z"/>
			</g>
			<g>
				<path fill="#F7CB6B" d="M382.583,82.237l-0.013,0.013c0.008,0.143,0.013,0.287,0.013,0.433c0-0.145,0.005-0.289,0.013-0.433
					L382.583,82.237z"/>
			</g>
			<g>
				<circle fill="#F7CB6B" cx="382.583" cy="90.252" r="7.569"/>
			</g>
			<g>
				<path fill="#F7CB6B" d="M382.583,97.821c0,0.145-0.005,0.289-0.013,0.433l0.013,0.013l0.013-0.013
					C382.588,98.11,382.583,97.966,382.583,97.821z"/>
			</g>
		</g>
		<g>
			<g>
				<path fill="#F7CB6B" d="M319.886,146.199l-0.01-0.01c-0.113,0.006-0.226,0.01-0.34,0.01c0.114,0,0.228,0.004,0.34,0.01
					L319.886,146.199z"/>
			</g>
			<g>
				<path fill="#F7CB6B" d="M307.28,146.199l0.01,0.01c0.113-0.006,0.226-0.01,0.34-0.01c-0.114,0-0.228-0.004-0.34-0.01
					L307.28,146.199z"/>
			</g>
			<g>
				<path fill="#F7CB6B" d="M313.583,139.896l-0.01,0.01c0.006,0.113,0.01,0.226,0.01,0.34c0-0.114,0.004-0.228,0.01-0.34
					L313.583,139.896z"/>
			</g>
			<g>
				<circle fill="#F7CB6B" cx="313.583" cy="146.199" r="5.952"/>
			</g>
			<g>
				<path fill="#F7CB6B" d="M313.583,152.151c0,0.114-0.004,0.228-0.01,0.34l0.01,0.01l0.01-0.01
					C313.587,152.379,313.583,152.265,313.583,152.151z"/>
			</g>
		</g>
		<g>
			<g>
				<path fill="#F7CB6B" d="M484.926,124.982l-0.008-0.008c-0.082,0.005-0.164,0.008-0.247,0.008c0.083,0,0.165,0.003,0.247,0.008
					L484.926,124.982z"/>
			</g>
			<g>
				<path fill="#F7CB6B" d="M475.759,124.982l0.008,0.008c0.082-0.005,0.164-0.008,0.247-0.008c-0.083,0-0.165-0.003-0.247-0.008
					L475.759,124.982z"/>
			</g>
			<g>
				<path fill="#F7CB6B" d="M480.343,120.398l-0.008,0.008c0.005,0.082,0.008,0.164,0.008,0.247c0-0.083,0.003-0.165,0.008-0.247
					L480.343,120.398z"/>
			</g>
			<g>
				<circle fill="#F7CB6B" cx="480.343" cy="124.982" r="4.329"/>
			</g>
			<g>
				<path fill="#F7CB6B" d="M480.343,129.311c0,0.083-0.003,0.165-0.008,0.247l0.008,0.008l0.008-0.008
					C480.345,129.476,480.343,129.394,480.343,129.311z"/>
			</g>
		</g>
		<g>
			<g>
				<path fill="#F7CB6B" d="M555.623,223.594l-0.008-0.008c-0.082,0.005-0.164,0.008-0.247,0.008c0.083,0,0.166,0.003,0.247,0.008
					L555.623,223.594z"/>
			</g>
			<g>
				<path fill="#F7CB6B" d="M546.455,223.594l0.008,0.008c0.082-0.005,0.164-0.008,0.247-0.008c-0.083,0-0.165-0.003-0.247-0.008
					L546.455,223.594z"/>
			</g>
			<g>
				<path fill="#F7CB6B" d="M551.039,219.011l-0.008,0.008c0.005,0.082,0.008,0.164,0.008,0.247c0-0.083,0.003-0.166,0.008-0.247
					L551.039,219.011z"/>
			</g>
			<g>
				<circle fill="#F7CB6B" cx="551.039" cy="223.594" r="4.329"/>
			</g>
			<g>
				<path fill="#F7CB6B" d="M551.039,227.923c0,0.083-0.003,0.165-0.008,0.247l0.008,0.008l0.008-0.008
					C551.042,228.088,551.039,228.006,551.039,227.923z"/>
			</g>
		</g>
		<g>
			<g>
				<path fill="#F7CB6B" d="M572.633,233.643l-0.013-0.013c-0.139,0.008-0.279,0.013-0.421,0.013c0.141,0,0.281,0.005,0.421,0.013
					L572.633,233.643z"/>
			</g>
			<g>
				<path fill="#F7CB6B" d="M557.048,233.643l0.013,0.013c0.139-0.008,0.279-0.013,0.421-0.013c-0.141,0-0.281-0.005-0.421-0.013
					L557.048,233.643z"/>
			</g>
			<g>
				<path fill="#F7CB6B" d="M564.841,225.851l-0.013,0.013c0.008,0.139,0.013,0.279,0.013,0.421c0-0.141,0.005-0.281,0.013-0.421
					L564.841,225.851z"/>
			</g>
			<g>
				<circle fill="#F7CB6B" cx="564.841" cy="233.643" r="7.359"/>
			</g>
			<g>
				<path fill="#F7CB6B" d="M564.841,241.002c0,0.141-0.005,0.281-0.013,0.421l0.013,0.013l0.013-0.013
					C564.846,241.284,564.841,241.144,564.841,241.002z"/>
			</g>
		</g>
		<g>
			<g>
				<path fill="#F7CB6B" d="M554.503,287.913l-0.011-0.011c-0.124,0.007-0.248,0.011-0.374,0.011c0.125,0,0.25,0.004,0.374,0.011
					L554.503,287.913z"/>
			</g>
			<g>
				<path fill="#F7CB6B" d="M540.665,287.913l0.011,0.011c0.124-0.007,0.248-0.011,0.374-0.011c-0.125,0-0.25-0.004-0.374-0.011
					L540.665,287.913z"/>
			</g>
			<g>
				<path fill="#F7CB6B" d="M547.584,281.113l-0.011,0.011c0.007,0.122,0.011,0.244,0.011,0.367c0-0.123,0.004-0.246,0.011-0.367
					L547.584,281.113z"/>
			</g>
			<g>
				<ellipse fill="#F7CB6B" cx="547.584" cy="287.913" rx="6.534" ry="6.422"/>
			</g>
			<g>
				<path fill="#F7CB6B" d="M547.584,294.334c0,0.123-0.004,0.246-0.011,0.367l0.011,0.011l0.011-0.011
					C547.588,294.58,547.584,294.458,547.584,294.334z"/>
			</g>
		</g>
		<g>
			<g>
				<path fill="#F7CB6B" d="M569.361,272.113l-0.015-0.015c-0.164,0.009-0.328,0.015-0.494,0.015c0.166,0,0.331,0.006,0.494,0.015
					L569.361,272.113z"/>
			</g>
			<g>
				<path fill="#F7CB6B" d="M551.047,272.113l0.015,0.015c0.164-0.009,0.328-0.015,0.494-0.015c-0.166,0-0.331-0.006-0.494-0.015
					L551.047,272.113z"/>
			</g>
			<g>
				<path fill="#F7CB6B" d="M560.204,263.114l-0.015,0.015c0.009,0.161,0.015,0.323,0.015,0.486c0-0.163,0.006-0.325,0.015-0.486
					L560.204,263.114z"/>
			</g>
			<g>
				<ellipse fill="#F7CB6B" cx="560.204" cy="272.113" rx="8.648" ry="8.499"/>
			</g>
			<g>
				<path fill="#F7CB6B" d="M560.204,280.612c0,0.163-0.006,0.325-0.015,0.486l0.015,0.015l0.015-0.015
					C560.21,280.937,560.204,280.775,560.204,280.612z"/>
			</g>
		</g>
		<g>
			<g>
				<path fill="#F7CB6B" d="M312.74,170.943l-0.02-0.02c-0.218,0.012-0.438,0.02-0.659,0.02c0.221,0,0.441,0.008,0.659,0.02
					L312.74,170.943z"/>
			</g>
			<g>
				<path fill="#F7CB6B" d="M288.336,170.943l0.02,0.02c0.218-0.012,0.438-0.02,0.659-0.02c-0.221,0-0.441-0.008-0.659-0.02
					L288.336,170.943z"/>
			</g>
			<g>
				<path fill="#F7CB6B" d="M300.538,158.951l-0.02,0.02c0.012,0.214,0.02,0.43,0.02,0.647c0-0.217,0.008-0.433,0.02-0.647
					L300.538,158.951z"/>
			</g>
			<g>
				<ellipse fill="#F7CB6B" cx="300.538" cy="170.943" rx="11.523" ry="11.325"/>
			</g>
			<g>
				<path fill="#F7CB6B" d="M300.538,182.268c0,0.217-0.008,0.433-0.02,0.647l0.02,0.02l0.02-0.02
					C300.546,182.701,300.538,182.485,300.538,182.268z"/>
			</g>
		</g>
		<g>
			<g>
				<path fill="#F7CB6B" d="M99.504,96.741l-0.02-0.02c-0.218,0.012-0.437,0.02-0.659,0.02c0.221,0,0.441,0.008,0.659,0.02
					L99.504,96.741z"/>
			</g>
			<g>
				<path fill="#F7CB6B" d="M75.1,96.741l0.02,0.02c0.218-0.012,0.437-0.02,0.659-0.02c-0.221,0-0.441-0.008-0.659-0.02L75.1,96.741
					z"/>
			</g>
			<g>
				<path fill="#F7CB6B" d="M87.302,84.749l-0.02,0.02c0.012,0.214,0.02,0.43,0.02,0.647c0-0.217,0.008-0.433,0.02-0.647
					L87.302,84.749z"/>
			</g>
			<g>
				<ellipse fill="#F7CB6B" cx="87.302" cy="96.741" rx="11.523" ry="11.325"/>
			</g>
			<g>
				<path fill="#F7CB6B" d="M87.302,108.065c0,0.217-0.008,0.433-0.02,0.647l0.02,0.02l0.02-0.02
					C87.31,108.498,87.302,108.283,87.302,108.065z"/>
			</g>
		</g>
		<g>
			<g>
				<path fill="#F7CB6B" d="M552.867,78.273l-0.02-0.02c-0.218,0.012-0.438,0.02-0.659,0.02c0.221,0,0.441,0.008,0.659,0.02
					L552.867,78.273z"/>
			</g>
			<g>
				<path fill="#F7CB6B" d="M528.463,78.273l0.02,0.02c0.218-0.012,0.438-0.02,0.659-0.02c-0.221,0-0.441-0.008-0.659-0.02
					L528.463,78.273z"/>
			</g>
			<g>
				<path fill="#F7CB6B" d="M540.665,66.282l-0.02,0.02c0.012,0.214,0.02,0.43,0.02,0.647c0-0.217,0.008-0.433,0.02-0.647
					L540.665,66.282z"/>
			</g>
			<g>
				<ellipse fill="#F7CB6B" cx="540.665" cy="78.273" rx="11.523" ry="11.325"/>
			</g>
			<g>
				<path fill="#F7CB6B" d="M540.665,89.598c0,0.217-0.008,0.433-0.02,0.647l0.02,0.02l0.02-0.02
					C540.672,90.031,540.665,89.816,540.665,89.598z"/>
			</g>
		</g>
		<g>
			<g>
				<path fill="#F7CB6B" d="M509.074,104.467l-0.013-0.013c-0.142,0.008-0.285,0.013-0.429,0.013c0.144,0,0.287,0.005,0.429,0.013
					L509.074,104.467z"/>
			</g>
			<g>
				<path fill="#F7CB6B" d="M493.18,104.467l0.013,0.013c0.142-0.008,0.285-0.013,0.429-0.013c-0.144,0-0.287-0.005-0.429-0.013
					L493.18,104.467z"/>
			</g>
			<g>
				<path fill="#F7CB6B" d="M501.127,96.52l-0.013,0.013c0.008,0.142,0.013,0.285,0.013,0.429c0-0.144,0.005-0.287,0.013-0.429
					L501.127,96.52z"/>
			</g>
			<g>
				<circle fill="#F7CB6B" cx="501.127" cy="104.467" r="7.505"/>
			</g>
			<g>
				<path fill="#F7CB6B" d="M501.127,111.972c0,0.144-0.005,0.287-0.013,0.429l0.013,0.013l0.013-0.013
					C501.132,112.259,501.127,112.116,501.127,111.972z"/>
			</g>
		</g>
		<g>
			<g>
				<path fill="#F7CB6B" d="M529.813,110.694l-0.01-0.01c-0.105,0.006-0.211,0.01-0.318,0.01c0.107,0,0.212,0.004,0.318,0.01
					L529.813,110.694z"/>
			</g>
			<g>
				<path fill="#F7CB6B" d="M518.049,110.694l0.01,0.01c0.105-0.006,0.211-0.01,0.318-0.01c-0.107,0-0.212-0.004-0.318-0.01
					L518.049,110.694z"/>
			</g>
			<g>
				<path fill="#F7CB6B" d="M523.931,104.812l-0.01,0.01c0.006,0.105,0.01,0.211,0.01,0.318c0-0.107,0.004-0.212,0.01-0.318
					L523.931,104.812z"/>
			</g>
			<g>
				<circle fill="#F7CB6B" cx="523.931" cy="110.694" r="5.555"/>
			</g>
			<g>
				<path fill="#F7CB6B" d="M523.931,116.249c0,0.107-0.004,0.212-0.01,0.318l0.01,0.01l0.01-0.01
					C523.935,116.462,523.931,116.356,523.931,116.249z"/>
			</g>
			<g>
				<path fill="#F7CB6B" d="M120.402,151.614l-0.008-0.008c-0.082,0.005-0.164,0.008-0.247,0.008c0.083,0,0.166,0.003,0.247,0.008
					L120.402,151.614z"/>
			</g>
			<g>
				<path fill="#F7CB6B" d="M115.818,147.03l-0.008,0.008c0.005,0.082,0.008,0.164,0.008,0.247c0-0.083,0.003-0.165,0.008-0.247
					L115.818,147.03z"/>
			</g>
			<g>
				<circle fill="#F7CB6B" cx="115.818" cy="151.614" r="4.329"/>
			</g>
			<g>
				<path fill="#F7CB6B" d="M115.818,155.943c0,0.083-0.003,0.165-0.008,0.247l0.008,0.008l0.008-0.008
					C115.821,156.108,115.818,156.026,115.818,155.943z"/>
			</g>
			<g>
				<path fill="#F7CB6B" d="M144.55,131.099l-0.013-0.013c-0.142,0.008-0.285,0.013-0.429,0.013c0.144,0,0.287,0.005,0.429,0.013
					L144.55,131.099z"/>
			</g>
			<g>
				<path fill="#F7CB6B" d="M128.655,131.099l0.013,0.013c0.142-0.008,0.285-0.013,0.429-0.013c-0.144,0-0.287-0.005-0.429-0.013
					L128.655,131.099z"/>
			</g>
			<g>
				<circle fill="#F7CB6B" cx="136.603" cy="131.099" r="7.505"/>
			</g>
			<g>
				<path fill="#F7CB6B" d="M136.603,138.604c0,0.144-0.005,0.287-0.013,0.429l0.013,0.013l0.013-0.013
					C136.608,138.891,136.603,138.748,136.603,138.604z"/>
			</g>
			<g>
				<path fill="#F7CB6B" d="M153.524,137.326l0.01,0.01c0.105-0.006,0.211-0.01,0.318-0.01c-0.107,0-0.212-0.004-0.318-0.01
					L153.524,137.326z"/>
			</g>
			<g>
				<path fill="#F7CB6B" d="M159.406,131.444l-0.01,0.01c0.006,0.105,0.01,0.211,0.01,0.318c0-0.107,0.004-0.212,0.01-0.318
					L159.406,131.444z"/>
			</g>
			<g>
				<circle fill="#F7CB6B" cx="159.406" cy="137.326" r="5.555"/>
			</g>
			<g>
				<path fill="#F7CB6B" d="M159.406,142.881c0,0.107-0.004,0.212-0.01,0.318l0.01,0.01l0.01-0.01
					C159.41,143.094,159.406,142.988,159.406,142.881z"/>
			</g>
		</g>
		<g>
			<path fill="#474F50" d="M494.797,249.629c-0.137,0-0.272-0.056-0.371-0.165c-0.185-0.205-0.169-0.521,0.036-0.706
				c0.494-0.446,0.986-0.894,1.477-1.343c0.203-0.188,0.52-0.173,0.706,0.03c0.188,0.204,0.173,0.52-0.03,0.706
				c-0.492,0.451-0.986,0.9-1.482,1.349C495.036,249.586,494.917,249.629,494.797,249.629z M497.745,246.926
				c-0.134,0-0.268-0.054-0.366-0.159c-0.188-0.202-0.177-0.519,0.025-0.707c0.486-0.453,0.971-0.908,1.453-1.365
				c0.201-0.189,0.518-0.18,0.707,0.02c0.189,0.2,0.181,0.517-0.02,0.707c-0.484,0.459-0.971,0.916-1.459,1.371
				C497.989,246.882,497.867,246.926,497.745,246.926z M500.647,244.177c-0.131,0-0.263-0.052-0.36-0.153
				c-0.191-0.199-0.186-0.516,0.014-0.707c0.479-0.461,0.956-0.924,1.431-1.389c0.196-0.192,0.513-0.19,0.707,0.008
				c0.193,0.197,0.189,0.514-0.008,0.707c-0.477,0.467-0.955,0.932-1.437,1.395C500.897,244.131,500.772,244.177,500.647,244.177z
				 M503.504,241.381c-0.128,0-0.256-0.049-0.354-0.146c-0.195-0.195-0.195-0.513,0-0.707c0.471-0.471,0.941-0.941,1.408-1.414
				c0.194-0.195,0.511-0.199,0.707-0.004c0.196,0.193,0.198,0.511,0.004,0.707c-0.469,0.475-0.939,0.947-1.412,1.418
				C503.76,241.332,503.632,241.381,503.504,241.381z M506.313,238.536c-0.126,0-0.251-0.047-0.349-0.142
				c-0.198-0.192-0.202-0.509-0.01-0.707c0.464-0.478,0.925-0.956,1.384-1.437c0.189-0.198,0.508-0.207,0.707-0.016
				c0.199,0.19,0.207,0.507,0.016,0.707c-0.461,0.482-0.924,0.963-1.39,1.442C506.574,238.485,506.443,238.536,506.313,238.536z
				 M509.073,235.645c-0.123,0-0.246-0.045-0.343-0.136c-0.201-0.189-0.211-0.506-0.021-0.707c0.455-0.484,0.908-0.972,1.359-1.459
				c0.188-0.204,0.505-0.216,0.706-0.028c0.203,0.188,0.216,0.504,0.028,0.706c-0.453,0.491-0.908,0.98-1.365,1.467
				C509.339,235.592,509.206,235.645,509.073,235.645z M511.784,232.707c-0.12,0-0.24-0.043-0.336-0.13
				c-0.204-0.186-0.22-0.501-0.034-0.706c0.446-0.492,0.891-0.987,1.333-1.483c0.184-0.207,0.5-0.226,0.705-0.041
				c0.207,0.184,0.225,0.499,0.041,0.705c-0.444,0.5-0.891,0.997-1.339,1.491C512.056,232.651,511.92,232.707,511.784,232.707z
				 M514.441,229.722c-0.117,0-0.234-0.041-0.329-0.124c-0.208-0.182-0.229-0.497-0.047-0.705c0.438-0.5,0.873-1.003,1.307-1.508
				c0.18-0.21,0.496-0.232,0.705-0.053s0.233,0.495,0.053,0.705c-0.436,0.507-0.873,1.012-1.312,1.514
				C514.719,229.664,514.58,229.722,514.441,229.722z M517.049,226.688c-0.114,0-0.229-0.039-0.322-0.117
				c-0.211-0.179-0.238-0.494-0.061-0.705c0.428-0.508,0.854-1.019,1.278-1.53c0.178-0.215,0.493-0.243,0.704-0.067
				c0.213,0.177,0.243,0.491,0.067,0.704c-0.426,0.515-0.854,1.028-1.284,1.538C517.332,226.627,517.19,226.688,517.049,226.688z
				 M519.597,223.607c-0.111,0-0.223-0.037-0.315-0.112c-0.215-0.175-0.247-0.489-0.072-0.703c0.42-0.516,0.837-1.033,1.25-1.554
				c0.173-0.217,0.489-0.251,0.703-0.08c0.216,0.172,0.252,0.487,0.08,0.703c-0.417,0.522-0.836,1.044-1.258,1.562
				C519.886,223.545,519.741,223.607,519.597,223.607z M522.091,220.48c-0.108,0-0.217-0.035-0.309-0.106
				c-0.217-0.171-0.255-0.484-0.085-0.702c0.41-0.522,0.817-1.049,1.222-1.576c0.169-0.219,0.482-0.261,0.701-0.092
				c0.219,0.168,0.26,0.481,0.092,0.701c-0.406,0.529-0.815,1.058-1.228,1.584C522.386,220.415,522.239,220.48,522.091,220.48z
				 M524.524,217.309c-0.105,0-0.211-0.032-0.301-0.101c-0.221-0.166-0.265-0.479-0.099-0.7c0.4-0.532,0.798-1.064,1.192-1.6
				c0.164-0.223,0.477-0.27,0.699-0.105s0.27,0.477,0.105,0.699c-0.396,0.537-0.796,1.073-1.198,1.607
				C524.825,217.24,524.676,217.309,524.524,217.309z M526.899,214.089c-0.102,0-0.204-0.031-0.293-0.095
				c-0.224-0.162-0.274-0.475-0.112-0.698c0.39-0.539,0.776-1.079,1.161-1.622c0.161-0.227,0.474-0.275,0.697-0.119
				c0.226,0.16,0.278,0.473,0.119,0.697c-0.387,0.545-0.775,1.089-1.167,1.63C527.207,214.017,527.054,214.089,526.899,214.089z
				 M529.213,210.825c-0.099,0-0.198-0.029-0.285-0.089c-0.227-0.157-0.283-0.469-0.126-0.696c0.378-0.545,0.755-1.094,1.13-1.645
				c0.156-0.229,0.469-0.286,0.694-0.132c0.229,0.154,0.287,0.466,0.132,0.694c-0.375,0.553-0.754,1.104-1.134,1.652
				C529.526,210.75,529.371,210.825,529.213,210.825z M531.461,207.517c-0.096,0-0.191-0.027-0.276-0.084
				c-0.23-0.152-0.293-0.463-0.14-0.692c0.368-0.555,0.733-1.11,1.097-1.668c0.15-0.23,0.461-0.295,0.692-0.146
				c0.231,0.151,0.296,0.461,0.146,0.692c-0.365,0.56-0.732,1.117-1.103,1.674C531.781,207.438,531.622,207.517,531.461,207.517z
				 M533.644,204.164c-0.093,0-0.186-0.025-0.269-0.078c-0.233-0.149-0.302-0.458-0.153-0.69c0.357-0.561,0.712-1.123,1.063-1.688
				c0.146-0.233,0.455-0.303,0.689-0.16c0.234,0.146,0.306,0.454,0.16,0.689c-0.354,0.567-0.71,1.134-1.069,1.696
				C533.97,204.082,533.808,204.164,533.644,204.164z M535.759,200.768c-0.089,0-0.18-0.023-0.261-0.073
				c-0.235-0.144-0.31-0.452-0.166-0.688c0.347-0.568,0.689-1.138,1.03-1.709c0.143-0.239,0.45-0.315,0.686-0.174
				c0.237,0.142,0.315,0.449,0.174,0.686c-0.343,0.575-0.688,1.148-1.036,1.719C536.091,200.683,535.927,200.768,535.759,200.768z
				 M537.807,197.329c-0.086,0-0.172-0.022-0.251-0.068c-0.239-0.139-0.32-0.444-0.182-0.683c0.335-0.576,0.667-1.152,0.996-1.731
				c0.135-0.241,0.44-0.325,0.682-0.188c0.24,0.137,0.324,0.442,0.188,0.682c-0.331,0.582-0.665,1.161-1,1.739
				C538.146,197.24,537.979,197.329,537.807,197.329z M539.784,193.849c-0.083,0-0.166-0.02-0.243-0.063
				c-0.241-0.134-0.328-0.438-0.194-0.68c0.323-0.582,0.644-1.166,0.96-1.75c0.131-0.244,0.436-0.332,0.678-0.202
				c0.242,0.131,0.333,0.435,0.201,0.678c-0.318,0.589-0.64,1.175-0.964,1.76C540.13,193.756,539.959,193.849,539.784,193.849z
				 M541.689,190.327c-0.079,0-0.159-0.019-0.233-0.058c-0.244-0.129-0.338-0.432-0.209-0.676c0.311-0.587,0.619-1.178,0.924-1.77
				c0.127-0.246,0.429-0.342,0.673-0.215c0.246,0.126,0.343,0.428,0.216,0.673c-0.307,0.595-0.615,1.188-0.928,1.78
				C542.042,190.23,541.868,190.327,541.689,190.327z M543.523,186.767c-0.075,0-0.152-0.017-0.224-0.053
				c-0.247-0.124-0.347-0.424-0.224-0.671c0.298-0.595,0.594-1.191,0.886-1.79c0.122-0.249,0.421-0.349,0.669-0.23
				c0.248,0.121,0.351,0.42,0.229,0.668c-0.294,0.602-0.59,1.201-0.89,1.8C543.883,186.666,543.706,186.767,543.523,186.767z
				 M545.281,183.168c-0.072,0-0.146-0.016-0.215-0.049c-0.25-0.119-0.355-0.417-0.236-0.666c0.286-0.601,0.568-1.204,0.848-1.809
				c0.117-0.25,0.412-0.359,0.664-0.244c0.25,0.116,0.359,0.413,0.244,0.664c-0.281,0.608-0.565,1.214-0.854,1.818
				C545.646,183.063,545.468,183.168,545.281,183.168z M546.962,179.533c-0.068,0-0.139-0.014-0.205-0.044
				c-0.252-0.113-0.364-0.409-0.251-0.661c0.272-0.607,0.543-1.216,0.81-1.827c0.111-0.254,0.407-0.368,0.658-0.258
				c0.253,0.11,0.368,0.405,0.258,0.658c-0.269,0.614-0.539,1.226-0.813,1.836C547.335,179.423,547.152,179.533,546.962,179.533z
				 M548.566,175.861c-0.065,0-0.132-0.013-0.195-0.04c-0.254-0.108-0.373-0.402-0.265-0.656c0.26-0.613,0.517-1.228,0.771-1.844
				c0.104-0.255,0.397-0.375,0.652-0.272c0.256,0.105,0.377,0.397,0.271,0.653c-0.255,0.62-0.514,1.238-0.775,1.854
				C548.946,175.747,548.761,175.861,548.566,175.861z M550.093,172.156c-0.062,0-0.125-0.011-0.186-0.036
				c-0.257-0.103-0.381-0.394-0.278-0.65c0.247-0.619,0.49-1.238,0.73-1.86c0.1-0.259,0.391-0.386,0.647-0.286
				c0.257,0.1,0.386,0.389,0.286,0.646c-0.242,0.625-0.487,1.249-0.736,1.871C550.479,172.038,550.291,172.156,550.093,172.156z
				 M551.539,168.417c-0.059,0-0.118-0.01-0.176-0.032c-0.259-0.097-0.39-0.385-0.292-0.644c0.233-0.623,0.464-1.248,0.691-1.875
				c0.094-0.26,0.384-0.394,0.64-0.3c0.26,0.094,0.395,0.381,0.3,0.64c-0.228,0.631-0.46,1.26-0.695,1.887
				C551.932,168.293,551.741,168.417,551.539,168.417z M552.905,164.648c-0.055,0-0.11-0.009-0.165-0.028
				c-0.261-0.091-0.398-0.376-0.307-0.637c0.22-0.629,0.438-1.259,0.651-1.892c0.088-0.261,0.372-0.403,0.634-0.313
				c0.262,0.089,0.402,0.373,0.313,0.634c-0.216,0.635-0.434,1.269-0.655,1.9C553.305,164.519,553.111,164.648,552.905,164.648z
				 M554.19,160.849c-0.052,0-0.104-0.008-0.155-0.024c-0.263-0.086-0.405-0.368-0.32-0.631c0.207-0.633,0.41-1.268,0.611-1.905
				c0.082-0.263,0.365-0.409,0.627-0.327c0.264,0.083,0.409,0.364,0.326,0.627c-0.201,0.64-0.406,1.278-0.613,1.915
				C554.597,160.715,554.401,160.849,554.19,160.849z M555.395,157.022c-0.048,0-0.097-0.007-0.145-0.021
				c-0.265-0.08-0.414-0.359-0.334-0.624c0.192-0.637,0.383-1.276,0.568-1.917c0.077-0.265,0.352-0.419,0.62-0.341
				c0.265,0.077,0.417,0.354,0.341,0.619c-0.188,0.645-0.378,1.288-0.572,1.929C555.808,156.883,555.609,157.022,555.395,157.022z
				 M556.515,153.17c-0.045,0-0.092-0.006-0.138-0.019c-0.266-0.076-0.419-0.353-0.343-0.618l0.063-0.23
				c0.132-0.551,0.265-1.12,0.396-1.69c0.062-0.269,0.328-0.439,0.599-0.376c0.27,0.062,0.438,0.33,0.376,0.599
				c-0.131,0.573-0.266,1.145-0.401,1.716l-0.071,0.256C556.933,153.027,556.732,153.17,556.515,153.17z M557.419,149.273
				c-0.036,0-0.072-0.004-0.108-0.012c-0.27-0.059-0.44-0.326-0.381-0.595c0.142-0.649,0.281-1.3,0.417-1.951
				c0.057-0.271,0.325-0.441,0.591-0.388c0.271,0.056,0.444,0.321,0.388,0.591c-0.136,0.655-0.275,1.31-0.419,1.962
				C557.855,149.114,557.648,149.273,557.419,149.273z M558.231,145.355c-0.032,0-0.064-0.003-0.097-0.009
				c-0.271-0.053-0.448-0.315-0.395-0.587c0.127-0.652,0.251-1.306,0.37-1.959c0.051-0.271,0.315-0.453,0.582-0.401
				c0.271,0.05,0.452,0.31,0.402,0.582c-0.121,0.658-0.245,1.315-0.374,1.971C558.675,145.189,558.466,145.355,558.231,145.355z
				 M558.949,141.42c-0.028,0-0.056-0.002-0.084-0.007c-0.272-0.046-0.456-0.304-0.41-0.576c0.11-0.656,0.216-1.312,0.317-1.968
				c0.042-0.272,0.301-0.456,0.57-0.418c0.272,0.042,0.46,0.297,0.418,0.57c-0.102,0.661-0.209,1.321-0.319,1.981
				C559.4,141.247,559.188,141.42,558.949,141.42z M559.556,137.467c-0.023,0-0.046-0.001-0.069-0.005
				c-0.273-0.037-0.465-0.29-0.427-0.563c0.09-0.659,0.176-1.318,0.256-1.976c0.033-0.274,0.294-0.468,0.557-0.437
				c0.273,0.033,0.469,0.283,0.436,0.557c-0.08,0.664-0.166,1.328-0.258,1.992C560.016,137.285,559.802,137.467,559.556,137.467z
				 M560.035,133.496c-0.018,0-0.035-0.001-0.053-0.003c-0.274-0.028-0.475-0.274-0.445-0.549c0.068-0.661,0.131-1.321,0.188-1.982
				c0.024-0.275,0.271-0.481,0.541-0.456c0.274,0.023,0.479,0.266,0.455,0.541c-0.057,0.667-0.119,1.333-0.189,2
				C560.505,133.305,560.287,133.496,560.035,133.496z M560.373,129.51c-0.011,0-0.021,0-0.032-0.001
				c-0.275-0.018-0.484-0.255-0.467-0.531c0.043-0.663,0.079-1.325,0.107-1.987c0.013-0.269,0.233-0.478,0.5-0.478
				c0.007,0,0.015,0,0.022,0c0.275,0.012,0.489,0.246,0.478,0.521c-0.03,0.668-0.066,1.337-0.109,2.007
				C560.854,129.307,560.635,129.51,560.373,129.51z M560.546,125.515c-0.004,0-0.008,0-0.011,0
				c-0.276-0.006-0.495-0.235-0.489-0.511c0.014-0.609,0.021-1.217,0.021-1.823l0.001-0.165c0-0.276,0.224-0.5,0.5-0.5
				s0.5,0.224,0.5,0.5l-0.001,0.174c0,0.605-0.007,1.22-0.021,1.837C561.04,125.298,560.817,125.515,560.546,125.515z
				 M560.538,121.516c-0.27,0-0.492-0.215-0.5-0.486c-0.019-0.663-0.045-1.325-0.079-1.985c-0.015-0.276,0.197-0.511,0.473-0.526
				c0.286-0.016,0.512,0.198,0.525,0.473c0.036,0.668,0.062,1.338,0.081,2.01c0.008,0.276-0.21,0.506-0.486,0.514
				C560.547,121.516,560.543,121.516,560.538,121.516z M560.323,117.523c-0.258,0-0.477-0.199-0.497-0.46
				c-0.053-0.66-0.115-1.319-0.188-1.975c-0.03-0.274,0.168-0.522,0.442-0.552c0.271-0.029,0.521,0.167,0.552,0.442
				c0.073,0.667,0.138,1.335,0.19,2.006c0.022,0.275-0.184,0.516-0.459,0.538C560.351,117.523,560.337,117.523,560.323,117.523z
				 M559.883,113.55c-0.245,0-0.459-0.181-0.494-0.431c-0.092-0.655-0.194-1.308-0.308-1.958c-0.048-0.272,0.135-0.531,0.406-0.579
				c0.266-0.048,0.531,0.134,0.578,0.407c0.115,0.661,0.22,1.325,0.313,1.992c0.038,0.273-0.152,0.526-0.426,0.564
				C559.93,113.549,559.906,113.55,559.883,113.55z M559.196,109.612c-0.231,0-0.439-0.162-0.488-0.397
				c-0.136-0.648-0.282-1.292-0.439-1.933c-0.066-0.269,0.098-0.539,0.366-0.605c0.27-0.069,0.539,0.099,0.604,0.366
				c0.161,0.653,0.31,1.309,0.447,1.967c0.057,0.271-0.116,0.535-0.387,0.592C559.266,109.608,559.23,109.612,559.196,109.612z
				 M558.241,105.729c-0.219,0-0.419-0.144-0.481-0.364c-0.18-0.635-0.372-1.267-0.576-1.895c-0.085-0.262,0.059-0.544,0.321-0.63
				c0.263-0.085,0.545,0.06,0.63,0.321c0.208,0.64,0.404,1.284,0.588,1.931c0.075,0.266-0.079,0.542-0.345,0.617
				C558.332,105.723,558.286,105.729,558.241,105.729z M557.004,101.926c-0.204,0-0.396-0.125-0.47-0.328
				c-0.226-0.618-0.467-1.232-0.72-1.843c-0.105-0.255,0.016-0.547,0.271-0.653c0.254-0.104,0.547,0.015,0.653,0.271
				c0.259,0.624,0.504,1.251,0.735,1.882c0.095,0.259-0.039,0.546-0.298,0.642C557.119,101.916,557.061,101.926,557.004,101.926z
				 M555.473,98.231c-0.188,0-0.37-0.107-0.454-0.291c-0.275-0.597-0.564-1.19-0.867-1.78c-0.126-0.246-0.028-0.547,0.217-0.673
				c0.245-0.125,0.547-0.029,0.674,0.217c0.309,0.602,0.604,1.208,0.885,1.817c0.115,0.251,0.006,0.548-0.245,0.664
				C555.614,98.216,555.543,98.231,555.473,98.231z M553.646,94.67c-0.174,0-0.343-0.091-0.436-0.253
				c-0.323-0.572-0.66-1.139-1.01-1.703c-0.146-0.234-0.073-0.542,0.161-0.688c0.233-0.144,0.543-0.075,0.688,0.161
				c0.357,0.574,0.7,1.153,1.031,1.737c0.136,0.24,0.051,0.545-0.189,0.682C553.815,94.649,553.73,94.67,553.646,94.67z
				 M551.536,91.275c-0.159,0-0.316-0.077-0.413-0.219c-0.369-0.543-0.751-1.08-1.146-1.613c-0.165-0.222-0.118-0.535,0.104-0.699
				c0.223-0.164,0.536-0.118,0.699,0.104c0.403,0.544,0.793,1.093,1.17,1.646c0.155,0.229,0.097,0.54-0.132,0.695
				C551.731,91.248,551.634,91.275,551.536,91.275z M549.152,88.064c-0.146,0-0.291-0.064-0.39-0.187
				c-0.41-0.509-0.834-1.015-1.271-1.515c-0.183-0.208-0.161-0.524,0.047-0.706c0.206-0.181,0.522-0.162,0.705,0.047
				c0.447,0.511,0.881,1.026,1.299,1.546c0.173,0.215,0.139,0.53-0.076,0.703C549.373,88.028,549.263,88.064,549.152,88.064z"/>
		</g>
		<g>
			<path fill="#474F50" d="M414.142,118.029c-0.143,0-0.283-0.061-0.383-0.178c-0.178-0.211-0.15-0.526,0.061-0.704
				c0.514-0.433,1.029-0.861,1.548-1.285c0.213-0.173,0.528-0.143,0.703,0.071s0.144,0.529-0.07,0.704
				c-0.515,0.421-1.026,0.846-1.536,1.275C414.37,117.991,414.256,118.029,414.142,118.029z M417.239,115.49
				c-0.146,0-0.292-0.064-0.391-0.188c-0.173-0.216-0.138-0.53,0.078-0.703c0.524-0.418,1.05-0.833,1.576-1.244
				c0.215-0.168,0.532-0.132,0.701,0.086c0.171,0.217,0.132,0.532-0.086,0.702c-0.522,0.409-1.046,0.821-1.566,1.237
				C417.459,115.454,417.349,115.49,417.239,115.49z M420.397,113.027c-0.15,0-0.3-0.068-0.398-0.198
				c-0.167-0.22-0.124-0.533,0.096-0.7c0.534-0.406,1.068-0.808,1.605-1.206c0.223-0.164,0.536-0.118,0.699,0.104
				c0.165,0.222,0.118,0.535-0.104,0.699c-0.533,0.396-1.065,0.796-1.596,1.199C420.609,112.994,420.503,113.027,420.397,113.027z
				 M423.613,110.641c-0.154,0-0.308-0.072-0.405-0.207c-0.162-0.224-0.111-0.536,0.112-0.698c0.542-0.393,1.087-0.782,1.633-1.167
				c0.222-0.158,0.535-0.107,0.696,0.12c0.159,0.226,0.105,0.538-0.12,0.697c-0.542,0.383-1.083,0.771-1.623,1.161
				C423.817,110.61,423.715,110.641,423.613,110.641z M426.882,108.331c-0.158,0-0.314-0.076-0.412-0.216
				c-0.156-0.228-0.099-0.539,0.128-0.695c0.552-0.38,1.104-0.757,1.658-1.13c0.229-0.155,0.54-0.094,0.694,0.135
				c0.154,0.229,0.093,0.54-0.136,0.694c-0.552,0.371-1.101,0.746-1.648,1.124C427.079,108.302,426.98,108.331,426.882,108.331z
				 M430.201,106.095c-0.162,0-0.321-0.079-0.418-0.225c-0.151-0.231-0.088-0.541,0.144-0.693c0.559-0.368,1.119-0.732,1.681-1.093
				c0.232-0.15,0.541-0.083,0.691,0.15c0.149,0.232,0.082,0.542-0.15,0.691c-0.56,0.359-1.116,0.723-1.673,1.088
				C430.392,106.068,430.296,106.095,430.201,106.095z M433.565,103.93c-0.166,0-0.328-0.083-0.423-0.234
				c-0.147-0.234-0.077-0.542,0.156-0.689c0.566-0.356,1.134-0.708,1.704-1.059c0.231-0.143,0.542-0.072,0.688,0.164
				c0.145,0.235,0.071,0.543-0.164,0.688c-0.566,0.349-1.132,0.7-1.694,1.054C433.749,103.905,433.657,103.93,433.565,103.93z
				 M436.974,101.833c-0.169,0-0.335-0.086-0.429-0.242c-0.142-0.237-0.065-0.544,0.171-0.686c0.572-0.345,1.147-0.687,1.723-1.025
				c0.237-0.14,0.544-0.062,0.685,0.177c0.141,0.238,0.062,0.544-0.177,0.685c-0.573,0.338-1.145,0.678-1.715,1.021
				C437.15,101.811,437.062,101.833,436.974,101.833z M440.422,99.804c-0.173,0-0.341-0.09-0.433-0.25
				c-0.139-0.239-0.057-0.545,0.183-0.683c0.578-0.334,1.159-0.665,1.741-0.994c0.238-0.135,0.546-0.052,0.682,0.189
				c0.136,0.241,0.051,0.546-0.189,0.682c-0.58,0.327-1.157,0.657-1.733,0.989C440.593,99.782,440.507,99.804,440.422,99.804z
				 M443.903,97.837c-0.176,0-0.346-0.093-0.438-0.258c-0.134-0.242-0.046-0.546,0.195-0.68c0.584-0.323,1.17-0.644,1.757-0.963
				c0.238-0.13,0.546-0.043,0.678,0.201c0.132,0.243,0.042,0.546-0.201,0.678c-0.583,0.317-1.167,0.637-1.749,0.959
				C444.068,97.817,443.985,97.837,443.903,97.837z M447.418,95.93c-0.179,0-0.352-0.096-0.441-0.265
				c-0.13-0.244-0.037-0.546,0.206-0.676c0.59-0.313,1.181-0.625,1.772-0.935c0.244-0.128,0.546-0.033,0.675,0.212
				c0.128,0.245,0.033,0.547-0.212,0.675c-0.59,0.308-1.179,0.618-1.765,0.931C447.578,95.911,447.498,95.93,447.418,95.93z
				 M450.962,94.077c-0.181,0-0.356-0.099-0.445-0.271c-0.126-0.246-0.028-0.547,0.217-0.673c0.594-0.305,1.188-0.607,1.785-0.908
				c0.241-0.126,0.546-0.026,0.671,0.221c0.124,0.247,0.025,0.547-0.222,0.671c-0.593,0.299-1.186,0.601-1.777,0.905
				C451.117,94.06,451.039,94.077,450.962,94.077z M454.531,92.277c-0.184,0-0.36-0.102-0.448-0.278
				c-0.122-0.248-0.021-0.547,0.227-0.67c0.598-0.296,1.196-0.591,1.797-0.884c0.245-0.121,0.547-0.019,0.668,0.23
				c0.121,0.248,0.019,0.547-0.23,0.668c-0.599,0.292-1.195,0.585-1.791,0.881C454.682,92.261,454.606,92.277,454.531,92.277z
				 M458.124,90.524c-0.186,0-0.365-0.104-0.451-0.284c-0.119-0.249-0.014-0.548,0.235-0.667c0.601-0.289,1.203-0.576,1.807-0.861
				c0.247-0.119,0.547-0.013,0.666,0.238c0.118,0.25,0.012,0.548-0.238,0.666c-0.602,0.285-1.202,0.571-1.803,0.858
				C458.271,90.509,458.197,90.524,458.124,90.524z M461.737,88.815c-0.188,0-0.368-0.107-0.453-0.289
				c-0.117-0.25-0.009-0.548,0.242-0.665l1.815-0.841c0.248-0.115,0.548-0.006,0.663,0.245c0.115,0.25,0.006,0.548-0.245,0.663
				l-1.812,0.839C461.88,88.8,461.809,88.815,461.737,88.815z M465.368,87.144c-0.189,0-0.371-0.109-0.455-0.293
				c-0.114-0.251-0.003-0.548,0.248-0.662l1.823-0.823c0.25-0.114,0.548-0.001,0.661,0.251c0.113,0.252,0.001,0.548-0.251,0.661
				l-1.819,0.821C465.508,87.13,465.438,87.144,465.368,87.144z M469.02,85.517c-0.196,0-0.383-0.117-0.463-0.31
				c-0.104-0.255,0.018-0.547,0.272-0.652l1.851-0.759c0.258-0.104,0.548,0.018,0.652,0.274c0.104,0.255-0.019,0.547-0.273,0.652
				l-1.849,0.758C469.147,85.504,469.083,85.517,469.02,85.517z M472.721,84.004c-0.197,0-0.385-0.118-0.464-0.312
				c-0.104-0.256,0.021-0.547,0.276-0.651l1.856-0.748c0.254-0.103,0.547,0.022,0.649,0.279s-0.021,0.547-0.278,0.65l-1.853,0.746
				C472.847,83.992,472.783,84.004,472.721,84.004z M476.435,82.519c-0.199,0-0.388-0.12-0.465-0.317
				c-0.102-0.257,0.024-0.547,0.281-0.648c0.622-0.245,1.244-0.487,1.867-0.728c0.256-0.097,0.547,0.03,0.646,0.287
				c0.099,0.257-0.029,0.547-0.287,0.646c-0.621,0.239-1.241,0.481-1.859,0.725C476.558,82.508,476.496,82.519,476.435,82.519z
				 M480.168,81.081c-0.202,0-0.393-0.123-0.468-0.324c-0.098-0.258,0.033-0.547,0.291-0.644c0.626-0.236,1.253-0.469,1.881-0.699
				c0.261-0.095,0.547,0.039,0.642,0.298s-0.039,0.546-0.298,0.641c-0.626,0.229-1.249,0.46-1.871,0.695
				C480.286,81.07,480.227,81.081,480.168,81.081z M483.924,79.704c-0.206,0-0.398-0.128-0.472-0.333
				c-0.092-0.26,0.044-0.546,0.305-0.638c0.631-0.224,1.262-0.444,1.895-0.661c0.262-0.088,0.546,0.049,0.635,0.312
				c0.09,0.261-0.05,0.545-0.311,0.635c-0.629,0.215-1.258,0.434-1.885,0.657C484.036,79.695,483.979,79.704,483.924,79.704z
				 M487.711,78.41c-0.21,0-0.406-0.134-0.476-0.344c-0.086-0.263,0.058-0.545,0.32-0.631c0.637-0.209,1.274-0.413,1.912-0.612
				c0.27-0.083,0.544,0.065,0.627,0.328c0.082,0.264-0.064,0.544-0.328,0.626c-0.634,0.198-1.268,0.401-1.9,0.608
				C487.814,78.402,487.763,78.41,487.711,78.41z M491.533,77.216c-0.216,0-0.415-0.141-0.479-0.358
				c-0.078-0.265,0.073-0.543,0.338-0.621c0.644-0.19,1.287-0.375,1.933-0.554c0.271-0.072,0.541,0.083,0.615,0.348
				c0.074,0.266-0.082,0.542-0.348,0.616c-0.64,0.177-1.279,0.361-1.917,0.549C491.628,77.21,491.58,77.216,491.533,77.216z
				 M495.391,76.146c-0.223,0-0.426-0.149-0.484-0.375c-0.068-0.268,0.092-0.54,0.359-0.609c0.65-0.167,1.302-0.329,1.952-0.483
				c0.27-0.066,0.537,0.103,0.602,0.371c0.063,0.269-0.103,0.538-0.371,0.602c-0.645,0.153-1.288,0.312-1.933,0.479
				C495.474,76.142,495.432,76.146,495.391,76.146z M499.285,75.224c-0.23,0-0.438-0.16-0.488-0.395
				c-0.058-0.27,0.114-0.536,0.384-0.594c0.657-0.142,1.315-0.275,1.974-0.401c0.263-0.052,0.532,0.126,0.585,0.397
				c0.052,0.271-0.126,0.533-0.397,0.585c-0.65,0.124-1.301,0.256-1.95,0.396C499.355,75.22,499.32,75.224,499.285,75.224z
				 M525.094,74.626c-0.035,0-0.069-0.003-0.104-0.011c-0.647-0.137-1.296-0.26-1.944-0.369c-0.272-0.046-0.456-0.304-0.41-0.577
				s0.309-0.45,0.576-0.41c0.662,0.112,1.324,0.237,1.985,0.377c0.27,0.057,0.442,0.322,0.386,0.593
				C525.532,74.465,525.324,74.626,525.094,74.626z M503.217,74.473c-0.24,0-0.452-0.173-0.492-0.418
				c-0.045-0.272,0.139-0.53,0.411-0.575c0.664-0.11,1.327-0.212,1.991-0.304c0.265-0.043,0.526,0.152,0.564,0.426
				c0.038,0.273-0.152,0.526-0.426,0.564c-0.656,0.091-1.312,0.192-1.966,0.3C503.271,74.471,503.244,74.473,503.217,74.473z
				 M521.151,73.959c-0.021,0-0.043-0.001-0.065-0.004c-0.655-0.085-1.312-0.156-1.969-0.215c-0.274-0.025-0.478-0.268-0.453-0.543
				c0.024-0.276,0.263-0.485,0.543-0.453c0.669,0.06,1.339,0.133,2.008,0.219c0.273,0.036,0.467,0.286,0.432,0.56
				C521.613,73.775,521.398,73.959,521.151,73.959z M507.181,73.922c-0.251,0-0.468-0.189-0.496-0.445
				c-0.03-0.274,0.167-0.521,0.441-0.552c0.669-0.074,1.338-0.139,2.006-0.193c0.265-0.02,0.517,0.183,0.539,0.458
				c0.022,0.275-0.182,0.517-0.457,0.539c-0.658,0.054-1.317,0.117-1.977,0.19C507.218,73.921,507.199,73.922,507.181,73.922z
				 M517.167,73.6c-0.009,0-0.018,0-0.026,0c-0.661-0.035-1.321-0.058-1.981-0.069c-0.275-0.005-0.496-0.232-0.491-0.508
				c0.005-0.276,0.265-0.485,0.509-0.492c0.672,0.011,1.344,0.035,2.017,0.07c0.275,0.015,0.487,0.25,0.473,0.526
				C517.652,73.393,517.432,73.6,517.167,73.6z M511.17,73.599c-0.265,0-0.486-0.208-0.499-0.475
				c-0.014-0.276,0.198-0.511,0.475-0.524c0.671-0.033,1.343-0.057,2.015-0.068c0.295-0.002,0.504,0.215,0.509,0.492
				c0.005,0.276-0.216,0.503-0.491,0.508c-0.662,0.011-1.322,0.034-1.983,0.067C511.187,73.599,511.178,73.599,511.17,73.599z"/>
		</g>
		<g>
			<path fill="#474F50" d="M245.189,159.771c-0.097,0-0.194-0.028-0.279-0.085c-0.469-0.316-0.957-0.653-1.467-1.011
				c-0.227-0.158-0.281-0.47-0.122-0.696c0.158-0.227,0.473-0.281,0.696-0.122c0.504,0.354,0.988,0.688,1.451,1
				c0.229,0.155,0.29,0.465,0.135,0.694C245.507,159.694,245.35,159.771,245.189,159.771z M242.1,157.606
				c-0.102,0-0.204-0.031-0.293-0.095c-0.521-0.375-1.061-0.769-1.619-1.18c-0.223-0.164-0.271-0.477-0.107-0.699
				c0.166-0.223,0.479-0.269,0.699-0.107c0.557,0.409,1.095,0.8,1.613,1.175c0.224,0.162,0.274,0.474,0.112,0.698
				C242.407,157.535,242.254,157.606,242.1,157.606z M238.876,155.24c-0.104,0-0.209-0.032-0.299-0.099l-1.604-1.199
				c-0.221-0.166-0.266-0.479-0.101-0.7c0.167-0.222,0.48-0.265,0.7-0.1l1.602,1.197c0.222,0.165,0.268,0.478,0.103,0.699
				C239.179,155.17,239.028,155.24,238.876,155.24z M235.676,152.838c-0.105,0-0.211-0.033-0.302-0.101l-1.596-1.208
				c-0.22-0.167-0.263-0.481-0.096-0.701c0.168-0.22,0.481-0.263,0.701-0.096l1.594,1.207c0.22,0.167,0.264,0.48,0.098,0.7
				C235.977,152.77,235.827,152.838,235.676,152.838z M232.487,150.421c-0.105,0-0.212-0.033-0.303-0.102l-1.592-1.211
				c-0.22-0.167-0.263-0.481-0.095-0.701c0.166-0.22,0.479-0.263,0.7-0.095l1.592,1.211c0.22,0.167,0.263,0.48,0.096,0.701
				C232.787,150.354,232.638,150.421,232.487,150.421z M229.304,147.999c-0.105,0-0.212-0.033-0.303-0.102l-1.592-1.211
				c-0.22-0.167-0.263-0.481-0.095-0.701c0.166-0.22,0.48-0.263,0.7-0.095l1.592,1.211c0.22,0.167,0.263,0.48,0.096,0.7
				C229.604,147.931,229.454,147.999,229.304,147.999z M226.119,145.578c-0.105,0-0.212-0.033-0.303-0.102l-1.593-1.208
				c-0.221-0.167-0.264-0.48-0.097-0.7c0.166-0.221,0.482-0.263,0.7-0.097l1.595,1.209c0.22,0.167,0.263,0.481,0.096,0.701
				C226.419,145.51,226.27,145.578,226.119,145.578z M222.931,143.162c-0.105,0-0.212-0.033-0.302-0.102l-1.595-1.204
				c-0.221-0.167-0.265-0.48-0.099-0.7c0.168-0.221,0.481-0.264,0.7-0.099l1.597,1.206c0.22,0.167,0.264,0.48,0.097,0.7
				C223.231,143.094,223.081,143.162,222.931,143.162z M219.736,140.754c-0.105,0-0.211-0.033-0.301-0.101l-1.599-1.199
				c-0.221-0.166-0.266-0.479-0.101-0.7c0.165-0.221,0.48-0.266,0.7-0.101l1.601,1.201c0.221,0.166,0.265,0.479,0.099,0.7
				C220.038,140.686,219.888,140.754,219.736,140.754z M216.534,138.357c-0.104,0-0.209-0.032-0.299-0.1l-1.604-1.193
				c-0.222-0.165-0.269-0.478-0.104-0.699c0.165-0.222,0.478-0.267,0.699-0.104l1.605,1.195c0.222,0.165,0.267,0.479,0.102,0.7
				C216.837,138.288,216.687,138.357,216.534,138.357z M213.322,135.973c-0.104,0-0.208-0.032-0.297-0.098l-1.609-1.187
				c-0.222-0.164-0.27-0.477-0.105-0.699c0.164-0.223,0.478-0.268,0.699-0.106l1.609,1.188c0.223,0.165,0.27,0.478,0.105,0.7
				C213.626,135.902,213.476,135.973,213.322,135.973z M210.101,133.601c-0.103,0-0.206-0.031-0.296-0.097l-1.613-1.18
				c-0.223-0.163-0.271-0.476-0.109-0.699c0.165-0.223,0.479-0.27,0.699-0.109l1.615,1.181c0.223,0.163,0.271,0.476,0.107,0.699
				C210.406,133.53,210.254,133.601,210.101,133.601z M206.869,131.244c-0.103,0-0.205-0.031-0.294-0.096l-1.618-1.172
				c-0.224-0.162-0.274-0.474-0.112-0.698s0.474-0.273,0.698-0.112l1.62,1.174c0.224,0.163,0.272,0.475,0.11,0.698
				C207.176,131.172,207.023,131.244,206.869,131.244z M203.626,128.901c-0.102,0-0.203-0.031-0.292-0.094l-1.624-1.165
				c-0.225-0.161-0.276-0.473-0.115-0.698c0.16-0.226,0.475-0.275,0.697-0.116l1.626,1.167c0.224,0.161,0.275,0.474,0.114,0.698
				C203.935,128.829,203.781,128.901,203.626,128.901z M200.373,126.574c-0.101,0-0.202-0.03-0.29-0.093l-1.63-1.157
				c-0.226-0.16-0.278-0.472-0.119-0.697c0.161-0.227,0.474-0.277,0.697-0.119l1.632,1.159c0.225,0.16,0.277,0.473,0.117,0.697
				C200.683,126.501,200.528,126.574,200.373,126.574z M197.108,124.263c-0.1,0-0.2-0.029-0.288-0.091l-1.637-1.148
				c-0.226-0.158-0.281-0.47-0.122-0.696c0.158-0.227,0.47-0.281,0.696-0.123l1.639,1.15c0.226,0.159,0.279,0.471,0.121,0.696
				C197.42,124.189,197.266,124.263,197.108,124.263z M193.832,121.968c-0.1,0-0.199-0.029-0.286-0.09l-1.641-1.14
				c-0.228-0.157-0.284-0.469-0.127-0.696c0.156-0.228,0.469-0.283,0.695-0.126l1.645,1.142c0.227,0.158,0.282,0.47,0.124,0.696
				C194.145,121.894,193.989,121.968,193.832,121.968z M190.543,119.691c-0.099,0-0.197-0.029-0.284-0.088l-1.646-1.132
				c-0.229-0.156-0.286-0.468-0.13-0.695s0.469-0.285,0.694-0.13l1.65,1.134c0.227,0.157,0.284,0.468,0.127,0.695
				C190.857,119.615,190.701,119.691,190.543,119.691z M187.242,117.43c-0.098,0-0.195-0.028-0.281-0.087l-1.653-1.123
				c-0.229-0.155-0.288-0.466-0.134-0.695c0.155-0.228,0.468-0.287,0.694-0.133l1.655,1.125c0.229,0.156,0.287,0.467,0.132,0.695
				C187.559,117.354,187.401,117.43,187.242,117.43z M183.933,115.187c-0.097,0-0.193-0.027-0.279-0.085l-1.66-1.115
				c-0.229-0.154-0.291-0.464-0.137-0.694c0.153-0.229,0.466-0.291,0.693-0.137l1.662,1.116c0.229,0.154,0.29,0.465,0.136,0.694
				C184.251,115.109,184.093,115.187,183.933,115.187z M180.607,112.96c-0.096,0-0.192-0.027-0.277-0.084l-1.665-1.105
				c-0.23-0.153-0.293-0.463-0.141-0.693c0.154-0.231,0.466-0.291,0.693-0.141l1.667,1.107c0.229,0.153,0.292,0.463,0.139,0.693
				C180.927,112.882,180.769,112.96,180.607,112.96z M177.272,110.752c-0.095,0-0.19-0.027-0.275-0.083l-1.67-1.097
				c-0.231-0.151-0.296-0.461-0.145-0.692s0.463-0.294,0.691-0.145l1.674,1.099c0.23,0.152,0.294,0.462,0.142,0.693
				C177.594,110.673,177.435,110.752,177.272,110.752z M173.926,108.561c-0.094,0-0.188-0.026-0.272-0.081
				c-0.56-0.364-1.119-0.723-1.678-1.078c-0.233-0.148-0.303-0.457-0.154-0.69c0.147-0.234,0.458-0.302,0.689-0.155
				c0.562,0.356,1.124,0.718,1.688,1.083c0.231,0.15,0.297,0.46,0.146,0.692C174.249,108.481,174.089,108.561,173.926,108.561z
				 M170.547,106.419c-0.089,0-0.18-0.024-0.262-0.074c-0.568-0.351-1.136-0.696-1.704-1.038c-0.236-0.143-0.313-0.45-0.171-0.687
				s0.451-0.312,0.687-0.171c0.57,0.343,1.142,0.691,1.714,1.043c0.234,0.145,0.308,0.453,0.163,0.688
				C170.879,106.335,170.715,106.419,170.547,106.419z M167.119,104.359c-0.086,0-0.173-0.022-0.252-0.068
				c-0.577-0.337-1.152-0.669-1.728-0.996c-0.24-0.136-0.324-0.441-0.188-0.682c0.136-0.241,0.44-0.324,0.682-0.188
				c0.579,0.329,1.158,0.663,1.737,1.002c0.238,0.139,0.319,0.445,0.18,0.684C167.458,104.271,167.291,104.359,167.119,104.359z
				 M163.642,102.382c-0.082,0-0.165-0.02-0.241-0.062c-0.585-0.322-1.17-0.64-1.753-0.952c-0.243-0.131-0.335-0.434-0.204-0.677
				c0.131-0.244,0.435-0.333,0.677-0.205c0.587,0.314,1.174,0.634,1.763,0.958c0.242,0.133,0.33,0.438,0.196,0.679
				C163.988,102.289,163.817,102.382,163.642,102.382z M160.114,100.495c-0.078,0-0.156-0.018-0.23-0.056
				c-0.593-0.308-1.185-0.61-1.775-0.907c-0.247-0.124-0.346-0.424-0.222-0.671c0.123-0.248,0.425-0.345,0.671-0.222
				c0.595,0.299,1.19,0.603,1.787,0.913c0.245,0.127,0.341,0.429,0.213,0.674C160.469,100.396,160.295,100.495,160.114,100.495z
				 M156.54,98.699c-0.074,0-0.148-0.016-0.219-0.05c-0.601-0.292-1.2-0.578-1.798-0.859c-0.25-0.117-0.358-0.415-0.241-0.665
				c0.119-0.25,0.417-0.357,0.665-0.24c0.604,0.283,1.207,0.571,1.812,0.865c0.248,0.121,0.352,0.42,0.23,0.668
				C156.903,98.596,156.725,98.699,156.54,98.699z M152.918,97c-0.069,0-0.139-0.014-0.206-0.044
				c-0.607-0.274-1.215-0.544-1.821-0.808c-0.254-0.11-0.369-0.405-0.26-0.658c0.11-0.253,0.407-0.37,0.658-0.259
				c0.61,0.266,1.222,0.537,1.835,0.813c0.251,0.113,0.363,0.41,0.25,0.661C153.29,96.891,153.108,97,152.918,97z M149.251,95.405
				c-0.064,0-0.13-0.012-0.192-0.039c-0.617-0.257-1.232-0.509-1.845-0.754c-0.257-0.103-0.381-0.394-0.278-0.65
				c0.103-0.257,0.396-0.38,0.649-0.278c0.618,0.248,1.237,0.501,1.858,0.76c0.255,0.106,0.375,0.399,0.27,0.654
				C149.633,95.29,149.446,95.405,149.251,95.405z M145.537,93.919c-0.06,0-0.12-0.011-0.179-0.033
				c-0.624-0.239-1.246-0.471-1.866-0.697c-0.26-0.095-0.394-0.381-0.299-0.641c0.095-0.259,0.38-0.392,0.641-0.298
				c0.626,0.228,1.254,0.462,1.882,0.703c0.258,0.099,0.387,0.388,0.288,0.646C145.928,93.797,145.738,93.919,145.537,93.919z
				 M141.778,92.549c-0.055,0-0.109-0.009-0.164-0.027c-0.631-0.219-1.26-0.431-1.887-0.636c-0.263-0.086-0.406-0.368-0.32-0.63
				c0.087-0.263,0.368-0.406,0.631-0.32c0.633,0.207,1.268,0.421,1.904,0.641c0.261,0.091,0.398,0.375,0.309,0.636
				C142.179,92.419,141.985,92.549,141.778,92.549z M137.978,91.304c-0.049,0-0.099-0.007-0.147-0.022
				c-0.639-0.197-1.274-0.387-1.907-0.57c-0.266-0.077-0.418-0.354-0.342-0.62s0.356-0.417,0.619-0.341
				c0.639,0.185,1.28,0.377,1.925,0.575c0.264,0.082,0.412,0.361,0.33,0.625C138.389,91.166,138.191,91.304,137.978,91.304z
				 M134.135,90.193c-0.043,0-0.087-0.005-0.13-0.017c-0.646-0.174-1.288-0.34-1.927-0.499c-0.269-0.067-0.432-0.338-0.365-0.606
				c0.066-0.267,0.336-0.431,0.605-0.365c0.646,0.161,1.295,0.329,1.946,0.504c0.267,0.072,0.425,0.346,0.353,0.613
				C134.558,90.046,134.355,90.193,134.135,90.193z M96.733,89.84c-0.2,0-0.39-0.121-0.466-0.319
				c-0.101-0.257,0.027-0.547,0.285-0.647c0.623-0.242,1.261-0.467,1.912-0.677c0.264-0.083,0.546,0.06,0.629,0.323
				c0.085,0.263-0.06,0.544-0.322,0.629c-0.632,0.204-1.252,0.422-1.857,0.657C96.854,89.83,96.794,89.84,96.733,89.84z
				 M130.254,89.229c-0.036,0-0.073-0.004-0.11-0.012c-0.653-0.148-1.302-0.289-1.945-0.421c-0.271-0.056-0.445-0.32-0.389-0.59
				c0.055-0.272,0.323-0.44,0.59-0.389c0.651,0.134,1.306,0.276,1.965,0.425c0.27,0.062,0.438,0.329,0.377,0.599
				C130.688,89.071,130.482,89.229,130.254,89.229z M100.538,88.613c-0.222,0-0.424-0.148-0.483-0.373
				c-0.07-0.267,0.089-0.541,0.355-0.611c0.646-0.17,1.302-0.325,1.972-0.466c0.267-0.056,0.534,0.116,0.592,0.386
				c0.057,0.271-0.116,0.536-0.387,0.592c-0.652,0.137-1.293,0.289-1.921,0.455C100.623,88.608,100.58,88.613,100.538,88.613z
				 M126.337,88.423c-0.03,0-0.061-0.002-0.091-0.008c-0.658-0.12-1.312-0.232-1.961-0.335c-0.272-0.043-0.458-0.3-0.415-0.572
				c0.044-0.273,0.291-0.462,0.573-0.415c0.655,0.104,1.316,0.217,1.982,0.339c0.271,0.049,0.452,0.31,0.402,0.582
				C126.783,88.254,126.573,88.423,126.337,88.423z M122.386,87.795c-0.022,0-0.045-0.001-0.067-0.004
				c-0.663-0.089-1.321-0.169-1.974-0.241c-0.274-0.03-0.473-0.277-0.442-0.551c0.03-0.275,0.274-0.475,0.552-0.443
				c0.66,0.072,1.326,0.153,1.997,0.244c0.274,0.037,0.466,0.289,0.429,0.562C122.847,87.613,122.632,87.795,122.386,87.795z
				 M104.449,87.786c-0.24,0-0.452-0.174-0.492-0.419c-0.045-0.273,0.141-0.53,0.413-0.574c0.657-0.107,1.324-0.201,2.002-0.282
				c0.272-0.031,0.522,0.162,0.556,0.438c0.033,0.274-0.163,0.523-0.437,0.556c-0.664,0.079-1.317,0.171-1.961,0.276
				C104.503,87.784,104.477,87.786,104.449,87.786z M118.412,87.363c-0.014,0-0.028,0-0.042-0.001
				c-0.667-0.055-1.327-0.1-1.981-0.135c-0.276-0.015-0.487-0.25-0.473-0.526c0.014-0.275,0.251-0.48,0.525-0.473
				c0.664,0.036,1.334,0.082,2.011,0.137c0.275,0.023,0.479,0.264,0.457,0.54C118.888,87.165,118.669,87.363,118.412,87.363z
				 M108.419,87.308c-0.258,0-0.477-0.198-0.497-0.46c-0.022-0.275,0.183-0.516,0.458-0.539c0.663-0.053,1.334-0.094,2.016-0.124
				c0.245-0.018,0.51,0.203,0.521,0.478c0.012,0.276-0.202,0.509-0.479,0.521c-0.668,0.029-1.327,0.069-1.979,0.122
				C108.446,87.308,108.433,87.308,108.419,87.308z M114.416,87.149c-0.004,0-0.008,0-0.012,0c-0.49-0.011-0.977-0.017-1.459-0.017
				l-0.525,0.002c-0.001,0-0.003,0-0.004,0c-0.274,0-0.498-0.221-0.5-0.496c-0.002-0.276,0.22-0.502,0.496-0.504l0.533-0.002
				c0.49,0,0.984,0.006,1.482,0.017c0.275,0.006,0.494,0.235,0.488,0.511C114.91,86.933,114.688,87.149,114.416,87.149z"/>
		</g>
		<g>
			<path fill="#474F50" d="M108.93,209.858c-0.148,0-0.295-0.065-0.394-0.191c-0.411-0.524-0.821-1.053-1.23-1.584
				c-0.168-0.219-0.127-0.532,0.092-0.701c0.218-0.167,0.532-0.128,0.701,0.092c0.407,0.529,0.815,1.054,1.225,1.576
				c0.17,0.218,0.132,0.532-0.085,0.702C109.146,209.823,109.038,209.858,108.93,209.858z M106.485,206.691
				c-0.15,0-0.3-0.068-0.398-0.197c-0.402-0.53-0.806-1.063-1.207-1.599c-0.165-0.221-0.12-0.534,0.101-0.7
				c0.22-0.164,0.533-0.12,0.7,0.101c0.399,0.533,0.801,1.064,1.203,1.593c0.167,0.22,0.124,0.533-0.096,0.701
				C106.697,206.658,106.591,206.691,106.485,206.691z M104.09,203.495c-0.153,0-0.304-0.07-0.402-0.203
				c-0.396-0.535-0.789-1.072-1.181-1.613c-0.162-0.224-0.112-0.536,0.11-0.699c0.223-0.161,0.535-0.113,0.698,0.111
				c0.392,0.539,0.783,1.074,1.177,1.607c0.164,0.222,0.117,0.535-0.105,0.699C104.298,203.463,104.193,203.495,104.09,203.495z
				 M101.746,200.266c-0.155,0-0.31-0.073-0.407-0.209c-0.387-0.542-0.771-1.086-1.155-1.633c-0.159-0.226-0.104-0.538,0.122-0.696
				c0.224-0.158,0.538-0.104,0.696,0.122c0.382,0.545,0.767,1.086,1.151,1.626c0.16,0.225,0.108,0.537-0.117,0.698
				C101.948,200.236,101.847,200.266,101.746,200.266z M99.45,196.997c-0.158,0-0.314-0.076-0.411-0.216
				c-0.379-0.549-0.755-1.1-1.13-1.653c-0.154-0.229-0.095-0.54,0.134-0.694c0.228-0.155,0.54-0.095,0.694,0.134
				c0.373,0.551,0.747,1.1,1.124,1.646c0.157,0.227,0.1,0.539-0.127,0.695C99.647,196.968,99.549,196.997,99.45,196.997z
				 M97.214,193.687c-0.161,0-0.32-0.079-0.417-0.224c-0.369-0.557-0.734-1.115-1.099-1.675c-0.15-0.231-0.085-0.542,0.146-0.692
				c0.229-0.15,0.54-0.085,0.691,0.147c0.362,0.558,0.728,1.114,1.095,1.667c0.152,0.23,0.09,0.541-0.141,0.693
				C97.405,193.66,97.31,193.687,97.214,193.687z M95.036,190.333c-0.165,0-0.327-0.082-0.422-0.232
				c-0.358-0.563-0.714-1.129-1.067-1.697c-0.146-0.234-0.074-0.543,0.16-0.688c0.236-0.145,0.544-0.075,0.689,0.16
				c0.352,0.565,0.705,1.128,1.062,1.689c0.148,0.233,0.079,0.542-0.153,0.69C95.221,190.308,95.128,190.333,95.036,190.333z
				 M92.927,186.935c-0.169,0-0.334-0.085-0.428-0.241c-0.347-0.572-0.69-1.146-1.031-1.721c-0.141-0.238-0.062-0.544,0.176-0.685
				c0.236-0.14,0.544-0.063,0.686,0.175c0.339,0.572,0.681,1.143,1.025,1.712c0.143,0.236,0.067,0.544-0.169,0.687
				C93.104,186.911,93.016,186.935,92.927,186.935z M90.89,183.489c-0.173,0-0.341-0.09-0.434-0.25
				c-0.334-0.581-0.665-1.162-0.992-1.746c-0.135-0.241-0.049-0.546,0.192-0.681c0.24-0.136,0.545-0.049,0.681,0.191
				c0.325,0.581,0.654,1.159,0.986,1.736c0.138,0.239,0.055,0.545-0.185,0.683C91.061,183.468,90.975,183.489,90.89,183.489z
				 M88.932,179.996c-0.177,0-0.349-0.094-0.439-0.261c-0.32-0.588-0.637-1.179-0.949-1.771c-0.129-0.244-0.035-0.546,0.209-0.675
				c0.242-0.128,0.546-0.036,0.676,0.208c0.311,0.588,0.625,1.174,0.943,1.76c0.132,0.242,0.042,0.546-0.2,0.678
				C89.095,179.976,89.013,179.996,88.932,179.996z M87.061,176.454c-0.182,0-0.356-0.099-0.445-0.272
				c-0.306-0.598-0.606-1.196-0.903-1.797c-0.122-0.248-0.021-0.547,0.227-0.67c0.246-0.121,0.548-0.022,0.67,0.227
				c0.295,0.597,0.594,1.191,0.897,1.784c0.126,0.246,0.028,0.547-0.218,0.673C87.216,176.436,87.138,176.454,87.061,176.454z
				 M85.286,172.861c-0.187,0-0.365-0.105-0.451-0.285c-0.289-0.606-0.573-1.213-0.853-1.822c-0.115-0.251-0.005-0.548,0.246-0.663
				c0.247-0.114,0.547-0.006,0.662,0.246c0.277,0.604,0.56,1.208,0.847,1.809c0.119,0.249,0.014,0.547-0.235,0.667
				C85.432,172.845,85.358,172.861,85.286,172.861z M83.615,169.217c-0.192,0-0.375-0.111-0.458-0.298
				c-0.271-0.615-0.536-1.231-0.796-1.849c-0.107-0.254,0.013-0.547,0.267-0.655c0.257-0.105,0.547,0.013,0.655,0.267
				c0.258,0.612,0.521,1.224,0.79,1.833c0.111,0.253-0.004,0.548-0.257,0.659C83.751,169.204,83.683,169.217,83.615,169.217z
				 M82.058,165.523c-0.198,0-0.386-0.118-0.464-0.313c-0.251-0.624-0.496-1.248-0.736-1.874c-0.099-0.258,0.03-0.547,0.288-0.646
				c0.256-0.098,0.547,0.03,0.646,0.288c0.238,0.621,0.481,1.241,0.73,1.859c0.104,0.256-0.021,0.547-0.277,0.65
				C82.184,165.511,82.12,165.523,82.058,165.523z M80.624,161.777c-0.204,0-0.396-0.126-0.47-0.33
				c-0.229-0.632-0.452-1.265-0.67-1.899c-0.09-0.261,0.049-0.546,0.311-0.635c0.261-0.091,0.545,0.049,0.635,0.31
				c0.216,0.629,0.437,1.256,0.664,1.883c0.095,0.259-0.039,0.546-0.299,0.641C80.738,161.768,80.681,161.777,80.624,161.777z
				 M79.327,157.983c-0.212,0-0.408-0.135-0.477-0.348c-0.205-0.64-0.404-1.281-0.597-1.924c-0.079-0.265,0.071-0.543,0.336-0.623
				c0.267-0.08,0.544,0.072,0.623,0.335c0.19,0.637,0.388,1.272,0.591,1.906c0.084,0.263-0.062,0.544-0.324,0.628
				C79.429,157.976,79.378,157.983,79.327,157.983z M78.18,154.142c-0.22,0-0.421-0.145-0.481-0.367
				c-0.18-0.648-0.353-1.297-0.519-1.947c-0.068-0.268,0.093-0.54,0.36-0.608c0.271-0.068,0.54,0.093,0.608,0.361
				c0.164,0.643,0.335,1.286,0.513,1.928c0.074,0.266-0.082,0.542-0.348,0.615C78.269,154.136,78.224,154.142,78.18,154.142z
				 M77.19,150.257c-0.229,0-0.434-0.156-0.487-0.388c-0.151-0.655-0.296-1.311-0.432-1.968c-0.057-0.27,0.117-0.535,0.388-0.591
				c0.266-0.053,0.534,0.117,0.591,0.388c0.136,0.649,0.278,1.298,0.428,1.947c0.062,0.269-0.105,0.538-0.375,0.6
				C77.265,150.253,77.228,150.257,77.19,150.257z M76.378,146.333c-0.236,0-0.447-0.169-0.491-0.41
				c-0.12-0.662-0.233-1.324-0.338-1.987c-0.043-0.273,0.144-0.529,0.417-0.572c0.259-0.039,0.527,0.143,0.571,0.417
				c0.103,0.655,0.214,1.309,0.334,1.962c0.049,0.271-0.131,0.532-0.402,0.582C76.438,146.331,76.408,146.333,76.378,146.333z
				 M75.754,142.377c-0.246,0-0.461-0.183-0.495-0.434c-0.088-0.667-0.168-1.333-0.238-2c-0.029-0.274,0.17-0.521,0.444-0.55
				c0.273-0.035,0.521,0.169,0.55,0.444c0.07,0.658,0.148,1.316,0.236,1.974c0.036,0.274-0.156,0.525-0.431,0.562
				C75.799,142.376,75.776,142.377,75.754,142.377z M75.331,138.398c-0.258,0-0.477-0.199-0.497-0.46
				c-0.054-0.669-0.098-1.338-0.134-2.008c-0.016-0.276,0.196-0.512,0.472-0.526c0.316-0.023,0.512,0.197,0.526,0.472
				c0.036,0.662,0.08,1.323,0.132,1.983c0.022,0.275-0.184,0.516-0.459,0.538C75.358,138.397,75.345,138.398,75.331,138.398z
				 M75.122,134.404c-0.271,0-0.493-0.216-0.5-0.487c-0.015-0.583-0.021-1.165-0.021-1.748l0.001-0.27
				c0.003-0.274,0.227-0.495,0.5-0.495c0.002,0,0.004,0,0.006,0c0.275,0.003,0.497,0.229,0.494,0.505l-0.001,0.259
				c0,0.575,0.007,1.149,0.021,1.723c0.007,0.276-0.211,0.505-0.487,0.513C75.131,134.404,75.126,134.404,75.122,134.404z
				 M75.138,130.404c-0.005,0-0.011,0-0.017,0c-0.275-0.009-0.492-0.24-0.483-0.516c0.021-0.671,0.054-1.342,0.096-2.013
				c0.017-0.275,0.228-0.482,0.53-0.468c0.275,0.018,0.485,0.255,0.468,0.53c-0.042,0.661-0.072,1.322-0.094,1.982
				C75.629,130.191,75.406,130.404,75.138,130.404z M75.389,126.414c-0.016,0-0.031,0-0.047-0.002
				c-0.275-0.026-0.478-0.27-0.452-0.544c0.062-0.667,0.134-1.335,0.217-2.003c0.034-0.274,0.292-0.473,0.558-0.435
				c0.274,0.034,0.469,0.284,0.435,0.558c-0.081,0.657-0.152,1.315-0.213,1.973C75.861,126.219,75.644,126.414,75.389,126.414z
				 M75.88,122.445c-0.025,0-0.052-0.002-0.077-0.006c-0.273-0.042-0.46-0.297-0.418-0.57c0.103-0.663,0.216-1.325,0.34-1.987
				c0.051-0.272,0.313-0.447,0.583-0.399c0.271,0.051,0.45,0.312,0.399,0.584c-0.122,0.651-0.233,1.303-0.334,1.955
				C76.335,122.269,76.122,122.445,75.88,122.445z M76.613,118.516c-0.035,0-0.071-0.004-0.107-0.012
				c-0.27-0.059-0.44-0.326-0.381-0.596c0.144-0.653,0.298-1.307,0.461-1.959c0.066-0.268,0.334-0.431,0.606-0.364
				c0.269,0.067,0.431,0.338,0.364,0.606c-0.161,0.644-0.313,1.288-0.455,1.932C77.051,118.356,76.844,118.516,76.613,118.516z
				 M77.591,114.639c-0.045,0-0.092-0.006-0.138-0.02c-0.266-0.076-0.419-0.353-0.343-0.618c0.184-0.643,0.379-1.286,0.584-1.928
				c0.085-0.263,0.366-0.407,0.629-0.324c0.263,0.084,0.408,0.366,0.324,0.628c-0.203,0.633-0.395,1.266-0.576,1.899
				C78.009,114.496,77.809,114.639,77.591,114.639z M78.81,110.831c-0.056,0-0.111-0.009-0.167-0.029
				c-0.261-0.092-0.396-0.378-0.305-0.638c0.224-0.63,0.458-1.26,0.703-1.889c0.101-0.257,0.39-0.386,0.647-0.284
				c0.257,0.1,0.385,0.39,0.284,0.647c-0.241,0.619-0.472,1.239-0.691,1.86C79.208,110.703,79.016,110.831,78.81,110.831z
				 M80.261,107.104c-0.065,0-0.132-0.013-0.195-0.04c-0.254-0.108-0.373-0.401-0.265-0.656c0.261-0.614,0.532-1.229,0.814-1.842
				c0.115-0.251,0.414-0.359,0.663-0.245c0.251,0.115,0.36,0.412,0.245,0.663c-0.278,0.605-0.546,1.209-0.803,1.815
				C80.641,106.99,80.455,107.104,80.261,107.104z"/>
		</g>
	</g>
</g>
</svg>
