<?xml version="1.0" encoding="utf-8"?>
<!-- Generator: Adobe Illustrator 25.1.0, SVG Export Plug-In . SVG Version: 6.00 Build 0)  -->
<svg version="1.1" id="Tirui" xmlns="http://www.w3.org/2000/svg" xmlns:xlink="http://www.w3.org/1999/xlink" x="0px" y="0px"
	 viewBox="0 0 600 400" enable-background="new 0 0 600 400" xml:space="preserve">
<g id="Big_Data">
	<g id="background_10_">
		<g>
			<circle fill="#FFF8EE" cx="219.54" cy="214.409" r="128.192"/>
		</g>
		<g>
			<circle fill="#FFF8EE" cx="376.526" cy="88.754" r="64.942"/>
		</g>
		<g>
			<circle fill="#FFF8EE" cx="445.238" cy="253.146" r="67.583"/>
		</g>
		<g>
			<ellipse fill="#BEE9EA" cx="292.428" cy="363.03" rx="182.786" ry="7.047"/>
		</g>
	</g>
	<g id="man_wear_yellow_tshirt_2_">
		<g>
			<path fill="#343A3A" d="M404.447,83.163c-0.431,0.476-0.756,1.205-0.756,1.205l-0.785-0.603l-0.38-1.728l0.961,0.063
				L404.447,83.163z"/>
		</g>
		<g>
			<path fill="#F99680" d="M381.757,88.992c0,0-7.61-0.106-11.225,0.528c-3.615,0.634-15.537,6.215-17.63,6.151
				s-6.025-3.456-6.025-3.456s-0.856,0.888-0.285,1.775c0.571,0.888,3.076,2.568,0.888,2.632c-2.188,0.063-8.011-1.017-8.371-1.141
				c-0.92-0.317-1.11,0.734-0.507,1.144s6.595,1.139,6.5,1.71s-4.534-0.264-5.898-0.169s-1.57,0.137-1.57,0.55
				s0.238,0.972,1.379,0.972s2.684,0.272,4.608,0.338c1.386,0.048,3.002-0.106,2.526,0.56s-1.998,0.571-4.027,0.824
				c-2.029,0.254-1.807,0.571-1.839,0.824s-0.285,0.962,3.044,0.454c3.329-0.507,4.27-0.951,4.397-0.698s-2.325,1.585-2.959,2.473
				c-0.634,0.888,0.564,0.439,2.748-0.381c2.029-0.761,5.327-2.283,7.018-3.424c1.691-1.141,15.812-4.777,18.052-4.904
				c2.241-0.127,13.363,0.575,13.363,0.575L381.757,88.992z"/>
		</g>
		<g>
			<path fill="#F99680" d="M472.654,39.485l8.116-12.091c0,0,4.143-0.127,4.735,3.171l-6.811,10.316L472.654,39.485z"/>
		</g>
		<g>
			<path fill="#F99680" d="M451.982,29.755l3.379-8.28l-4.059-1.987c0,0-4.005,6.608-6.082,10.533L451.982,29.755z"/>
		</g>
		<g>
			<g>
				<polygon fill="#A3CED8" points="338.827,94.13 358.863,105.594 377.184,94.13 358.97,82.973 				"/>
			</g>
			<g>
				<polygon fill="#4F99C6" points="358.863,105.594 358.863,128.576 377.184,117.085 377.184,94.13 				"/>
			</g>
			<g>
				<polygon fill="#3C5E93" points="338.827,94.13 338.827,116.737 358.863,128.576 358.863,105.594 				"/>
			</g>
		</g>
		<g>
			<path fill="#343A3A" d="M419.237,69.315c3.74-7.465,8.898-12.285,13.464-17.442c4.566-5.158,7.103-16.826,9.808-19.617
				c2.706-2.79,7.187-5.158,9.047-3.129s-0.676,4.904-2.959,10.823c-2.283,5.919-8.455,19.786-8.455,19.786
				s9.301-2.875,13.782-4.143c4.481-1.268,13.275-13.444,17.165-15.473c3.889-2.029,9.132-0.93,7.187,2.537
				c-1.945,3.467-12.007,16.995-15.22,19.955c-3.213,2.959-24.294,18.121-24.294,18.121L419.237,69.315z"/>
		</g>
		<g>
			<path fill="#F99680" d="M402.811,105.628l-1.966,8.244c0,0-5.306,1.416-9.407,4.207c-4.101,2.79-9.512,3.34-12.049,3.002
				s-3.805-1.311-4.439-2.537c-0.634-1.226-0.676-3.72-0.676-3.72s-1.353-0.169-1.564,2.114c-0.211,2.283,0.93,4.946-1.649,4.777
				c-2.579-0.169-9.851-4.27-10.527-2.959c-0.676,1.311,1.48,1.395,3.424,2.198c1.945,0.803,6.257,2.833,4.777,2.79
				c-1.48-0.042-5.961-0.972-7.399-1.099c-1.437-0.127-2.706-0.233-2.875,0.444c-0.169,0.676,1.797,0.803,3.319,1.163
				c1.522,0.359,6.997,1.268,6.785,1.67c-0.211,0.402-3.266,0.507-5.168,0.222c-1.902-0.285-3.773-1.395-4.312-1.237
				c-0.539,0.159-0.887,0.856-0.634,0.951c0.253,0.095,3.392,1.363,4.28,1.522c0.888,0.159,6.246,0.349,5.866,0.761
				c-0.38,0.412-2.79,0.634-3.615,0.634s-2.505-0.032-2.568,0.412s0.285,0.539,1.395,0.571c1.11,0.032,3.202-0.095,5.137,0
				c1.934,0.095,7.779-0.941,11.964-2.04c4.185-1.099,26.846-9.132,27.438-10.231c0.592-1.099,3.213-8.202,3.213-8.202
				S409.026,106.96,402.811,105.628z"/>
		</g>
		<g>
			<path fill="#F9B655" d="M381.577,88.68l5.296,9.275c0,0,9.047-2.537,11.499-2.537c2.452,0,4.164,0,4.154,2.198
				c-0.011,2.198-0.349,8.012-0.349,8.012s7.187,1.628,10.062,4.333c0,0,2.706-9.724,7.356-13.951
				c4.65-4.228,18.095-10.481,20.124-14.542c0,0-4.65-3.299-9.216-9.303c-4.566-6.003-12.091-2.537-12.091-2.537
				s-5.158,9.259-10.908,12.408s-10.569,4.08-13.782,4.587S381.577,88.68,381.577,88.68z"/>
		</g>
		<g>
			<path fill="#DB833A" d="M389.991,87.24c0,0,1.617,3.866,6.648,4.077c5.031,0.211,7.666-4.439,7.666-4.439l-10.583-0.254
				L389.991,87.24z"/>
		</g>
		<g>
			<path fill="#F0CFBD" d="M404.264,84.839c0,0,0.64-0.856,1.676,0.222c1.036,1.078,0.42,4.904-2.453,6.405
				c-2.874,1.501-3.334-1.523-3.334-1.523L404.264,84.839z"/>
		</g>
		<g>
			<path fill="#F99680" d="M406.536,80.198c-0.165-0.982-0.934-1.803-1.902-2.038c-0.833-0.202-1.601,0.02-2.181,0.471
				c-0.871-1.249-2.316-2.068-3.954-2.068c-2.589,0-4.695,2.043-4.809,4.605l-0.003,0c0,0-0.642,6.429,1.092,7.064
				c1.733,0.634,4.989,0.423,5.623,2.156c0,0,5.268,0.599,4.637-5.028c-0.026-0.231-0.213-0.43-0.445-0.441
				c-0.405-0.019-1.06-0.329-1.557-1.914c0,0,0-0.001,0-0.001c0.302,0.126,0.633,0.196,0.98,0.196
				C405.574,83.2,406.807,81.807,406.536,80.198z"/>
		</g>
		<g>
			<path fill="#343A3A" d="M393.661,81.469c0,0-2.095-0.721-0.954-2.327c0,0-2.114-0.676-1.564-3.551
				c0.55-2.875,3.636-2.41,3.636-2.41s-1.226-1.987,0-2.79c1.226-0.803,2.875,0.338,2.875,0.338s2.114-1.099,4.143,0.085
				s1.311,3.805,1.311,3.805s3.34,0.296,3.467,1.649c0.127,1.353-0.51,2.844-0.51,2.844s-1.685-1.625-3.61-0.48
				c0,0-0.445,0.891-0.065,1.525c0,0-1.48-0.719-1.48-2.537c0,0-1.48,0.38-1.86-0.761c0,0-1.395,2.368-3.551,1.353
				c0,0,0.1,1.781-1.723,2.383L393.661,81.469z"/>
		</g>
		<g>
			<path fill="#D35971" d="M403.486,81.816c0,0-0.961-2.346,1.798-2.156L403.486,81.816z"/>
		</g>
		<g>
			<path fill="#D35971" d="M394.996,88.302c3.345,0.426,6.008-1.128,6.008-1.128s-0.409,1.423-2.123,1.964
				C398.881,89.138,398.287,89.003,394.996,88.302z"/>
		</g>
		<g>
			<ellipse fill="#D35971" cx="398.816" cy="83.147" rx="0.93" ry="0.687"/>
		</g>
		<g>
			<ellipse fill="#D35971" cx="394.335" cy="83.147" rx="0.93" ry="0.687"/>
		</g>
		<g>
			<circle fill="#343A3A" cx="398.245" cy="81.34" r="0.359"/>
		</g>
		<g>
			<circle fill="#343A3A" cx="394.35" cy="81.522" r="0.306"/>
		</g>
		<g>
			<path fill="#D35971" d="M381.757,88.992c0,0,1.587,4.72,0.973,7.148l3.215,0.191L381.757,88.992z"/>
		</g>
		<g>
			<path fill="#D35971" d="M402.776,105.775c0,0,6.039,3.012,7.825,5.946l0.927-2.347
				C411.528,109.374,408.808,107.317,402.776,105.775z"/>
		</g>
		<g>
			<path fill="#343A3A" d="M451.102,19.821c0,0,2.336,2.701,4.259,1.655l1.702-2.981c0,0,2.632,4.82,3.361,5.105
				c0.729,0.285,3.773,0.793,3.678-1.078s-1.617-5.707-3.615-9.512s-5.126-3.646-5.126-3.646L451.102,19.821z"/>
		</g>
		<g>
			<path fill="#343A3A" d="M480.77,27.394l7.483-9.386c0,0,3.594-0.085,4.439,0.423s6.088,10.654,6.088,10.654s-2.706,0.719-4.185,0
				c-1.48-0.719-3.255-4.016-4.397-3.72s-4.693,5.2-4.693,5.2L480.77,27.394z"/>
		</g>
	</g>
	<g id="grass_9_">
		<g>
			<g>
				<path fill="#A8A848" d="M170.681,358.853c0,0,1.32-15.947-9.085-19.553s7.9,19.553,7.9,19.553H170.681z"/>
			</g>
			<g>
				<path fill="#A8A848" d="M168.027,358.853c0,0-5.357-11.057-11.716-10.342c-6.358,0.715,10.008,10.342,10.008,10.342H168.027z"/>
			</g>
			<g>
				<path fill="#FFFFFF" d="M170.323,359.103c-0.106,0-0.205-0.068-0.238-0.176c-3.05-9.813-6.499-15.884-11.182-19.685
					c-0.107-0.087-0.124-0.245-0.037-0.352c0.089-0.109,0.246-0.122,0.352-0.037c4.765,3.867,8.264,10.012,11.344,19.925
					c0.041,0.132-0.032,0.272-0.164,0.312C170.373,359.099,170.348,359.103,170.323,359.103z"/>
			</g>
			<g>
				<path fill="#FFFFFF" d="M167.298,359.103c-0.076,0-0.152-0.035-0.201-0.102c-5.385-7.328-11.969-9.856-12.035-9.881
					c-0.129-0.049-0.194-0.192-0.146-0.322c0.049-0.13,0.19-0.196,0.322-0.146c0.066,0.025,6.784,2.599,12.262,10.053
					c0.082,0.111,0.059,0.269-0.053,0.35C167.401,359.087,167.35,359.103,167.298,359.103z"/>
			</g>
		</g>
		<g>
			<g>
				<path fill="#A8A848" d="M394.547,358.853c0,0-1.252-15.947,8.615-19.553c9.866-3.605-7.49,19.553-7.49,19.553H394.547z"/>
			</g>
			<g>
				<path fill="#A8A848" d="M397.063,358.853c0,0,5.08-11.057,11.108-10.342c6.029,0.715-9.49,10.342-9.49,10.342H397.063z"/>
			</g>
			<g>
				<path fill="#FFFFFF" d="M394.886,359.103c-0.023,0-0.047-0.003-0.07-0.01c-0.133-0.039-0.209-0.179-0.17-0.311
					c2.922-9.912,6.239-16.057,10.757-19.924c0.104-0.09,0.263-0.078,0.352,0.027c0.09,0.104,0.078,0.263-0.027,0.352
					c-4.439,3.801-7.709,9.872-10.601,19.686C395.094,359.033,394.994,359.103,394.886,359.103z"/>
			</g>
			<g>
				<path fill="#FFFFFF" d="M397.754,359.103c-0.05,0-0.1-0.015-0.143-0.045c-0.113-0.079-0.142-0.234-0.062-0.348
					c5.195-7.456,11.569-10.031,11.633-10.057c0.13-0.05,0.273,0.013,0.324,0.141c0.051,0.129-0.013,0.273-0.141,0.324
					c-0.062,0.024-6.303,2.552-11.406,9.877C397.91,359.066,397.833,359.103,397.754,359.103z"/>
			</g>
		</g>
		<g>
			<g>
				<path fill="#A8A848" d="M208,358.289c0,0,2.465-29.773-16.962-36.503c-19.427-6.73,14.748,36.503,14.748,36.503H208z"/>
			</g>
			<g>
				<path fill="#A8A848" d="M203.046,358.289c0,0-10.002-20.643-21.872-19.308c-11.87,1.335,18.685,19.308,18.685,19.308H203.046z"
					/>
			</g>
			<g>
				<path fill="#FFFFFF" d="M207.332,358.538c-0.106,0-0.205-0.068-0.238-0.176c-5.707-18.364-12.167-29.729-20.944-36.853
					c-0.107-0.087-0.124-0.245-0.037-0.352c0.088-0.108,0.246-0.122,0.352-0.037c8.859,7.189,15.369,18.629,21.106,37.093
					c0.041,0.132-0.032,0.272-0.164,0.312C207.382,358.535,207.356,358.538,207.332,358.538z"/>
			</g>
			<g>
				<path fill="#FFFFFF" d="M201.686,358.538c-0.076,0-0.152-0.035-0.201-0.102c-10.097-13.739-22.443-18.476-22.567-18.521
					c-0.129-0.049-0.194-0.192-0.146-0.322c0.049-0.13,0.191-0.195,0.322-0.146c0.125,0.047,12.605,4.828,22.794,18.693
					c0.082,0.111,0.059,0.269-0.053,0.35C201.789,358.523,201.737,358.538,201.686,358.538z"/>
			</g>
		</g>
	</g>
	<g id="man_wear_blue_tshirt_2_">
		<g>
			<path fill="#F99680" d="M281.445,127.901l-3.444,4.375l8.823,5.395c0,0,3.099-1.748,2.147-4.279L281.445,127.901z"/>
		</g>
		<g>
			<path fill="#84B1BE" d="M240.131,74.742c-1.675-2.085-4.553-2.668-6.585,0.596c-2.032,3.264-4.878,8.97-5.241,14.256l4.959,15.79
				l13.11-8.368c0,0-0.786-8.886-0.675-9.99c0.112-1.104,1.4,0.265,1.4,0.265l5.128-5.121c0,0-4.394-4.394-5.694-4.835
				c-1.3-0.442-2.318-0.645-2.318-0.645L240.131,74.742z"/>
		</g>
		<g>
			<path fill="#F99680" d="M258.157,143.383c0,0,0.071,8.032,0.843,9.25c0,0-4.043-0.418-4.062-0.557
				c-0.019-0.138-1.447-5.534-1.789-9.473L258.157,143.383z"/>
		</g>
		<g>
			<path fill="#D35971" d="M281.445,127.901c0,0,1.522,2.824-0.141,6.394l-3.303-2.02L281.445,127.901z"/>
		</g>
		<g>
			<path fill="#D35971" d="M258.157,143.383c0,0-1.111,1.532-4.785,1.091l-0.222-1.871L258.157,143.383z"/>
		</g>
		<g>
			<path fill="#474F50" d="M231.184,107.888c0,0,0.458,11.576,7.716,12.198c7.258,0.622,19.72-2.173,24.845,3.172
				s12.698,9.233,14.256,9.018s4.141-3.226,3.444-4.375s-8.512-9.956-11.046-13.102s-4-5.424-6.616-6.906
				c-2.616-1.482-12.063-6.914-16.749-6.441C242.348,101.925,231.184,107.888,231.184,107.888z"/>
		</g>
		<g>
			<path fill="#474F50" d="M234.71,117.999c0,0,9.404,8.516,12.599,11.887c3.195,3.371,4.21,10.856,5.84,12.717
				c1.63,1.861,5.008,0.779,5.008,0.779s0.533-10.683-1.626-14.931c-2.159-4.249-3.845-8.952-3.845-8.952L234.71,117.999z"/>
		</g>
		<g>
			<path fill="#F99680" d="M250.688,70.636c0.624-1.835-0.358-3.829-2.194-4.453c-1.268-0.431-2.611-0.095-3.526,0.759
				c-0.195-0.179-0.428-0.323-0.694-0.414c-1.028-0.349-2.144,0.201-2.494,1.229c-0.349,1.028,0.201,2.144,1.229,2.494
				c0.19,0.064,0.381,0.089,0.571,0.095c-0.001,0.003-0.002,0.006-0.002,0.009c0,0-1.146,4.017-3.447,4.389
				c0,0,0.478,2.568,4.083,1.948c0,0-0.139-1.35,0.904-1.843c0.166,0.126,0.339,0.252,0.516,0.381
				c1.425,1.044,4.544-3.623,4.544-3.623l-0.001-0.001C250.391,71.317,250.566,70.993,250.688,70.636z"/>
		</g>
		<g>
			<path fill="#F99680" d="M252.008,82.388c0,0,3.269,4.51,3.835,4.395c0.566-0.115,3.694-1.688,8.097-5.596
				c4.404-3.908,5.02-5.851,5.331-7.152c0.31-1.301,1.349-3.057,1.446-4.122c0,0,0.893,0.084,0.637,1.095
				c-0.256,1.011-0.488,2.47,0.804,2.031s5.003-2.825,5.829-2.413c0.826,0.413-3.159,2.573-3.188,2.915s5.129-1.904,5.058-1.049
				s-4.328,2.264-4.461,2.526s4.949-0.339,5.09,0.28c0.141,0.619-4.752,0.538-5.057,0.917c-0.305,0.38,2.688,1.529,2.526,2.133
				c-0.161,0.604-3.78-1.417-4.848-1.12c-1.067,0.296-3.942,3.713-6.809,8.011c-2.867,4.298-9.359,9.825-12.638,8.227
				c-3.279-1.598-6.488-6.248-6.488-6.248L252.008,82.388z"/>
		</g>
		<g>
			<path fill="#F99680" d="M235.323,88.596c0,0-1.477,9.582-0.99,10.67c0,0,2.12,1.907,6.298-0.496
				c4.178-2.403,8.497-1.923,11.177-1.276c2.68,0.647,4.785-1.669,4.785-1.669s1.568,1.785-1.735,3.167c0,0,0.484,1.021,2.366,1.727
				c1.882,0.706,5.296,0.745,5.296,0.745s-0.139,1.379-2.017,1.28c-1.878-0.099-4.222-0.764-4.222-0.764s2.89,1.773,3.558,2.33
				s1.329,2.1,1.329,2.1s-0.695,0.687-2.303-0.981c-1.608-1.667-3.382-2.072-3.382-2.072s1.175,1.454,1.895,2.182
				s1.266,1.705,1.266,1.705s-0.742,0.89-1.917-0.695c-1.175-1.586-2.72-2.726-2.72-2.726l0.927,3.633c0,0-0.794,0.499-1.072-0.364
				c-0.278-0.863-1.397-2.87-2.368-3.375c-0.971-0.506-2.977-1.583-3.619-2.021c-0.642-0.438-2.024-0.38-3.61,0.926
				c-1.586,1.306-11.695,6.614-14.645,4.952s-1.315-17.978-1.315-17.978L235.323,88.596z"/>
		</g>
		<g>
			<path fill="#568A96" d="M235.323,88.596l0.564-0.204l0.667-4.288c0,0,4.611,5.625-2.041,10.558L235.323,88.596z"/>
		</g>
		<g>
			<path fill="#568A96" d="M245.699,87.026c-0.104-1.892,0.547-2.368,0.992-0.105C246.69,86.921,245.907,86.284,245.699,87.026z"/>
		</g>
		<g>
			<polygon fill="#F0CFBD" points="252.226,82.171 247.099,87.291 247.552,87.843 252.716,82.733 			"/>
		</g>
		<g>
			<polygon fill="#F0CFBD" points="228.305,89.594 228.222,90.519 235.911,89.386 235.886,88.392 			"/>
		</g>
		<g>
			<path fill="#303535" d="M252.839,119.913c-3.179,0.315-7.297,0.409-9.228-0.115c0,0,4.837,6.441,10.708,3.842L252.839,119.913z"
				/>
		</g>
		<g>
			<path fill="#474F50" d="M254.939,152.076l0.187,8.467l12.581-0.074c0,0,0.042-2.161-2.401-2.727
				c-2.444-0.567-4.835-1.578-6.304-5.109C259.001,152.633,258.108,151.67,254.939,152.076z"/>
		</g>
		<g>
			<path fill="#474F50" d="M286.824,137.671l8.269,6.084l10.295-12.45c0,0-2.737-0.996-5.923,0.491
				c-3.02,1.41-7.909,3.482-10.494,1.596C288.971,133.391,289.526,136.282,286.824,137.671z"/>
		</g>
		<g>
			<path fill="#D35971" d="M228.222,90.519c0,0,2.57,1.968,6.746,0.738l0.236-1.766L228.222,90.519z"/>
		</g>
		<g>
			<path fill="#D35971" d="M252.454,82.992c0,0-0.121,3.343-3.775,6.166l-1.127-1.316L252.454,82.992z"/>
		</g>
		<g>
			<path fill="#D35971" d="M245.118,74.847c-1.138-0.763-1.054-2.756-1.054-2.756s-1.572,2.063,0.339,3.49
				C244.403,75.581,244.612,74.985,245.118,74.847z"/>
		</g>
		<g>
			<path fill="#D35971" d="M244.019,69.088c0,0,0.684-2.239-1.183-1.819L244.019,69.088z"/>
		</g>
		<g>
			
				<ellipse transform="matrix(0.6218 -0.7831 0.7831 0.6218 37.6143 219.7384)" fill="#D35971" cx="246.34" cy="70.921" rx="0.51" ry="0.759"/>
		</g>
		<g>
			
				<ellipse transform="matrix(0.6218 -0.7831 0.7831 0.6218 37.013 222.1349)" fill="#D35971" cx="248.52" cy="72.742" rx="0.375" ry="0.607"/>
		</g>
		<g>
			<path fill="#474F50" d="M243.097,66.501c0,0-0.373-2.297,0.956-3.88c1.329-1.582,3.636,0.322,3.636,0.322
				s0.834-1.661,2.015-1.589c1.181,0.072,1.916,0.915,1.916,0.915s1.711-0.963,3.228,0.489c1.516,1.453,0.165,3.135,0.165,3.135
				s0.531,0.345,0.033,1.132c0,0,1.374,1.839-1.452,3.043c0,0-1.05,2.379-3.417,1.536l0.396-0.728c0,0-1.174-0.037-1.286-1.162
				s0.562-1.654,0.562-1.654s-1.362,0.13-1.711-0.977c0,0-1.087,0.125-1.805-0.152c-0.718-0.277-1.328,1.13-1.328,1.13l-0.531-0.312
				l0.494-0.808C244.968,66.941,244.111,66.328,243.097,66.501z"/>
		</g>
		<g>
			<circle fill="#474F50" cx="247.086" cy="69.774" r="0.338"/>
		</g>
		<g>
			<circle fill="#474F50" cx="249.393" cy="71.827" r="0.338"/>
		</g>
	</g>
	<g id="object_9_">
		<g>
			<g>
				<path fill="#474F50" d="M188.296,231.394c-0.089,0-0.179-0.023-0.26-0.072l-0.948-0.576c-0.236-0.144-0.311-0.451-0.168-0.688
					c0.145-0.236,0.454-0.309,0.688-0.168l0.948,0.576c0.236,0.144,0.311,0.451,0.168,0.688
					C188.629,231.308,188.464,231.394,188.296,231.394z M185.638,229.78c-0.089,0-0.179-0.023-0.26-0.073l-1.709-1.039
					c-0.236-0.143-0.311-0.45-0.167-0.687c0.143-0.237,0.452-0.311,0.687-0.167l1.709,1.039c0.236,0.143,0.311,0.45,0.167,0.687
					C185.971,229.694,185.806,229.78,185.638,229.78z M182.22,227.702c-0.089,0-0.179-0.023-0.26-0.072l-1.709-1.038
					c-0.235-0.144-0.311-0.451-0.168-0.688c0.146-0.236,0.454-0.309,0.688-0.168l1.709,1.038c0.235,0.144,0.311,0.451,0.168,0.688
					C182.553,227.617,182.388,227.702,182.22,227.702z M178.801,225.625c-0.089,0-0.179-0.023-0.26-0.072l-1.709-1.038
					c-0.235-0.144-0.311-0.451-0.168-0.688c0.145-0.236,0.453-0.309,0.688-0.168l1.709,1.038c0.235,0.144,0.311,0.451,0.168,0.688
					C179.134,225.539,178.969,225.625,178.801,225.625z M175.366,223.545c-0.08,0-0.161-0.021-0.237-0.066
					c-0.152-0.09-0.289-0.279-0.289-0.456v-1.95c0-0.276,0.224-0.5,0.5-0.5s0.5,0.224,0.5,0.5v1.851
					c0.031,0.122,0.019,0.254-0.048,0.366C175.696,223.451,175.535,223.545,175.366,223.545z M175.34,219.573
					c-0.276,0-0.5-0.224-0.5-0.5v-2c0-0.276,0.224-0.5,0.5-0.5s0.5,0.224,0.5,0.5v2C175.84,219.349,175.616,219.573,175.34,219.573z
					 M175.34,215.573c-0.276,0-0.5-0.224-0.5-0.5v-2c0-0.276,0.224-0.5,0.5-0.5s0.5,0.224,0.5,0.5v2
					C175.84,215.349,175.616,215.573,175.34,215.573z M175.34,211.573c-0.276,0-0.5-0.224-0.5-0.5v-2c0-0.276,0.224-0.5,0.5-0.5
					s0.5,0.224,0.5,0.5v2C175.84,211.349,175.616,211.573,175.34,211.573z M175.34,207.573c-0.276,0-0.5-0.224-0.5-0.5v-2
					c0-0.276,0.224-0.5,0.5-0.5s0.5,0.224,0.5,0.5v2C175.84,207.349,175.616,207.573,175.34,207.573z M175.34,203.573
					c-0.276,0-0.5-0.224-0.5-0.5v-2c0-0.276,0.224-0.5,0.5-0.5s0.5,0.224,0.5,0.5v2C175.84,203.349,175.616,203.573,175.34,203.573z
					 M175.34,199.573c-0.276,0-0.5-0.224-0.5-0.5v-2c0-0.276,0.224-0.5,0.5-0.5s0.5,0.224,0.5,0.5v2
					C175.84,199.349,175.616,199.573,175.34,199.573z M175.34,195.573c-0.276,0-0.5-0.224-0.5-0.5v-2c0-0.276,0.224-0.5,0.5-0.5
					s0.5,0.224,0.5,0.5v2C175.84,195.349,175.616,195.573,175.34,195.573z M175.34,191.573c-0.276,0-0.5-0.224-0.5-0.5v-2
					c0-0.276,0.224-0.5,0.5-0.5s0.5,0.224,0.5,0.5v2C175.84,191.349,175.616,191.573,175.34,191.573z M175.34,187.573
					c-0.276,0-0.5-0.224-0.5-0.5v-2c0-0.276,0.224-0.5,0.5-0.5s0.5,0.224,0.5,0.5v2C175.84,187.349,175.616,187.573,175.34,187.573z
					 M175.34,183.573c-0.276,0-0.5-0.224-0.5-0.5v-2c0-0.276,0.224-0.5,0.5-0.5s0.5,0.224,0.5,0.5v2
					C175.84,183.349,175.616,183.573,175.34,183.573z M175.34,179.573c-0.276,0-0.5-0.224-0.5-0.5v-2c0-0.276,0.224-0.5,0.5-0.5
					s0.5,0.224,0.5,0.5v2C175.84,179.349,175.616,179.573,175.34,179.573z M175.34,175.573c-0.276,0-0.5-0.224-0.5-0.5v-2
					c0-0.276,0.224-0.5,0.5-0.5s0.5,0.224,0.5,0.5v2C175.84,175.349,175.616,175.573,175.34,175.573z M175.34,171.573
					c-0.276,0-0.5-0.224-0.5-0.5v-2c0-0.276,0.224-0.5,0.5-0.5s0.5,0.224,0.5,0.5v2C175.84,171.349,175.616,171.573,175.34,171.573z
					 M175.34,167.573c-0.276,0-0.5-0.224-0.5-0.5v-2c0-0.276,0.224-0.5,0.5-0.5s0.5,0.224,0.5,0.5v2
					C175.84,167.349,175.616,167.573,175.34,167.573z M175.34,163.573c-0.276,0-0.5-0.224-0.5-0.5v-2c0-0.276,0.224-0.5,0.5-0.5
					s0.5,0.224,0.5,0.5v2C175.84,163.349,175.616,163.573,175.34,163.573z M175.34,159.573c-0.276,0-0.5-0.224-0.5-0.5v-2
					c0-0.276,0.224-0.5,0.5-0.5s0.5,0.224,0.5,0.5v2C175.84,159.349,175.616,159.573,175.34,159.573z M175.34,155.573
					c-0.276,0-0.5-0.224-0.5-0.5v-2c0-0.276,0.224-0.5,0.5-0.5s0.5,0.224,0.5,0.5v2C175.84,155.349,175.616,155.573,175.34,155.573z
					 M175.34,151.573c-0.276,0-0.5-0.224-0.5-0.5v-2c0-0.276,0.224-0.5,0.5-0.5s0.5,0.224,0.5,0.5v2
					C175.84,151.349,175.616,151.573,175.34,151.573z M175.34,147.573c-0.276,0-0.5-0.224-0.5-0.5v-2c0-0.276,0.224-0.5,0.5-0.5
					s0.5,0.224,0.5,0.5v2C175.84,147.349,175.616,147.573,175.34,147.573z M175.34,143.573c-0.276,0-0.5-0.224-0.5-0.5v-2
					c0-0.276,0.224-0.5,0.5-0.5s0.5,0.224,0.5,0.5v2C175.84,143.349,175.616,143.573,175.34,143.573z"/>
			</g>
			<g>
				<path fill="#474F50" d="M285.055,130.788c-0.276,0-0.5-0.224-0.5-0.5v-2c0-0.276,0.224-0.5,0.5-0.5s0.5,0.224,0.5,0.5v2
					C285.555,130.565,285.331,130.788,285.055,130.788z M285.055,126.788c-0.276,0-0.5-0.224-0.5-0.5v-2c0-0.276,0.224-0.5,0.5-0.5
					s0.5,0.224,0.5,0.5v2C285.555,126.565,285.331,126.788,285.055,126.788z M285.055,122.788c-0.276,0-0.5-0.224-0.5-0.5v-2
					c0-0.276,0.224-0.5,0.5-0.5s0.5,0.224,0.5,0.5v2C285.555,122.565,285.331,122.788,285.055,122.788z M285.055,118.788
					c-0.276,0-0.5-0.224-0.5-0.5v-2c0-0.276,0.224-0.5,0.5-0.5s0.5,0.224,0.5,0.5v2
					C285.555,118.565,285.331,118.788,285.055,118.788z M285.055,114.788c-0.276,0-0.5-0.224-0.5-0.5v-2c0-0.276,0.224-0.5,0.5-0.5
					s0.5,0.224,0.5,0.5v2C285.555,114.565,285.331,114.788,285.055,114.788z M285.055,110.788c-0.276,0-0.5-0.224-0.5-0.5v-2
					c0-0.276,0.224-0.5,0.5-0.5s0.5,0.224,0.5,0.5v2C285.555,110.565,285.331,110.788,285.055,110.788z M285.055,106.788
					c-0.276,0-0.5-0.224-0.5-0.5v-2c0-0.276,0.224-0.5,0.5-0.5s0.5,0.224,0.5,0.5v2
					C285.555,106.565,285.331,106.788,285.055,106.788z M285.055,102.788c-0.276,0-0.5-0.224-0.5-0.5v-2c0-0.276,0.224-0.5,0.5-0.5
					s0.5,0.224,0.5,0.5v2C285.555,102.565,285.331,102.788,285.055,102.788z M285.055,98.788c-0.276,0-0.5-0.224-0.5-0.5v-2
					c0-0.276,0.224-0.5,0.5-0.5s0.5,0.224,0.5,0.5v2C285.555,98.565,285.331,98.788,285.055,98.788z M285.055,94.788
					c-0.276,0-0.5-0.224-0.5-0.5v-2c0-0.276,0.224-0.5,0.5-0.5s0.5,0.224,0.5,0.5v2C285.555,94.565,285.331,94.788,285.055,94.788z
					 M285.055,90.788c-0.276,0-0.5-0.224-0.5-0.5v-2c0-0.276,0.224-0.5,0.5-0.5s0.5,0.224,0.5,0.5v2
					C285.555,90.565,285.331,90.788,285.055,90.788z"/>
			</g>
			<g>
				<path fill="#474F50" d="M353.733,156.705c-0.276,0-0.5-0.224-0.5-0.5v-2c0-0.276,0.224-0.5,0.5-0.5s0.5,0.224,0.5,0.5v2
					C354.233,156.482,354.01,156.705,353.733,156.705z M353.733,152.705c-0.276,0-0.5-0.224-0.5-0.5v-2c0-0.276,0.224-0.5,0.5-0.5
					s0.5,0.224,0.5,0.5v2C354.233,152.482,354.01,152.705,353.733,152.705z M353.733,148.705c-0.276,0-0.5-0.224-0.5-0.5v-2
					c0-0.276,0.224-0.5,0.5-0.5s0.5,0.224,0.5,0.5v2C354.233,148.482,354.01,148.705,353.733,148.705z M353.733,144.705
					c-0.276,0-0.5-0.224-0.5-0.5v-2c0-0.276,0.224-0.5,0.5-0.5s0.5,0.224,0.5,0.5v2C354.233,144.482,354.01,144.705,353.733,144.705
					z M353.733,140.705c-0.276,0-0.5-0.224-0.5-0.5v-2c0-0.276,0.224-0.5,0.5-0.5s0.5,0.224,0.5,0.5v2
					C354.233,140.482,354.01,140.705,353.733,140.705z M353.733,136.705c-0.276,0-0.5-0.224-0.5-0.5v-2c0-0.276,0.224-0.5,0.5-0.5
					s0.5,0.224,0.5,0.5v2C354.233,136.482,354.01,136.705,353.733,136.705z M353.733,132.705c-0.276,0-0.5-0.224-0.5-0.5v-2
					c0-0.276,0.224-0.5,0.5-0.5s0.5,0.224,0.5,0.5v2C354.233,132.482,354.01,132.705,353.733,132.705z M353.733,128.705
					c-0.276,0-0.5-0.224-0.5-0.5v-2c0-0.276,0.224-0.5,0.5-0.5s0.5,0.224,0.5,0.5v2C354.233,128.482,354.01,128.705,353.733,128.705
					z M353.733,124.705c-0.276,0-0.5-0.224-0.5-0.5v-2c0-0.276,0.224-0.5,0.5-0.5s0.5,0.224,0.5,0.5v2
					C354.233,124.482,354.01,124.705,353.733,124.705z M353.733,120.705c-0.276,0-0.5-0.224-0.5-0.5v-2c0-0.276,0.224-0.5,0.5-0.5
					s0.5,0.224,0.5,0.5v2C354.233,120.482,354.01,120.705,353.733,120.705z M353.733,116.705c-0.276,0-0.5-0.224-0.5-0.5v-2
					c0-0.276,0.224-0.5,0.5-0.5s0.5,0.224,0.5,0.5v2C354.233,116.482,354.01,116.705,353.733,116.705z"/>
			</g>
			<g>
				<polygon fill="#A3CED8" points="204.886,163.223 224.172,174.795 243.029,164.081 282.458,185.938 360.244,141.366 
					340.958,129.581 282.565,163.866 263.601,152.295 282.565,141.366 302.324,152.264 321.706,140.884 282.565,118.866 
					262.101,130.009 244.479,120.202 225.136,130.866 243.029,141.366 				"/>
			</g>
			<g>
				<polygon fill="#4F99C6" points="282.458,185.938 282.458,254.723 302.172,242.938 302.172,222.152 322.529,209.509 
					322.529,231.366 360.244,208.866 360.244,185.938 342.244,195.581 342.244,175.545 360.244,164.295 360.244,141.366 				"/>
			</g>
			<g>
				<polygon fill="#A3CED8" points="360.244,185.938 342.244,175.545 342.244,195.581 				"/>
			</g>
			<g>
				<polygon fill="#3C5E93" points="243.029,164.081 243.029,187.009 263.172,198.045 263.172,220.652 224.172,199.009 
					224.172,220.652 282.458,254.723 282.458,185.938 				"/>
			</g>
			<g>
				<polygon fill="#3C5E93" points="204.886,163.223 204.886,187.652 224.172,199.009 224.172,174.795 				"/>
			</g>
			<g>
				<polygon fill="#4F99C6" points="224.172,199.009 243.029,187.009 243.029,164.081 224.172,174.795 				"/>
			</g>
			<g>
				<polygon fill="#3C5E93" points="225.136,130.866 225.136,151.62 243.029,141.366 				"/>
			</g>
			<g>
				<polygon fill="#3C5E93" points="282.565,141.366 282.565,163.866 302.324,152.264 				"/>
			</g>
			<g>
				<polygon fill="#A3CED8" points="263.172,198.045 243.029,209.474 243.029,187.009 224.172,199.009 263.172,220.652 				"/>
			</g>
			<g>
				<polygon fill="#2C466D" points="282.565,141.366 282.565,163.866 263.601,152.295 				"/>
			</g>
			<g>
				<polygon fill="#2C466D" points="243.029,187.009 243.029,209.474 263.172,198.045 				"/>
			</g>
			<g>
				<g>
					<polygon fill="#A3CED8" points="341.494,250.866 361.529,262.331 379.851,250.866 361.637,239.71 					"/>
				</g>
				<g>
					<polygon fill="#4F99C6" points="361.529,262.331 361.529,285.313 379.851,273.822 379.851,250.866 					"/>
				</g>
				<g>
					<polygon fill="#3C5E93" points="341.494,250.866 341.494,273.473 361.529,285.313 361.529,262.331 					"/>
				</g>
			</g>
			<g>
				<g>
					<polygon fill="#A3CED8" points="266.708,73.72 286.744,85.184 305.065,73.72 286.851,62.563 					"/>
				</g>
				<g>
					<polygon fill="#4F99C6" points="286.744,85.184 286.744,108.167 305.065,96.675 305.065,73.72 					"/>
				</g>
				<g>
					<polygon fill="#3C5E93" points="266.708,73.72 266.708,96.327 286.744,108.167 286.744,85.184 					"/>
				</g>
			</g>
			<g>
				<g>
					<polygon fill="#A3CED8" points="160.006,123.849 180.042,135.313 198.364,123.849 180.149,112.692 					"/>
				</g>
				<g>
					<polygon fill="#4F99C6" points="180.042,135.313 180.042,158.295 198.364,146.804 198.364,123.849 					"/>
				</g>
				<g>
					<polygon fill="#3C5E93" points="160.006,123.849 160.006,146.456 180.042,158.295 180.042,135.313 					"/>
				</g>
			</g>
			<g>
				<g>
					<polygon fill="#A3CED8" points="409.531,144.438 429.566,155.903 447.888,144.438 429.674,133.282 					"/>
				</g>
				<g>
					<polygon fill="#4F99C6" points="429.566,155.903 429.566,178.885 447.888,167.394 447.888,144.438 					"/>
				</g>
				<g>
					<polygon fill="#3C5E93" points="409.531,144.438 409.531,167.046 429.566,178.885 429.566,155.903 					"/>
				</g>
			</g>
			<g>
				<g>
					<polygon fill="#A3CED8" points="183.351,228.065 203.386,239.529 221.708,228.065 203.494,216.908 					"/>
				</g>
				<g>
					<polygon fill="#4F99C6" points="203.386,239.529 203.386,262.511 221.708,251.02 221.708,228.065 					"/>
				</g>
				<g>
					<polygon fill="#3C5E93" points="183.351,228.065 183.351,250.672 203.386,262.511 203.386,239.529 					"/>
				</g>
			</g>
			<g>
				<path fill="#474F50" d="M244.529,265.081c-0.088,0-0.177-0.023-0.258-0.071l-1.121-0.674c-0.236-0.143-0.313-0.449-0.171-0.687
					s0.451-0.31,0.687-0.171l1.121,0.674c0.236,0.143,0.313,0.449,0.171,0.687C244.864,264.995,244.698,265.081,244.529,265.081z
					 M241.693,263.378c-0.088,0-0.177-0.023-0.258-0.071l-1.715-1.03c-0.236-0.143-0.313-0.449-0.171-0.687
					c0.144-0.236,0.45-0.311,0.687-0.171l1.715,1.03c0.236,0.143,0.313,0.449,0.171,0.687
					C242.028,263.292,241.862,263.378,241.693,263.378z M238.265,261.319c-0.088,0-0.177-0.023-0.258-0.071l-1.715-1.03
					c-0.236-0.143-0.313-0.449-0.171-0.687c0.144-0.237,0.45-0.31,0.687-0.171l1.715,1.03c0.236,0.143,0.313,0.449,0.171,0.687
					C238.6,261.233,238.434,261.319,238.265,261.319z M234.835,259.259c-0.088,0-0.177-0.023-0.258-0.071l-1.714-1.03
					c-0.236-0.143-0.313-0.449-0.171-0.687s0.45-0.311,0.687-0.171l1.714,1.03c0.236,0.143,0.313,0.449,0.171,0.687
					C235.17,259.173,235.004,259.259,234.835,259.259z M231.406,257.2c-0.088,0-0.177-0.023-0.258-0.071l-1.715-1.03
					c-0.236-0.143-0.313-0.449-0.171-0.687s0.45-0.31,0.687-0.171l1.715,1.03c0.236,0.143,0.313,0.449,0.171,0.687
					C231.741,257.114,231.575,257.2,231.406,257.2z M227.978,255.14c-0.088,0-0.177-0.023-0.258-0.071l-1.715-1.03
					c-0.236-0.143-0.313-0.449-0.171-0.687c0.144-0.237,0.45-0.31,0.687-0.171l1.715,1.03c0.236,0.143,0.313,0.449,0.171,0.687
					C228.312,255.054,228.146,255.14,227.978,255.14z M224.549,253.08c-0.088,0-0.177-0.023-0.258-0.071l-1.715-1.03
					c-0.236-0.143-0.313-0.449-0.171-0.687s0.45-0.311,0.687-0.171l1.715,1.03c0.236,0.143,0.313,0.449,0.171,0.687
					C224.884,252.994,224.718,253.08,224.549,253.08z M221.119,251.021c-0.088,0-0.177-0.023-0.258-0.071l-1.714-1.03
					c-0.236-0.143-0.313-0.449-0.171-0.687c0.144-0.237,0.45-0.31,0.687-0.171l1.714,1.03c0.236,0.143,0.313,0.449,0.171,0.687
					C221.454,250.935,221.288,251.021,221.119,251.021z M217.69,248.961c-0.088,0-0.177-0.023-0.258-0.071l-1.715-1.03
					c-0.236-0.143-0.313-0.449-0.171-0.687c0.143-0.236,0.451-0.311,0.687-0.171l1.715,1.03c0.236,0.143,0.313,0.449,0.171,0.687
					C218.025,248.875,217.859,248.961,217.69,248.961z M214.262,246.902c-0.088,0-0.177-0.023-0.258-0.071l-1.715-1.03
					c-0.236-0.143-0.313-0.449-0.171-0.687s0.451-0.31,0.687-0.171l1.715,1.03c0.236,0.143,0.313,0.449,0.171,0.687
					C214.597,246.816,214.431,246.902,214.262,246.902z"/>
			</g>
			<g>
				<g>
					<polygon fill="#A3CED8" points="224.494,253.117 244.529,264.581 262.851,253.117 244.636,241.96 					"/>
				</g>
				<g>
					<polygon fill="#4F99C6" points="244.529,264.581 244.529,287.564 262.851,276.073 262.851,253.117 					"/>
				</g>
				<g>
					<polygon fill="#3C5E93" points="224.494,253.117 224.494,275.724 244.529,287.564 244.529,264.581 					"/>
				</g>
			</g>
			<g>
				<polygon fill="#3C5E93" points="322.529,231.366 302.172,222.152 322.529,209.509 				"/>
			</g>
			<g>
				<path fill="#474F50" d="M303.912,299.789c-0.083,0-0.167-0.021-0.242-0.062l-1.617-0.896c-0.242-0.134-0.329-0.438-0.195-0.68
					c0.135-0.242,0.44-0.327,0.68-0.195l1.377,0.763c0.195-0.047,0.41,0.024,0.533,0.2c0.157,0.228,0.101,0.539-0.126,0.696
					l-0.124,0.086C304.111,299.759,304.012,299.789,303.912,299.789z M305.679,298.563c-0.158,0-0.313-0.075-0.411-0.215
					c-0.157-0.227-0.101-0.538,0.126-0.696l1.643-1.141c0.226-0.155,0.538-0.101,0.696,0.126c0.157,0.227,0.101,0.538-0.126,0.696
					l-1.643,1.141C305.877,298.534,305.777,298.563,305.679,298.563z M300.546,297.923c-0.082,0-0.166-0.021-0.242-0.062l-1.75-0.97
					c-0.242-0.134-0.329-0.438-0.195-0.68c0.135-0.242,0.44-0.327,0.68-0.195l1.75,0.97c0.241,0.134,0.329,0.438,0.195,0.68
					C300.892,297.83,300.722,297.923,300.546,297.923z M308.964,296.282c-0.158,0-0.313-0.075-0.411-0.215
					c-0.157-0.227-0.101-0.538,0.126-0.696l1.644-1.141c0.227-0.155,0.537-0.101,0.696,0.126c0.157,0.227,0.101,0.538-0.126,0.696
					l-1.644,1.141C309.162,296.252,309.062,296.282,308.964,296.282z M297.047,295.984c-0.082,0-0.165-0.021-0.242-0.062
					l-1.749-0.969c-0.241-0.134-0.329-0.438-0.195-0.68c0.134-0.242,0.437-0.327,0.68-0.195l1.749,0.969
					c0.241,0.134,0.329,0.438,0.195,0.68C297.393,295.891,297.223,295.984,297.047,295.984z M293.549,294.045
					c-0.082,0-0.166-0.021-0.242-0.062l-1.75-0.97c-0.241-0.134-0.329-0.438-0.195-0.68c0.135-0.242,0.44-0.327,0.68-0.195
					l1.75,0.97c0.241,0.134,0.329,0.438,0.195,0.68C293.895,293.952,293.725,294.045,293.549,294.045z M312.25,294
					c-0.158,0-0.313-0.075-0.41-0.215c-0.158-0.227-0.102-0.538,0.125-0.695l1.643-1.142c0.227-0.157,0.539-0.102,0.695,0.125
					c0.158,0.227,0.102,0.538-0.125,0.695l-1.643,1.142C312.448,293.971,312.349,294,312.25,294z M290.05,292.106
					c-0.082,0-0.166-0.021-0.242-0.062l-1.749-0.97c-0.242-0.134-0.329-0.438-0.195-0.68c0.135-0.242,0.44-0.327,0.68-0.195
					l1.749,0.97c0.242,0.134,0.329,0.438,0.195,0.68C290.396,292.013,290.226,292.106,290.05,292.106z M315.535,291.718
					c-0.158,0-0.313-0.075-0.411-0.215c-0.157-0.227-0.101-0.538,0.126-0.696l1.644-1.141c0.227-0.154,0.537-0.101,0.696,0.126
					c0.157,0.227,0.101,0.538-0.126,0.696l-1.644,1.141C315.733,291.689,315.634,291.718,315.535,291.718z M286.552,290.166
					c-0.082,0-0.166-0.021-0.242-0.062l-1.75-0.97c-0.241-0.134-0.329-0.438-0.195-0.68c0.135-0.242,0.441-0.328,0.68-0.195
					l1.75,0.97c0.241,0.134,0.329,0.438,0.195,0.68C286.897,290.074,286.728,290.166,286.552,290.166z M318.821,289.437
					c-0.158,0-0.313-0.075-0.411-0.215c-0.157-0.227-0.101-0.538,0.126-0.696l1.643-1.141c0.227-0.155,0.537-0.102,0.696,0.126
					c0.157,0.227,0.101,0.538-0.126,0.696l-1.643,1.141C319.02,289.408,318.92,289.437,318.821,289.437z M283.053,288.228
					c-0.082,0-0.166-0.021-0.242-0.062l-1.749-0.97c-0.242-0.134-0.329-0.438-0.195-0.68c0.135-0.242,0.44-0.327,0.68-0.195
					l1.749,0.97c0.242,0.134,0.329,0.438,0.195,0.68C283.398,288.135,283.229,288.228,283.053,288.228z M322.106,287.156
					c-0.158,0-0.313-0.075-0.411-0.215c-0.157-0.227-0.101-0.538,0.126-0.696l1.643-1.141c0.227-0.155,0.538-0.102,0.696,0.126
					c0.157,0.227,0.101,0.538-0.126,0.696l-1.643,1.141C322.305,287.126,322.205,287.156,322.106,287.156z M279.555,286.288
					c-0.082,0-0.166-0.021-0.242-0.062l-1.75-0.97c-0.241-0.134-0.329-0.438-0.195-0.68c0.135-0.241,0.44-0.328,0.68-0.195
					l1.75,0.97c0.241,0.134,0.329,0.438,0.195,0.68C279.9,286.196,279.73,286.288,279.555,286.288z M325.393,284.874
					c-0.158,0-0.313-0.075-0.411-0.215c-0.157-0.227-0.101-0.538,0.126-0.696l1.643-1.141c0.227-0.155,0.537-0.101,0.696,0.126
					c0.157,0.227,0.101,0.538-0.126,0.696l-1.643,1.141C325.591,284.845,325.491,284.874,325.393,284.874z M276.056,284.349
					c-0.082,0-0.166-0.021-0.242-0.062l-1.749-0.97c-0.242-0.134-0.329-0.438-0.195-0.68c0.135-0.241,0.441-0.328,0.68-0.195
					l1.749,0.97c0.242,0.134,0.329,0.438,0.195,0.68C276.401,284.256,276.231,284.349,276.056,284.349z M328.678,282.593
					c-0.158,0-0.313-0.075-0.41-0.215c-0.158-0.227-0.102-0.538,0.125-0.695l1.643-1.142c0.227-0.157,0.539-0.102,0.695,0.125
					c0.158,0.227,0.102,0.538-0.125,0.695l-1.643,1.142C328.876,282.564,328.776,282.593,328.678,282.593z M272.558,282.41
					c-0.082,0-0.165-0.021-0.242-0.062l-1.75-0.969c-0.241-0.134-0.329-0.438-0.195-0.68c0.135-0.242,0.437-0.328,0.68-0.195
					l1.75,0.969c0.241,0.134,0.329,0.438,0.195,0.68C272.903,282.317,272.733,282.41,272.558,282.41z M269.059,280.471
					c-0.082,0-0.166-0.021-0.242-0.062l-1.749-0.97c-0.242-0.134-0.329-0.438-0.195-0.68c0.135-0.242,0.44-0.328,0.68-0.195
					l1.749,0.97c0.242,0.134,0.329,0.438,0.195,0.68C269.404,280.378,269.234,280.471,269.059,280.471z M331.963,280.311
					c-0.158,0-0.313-0.075-0.411-0.215c-0.157-0.227-0.101-0.538,0.126-0.696l1.644-1.141c0.226-0.155,0.538-0.101,0.696,0.126
					c0.157,0.227,0.101,0.538-0.126,0.696l-1.644,1.141C332.161,280.282,332.062,280.311,331.963,280.311z M265.561,278.532
					c-0.082,0-0.166-0.021-0.242-0.062l-1.75-0.97c-0.241-0.134-0.329-0.438-0.195-0.68c0.135-0.242,0.44-0.327,0.68-0.195
					l1.75,0.97c0.241,0.134,0.329,0.438,0.195,0.68C265.906,278.439,265.736,278.532,265.561,278.532z M335.249,278.03
					c-0.158,0-0.313-0.075-0.411-0.215c-0.157-0.227-0.101-0.538,0.126-0.696l1.643-1.141c0.227-0.154,0.537-0.101,0.696,0.126
					c0.157,0.227,0.101,0.538-0.126,0.696l-1.643,1.141C335.447,278,335.348,278.03,335.249,278.03z M262.062,276.592
					c-0.082,0-0.166-0.021-0.242-0.062l-1.749-0.97c-0.242-0.134-0.329-0.438-0.195-0.68c0.135-0.242,0.439-0.327,0.68-0.195
					l1.749,0.97c0.242,0.134,0.329,0.438,0.195,0.68C262.407,276.499,262.237,276.592,262.062,276.592z M338.534,275.748
					c-0.158,0-0.313-0.075-0.411-0.215c-0.157-0.227-0.101-0.538,0.126-0.696l1.644-1.141c0.227-0.154,0.538-0.101,0.696,0.126
					c0.157,0.227,0.101,0.538-0.126,0.696l-1.644,1.141C338.732,275.719,338.633,275.748,338.534,275.748z M258.563,274.654
					c-0.082,0-0.166-0.021-0.242-0.062l-1.75-0.97c-0.241-0.134-0.329-0.438-0.195-0.68c0.134-0.242,0.439-0.327,0.68-0.195
					l1.75,0.97c0.241,0.134,0.329,0.438,0.195,0.68C258.909,274.561,258.739,274.654,258.563,274.654z M341.82,273.467
					c-0.158,0-0.313-0.075-0.411-0.215c-0.157-0.227-0.101-0.538,0.126-0.696l1.643-1.141c0.226-0.155,0.538-0.102,0.696,0.126
					c0.157,0.227,0.101,0.538-0.126,0.696l-1.643,1.141C342.019,273.438,341.919,273.467,341.82,273.467z M255.064,272.714
					c-0.082,0-0.166-0.021-0.242-0.062l-1.749-0.97c-0.242-0.134-0.329-0.438-0.195-0.68c0.135-0.242,0.44-0.327,0.68-0.195
					l1.749,0.97c0.242,0.134,0.329,0.438,0.195,0.68C255.41,272.621,255.24,272.714,255.064,272.714z M345.105,271.186
					c-0.158,0-0.313-0.075-0.411-0.215c-0.157-0.227-0.101-0.538,0.126-0.696l1.643-1.141c0.227-0.155,0.538-0.101,0.696,0.126
					c0.157,0.227,0.101,0.538-0.126,0.696l-1.643,1.141C345.304,271.157,345.204,271.186,345.105,271.186z M348.392,268.904
					c-0.158,0-0.313-0.075-0.411-0.215c-0.157-0.227-0.101-0.538,0.126-0.696l0.453-0.314c0.226-0.155,0.538-0.101,0.696,0.126
					c0.157,0.227,0.101,0.538-0.126,0.696l-0.453,0.314C348.59,268.874,348.49,268.904,348.392,268.904z"/>
			</g>
		</g>
		<g>
			<path fill="#474F50" d="M381.576,312.759c-0.249,0-0.465-0.187-0.495-0.44c-0.033-0.274,0.162-0.523,0.437-0.556l0.872-0.11
				c0.271-0.044,0.524,0.157,0.561,0.432c0.035,0.273-0.157,0.524-0.432,0.561l-0.882,0.11
				C381.616,312.758,381.597,312.759,381.576,312.759z M384.433,312.375c-0.244,0-0.457-0.179-0.494-0.428
				c-0.04-0.272,0.149-0.527,0.423-0.567c0.656-0.096,1.312-0.197,1.965-0.303c0.266-0.045,0.53,0.14,0.573,0.413
				c0.045,0.272-0.141,0.529-0.413,0.573c-0.659,0.107-1.318,0.209-1.98,0.307C384.481,312.373,384.457,312.375,384.433,312.375z
				 M388.37,311.734c-0.237,0-0.447-0.17-0.491-0.411c-0.049-0.272,0.132-0.532,0.403-0.581c0.655-0.117,1.308-0.24,1.959-0.367
				c0.265-0.06,0.533,0.123,0.586,0.395c0.054,0.271-0.123,0.533-0.395,0.586c-0.655,0.129-1.313,0.252-1.973,0.371
				C388.43,311.731,388.399,311.734,388.37,311.734z M392.294,310.964c-0.23,0-0.438-0.161-0.488-0.396
				c-0.058-0.27,0.115-0.535,0.386-0.593c0.65-0.138,1.298-0.282,1.943-0.431c0.275-0.062,0.538,0.105,0.6,0.375
				s-0.105,0.537-0.375,0.6c-0.651,0.15-1.305,0.295-1.961,0.435C392.363,310.96,392.329,310.964,392.294,310.964z M396.193,310.065
				c-0.226,0-0.43-0.152-0.485-0.381c-0.066-0.268,0.098-0.539,0.366-0.604c0.645-0.158,1.287-0.324,1.928-0.494
				c0.271-0.074,0.54,0.088,0.611,0.355c0.07,0.267-0.088,0.54-0.355,0.611c-0.646,0.172-1.295,0.338-1.945,0.498
				C396.272,310.06,396.232,310.065,396.193,310.065z M400.058,309.041c-0.218,0-0.418-0.144-0.48-0.363
				c-0.076-0.266,0.078-0.542,0.344-0.618c0.641-0.182,1.277-0.367,1.913-0.558c0.263-0.079,0.543,0.07,0.622,0.335
				c0.08,0.265-0.07,0.543-0.335,0.622c-0.64,0.192-1.282,0.38-1.927,0.563C400.148,309.035,400.103,309.041,400.058,309.041z
				 M403.888,307.891c-0.212,0-0.408-0.136-0.477-0.348c-0.084-0.264,0.062-0.545,0.324-0.629c0.634-0.202,1.265-0.408,1.894-0.619
				c0.262-0.092,0.545,0.053,0.633,0.314s-0.053,0.545-0.314,0.633c-0.633,0.213-1.27,0.421-1.907,0.625
				C403.989,307.883,403.938,307.891,403.888,307.891z M407.68,306.615c-0.206,0-0.398-0.128-0.471-0.332
				c-0.093-0.261,0.043-0.547,0.303-0.639c0.627-0.224,1.251-0.45,1.872-0.682c0.261-0.098,0.547,0.036,0.644,0.294
				c0.096,0.259-0.035,0.547-0.294,0.644c-0.627,0.233-1.255,0.462-1.886,0.686C407.792,306.606,407.735,306.615,407.68,306.615z
				 M411.417,305.22c-0.199,0-0.388-0.12-0.466-0.317c-0.101-0.257,0.026-0.547,0.283-0.648c0.616-0.242,1.23-0.488,1.843-0.739
				c0.254-0.102,0.547,0.018,0.652,0.273c0.104,0.255-0.018,0.547-0.273,0.652c-0.616,0.253-1.234,0.501-1.856,0.745
				C411.54,305.209,411.478,305.22,411.417,305.22z M415.104,303.706c-0.193,0-0.378-0.113-0.46-0.303
				c-0.108-0.254,0.009-0.548,0.263-0.657c0.607-0.26,1.214-0.526,1.816-0.798c0.249-0.114,0.548-0.002,0.661,0.251
				c0.113,0.252,0.001,0.548-0.251,0.661c-0.608,0.273-1.219,0.542-1.832,0.806C415.237,303.694,415.171,303.706,415.104,303.706z
				 M418.741,302.073c-0.188,0-0.367-0.106-0.453-0.288c-0.117-0.25-0.009-0.547,0.241-0.665c0.599-0.28,1.195-0.566,1.79-0.857
				c0.246-0.118,0.547-0.021,0.669,0.229c0.121,0.248,0.019,0.548-0.229,0.669c-0.599,0.293-1.201,0.581-1.806,0.865
				C418.885,302.058,418.812,302.073,418.741,302.073z M422.322,300.322c-0.182,0-0.357-0.1-0.445-0.273
				c-0.126-0.246-0.027-0.547,0.219-0.672c0.591-0.301,1.179-0.606,1.763-0.916c0.242-0.13,0.547-0.037,0.676,0.207
				c0.13,0.244,0.037,0.547-0.207,0.676c-0.59,0.313-1.182,0.621-1.778,0.924C422.477,300.304,422.398,300.322,422.322,300.322z
				 M425.848,298.453c-0.176,0-0.347-0.094-0.438-0.259c-0.134-0.242-0.046-0.546,0.196-0.679c0.581-0.32,1.158-0.645,1.733-0.973
				c0.236-0.137,0.544-0.055,0.682,0.186c0.138,0.239,0.055,0.545-0.186,0.682c-0.579,0.332-1.162,0.658-1.747,0.98
				C426.013,298.434,425.93,298.453,425.848,298.453z M429.312,296.471c-0.17,0-0.336-0.087-0.43-0.244
				c-0.142-0.237-0.063-0.544,0.174-0.686c0.569-0.339,1.137-0.681,1.701-1.028c0.231-0.146,0.542-0.072,0.688,0.164
				c0.145,0.234,0.071,0.543-0.164,0.688c-0.568,0.35-1.14,0.695-1.713,1.036C429.488,296.449,429.399,296.471,429.312,296.471z
				 M432.711,294.378c-0.165,0-0.326-0.082-0.422-0.231c-0.148-0.232-0.08-0.541,0.153-0.69c0.559-0.356,1.114-0.717,1.666-1.083
				c0.229-0.149,0.54-0.089,0.693,0.141c0.152,0.23,0.089,0.541-0.141,0.693c-0.558,0.369-1.117,0.732-1.682,1.093
				C432.896,294.353,432.804,294.378,432.711,294.378z M436.04,292.176c-0.159,0-0.315-0.076-0.413-0.218
				c-0.155-0.228-0.097-0.539,0.131-0.695c0.548-0.374,1.091-0.753,1.632-1.137c0.225-0.157,0.537-0.107,0.697,0.119
				c0.159,0.226,0.106,0.537-0.119,0.697c-0.545,0.386-1.094,0.769-1.646,1.146C436.236,292.148,436.138,292.176,436.04,292.176z
				 M439.299,289.868c-0.153,0-0.305-0.07-0.403-0.204c-0.163-0.223-0.115-0.535,0.107-0.699c0.534-0.392,1.066-0.789,1.595-1.189
				c0.218-0.165,0.532-0.125,0.7,0.097c0.167,0.22,0.124,0.533-0.097,0.7c-0.532,0.404-1.068,0.804-1.606,1.199
				C439.506,289.837,439.402,289.868,439.299,289.868z M442.481,287.452c-0.148,0-0.295-0.065-0.394-0.191
				c-0.17-0.218-0.132-0.531,0.085-0.702c0.522-0.409,1.041-0.823,1.557-1.24c0.215-0.175,0.529-0.141,0.703,0.074
				s0.141,0.529-0.074,0.703c-0.52,0.421-1.042,0.837-1.568,1.25C442.698,287.417,442.59,287.452,442.481,287.452z M445.586,284.938
				c-0.143,0-0.284-0.061-0.383-0.179c-0.178-0.211-0.15-0.526,0.062-0.704c0.509-0.428,1.014-0.857,1.516-1.291
				c0.209-0.181,0.524-0.158,0.705,0.051s0.158,0.524-0.051,0.705c-0.506,0.438-1.015,0.871-1.527,1.301
				C445.813,284.9,445.699,284.938,445.586,284.938z M448.608,282.322c-0.138,0-0.274-0.057-0.373-0.167
				c-0.184-0.206-0.166-0.522,0.04-0.706c0.495-0.441,0.986-0.888,1.473-1.338c0.205-0.188,0.521-0.175,0.707,0.028
				c0.188,0.202,0.175,0.519-0.027,0.706c-0.492,0.454-0.987,0.904-1.486,1.35C448.846,282.28,448.727,282.322,448.608,282.322z
				 M451.544,279.609c-0.132,0-0.265-0.052-0.362-0.155c-0.19-0.201-0.183-0.518,0.018-0.707c0.481-0.457,0.958-0.919,1.431-1.385
				c0.195-0.192,0.512-0.192,0.707,0.006c0.193,0.196,0.191,0.513-0.006,0.707c-0.477,0.47-0.957,0.936-1.442,1.396
				C451.792,279.563,451.668,279.609,451.544,279.609z M454.394,276.805c-0.126,0-0.253-0.048-0.351-0.144
				c-0.196-0.193-0.199-0.51-0.006-0.707c0.465-0.474,0.927-0.951,1.385-1.432c0.191-0.201,0.508-0.206,0.707-0.018
				c0.2,0.191,0.208,0.508,0.018,0.707c-0.462,0.484-0.928,0.966-1.396,1.443C454.652,276.755,454.523,276.805,454.394,276.805z
				 M457.151,273.908c-0.121,0-0.242-0.044-0.339-0.132c-0.203-0.188-0.216-0.504-0.029-0.707c0.45-0.488,0.896-0.98,1.339-1.476
				c0.186-0.206,0.503-0.222,0.706-0.04c0.206,0.185,0.224,0.5,0.04,0.706c-0.446,0.499-0.896,0.995-1.349,1.487
				C457.421,273.853,457.286,273.908,457.151,273.908z M459.813,270.923c-0.116,0-0.232-0.04-0.327-0.122
				c-0.209-0.181-0.231-0.496-0.051-0.705c0.435-0.503,0.864-1.009,1.29-1.518c0.178-0.214,0.495-0.239,0.704-0.063
				c0.212,0.178,0.24,0.492,0.063,0.704c-0.43,0.515-0.863,1.024-1.302,1.531C460.093,270.865,459.953,270.923,459.813,270.923z
				 M462.38,267.853c-0.111,0-0.222-0.036-0.314-0.111c-0.215-0.174-0.248-0.488-0.074-0.703c0.418-0.517,0.832-1.036,1.241-1.56
				c0.17-0.219,0.484-0.257,0.702-0.085c0.217,0.17,0.255,0.484,0.085,0.702c-0.413,0.527-0.829,1.051-1.251,1.571
				C462.67,267.789,462.525,267.853,462.38,267.853z M464.847,264.702c-0.105,0-0.211-0.033-0.302-0.102
				c-0.22-0.166-0.264-0.479-0.097-0.7c0.4-0.53,0.797-1.062,1.189-1.599c0.164-0.223,0.477-0.271,0.698-0.108
				c0.224,0.163,0.271,0.476,0.108,0.698c-0.395,0.54-0.795,1.078-1.199,1.612C465.147,264.634,464.998,264.702,464.847,264.702z
				 M467.21,261.471c-0.101,0-0.201-0.029-0.288-0.092c-0.226-0.159-0.279-0.471-0.12-0.696c0.383-0.543,0.763-1.089,1.138-1.638
				c0.157-0.228,0.47-0.284,0.695-0.131c0.229,0.156,0.286,0.468,0.131,0.695c-0.379,0.553-0.761,1.103-1.147,1.649
				C467.521,261.398,467.366,261.471,467.21,261.471z M469.469,258.164c-0.095,0-0.19-0.026-0.275-0.083
				c-0.23-0.152-0.294-0.462-0.142-0.692c0.365-0.554,0.728-1.111,1.084-1.673c0.149-0.232,0.458-0.3,0.69-0.153
				c0.232,0.148,0.302,0.457,0.153,0.69c-0.36,0.565-0.725,1.129-1.094,1.687C469.79,258.085,469.631,258.164,469.469,258.164z
				 M471.618,254.787c-0.089,0-0.179-0.023-0.261-0.074c-0.235-0.145-0.309-0.452-0.164-0.688c0.348-0.566,0.691-1.136,1.029-1.708
				c0.141-0.239,0.45-0.316,0.685-0.177c0.238,0.141,0.317,0.447,0.177,0.685c-0.342,0.578-0.688,1.151-1.039,1.724
				C471.951,254.702,471.787,254.787,471.618,254.787z M473.66,251.339c-0.084,0-0.17-0.021-0.248-0.065
				c-0.239-0.137-0.323-0.442-0.187-0.683c0.329-0.576,0.653-1.157,0.974-1.74c0.133-0.243,0.438-0.331,0.679-0.198
				c0.242,0.133,0.331,0.437,0.198,0.679c-0.322,0.589-0.65,1.174-0.981,1.756C474.002,251.248,473.833,251.339,473.66,251.339z
				 M475.587,247.827c-0.079,0-0.159-0.019-0.233-0.058c-0.244-0.129-0.338-0.432-0.209-0.676c0.311-0.588,0.616-1.179,0.918-1.772
				c0.125-0.247,0.427-0.344,0.672-0.219c0.246,0.125,0.345,0.426,0.219,0.672c-0.304,0.598-0.611,1.194-0.924,1.786
				C475.939,247.731,475.766,247.827,475.587,247.827z M477.398,244.253c-0.074,0-0.148-0.017-0.219-0.051
				c-0.249-0.121-0.352-0.42-0.23-0.668c0.292-0.599,0.577-1.199,0.859-1.803c0.117-0.251,0.416-0.357,0.665-0.241
				c0.25,0.117,0.358,0.415,0.241,0.665c-0.284,0.607-0.573,1.214-0.867,1.816C477.761,244.15,477.583,244.253,477.398,244.253z
				 M479.095,240.62c-0.068,0-0.139-0.014-0.205-0.044c-0.252-0.113-0.364-0.409-0.251-0.661c0.272-0.606,0.538-1.216,0.8-1.828
				c0.108-0.255,0.399-0.372,0.656-0.264c0.254,0.108,0.372,0.402,0.264,0.656c-0.264,0.618-0.533,1.233-0.808,1.846
				C479.468,240.511,479.285,240.62,479.095,240.62z M480.671,236.933c-0.063,0-0.127-0.012-0.188-0.037
				c-0.256-0.104-0.379-0.396-0.274-0.651c0.251-0.616,0.498-1.235,0.74-1.855c0.101-0.257,0.39-0.385,0.647-0.284
				s0.385,0.391,0.284,0.647c-0.244,0.626-0.493,1.249-0.746,1.869C481.055,236.816,480.868,236.933,480.671,236.933z
				 M482.127,233.195c-0.058,0-0.116-0.01-0.173-0.031c-0.26-0.096-0.392-0.383-0.296-0.642c0.23-0.625,0.457-1.252,0.679-1.881
				c0.092-0.261,0.376-0.398,0.638-0.306c0.261,0.092,0.397,0.377,0.306,0.638c-0.224,0.635-0.452,1.266-0.685,1.895
				C482.521,233.07,482.33,233.195,482.127,233.195z M483.459,229.409c-0.053,0-0.105-0.008-0.158-0.025
				c-0.263-0.088-0.403-0.371-0.316-0.633c0.211-0.632,0.418-1.266,0.618-1.901c0.082-0.263,0.364-0.407,0.627-0.326
				c0.264,0.083,0.409,0.363,0.326,0.627c-0.202,0.642-0.409,1.281-0.622,1.917C483.863,229.277,483.668,229.409,483.459,229.409z
				 M484.667,225.579c-0.047,0-0.096-0.007-0.144-0.021c-0.264-0.079-0.415-0.358-0.336-0.623c0.191-0.638,0.376-1.277,0.556-1.92
				c0.074-0.265,0.35-0.421,0.616-0.347c0.266,0.074,0.421,0.351,0.347,0.616c-0.182,0.648-0.368,1.294-0.56,1.938
				C485.081,225.44,484.883,225.579,484.667,225.579z M485.747,221.722c-0.042,0-0.084-0.005-0.127-0.017
				c-0.267-0.07-0.427-0.344-0.356-0.61c0.168-0.641,0.331-1.285,0.49-1.931c0.065-0.268,0.332-0.432,0.604-0.366
				c0.269,0.065,0.433,0.336,0.366,0.604c-0.159,0.651-0.324,1.3-0.494,1.946C486.172,221.574,485.969,221.722,485.747,221.722z
				 M486.699,217.836c-0.036,0-0.073-0.004-0.111-0.013c-0.269-0.061-0.438-0.329-0.376-0.599c0.146-0.646,0.289-1.294,0.426-1.945
				c0.058-0.271,0.322-0.444,0.593-0.386c0.27,0.057,0.442,0.322,0.386,0.593c-0.139,0.655-0.281,1.31-0.43,1.961
				C487.134,217.679,486.928,217.836,486.699,217.836z M487.524,213.923c-0.032,0-0.064-0.003-0.097-0.009
				c-0.271-0.053-0.448-0.315-0.396-0.587c0.127-0.65,0.247-1.303,0.363-1.957c0.048-0.272,0.313-0.46,0.579-0.405
				c0.272,0.048,0.453,0.308,0.405,0.579c-0.116,0.66-0.238,1.318-0.365,1.975C487.968,213.757,487.759,213.923,487.524,213.923z
				 M488.221,209.986c-0.026,0-0.054-0.002-0.08-0.006c-0.272-0.044-0.458-0.301-0.415-0.573c0.105-0.654,0.205-1.311,0.299-1.97
				c0.039-0.274,0.294-0.462,0.566-0.424c0.273,0.039,0.463,0.293,0.424,0.566c-0.096,0.663-0.195,1.325-0.301,1.985
				C488.674,209.811,488.462,209.986,488.221,209.986z M488.789,206.026c-0.021,0-0.043-0.001-0.064-0.004
				c-0.273-0.035-0.468-0.285-0.433-0.56c0.084-0.657,0.161-1.316,0.234-1.977c0.03-0.275,0.284-0.479,0.552-0.442
				c0.274,0.03,0.473,0.277,0.442,0.552c-0.073,0.666-0.152,1.331-0.236,1.994C489.252,205.841,489.037,206.026,488.789,206.026z
				 M489.229,202.051c-0.016,0-0.031-0.001-0.047-0.002c-0.275-0.025-0.478-0.27-0.452-0.544c0.062-0.66,0.119-1.321,0.171-1.985
				c0.021-0.276,0.264-0.495,0.537-0.459c0.275,0.021,0.48,0.262,0.459,0.537c-0.052,0.668-0.109,1.335-0.171,1.999
				C489.701,201.857,489.483,202.051,489.229,202.051z M489.537,198.065c-0.01,0-0.021,0-0.031-0.001
				c-0.275-0.017-0.484-0.254-0.468-0.53c0.041-0.661,0.077-1.324,0.107-1.988c0.013-0.275,0.222-0.486,0.521-0.477
				c0.276,0.012,0.489,0.246,0.477,0.521c-0.03,0.67-0.066,1.339-0.107,2.006C490.02,197.861,489.8,198.065,489.537,198.065z
				 M489.721,194.069c-0.005,0-0.01,0-0.015,0c-0.276-0.009-0.493-0.238-0.485-0.515c0.02-0.662,0.034-1.325,0.043-1.991
				c0.004-0.273,0.227-0.493,0.5-0.493c0.002,0,0.004,0,0.007,0c0.275,0.004,0.497,0.23,0.493,0.507
				c-0.009,0.671-0.023,1.339-0.043,2.007C490.213,193.855,489.99,194.069,489.721,194.069z M489.774,190.07
				c-0.275,0-0.499-0.223-0.5-0.498c-0.002-0.666-0.009-1.329-0.021-1.992c-0.005-0.276,0.215-0.504,0.491-0.509
				c0.302-0.032,0.504,0.215,0.509,0.491c0.012,0.667,0.019,1.336,0.021,2.006C490.275,189.844,490.052,190.069,489.774,190.07
				L489.774,190.07z M489.703,186.076c-0.269,0-0.49-0.213-0.5-0.483c-0.022-0.664-0.05-1.327-0.083-1.989
				c-0.014-0.276,0.198-0.511,0.474-0.524c0.309-0.042,0.512,0.199,0.524,0.474c0.034,0.668,0.062,1.337,0.085,2.007
				c0.009,0.275-0.207,0.507-0.483,0.517C489.714,186.076,489.709,186.076,489.703,186.076z M489.503,182.081
				c-0.261,0-0.48-0.203-0.498-0.467c-0.044-0.665-0.094-1.327-0.147-1.987c-0.022-0.275,0.182-0.517,0.457-0.539
				c0.241-0.03,0.517,0.18,0.539,0.457c0.056,0.666,0.105,1.334,0.149,2.003c0.018,0.275-0.19,0.514-0.466,0.532
				C489.525,182.081,489.515,182.081,489.503,182.081z M489.174,178.095c-0.254,0-0.471-0.192-0.497-0.451
				c-0.064-0.661-0.135-1.321-0.211-1.979c-0.031-0.274,0.165-0.522,0.439-0.555c0.271-0.031,0.522,0.164,0.555,0.439
				c0.076,0.664,0.146,1.33,0.213,1.997c0.026,0.274-0.174,0.52-0.449,0.547C489.207,178.094,489.19,178.095,489.174,178.095z
				 M488.718,174.121c-0.247,0-0.462-0.184-0.495-0.435c-0.086-0.66-0.178-1.317-0.274-1.973c-0.041-0.273,0.147-0.527,0.421-0.567
				c0.268-0.045,0.527,0.147,0.567,0.421c0.099,0.661,0.19,1.324,0.278,1.988c0.035,0.274-0.157,0.525-0.431,0.562
				C488.762,174.12,488.74,174.121,488.718,174.121z M488.134,170.172c-0.24,0-0.452-0.174-0.492-0.419
				c-0.107-0.653-0.22-1.306-0.338-1.956c-0.049-0.271,0.132-0.531,0.403-0.581c0.27-0.047,0.531,0.131,0.581,0.403
				c0.118,0.656,0.232,1.312,0.34,1.972c0.045,0.272-0.14,0.53-0.412,0.574C488.188,170.17,488.161,170.172,488.134,170.172z
				 M487.424,166.249c-0.233,0-0.442-0.165-0.489-0.403c-0.129-0.649-0.263-1.298-0.402-1.944c-0.058-0.271,0.114-0.536,0.384-0.595
				c0.277-0.051,0.536,0.114,0.595,0.384c0.14,0.652,0.275,1.307,0.404,1.962c0.054,0.271-0.122,0.533-0.394,0.587
				C487.489,166.246,487.456,166.249,487.424,166.249z M486.586,162.349c-0.228,0-0.434-0.156-0.487-0.387
				c-0.149-0.646-0.305-1.289-0.464-1.932c-0.066-0.268,0.097-0.539,0.365-0.605c0.267-0.067,0.539,0.098,0.605,0.365
				c0.161,0.646,0.316,1.296,0.468,1.945c0.062,0.27-0.105,0.538-0.374,0.601C486.661,162.345,486.623,162.349,486.586,162.349z
				 M485.622,158.48c-0.222,0-0.424-0.147-0.483-0.371c-0.171-0.641-0.347-1.279-0.527-1.915c-0.076-0.266,0.078-0.542,0.344-0.617
				c0.267-0.082,0.541,0.078,0.617,0.344c0.183,0.642,0.36,1.284,0.533,1.931c0.071,0.267-0.088,0.541-0.354,0.612
				C485.708,158.474,485.664,158.48,485.622,158.48z M484.53,154.642c-0.215,0-0.413-0.139-0.479-0.354
				c-0.192-0.636-0.389-1.269-0.591-1.898c-0.084-0.264,0.062-0.545,0.324-0.629c0.267-0.083,0.545,0.062,0.629,0.324
				c0.202,0.636,0.4,1.272,0.595,1.912c0.08,0.265-0.069,0.544-0.333,0.624C484.627,154.635,484.578,154.642,484.53,154.642z
				 M483.315,150.842c-0.208,0-0.403-0.131-0.474-0.34c-0.213-0.628-0.43-1.255-0.651-1.878c-0.093-0.261,0.043-0.547,0.303-0.639
				c0.261-0.098,0.546,0.043,0.639,0.303c0.224,0.629,0.442,1.26,0.657,1.894c0.089,0.261-0.052,0.545-0.313,0.634
				C483.423,150.833,483.368,150.842,483.315,150.842z M481.977,147.082c-0.202,0-0.393-0.124-0.468-0.324
				c-0.233-0.622-0.471-1.24-0.714-1.857c-0.101-0.257,0.026-0.547,0.283-0.648c0.255-0.101,0.546,0.026,0.648,0.283
				c0.243,0.621,0.482,1.245,0.718,1.871c0.098,0.259-0.033,0.547-0.292,0.644C482.095,147.073,482.035,147.082,481.977,147.082z
				 M480.515,143.366c-0.196,0-0.383-0.117-0.463-0.311c-0.251-0.613-0.509-1.224-0.771-1.831c-0.109-0.254,0.007-0.548,0.261-0.657
				c0.251-0.111,0.547,0.008,0.657,0.261c0.265,0.613,0.524,1.229,0.779,1.849c0.104,0.255-0.018,0.547-0.273,0.652
				C480.643,143.354,480.578,143.366,480.515,143.366z M478.933,139.7c-0.19,0-0.373-0.109-0.456-0.295
				c-0.272-0.604-0.549-1.207-0.831-1.806c-0.118-0.25-0.011-0.548,0.239-0.665c0.248-0.117,0.548-0.011,0.665,0.239
				c0.284,0.604,0.564,1.211,0.839,1.821c0.113,0.252,0.001,0.548-0.251,0.661C479.071,139.686,479.002,139.7,478.933,139.7z
				 M477.233,136.086c-0.185,0-0.361-0.103-0.448-0.279c-0.293-0.596-0.59-1.188-0.892-1.779c-0.126-0.246-0.028-0.547,0.218-0.673
				c0.246-0.123,0.547-0.028,0.673,0.218c0.304,0.595,0.603,1.193,0.897,1.793c0.122,0.248,0.021,0.548-0.228,0.669
				C477.383,136.07,477.308,136.086,477.233,136.086z M475.416,132.529c-0.179,0-0.352-0.097-0.441-0.266
				c-0.312-0.586-0.627-1.169-0.948-1.748c-0.134-0.241-0.046-0.546,0.195-0.68c0.243-0.131,0.546-0.047,0.68,0.195
				c0.323,0.585,0.643,1.172,0.956,1.764c0.13,0.244,0.037,0.547-0.207,0.676C475.576,132.51,475.495,132.529,475.416,132.529z
				 M473.483,129.032c-0.173,0-0.341-0.09-0.434-0.251c-0.331-0.574-0.665-1.147-1.005-1.718c-0.142-0.237-0.063-0.544,0.174-0.686
				c0.233-0.142,0.542-0.064,0.686,0.174c0.342,0.574,0.68,1.151,1.013,1.731c0.138,0.239,0.055,0.545-0.185,0.683
				C473.654,129.01,473.568,129.032,473.483,129.032z M471.438,125.6c-0.167,0-0.331-0.084-0.426-0.237
				c-0.348-0.565-0.701-1.126-1.059-1.685c-0.149-0.232-0.081-0.541,0.151-0.69c0.229-0.149,0.54-0.083,0.69,0.151
				c0.361,0.562,0.717,1.129,1.068,1.698c0.145,0.235,0.071,0.544-0.163,0.688C471.619,125.576,471.528,125.6,471.438,125.6z
				 M469.284,122.235c-0.161,0-0.32-0.078-0.416-0.224c-0.368-0.553-0.74-1.103-1.115-1.649c-0.156-0.228-0.099-0.539,0.129-0.695
				c0.229-0.156,0.54-0.098,0.695,0.129c0.379,0.551,0.753,1.104,1.123,1.663c0.153,0.229,0.091,0.54-0.14,0.692
				C469.476,122.207,469.38,122.235,469.284,122.235z M467.02,118.94c-0.156,0-0.31-0.073-0.407-0.21
				c-0.385-0.541-0.774-1.079-1.167-1.613c-0.164-0.222-0.116-0.535,0.106-0.698c0.221-0.165,0.535-0.118,0.698,0.106
				c0.396,0.538,0.789,1.08,1.177,1.625c0.16,0.225,0.107,0.537-0.117,0.697C467.222,118.91,467.12,118.94,467.02,118.94z
				 M464.65,115.719c-0.15,0-0.3-0.068-0.398-0.197c-0.4-0.527-0.807-1.053-1.217-1.573c-0.171-0.217-0.134-0.531,0.083-0.702
				s0.53-0.134,0.702,0.083c0.414,0.526,0.824,1.056,1.229,1.587c0.167,0.22,0.124,0.533-0.096,0.701
				C464.862,115.686,464.756,115.719,464.65,115.719z M462.18,112.578c-0.146,0-0.289-0.063-0.388-0.185
				c-0.419-0.516-0.843-1.027-1.27-1.534c-0.178-0.212-0.15-0.527,0.061-0.705c0.212-0.178,0.528-0.15,0.705,0.061
				c0.431,0.513,0.856,1.028,1.279,1.548c0.175,0.214,0.142,0.529-0.072,0.703C462.402,112.541,462.291,112.578,462.18,112.578z
				 M459.607,109.518c-0.14,0-0.278-0.059-0.378-0.172c-0.435-0.501-0.874-0.999-1.317-1.493c-0.185-0.205-0.167-0.521,0.038-0.706
				c0.205-0.186,0.521-0.169,0.706,0.038c0.447,0.498,0.891,1,1.329,1.505c0.181,0.209,0.158,0.524-0.05,0.706
				C459.841,109.478,459.724,109.518,459.607,109.518z M456.937,106.539c-0.135,0-0.269-0.054-0.367-0.16
				c-0.45-0.486-0.905-0.97-1.364-1.449c-0.19-0.199-0.184-0.516,0.016-0.707c0.2-0.191,0.516-0.183,0.707,0.016
				c0.463,0.483,0.922,0.971,1.376,1.461c0.188,0.203,0.175,0.52-0.027,0.707C457.18,106.495,457.059,106.539,456.937,106.539z
				 M454.173,103.652c-0.129,0-0.258-0.05-0.355-0.148c-0.466-0.472-0.937-0.94-1.411-1.405c-0.197-0.193-0.201-0.51-0.008-0.707
				c0.194-0.197,0.511-0.199,0.707-0.008c0.479,0.469,0.953,0.941,1.423,1.417c0.194,0.196,0.192,0.514-0.004,0.707
				C454.427,103.604,454.3,103.652,454.173,103.652z M451.315,100.852c-0.124,0-0.248-0.046-0.345-0.138
				c-0.48-0.457-0.966-0.91-1.455-1.359c-0.204-0.187-0.217-0.503-0.03-0.706c0.188-0.203,0.505-0.216,0.706-0.03
				c0.493,0.453,0.982,0.91,1.469,1.371c0.2,0.189,0.208,0.506,0.018,0.707C451.58,100.8,451.447,100.852,451.315,100.852z
				 M448.369,98.145c-0.118,0-0.236-0.042-0.332-0.126c-0.496-0.44-0.996-0.879-1.499-1.312c-0.209-0.18-0.233-0.496-0.053-0.705
				c0.181-0.21,0.496-0.231,0.705-0.053c0.507,0.437,1.011,0.877,1.511,1.321c0.206,0.184,0.226,0.5,0.042,0.706
				C448.645,98.088,448.507,98.145,448.369,98.145z"/>
		</g>
		<g>
			<path fill="#474F50" d="M123.448,148.087c-0.005,0-0.009,0-0.014,0c-0.276-0.008-0.494-0.238-0.486-0.514
				c0.019-0.675,0.049-1.346,0.089-2.015c0.017-0.275,0.231-0.493,0.529-0.469c0.275,0.017,0.485,0.254,0.469,0.529
				c-0.04,0.657-0.068,1.318-0.087,1.981C123.94,147.872,123.718,148.087,123.448,148.087z M123.691,144.095
				c-0.016,0-0.031-0.001-0.047-0.002c-0.275-0.025-0.478-0.27-0.452-0.544c0.062-0.672,0.136-1.34,0.221-2.005
				c0.034-0.274,0.286-0.472,0.56-0.433c0.273,0.035,0.468,0.285,0.433,0.56c-0.083,0.653-0.156,1.31-0.217,1.97
				C124.164,143.901,123.946,144.095,123.691,144.095z M124.192,140.129c-0.026,0-0.054-0.002-0.081-0.007
				c-0.272-0.044-0.457-0.3-0.413-0.573c0.106-0.665,0.224-1.326,0.352-1.984c0.054-0.271,0.317-0.444,0.587-0.396
				c0.271,0.053,0.448,0.315,0.396,0.587c-0.126,0.646-0.241,1.298-0.348,1.953C124.646,139.954,124.433,140.129,124.192,140.129z
				 M124.956,136.205c-0.036,0-0.074-0.004-0.111-0.013c-0.27-0.062-0.438-0.33-0.376-0.599c0.15-0.657,0.312-1.31,0.483-1.958
				c0.07-0.266,0.341-0.43,0.611-0.355c0.267,0.07,0.426,0.345,0.355,0.611c-0.169,0.637-0.327,1.279-0.476,1.925
				C125.391,136.049,125.185,136.205,124.956,136.205z M125.979,132.339c-0.048,0-0.096-0.007-0.144-0.021
				c-0.265-0.079-0.415-0.358-0.335-0.622c0.193-0.646,0.397-1.285,0.612-1.922c0.088-0.26,0.369-0.399,0.634-0.313
				c0.262,0.088,0.402,0.372,0.313,0.634c-0.211,0.625-0.411,1.255-0.603,1.889C126.394,132.2,126.194,132.339,125.979,132.339z
				 M127.257,128.552c-0.059,0-0.118-0.01-0.176-0.032c-0.259-0.097-0.39-0.386-0.292-0.644c0.237-0.631,0.483-1.256,0.739-1.876
				c0.104-0.256,0.397-0.379,0.652-0.271c0.256,0.105,0.377,0.397,0.271,0.652c-0.252,0.61-0.494,1.226-0.728,1.847
				C127.649,128.429,127.459,128.552,127.257,128.552z M128.781,124.862c-0.069,0-0.14-0.015-0.206-0.045
				c-0.252-0.113-0.363-0.409-0.249-0.661c0.276-0.611,0.562-1.217,0.859-1.818c0.122-0.247,0.423-0.348,0.67-0.227
				c0.247,0.122,0.349,0.422,0.227,0.67c-0.291,0.59-0.573,1.186-0.846,1.787C129.153,124.752,128.972,124.862,128.781,124.862z
				 M130.545,121.284c-0.08,0-0.161-0.019-0.236-0.06c-0.243-0.13-0.335-0.434-0.204-0.677c0.316-0.592,0.643-1.178,0.979-1.758
				c0.139-0.239,0.446-0.319,0.684-0.182c0.238,0.139,0.32,0.444,0.182,0.684c-0.33,0.57-0.65,1.146-0.963,1.729
				C130.896,121.188,130.723,121.284,130.545,121.284z M132.543,117.829c-0.091,0-0.182-0.024-0.265-0.075
				c-0.234-0.146-0.306-0.454-0.16-0.689c0.355-0.57,0.72-1.134,1.094-1.691c0.152-0.229,0.462-0.292,0.693-0.137
				c0.229,0.153,0.291,0.464,0.137,0.693c-0.366,0.548-0.725,1.102-1.074,1.664C132.873,117.745,132.71,117.829,132.543,117.829z
				 M134.764,114.511c-0.102,0-0.203-0.03-0.292-0.094c-0.224-0.161-0.275-0.474-0.114-0.698c0.393-0.545,0.793-1.084,1.202-1.615
				c0.169-0.219,0.482-0.259,0.701-0.092c0.219,0.169,0.26,0.482,0.092,0.701c-0.403,0.523-0.798,1.053-1.183,1.59
				C135.072,114.439,134.919,114.511,134.764,114.511z M137.201,111.345c-0.112,0-0.225-0.037-0.318-0.114
				c-0.213-0.176-0.243-0.491-0.067-0.704c0.427-0.518,0.862-1.029,1.305-1.533c0.184-0.207,0.499-0.228,0.706-0.046
				c0.207,0.183,0.228,0.499,0.046,0.706c-0.437,0.496-0.864,1-1.285,1.51C137.488,111.284,137.345,111.345,137.201,111.345z
				 M139.842,108.344c-0.123,0-0.246-0.045-0.343-0.136c-0.201-0.189-0.211-0.506-0.021-0.707c0.461-0.489,0.929-0.972,1.403-1.445
				c0.195-0.195,0.512-0.195,0.707,0s0.195,0.513,0,0.707c-0.469,0.468-0.929,0.942-1.382,1.424
				C140.107,108.291,139.975,108.344,139.842,108.344z M142.673,105.523c-0.134,0-0.268-0.054-0.366-0.159
				c-0.188-0.202-0.177-0.519,0.025-0.707c0.492-0.458,0.991-0.909,1.497-1.352c0.207-0.18,0.521-0.161,0.706,0.048
				c0.182,0.208,0.16,0.524-0.048,0.706c-0.498,0.435-0.989,0.878-1.474,1.33C142.917,105.479,142.795,105.523,142.673,105.523z
				 M145.686,102.891c-0.145,0-0.288-0.062-0.388-0.184c-0.174-0.214-0.143-0.529,0.071-0.704c0.521-0.425,1.049-0.841,1.583-1.25
				c0.219-0.167,0.533-0.126,0.701,0.094s0.126,0.533-0.094,0.701c-0.526,0.401-1.045,0.812-1.558,1.23
				C145.909,102.854,145.797,102.891,145.686,102.891z M148.865,100.462c-0.155,0-0.31-0.073-0.407-0.209
				c-0.16-0.226-0.108-0.537,0.116-0.698c0.548-0.391,1.103-0.771,1.663-1.144c0.228-0.153,0.539-0.093,0.692,0.14
				c0.153,0.229,0.091,0.54-0.14,0.692c-0.551,0.366-1.096,0.741-1.634,1.126C149.067,100.432,148.966,100.462,148.865,100.462z
				 M152.199,98.248c-0.167,0-0.331-0.084-0.426-0.237c-0.145-0.235-0.071-0.543,0.163-0.688c0.573-0.354,1.151-0.698,1.736-1.032
				c0.236-0.138,0.545-0.057,0.682,0.186c0.138,0.239,0.055,0.545-0.186,0.682c-0.575,0.33-1.144,0.669-1.707,1.017
				C152.38,98.224,152.289,98.248,152.199,98.248z M155.675,96.258c-0.179,0-0.353-0.097-0.441-0.266
				c-0.13-0.244-0.037-0.547,0.207-0.676c0.595-0.315,1.195-0.621,1.802-0.916c0.245-0.118,0.546-0.019,0.668,0.23
				c0.121,0.248,0.019,0.547-0.23,0.668c-0.595,0.291-1.186,0.591-1.771,0.9C155.834,96.24,155.754,96.258,155.675,96.258z
				 M159.276,94.501c-0.19,0-0.373-0.11-0.456-0.296c-0.113-0.252,0-0.548,0.252-0.66c0.614-0.275,1.233-0.54,1.857-0.795
				c0.256-0.104,0.548,0.018,0.652,0.273s-0.019,0.548-0.273,0.652c-0.614,0.251-1.224,0.512-1.828,0.781
				C159.414,94.488,159.345,94.501,159.276,94.501z M162.987,92.987c-0.203,0-0.395-0.125-0.47-0.327
				c-0.095-0.26,0.038-0.547,0.297-0.643c0.632-0.231,1.269-0.455,1.909-0.668c0.263-0.089,0.545,0.055,0.632,0.317
				c0.087,0.262-0.055,0.545-0.317,0.632c-0.631,0.209-1.256,0.429-1.878,0.658C163.103,92.977,163.045,92.987,162.987,92.987z
				 M166.788,91.726c-0.216,0-0.415-0.141-0.479-0.358c-0.078-0.265,0.073-0.543,0.338-0.621c0.643-0.19,1.291-0.369,1.942-0.539
				c0.27-0.068,0.541,0.093,0.61,0.358c0.069,0.268-0.092,0.54-0.358,0.61c-0.642,0.166-1.278,0.343-1.911,0.529
				C166.883,91.719,166.835,91.726,166.788,91.726z M170.658,90.722c-0.229,0-0.436-0.157-0.487-0.39
				c-0.062-0.27,0.108-0.537,0.377-0.598c0.655-0.148,1.313-0.284,1.976-0.409c0.263-0.05,0.532,0.126,0.584,0.398
				c0.052,0.271-0.127,0.533-0.398,0.584c-0.65,0.123-1.297,0.257-1.94,0.401C170.731,90.718,170.694,90.722,170.658,90.722z
				 M174.586,89.976c-0.242,0-0.455-0.177-0.493-0.424c-0.042-0.272,0.145-0.528,0.418-0.57c0.662-0.103,1.327-0.195,1.996-0.276
				c0.268-0.042,0.523,0.161,0.557,0.436c0.034,0.274-0.161,0.523-0.436,0.557c-0.657,0.081-1.312,0.172-1.965,0.272
				C174.638,89.974,174.611,89.976,174.586,89.976z M178.555,89.493c-0.256,0-0.474-0.196-0.497-0.456
				c-0.024-0.274,0.179-0.518,0.454-0.542c0.666-0.059,1.337-0.107,2.011-0.145c0.284-0.031,0.512,0.196,0.526,0.472
				c0.016,0.275-0.195,0.512-0.472,0.526c-0.662,0.037-1.321,0.084-1.978,0.143C178.585,89.492,178.57,89.493,178.555,89.493z
				 M182.547,89.271c-0.271,0-0.494-0.217-0.5-0.488c-0.006-0.276,0.213-0.505,0.488-0.512c0.476-0.011,0.953-0.017,1.432-0.017
				h0.58c0.276,0,0.5,0.224,0.5,0.5s-0.224,0.5-0.5,0.5h-0.58c-0.471,0-0.94,0.006-1.408,0.017
				C182.555,89.271,182.551,89.271,182.547,89.271z M212.547,89.254h-2c-0.276,0-0.5-0.224-0.5-0.5s0.224-0.5,0.5-0.5h2
				c0.276,0,0.5,0.224,0.5,0.5S212.823,89.254,212.547,89.254z M208.547,89.254h-2c-0.276,0-0.5-0.224-0.5-0.5s0.224-0.5,0.5-0.5h2
				c0.276,0,0.5,0.224,0.5,0.5S208.823,89.254,208.547,89.254z M204.547,89.254h-2c-0.276,0-0.5-0.224-0.5-0.5s0.224-0.5,0.5-0.5h2
				c0.276,0,0.5,0.224,0.5,0.5S204.823,89.254,204.547,89.254z M200.547,89.254h-2c-0.276,0-0.5-0.224-0.5-0.5s0.224-0.5,0.5-0.5h2
				c0.276,0,0.5,0.224,0.5,0.5S200.823,89.254,200.547,89.254z M196.547,89.254h-2c-0.276,0-0.5-0.224-0.5-0.5s0.224-0.5,0.5-0.5h2
				c0.276,0,0.5,0.224,0.5,0.5S196.823,89.254,196.547,89.254z M192.547,89.254h-2c-0.276,0-0.5-0.224-0.5-0.5s0.224-0.5,0.5-0.5h2
				c0.276,0,0.5,0.224,0.5,0.5S192.823,89.254,192.547,89.254z M188.547,89.254h-2c-0.276,0-0.5-0.224-0.5-0.5s0.224-0.5,0.5-0.5h2
				c0.276,0,0.5,0.224,0.5,0.5S188.823,89.254,188.547,89.254z"/>
		</g>
		<g>
			<path fill="#474F50" d="M121.714,244.743h-2c-0.276,0-0.5-0.224-0.5-0.5s0.224-0.5,0.5-0.5h2c0.276,0,0.5,0.224,0.5,0.5
				S121.99,244.743,121.714,244.743z M117.714,244.743h-2c-0.276,0-0.5-0.224-0.5-0.5s0.224-0.5,0.5-0.5h2
				c0.276,0,0.5,0.224,0.5,0.5S117.99,244.743,117.714,244.743z M113.714,244.743h-2c-0.276,0-0.5-0.224-0.5-0.5s0.224-0.5,0.5-0.5
				h2c0.276,0,0.5,0.224,0.5,0.5S113.99,244.743,113.714,244.743z M109.714,244.743h-2c-0.276,0-0.5-0.224-0.5-0.5
				s0.224-0.5,0.5-0.5h2c0.276,0,0.5,0.224,0.5,0.5S109.99,244.743,109.714,244.743z M105.714,244.743h-2
				c-0.276,0-0.5-0.224-0.5-0.5s0.224-0.5,0.5-0.5h2c0.276,0,0.5,0.224,0.5,0.5S105.99,244.743,105.714,244.743z M101.714,244.743
				h-2c-0.276,0-0.5-0.224-0.5-0.5s0.224-0.5,0.5-0.5h2c0.276,0,0.5,0.224,0.5,0.5S101.99,244.743,101.714,244.743z M97.714,244.743
				h-2c-0.276,0-0.5-0.224-0.5-0.5s0.224-0.5,0.5-0.5h2c0.276,0,0.5,0.224,0.5,0.5S97.99,244.743,97.714,244.743z M93.714,244.743
				h-2c-0.276,0-0.5-0.224-0.5-0.5s0.224-0.5,0.5-0.5h2c0.276,0,0.5,0.224,0.5,0.5S93.99,244.743,93.714,244.743z M89.714,244.743
				h-2c-0.276,0-0.5-0.224-0.5-0.5s0.224-0.5,0.5-0.5h2c0.276,0,0.5,0.224,0.5,0.5S89.99,244.743,89.714,244.743z M85.714,244.743
				h-2c-0.276,0-0.5-0.224-0.5-0.5s0.224-0.5,0.5-0.5h2c0.276,0,0.5,0.224,0.5,0.5S85.99,244.743,85.714,244.743z"/>
		</g>
		<g>
			<path fill="#474F50" d="M140.386,269.917h-0.66c-0.276,0-0.5-0.224-0.5-0.5s0.224-0.5,0.5-0.5h0.66c0.276,0,0.5,0.224,0.5,0.5
				S140.662,269.917,140.386,269.917z M137.726,269.917h-2c-0.276,0-0.5-0.224-0.5-0.5s0.224-0.5,0.5-0.5h2
				c0.276,0,0.5,0.224,0.5,0.5S138.002,269.917,137.726,269.917z M133.726,269.917h-2c-0.276,0-0.5-0.224-0.5-0.5s0.224-0.5,0.5-0.5
				h2c0.276,0,0.5,0.224,0.5,0.5S134.002,269.917,133.726,269.917z M129.726,269.917h-2c-0.276,0-0.5-0.224-0.5-0.5
				s0.224-0.5,0.5-0.5h2c0.276,0,0.5,0.224,0.5,0.5S130.002,269.917,129.726,269.917z M125.726,269.917h-2
				c-0.276,0-0.5-0.224-0.5-0.5s0.224-0.5,0.5-0.5h2c0.276,0,0.5,0.224,0.5,0.5S126.002,269.917,125.726,269.917z M121.726,269.917
				h-2c-0.276,0-0.5-0.224-0.5-0.5s0.224-0.5,0.5-0.5h2c0.276,0,0.5,0.224,0.5,0.5S122.002,269.917,121.726,269.917z"/>
		</g>
		<g>
			<path fill="#474F50" d="M129.349,298.901h-2c-0.276,0-0.5-0.224-0.5-0.5s0.224-0.5,0.5-0.5h2c0.276,0,0.5,0.224,0.5,0.5
				S129.625,298.901,129.349,298.901z M125.349,298.901h-2c-0.276,0-0.5-0.224-0.5-0.5s0.224-0.5,0.5-0.5h2
				c0.276,0,0.5,0.224,0.5,0.5S125.625,298.901,125.349,298.901z M121.349,298.901h-2c-0.276,0-0.5-0.224-0.5-0.5s0.224-0.5,0.5-0.5
				h2c0.276,0,0.5,0.224,0.5,0.5S121.625,298.901,121.349,298.901z M117.349,298.901h-2c-0.276,0-0.5-0.224-0.5-0.5
				s0.224-0.5,0.5-0.5h2c0.276,0,0.5,0.224,0.5,0.5S117.625,298.901,117.349,298.901z M113.349,298.901h-2
				c-0.276,0-0.5-0.224-0.5-0.5s0.224-0.5,0.5-0.5h2c0.276,0,0.5,0.224,0.5,0.5S113.625,298.901,113.349,298.901z M109.349,298.901
				h-2c-0.276,0-0.5-0.224-0.5-0.5s0.224-0.5,0.5-0.5h2c0.276,0,0.5,0.224,0.5,0.5S109.625,298.901,109.349,298.901z
				 M105.349,298.901h-2c-0.276,0-0.5-0.224-0.5-0.5s0.224-0.5,0.5-0.5h2c0.276,0,0.5,0.224,0.5,0.5
				S105.625,298.901,105.349,298.901z M101.349,298.901h-2c-0.276,0-0.5-0.224-0.5-0.5s0.224-0.5,0.5-0.5h2
				c0.276,0,0.5,0.224,0.5,0.5S101.625,298.901,101.349,298.901z M97.349,298.901h-2c-0.276,0-0.5-0.224-0.5-0.5s0.224-0.5,0.5-0.5
				h2c0.276,0,0.5,0.224,0.5,0.5S97.625,298.901,97.349,298.901z M93.349,298.901h-2c-0.276,0-0.5-0.224-0.5-0.5s0.224-0.5,0.5-0.5
				h2c0.276,0,0.5,0.224,0.5,0.5S93.625,298.901,93.349,298.901z"/>
		</g>
		<g>
			<path fill="#474F50" d="M217.224,299.789h-0.159c-0.276,0-0.5-0.224-0.5-0.5s0.224-0.5,0.5-0.5h0.159c0.276,0,0.5,0.224,0.5,0.5
				S217.5,299.789,217.224,299.789z M215.064,299.789h-2c-0.276,0-0.5-0.224-0.5-0.5s0.224-0.5,0.5-0.5h2c0.276,0,0.5,0.224,0.5,0.5
				S215.341,299.789,215.064,299.789z M211.064,299.789h-2c-0.276,0-0.5-0.224-0.5-0.5s0.224-0.5,0.5-0.5h2
				c0.276,0,0.5,0.224,0.5,0.5S211.341,299.789,211.064,299.789z M207.064,299.789h-2c-0.276,0-0.5-0.224-0.5-0.5s0.224-0.5,0.5-0.5
				h2c0.276,0,0.5,0.224,0.5,0.5S207.341,299.789,207.064,299.789z M203.064,299.789h-2c-0.276,0-0.5-0.224-0.5-0.5
				s0.224-0.5,0.5-0.5h2c0.276,0,0.5,0.224,0.5,0.5S203.341,299.789,203.064,299.789z M199.064,299.789h-2
				c-0.276,0-0.5-0.224-0.5-0.5s0.224-0.5,0.5-0.5h2c0.276,0,0.5,0.224,0.5,0.5S199.341,299.789,199.064,299.789z M195.064,299.789
				h-2c-0.276,0-0.5-0.224-0.5-0.5s0.224-0.5,0.5-0.5h2c0.276,0,0.5,0.224,0.5,0.5S195.341,299.789,195.064,299.789z
				 M191.064,299.789h-2c-0.276,0-0.5-0.224-0.5-0.5s0.224-0.5,0.5-0.5h2c0.276,0,0.5,0.224,0.5,0.5
				S191.341,299.789,191.064,299.789z M187.064,299.789h-2c-0.276,0-0.5-0.224-0.5-0.5s0.224-0.5,0.5-0.5h2
				c0.276,0,0.5,0.224,0.5,0.5S187.341,299.789,187.064,299.789z"/>
		</g>
	</g>
	<g id="speech_bubble_7_">
		<g>
			<path fill="#E53362" d="M196.964,57.101h20.415c2.39,0,4.328,1.772,4.328,3.958c0,2.186-1.938,3.958-4.328,3.958h-3.373
				c0.248,0.938,0.754,2.532,1.42,3.009c0,0-3.283-1.617-3.814-3.009h-14.649c-2.39,0-4.328-1.772-4.328-3.958
				C192.636,58.873,194.574,57.101,196.964,57.101z"/>
		</g>
		<g>
			<path fill="#FFFFFF" d="M209.141,62.963c-0.894,0-1.789-0.242-2.587-0.614c-0.343,0.203-0.822,0.372-1.491,0.463
				c-2.021,0.274-3.793-0.081-5.045-0.655c-0.397,0.266-1.041,0.469-2.069,0.504c-0.137-0.007-0.254-0.104-0.259-0.241
				c-0.005-0.139,0.104-0.254,0.241-0.259c0.656-0.022,1.18-0.118,1.551-0.279c-0.634-0.368-1.075-0.789-1.269-1.181
				c-0.202-0.411-0.152-0.811,0.138-1.098c0.317-0.312,0.797-0.333,1.282-0.06c0.609,0.345,1.135,1.126,0.961,1.836
				c-0.033,0.132-0.09,0.271-0.186,0.406c1.132,0.478,2.727,0.784,4.588,0.53c0.396-0.054,0.734-0.138,1.011-0.251
				c-1.127-0.647-1.974-1.533-2.195-2.272c-0.159-0.528,0.009-0.967,0.46-1.203c0.551-0.289,1.332-0.113,2.038,0.458
				c0.684,0.555,1.268,1.496,1.029,2.349c-0.055,0.192-0.158,0.405-0.348,0.607c0.79,0.337,1.687,0.531,2.578,0.438
				c0.458-0.046,0.817-0.155,1.077-0.327c-0.736-0.481-1.159-1.148-1.272-1.798c-0.108-0.623,0.088-1.136,0.502-1.306
				c0.276-0.11,0.615-0.007,0.946,0.304c0.578,0.544,1.012,1.594,0.734,2.409c-0.027,0.082-0.064,0.168-0.112,0.254
				c0.429,0.182,0.958,0.308,1.607,0.336c0.495,0.021,0.92-0.035,1.266-0.168c-0.592-0.464-0.834-1.093-0.838-1.651
				c-0.005-0.802,0.47-1.445,1.104-1.498c0.369-0.026,0.716,0.171,0.958,0.555c0.324,0.513,0.473,1.41,0.031,2.172
				c-0.073,0.126-0.168,0.257-0.289,0.383c0.29,0.105,0.635,0.18,1.041,0.209c1.002,0.068,1.732-0.132,2.172-0.599
				c0.577-0.614,0.468-1.51,0.466-1.519c-0.018-0.137,0.078-0.262,0.215-0.28c0.134-0.027,0.263,0.077,0.281,0.213
				c0.006,0.046,0.146,1.133-0.594,1.924c-0.547,0.586-1.414,0.847-2.575,0.759c-0.592-0.041-1.075-0.17-1.463-0.354
				c-0.407,0.233-0.982,0.391-1.796,0.354c-0.752-0.033-1.389-0.193-1.909-0.437c-0.3,0.267-0.769,0.488-1.501,0.562
				C209.461,62.955,209.301,62.963,209.141,62.963z M214.655,59.493c-0.01,0-0.021,0-0.031,0.001
				c-0.364,0.03-0.647,0.468-0.645,0.997c0.003,0.471,0.238,1.008,0.821,1.378c0.137-0.111,0.25-0.244,0.339-0.396
				c0.321-0.557,0.233-1.253-0.021-1.654C215.04,59.695,214.878,59.493,214.655,59.493z M204.86,58.952
				c-0.133,0-0.253,0.026-0.357,0.08c-0.147,0.077-0.33,0.225-0.213,0.616c0.188,0.624,1.053,1.515,2.219,2.126
				c0.177-0.147,0.294-0.319,0.349-0.514c0.176-0.631-0.324-1.388-0.863-1.825C205.607,59.122,205.197,58.952,204.86,58.952z
				 M210.104,59.467c-0.016,0-0.028,0.002-0.039,0.007c-0.179,0.073-0.263,0.392-0.199,0.757c0.076,0.437,0.4,1.064,1.134,1.518
				c0.033-0.058,0.062-0.119,0.084-0.185c0.209-0.617-0.151-1.459-0.604-1.885C210.319,59.529,210.183,59.467,210.104,59.467z
				 M198.976,59.852c-0.098,0-0.194,0.027-0.273,0.106c-0.086,0.085-0.183,0.231-0.04,0.521c0.165,0.336,0.612,0.738,1.281,1.088
				c0.082-0.093,0.137-0.194,0.164-0.307c0.116-0.474-0.283-1.034-0.721-1.281C199.302,59.931,199.139,59.852,198.976,59.852z"/>
		</g>
	</g>
	<g id="woman_wear_red_tshirt_1_">
		<g>
			<path fill="#F99680" d="M337.895,345.199l-0.322,11.946h5.189c0,0,2.936-12.026,2.936-13.957L337.895,345.199z"/>
		</g>
		<g>
			<path fill="#D35971" d="M337.895,345.199c0,0,1.292,3.533,7.403,0.681l0.4-2.692L337.895,345.199z"/>
		</g>
		<g>
			<path fill="#F99680" d="M360.5,334.42l12.268,5.993l3.379-6.315c0,0-11.423-8.366-15.486-9.13L360.5,334.42z"/>
		</g>
		<g>
			<path fill="#D35971" d="M360.5,334.42c0,0,3.057-2.85,2.353-8.68c0,0-1.599-0.691-2.192-0.772L360.5,334.42z"/>
		</g>
		<g>
			<path fill="#84B1BE" d="M358.107,285.852c-6.938,5.973-18.1,14.782-22.323,21.78c-4.223,6.999-3.62,10.679-1.508,13.454
				s5.49,3.881,5.49,3.881s-1.267,4.143-2.474,10.297c-1.207,6.154,0.603,9.935,0.603,9.935s1.73,2.474,7.803-2.011
				c0,0,1.911-2.071,2.393-6.174c0.483-4.103,1.448-6.275,1.448-6.275s4.786,6.637,10.961,3.68c0,0,1.508-4.304,0.161-9.452
				c0,0-3.64-5.148-7.139-6.958c0,0,0.483-5.068,6.516-6.938c6.033-1.87,17.812-8.434,19.886-13.629
				C381.999,292.247,367.096,282.413,358.107,285.852z"/>
		</g>
		<g>
			<path fill="#ED5526" d="M392.369,261.925c0,0-3.07-2.862-0.979-6.572c2.092-3.71,5.953-3.389,5.953-3.389s0.322-1.77,2.816-1.85
				s6.154,6.194,10.961,2.494c4.807-3.7,7.542-14.399,17.356-15.123s9.653,19.387-4.183,27.431
				c-13.836,8.044-26.208,2.853-26.208,2.853L392.369,261.925z"/>
		</g>
		<g>
			<path fill="#E53362" d="M388.052,266.485l-10.397-10.226l-8.054,6.606c0,0,2.986,4.597,3.59,6.703s1.086,2.106-0.483,3.735
				s-11.524,9.653-14.601,12.549c0,0,3.499,0.965,11.101,2.112c7.602,1.146,10.558,9.895,11.343,10.438c0,0,1.599-1.297,4.133-6.094
				c2.534-4.796,7.592-8.286,12.016-10.257c4.424-1.971,14.279-2.775,14.279-2.775l-1.448-10.418c0,0-8.889,2.092-12.187,1.287
				c-2.434-0.594-6.247-1.759-8.125-2.614C388.552,267.227,388.052,266.485,388.052,266.485z"/>
		</g>
		<g>
			<path fill="#FFE9DE" d="M388.967,267.209l-0.915-0.724c0,0-1.468,1.89-1.006,4.143c0.463,2.252,3.338,2.273,5.45,1.73
				c2.112-0.543,4.847-2.212,4.847-2.212l-0.68-0.342L388.967,267.209z"/>
		</g>
		<g>
			<path fill="#F99680" d="M402.859,258.098c-0.41,0-0.793,0.106-1.136,0.278c0.001-0.033,0.005-0.065,0.005-0.097
				c0-2.349-1.904-4.254-4.253-4.254c-1.661,0-3.097,0.955-3.797,2.344l-0.004-0.001c0,0-0.008,0.023-0.016,0.043
				c-0.163,0.333-0.286,0.688-0.358,1.063c-0.533,1.687-1.374,4.873-0.682,6.387c0.211,0.461,0.691,0.698,1.308,0.787l-0.012,0.009
				c0,0-0.239,1.919-1.838,2.402c-1.599,0.483-3.107,0.151-3.107,0.151s-1.177,3.167,0.784,3.892
				c1.961,0.724,6.912-1.297,6.912-1.297s3.521-4.766,4.307-7.27c0.016-0.051,0.023-0.093,0.036-0.142
				c0.465,0.494,1.12,0.806,1.851,0.806c1.408,0,2.549-1.141,2.549-2.549C405.408,259.24,404.267,258.098,402.859,258.098z"/>
		</g>
		<g>
			<path fill="#F99680" d="M377.051,255.565c0,0-2.474-2.112-5.551-12.187c-3.077-10.076-1.428-13.937-0.744-15.586
				s2.856-4.143,3.62-5.43s2.212-2.051,2.212-2.051s-0.523-1.287-1.689-0.764c-1.166,0.523-2.614,2.293-3.499,1.368
				s-0.654-3.479-0.382-5.199c0.272-1.719,0.694-2.293,0.181-2.685c-0.513-0.392-0.995-0.211-1.207,0.362
				c-0.211,0.573-0.633,3.137-0.845,4.796c-0.211,1.659-0.332,3.077-0.422,2.836c-0.091-0.241-0.634-1.237-0.634-2.896
				c0-1.659-0.09-3.771,0-4.525c0.091-0.754-1.297-0.784-1.297,0.181c0,0.965-0.272,2.564-0.241,3.831c0,0-0.241-1.116-0.302-2.624
				c-0.06-1.508,0.151-2.289-0.392-2.17s-0.664,0.662-0.814,2.532c-0.151,1.87,0,5.158,0,5.158s-0.965-1.388-0.965-2.504
				s0.483-2.262,0-2.624s-0.905-0.06-0.905-0.06s-0.151,1.569-0.271,3.137c-0.121,1.569,0,5.611,0.241,8.447
				c0.241,2.836,0.09,11.222,1.136,18.381c1.046,7.16,5.148,15.526,5.148,15.526L377.051,255.565z"/>
		</g>
		<g>
			<path fill="#F99680" d="M409.993,269.019c0,0,12.368-5.49,16.049-9.653c3.68-4.163,6.033-7.21,7.029-9.412
				c0.996-2.202,1.84-3.861,2.504-4.917c0.664-1.056,0.965-2.655,0.965-2.655s1.026-0.422,1.026,0.573s-0.754,4.042,0.211,3.982
				s3.077-1.448,4.706-2.805c1.629-1.357,2.745-2.232,3.047-2.081s0.633,0.694,0,1.327c-0.634,0.633-4.676,3.741-4.495,4.374
				s2.443-0.452,4.163-0.784c1.72-0.332,2.896-0.603,3.348-0.181c0.453,0.422,0.332,0.875-0.664,1.086
				c-0.995,0.211-5.128,1.629-5.158,1.961c-0.03,0.332,2.444,0.03,4.073,0.06c1.629,0.03,2.383,0.151,2.383,0.664
				s-0.06,0.814-1.327,0.784s-4.887,0.241-4.977,0.362c-0.091,0.121,4.284,0.784,4.314,1.508c0.03,0.724-0.422,0.965-1.448,0.513
				s-4.012-0.573-5.43,0.271c-1.418,0.845-2.926,1.116-5.008,3.439c-2.081,2.323-6.546,8.085-9.442,10.82
				c-2.896,2.735-10.458,8.768-14.56,10.096L409.993,269.019z"/>
		</g>
		<g>
			<polygon fill="#FFE9DE" points="409.531,268.858 410.979,268.265 412.708,278.732 410.979,279.275 			"/>
		</g>
		<g>
			<polygon fill="#FFE9DE" points="369.6,262.865 368.665,261.025 377.051,255.353 377.655,256.258 			"/>
		</g>
		<g>
			<path fill="#343A3A" d="M337.573,357.145h5.189l-0.704,12.931h-19.307c0,0-0.905-3.801,5.611-4.706
				C334.879,364.466,336.327,362.233,337.573,357.145z"/>
		</g>
		<g>
			<path fill="#343A3A" d="M372.768,340.413l3.379-6.315l13.796,6.757l-9.171,22.756c0,0-3.62-0.312-2.172-8.195
				S379.163,344.636,372.768,340.413z"/>
		</g>
		<g>
			<path fill="#568A96" d="M349.54,330.74c1.629-4.847,3.982-12.73,3.982-12.73s4.077,8.735-1.712,15.027
				C351.809,333.036,350.163,331.665,349.54,330.74z"/>
		</g>
		<g>
			<path fill="#568A96" d="M339.766,324.968c1.086-5.209,3.499-10.578,3.499-10.578s-6.139,2.593-7.082,8.597
				C336.183,322.986,337.714,324.113,339.766,324.968z"/>
		</g>
		<g>
			<path fill="#568A96" d="M367.405,287.683l-11.025,7.319c0,0-0.427-4.703,5.909-8.224
				C362.289,286.779,364.833,287.257,367.405,287.683z"/>
		</g>
		<g>
			<path fill="#ED5526" d="M401.584,250.575c2.618,1.098,5.483,2.576,8.651,0.284c3.167-2.293,5.701-7.964,7.783-10.317
				c0,0-3.499,6.576-5.309,9.231c-1.81,2.655-4.676,4.02-7.481,3.669C402.421,253.091,401.584,250.575,401.584,250.575z"/>
		</g>
		<g>
			<path fill="#ED5526" d="M396.331,254.183c0,0-0.898,3.976,1.033,5.686c0,0-1.146-1.931-0.845-4.465c0,0,1.689,4.183,4.605,4.545
				c2.916,0.362,4.585-2.071,4.585-2.071l-4.794-4.867h-2.788L396.331,254.183z"/>
		</g>
		<g>
			<path fill="#D35971" d="M401.728,261.719c0,0,0.684-2.051,2.997-1.166L401.728,261.719z"/>
		</g>
		<g>
			<path fill="#D35971" d="M393.925,264.647c2.534,0.43,4.826-0.938,4.826-0.938s-2.976,4.123-5.721,2.775
				C393.03,266.485,393.634,265.907,393.925,264.647z"/>
		</g>
		<g>
			
				<ellipse transform="matrix(0.2055 -0.9787 0.9787 0.2055 60.009 595.7225)" fill="#D35971" cx="396.888" cy="260.904" rx="0.573" ry="0.998"/>
		</g>
		<g>
			
				<ellipse transform="matrix(0.2055 -0.9787 0.9787 0.2055 58.2185 591.6804)" fill="#D35971" cx="393.504" cy="259.986" rx="0.489" ry="0.851"/>
		</g>
		<g>
			<path fill="#D35971" d="M411.025,268.547c0,0,1.435,5.481,4.38,7.743c0,0-2.204,1.309-2.843,1.559L411.025,268.547z"/>
		</g>
		<g>
			<path fill="#D35971" d="M376.925,255.439l-7.606,5.144l-0.784-1.726C368.534,258.857,371.7,258.27,376.925,255.439z"/>
		</g>
		<g>
			<circle fill="#343A3A" cx="397.591" cy="259.29" r="0.271"/>
		</g>
		<g>
			<circle fill="#343A3A" cx="393.879" cy="258.201" r="0.271"/>
		</g>
		<g>
			<g>
				<polygon fill="#A3CED8" points="386.531,205.263 406.567,216.727 424.888,205.263 406.674,194.106 				"/>
			</g>
			<g>
				<polygon fill="#4F99C6" points="406.567,216.727 406.567,239.71 424.888,228.219 424.888,205.263 				"/>
			</g>
			<g>
				<polygon fill="#3C5E93" points="386.531,205.263 386.531,227.87 406.567,239.71 406.567,216.727 				"/>
			</g>
		</g>
	</g>
	<g id="woman_wear_green_tshirt_1_">
		<g>
			<path fill="#ED5526" d="M143.279,161.921c-0.56-2.398-4.089-4.542-5.615-3.083c0,0-2.171-2.42-5.419-1.046l0.001-0.004
				c-3.872,1.422-8.645,5.355-13.875,2.661c0,0,2.636,1.931,6.69,1.295c1.004-0.157,1.938-0.397,2.776-0.667
				c-3.858,2.687-7.579,2.241-12.186-0.129c-5.367-2.76-13.321-0.064-11.639,9.319c1.683,9.383,19.268,9.807,22.15,8.873
				c2.882-0.933,7.43-3.763,9.485-6.814c2.055-3.051,7.126-5.577,7.126-5.577S143.839,164.318,143.279,161.921z"/>
		</g>
		<g>
			<path fill="#A8A848" d="M111.509,171.134l-1.867,9.232c0,0,8.582,3.062,13.644,9.735c5.062,6.673,9.124,24.251,9.124,24.251
				s8.357-4.705,19.363-6.304c0,0-0.927-2.8-1.492-4.269c-0.565-1.468-6.107-12.273-5.881-14.685c0,0,8.371,1.107,12.914-0.754
				l-2.151-8.572c0,0-6.143,0.084-10.774-0.808c-4.631-0.892-12.855-2.91-18.545-3.997
				C120.153,173.874,111.509,171.134,111.509,171.134z"/>
		</g>
		<g>
			<path fill="#F99680" d="M142.261,172.813c0.804-1.116,0.514-6.064,0.514-6.064l-0.001,0.001c-0.021-1.524-0.761-3.013-2.121-3.93
				c-2.204-1.485-5.194-0.902-6.679,1.303c-0.174,0.259-0.318,0.529-0.436,0.806c-1.132-0.471-2.477-0.097-3.188,0.96
				c-0.811,1.205-0.493,2.839,0.712,3.65c0.514,0.346,1.106,0.475,1.679,0.429c0.003,0.003,0.002,0.008,0.005,0.011
				c0.478,0.478,0.338,3.232-0.538,4.456c-0.876,1.223-3.116,1.32-3.116,1.32s1.197,3.914,3.867,3.641
				c2.67-0.273,3.047-1.832,3.047-1.832s1.554-3.46,2.07-3.837C138.593,173.346,141.458,173.929,142.261,172.813z"/>
		</g>
		<g>
			<path fill="#F99680" d="M155.364,180.572l2.77-0.564c0,0,1.688-1.583,5.888-2.897s10.12-3.181,12.642-4.849
				c2.522-1.668,2.663-2.531,3.913-3.425c1.249-0.894,3.184-4.227,3.184-4.227s0.642,0.2,0.908,0.767
				c0.265,0.567-2.052,4.161-0.415,4.46c1.637,0.3,6.164-2.038,6.697-1.368c0.533,0.67-0.363,1.077-0.959,1.27
				c-0.597,0.194-4.465,1.706-4.507,1.807c-0.042,0.101,6.28-0.172,6.761,0.229c0.481,0.401-0.058,0.816-0.38,1.065
				c-0.323,0.249-5.972,0.406-6.074,0.596c-0.102,0.19,5.877,1.964,6.172,2.603s-0.16,1.084-0.755,0.89
				c-0.595-0.194-5.15-1.89-5.652-1.606c-0.502,0.284,3.812,2.801,2.746,3.922c0,0-2.954-2.689-4.312-2.749
				c-1.358-0.06-2.351-0.47-7.006,1.134c-4.655,1.604-16.178,7.983-16.178,7.983l-3.921,1.017L155.364,180.572z"/>
		</g>
		<g>
			<path fill="#F99680" d="M111.342,171.958l-4.636-1.884c0,0,1.379-4.355-0.249-11.512c-1.628-7.157-0.606-11.442-0.037-12.807
				c0.57-1.365,1.49-3.308,2.996-4.159s3.134-1.308,3.296-1.548c0.162-0.241-0.28-1.199-1.603-1.08s-5.557,1.618-6.786,0.673
				c-1.229-0.944-2.418-2.755-4.155-3.925c-1.737-1.17-4.166-2.379-5.234-1.156c0,0,1.954,1.122,2.631,1.617
				c0.677,0.495,1.897,1.394,1.897,1.394s-4.316-2.907-5.194-2.022c-0.878,0.885-0.54,0.802-0.54,0.802s1.447,0.548,2.58,1.116
				c1.132,0.568,1.863,1.099,1.863,1.099s-3.953-1.225-5.571-1.072c-1.618,0.153-1.203,1.21-1.203,1.21s1.797-0.072,3.323,0.373
				s2.631,1.112,2.631,1.112s-3.16-0.73-3.825-0.09c-0.664,0.64-0.39,1.097-0.39,1.097s2.558-0.452,3.591,0.321
				c1.033,0.774,3.804,2.601,3.982,4.586c0.178,1.985-0.346,27.39,0.652,27.984c0.998,0.595,8.736,4.029,8.736,4.029
				L111.342,171.958z"/>
		</g>
		<g>
			<path fill="#F99680" d="M194.207,219.044l-2.543,6.005c0,0,6.676,4.393,9.371,6.313c2.696,1.919,6.137,4.808,6.137,4.808
				l2.664-3.955C209.836,232.215,203.373,225.892,194.207,219.044z"/>
		</g>
		<g>
			<path fill="#D35971" d="M194.207,219.044c0,0,2.055,3.272-0.904,7.088l-1.639-1.083L194.207,219.044z"/>
		</g>
		<g>
			<path fill="#F99680" d="M173.989,255.517c0,0,0.49,4.733,0.843,8.131s0.287,7.187,0.287,7.187l5.446-0.165
				c0,0,0.481-5.789,0.644-10.03s-0.393-7.413-0.393-7.413S177.981,255.512,173.989,255.517z"/>
		</g>
		<g>
			<path fill="#D35971" d="M180.816,253.226c0,0-1.645,3.425-6.551,4.95l-0.275-2.659L180.816,253.226z"/>
		</g>
		<g>
			<path fill="#84B1BE" d="M132.962,213.532c0,0,10.534-5.026,19.473-5.531c8.939-0.505,14.856-1.907,19.07-0.933
				s21.572,9.04,22.702,11.977c1.13,2.937-1.697,5.902-2.543,6.005s-0.464-0.157-0.464-0.157s-5.265-0.335-12.588-3.921
				c-7.323-3.586-15.716,2.26-15.716,2.26s12.32,10.164,14.917,15.228c2.597,5.065,3.903,11.124,3.003,14.766
				c0,0-1.675,2.679-6.827,2.291c0,0-2.51,0.304-2.984-5.221c-0.474-5.525-2.984-7.682-4.463-8.601
				c-1.479-0.919-18.353-8.167-25.53-13.545C133.836,222.77,132.962,213.532,132.962,213.532z"/>
		</g>
		<g>
			<path fill="#343A3A" d="M207.172,236.17l8.755,8.073l11.348-13.232c0,0-2.537-2.693-6.277-0.602
				c-3.74,2.091-6.147,7.203-11.162,1.805L207.172,236.17z"/>
		</g>
		<g>
			<path fill="#343A3A" d="M175.119,270.834l0.269,14.135l18.393-2.159c0,0-0.879-3.078-4.505-3.578
				c-3.626-0.5-9.289-0.007-8.711-8.562L175.119,270.834z"/>
		</g>
		<g>
			<path fill="#ED5526" d="M139.741,162.339c0,0,0.509,5.079-9.746,4.076c0,0-0.607-0.098,2.469-3.05
				C135.541,160.412,139.741,162.339,139.741,162.339z"/>
		</g>
		<g>
			<path fill="#ED5526" d="M139.741,162.339c0,0,0.835,3.019-3.305,4.089c0,0,3.156,0.313,3.95-3.788l-0.384-0.622L139.741,162.339z
				"/>
		</g>
		<g>
			<path fill="#D35971" d="M130.637,167.307l2.712,1.549C133.35,168.856,132.92,166.456,130.637,167.307z"/>
		</g>
		<g>
			<path fill="#D35971" d="M138.872,173.578c-2,0.008-4.836-2.473-4.836-2.473s0.675,3.513,2.843,4.616c0,0,0.512-0.983,0.855-1.49
				C138.077,173.724,138.872,173.578,138.872,173.578z"/>
		</g>
		<g>
			
				<ellipse transform="matrix(0.1331 -0.9911 0.9911 0.1331 -46.9112 282.7515)" fill="#D35971" cx="138.168" cy="168.191" rx="0.612" ry="0.897"/>
		</g>
		<g>
			
				<ellipse transform="matrix(0.1331 -0.9911 0.9911 0.1331 -43.7343 286.9255)" fill="#D35971" cx="142.143" cy="168.462" rx="0.612" ry="0.897"/>
		</g>
		<g>
			<path fill="#D35971" d="M155.364,180.572l1.521,6.06l1.588-0.412C158.474,186.221,156.814,184.503,155.364,180.572z"/>
		</g>
		<g>
			<path fill="#D35971" d="M111.342,171.958c0,0-1.36,3.666-2.862,5.438l1.616,0.721L111.342,171.958z"/>
		</g>
		<g>
			<path fill="#568A96" d="M162.896,223.232c-5.412,2.959-11.6,3.841-11.6,3.841s5.116,5.104,16.937,0.816L162.896,223.232z"/>
		</g>
		<g>
			<path fill="#81813B" d="M123.286,190.101c0,0,0.674-2.731-0.947-5.015c-1.621-2.284-6.313-1.469-6.313-1.469
				S119.709,185.567,123.286,190.101z"/>
		</g>
		<g>
			<path fill="#81813B" d="M144.4,189.094l0.457-3.447c0,0,3.586,0.828,4.351,3.769C149.208,189.415,146.314,189.347,144.4,189.094z
				"/>
		</g>
		<g>
			<path fill="#FFE9DE" d="M128.374,175.47c0,0,0.234,3.271,3.166,4.34c2.932,1.069,5.239-1.328,5.72-2.383
				c0,0-0.834-0.187-1.083-0.238c0,0-1.358,1.935-3.614,1.678c-2.255-0.257-3.048-3.157-3.048-3.157L128.374,175.47z"/>
		</g>
	</g>
</g>
</svg>
