<?xml version="1.0" encoding="utf-8"?>
<!-- Generator: Adobe Illustrator 25.1.0, SVG Export Plug-In . SVG Version: 6.00 Build 0)  -->
<svg version="1.1" id="Tirui" xmlns="http://www.w3.org/2000/svg" xmlns:xlink="http://www.w3.org/1999/xlink" x="0px" y="0px"
	 viewBox="0 0 600 400" enable-background="new 0 0 600 400" xml:space="preserve">
<g id="Data_Analytics">
	<g id="background_3_">
		<g>
			<circle fill="#FFF8EE" cx="144.938" cy="155.896" r="96.974"/>
		</g>
		<g>
			<circle fill="#FFF8EE" cx="376.039" cy="159.721" r="117"/>
		</g>
		<g>
			<ellipse fill="#A9CDD3" cx="322.444" cy="358.841" rx="212.27" ry="5.661"/>
		</g>
		<g>
			<circle fill="#FFF8EE" cx="241.912" cy="280.942" r="50.366"/>
		</g>
		<g>
			<circle fill="#FFF8EE" cx="138.585" cy="284.672" r="23.371"/>
		</g>
	</g>
	<g id="data">
		<g>
			<path fill="#474F50" d="M116.651,205.131c-0.088,0-0.178-0.023-0.259-0.072l-0.948-0.576c-0.236-0.144-0.311-0.451-0.167-0.688
				c0.144-0.234,0.451-0.311,0.687-0.168l0.948,0.576c0.236,0.144,0.311,0.451,0.167,0.688
				C116.984,205.045,116.82,205.131,116.651,205.131z M113.994,203.517c-0.088,0-0.178-0.023-0.259-0.072l-1.709-1.039
				c-0.236-0.144-0.311-0.451-0.167-0.688c0.143-0.235,0.452-0.311,0.687-0.168l1.709,1.039c0.236,0.144,0.311,0.451,0.167,0.688
				C114.327,203.431,114.163,203.517,113.994,203.517z M110.575,201.44c-0.088,0-0.178-0.023-0.259-0.072l-1.709-1.038
				c-0.236-0.144-0.311-0.451-0.167-0.688c0.143-0.235,0.449-0.31,0.687-0.168l1.709,1.038c0.236,0.144,0.311,0.451,0.167,0.688
				C110.909,201.354,110.744,201.44,110.575,201.44z M107.156,199.363c-0.088,0-0.178-0.023-0.259-0.072l-1.709-1.038
				c-0.236-0.144-0.311-0.451-0.167-0.688c0.144-0.235,0.45-0.31,0.687-0.168l1.709,1.038c0.236,0.144,0.311,0.451,0.167,0.688
				C107.49,199.277,107.325,199.363,107.156,199.363z M103.722,197.283c-0.081,0-0.163-0.021-0.24-0.068
				c-0.151-0.09-0.286-0.278-0.286-0.454v-1.95c0-0.276,0.224-0.5,0.5-0.5s0.5,0.224,0.5,0.5v1.852
				c0.031,0.122,0.018,0.255-0.05,0.368C104.051,197.189,103.889,197.283,103.722,197.283z M103.696,193.31
				c-0.276,0-0.5-0.224-0.5-0.5v-2c0-0.276,0.224-0.5,0.5-0.5s0.5,0.224,0.5,0.5v2C104.196,193.086,103.972,193.31,103.696,193.31z
				 M103.696,189.31c-0.276,0-0.5-0.224-0.5-0.5v-2c0-0.276,0.224-0.5,0.5-0.5s0.5,0.224,0.5,0.5v2
				C104.196,189.086,103.972,189.31,103.696,189.31z M103.696,185.31c-0.276,0-0.5-0.224-0.5-0.5v-2c0-0.276,0.224-0.5,0.5-0.5
				s0.5,0.224,0.5,0.5v2C104.196,185.086,103.972,185.31,103.696,185.31z M103.696,181.31c-0.276,0-0.5-0.224-0.5-0.5v-2
				c0-0.276,0.224-0.5,0.5-0.5s0.5,0.224,0.5,0.5v2C104.196,181.086,103.972,181.31,103.696,181.31z M103.696,177.31
				c-0.276,0-0.5-0.224-0.5-0.5v-2c0-0.276,0.224-0.5,0.5-0.5s0.5,0.224,0.5,0.5v2C104.196,177.086,103.972,177.31,103.696,177.31z
				 M103.696,173.31c-0.276,0-0.5-0.224-0.5-0.5v-2c0-0.276,0.224-0.5,0.5-0.5s0.5,0.224,0.5,0.5v2
				C104.196,173.086,103.972,173.31,103.696,173.31z M103.696,169.31c-0.276,0-0.5-0.224-0.5-0.5v-2c0-0.276,0.224-0.5,0.5-0.5
				s0.5,0.224,0.5,0.5v2C104.196,169.086,103.972,169.31,103.696,169.31z M103.696,165.31c-0.276,0-0.5-0.224-0.5-0.5v-2
				c0-0.276,0.224-0.5,0.5-0.5s0.5,0.224,0.5,0.5v2C104.196,165.086,103.972,165.31,103.696,165.31z M103.696,161.31
				c-0.276,0-0.5-0.224-0.5-0.5v-2c0-0.276,0.224-0.5,0.5-0.5s0.5,0.224,0.5,0.5v2C104.196,161.086,103.972,161.31,103.696,161.31z
				 M103.696,157.31c-0.276,0-0.5-0.224-0.5-0.5v-2c0-0.276,0.224-0.5,0.5-0.5s0.5,0.224,0.5,0.5v2
				C104.196,157.086,103.972,157.31,103.696,157.31z M103.696,153.31c-0.276,0-0.5-0.224-0.5-0.5v-2c0-0.276,0.224-0.5,0.5-0.5
				s0.5,0.224,0.5,0.5v2C104.196,153.086,103.972,153.31,103.696,153.31z M103.696,149.31c-0.276,0-0.5-0.224-0.5-0.5v-2
				c0-0.276,0.224-0.5,0.5-0.5s0.5,0.224,0.5,0.5v2C104.196,149.086,103.972,149.31,103.696,149.31z M103.696,145.31
				c-0.276,0-0.5-0.224-0.5-0.5v-2c0-0.276,0.224-0.5,0.5-0.5s0.5,0.224,0.5,0.5v2C104.196,145.086,103.972,145.31,103.696,145.31z
				 M103.696,141.31c-0.276,0-0.5-0.224-0.5-0.5v-2c0-0.276,0.224-0.5,0.5-0.5s0.5,0.224,0.5,0.5v2
				C104.196,141.086,103.972,141.31,103.696,141.31z M103.696,137.31c-0.276,0-0.5-0.224-0.5-0.5v-2c0-0.276,0.224-0.5,0.5-0.5
				s0.5,0.224,0.5,0.5v2C104.196,137.086,103.972,137.31,103.696,137.31z M103.696,133.31c-0.276,0-0.5-0.224-0.5-0.5v-2
				c0-0.276,0.224-0.5,0.5-0.5s0.5,0.224,0.5,0.5v2C104.196,133.086,103.972,133.31,103.696,133.31z M103.696,129.31
				c-0.276,0-0.5-0.224-0.5-0.5v-2c0-0.276,0.224-0.5,0.5-0.5s0.5,0.224,0.5,0.5v2C104.196,129.086,103.972,129.31,103.696,129.31z
				 M103.696,125.31c-0.276,0-0.5-0.224-0.5-0.5v-2c0-0.276,0.224-0.5,0.5-0.5s0.5,0.224,0.5,0.5v2
				C104.196,125.086,103.972,125.31,103.696,125.31z M103.696,121.31c-0.276,0-0.5-0.224-0.5-0.5v-2c0-0.276,0.224-0.5,0.5-0.5
				s0.5,0.224,0.5,0.5v2C104.196,121.086,103.972,121.31,103.696,121.31z M103.696,117.31c-0.276,0-0.5-0.224-0.5-0.5v-2
				c0-0.276,0.224-0.5,0.5-0.5s0.5,0.224,0.5,0.5v2C104.196,117.086,103.972,117.31,103.696,117.31z"/>
		</g>
		<g>
			<path fill="#474F50" d="M213.41,104.527c-0.276,0-0.5-0.224-0.5-0.5v-2c0-0.276,0.224-0.5,0.5-0.5s0.5,0.224,0.5,0.5v2
				C213.91,104.303,213.687,104.527,213.41,104.527z M213.41,100.527c-0.276,0-0.5-0.224-0.5-0.5v-2c0-0.276,0.224-0.5,0.5-0.5
				s0.5,0.224,0.5,0.5v2C213.91,100.303,213.687,100.527,213.41,100.527z M213.41,96.527c-0.276,0-0.5-0.224-0.5-0.5v-2
				c0-0.276,0.224-0.5,0.5-0.5s0.5,0.224,0.5,0.5v2C213.91,96.303,213.687,96.527,213.41,96.527z M213.41,92.527
				c-0.276,0-0.5-0.224-0.5-0.5v-2c0-0.276,0.224-0.5,0.5-0.5s0.5,0.224,0.5,0.5v2C213.91,92.303,213.687,92.527,213.41,92.527z
				 M213.41,88.527c-0.276,0-0.5-0.224-0.5-0.5v-2c0-0.276,0.224-0.5,0.5-0.5s0.5,0.224,0.5,0.5v2
				C213.91,88.303,213.687,88.527,213.41,88.527z M213.41,84.527c-0.276,0-0.5-0.224-0.5-0.5v-2c0-0.276,0.224-0.5,0.5-0.5
				s0.5,0.224,0.5,0.5v2C213.91,84.303,213.687,84.527,213.41,84.527z M213.41,80.527c-0.276,0-0.5-0.224-0.5-0.5v-2
				c0-0.276,0.224-0.5,0.5-0.5s0.5,0.224,0.5,0.5v2C213.91,80.303,213.687,80.527,213.41,80.527z M213.41,76.527
				c-0.276,0-0.5-0.224-0.5-0.5v-2c0-0.276,0.224-0.5,0.5-0.5s0.5,0.224,0.5,0.5v2C213.91,76.303,213.687,76.527,213.41,76.527z
				 M213.41,72.527c-0.276,0-0.5-0.224-0.5-0.5v-2c0-0.276,0.224-0.5,0.5-0.5s0.5,0.224,0.5,0.5v2
				C213.91,72.303,213.687,72.527,213.41,72.527z M213.41,68.527c-0.276,0-0.5-0.224-0.5-0.5v-2c0-0.276,0.224-0.5,0.5-0.5
				s0.5,0.224,0.5,0.5v2C213.91,68.303,213.687,68.527,213.41,68.527z M213.41,64.527c-0.276,0-0.5-0.224-0.5-0.5v-2
				c0-0.276,0.224-0.5,0.5-0.5s0.5,0.224,0.5,0.5v2C213.91,64.303,213.687,64.527,213.41,64.527z"/>
		</g>
		<g>
			<path fill="#474F50" d="M282.089,130.443c-0.276,0-0.5-0.224-0.5-0.5v-2c0-0.276,0.224-0.5,0.5-0.5s0.5,0.224,0.5,0.5v2
				C282.589,130.219,282.365,130.443,282.089,130.443z M282.089,126.443c-0.276,0-0.5-0.224-0.5-0.5v-2c0-0.276,0.224-0.5,0.5-0.5
				s0.5,0.224,0.5,0.5v2C282.589,126.219,282.365,126.443,282.089,126.443z M282.089,122.443c-0.276,0-0.5-0.224-0.5-0.5v-2
				c0-0.276,0.224-0.5,0.5-0.5s0.5,0.224,0.5,0.5v2C282.589,122.219,282.365,122.443,282.089,122.443z M282.089,118.443
				c-0.276,0-0.5-0.224-0.5-0.5v-2c0-0.276,0.224-0.5,0.5-0.5s0.5,0.224,0.5,0.5v2C282.589,118.219,282.365,118.443,282.089,118.443
				z M282.089,114.443c-0.276,0-0.5-0.224-0.5-0.5v-2c0-0.276,0.224-0.5,0.5-0.5s0.5,0.224,0.5,0.5v2
				C282.589,114.219,282.365,114.443,282.089,114.443z M282.089,110.443c-0.276,0-0.5-0.224-0.5-0.5v-2c0-0.276,0.224-0.5,0.5-0.5
				s0.5,0.224,0.5,0.5v2C282.589,110.219,282.365,110.443,282.089,110.443z M282.089,106.443c-0.276,0-0.5-0.224-0.5-0.5v-2
				c0-0.276,0.224-0.5,0.5-0.5s0.5,0.224,0.5,0.5v2C282.589,106.219,282.365,106.443,282.089,106.443z M282.089,102.443
				c-0.276,0-0.5-0.224-0.5-0.5v-2c0-0.276,0.224-0.5,0.5-0.5s0.5,0.224,0.5,0.5v2C282.589,102.219,282.365,102.443,282.089,102.443
				z M282.089,98.443c-0.276,0-0.5-0.224-0.5-0.5v-2c0-0.276,0.224-0.5,0.5-0.5s0.5,0.224,0.5,0.5v2
				C282.589,98.219,282.365,98.443,282.089,98.443z M282.089,94.443c-0.276,0-0.5-0.224-0.5-0.5v-2c0-0.276,0.224-0.5,0.5-0.5
				s0.5,0.224,0.5,0.5v2C282.589,94.219,282.365,94.443,282.089,94.443z M282.089,90.443c-0.276,0-0.5-0.224-0.5-0.5v-2
				c0-0.276,0.224-0.5,0.5-0.5s0.5,0.224,0.5,0.5v2C282.589,90.219,282.365,90.443,282.089,90.443z"/>
		</g>
		<g>
			<polygon fill="#A3CED8" points="133.242,136.961 152.528,148.532 171.385,137.818 210.813,159.675 288.599,115.104 
				269.313,103.318 210.921,137.604 191.956,126.032 210.921,115.104 230.68,126.002 250.061,114.622 210.921,92.604 
				190.456,103.747 172.835,93.939 153.492,104.604 171.385,115.104 			"/>
		</g>
		<g>
			<polygon fill="#4F99C6" points="210.813,159.675 210.813,228.461 230.528,216.675 230.528,195.889 250.885,183.247 
				250.885,205.104 288.599,182.604 288.599,159.675 270.599,169.318 270.599,149.282 288.599,138.032 288.599,115.104 			"/>
		</g>
		<g>
			<polygon fill="#A3CED8" points="288.599,159.675 270.599,149.282 270.599,169.318 			"/>
		</g>
		<g>
			<polygon fill="#3C5E93" points="171.385,137.818 171.385,160.747 191.528,171.782 191.528,194.389 152.528,172.747 
				152.528,194.389 210.813,228.461 210.813,159.675 			"/>
		</g>
		<g>
			<polygon fill="#3C5E93" points="133.242,136.961 133.242,161.389 152.528,172.747 152.528,148.532 			"/>
		</g>
		<g>
			<polygon fill="#4F99C6" points="152.528,172.747 171.385,160.747 171.385,137.818 152.528,148.532 			"/>
		</g>
		<g>
			<polygon fill="#3C5E93" points="153.492,104.604 153.492,125.357 171.385,115.104 			"/>
		</g>
		<g>
			<polygon fill="#3C5E93" points="210.921,115.104 210.921,137.604 230.68,126.002 			"/>
		</g>
		<g>
			<polygon fill="#A3CED8" points="191.528,171.782 171.385,183.211 171.385,160.747 152.528,172.747 191.528,194.389 			"/>
		</g>
		<g>
			<polygon fill="#2C466D" points="210.921,115.104 210.921,137.604 191.956,126.032 			"/>
		</g>
		<g>
			<polygon fill="#2C466D" points="171.385,160.747 171.385,183.211 191.528,171.782 			"/>
		</g>
		<g>
			<g>
				<polygon fill="#A3CED8" points="269.849,224.604 289.885,236.068 308.206,224.604 289.992,213.447 				"/>
			</g>
			<g>
				<polygon fill="#4F99C6" points="289.885,236.068 289.885,259.05 308.206,247.559 308.206,224.604 				"/>
			</g>
			<g>
				<polygon fill="#3C5E93" points="269.849,224.604 269.849,247.211 289.885,259.05 289.885,236.068 				"/>
			</g>
		</g>
		<g>
			<g>
				<polygon fill="#A3CED8" points="308.206,170.457 328.242,181.921 346.563,170.457 328.349,159.3 				"/>
			</g>
			<g>
				<polygon fill="#4F99C6" points="328.242,181.921 328.242,204.903 346.563,193.412 346.563,170.457 				"/>
			</g>
			<g>
				<polygon fill="#3C5E93" points="308.206,170.457 308.206,193.064 328.242,204.903 328.242,181.921 				"/>
			</g>
		</g>
		<g>
			<g>
				<polygon fill="#A3CED8" points="267.183,74.785 287.219,86.249 305.54,74.785 287.326,63.628 				"/>
			</g>
			<g>
				<polygon fill="#4F99C6" points="287.219,86.249 287.219,109.231 305.54,97.74 305.54,74.785 				"/>
			</g>
			<g>
				<polygon fill="#3C5E93" points="267.183,74.785 267.183,97.392 287.219,109.231 287.219,86.249 				"/>
			</g>
		</g>
		<g>
			<g>
				<polygon fill="#A3CED8" points="195.063,47.457 215.099,58.922 233.421,47.457 215.206,36.301 				"/>
			</g>
			<g>
				<polygon fill="#4F99C6" points="215.099,58.922 215.099,81.904 233.421,70.413 233.421,47.457 				"/>
			</g>
			<g>
				<polygon fill="#3C5E93" points="195.063,47.457 195.063,70.065 215.099,81.904 215.099,58.922 				"/>
			</g>
		</g>
		<g>
			<g>
				<polygon fill="#A3CED8" points="88.362,97.586 108.398,109.051 126.719,97.586 108.505,86.43 				"/>
			</g>
			<g>
				<polygon fill="#4F99C6" points="108.398,109.051 108.398,132.033 126.719,120.542 126.719,97.586 				"/>
			</g>
			<g>
				<polygon fill="#3C5E93" points="88.362,97.586 88.362,120.194 108.398,132.033 108.398,109.051 				"/>
			</g>
		</g>
		<g>
			<g>
				<polygon fill="#A3CED8" points="111.706,201.802 131.742,213.266 150.063,201.802 131.849,190.645 				"/>
			</g>
			<g>
				<polygon fill="#4F99C6" points="131.742,213.266 131.742,236.249 150.063,224.757 150.063,201.802 				"/>
			</g>
			<g>
				<polygon fill="#3C5E93" points="111.706,201.802 111.706,224.409 131.742,236.249 131.742,213.266 				"/>
			</g>
		</g>
		<g>
			<path fill="#474F50" d="M172.884,238.819c-0.088,0-0.176-0.023-0.257-0.071l-1.121-0.674c-0.236-0.143-0.313-0.449-0.171-0.687
				c0.142-0.237,0.449-0.312,0.687-0.171l1.121,0.674c0.236,0.143,0.313,0.449,0.171,0.687
				C173.22,238.733,173.054,238.819,172.884,238.819z M170.049,237.116c-0.088,0-0.176-0.023-0.257-0.071l-1.714-1.03
				c-0.237-0.143-0.313-0.449-0.171-0.687c0.142-0.237,0.449-0.312,0.686-0.171l1.714,1.03c0.237,0.143,0.313,0.449,0.171,0.687
				C170.384,237.03,170.219,237.116,170.049,237.116z M166.62,235.056c-0.088,0-0.176-0.023-0.257-0.071l-1.714-1.03
				c-0.237-0.143-0.313-0.449-0.171-0.687c0.143-0.237,0.449-0.312,0.686-0.171l1.714,1.03c0.237,0.143,0.313,0.449,0.171,0.687
				C166.955,234.97,166.79,235.056,166.62,235.056z M163.191,232.996c-0.088,0-0.176-0.023-0.257-0.071l-1.715-1.03
				c-0.237-0.143-0.313-0.449-0.171-0.687c0.142-0.237,0.449-0.312,0.686-0.171l1.715,1.03c0.237,0.143,0.313,0.449,0.171,0.687
				C163.526,232.91,163.361,232.996,163.191,232.996z M159.762,230.937c-0.088,0-0.176-0.023-0.257-0.071l-1.714-1.03
				c-0.237-0.143-0.313-0.449-0.171-0.687c0.142-0.237,0.449-0.312,0.686-0.171l1.714,1.03c0.237,0.143,0.313,0.449,0.171,0.687
				C160.097,230.851,159.932,230.937,159.762,230.937z M156.333,228.877c-0.088,0-0.176-0.023-0.257-0.071l-1.715-1.03
				c-0.237-0.143-0.313-0.449-0.171-0.687s0.449-0.312,0.686-0.171l1.715,1.03c0.237,0.143,0.313,0.449,0.171,0.687
				C156.668,228.791,156.503,228.877,156.333,228.877z M152.904,226.818c-0.088,0-0.176-0.023-0.257-0.071l-1.714-1.03
				c-0.237-0.143-0.313-0.449-0.171-0.687s0.449-0.312,0.686-0.171l1.714,1.03c0.237,0.143,0.313,0.449,0.171,0.687
				C153.239,226.732,153.074,226.818,152.904,226.818z M149.475,224.758c-0.088,0-0.176-0.023-0.257-0.071l-1.714-1.03
				c-0.237-0.143-0.313-0.449-0.171-0.687c0.142-0.237,0.449-0.312,0.686-0.171l1.714,1.03c0.237,0.143,0.313,0.449,0.171,0.687
				C149.81,224.672,149.645,224.758,149.475,224.758z M146.046,222.699c-0.088,0-0.176-0.023-0.257-0.071l-1.714-1.03
				c-0.237-0.143-0.313-0.449-0.171-0.687c0.142-0.237,0.449-0.312,0.686-0.171l1.714,1.03c0.237,0.143,0.313,0.449,0.171,0.687
				C146.381,222.613,146.216,222.699,146.046,222.699z M142.617,220.639c-0.088,0-0.176-0.023-0.257-0.071l-1.714-1.03
				c-0.237-0.143-0.313-0.449-0.171-0.687s0.449-0.312,0.686-0.171l1.714,1.03c0.237,0.143,0.313,0.449,0.171,0.687
				C142.952,220.553,142.787,220.639,142.617,220.639z"/>
		</g>
		<g>
			<g>
				<polygon fill="#A3CED8" points="152.849,226.855 172.885,238.319 191.206,226.855 172.992,215.698 				"/>
			</g>
			<g>
				<polygon fill="#4F99C6" points="172.885,238.319 172.885,261.301 191.206,249.81 191.206,226.855 				"/>
			</g>
			<g>
				<polygon fill="#3C5E93" points="152.849,226.855 152.849,249.462 172.885,261.301 172.885,238.319 				"/>
			</g>
		</g>
		<g>
			<polygon fill="#3C5E93" points="250.885,205.104 230.528,195.889 250.885,183.247 			"/>
		</g>
		<g>
			<path fill="#474F50" d="M232.267,273.527c-0.083,0-0.167-0.021-0.242-0.062l-1.618-0.896c-0.242-0.134-0.329-0.438-0.195-0.68
				c0.134-0.242,0.439-0.327,0.68-0.195l1.377,0.763c0.193-0.048,0.411,0.023,0.534,0.2c0.157,0.228,0.101,0.539-0.126,0.696
				l-0.124,0.086C232.467,273.496,232.367,273.527,232.267,273.527z M234.034,272.3c-0.158,0-0.314-0.075-0.411-0.215
				c-0.158-0.227-0.102-0.538,0.125-0.696l1.643-1.141c0.228-0.155,0.539-0.101,0.696,0.126c0.158,0.227,0.102,0.538-0.125,0.696
				l-1.643,1.141C234.232,272.271,234.132,272.3,234.034,272.3z M228.9,271.66c-0.082,0-0.165-0.021-0.242-0.062l-1.749-0.97
				c-0.241-0.134-0.329-0.438-0.195-0.68c0.134-0.242,0.438-0.327,0.68-0.195l1.749,0.97c0.241,0.134,0.329,0.438,0.195,0.68
				C229.247,271.568,229.076,271.66,228.9,271.66z M237.32,270.019c-0.158,0-0.314-0.075-0.411-0.215
				c-0.158-0.227-0.102-0.538,0.125-0.696l1.643-1.141c0.227-0.155,0.538-0.1,0.696,0.126c0.158,0.227,0.102,0.538-0.125,0.696
				l-1.643,1.141C237.518,269.99,237.418,270.019,237.32,270.019z M225.401,269.721c-0.082,0-0.165-0.021-0.242-0.062l-1.749-0.969
				c-0.242-0.134-0.329-0.438-0.195-0.68c0.134-0.242,0.439-0.327,0.68-0.195l1.749,0.969c0.242,0.134,0.329,0.438,0.195,0.68
				C225.748,269.628,225.577,269.721,225.401,269.721z M221.903,267.783c-0.082,0-0.165-0.021-0.242-0.062l-1.749-0.97
				c-0.241-0.134-0.329-0.438-0.195-0.68c0.134-0.242,0.438-0.327,0.68-0.195l1.749,0.97c0.241,0.134,0.329,0.438,0.195,0.68
				C222.25,267.69,222.079,267.783,221.903,267.783z M240.605,267.738c-0.158,0-0.314-0.075-0.411-0.215
				c-0.158-0.227-0.102-0.538,0.125-0.696l1.643-1.141c0.227-0.155,0.539-0.101,0.696,0.126c0.158,0.227,0.102,0.538-0.125,0.696
				l-1.643,1.141C240.803,267.708,240.704,267.738,240.605,267.738z M218.404,265.843c-0.082,0-0.165-0.021-0.242-0.062l-1.749-0.97
				c-0.241-0.134-0.329-0.438-0.195-0.68c0.134-0.242,0.437-0.328,0.68-0.195l1.749,0.97c0.241,0.134,0.329,0.438,0.195,0.68
				C218.751,265.75,218.58,265.843,218.404,265.843z M243.891,265.455c-0.158,0-0.314-0.075-0.411-0.215
				c-0.158-0.227-0.102-0.538,0.125-0.696l1.643-1.141c0.227-0.155,0.538-0.1,0.696,0.126c0.158,0.227,0.102,0.538-0.125,0.696
				l-1.643,1.141C244.089,265.426,243.989,265.455,243.891,265.455z M214.906,263.904c-0.082,0-0.165-0.021-0.242-0.062l-1.749-0.97
				c-0.241-0.134-0.329-0.438-0.195-0.68c0.133-0.242,0.438-0.326,0.68-0.195l1.749,0.97c0.241,0.134,0.329,0.438,0.195,0.68
				C215.252,263.811,215.082,263.904,214.906,263.904z M247.177,263.174c-0.158,0-0.314-0.075-0.411-0.215
				c-0.158-0.227-0.102-0.538,0.125-0.696l1.643-1.141c0.228-0.155,0.539-0.101,0.696,0.126c0.158,0.227,0.102,0.538-0.125,0.696
				l-1.643,1.141C247.375,263.145,247.275,263.174,247.177,263.174z M211.407,261.965c-0.082,0-0.165-0.021-0.242-0.062l-1.749-0.97
				c-0.241-0.134-0.329-0.438-0.195-0.68c0.134-0.241,0.438-0.328,0.68-0.195l1.749,0.97c0.241,0.134,0.329,0.438,0.195,0.68
				C211.754,261.872,211.583,261.965,211.407,261.965z M250.462,260.893c-0.158,0-0.314-0.075-0.411-0.215
				c-0.158-0.227-0.102-0.538,0.125-0.696l1.643-1.141c0.227-0.156,0.539-0.101,0.696,0.126c0.158,0.227,0.102,0.538-0.125,0.696
				l-1.643,1.141C250.66,260.864,250.561,260.893,250.462,260.893z M207.909,260.026c-0.082,0-0.165-0.021-0.242-0.062l-1.749-0.97
				c-0.241-0.134-0.329-0.438-0.195-0.68c0.134-0.242,0.438-0.326,0.68-0.195l1.749,0.97c0.241,0.134,0.329,0.438,0.195,0.68
				C208.255,259.933,208.084,260.026,207.909,260.026z M253.748,258.612c-0.158,0-0.314-0.075-0.411-0.215
				c-0.158-0.227-0.102-0.538,0.125-0.696l1.643-1.141c0.227-0.155,0.538-0.1,0.696,0.126c0.158,0.227,0.102,0.538-0.125,0.696
				l-1.643,1.141C253.946,258.582,253.846,258.612,253.748,258.612z M204.41,258.086c-0.082,0-0.165-0.021-0.242-0.062l-1.749-0.97
				c-0.241-0.134-0.329-0.438-0.195-0.68c0.134-0.242,0.438-0.327,0.68-0.195l1.749,0.97c0.241,0.134,0.329,0.438,0.195,0.68
				C204.757,257.993,204.586,258.086,204.41,258.086z M257.033,256.33c-0.158,0-0.314-0.075-0.411-0.215
				c-0.158-0.227-0.102-0.538,0.125-0.696l1.643-1.141c0.227-0.155,0.538-0.101,0.696,0.126s0.102,0.538-0.125,0.696l-1.643,1.141
				C257.231,256.301,257.131,256.33,257.033,256.33z M200.912,256.147c-0.082,0-0.165-0.021-0.242-0.062l-1.749-0.969
				c-0.242-0.134-0.329-0.438-0.195-0.68c0.134-0.242,0.438-0.326,0.68-0.195l1.749,0.969c0.242,0.134,0.329,0.438,0.195,0.68
				C201.258,256.054,201.087,256.147,200.912,256.147z M197.413,254.208c-0.082,0-0.165-0.021-0.242-0.062l-1.749-0.97
				c-0.241-0.134-0.329-0.438-0.195-0.68c0.134-0.242,0.438-0.327,0.68-0.195l1.749,0.97c0.241,0.134,0.329,0.438,0.195,0.68
				C197.76,254.116,197.589,254.208,197.413,254.208z M260.319,254.049c-0.158,0-0.314-0.075-0.411-0.215
				c-0.158-0.227-0.102-0.538,0.125-0.696l1.643-1.141c0.228-0.155,0.539-0.101,0.696,0.126c0.158,0.227,0.102,0.538-0.125,0.696
				l-1.643,1.141C260.517,254.02,260.417,254.049,260.319,254.049z M193.915,252.269c-0.082,0-0.165-0.021-0.242-0.062l-1.749-0.97
				c-0.241-0.134-0.329-0.438-0.195-0.68c0.134-0.242,0.438-0.327,0.68-0.195l1.749,0.97c0.241,0.134,0.329,0.438,0.195,0.68
				C194.261,252.176,194.09,252.269,193.915,252.269z M263.604,251.768c-0.158,0-0.314-0.075-0.411-0.215
				c-0.158-0.227-0.102-0.538,0.125-0.695l1.643-1.142c0.226-0.157,0.539-0.102,0.696,0.125c0.158,0.227,0.102,0.538-0.125,0.695
				l-1.643,1.142C263.802,251.739,263.703,251.768,263.604,251.768z M190.416,250.329c-0.082,0-0.165-0.021-0.242-0.062l-1.749-0.97
				c-0.241-0.134-0.329-0.438-0.195-0.68c0.134-0.242,0.438-0.327,0.68-0.195l1.749,0.97c0.241,0.134,0.329,0.438,0.195,0.68
				C190.763,250.237,190.592,250.329,190.416,250.329z M266.89,249.486c-0.158,0-0.314-0.075-0.411-0.215
				c-0.158-0.227-0.102-0.538,0.125-0.696l1.643-1.141c0.227-0.155,0.539-0.1,0.696,0.126c0.158,0.227,0.102,0.538-0.125,0.696
				l-1.643,1.141C267.088,249.456,266.988,249.486,266.89,249.486z M186.917,248.391c-0.082,0-0.165-0.021-0.242-0.062l-1.749-0.97
				c-0.241-0.134-0.329-0.438-0.195-0.68c0.134-0.242,0.437-0.327,0.68-0.195l1.749,0.97c0.241,0.134,0.329,0.438,0.195,0.68
				C187.264,248.298,187.093,248.391,186.917,248.391z M270.176,247.204c-0.158,0-0.314-0.075-0.411-0.215
				c-0.158-0.227-0.102-0.538,0.125-0.696l1.643-1.141c0.227-0.156,0.538-0.101,0.696,0.126s0.102,0.538-0.125,0.696l-1.643,1.141
				C270.374,247.175,270.274,247.204,270.176,247.204z M183.419,246.451c-0.082,0-0.165-0.021-0.242-0.062l-1.749-0.97
				c-0.241-0.134-0.329-0.438-0.195-0.68c0.134-0.242,0.438-0.327,0.68-0.195l1.749,0.97c0.241,0.134,0.329,0.438,0.195,0.68
				C183.766,246.359,183.595,246.451,183.419,246.451z M273.461,244.923c-0.158,0-0.314-0.075-0.411-0.215
				c-0.158-0.227-0.102-0.538,0.125-0.696l1.643-1.141c0.228-0.156,0.539-0.101,0.696,0.126c0.158,0.227,0.102,0.538-0.125,0.696
				l-1.643,1.141C273.659,244.894,273.56,244.923,273.461,244.923z M276.747,242.642c-0.158,0-0.314-0.075-0.411-0.215
				c-0.158-0.227-0.102-0.538,0.125-0.696l0.454-0.315c0.228-0.155,0.539-0.101,0.696,0.126c0.158,0.227,0.102,0.538-0.125,0.696
				l-0.454,0.315C276.945,242.613,276.845,242.642,276.747,242.642z"/>
		</g>
	</g>
	<g id="woman_2_">
		<g>
			<g>
				<path fill="#D0526E" d="M434.617,364.153c-0.035,0-0.069-0.001-0.104-0.004c-0.826-0.056-1.45-0.771-1.394-1.599
					c3-43.881-13.508-84.338-13.675-84.741c-0.317-0.766,0.047-1.644,0.812-1.96c0.769-0.318,1.644,0.049,1.96,0.812
					c0.17,0.41,16.944,41.519,13.896,86.095C436.058,363.546,435.398,364.153,434.617,364.153z"/>
			</g>
			<g>
				<path fill="#D0526E" d="M468.108,315.643h-36.854c-0.828,0-1.5-0.672-1.5-1.5s0.672-1.5,1.5-1.5h36.854
					c0.828,0,1.5,0.672,1.5,1.5S468.937,315.643,468.108,315.643z"/>
			</g>
			<g>
				<path fill="#D0526E" d="M461.179,364.153c-0.042,0-0.085-0.002-0.128-0.005c-0.825-0.07-1.438-0.795-1.369-1.621l4.08-48.51
					c0.07-0.825,0.789-1.413,1.621-1.369c0.825,0.07,1.438,0.795,1.369,1.621l-4.08,48.51
					C462.605,363.561,461.95,364.153,461.179,364.153z"/>
			</g>
			<g>
				<path fill="#D0526E" d="M462.077,348.581h-27.091c-0.828,0-1.5-0.672-1.5-1.5s0.672-1.5,1.5-1.5h27.091
					c0.828,0,1.5,0.672,1.5,1.5S462.905,348.581,462.077,348.581z"/>
			</g>
		</g>
		<g>
			<g>
				<g>
					<path fill="#F99680" d="M417.172,236.984l8.06,13.104c0,0,6.689-0.11,6.415-5.318l-7.457-14.365
						C424.19,230.404,422.435,234.517,417.172,236.984z"/>
				</g>
				<g>
					<path fill="#F99680" d="M453.962,276.626c0,0,0.439,11.295,0,14.914c0,0,3.838,3.674,8.115,0.822l2.193-17.107
						C464.27,275.255,458.568,278.325,453.962,276.626z"/>
				</g>
				<g>
					<path fill="#ED5526" d="M391.536,141.381c0,0-6.988-2.067-8.084-6.088s2.266-7.749,0.439-12.574
						c-1.828-4.825-1.151-9.72,4.533-8.042c0,0,1.243-8.261,10.747-3.948c9.504,4.313,14.767,8.553,25.002,4.825
						c10.235-3.728,23.459-3.289,24.271,12.775l-45.18,15.736L391.536,141.381z"/>
				</g>
				<g>
					<path fill="#474F50" d="M421.723,182.812c-9.321,3.07-27.451,10.82-28.036,17.253c-0.585,6.433,18.898,35.529,23.485,36.919
						c0,0,5.94-1.243,7.018-6.58s-0.676-18.496-6.232-24.49c0,0,10.673-1.901,18.861,0.292s10.966,26.172,13.159,38.746
						s1.681,28.109,3.984,31.673c2.303,3.564,10.308-1.371,10.308-1.371s7.64-3.984,5.739-21.091s-1.439-20.238,0.304-31.832
						c1.743-11.593,2.205-27.677,0-35.426c-2.205-7.749-16.606-16.23-22.93-17.253S425.049,178.134,421.723,182.812z"/>
				</g>
				<g>
					<path fill="#F99680" d="M411.67,134.286c0,0-6.732-2.283-10.361-4.917c-1.67-1.212-2.825-2.362-3.606-3.263
						c1.668-0.215,2.962-1.625,2.962-3.352c0-1.875-1.52-3.395-3.395-3.395c-0.194,0-0.381,0.026-0.566,0.057
						c-0.853-2.255-3.026-3.862-5.58-3.862c-3.297,0-5.971,2.673-5.971,5.971c0,0,0.002,0.044,0.006,0.117
						c0.004,0.184,0.013,0.367,0.033,0.547c0.135,2.066,0.668,8.351,2.185,8.351c1.815,0,4.683,0.41,7.61,2.927
						s6.263,6.205,5.737,8.253c0,0,4.39,3.454,7.844,0.878C412.021,140.023,411.67,134.286,411.67,134.286z"/>
				</g>
				<g>
					<path fill="#F99680" d="M388.35,170.823v7.676c0,0-6.287-5.995-9.138-13.598c-2.851-7.603-10.381-14.256-11.916-14.329
						c-1.535-0.073-16.449,0.512-16.449,0.512s-0.146,1.681,2.193,1.681s7.237,0.219,7.237,0.219s-0.658,2.559,0,3.436
						c0.658,0.877,2.339,1.755,2.778,2.339c0.439,0.585,0.585,2.047,1.535,1.901c0.95-0.146,3.582-0.512,3.875,0.073
						c0.292,0.585,2.705,5.264,8.261,18.35s17.253,18.788,19.665,17.765s3.875-16.23,3.655-25.806L388.35,170.823z"/>
				</g>
				<g>
					<path fill="#F99680" d="M438.208,141.069l9.431-0.439c0,0,4.24,8.407,4.679,17.107c0.439,8.7-0.329,12.574-2.138,13.78
						c-1.809,1.206-4.989,1.535-6.196,1.755c-1.206,0.219-3.07,1.097-3.07,1.097s0.274,1.59,2.248,1.261
						c1.974-0.329,3.728-0.404,3.564,0.045s-2.339,1.874-3.07,3.263c-0.731,1.389-1.206,5.812-1.206,5.812s0.987,0.366,1.572-2.01
						c0.585-2.376,1.426-3.217,1.718-3.436s1.901-1.243,1.901-1.243s-1.572,2.486-1.791,3.509c-0.219,1.023-0.95,4.752-0.95,4.752
						s1.133,0.183,1.572-1.206c0.439-1.389,0.731-2.412,0.987-2.997c0.256-0.585,2.084-2.705,2.084-2.705s-0.621,2.778-0.695,3.619
						c-0.073,0.841-0.439,4.13-0.439,4.13s1.133,0.11,1.389-1.243c0.256-1.352,0.585-2.376,0.731-3.034
						c0.146-0.658,1.097-2.157,1.097-2.157s-0.256,2.851-0.329,3.692c-0.073,0.841,0.292,3.436,0.292,3.436s0.643,0.256,0.852-1.023
						c0.208-1.279,0.245-3.034,0.83-4.313c0.585-1.279,4.788-4.057,5.702-5.52c0.914-1.462-0.146-3.034,0-5.995
						c0.146-2.961,2.705-10.125,2.12-22.919c-0.585-12.794-4.459-18.861-5.556-19.373c-1.097-0.512-14.621-0.512-17.984,0
						L438.208,141.069z"/>
				</g>
				<g>
					<path fill="#E53362" d="M400.687,140.615c0,0-10.327-2.214-13.068,4.914c-2.741,7.128,0.731,25.295,0.731,25.295l11.697,0.219
						l0.022-5.995c0,0,1.367,4.277,5.534,5.154c4.167,0.877,14.365,5.593,16.12,12.611c0,0,7.128-0.329,12.282-4.386
						c5.154-4.057,9.311-8.933,13.378-8.773c0,0-3.619-2.741-8.224-4.715s-8.224-7.786-8.992-11.405s-0.877-7.128,0.329-8.334
						c1.206-1.206,5.702-3.345,7.841-3.345l-0.786-13.141c0,0-17.472-0.183-21.475,1.627c-4.003,1.809-5.56,3.531-5.56,3.531
						S405.147,145.68,400.687,140.615z"/>
				</g>
				<g>
					<path fill="#ED5526" d="M388.448,116.189c0,0,4.061,6.972,10.992,3.955c6.931-3.017,0.049-0.413,0.049-0.413
						s-4.085-4.432-5.986-4.688c-1.901-0.256-7.128,0.914-7.128,0.914s-1.755,3.217-1.791,4.715s0.682,2.52,0.682,2.52
						S388.436,119.784,388.448,116.189z"/>
				</g>
				<g>
					<path fill="#F0814A" d="M388.448,116.189c0,0,1.309,3.103,4.681,4.474c0,0-2.479-0.357-4.694-4.113L388.448,116.189z"/>
				</g>
				<g>
					<path fill="#474F50" d="M431.647,244.77l12.19,17.582l-25.88,16.741c0,0-1.974-3.363,1.243-8.334
						c3.217-4.971,10.223-10.931,5.514-21.512C424.714,249.247,429.253,249.997,431.647,244.77z"/>
				</g>
				<g>
					<path fill="#474F50" d="M462.077,292.362v20.287h-27.415c0,0-0.877-4.715,4.935-6.141s12.501-3.619,14.365-14.968
						C453.962,291.539,459.884,294.007,462.077,292.362z"/>
				</g>
				<g>
					<polygon fill="#FFE9DE" points="437.55,128.714 435.54,128.714 436.251,142.247 438.336,141.855 					"/>
				</g>
				<g>
					<polygon fill="#FFE9DE" points="388.35,170.823 388.35,172.577 400.068,173.126 400.047,171.042 					"/>
				</g>
				<g>
					<path fill="#D35971" d="M397.634,124.419c0,0-1.042-3.546,1.956-2.65L397.634,124.419z"/>
				</g>
				<g>
					<ellipse fill="#D35971" cx="391.763" cy="124.931" rx="1.366" ry="0.859"/>
				</g>
				<g>
					<ellipse fill="#D35971" cx="387.018" cy="125.234" rx="0.883" ry="0.555"/>
				</g>
				<g>
					<path fill="#D35971" d="M388.35,172.577c0,0,4.609,6.816,11.625,4.907l0.093-4.359L388.35,172.577z"/>
				</g>
				<g>
					<path fill="#D35971" d="M437.55,128.714c0,0,4.089,4.49,5.042,12.151l-4.384,0.204L437.55,128.714z"/>
				</g>
				<g>
					<circle fill="#474F50" cx="391.022" cy="122.815" r="0.626"/>
				</g>
				<g>
					<circle fill="#474F50" cx="386.669" cy="123.284" r="0.534"/>
				</g>
				<g>
					<path fill="#B22449" d="M400.068,165.048c-0.972-2.924-1.191-8.115-1.191-8.115s-8.354,6.507,1.178,11.843L400.068,165.048z"/>
				</g>
				<g>
					<path fill="#FFE9DE" d="M400.405,139.793c0,0-0.032,0.316-0.535,0.685c0,0,1.083,3.165,4.454,2.411s7.099-7.349,7.356-10.019
						c0,0-0.813,0.644-1.824,0.752c0,0-3.311,7.404-6.206,7.523C400.755,141.264,400.405,139.793,400.405,139.793z"/>
				</g>
			</g>
			<g>
				<path fill="#303535" d="M441.276,210.124c-7.162-14.701-11.988-10.709-13.961-4.974
					C427.315,205.15,436.925,204.428,441.276,210.124z"/>
			</g>
		</g>
	</g>
	<g id="speech_bubble_1_">
		<g>
			<path fill="#F99048" d="M322.128,112.685h30.55c3.577,0,6.477,2.9,6.477,6.477c0,3.577-2.9,6.477-6.477,6.477h-5.047
				c0.372,1.534,1.128,4.143,2.126,4.924c0,0-4.913-2.647-5.708-4.924h-21.921c-3.577,0-6.477-2.9-6.477-6.477
				C315.651,115.585,318.551,112.685,322.128,112.685z"/>
		</g>
		<g>
			<path fill="#FFFFFF" d="M352.513,116.558h-31.076c-0.138,0-0.25-0.112-0.25-0.25s0.112-0.25,0.25-0.25h31.076
				c0.138,0,0.25,0.112,0.25,0.25S352.65,116.558,352.513,116.558z"/>
		</g>
		<g>
			<path fill="#FFFFFF" d="M352.513,119.232h-31.076c-0.138,0-0.25-0.112-0.25-0.25s0.112-0.25,0.25-0.25h31.076
				c0.138,0,0.25,0.112,0.25,0.25S352.65,119.232,352.513,119.232z"/>
		</g>
		<g>
			<path fill="#FFFFFF" d="M343.339,121.873h-21.902c-0.138,0-0.25-0.112-0.25-0.25s0.112-0.25,0.25-0.25h21.902
				c0.138,0,0.25,0.112,0.25,0.25S343.477,121.873,343.339,121.873z"/>
		</g>
	</g>
	<g id="grass_3_">
		<g>
			<g>
				<path fill="#A8A848" d="M467.42,362.653c0,0-3.464-25.046,18.865-38.131c0,0,0.128,6.768-1.283,11.275l-3.978,0.929l3.08,2.462
					c0,0-5.133,12.199-15.656,23.466H467.42z"/>
			</g>
			<g>
				<path fill="#A8A848" d="M471.271,362.653c0,0,6.801-16.869,26.05-17.478c0,0-1.54,5.785-5.39,8.739l-2.567-0.944l0.513,3.045
					c0,0-4.62,4.75-16.939,6.638H471.271z"/>
			</g>
			<g>
				<path fill="#FFFFFF" d="M468.448,362.903c-0.015,0-0.03-0.001-0.046-0.004c-0.136-0.025-0.226-0.156-0.2-0.292
					c2.927-15.763,17.727-38.001,17.875-38.224c0.078-0.115,0.234-0.145,0.347-0.069c0.115,0.077,0.146,0.232,0.069,0.347
					c-0.148,0.223-14.892,22.377-17.799,38.038C468.672,362.819,468.566,362.903,468.448,362.903z"/>
			</g>
			<g>
				<path fill="#FFFFFF" d="M472.939,362.903c-0.064,0-0.13-0.025-0.179-0.075c-0.097-0.099-0.095-0.257,0.004-0.354
					c0.108-0.105,10.963-10.642,24.443-17.521c0.124-0.062,0.273-0.014,0.336,0.109s0.014,0.273-0.109,0.336
					c-13.41,6.845-24.213,17.328-24.32,17.434C473.065,362.879,473.003,362.903,472.939,362.903z"/>
			</g>
		</g>
		<g>
			<g>
				<path fill="#A8A848" d="M145.161,361.445c0,0,1.954-27.545-13.446-33.771c-15.4-6.227,11.691,33.771,11.691,33.771H145.161z"/>
			</g>
			<g>
				<path fill="#A8A848" d="M141.234,361.445c0,0-7.929-19.098-17.339-17.863c-9.41,1.235,14.812,17.863,14.812,17.863H141.234z"/>
			</g>
			<g>
				<path fill="#FFFFFF" d="M144.632,361.696c-0.111,0-0.212-0.074-0.242-0.186c-4.523-16.988-9.642-27.502-16.597-34.09
					c-0.1-0.095-0.104-0.253-0.01-0.354c0.095-0.1,0.253-0.105,0.354-0.01c7.026,6.656,12.188,17.242,16.737,34.324
					c0.036,0.134-0.044,0.271-0.177,0.306C144.675,361.693,144.653,361.696,144.632,361.696z"/>
			</g>
			<g>
				<path fill="#FFFFFF" d="M140.156,361.696c-0.083,0-0.164-0.041-0.211-0.117c-8.002-12.708-17.771-17.076-17.869-17.118
					c-0.126-0.056-0.184-0.203-0.129-0.329c0.056-0.128,0.204-0.181,0.329-0.13c0.099,0.044,10.008,4.474,18.091,17.312
					c0.074,0.116,0.039,0.271-0.078,0.345C140.248,361.683,140.202,361.696,140.156,361.696z"/>
			</g>
		</g>
		<g>
			<g>
				<path fill="#A8A848" d="M278.197,364.296c0,0-1.738-22.709,11.961-27.843s-10.4,27.843-10.4,27.843H278.197z"/>
			</g>
			<g>
				<path fill="#A8A848" d="M281.691,364.296c0,0,7.053-15.745,15.423-14.727c8.37,1.019-13.176,14.727-13.176,14.727H281.691z"/>
			</g>
			<g>
				<path fill="#FFFFFF" d="M278.668,364.546c-0.023,0-0.046-0.003-0.069-0.01c-0.133-0.038-0.209-0.177-0.171-0.31
					c4.05-14.094,8.646-22.828,14.901-28.319c0.104-0.092,0.262-0.082,0.353,0.022c0.091,0.104,0.081,0.262-0.023,0.353
					c-6.18,5.425-10.729,14.086-14.751,28.083C278.877,364.475,278.777,364.546,278.668,364.546z"/>
			</g>
			<g>
				<path fill="#FFFFFF" d="M282.65,364.546c-0.049,0-0.098-0.014-0.141-0.043c-0.114-0.078-0.144-0.233-0.066-0.348
					c7.196-10.593,16.019-14.248,16.107-14.283c0.127-0.055,0.273,0.009,0.326,0.138c0.052,0.128-0.01,0.273-0.138,0.325
					c-0.087,0.035-8.775,3.642-15.88,14.102C282.808,364.508,282.729,364.546,282.65,364.546z"/>
			</g>
		</g>
	</g>
	<g id="object_3_">
		<g>
			<circle fill="#F9B655" cx="410.786" cy="337.881" r="6.572"/>
		</g>
		<g>
			<circle fill="#F9B655" cx="410.005" cy="316.296" r="3.648"/>
		</g>
		<g>
			<circle fill="#F9B655" cx="386.643" cy="323.372" r="3.429"/>
		</g>
		<g>
			<circle fill="#F9B655" cx="383.696" cy="296.744" r="1.554"/>
		</g>
		<g>
			<circle fill="#F9B655" cx="398.834" cy="304.642" r="2.548"/>
		</g>
		<g>
			<circle fill="#F9B655" cx="399.345" cy="329.749" r="1.559"/>
		</g>
		<g>
			<circle fill="#F9B655" cx="390.801" cy="343.92" r="2.872"/>
		</g>
		<g>
			<circle fill="#F9B655" cx="330.452" cy="346.119" r="1.667"/>
		</g>
		<g>
			<circle fill="#F9B655" cx="320.119" cy="339.214" r="3.119"/>
		</g>
		<g>
			<circle fill="#F9B655" cx="309.463" cy="346.987" r="2.535"/>
		</g>
		<g>
			<circle fill="#F9B655" cx="310.803" cy="330.494" r="1.339"/>
		</g>
		<g>
			<circle fill="#F9B655" cx="317.963" cy="324.336" r="0.963"/>
		</g>
		<g>
			<circle fill="#F9B655" cx="427.054" cy="347.851" r="1.732"/>
		</g>
		<g>
			<circle fill="#F9B655" cx="444.191" cy="339.214" r="3.119"/>
		</g>
		<g>
			<circle fill="#F9B655" cx="445.574" cy="327.784" r="1.736"/>
		</g>
		<g>
			<circle fill="#F9B655" cx="458.83" cy="320.664" r="1.366"/>
		</g>
		<g>
			<circle fill="#F9B655" cx="457.089" cy="332.208" r="1.875"/>
		</g>
		<g>
			<circle fill="#F9B655" cx="417.071" cy="296.744" r="1.554"/>
		</g>
		<g>
			<circle fill="#F9B655" cx="160.992" cy="341.444" r="5.349"/>
		</g>
		<g>
			<circle fill="#F9B655" cx="177.205" cy="327.897" r="2.597"/>
		</g>
		<g>
			<circle fill="#F9B655" cx="182.319" cy="313.779" r="2.517"/>
		</g>
		<g>
			<circle fill="#F9B655" cx="180.586" cy="343.411" r="3.381"/>
		</g>
		<g>
			<circle fill="#F9B655" cx="195.259" cy="327.414" r="1.045"/>
		</g>
	</g>
</g>
</svg>
