<?xml version="1.0" encoding="utf-8"?>
<!-- Generator: Adobe Illustrator 25.1.0, SVG Export Plug-In . SVG Version: 6.00 Build 0)  -->
<svg version="1.1" id="Tirui" xmlns="http://www.w3.org/2000/svg" xmlns:xlink="http://www.w3.org/1999/xlink" x="0px" y="0px"
	 viewBox="0 0 600 400" enable-background="new 0 0 600 400" xml:space="preserve">
<g id="Data_Classification">
	<g id="background_1_">
		<path fill="#BEE9EA" d="M187.143,385.667h203.474C390.617,385.667,289.679,352.738,187.143,385.667z"/>
		<g>
			<path fill="#FFF8EE" d="M314.781,59.238c-68.056-19.071-167.384,12.598-116.29,111.546s-16.822,120.47,38.308,178.837
				s162.813-8.192,180.811-109.43S391.633,80.774,314.781,59.238z"/>
			<path fill="#FFF8EE" d="M149,196.959c-1.174,34.145,17.143,87.708,33.429,69.708s21.106-68.953,1.982-86.119
				S149.611,179.188,149,196.959z"/>
		</g>
	</g>
	<g id="object_1_">
		<g>
			<g>
				<rect x="229.865" y="247.68" fill="#FFFFFF" width="53.44" height="53.44"/>
				<rect x="288.061" y="152.84" fill="#FFFFFF" width="53.44" height="53.44"/>
				<rect x="234.621" y="100.037" fill="#FFFFFF" width="53.44" height="53.44"/>
				<rect x="283.211" y="213.866" fill="#FFFFFF" width="33.815" height="33.815"/>
				<rect x="248.597" y="180.051" fill="#FCE277" width="33.815" height="33.815"/>
				<rect x="211.956" y="77.372" fill="#FCE277" width="22.665" height="22.665"/>
				<rect x="288.061" y="66.222" fill="#FFFFFF" width="33.815" height="33.815"/>
				<rect x="321.875" y="100.201" fill="#FFFFFF" width="33.815" height="33.815"/>
			</g>
			<rect x="248.597" y="26.759" fill="#FCE277" width="39.464" height="39.464"/>
		</g>
		<g>
			<g>
				<path fill="#FCE277" d="M371.857,303.858l-0.02-0.02c-0.217,0.012-0.434,0.02-0.654,0.02c0.22,0,0.437,0.008,0.654,0.02
					L371.857,303.858z"/>
			</g>
			<g>
				<path fill="#FCE277" d="M347.635,303.858l0.02,0.02c0.217-0.012,0.434-0.02,0.654-0.02c-0.22,0-0.437-0.008-0.654-0.02
					L347.635,303.858z"/>
			</g>
			<g>
				<path fill="#FCE277" d="M359.746,291.747l-0.02,0.02c0.012,0.216,0.02,0.434,0.02,0.654c0-0.22,0.008-0.437,0.02-0.654
					L359.746,291.747z"/>
			</g>
			<g>
				<circle fill="#FCE277" cx="359.746" cy="303.858" r="11.438"/>
			</g>
			<g>
				<path fill="#FCE277" d="M359.746,315.296c0,0.22-0.008,0.437-0.02,0.654l0.02,0.02l0.02-0.02
					C359.754,315.733,359.746,315.516,359.746,315.296z"/>
			</g>
		</g>
		<g>
			<g>
				<path fill="#FCE277" d="M208.922,297.501l-0.013-0.013c-0.145,0.008-0.291,0.013-0.437,0.013c0.147,0,0.293,0.005,0.437,0.013
					L208.922,297.501z"/>
			</g>
			<g>
				<path fill="#FCE277" d="M192.714,297.501l0.013,0.013c0.145-0.008,0.291-0.013,0.437-0.013c-0.147,0-0.293-0.005-0.437-0.013
					L192.714,297.501z"/>
			</g>
			<g>
				<path fill="#FCE277" d="M200.818,289.397l-0.013,0.013c0.008,0.145,0.013,0.291,0.013,0.438c0-0.147,0.005-0.293,0.013-0.438
					L200.818,289.397z"/>
			</g>
			<g>
				<circle fill="#FCE277" cx="200.818" cy="297.501" r="7.653"/>
			</g>
			<g>
				<path fill="#FCE277" d="M200.818,305.154c0,0.147-0.005,0.293-0.013,0.438l0.013,0.013l0.013-0.013
					C200.823,305.447,200.818,305.301,200.818,305.154z"/>
			</g>
		</g>
		<g>
			<g>
				<path fill="#FCE277" d="M212.419,277.852l-0.006-0.006c-0.063,0.004-0.125,0.006-0.189,0.006c0.063,0,0.126,0.002,0.189,0.006
					L212.419,277.852z"/>
			</g>
			<g>
				<path fill="#FCE277" d="M205.425,277.852l0.006,0.006c0.063-0.004,0.125-0.006,0.189-0.006c-0.063,0-0.126-0.002-0.189-0.006
					L205.425,277.852z"/>
			</g>
			<g>
				<path fill="#FCE277" d="M208.922,274.355l-0.006,0.006c0.004,0.063,0.006,0.125,0.006,0.189c0-0.063,0.002-0.126,0.006-0.189
					L208.922,274.355z"/>
			</g>
			<g>
				<circle fill="#FCE277" cx="208.922" cy="277.852" r="3.302"/>
			</g>
			<g>
				<path fill="#FCE277" d="M208.922,281.155c0,0.063-0.002,0.126-0.006,0.189l0.006,0.006l0.006-0.006
					C208.925,281.281,208.922,281.218,208.922,281.155z"/>
			</g>
		</g>
		<g>
			<g>
				<path fill="#FCE277" d="M198.491,238.055l-0.006-0.006c-0.063,0.004-0.125,0.006-0.189,0.006c0.063,0,0.126,0.002,0.189,0.006
					L198.491,238.055z"/>
			</g>
			<g>
				<path fill="#FCE277" d="M191.497,238.055l0.006,0.006c0.063-0.004,0.125-0.006,0.189-0.006c-0.063,0-0.126-0.002-0.189-0.006
					L191.497,238.055z"/>
			</g>
			<g>
				<path fill="#FCE277" d="M194.994,234.558l-0.006,0.006c0.004,0.063,0.006,0.125,0.006,0.189c0-0.063,0.002-0.126,0.006-0.189
					L194.994,234.558z"/>
			</g>
			<g>
				<circle fill="#FCE277" cx="194.994" cy="238.055" r="3.302"/>
			</g>
			<g>
				<path fill="#FCE277" d="M194.994,241.357c0,0.063-0.002,0.126-0.006,0.189l0.006,0.006l0.006-0.006
					C194.996,241.484,194.994,241.421,194.994,241.357z"/>
			</g>
		</g>
		<g>
			<g>
				<path fill="#FCE277" d="M383.6,289.011l-0.013-0.012c-0.136,0.008-0.274,0.012-0.412,0.012c0.138,0,0.275,0.005,0.412,0.013
					L383.6,289.011z"/>
			</g>
			<g>
				<path fill="#FCE277" d="M368.343,289.011l0.013,0.013c0.136-0.008,0.274-0.013,0.412-0.013c-0.138,0-0.275-0.005-0.412-0.012
					L368.343,289.011z"/>
			</g>
			<g>
				<path fill="#FCE277" d="M375.972,281.382l-0.012,0.013c0.008,0.136,0.012,0.273,0.012,0.412c0-0.138,0.005-0.275,0.013-0.412
					L375.972,281.382z"/>
			</g>
			<g>
				<circle fill="#FCE277" cx="375.972" cy="289.011" r="7.204"/>
			</g>
			<g>
				<path fill="#FCE277" d="M375.972,296.215c0,0.138-0.005,0.275-0.012,0.412l0.012,0.012l0.013-0.012
					C375.976,296.491,375.972,296.354,375.972,296.215z"/>
			</g>
		</g>
		<g>
			<g>
				<path fill="#FCE277" d="M368.343,269.38l-0.009-0.009c-0.094,0.005-0.189,0.009-0.284,0.009c0.096,0,0.19,0.003,0.284,0.009
					L368.343,269.38z"/>
			</g>
			<g>
				<path fill="#FCE277" d="M357.806,269.38l0.009,0.009c0.094-0.005,0.189-0.009,0.284-0.009c-0.096,0-0.19-0.003-0.284-0.009
					L357.806,269.38z"/>
			</g>
			<g>
				<path fill="#FCE277" d="M363.075,264.112l-0.009,0.009c0.005,0.094,0.009,0.189,0.009,0.284c0-0.095,0.003-0.19,0.009-0.284
					L363.075,264.112z"/>
			</g>
			<g>
				<circle fill="#FCE277" cx="363.075" cy="269.38" r="4.975"/>
			</g>
			<g>
				<path fill="#FCE277" d="M363.075,274.355c0,0.095-0.003,0.19-0.009,0.284l0.009,0.009l0.009-0.009
					C363.078,274.546,363.075,274.451,363.075,274.355z"/>
			</g>
		</g>
	</g>
	<g id="box">
		<g>
			<polygon fill="#FCE277" points="235.974,318.704 254.308,295.889 308.53,295.889 331.345,318.704 			"/>
			<polygon fill="#F0814A" points="259.197,307.57 305.641,307.57 301.863,303.222 263.197,303.222 			"/>
			<polygon fill="#F7CB6B" points="246.604,385.667 321.863,385.667 331.345,318.704 235.974,318.704 			"/>
			<linearGradient id="SVGID_1_" gradientUnits="userSpaceOnUse" x1="279.8868" y1="376.5537" x2="285.0296" y2="297.6966">
				<stop  offset="0" style="stop-color:#FFB855"/>
				<stop  offset="0.9944" style="stop-color:#F9FF55;stop-opacity:0"/>
			</linearGradient>
			<polygon opacity="0.6" fill="url(#SVGID_1_)" points="246.604,385.667 321.863,385.667 331.345,318.704 235.974,318.704 			"/>
			<polygon opacity="0.61" fill="#FFFFFF" points="259.197,307.57 258.678,308.259 306.011,308.259 305.641,307.57 			"/>
		</g>
		<linearGradient id="SVGID_2_" gradientUnits="userSpaceOnUse" x1="296.75" y1="326.6057" x2="328.75" y2="234.1613">
			<stop  offset="0" style="stop-color:#FFB855"/>
			<stop  offset="0.9944" style="stop-color:#F9FF55;stop-opacity:0"/>
		</linearGradient>
		<polygon opacity="0.6" fill="url(#SVGID_2_)" points="331.345,318.704 308.53,295.889 326.567,118.843 421.659,87.382 		"/>
		<linearGradient id="SVGID_3_" gradientUnits="userSpaceOnUse" x1="180.9716" y1="311.9092" x2="200.6845" y2="254.9608">
			<stop  offset="0" style="stop-color:#FFB855"/>
			<stop  offset="0.9944" style="stop-color:#F9FF55;stop-opacity:0"/>
		</linearGradient>
		<polygon fill="url(#SVGID_3_)" points="254.308,295.889 235.974,318.704 172.111,141.667 228.768,154.45 		"/>
	</g>
	<g id="grass_1_">
		<g>
			<g>
				<path fill="#A8A848" d="M331.519,385.667c0,0-3.108-23.677,16.926-36.046c0,0,0.115,6.398-1.151,10.658l-3.569,0.878
					l2.763,2.328c0,0-4.605,11.532-14.047,22.182H331.519z"/>
			</g>
			<g>
				<path fill="#A8A848" d="M334.974,385.667c0,0,6.102-15.946,23.373-16.522c0,0-1.382,5.469-4.836,8.261l-2.303-0.892l0.461,2.878
					c0,0-4.145,4.49-15.198,6.275H334.974z"/>
			</g>
			<g>
				<path fill="#FFFFFF" d="M332.441,385.917c-0.014,0-0.028-0.001-0.043-0.004c-0.137-0.023-0.228-0.153-0.203-0.289
					c2.626-14.902,15.905-35.927,16.039-36.137c0.074-0.116,0.23-0.15,0.345-0.077c0.117,0.074,0.151,0.229,0.077,0.345
					c-0.133,0.21-13.36,21.151-15.969,35.955C332.666,385.832,332.561,385.917,332.441,385.917z"/>
			</g>
			<g>
				<path fill="#FFFFFF" d="M336.471,385.917c-0.062,0-0.126-0.023-0.174-0.07c-0.1-0.097-0.102-0.255-0.006-0.354
					c0.098-0.101,9.839-10.062,21.938-16.568c0.119-0.066,0.272-0.021,0.338,0.102c0.065,0.121,0.021,0.272-0.102,0.338
					c-12.028,6.47-21.719,16.378-21.814,16.477C336.601,385.891,336.536,385.917,336.471,385.917z"/>
			</g>
		</g>
		<g>
			<g>
				<path fill="#A8A848" d="M236.663,384.567c0,0,3.323-39.635-22.863-48.595c-26.185-8.96,19.879,48.595,19.879,48.595H236.663z"/>
			</g>
			<g>
				<path fill="#A8A848" d="M229.985,384.567c0,0-13.481-27.482-29.481-25.704c-16,1.778,25.185,25.704,25.185,25.704H229.985z"/>
			</g>
			<g>
				<path fill="#FFFFFF" d="M235.762,384.817c-0.106,0-0.205-0.068-0.238-0.175c-7.698-24.464-16.413-39.606-28.258-49.102
					c-0.108-0.087-0.125-0.244-0.039-0.352c0.087-0.107,0.244-0.124,0.351-0.039c11.928,9.561,20.693,24.778,28.422,49.342
					c0.042,0.132-0.032,0.272-0.163,0.313C235.812,384.813,235.787,384.817,235.762,384.817z"/>
			</g>
			<g>
				<path fill="#FFFFFF" d="M228.151,384.817c-0.076,0-0.151-0.035-0.201-0.101c-13.625-18.313-30.291-24.625-30.458-24.687
					c-0.13-0.048-0.196-0.191-0.148-0.321c0.048-0.129,0.194-0.195,0.321-0.147c0.168,0.062,16.967,6.418,30.686,24.856
					c0.083,0.111,0.059,0.268-0.051,0.35C228.256,384.801,228.204,384.817,228.151,384.817z"/>
			</g>
		</g>
	</g>
	<g id="speech_bubble">
		<g>
			<g>
				<path fill="#F99048" d="M194.878,205.38h36.484c4.272,0,7.735,3.463,7.735,7.735c0,4.272-3.463,7.735-7.735,7.735h-6.027
					c0.444,1.832,1.348,4.948,2.539,5.88c0,0-5.868-3.161-6.816-5.88h-26.179c-4.272,0-7.735-3.463-7.735-7.735
					C187.143,208.843,190.606,205.38,194.878,205.38z"/>
			</g>
			<g>
				<path fill="#FFFFFF" d="M231.166,209.958h-37.114c-0.138,0-0.25-0.112-0.25-0.25s0.112-0.25,0.25-0.25h37.114
					c0.138,0,0.25,0.112,0.25,0.25S231.304,209.958,231.166,209.958z"/>
			</g>
			<g>
				<path fill="#FFFFFF" d="M231.166,213.15h-37.114c-0.138,0-0.25-0.112-0.25-0.25s0.112-0.25,0.25-0.25h37.114
					c0.138,0,0.25,0.112,0.25,0.25S231.304,213.15,231.166,213.15z"/>
			</g>
			<g>
				<path fill="#FFFFFF" d="M220.209,216.305h-26.157c-0.138,0-0.25-0.112-0.25-0.25s0.112-0.25,0.25-0.25h26.157
					c0.138,0,0.25,0.112,0.25,0.25S220.347,216.305,220.209,216.305z"/>
			</g>
		</g>
		<g>
			<g>
				<path fill="#A8A848" d="M378.204,134.015h-22.749c-2.664,0-4.823,2.159-4.823,4.823c0,2.664,2.159,4.823,4.823,4.823h3.758
					c-0.277,1.142-0.84,3.085-1.583,3.667c0,0,3.659-1.971,4.25-3.667h16.323c2.664,0,4.823-2.159,4.823-4.823
					C383.026,136.175,380.867,134.015,378.204,134.015z"/>
			</g>
			<g>
				<path fill="#FFFFFF" d="M364.637,141.104c-0.179,0-0.356-0.009-0.534-0.029c-0.817-0.09-1.337-0.36-1.665-0.681
					c-0.569,0.29-1.275,0.485-2.136,0.527c-0.902,0.037-1.549-0.149-2-0.434c-0.432,0.226-0.97,0.382-1.632,0.433
					c-1.228,0.098-2.16-0.182-2.77-0.82c-0.902-0.947-0.74-2.325-0.732-2.384c0.017-0.136,0.142-0.233,0.278-0.217
					c0.138,0.018,0.234,0.142,0.218,0.279c-0.001,0.012-0.138,1.207,0.601,1.979c0.501,0.524,1.302,0.746,2.366,0.665
					c0.49-0.038,0.901-0.138,1.241-0.282c-0.143-0.147-0.253-0.301-0.339-0.449c-0.533-0.919-0.388-2.065,0.032-2.724
					c0.26-0.407,0.613-0.614,1.005-0.589c0.691,0.063,1.208,0.826,1.201,1.775c-0.005,0.688-0.291,1.466-0.991,2.023
					c0.402,0.189,0.907,0.273,1.498,0.244c0.739-0.035,1.351-0.195,1.847-0.433c-0.066-0.118-0.116-0.235-0.151-0.348
					c-0.353-1.104,0.3-2.441,0.906-2.982c0.441-0.394,0.773-0.334,0.934-0.261c0.454,0.203,0.664,0.846,0.521,1.598
					c-0.138,0.73-0.593,1.546-1.447,2.132c0.298,0.239,0.722,0.391,1.27,0.451c0.985,0.105,2.018-0.141,2.938-0.576
					c-0.235-0.256-0.361-0.527-0.424-0.771c-0.275-1.067,0.466-2.3,1.339-2.967c0.728-0.555,1.491-0.698,2.046-0.382
					c0.508,0.29,0.677,0.832,0.464,1.486c-0.285,0.876-1.239,1.934-2.495,2.7c0.327,0.163,0.738,0.282,1.229,0.355
					c2.041,0.301,3.873-0.069,5.173-0.677c-0.127-0.177-0.2-0.359-0.239-0.532c-0.204-0.896,0.443-1.858,1.161-2.235
					c0.496-0.262,0.98-0.213,1.299,0.131c0.333,0.361,0.365,0.846,0.091,1.364c-0.243,0.46-0.74,0.945-1.434,1.369
					c0.421,0.228,1.037,0.361,1.821,0.391c0.138,0.005,0.245,0.121,0.24,0.26c-0.005,0.135-0.116,0.24-0.25,0.24
					c-0.003,0-0.006,0-0.01,0c-1.153-0.043-1.868-0.292-2.305-0.613c-1.395,0.698-3.372,1.132-5.622,0.797
					c-0.749-0.111-1.284-0.317-1.663-0.564C366.633,140.807,365.637,141.104,364.637,141.104z M358.491,136.875
					c-0.237,0-0.416,0.224-0.504,0.361c-0.33,0.518-0.45,1.466-0.021,2.204c0.1,0.172,0.223,0.321,0.369,0.449
					c0.663-0.453,0.933-1.119,0.937-1.738c0.005-0.676-0.323-1.235-0.746-1.274C358.514,136.876,358.502,136.875,358.491,136.875z
					 M369.402,136.215c-0.323,0-0.705,0.153-1.089,0.446c-0.725,0.553-1.377,1.598-1.158,2.444c0.063,0.249,0.201,0.468,0.407,0.654
					c1.24-0.699,2.21-1.71,2.481-2.546c0.21-0.644-0.126-0.835-0.236-0.898C369.689,136.249,369.552,136.215,369.402,136.215z
					 M363.561,136.844c-0.085,0-0.214,0.068-0.348,0.188c-0.492,0.439-1.048,1.567-0.764,2.457c0.029,0.09,0.066,0.175,0.11,0.254
					c0.763-0.504,1.165-1.209,1.284-1.84c0.107-0.565-0.041-0.962-0.235-1.049C363.595,136.847,363.579,136.844,363.561,136.844z
					 M375.962,137.312c-0.133,0-0.269,0.052-0.381,0.11c-0.544,0.286-1.051,1.048-0.906,1.682c0.034,0.15,0.104,0.287,0.207,0.41
					c0.696-0.393,1.189-0.848,1.414-1.272c0.173-0.326,0.168-0.593-0.016-0.791C376.187,137.349,376.075,137.312,375.962,137.312z"
					/>
			</g>
		</g>
		<g>
			<g>
				<path fill="#E53362" d="M353.014,216.174h-36.321c-4.253,0-7.701,3.448-7.701,7.7c0,4.253,3.448,7.7,7.701,7.7h6.001
					c-0.442,1.824-1.341,4.926-2.527,5.854c0,0,5.841-3.147,6.786-5.854h26.062c4.253,0,7.7-3.448,7.7-7.7
					C360.714,219.622,357.267,216.174,353.014,216.174z"/>
			</g>
			<g>
				<path fill="#FFFFFF" d="M331.357,227.344c-0.281,0-0.562-0.015-0.842-0.046c-1.331-0.146-2.147-0.599-2.646-1.124
					c-0.908,0.481-2.047,0.809-3.446,0.877c-1.456,0.062-2.479-0.252-3.18-0.718c-0.684,0.374-1.549,0.635-2.623,0.717
					c-1.922,0.154-3.364-0.278-4.304-1.266c-1.392-1.46-1.141-3.593-1.129-3.683c0.017-0.137,0.13-0.232,0.279-0.217
					c0.137,0.018,0.233,0.143,0.217,0.279c-0.002,0.02-0.23,1.993,0.997,3.278c0.831,0.871,2.147,1.244,3.9,1.109
					c0.896-0.069,1.63-0.271,2.224-0.561c-0.29-0.267-0.506-0.556-0.665-0.83c-0.822-1.416-0.598-3.182,0.048-4.193
					c0.391-0.613,0.913-0.93,1.465-0.872c1.026,0.094,1.793,1.248,1.783,2.685c-0.008,1.117-0.5,2.387-1.716,3.255
					c0.614,0.346,1.47,0.579,2.68,0.516c1.276-0.062,2.319-0.352,3.153-0.778c-0.144-0.223-0.243-0.449-0.312-0.662
					c-0.543-1.7,0.467-3.767,1.404-4.604c0.476-0.425,0.947-0.566,1.331-0.394c0.661,0.298,0.961,1.258,0.747,2.391
					c-0.223,1.178-0.979,2.497-2.411,3.413c0.5,0.478,1.255,0.774,2.257,0.886c1.667,0.18,3.415-0.265,4.956-1.029
					c-0.449-0.428-0.675-0.894-0.782-1.309c-0.423-1.64,0.729-3.545,2.084-4.58c1.112-0.849,2.271-1.075,3.103-0.6
					c0.755,0.431,0.993,1.212,0.673,2.198c-0.464,1.424-2.058,3.155-4.138,4.366c0.57,0.331,1.319,0.569,2.236,0.705
					c3.427,0.511,6.431-0.127,8.529-1.155c-0.27-0.313-0.414-0.646-0.484-0.956c-0.3-1.318,0.677-2.824,1.778-3.403
					c0.738-0.391,1.43-0.324,1.894,0.179c0.486,0.526,0.529,1.24,0.123,2.009c-0.402,0.762-1.252,1.567-2.441,2.256
					c0.696,0.452,1.778,0.718,3.188,0.771c0.138,0.005,0.245,0.121,0.24,0.26c-0.005,0.135-0.116,0.24-0.25,0.24
					c-0.003,0-0.006,0-0.01,0c-1.873-0.07-2.998-0.48-3.665-1.001c-2.201,1.124-5.371,1.831-8.976,1.296
					c-1.219-0.181-2.07-0.52-2.663-0.923C334.556,226.861,332.96,227.344,331.357,227.344z M321.539,220.591
					c-0.448,0-0.772,0.399-0.93,0.646c-0.55,0.863-0.75,2.443-0.037,3.674c0.159,0.272,0.383,0.561,0.698,0.818
					c1.184-0.769,1.658-1.933,1.666-2.951c0.008-1.156-0.575-2.115-1.328-2.184C321.585,220.592,321.562,220.591,321.539,220.591z
					 M329.636,220.542c-0.179,0-0.409,0.117-0.656,0.338c-0.815,0.729-1.733,2.601-1.261,4.08c0.065,0.206,0.156,0.396,0.27,0.568
					c1.339-0.834,2.041-2.042,2.245-3.117c0.167-0.887-0.021-1.645-0.461-1.841C329.731,220.551,329.686,220.542,329.636,220.542z
					 M338.963,219.539c-0.55,0-1.191,0.255-1.831,0.743c-1.225,0.935-2.271,2.629-1.903,4.059c0.118,0.457,0.378,0.854,0.771,1.184
					c2.06-1.139,3.678-2.814,4.128-4.196c0.247-0.758,0.097-1.3-0.445-1.609C339.472,219.598,339.228,219.539,338.963,219.539z
					 M349.438,221.291c-0.26,0-0.511,0.102-0.68,0.191c-0.917,0.482-1.769,1.771-1.523,2.851c0.07,0.309,0.226,0.585,0.461,0.824
					c1.181-0.654,2.017-1.431,2.404-2.164c0.213-0.4,0.376-0.976-0.048-1.435C349.868,221.359,349.649,221.291,349.438,221.291z"/>
			</g>
		</g>
		<g>
			<g>
				<path fill="#F2E5D6" d="M211.153,163.939h23.056c2.7,0,4.888,2.188,4.888,4.888c0,2.7-2.188,4.888-4.888,4.888H230.4
					c0.281,1.158,0.852,3.127,1.604,3.716c0,0-3.708-1.997-4.307-3.716h-16.543c-2.699,0-4.888-2.188-4.888-4.888
					C206.265,166.128,208.454,163.939,211.153,163.939z"/>
			</g>
		</g>
		<g>
			<g>
				<path fill="#F2E5D6" d="M219.803,59.238h16.42c1.923,0,3.481,1.559,3.481,3.481c0,1.923-1.559,3.481-3.481,3.481h-2.713
					c0.2,0.825,0.606,2.227,1.143,2.647c0,0-2.641-1.423-3.068-2.647h-11.782c-1.923,0-3.481-1.559-3.481-3.481
					C216.321,60.797,217.88,59.238,219.803,59.238z"/>
			</g>
		</g>
	</g>
	<g id="woman">
		<path fill="#F99680" d="M281.833,226.62c0,0,1.537,12.382,1.001,20.798h6.218c0,0,0.651-17.039-0.532-25.244
			C287.336,213.969,281.833,226.62,281.833,226.62z"/>
		<circle fill="#E53362" cx="284.218" cy="271.493" r="25.147"/>
		<g>
			<defs>
				<circle id="SVGID_27_" cx="284.218" cy="271.493" r="23.167"/>
			</defs>
			<clipPath id="SVGID_5_">
				<use xlink:href="#SVGID_27_"  overflow="visible"/>
			</clipPath>
			<polygon clip-path="url(#SVGID_5_)" fill="#F4699B" points="261.174,285.723 296.59,248.326 304.227,255.172 268.55,292.733 			
				"/>
			<polygon clip-path="url(#SVGID_5_)" fill="#F4699B" points="261.174,282.793 293.346,248.326 290.552,246.592 259.133,280.596 
							"/>
		</g>
		<path fill="#ED5526" d="M332.149,157.292c-3.859-14.437-1.284-20.441,2.288-28.017c0,0-4.359,3.929-5.433,15.463
			c-0.855,9.182,1.996,13.967,1.828,19.357c-2.227-6.565-6.122-13.472-4.687-22.67c2.43-15.581,11.007-23.157,7.433-35.736
			c-3.574-12.579-39.595-1.001-33.877,18.868s8.862,23.443,4.646,30.733c-4.217,7.29-4.613,19.838-4.613,19.838l5.828,6.789
			l10.683,7.094c0,0,6.195,0.583,11.652-6.501l0,0.001c0,0,0.017-0.024,0.042-0.058c0.963-1.258,1.903-2.751,2.781-4.534
			c0.836-1.699,1.281-3.338,1.454-4.947C333.28,168.734,333.764,163.336,332.149,157.292z"/>
		<path fill="#303535" d="M259.105,92.504c0,0,4.988-3.448,14.295-3.395c9.307,0.053,18.868-3.574,18.868-3.574
			s-13.294,8.434-20.298,8.577C264.966,94.255,259.105,92.504,259.105,92.504z"/>
		<path fill="#F99680" d="M318.498,183.88c0-3.868-3.136-7.004-7.004-7.004c-0.347,0-0.686,0.034-1.02,0.082
			c-0.257-1.428-1.499-2.513-3.001-2.513c-1.687,0-3.055,1.368-3.055,3.055c0,0.488,0.125,0.943,0.329,1.352
			c-0.003,0.002-0.006,0.002-0.008,0.004c-1.895,1.482-14.186-14.918-14.186-14.918c0.858,7.576-0.357,16.081-0.357,16.081
			s2.287,0.643,6.075,2.787c3.788,2.144,5.861,6.361,6.718,7.966s4.646,1.397,9.726,0l-0.001-0.003
			C315.999,190.193,318.498,187.331,318.498,183.88z"/>
		<path fill="#D35971" d="M284.682,78.529c0,0,1.571,9.722-0.859,22.908c0,0-1.644,0.725-5.111,1.286s-2.895-18.44-0.858-21.013
			C279.891,79.139,284.682,78.529,284.682,78.529z"/>
		<path fill="#F99680" d="M273.614,238.055c0,0,0.896,9.935,2.199,13.437s4.555,3.216,6.485,4.342
			c1.93,1.126,3.752,1.662,3.752,1.662s-0.59,1.447-3.752,0.482c-3.163-0.965-5.682,0.322-3.591,3.967
			c2.091,3.645,6.861,4.771,5.253,8.094c0,0-0.858-1.072-2.948-2.787c-2.091-1.715-3.538-3.377-3.538-3.377s0.59,2.68,2.091,4.61
			c1.501,1.93,3.323,3.538,1.608,5.36c0,0-2.037-2.466-3.431-4.449c-1.394-1.983-1.929-3.431-1.929-3.431s0.213,2.895,1.285,4.503
			c1.072,1.608,1.769,3.431,0.429,4.181c0,0-0.748-1.555-1.714-3.377c-0.966-1.823-1.931-4.824-1.931-4.824
			s-0.107,1.983,0.268,3.859s-1.072,2.198-1.072,2.198s-0.054-1.662-0.59-4.235s-0.536-2.573-0.536-2.573s-2.091-7.987-3.002-13.186
			c-0.911-5.2-2.787-12.543-2.787-12.543S269.647,237.805,273.614,238.055z"/>
		<path fill="#D35971" d="M266.163,239.967c0,0,4.663,6.415,7.451-1.912L266.163,239.967z"/>
		<path fill="#D35971" d="M281.833,226.62c0,0,1.465,4.824,3.699,3.538s2.988-7.984,2.988-7.984L281.833,226.62z"/>
		<path fill="#2C466D" d="M277.259,192.957c0,0,1.572,30.661,4.574,33.663s6.432-3.288,7.719-6.861
			c1.286-3.574,3.252-26.904-0.804-39.611C284.692,167.441,277.259,192.957,277.259,192.957z"/>
		<path fill="#F99680" d="M262.631,103.403c0,0,2.93-23.871,6.325-26.587c3.395-2.716,12.114-8.862,19.119-16.153
			c7.004-7.29,12.293-13.794,14.116-17.117s5.468-13.937,5.468-15.974c0,0,2.359,0.429,1.179,3.431
			c-1.179,3.002,1.93,17.153-0.214,16.939c-2.144-0.214-4.288,0.429-5.468,3.002c-1.179,2.573-4.396,13.401-10.721,20.477
			c-6.325,7.076-13.401,10.613-13.83,12.222c-0.429,1.608,0.107,19.083,0.107,19.083S272.065,104.296,262.631,103.403z"/>
		<path fill="#D35971" d="M264.465,91.435c0,0,6.92-7.182,13.984-1.181C285.514,96.256,264.465,91.435,264.465,91.435z"/>
		<path fill="#474F50" d="M260.963,125.845c0,0-1.286-11.578-1.394-17.689s-0.465-15.652-0.465-15.652s4.003-1.477,12.901-1.489
			c8.898-0.012,20.262-5.48,20.262-5.48s0.214,2.359-2.466,12.543s-10.456,22.621-11.392,26.695L260.963,125.845z"/>
		<path fill="#F99680" d="M273.621,73.229c0,0-1.448-6.109-0.805-7.604c0.643-1.495,9.649-26.689,11.471-33.872s0-15.116,0-15.116
			s1.715-1.372,2.216,0.572s3.073,9.077,5.217,11.007s5.646,5.646,0.929,7.719c-4.717,2.073-5.432,3.859-5.432,7.076
			c0,3.216-0.499,16.045-3.394,21.781C280.928,70.526,273.621,73.229,273.621,73.229z"/>
		<path fill="#3C5E93" d="M266.163,239.967c-6.057-5.2-8.845-19.565-5.843-36.718s7.933-29.804,7.933-29.804
			s-4.861-3.002-4.574-7.29c0.286-4.288,0.286-4.288,0.286-4.288s1.572-6.861-0.286-15.652c-1.858-8.791-2.716-20.369-2.716-20.369
			s10.235-4.503,17.446-1.072c0,0-1.463,8.148,4.482,18.011c5.945,9.863,7.661,21.156,7.661,21.156s1.429,10.006-0.357,16.081
			c0,0-8.648-0.572-12.936,12.936c-4.288,13.508-1.144,41.525-3.645,45.098C271.112,241.629,266.163,239.967,266.163,239.967z"/>
		<path fill="#ED5526" d="M318.429,182.939c0,0-5.401,1.284-7.955-5.981c-2.554-7.265,8.381,0.962,8.381,0.962L318.429,182.939z"/>
		<path fill="#F0CFBD" d="M290.553,163.939l1.574,2.056c0,0,1.778,5.645-0.47,14.553l-1.461-0.527
			C290.195,180.02,291.696,170.872,290.553,163.939z"/>
		<path fill="#D35971" d="M307.33,179.556c0,0,2.627-1.983,0-4.02V179.556z"/>
		<ellipse fill="#D35971" cx="310.011" cy="185.131" rx="1.018" ry="1.555"/>
		<ellipse fill="#D35971" cx="310.439" cy="190.578" rx="1.018" ry="1.555"/>
		<circle fill="#474F50" cx="312.548" cy="185.792" r="0.661"/>
		<circle fill="#474F50" cx="312.427" cy="190.038" r="0.54"/>
		<path fill="#D35971" d="M273.621,73.229l10.202-8.439C283.823,64.79,276.487,61.923,273.621,73.229z"/>
	</g>
</g>
</svg>
