<?xml version="1.0" encoding="utf-8"?>
<!-- Generator: Adobe Illustrator 25.1.0, SVG Export Plug-In . SVG Version: 6.00 Build 0)  -->
<svg version="1.1" id="Tirui" xmlns="http://www.w3.org/2000/svg" xmlns:xlink="http://www.w3.org/1999/xlink" x="0px" y="0px"
	 viewBox="0 0 600 400" enable-background="new 0 0 600 400" xml:space="preserve">
<g id="Data_Mining">
	<g>
		<g>
			<path fill="#FFF8EE" d="M126.191,37.973c-94.196,52.434-79.85,220.112,42.942,267.11s306.405-11.412,286.733-111.987
				s-160.525-45.551-191.29-97.567S163.809,17.033,126.191,37.973z"/>
		</g>
		<g>
			<path fill="#FFF8EE" d="M292.058,60.278c-37.027,14.725,21.258,61.077,102.883,45.968S378.163,26.036,292.058,60.278z"/>
		</g>
		<g>
			<ellipse fill="#BEE9EA" cx="310.074" cy="360.635" rx="227.766" ry="8.582"/>
		</g>
	</g>
	<g id="woman_wear_yellow_tshirt_2_">
		<g>
			<path fill="#ED5526" d="M229.579,95.529c0,0,5.748,3.668,6.617,8.849s-6.046,9.12-6.046,9.12s5.328-4.091,5.366-8.023
				c0.038-3.933-3.328-5.634-3.328-5.634L229.579,95.529z"/>
		</g>
		<g>
			<polygon fill="#F99680" points="205.034,227.447 208.139,237.438 215.512,233.93 212.18,223.097 			"/>
		</g>
		<g>
			<path fill="#D35971" d="M205.034,227.447c0,0,1.157,2.656,3.653,2.821c2.496,0.165,3.493-7.171,3.493-7.171L205.034,227.447z"/>
		</g>
		<g>
			<polygon fill="#F99680" points="227.861,237.342 227.462,251.703 235.554,251.703 237.809,237.636 			"/>
		</g>
		<g>
			<path fill="#D35971" d="M237.809,237.636c0,0-1.707,6.358-10.139,6.582l0.191-6.877L237.809,237.636z"/>
		</g>
		<g>
			<path fill="#343A3A" d="M206.739,168.285c-7.412,2.874-14.332,5.483-13.991,16.827c0.34,11.344,6.012,35.962,10.777,41.067
				c4.765,5.105,9.416-0.567,8.962-6.58c-0.454-6.013-2.382-24.958-2.496-27.34c-0.113-2.382,9.302-9.648,9.302-9.648
				s7.147,16.568,9.87,21.787s-5.105,25.411-1.021,33.579c4.084,8.168,8.395,2.609,11.344-3.403
				c2.95-6.013,7.033-30.289,6.466-33.352c-0.567-3.063-6.315-26.281-10.248-32.256C231.773,162.99,210.067,165.637,206.739,168.285
				z"/>
		</g>
		<g>
			<path fill="#ED5526" d="M230.147,96.172c-0.995-2.66-4.269-2.808-7.838-1.576c0.001-0.001,0.012-0.011,0.012-0.011
				c-4.426,0.528-8.094,3.931-13.275,4.347c-5.18,0.416-10.323-1.702-13.802-0.832c0,0,3.517,0.113,8.962,1.777
				c2.583,0.789,5.272,0.808,7.61,0.457c-4.417,1.292-9.745,0.043-16.799-0.419c-9.227-0.605-11.722,7.563-11.042,13.689
				c0.681,6.126,7.109,10.361,16.638,9c9.529-1.361,14.937-4.802,16.374-6.353c1.437-1.55,1.919-1.194,1.919-1.194
				s6.589,1.573,9.576,0.551c2.987-1.021,5.861-5.937,6.353-9.718C235.327,102.109,230.147,96.172,230.147,96.172z"/>
		</g>
		<g>
			<path fill="#F9B655" d="M218.349,123.852c-2.628-2.042-4.954-4.834-9.491-4.825c-5.335,0.012-7.374,1.881-9.189,3.536
				c-1.137,1.036-10.21,9.927-11.571,9.182c-1.361-0.746-6.126-4.721-9.699-5.938c-3.573-1.217-7.493-1.666-9.816,0.005
				c-2.323,1.671,3.247,5.971,3.247,5.971s16.722,13.34,17.686,13.283c0.964-0.057,5.162-3.857,8.622-5.502
				c3.46-1.645,6.863-2.496,6.863-2.496s-0.908,7.166-0.227,12.233c0.681,5.067,1.966,18.983,1.966,18.983s9.075-1.739,16.865-2.344
				c7.79-0.605,12.101,3.025,12.101,3.025s0.756-10.134,1.286-16.033s5.597-12.101,5.597-12.101s3.025,2.874,4.916,4.765
				c1.891,1.891,4.613,3.479,4.613,3.479l9.454-11.496c0,0-4.538-1.361-6.655-3.781c-2.118-2.42-10.286-11.571-12.781-12.328
				c-2.496-0.756-11.269,4.837-13.727,2.872l-5.899,1.779L218.349,123.852z"/>
		</g>
		<g>
			<rect x="155.236" y="130.44" fill="#82C2D1" width="27.794" height="27.794"/>
		</g>
		<g>
			<rect x="250.68" y="139.436" fill="#82C2D1" width="27.794" height="27.794"/>
		</g>
		<g>
			<path fill="#F99680" d="M232,106.533c-0.394,0-0.769,0.081-1.111,0.226c-0.266-3.506-3.162-6.277-6.736-6.277
				c-3.408,0-6.203,2.52-6.688,5.794c-0.15-0.025-0.302-0.046-0.459-0.046c-1.535,0-2.779,1.244-2.779,2.779
				c0,1.535,1.244,2.779,2.779,2.779c0.452,0,0.873-0.118,1.25-0.31l0.005,0.01c0,0-0.102,2.011,0.749,3.798
				c0.274,0.575,0.78,1.23,1.347,1.859c0.027,0.608,0.125,4.095-1.063,5.826c0,0,0.652,4.679,3.205,4.821
				c2.553,0.142,5.417-3.602,5.219-4.112c-0.195-0.503-1.275-3.294-1.29-6.18c1.083-0.993,2.091-2.073,2.311-2.669
				c0.409-1.108,0.958-3.062,1.115-3.629c0.52,0.608,1.283,1.001,2.146,1.001c1.566,0,2.836-1.27,2.836-2.836
				S233.566,106.533,232,106.533z"/>
		</g>
		<g>
			<path fill="#F99680" d="M163.177,128.957c-0.529,1.55,0,4.273-0.189,5.218c-0.189,0.945-0.416,1.399-0.416,1.399
				s1.513,0.926,1.738-2.585c0,0,0.372,3.897,1.015,3.897c0.643,0,1.218-0.839,1.161-3.619c0,0,0.718,3.158,1.134,3.271
				c0.416,0.113,1.191,0.303,1.191-0.416s-0.737-3.819,0.87-3.914c0,0,0.303,4.651,0.832,5.218s1.418,0.076,1.418-0.378
				c0-0.454-0.246-1.966-0.284-4.5c0,0,0-1.002,1.002-1.947c0,0,1.645-0.132,3.536,0.851c1.891,0.983,3.744-0.303,3.819-1.172
				c0,0-0.983,0.265-2.76-1.097c-1.777-1.361-1.248-1.21-2.95-2.269c-1.702-1.059-4.727-1.21-6.655-1.059
				C165.711,126.008,163.177,128.957,163.177,128.957z"/>
		</g>
		<g>
			<path fill="#F99680" d="M253.894,139.886c0.792,0.554,2.382,0.34,3.933,0.227c1.55-0.113,3.441-0.794,3.441-0.794
				s0.643,0.454,0.416,2.836c-0.227,2.382-0.87,4.046-0.567,4.689c0.303,0.643,1.777,0,1.777,0s-0.416-0.756-0.151-2.193
				c0.265-1.437,1.399-2.874,1.588-3.479c0.189-0.605,0.303,3.819,0.303,4.689s1.626,0.189,1.626-0.151s-0.076-0.945,0-1.891
				c0.076-0.945,0.227-2.798,0.605-2.798s0.87,0.605,0.87,1.815s-0.454,1.966,0.265,2.42c0.718,0.454,1.437-0.303,1.437-0.303
				s-0.189-0.038-0.265-1.021c-0.076-0.983,0.454-3.252,0.454-3.252s0.113,2.534,1.021,3.101c0.908,0.567,1.324-0.113,1.324-0.113
				s-0.454-1.21-0.832-2.534c-0.378-1.324-1.134-5.559-1.777-5.37s-1.172,1.248-1.626,0.983c-0.454-0.265-0.945-0.958-1.513-0.989
				c-0.567-0.032-0.756,1.103-1.55,0.838c-0.794-0.265-0.832-0.997-1.739-0.839c-0.908,0.158-0.416,1.066-1.021,1.028
				s-1.172-0.832-2.118-0.643c-0.945,0.189-1.399,1.929-3.252,2.155c-1.853,0.227-2.987,0.265-2.987,0.265
				S253.138,139.356,253.894,139.886z"/>
		</g>
		<g>
			<path fill="#D35971" d="M220.357,117.147c1.517,1.714,4.723,1.692,6.07,0.355c0,0-0.768,3.441-6.34,3.406
				C220.087,120.909,220.428,119.108,220.357,117.147z"/>
		</g>
		<g>
			<ellipse fill="#D35971" cx="220.301" cy="111.274" rx="1.177" ry="0.723"/>
		</g>
		<g>
			<ellipse fill="#D35971" cx="227.306" cy="111.558" rx="1.177" ry="0.723"/>
		</g>
		<g>
			<path fill="#D35971" d="M230.808,110.438c0,0,0.425-2.921,2.666-2.184L230.808,110.438z"/>
		</g>
		<g>
			<path fill="#D35971" d="M215.238,108.367c0,0,2.014-0.737,2.411,1.843L215.238,108.367z"/>
		</g>
		<g>
			<path fill="#ED5526" d="M225.302,100.582c0,0-1.13,6.102-4.231,6.745c-3.101,0.643-6.844-0.567-6.844-0.567
				s1.059-3.063,3.857-5.597C220.882,98.63,225.302,100.582,225.302,100.582z"/>
		</g>
		<g>
			<path fill="#ED5526" d="M225.302,100.582c0,0,1.162,3.229-2.045,6.254c0,0,1.898-0.733,2.465-3.127
				c0.567-2.394,0.705-3.845,0.705-3.845L225.302,100.582z"/>
		</g>
		<g>
			<path fill="#ED5526" d="M226.129,100.779c0,0,4.245,5.496,3.451,8.462c0,0,1.664-1.028,1.513-4.231
				c-0.151-3.203-3.786-5.145-3.786-5.145L226.129,100.779z"/>
		</g>
		<g>
			<path fill="#F0CFBD" d="M219.75,122.076l-1.401,1.776c0,0,2.042,4.5,2.231,6.693l1.929-4.424
				C222.508,126.121,221.227,125.178,219.75,122.076z"/>
		</g>
		<g>
			<path fill="#F0CFBD" d="M222.508,126.121c0,0,3.462-0.952,4.813-3.558l1.086,1.779l-4.386,6.203L222.508,126.121z"/>
		</g>
		<g>
			<path fill="#303535" d="M219.294,182.611c-4.386-4.494-9.715,4.804-9.302,9.648C209.992,192.259,217.252,184.231,219.294,182.611
				z"/>
		</g>
		<g>
			<path fill="#343A3A" d="M227.462,251.703h8.092c0,0-1.891,13.916,1.286,15.731c4.025,2.3,11.571,4.311,10.21,10.134
				c0,0-8.092-2.042-12.025-2.647c-3.933-0.605-9.907-1.134-9.907-1.134L227.462,251.703z"/>
		</g>
		<g>
			<path fill="#343A3A" d="M215.512,233.93l8.47,19.059c0,0-5.975,2.344-11.723,5.748c-5.748,3.403-9.832,7.487-9.832,7.487
				s-2.269-2.269,1.134-8.244c3.403-5.975,8.126-7.79,6.71-12.857c-1.416-5.067-2.134-7.685-2.134-7.685L215.512,233.93z"/>
		</g>
		<g>
			<path fill="#DB833A" d="M205,137.069c0.51-3.517,1.588-5.324,1.588-5.324s-5.553,1.55-7.74,7.492
				C198.849,139.237,203.355,137.239,205,137.069z"/>
		</g>
		<g>
			<path fill="#DB833A" d="M242.588,140.831c0,0-6.597,1.66-5.227,9.981C237.361,150.812,239.336,145.747,242.588,140.831z"/>
		</g>
		<g>
			<circle fill="#343A3A" cx="220.521" cy="109.675" r="0.692"/>
		</g>
		<g>
			<circle fill="#343A3A" cx="227.119" cy="109.979" r="0.692"/>
		</g>
	</g>
	<g id="man_wear_red_tshirt_2_">
		<g>
			<path fill="#F99680" d="M138.295,299.463l-2.269,11.117l8.111,1.531c0,0,3.687-11.004,3.517-11.004
				S142.578,303.745,138.295,299.463z"/>
		</g>
		<g>
			<path fill="#F99680" d="M165.465,289.083l1.475,8.395l9.019-2.666l-0.624-11.685
				C175.335,283.127,173.009,289.083,165.465,289.083z"/>
		</g>
		<g>
			<path fill="#D35971" d="M138.218,299.841l-0.916,4.49c0,0,5.071,2.365,9.811-1.299l0.466-1.546L138.218,299.841z"/>
		</g>
		<g>
			<path fill="#D35971" d="M175.335,283.127c0,0,0.175,6.619-8.959,11.137l-0.91-5.181L175.335,283.127z"/>
		</g>
		<g>
			<rect x="108.037" y="164.822" fill="#82C2D1" width="38.691" height="35.576"/>
		</g>
		<g>
			<path fill="#343A3A" d="M76.361,267.252c0,0,11.566,19.619,21.095,24.27s22.235-2.723,31.084-10.323s9.87-7.601,11.344-5.105
				s-2.382,17.243-2.382,20.874s2.104,4.179,4.342,5.209c2.238,1.03,6.322,0.236,10.292-4.699s7.374-18.435,7.374-18.435
				s2.155,7.601,5.956,10.04c3.8,2.439,8.792-1.305,9.87-5.956s0.737-15.428,0-24.958c-0.737-9.529-5.048-18.832-14.464-17.924
				c-9.416,0.908-41.293,10.664-46.398,11.117c-5.105,0.454-5.37-0.87-5.37-0.87S86.463,249.561,76.361,267.252z"/>
		</g>
		<g>
			<path fill="#E53362" d="M68.074,200.143c0,0-4.992,0.851-6.069,4.538c-1.078,3.687-1.758,13.594,0.51,30.157
				c2.269,16.563,11.193,33.939,11.888,33.933c1.679-0.013,7.776-6.858,12.238-10.942c4.462-4.084,22.462-7.336,22.462-7.336
				s-1.172-1.929-1.437-3.706c-0.265-1.777-4.311-5.483-3.101-6.315c1.21-0.832,30.403-22.424,30.403-22.424l-6.958-9
				l-16.336,10.437c0,0,3.857-5.814,5.521-8.995c1.664-3.181,4.689-10.091,4.689-10.091h-12.781c0,0-5.691,11.826-6.088,11.713
				c-0.397-0.113-1.418-1.702-2.042-1.446s-1.418,2.014-1.815,1.843c-0.397-0.17-13.386-12.611-14.975-13.859
				c-1.588-1.248-5.502-0.095-5.502-0.095L68.074,200.143z"/>
		</g>
		<g>
			<path fill="#F99680" d="M81.267,180.575c0-0.013,0.004-0.025,0.004-0.038c0-0.084-0.022-0.162-0.025-0.245
				c-0.047-0.598-0.083-0.962-0.083-0.962s-0.012,0.005-0.013,0.005c-0.572-3.267-3.406-5.755-6.837-5.755
				c-3.548,0-6.442,2.665-6.871,6.097c-1.952,0.231-3.471,1.872-3.471,3.886c0,2.172,1.761,3.933,3.933,3.933
				c0.292,0,0.794,0,0.794,0s0.851,3.479,0.699,6.542c-0.151,3.063-0.699,5.143-0.699,5.143s8.451,2.874,9.094,0.681
				c0.643-2.193-2.203-7.262-0.988-9.341c0.001-0.001,0-0.003,0.001-0.004c1.517,0.206,2.869,0.186,3.521-0.071
				C81.797,189.864,81.473,183.345,81.267,180.575z"/>
		</g>
		<g>
			<path fill="#F99680" d="M129.333,210.665c0,0,3.262-1.985,4.056-3.403c0.794-1.418,0.993-2.666,2.581-4.056
				c1.588-1.39,2.241-2.297,2.581-3.914c0.34-1.617,0.199-2.382,0.709-2.467c0.51-0.085,1.39,0.085,1.588,1.106
				c0.199,1.021-0.284,4.368,0.199,4.793c0.482,0.425,3.375-0.993,4.538-2.609c1.163-1.617,1.144-3.432,1.144-3.432
				s0.614,0.51,0.785,1.503s-0.085,1.276,0,1.9c0.085,0.624,0.347,1.22,0.06,2.127c-0.287,0.908,0.095,0.936,0.131,1.56
				c0.036,0.624-0.928,1.957-0.928,1.957s1.73-0.454,1.872,0.539c0,0-2.297,0.624-3.715,1.39s-3.63,2.269-5.275,3.12
				c-1.645,0.851-6.636,5.077-6.636,5.077L129.333,210.665z"/>
		</g>
		<g>
			<path fill="#D35971" d="M76.804,190.519c-1.942-0.359-5.44-1.89-5.44-1.89s0.289,4.899,5.335,4.926
				C76.698,193.555,76.147,191.578,76.804,190.519z"/>
		</g>
		<g>
			<path fill="#D35971" d="M69.095,184.715c0,0-1.446-4.169-4.056-1.305L69.095,184.715z"/>
		</g>
		<g>
			
				<ellipse transform="matrix(0.992 -0.1261 0.1261 0.992 -22.4948 10.959)" fill="#D35971" cx="75.326" cy="183.183" rx="1.284" ry="0.908"/>
		</g>
		<g>
			
				<ellipse transform="matrix(0.992 -0.1261 0.1261 0.992 -22.3542 11.6738)" fill="#D35971" cx="81.043" cy="182.43" rx="0.909" ry="0.643"/>
		</g>
		<g>
			<path fill="#D35971" d="M129.333,210.665c0,0,2.634,3.052,6.422,2.944l-2.735,2.246L129.333,210.665z"/>
		</g>
		<g>
			<path fill="#343A3A" d="M63.971,182.786c0,0-4.632-4.651-4.292-6.693c0.34-2.042,3.914-4.651,3.914-4.651
				s-2.552-1.702-1.531-5.162c1.021-3.46,5.672-2.099,5.672-2.099s-0.113-3.347,3.233-3.573c3.347-0.227,2.723,3.176,2.723,3.176
				s4.084-4.765,8.168-1.191c4.084,3.573,0.567,6.977,0.567,6.977s3.857-0.51,4.935,3.517c1.078,4.027-4.424,4.424-4.424,4.424
				s0.764,3.064-1.689,2.78c0,0-0.013-0.766-0.268-1.73c0,0-3.403,2.241-4.566-1.276c0,0-3.517,0.936-3.573-2.269
				c0,0-3.091,0.369-3.375,1.929c0,0-0.227,3.63-1.843,4.453c0,0,0.268-1.032-0.178-1.721
				C67.442,179.675,65.257,179.525,63.971,182.786z"/>
		</g>
		<g>
			<path fill="#F0CFBD" d="M69.014,197.62l-0.94,2.523c0,0,7.856,1.39,9.416,3.035l0.083-2.955
				C77.573,200.223,72.875,198.046,69.014,197.62z"/>
		</g>
		<g>
			<path fill="#F0CFBD" d="M77.686,197.512l-0.113,2.711c0,0,1.306,0.544,1.335,1.849l-0.227-3.517L77.686,197.512z"/>
		</g>
		<g>
			<path fill="#B22449" d="M104.565,240.472c-3.025,2.004-5.823,2.004-8.849,0c-3.025-2.004-10.588-8.206-10.588-8.206
				s1.059,12.781,8.849,16.638c7.79,3.857,11.515-5.73,11.515-5.73S104.054,241.229,104.565,240.472z"/>
		</g>
		<g>
			<path fill="#B22449" d="M111.674,219.485l-3.63,2.798c0,0-0.585-12.321,8.934-11.389
				C116.978,210.895,113.867,216.819,111.674,219.485z"/>
		</g>
		<g>
			<polygon fill="#B22449" points="128.01,209.049 126.674,209.902 133.638,219.032 134.968,218.048 			"/>
		</g>
		<g>
			<path fill="#B22449" d="M109.102,200.399c0,0,9.255,0.63,11.661,2.522l1.12-2.522H109.102z"/>
		</g>
		<g>
			<path fill="#343A3A" d="M166.94,297.478l2.59,21.006c0,0,6.882-2.647,13.159-4.84s11.874-2.776,11.874-2.776
				s0.227-4.541-4.613-5.08c-4.84-0.539-12.554,1.049-13.235-2.883s-0.756-8.092-0.756-8.092L166.94,297.478z"/>
		</g>
		<g>
			<path fill="#343A3A" d="M136.026,310.58l-6.428,20.079c0,0,20.874,5.294,24.806,8.092c0,0,1.588-5.597-4.008-8.849
				c-5.597-3.252-7.79-6.353-7.79-9s1.531-8.792,1.531-8.792L136.026,310.58z"/>
		</g>
		<g>
			<path fill="#303535" d="M136.459,275.105c5.239-3.133,16.054-13.041,19.533-10.923c3.479,2.118,3.517,14.861,3.517,14.861
				s-7.735,3.744-11.525-0.643C144.194,274.014,138.783,274.457,136.459,275.105z"/>
		</g>
		<g>
			<circle fill="#343A3A" cx="75.206" cy="180.73" r="0.61"/>
		</g>
		<g>
			<circle fill="#343A3A" cx="80.297" cy="180.31" r="0.473"/>
		</g>
	</g>
	<g id="object_10_">
		<g>
			<rect x="227.462" y="150.812" fill="#82C2D1" width="18.545" height="18.545"/>
		</g>
		<g>
			<rect x="192.736" y="150.812" fill="#82C2D1" width="17.537" height="17.537"/>
		</g>
		<g>
			<rect x="208.607" y="176.466" fill="#82C2D1" width="10.687" height="10.687"/>
		</g>
		<g>
			<rect x="201.505" y="197.62" fill="#82C2D1" width="14.577" height="14.577"/>
		</g>
		<g>
			<rect x="227.67" y="186.838" fill="#84B1BE" width="14.822" height="14.822"/>
		</g>
		<g>
			<rect x="237.809" y="216.564" fill="#84B1BE" width="11.77" height="11.77"/>
		</g>
		<g>
			<rect x="224.531" y="209.049" fill="#82C2D1" width="7.516" height="7.516"/>
		</g>
		<g>
			<rect x="173.236" y="181.283" fill="#CAE9EF" width="23.625" height="23.625"/>
		</g>
		<g>
			<rect x="237.809" y="165.351" fill="#CAE9EF" width="14.732" height="14.732"/>
		</g>
		<g>
			<rect x="238.806" y="204.598" fill="#CAE9EF" width="22.177" height="22.177"/>
		</g>
	</g>
	<g id="grass_10_">
		<g>
			<g>
				<path fill="#A8A848" d="M423.685,353.961c0,0-4.036-46.873,27.771-57.469c31.807-10.596-24.147,57.469-24.147,57.469H423.685z"
					/>
			</g>
			<g>
				<path fill="#A8A848" d="M431.797,353.961c0,0,16.376-32.5,35.811-30.397s-30.592,30.397-30.592,30.397H431.797z"/>
			</g>
			<g>
				<path fill="#FFFFFF" d="M424.778,354.23c-0.027,0-0.056-0.004-0.083-0.013c-0.141-0.046-0.218-0.197-0.173-0.339
					c9.388-29.045,20.033-47.037,34.516-58.338c0.114-0.091,0.284-0.07,0.377,0.047c0.091,0.117,0.07,0.286-0.047,0.377
					c-14.391,11.231-24.981,29.143-34.333,58.08C424.998,354.157,424.892,354.23,424.778,354.23z"/>
			</g>
			<g>
				<path fill="#FFFFFF" d="M434.024,354.23c-0.057,0-0.114-0.018-0.163-0.056c-0.119-0.089-0.141-0.258-0.05-0.376
					c16.658-21.798,37.053-29.311,37.256-29.384c0.141-0.048,0.293,0.022,0.344,0.162c0.05,0.14-0.022,0.294-0.162,0.344
					c-0.203,0.072-20.455,7.539-37.013,29.204C434.184,354.193,434.104,354.23,434.024,354.23z"/>
			</g>
		</g>
		<g>
			<g>
				<path fill="#A8A848" d="M381.131,353.961c0,0-2.303-26.745,15.846-32.792c18.149-6.046-13.778,32.792-13.778,32.792H381.131z"/>
			</g>
			<g>
				<path fill="#A8A848" d="M385.759,353.961c0,0,9.344-18.544,20.433-17.345s-17.456,17.345-17.456,17.345H385.759z"/>
			</g>
			<g>
				<path fill="#FFFFFF" d="M381.754,354.23c-0.027,0-0.056-0.004-0.083-0.013c-0.141-0.046-0.218-0.197-0.173-0.339
					c5.364-16.596,11.45-26.879,19.734-33.343c0.114-0.091,0.284-0.071,0.377,0.047c0.091,0.117,0.07,0.286-0.047,0.377
					c-8.192,6.393-14.222,16.596-19.551,33.085C381.974,354.157,381.868,354.23,381.754,354.23z"/>
			</g>
			<g>
				<path fill="#FFFFFF" d="M387.03,354.23c-0.057,0-0.114-0.018-0.163-0.056c-0.119-0.089-0.141-0.258-0.05-0.376
					c9.525-12.465,21.194-16.763,21.311-16.805c0.141-0.049,0.293,0.022,0.344,0.162c0.05,0.14-0.022,0.294-0.162,0.344
					c-0.116,0.041-11.642,4.293-21.067,16.625C387.19,354.193,387.11,354.23,387.03,354.23z"/>
			</g>
		</g>
		<g>
			<g>
				<path fill="#A8A848" d="M227.726,353.961c0,0,2.214-26.745-15.237-32.792c-17.451-6.046,13.249,32.792,13.249,32.792H227.726z"
					/>
			</g>
			<g>
				<path fill="#A8A848" d="M223.276,353.961c0,0-8.985-18.544-19.648-17.345c-10.663,1.2,16.785,17.345,16.785,17.345H223.276z"/>
			</g>
			<g>
				<path fill="#FFFFFF" d="M227.127,354.23c-0.114,0-0.221-0.073-0.256-0.189c-5.125-16.487-10.923-26.691-18.8-33.085
					c-0.115-0.093-0.133-0.264-0.04-0.378c0.094-0.118,0.265-0.131,0.378-0.04c7.965,6.465,13.817,16.748,18.975,33.343
					c0.044,0.142-0.035,0.293-0.176,0.336C227.18,354.225,227.153,354.23,227.127,354.23z"/>
			</g>
			<g>
				<path fill="#FFFFFF" d="M222.054,354.23c-0.082,0-0.164-0.038-0.216-0.109c-9.06-12.33-20.142-16.582-20.254-16.623
					c-0.139-0.052-0.209-0.207-0.158-0.346c0.052-0.14,0.205-0.211,0.346-0.158c0.112,0.042,11.337,4.342,20.497,16.807
					c0.088,0.12,0.063,0.289-0.057,0.376C222.165,354.213,222.11,354.23,222.054,354.23z"/>
			</g>
		</g>
	</g>
	<g id="data_2_">
		<g>
			<rect x="187.53" y="130.546" fill="#4DABC1" width="18.756" height="18.756"/>
		</g>
		<g>
			<rect x="146.728" y="135.735" fill="#4DABC1" width="11.394" height="11.394"/>
		</g>
		<g>
			<rect x="114.699" y="158.062" fill="#4DABC1" width="16.954" height="16.954"/>
		</g>
		<g>
			<rect x="155.698" y="194.249" fill="#4DABC1" width="20.699" height="20.699"/>
		</g>
		<g>
			<rect x="189.366" y="212.197" fill="#4DABC1" width="28.983" height="28.983"/>
		</g>
		<g>
			<rect x="271.817" y="194.249" fill="#4DABC1" width="24.783" height="24.783"/>
		</g>
		<g>
			<rect x="279.873" y="145.822" fill="#4DABC1" width="20.717" height="20.717"/>
		</g>
		<g>
			<rect x="289.175" y="175.015" fill="#4DABC1" width="10.777" height="10.777"/>
		</g>
		<g>
			<rect x="249.167" y="176.466" fill="#82C2D1" width="22.17" height="22.17"/>
		</g>
		<g>
			<rect x="278.474" y="176.466" fill="#82C2D1" width="12.162" height="12.162"/>
		</g>
		<g>
			<rect x="285.772" y="158.062" fill="#82C2D1" width="10.904" height="10.904"/>
		</g>
		<g>
			<rect x="174.143" y="167.229" fill="#82C2D1" width="20.322" height="20.322"/>
		</g>
		<g>
			<rect x="159.509" y="167.229" fill="#82C2D1" width="6.349" height="6.349"/>
		</g>
		<g>
			<rect x="157.808" y="181.417" fill="#82C2D1" width="7.212" height="7.212"/>
		</g>
		<g>
			<rect x="159.509" y="197.62" fill="#82C2D1" width="29.155" height="29.155"/>
		</g>
		<g>
			<rect x="254.613" y="206.269" fill="#82C2D1" width="31.169" height="31.169"/>
		</g>
		<g>
			<rect x="123.321" y="140.831" fill="#82C2D1" width="18.523" height="18.523"/>
		</g>
		<g>
			<rect x="284.555" y="195.36" fill="#82C2D1" width="6.081" height="6.081"/>
		</g>
		<g>
			<rect x="290.636" y="206.269" fill="#82C2D1" width="14.199" height="14.199"/>
		</g>
		<g>
			<path fill="#3C5E93" d="M408.031,240.184H306.088c-0.692,0-1.253-0.561-1.253-1.253V136.988c0-0.692,0.561-1.253,1.253-1.253
				h101.942c0.692,0,1.253,0.561,1.253,1.253v101.942C409.284,239.623,408.723,240.184,408.031,240.184z"/>
		</g>
		<g>
			<path fill="#82C2D1" d="M404.338,236.222h-94.557c-0.544,0-0.984-0.441-0.984-0.984v-94.557c0-0.544,0.441-0.984,0.984-0.984
				h94.557c0.544,0,0.984,0.441,0.984,0.984v94.557C405.322,235.782,404.882,236.222,404.338,236.222z"/>
		</g>
		<g>
			<polygon fill="#CAE9EF" points="372.745,139.697 308.797,204.909 308.797,220.469 388.973,139.697 			"/>
		</g>
		<g>
			<polygon fill="#CAE9EF" points="393.089,139.697 308.797,226.746 308.797,231.057 397.374,139.697 			"/>
		</g>
		<g>
			<polygon fill="#CAE9EF" points="311.183,153.333 311.183,142.722 320.259,142.722 			"/>
		</g>
		<g>
			<polygon fill="#CAE9EF" points="401.948,222.294 401.948,232.905 392.873,232.905 			"/>
		</g>
		<g>
			<rect x="409.284" y="143.997" fill="#82C2D1" width="112.45" height="11.28"/>
		</g>
		<g>
			<rect x="409.284" y="166.988" fill="#82C2D1" width="131.055" height="11.28"/>
		</g>
		<g>
			<rect x="409.284" y="189.979" fill="#82C2D1" width="112.45" height="11.28"/>
		</g>
		<g>
			<rect x="409.284" y="212.97" fill="#82C2D1" width="131.055" height="11.28"/>
		</g>
		<g>
			<rect x="409.284" y="201.259" fill="#4DABC1" width="106.324" height="11.711"/>
		</g>
		<g>
			<rect x="409.284" y="178.268" fill="#4DABC1" width="93.165" height="11.711"/>
		</g>
		<g>
			<rect x="409.284" y="155.276" fill="#4DABC1" width="99.518" height="11.711"/>
		</g>
		<g>
			<rect x="409.284" y="154.369" fill="#CAE9EF" width="112.45" height="0.908"/>
		</g>
		<g>
			<rect x="409.284" y="177.36" fill="#CAE9EF" width="131.055" height="0.908"/>
		</g>
		<g>
			<rect x="409.284" y="200.351" fill="#CAE9EF" width="112.45" height="0.908"/>
		</g>
		<g>
			<rect x="409.284" y="223.342" fill="#CAE9EF" width="131.055" height="0.908"/>
		</g>
		<g>
			<rect x="138.99" y="150.812" fill="#CAE9EF" width="20.88" height="20.88"/>
		</g>
		<g>
			<rect x="149.43" y="175.015" fill="#CAE9EF" width="12.536" height="12.536"/>
		</g>
		<g>
			<rect x="171.288" y="152.327" fill="#CAE9EF" width="18.077" height="18.077"/>
		</g>
		<g>
			<rect x="262.705" y="170.404" fill="#CAE9EF" width="18.225" height="18.225"/>
		</g>
		<g>
			<rect x="129.333" y="125.807" fill="#82C2D1" width="7.531" height="7.531"/>
		</g>
		<g>
			<rect x="132.582" y="113.498" fill="#82C2D1" width="5.53" height="5.53"/>
		</g>
		<g>
			<rect x="146.728" y="125.1" fill="#82C2D1" width="4.472" height="4.472"/>
		</g>
		<g>
			<rect x="104.262" y="111.998" fill="#82C2D1" width="8.911" height="8.911"/>
		</g>
		<g>
			<rect x="120.598" y="119.028" fill="#82C2D1" width="3.536" height="3.536"/>
		</g>
		<g>
			<rect x="114.699" y="133.338" fill="#82C2D1" width="4.345" height="4.345"/>
		</g>
		<g>
			<rect x="104.262" y="139.697" fill="#82C2D1" width="9.605" height="9.605"/>
		</g>
		<g>
			<rect x="90.195" y="126.311" fill="#82C2D1" width="7.027" height="7.027"/>
		</g>
		<g>
			<rect x="245.175" y="244.219" fill="#82C2D1" width="5.859" height="5.859"/>
		</g>
		<g>
			<rect x="257.033" y="242.08" fill="#82C2D1" width="3.95" height="3.95"/>
		</g>
		<g>
			<rect x="271.337" y="242.08" fill="#82C2D1" width="7.997" height="7.997"/>
		</g>
		<g>
			<rect x="289.175" y="237.438" fill="#82C2D1" width="4.642" height="4.642"/>
		</g>
		<g>
			<rect x="291.224" y="226.684" fill="#82C2D1" width="2.594" height="2.594"/>
		</g>
		<g>
			<path fill="#474F50" d="M258.128,312.649h-2.15c-0.297,0-0.538-0.24-0.538-0.538s0.24-0.538,0.538-0.538h2.15
				c0.297,0,0.538,0.24,0.538,0.538S258.425,312.649,258.128,312.649z M253.827,312.649h-2.15c-0.297,0-0.538-0.24-0.538-0.538
				s0.24-0.538,0.538-0.538h2.15c0.297,0,0.538,0.24,0.538,0.538S254.124,312.649,253.827,312.649z M249.526,312.649h-2.15
				c-0.297,0-0.538-0.24-0.538-0.538s0.24-0.538,0.538-0.538h2.15c0.297,0,0.538,0.24,0.538,0.538S249.823,312.649,249.526,312.649z
				 M245.225,312.649h-2.15c-0.297,0-0.538-0.24-0.538-0.538s0.24-0.538,0.538-0.538h2.15c0.297,0,0.538,0.24,0.538,0.538
				S245.523,312.649,245.225,312.649z M240.925,312.649h-2.15c-0.297,0-0.538-0.24-0.538-0.538s0.24-0.538,0.538-0.538h2.15
				c0.297,0,0.538,0.24,0.538,0.538S241.222,312.649,240.925,312.649z M236.624,312.649h-2.15c-0.297,0-0.538-0.24-0.538-0.538
				s0.24-0.538,0.538-0.538h2.15c0.297,0,0.538,0.24,0.538,0.538S236.921,312.649,236.624,312.649z M232.323,312.649h-2.15
				c-0.297,0-0.538-0.24-0.538-0.538s0.24-0.538,0.538-0.538h2.15c0.297,0,0.538,0.24,0.538,0.538S232.62,312.649,232.323,312.649z
				 M228.022,312.649h-2.15c-0.297,0-0.538-0.24-0.538-0.538s0.24-0.538,0.538-0.538h2.15c0.297,0,0.538,0.24,0.538,0.538
				S228.319,312.649,228.022,312.649z M223.721,312.649h-2.15c-0.297,0-0.538-0.24-0.538-0.538s0.24-0.538,0.538-0.538h2.15
				c0.297,0,0.538,0.24,0.538,0.538S224.019,312.649,223.721,312.649z M219.421,312.649h-0.96c-0.297,0-0.538-0.24-0.538-0.538
				s0.24-0.538,0.538-0.538h0.96c0.297,0,0.538,0.24,0.538,0.538S219.718,312.649,219.421,312.649z M260.277,312.643
				c-0.294,0-0.534-0.237-0.538-0.532c-0.003-0.297,0.235-0.54,0.532-0.543c0.713-0.007,1.425-0.023,2.135-0.046
				c0.34-0.024,0.545,0.224,0.555,0.52c0.009,0.297-0.224,0.546-0.52,0.555c-0.718,0.023-1.439,0.039-2.16,0.046
				C260.28,312.643,260.279,312.643,260.277,312.643z M264.574,312.504c-0.285,0-0.521-0.222-0.537-0.508
				c-0.017-0.297,0.211-0.55,0.507-0.566c0.713-0.039,1.425-0.085,2.134-0.139c0.261-0.045,0.554,0.196,0.578,0.495
				c0.022,0.296-0.199,0.554-0.496,0.576c-0.717,0.056-1.435,0.102-2.157,0.141C264.593,312.504,264.583,312.504,264.574,312.504z
				 M268.859,312.178c-0.273,0-0.507-0.207-0.534-0.485c-0.028-0.295,0.187-0.559,0.483-0.588c0.711-0.069,1.421-0.147,2.126-0.231
				c0.281-0.048,0.562,0.174,0.597,0.469c0.036,0.295-0.174,0.563-0.469,0.597c-0.714,0.086-1.43,0.164-2.149,0.235
				C268.895,312.177,268.877,312.178,268.859,312.178z M273.128,311.665c-0.264,0-0.493-0.194-0.531-0.462
				c-0.042-0.294,0.163-0.566,0.457-0.608c0.707-0.1,1.411-0.209,2.114-0.324c0.287-0.05,0.57,0.15,0.617,0.443
				c0.048,0.293-0.15,0.569-0.443,0.617c-0.709,0.118-1.422,0.227-2.137,0.329C273.18,311.663,273.154,311.665,273.128,311.665z
				 M277.37,310.966c-0.253,0-0.479-0.18-0.527-0.438c-0.056-0.292,0.137-0.573,0.428-0.628c0.701-0.132,1.401-0.272,2.097-0.419
				c0.288-0.056,0.575,0.124,0.637,0.415c0.061,0.291-0.124,0.575-0.415,0.637c-0.705,0.149-1.41,0.289-2.12,0.423
				C277.438,310.963,277.404,310.966,277.37,310.966z M281.581,310.078c-0.245,0-0.465-0.167-0.523-0.415
				c-0.068-0.289,0.111-0.579,0.4-0.646c0.694-0.164,1.387-0.334,2.076-0.511c0.29-0.073,0.581,0.1,0.655,0.386
				c0.074,0.288-0.099,0.581-0.386,0.655c-0.697,0.18-1.397,0.352-2.099,0.516C281.663,310.074,281.621,310.078,281.581,310.078z
				 M285.743,309.006c-0.235,0-0.45-0.155-0.518-0.392c-0.08-0.287,0.086-0.583,0.372-0.664c0.688-0.193,1.371-0.394,2.053-0.602
				c0.282-0.085,0.583,0.075,0.671,0.358c0.086,0.283-0.073,0.584-0.358,0.671c-0.688,0.21-1.38,0.413-2.074,0.608
				C285.84,309,285.791,309.006,285.743,309.006z M289.856,307.752c-0.226,0-0.436-0.143-0.51-0.369
				c-0.093-0.282,0.06-0.586,0.341-0.679c0.676-0.224,1.348-0.454,2.017-0.691c0.274-0.101,0.586,0.047,0.687,0.328
				c0.099,0.279-0.047,0.587-0.328,0.687c-0.675,0.239-1.356,0.471-2.038,0.697C289.968,307.744,289.912,307.752,289.856,307.752z
				 M293.895,306.32c-0.216,0-0.421-0.132-0.503-0.346c-0.105-0.277,0.035-0.588,0.312-0.694c0.665-0.252,1.326-0.511,1.985-0.778
				c0.274-0.111,0.588,0.022,0.7,0.297c0.111,0.275-0.022,0.588-0.297,0.7c-0.665,0.269-1.335,0.53-2.006,0.786
				C294.023,306.308,293.959,306.32,293.895,306.32z M297.868,304.71c-0.208,0-0.406-0.122-0.493-0.326
				c-0.118-0.273,0.008-0.589,0.281-0.706c0.653-0.281,1.303-0.569,1.949-0.865c0.267-0.121,0.589-0.005,0.713,0.266
				c0.123,0.27,0.004,0.589-0.266,0.713c-0.654,0.298-1.31,0.59-1.972,0.874C298.011,304.697,297.94,304.71,297.868,304.71z
				 M301.769,302.929c-0.199,0-0.391-0.111-0.484-0.302c-0.129-0.268-0.018-0.589,0.249-0.719c0.642-0.311,1.279-0.627,1.912-0.951
				c0.263-0.133,0.588-0.029,0.723,0.234c0.135,0.265,0.03,0.588-0.234,0.723c-0.639,0.327-1.283,0.647-1.931,0.962
				C301.929,302.913,301.848,302.929,301.769,302.929z M305.591,300.974c-0.191,0-0.376-0.102-0.474-0.282
				c-0.141-0.261-0.043-0.587,0.218-0.729c0.627-0.338,1.248-0.682,1.867-1.033c0.257-0.149,0.586-0.058,0.733,0.202
				c0.147,0.258,0.057,0.587-0.202,0.733c-0.625,0.355-1.255,0.704-1.888,1.046C305.766,300.953,305.678,300.974,305.591,300.974z
				 M309.322,298.854c-0.183,0-0.361-0.093-0.462-0.261c-0.152-0.255-0.068-0.586,0.186-0.738c0.612-0.365,1.219-0.737,1.822-1.115
				c0.251-0.156,0.582-0.082,0.741,0.17c0.158,0.251,0.082,0.583-0.17,0.741c-0.609,0.382-1.222,0.758-1.841,1.128
				C309.511,298.83,309.416,298.854,309.322,298.854z M312.959,296.573c-0.174,0-0.345-0.085-0.448-0.242
				c-0.164-0.248-0.096-0.581,0.152-0.744c0.594-0.393,1.184-0.791,1.77-1.195c0.244-0.17,0.579-0.109,0.748,0.137
				c0.169,0.245,0.107,0.58-0.137,0.748c-0.592,0.408-1.189,0.811-1.789,1.207C313.164,296.544,313.061,296.573,312.959,296.573z
				 M316.493,294.133c-0.166,0-0.331-0.078-0.436-0.223c-0.174-0.24-0.12-0.576,0.121-0.751c0.578-0.418,1.15-0.841,1.717-1.272
				c0.235-0.178,0.572-0.134,0.753,0.104c0.18,0.236,0.133,0.573-0.104,0.753c-0.573,0.435-1.152,0.864-1.736,1.286
				C316.713,294.099,316.603,294.133,316.493,294.133z M319.918,291.538c-0.159,0-0.315-0.07-0.422-0.204
				c-0.184-0.233-0.144-0.571,0.088-0.756c0.56-0.442,1.113-0.89,1.661-1.344c0.229-0.19,0.568-0.159,0.757,0.07
				c0.19,0.229,0.158,0.568-0.07,0.757c-0.554,0.46-1.114,0.912-1.68,1.361C320.153,291.5,320.035,291.538,319.918,291.538z
				 M323.227,288.797c-0.15,0-0.3-0.063-0.406-0.186c-0.194-0.224-0.17-0.564,0.055-0.758c0.539-0.467,1.072-0.939,1.6-1.418
				c0.219-0.196,0.561-0.181,0.76,0.038c0.198,0.22,0.182,0.561-0.038,0.76c-0.534,0.483-1.074,0.961-1.619,1.432
				C323.477,288.754,323.352,288.797,323.227,288.797z M326.414,285.913c-0.143,0-0.285-0.057-0.391-0.168
				c-0.204-0.216-0.194-0.557,0.021-0.76c0.519-0.489,1.031-0.985,1.538-1.486c0.211-0.21,0.551-0.207,0.76,0.004
				c0.209,0.211,0.207,0.552-0.004,0.76c-0.513,0.507-1.032,1.007-1.555,1.503C326.68,285.865,326.546,285.913,326.414,285.913z
				 M329.475,282.892c-0.134,0-0.27-0.05-0.374-0.151c-0.213-0.207-0.219-0.547-0.013-0.76c0.497-0.512,0.987-1.03,1.472-1.552
				c0.204-0.218,0.544-0.23,0.759-0.028c0.218,0.202,0.231,0.542,0.028,0.759c-0.489,0.528-0.986,1.05-1.487,1.569
				C329.756,282.838,329.615,282.892,329.475,282.892z M332.399,279.739c-0.127,0-0.254-0.044-0.357-0.135
				c-0.222-0.196-0.243-0.537-0.045-0.759c0.474-0.533,0.941-1.071,1.403-1.615c0.192-0.225,0.53-0.253,0.758-0.061
				c0.226,0.192,0.253,0.531,0.061,0.758c-0.466,0.548-0.94,1.092-1.418,1.632C332.695,279.678,332.547,279.739,332.399,279.739z
				 M335.184,276.462c-0.12,0-0.239-0.039-0.339-0.12c-0.23-0.188-0.266-0.526-0.079-0.757c0.449-0.553,0.894-1.112,1.331-1.675
				c0.182-0.236,0.521-0.277,0.754-0.094c0.234,0.182,0.277,0.52,0.095,0.754c-0.442,0.569-0.89,1.134-1.344,1.694
				C335.494,276.394,335.34,276.462,335.184,276.462z M337.823,273.063c-0.112,0-0.225-0.035-0.321-0.106
				c-0.238-0.177-0.288-0.514-0.11-0.753c0.426-0.572,0.845-1.149,1.257-1.73c0.173-0.243,0.509-0.296,0.75-0.128
				c0.243,0.172,0.299,0.508,0.128,0.75c-0.418,0.588-0.841,1.173-1.272,1.751C338.149,272.989,337.987,273.063,337.823,273.063z
				 M340.313,269.552c-0.104,0-0.209-0.029-0.3-0.092c-0.247-0.166-0.312-0.5-0.145-0.746c0.399-0.592,0.793-1.188,1.18-1.787
				c0.162-0.25,0.497-0.32,0.743-0.16c0.249,0.162,0.321,0.493,0.16,0.743c-0.392,0.606-0.79,1.207-1.193,1.804
				C340.654,269.469,340.485,269.552,340.313,269.552z M342.645,265.936c-0.097,0-0.193-0.025-0.281-0.08
				c-0.253-0.155-0.332-0.486-0.176-0.739c0.374-0.609,0.74-1.221,1.1-1.836c0.149-0.257,0.48-0.342,0.735-0.193
				c0.257,0.15,0.343,0.479,0.193,0.735c-0.364,0.624-0.735,1.242-1.113,1.857C343.002,265.844,342.825,265.936,342.645,265.936z
				 M344.818,262.219c-0.088,0-0.177-0.022-0.26-0.067c-0.259-0.144-0.354-0.471-0.21-0.731c0.345-0.625,0.686-1.253,1.018-1.885
				c0.14-0.264,0.466-0.361,0.727-0.225c0.263,0.139,0.363,0.464,0.225,0.727c-0.337,0.638-0.679,1.273-1.029,1.904
				C345.191,262.119,345.007,262.219,344.818,262.219z M346.824,258.406c-0.081,0-0.163-0.018-0.24-0.057
				c-0.266-0.133-0.373-0.456-0.24-0.721c0.319-0.638,0.631-1.281,0.936-1.927c0.126-0.271,0.452-0.381,0.715-0.257
				c0.269,0.127,0.384,0.447,0.257,0.715c-0.309,0.654-0.623,1.303-0.946,1.95C347.21,258.297,347.02,258.406,346.824,258.406z
				 M348.662,254.51c-0.073,0-0.148-0.015-0.218-0.046c-0.272-0.121-0.394-0.439-0.273-0.71c0.291-0.652,0.573-1.307,0.849-1.967
				c0.114-0.276,0.432-0.403,0.702-0.289c0.274,0.114,0.403,0.428,0.289,0.702c-0.278,0.668-0.565,1.331-0.858,1.99
				C349.065,254.391,348.868,254.51,348.662,254.51z M350.326,250.533c-0.065,0-0.132-0.012-0.196-0.037
				c-0.276-0.109-0.413-0.421-0.305-0.697c0.261-0.665,0.516-1.332,0.761-2.003c0.103-0.28,0.414-0.42,0.69-0.32
				c0.279,0.103,0.422,0.412,0.32,0.69c-0.25,0.679-0.506,1.356-0.77,2.027C350.743,250.404,350.54,250.533,350.326,250.533z
				 M351.812,246.486c-0.058,0-0.117-0.009-0.174-0.029c-0.28-0.096-0.43-0.401-0.334-0.683c0.231-0.676,0.455-1.354,0.671-2.037
				c0.089-0.282,0.387-0.438,0.675-0.35c0.282,0.089,0.44,0.392,0.35,0.675c-0.218,0.689-0.444,1.376-0.679,2.06
				C352.245,246.346,352.036,246.486,351.812,246.486z M353.118,242.376c-0.05,0-0.101-0.007-0.151-0.022
				c-0.286-0.083-0.448-0.382-0.364-0.667c0.202-0.687,0.395-1.374,0.581-2.065c0.078-0.286,0.369-0.454,0.658-0.379
				c0.287,0.077,0.457,0.372,0.379,0.658c-0.188,0.699-0.383,1.395-0.587,2.088C353.565,242.223,353.351,242.376,353.118,242.376z"
				/>
		</g>
		<g>
			<path fill="#FFFFFF" d="M353.701,240.299c-0.046,0-0.092-0.006-0.14-0.019c-0.287-0.077-0.457-0.372-0.379-0.658
				c0.124-0.463,0.245-0.925,0.363-1.39c0.072-0.288,0.36-0.466,0.653-0.389c0.288,0.072,0.462,0.365,0.388,0.653
				c-0.119,0.469-0.241,0.938-0.367,1.405C354.156,240.14,353.939,240.299,353.701,240.299z M354.572,236.811
				c-0.04,0-0.08-0.004-0.121-0.014c-0.29-0.067-0.469-0.355-0.403-0.645c0.16-0.693,0.312-1.389,0.457-2.088
				c0.06-0.292,0.348-0.484,0.634-0.418c0.291,0.06,0.479,0.343,0.418,0.634c-0.145,0.708-0.299,1.412-0.461,2.114
				C355.038,236.643,354.818,236.811,354.572,236.811z M355.444,232.599c-0.033,0-0.065-0.003-0.098-0.008
				c-0.292-0.054-0.486-0.334-0.433-0.626c0.129-0.701,0.25-1.404,0.364-2.109c0.046-0.293,0.331-0.496,0.616-0.444
				c0.293,0.047,0.492,0.322,0.444,0.616c-0.114,0.712-0.237,1.423-0.366,2.13C355.924,232.417,355.699,232.599,355.444,232.599z
				 M356.128,228.352c-0.025,0-0.05-0.002-0.076-0.005c-0.294-0.041-0.499-0.313-0.458-0.607c0.098-0.705,0.188-1.411,0.27-2.121
				c0.035-0.295,0.309-0.507,0.596-0.472c0.295,0.035,0.506,0.301,0.472,0.596c-0.084,0.718-0.174,1.433-0.274,2.146
				C356.621,228.158,356.392,228.352,356.128,228.352z M356.625,224.08c-0.017,0-0.035-0.001-0.051-0.002
				c-0.296-0.028-0.512-0.291-0.485-0.586c0.067-0.709,0.127-1.419,0.177-2.133c0.022-0.296,0.281-0.512,0.575-0.498
				c0.296,0.022,0.519,0.279,0.498,0.575c-0.052,0.72-0.112,1.439-0.18,2.156C357.133,223.871,356.899,224.08,356.625,224.08z
				 M356.933,219.79c-0.008,0-0.018,0-0.027-0.001c-0.296-0.015-0.524-0.267-0.509-0.564c0.035-0.711,0.063-1.423,0.084-2.138
				c0.008-0.297,0.237-0.491,0.553-0.522c0.297,0.008,0.53,0.256,0.522,0.553c-0.021,0.721-0.049,1.442-0.086,2.161
				C357.456,219.566,357.218,219.79,356.933,219.79z M357.057,215.489c-0.001,0-0.002,0-0.002,0
				c-0.297-0.001-0.537-0.244-0.536-0.54l0.002-2.148c0-0.297,0.24-0.538,0.538-0.538s0.538,0.24,0.538,0.538l-0.002,2.153
				C357.594,215.25,357.353,215.489,357.057,215.489z M357.059,211.188c-0.297,0-0.538-0.24-0.538-0.538v-2.15
				c0-0.297,0.24-0.538,0.538-0.538s0.538,0.24,0.538,0.538v2.15C357.597,210.948,357.356,211.188,357.059,211.188z
				 M357.058,206.887c-0.296,0-0.537-0.239-0.538-0.536c-0.003-0.714-0.015-1.426-0.034-2.136c-0.007-0.297,0.227-0.544,0.523-0.552
				c0.005,0,0.01,0,0.015,0c0.291,0,0.529,0.231,0.538,0.523c0.019,0.718,0.03,1.439,0.034,2.161
				c0.001,0.297-0.238,0.539-0.535,0.54C357.059,206.887,357.059,206.887,357.058,206.887z M356.945,202.59
				c-0.286,0-0.523-0.224-0.537-0.511c-0.035-0.714-0.077-1.426-0.127-2.135c-0.021-0.296,0.203-0.553,0.499-0.574
				c0.26-0.021,0.553,0.202,0.574,0.499c0.05,0.717,0.092,1.435,0.127,2.158c0.015,0.297-0.214,0.549-0.51,0.563
				C356.962,202.59,356.953,202.59,356.945,202.59z M356.644,198.301c-0.274,0-0.508-0.209-0.534-0.488
				c-0.065-0.711-0.139-1.421-0.219-2.127c-0.034-0.295,0.178-0.562,0.474-0.595c0.292-0.027,0.561,0.178,0.595,0.474
				c0.081,0.715,0.154,1.431,0.222,2.15c0.027,0.295-0.19,0.558-0.486,0.585C356.677,198.3,356.66,198.301,356.644,198.301z
				 M356.157,194.035c-0.264,0-0.495-0.195-0.531-0.464c-0.098-0.707-0.201-1.409-0.313-2.109c-0.046-0.294,0.153-0.569,0.446-0.616
				c0.299-0.042,0.568,0.152,0.616,0.446c0.112,0.709,0.217,1.42,0.315,2.133c0.041,0.294-0.165,0.566-0.459,0.606
				C356.207,194.032,356.183,194.035,356.157,194.035z M355.483,189.798c-0.254,0-0.481-0.182-0.528-0.441
				c-0.127-0.701-0.261-1.4-0.404-2.096c-0.059-0.291,0.129-0.574,0.42-0.634c0.285-0.06,0.573,0.128,0.634,0.42
				c0.143,0.702,0.279,1.409,0.408,2.117c0.053,0.293-0.141,0.572-0.433,0.626C355.548,189.795,355.516,189.798,355.483,189.798z
				 M354.625,185.596c-0.246,0-0.467-0.169-0.524-0.418c-0.159-0.693-0.324-1.386-0.497-2.076c-0.071-0.288,0.103-0.58,0.392-0.652
				c0.281-0.071,0.58,0.103,0.652,0.392c0.174,0.696,0.34,1.395,0.501,2.097c0.066,0.289-0.114,0.577-0.404,0.644
				C354.705,185.591,354.664,185.596,354.625,185.596z M353.581,181.432c-0.236,0-0.454-0.156-0.519-0.396
				c-0.188-0.687-0.384-1.371-0.587-2.052c-0.084-0.285,0.078-0.584,0.362-0.669c0.29-0.083,0.585,0.079,0.669,0.362
				c0.205,0.689,0.403,1.38,0.593,2.075c0.078,0.287-0.09,0.582-0.377,0.66C353.675,181.426,353.627,181.432,353.581,181.432z
				 M352.355,177.32c-0.227,0-0.438-0.145-0.511-0.373c-0.219-0.678-0.445-1.353-0.678-2.024c-0.097-0.28,0.051-0.587,0.332-0.685
				c0.28-0.094,0.586,0.051,0.685,0.332c0.235,0.679,0.463,1.361,0.685,2.048c0.091,0.282-0.064,0.585-0.346,0.676
				C352.466,177.311,352.41,177.32,352.355,177.32z M350.947,173.262c-0.218,0-0.423-0.133-0.504-0.35
				c-0.249-0.668-0.504-1.332-0.767-1.993c-0.109-0.276,0.025-0.589,0.301-0.698c0.275-0.106,0.588,0.025,0.698,0.301
				c0.265,0.669,0.524,1.34,0.775,2.014c0.103,0.278-0.038,0.588-0.316,0.692C351.073,173.252,351.009,173.262,350.947,173.262z
				 M349.362,169.273c-0.209,0-0.408-0.123-0.496-0.329c-0.277-0.656-0.563-1.309-0.854-1.957c-0.122-0.271-0.001-0.589,0.27-0.711
				c0.268-0.124,0.589-0.002,0.711,0.27c0.295,0.656,0.583,1.316,0.864,1.98c0.116,0.273-0.013,0.588-0.287,0.705
				C349.502,169.26,349.432,169.273,349.362,169.273z M347.601,165.356c-0.201,0-0.393-0.112-0.485-0.306
				c-0.308-0.644-0.621-1.283-0.94-1.919c-0.133-0.266-0.027-0.589,0.238-0.721c0.262-0.135,0.589-0.028,0.721,0.238
				c0.323,0.643,0.641,1.288,0.95,1.938c0.128,0.269,0.015,0.589-0.253,0.717C347.757,165.339,347.679,165.356,347.601,165.356z
				 M345.669,161.518c-0.192,0-0.378-0.104-0.475-0.286c-0.334-0.628-0.676-1.254-1.024-1.875c-0.145-0.259-0.052-0.587,0.207-0.732
				c0.258-0.144,0.587-0.054,0.732,0.207c0.352,0.628,0.696,1.26,1.034,1.896c0.14,0.261,0.04,0.587-0.223,0.727
				C345.841,161.498,345.754,161.518,345.669,161.518z M343.569,157.77c-0.184,0-0.363-0.094-0.463-0.265
				c-0.361-0.614-0.73-1.224-1.105-1.83c-0.156-0.252-0.079-0.584,0.174-0.739c0.249-0.155,0.583-0.079,0.739,0.174
				c0.379,0.612,0.752,1.229,1.117,1.849c0.151,0.256,0.065,0.586-0.19,0.736C343.756,157.745,343.662,157.77,343.569,157.77z
				 M341.306,154.117c-0.175,0-0.348-0.086-0.45-0.245c-0.389-0.597-0.783-1.191-1.184-1.779c-0.167-0.245-0.104-0.58,0.141-0.747
				c0.247-0.165,0.581-0.105,0.748,0.142c0.405,0.594,0.804,1.194,1.197,1.798c0.162,0.249,0.091,0.582-0.158,0.743
				C341.509,154.088,341.407,154.117,341.306,154.117z M338.885,150.564c-0.168,0-0.333-0.079-0.438-0.226
				c-0.414-0.581-0.834-1.155-1.261-1.725c-0.177-0.237-0.129-0.574,0.108-0.753c0.237-0.177,0.574-0.13,0.753,0.108
				c0.432,0.576,0.858,1.159,1.276,1.746c0.172,0.242,0.116,0.577-0.126,0.75C339.102,150.532,338.993,150.564,338.885,150.564z
				 M336.311,147.121c-0.16,0-0.317-0.07-0.423-0.206c-0.44-0.561-0.885-1.118-1.336-1.67c-0.188-0.23-0.154-0.568,0.076-0.756
				c0.229-0.188,0.568-0.154,0.756,0.076c0.457,0.558,0.906,1.119,1.35,1.686c0.183,0.234,0.142,0.571-0.091,0.755
				C336.544,147.084,336.428,147.121,336.311,147.121z M333.59,143.795c-0.151,0-0.301-0.064-0.408-0.188
				c-0.463-0.541-0.932-1.077-1.408-1.61c-0.197-0.222-0.178-0.561,0.043-0.759c0.219-0.196,0.562-0.179,0.759,0.043
				c0.48,0.537,0.953,1.079,1.423,1.626c0.193,0.225,0.167,0.565-0.059,0.758C333.839,143.752,333.714,143.795,333.59,143.795z
				 M330.722,140.59c-0.144,0-0.287-0.058-0.393-0.171c-0.487-0.521-0.979-1.036-1.476-1.546c-0.208-0.212-0.204-0.552,0.008-0.76
				c0.213-0.206,0.553-0.204,0.76,0.008c0.504,0.516,1.002,1.037,1.493,1.565c0.203,0.216,0.191,0.557-0.026,0.759
				C330.986,140.542,330.853,140.59,330.722,140.59z M327.72,137.513c-0.135,0-0.272-0.051-0.377-0.154
				c-0.508-0.499-1.023-0.992-1.542-1.48c-0.216-0.203-0.228-0.543-0.024-0.759c0.203-0.219,0.543-0.228,0.759-0.024
				c0.526,0.492,1.047,0.992,1.561,1.497c0.211,0.208,0.214,0.548,0.006,0.76C327.998,137.459,327.86,137.513,327.72,137.513z"/>
		</g>
		<g>
			<path fill="#474F50" d="M326.168,136.024c-0.132,0-0.265-0.048-0.369-0.146l-0.421-0.393c-0.217-0.202-0.231-0.542-0.029-0.76
				c0.203-0.218,0.542-0.231,0.76-0.029l0.427,0.399c0.216,0.204,0.227,0.544,0.023,0.76
				C326.454,135.967,326.311,136.024,326.168,136.024z M324.152,134.183c-0.127,0-0.254-0.044-0.357-0.135
				c-0.533-0.474-1.071-0.941-1.615-1.403c-0.226-0.192-0.253-0.531-0.061-0.758c0.192-0.225,0.53-0.253,0.758-0.061
				c0.548,0.466,1.092,0.94,1.632,1.418c0.222,0.196,0.243,0.537,0.045,0.759C324.448,134.122,324.3,134.183,324.152,134.183z
				 M320.874,131.398c-0.12,0-0.239-0.039-0.339-0.12c-0.553-0.449-1.112-0.894-1.675-1.331c-0.234-0.182-0.277-0.52-0.094-0.754
				c0.182-0.235,0.521-0.278,0.754-0.094c0.569,0.442,1.134,0.89,1.694,1.344c0.23,0.188,0.266,0.526,0.079,0.757
				C321.185,131.329,321.031,131.398,320.874,131.398z M317.477,128.759c-0.112,0-0.225-0.035-0.32-0.106
				c-0.572-0.425-1.15-0.844-1.731-1.256c-0.243-0.172-0.299-0.508-0.128-0.75c0.173-0.243,0.509-0.296,0.75-0.128
				c0.588,0.418,1.172,0.841,1.75,1.271c0.238,0.177,0.289,0.513,0.111,0.752C317.804,128.684,317.641,128.759,317.477,128.759z
				 M313.968,126.27c-0.104,0-0.209-0.03-0.301-0.092c-0.59-0.4-1.185-0.793-1.784-1.179c-0.25-0.161-0.322-0.494-0.161-0.742
				c0.162-0.251,0.498-0.322,0.742-0.161c0.607,0.391,1.209,0.788,1.805,1.192c0.246,0.167,0.31,0.501,0.144,0.747
				C314.309,126.188,314.14,126.27,313.968,126.27z M310.353,123.939c-0.097,0-0.194-0.025-0.281-0.08
				c-0.608-0.374-1.22-0.74-1.835-1.1c-0.257-0.15-0.343-0.479-0.193-0.735c0.149-0.257,0.481-0.342,0.735-0.193
				c0.624,0.364,1.242,0.735,1.856,1.113c0.253,0.155,0.332,0.486,0.176,0.739C310.709,123.848,310.533,123.939,310.353,123.939z
				 M306.638,121.767c-0.089,0-0.178-0.022-0.261-0.067c-0.622-0.346-1.25-0.686-1.882-1.019c-0.262-0.139-0.363-0.464-0.225-0.727
				c0.14-0.264,0.467-0.361,0.727-0.225c0.638,0.337,1.273,0.68,1.903,1.029c0.259,0.145,0.353,0.471,0.209,0.732
				C307.01,121.667,306.826,121.767,306.638,121.767z M302.83,119.763c-0.081,0-0.163-0.018-0.24-0.057
				c-0.637-0.318-1.28-0.63-1.926-0.935c-0.268-0.127-0.383-0.447-0.256-0.716s0.448-0.381,0.716-0.256
				c0.652,0.309,1.301,0.623,1.947,0.945c0.266,0.132,0.373,0.456,0.24,0.721C303.216,119.653,303.027,119.763,302.83,119.763z
				 M298.937,117.925c-0.074,0-0.147-0.015-0.218-0.046c-0.651-0.29-1.306-0.572-1.966-0.848c-0.273-0.114-0.402-0.429-0.288-0.704
				c0.114-0.274,0.427-0.402,0.703-0.288c0.666,0.278,1.327,0.565,1.987,0.857c0.271,0.121,0.394,0.438,0.273,0.71
				C299.34,117.806,299.143,117.925,298.937,117.925z M294.966,116.264c-0.066,0-0.132-0.012-0.197-0.038
				c-0.663-0.26-1.329-0.515-2-0.76c-0.278-0.103-0.421-0.412-0.319-0.691c0.104-0.278,0.413-0.419,0.691-0.319
				c0.677,0.25,1.352,0.506,2.023,0.771c0.276,0.108,0.412,0.42,0.302,0.697C295.383,116.135,295.18,116.264,294.966,116.264z
				 M290.926,114.778c-0.058,0-0.117-0.009-0.174-0.029c-0.675-0.231-1.353-0.455-2.034-0.671c-0.282-0.09-0.44-0.392-0.35-0.675
				c0.089-0.282,0.39-0.439,0.675-0.35c0.689,0.218,1.373,0.444,2.057,0.679c0.281,0.096,0.431,0.402,0.334,0.683
				C291.357,114.638,291.15,114.778,290.926,114.778z M286.822,113.473c-0.05,0-0.101-0.007-0.152-0.022
				c-0.684-0.202-1.37-0.395-2.06-0.581c-0.287-0.077-0.457-0.372-0.379-0.658c0.077-0.287,0.378-0.456,0.658-0.379
				c0.698,0.188,1.393,0.383,2.085,0.587c0.285,0.084,0.447,0.382,0.363,0.668C287.269,113.322,287.055,113.473,286.822,113.473z
				 M282.664,112.353c-0.042,0-0.086-0.005-0.129-0.016c-0.692-0.171-1.387-0.334-2.084-0.489c-0.29-0.065-0.473-0.352-0.408-0.642
				c0.064-0.29,0.352-0.469,0.642-0.408c0.706,0.158,1.409,0.322,2.109,0.496c0.288,0.071,0.464,0.362,0.393,0.651
				C283.125,112.189,282.906,112.353,282.664,112.353z M278.46,111.415c-0.036,0-0.071-0.003-0.107-0.01
				c-0.698-0.141-1.4-0.273-2.104-0.397c-0.292-0.051-0.487-0.33-0.436-0.623c0.053-0.293,0.333-0.49,0.623-0.436
				c0.713,0.126,1.423,0.258,2.129,0.401c0.291,0.059,0.48,0.342,0.421,0.633C278.935,111.239,278.71,111.415,278.46,111.415z
				 M274.217,110.665c-0.027,0-0.056-0.002-0.083-0.006c-0.705-0.108-1.411-0.21-2.121-0.302c-0.295-0.039-0.502-0.309-0.464-0.603
				c0.039-0.296,0.32-0.504,0.603-0.464c0.718,0.094,1.433,0.196,2.146,0.307c0.293,0.045,0.495,0.319,0.449,0.613
				C274.706,110.475,274.478,110.665,274.217,110.665z M269.945,110.102c-0.02,0-0.04-0.001-0.059-0.003
				c-0.71-0.078-1.421-0.147-2.134-0.209c-0.296-0.025-0.514-0.286-0.489-0.582s0.297-0.505,0.582-0.489
				c0.721,0.062,1.441,0.133,2.157,0.211c0.296,0.033,0.509,0.297,0.477,0.592C270.448,109.899,270.216,110.102,269.945,110.102z
				 M265.648,109.729c-0.012,0-0.023,0-0.035-0.001c-0.712-0.046-1.426-0.085-2.141-0.116c-0.297-0.014-0.527-0.265-0.514-0.561
				c0.014-0.297,0.268-0.532,0.561-0.515c0.723,0.033,1.444,0.071,2.164,0.118c0.296,0.019,0.521,0.275,0.502,0.571
				C266.166,109.51,265.929,109.729,265.648,109.729z M261.347,109.543c-0.004,0-0.007,0-0.012,0
				c-0.712-0.016-1.425-0.023-2.139-0.023c-0.297,0-0.538-0.24-0.538-0.538s0.24-0.538,0.538-0.538c0.722,0,1.444,0.007,2.162,0.023
				c0.297,0.006,0.532,0.253,0.526,0.549C261.879,109.31,261.639,109.543,261.347,109.543z"/>
		</g>
	</g>
</g>
</svg>
