<?xml version="1.0" encoding="utf-8"?>
<!-- Generator: Adobe Illustrator 25.1.0, SVG Export Plug-In . SVG Version: 6.00 Build 0)  -->
<svg version="1.1" id="Tirui" xmlns="http://www.w3.org/2000/svg" xmlns:xlink="http://www.w3.org/1999/xlink" x="0px" y="0px"
	 viewBox="0 0 600 400" enable-background="new 0 0 600 400" xml:space="preserve">
<g id="Decision_Tree">
	<g id="background_4_">
		<g>
			<path fill="#FFF8EE" d="M185.784,79.47c-84.607,20.857-84.803,147.306,28.276,226.371s287.013-32.25,270.788-142.289
				c-16.224-110.038-144.847-5.401-194.026-18.376C241.643,132.2,261.574,60.786,185.784,79.47z"/>
		</g>
		<g>
			<path fill="#FFF8EE" d="M317.408,33.842c-55.336-7.566-64.668,45.894-30.873,71.748s95.08-0.615,95.836-36.56
				C383.128,33.085,317.408,33.842,317.408,33.842z"/>
		</g>
		<g>
			<ellipse fill="#BEE9EA" cx="300" cy="360.455" rx="244.664" ry="6.429"/>
		</g>
	</g>
	<g id="mans_group">
		<g>
			<polygon fill="#F99680" points="111.198,332.664 112.018,348.237 118.638,348.237 119.112,331.699 			"/>
		</g>
		<g>
			<polygon fill="#F99680" points="126.791,329.879 127.591,346.85 134.527,346.535 134.912,327.873 			"/>
		</g>
		<g>
			<path fill="#D35971" d="M119.112,331.699c0,0-0.883,3.425-3.957,5.663c-3.074,2.238-3.637,1.386-3.637,1.386l-0.32-6.084
				L119.112,331.699z"/>
		</g>
		<g>
			<path fill="#D35971" d="M134.912,327.873c0,0,0.038,4.622-7.779,9.262l-0.342-7.256L134.912,327.873z"/>
		</g>
		<g>
			<polygon fill="#F99680" points="145.852,323.708 146.884,340.608 154.072,340.23 153.837,323.262 			"/>
		</g>
		<g>
			<polygon fill="#F99680" points="164.918,323.262 165.358,339.851 171.852,339.851 171.967,320.05 			"/>
		</g>
		<g>
			<polygon fill="#F99680" points="176.421,321.98 177.275,338.338 184.399,338.338 183.58,320.684 			"/>
		</g>
		<g>
			<polygon fill="#F99680" points="190.184,322.599 191.398,337.455 198.523,337.455 198.816,323.262 			"/>
		</g>
		<g>
			<path fill="#D35971" d="M145.852,323.708l0.431,7.059c0,0,6.751-3.635,7.554-7.505L145.852,323.708z"/>
		</g>
		<g>
			<path fill="#D35971" d="M164.918,323.262l0.148,5.588c0,0,6.557-3.378,6.901-8.799L164.918,323.262z"/>
		</g>
		<g>
			<path fill="#D35971" d="M176.421,321.98l0.206,3.948c0,0,6.081,0.334,6.953-5.244L176.421,321.98z"/>
		</g>
		<g>
			<path fill="#D35971" d="M190.184,322.599l0.377,4.616c0,0,6.988,0.658,8.255-3.953L190.184,322.599z"/>
		</g>
		<g>
			<path fill="#343A3A" d="M105.374,242.516c-0.102,19.721-0.248,34.096,1.149,52.065c1.397,17.969,1.649,33.543,4.676,38.082
				s7.566,2.27,8.701-3.405c1.135-5.674,3.153-34.173,2.648-43.379c0,0,1.072,4.918,2.018,20.996
				c0.946,16.078,1.229,22.225,2.648,23.644s5.864,2.27,7.377-1.513c1.513-3.783,3.026-29.318,3.121-49.557
				c0.095-20.239-1.972-37.704-1.972-37.704S114.366,237.927,105.374,242.516z"/>
		</g>
		<g>
			<path fill="#343A3A" d="M170.554,241.4c0.353,12.041,0.542,18.319,1.299,39.218c0.757,20.899,2.144,36.661,3.657,40.066
				c1.513,3.405,6.557,3.279,8.07,0c1.513-3.279,1.513-27.112,1.513-27.112s3.909,25.598,4.666,28.247
				c0.757,2.648,9.584,6.431,9.584-1.261c0-7.692,0-31.021,0-50.566c0-19.546-0.382-28.591-0.382-28.591
				S176.19,238.533,170.554,241.4z"/>
		</g>
		<g>
			<path fill="#343A3A" d="M136.607,241.745c0.12,10.831,2.522,37.704,4.981,57.754c2.459,20.05,3.153,22.572,4.918,25.346
				c1.765,2.774,7.692,1.387,7.44-2.774c-0.252-4.161,0.504-28.436,1.072-45.27c0,0,2.333,11.916,5.044,26.859
				c2.711,14.943,3.468,20.05,6.242,20.302c2.774,0.252,6.053-0.883,6.053-7.188c0-6.305-1.387-16.015-2.9-39.217
				c-1.513-23.202-2.144-41.235-2.144-41.235s-7.944-0.504-16.267-1.261c-8.323-0.757-11.806,2.476-11.806,2.476L136.607,241.745z"
				/>
		</g>
		<g>
			<path fill="#3C5E93" d="M184.841,189.918c0,0-12.484,1.955-15.447,4.697c-2.963,2.743-5.73,17.746-5.73,17.746l3.739,3.955
				l2.054-2.029c0,0,0,18.631,0,22.793s-0.52,4.666-0.52,4.666s5.312-1.639,14.896,0c9.584,1.639,16.645-0.757,16.645-0.757
				s0.126-9.836,0-16.267c-0.126-6.431,1.261-14.411,2.9-13.321c1.639,1.09,10.34,8.404,13.493,6.638
				c3.153-1.765,16.267-26.094,16.267-26.094l-11.097-5.557c0,0-6.494,14.092-8.007,13.997c-1.513-0.095-9.876-12.862-12.078-13.997
				C199.752,185.252,184.841,189.918,184.841,189.918z"/>
		</g>
		<g>
			<path fill="#F99680" d="M103.608,244.999c1.737,0.777,3.094,1.478,4.755,2.989c1.661,1.512,5.077,1.557,5.077,1.557
				s-0.351,1.745-2.004,1.682s-4.193-0.206-4,0.685c0.193,0.891,1.759,3.385,4.418,3.898c2.658,0.513,3.872,1.759,3.309,2.982
				c0,0-1.114-0.507-1.986-0.682c-0.872-0.176-2.535-0.553-3.403-1.001c0,0,0.815,0.708,1.786,1.003s1.765,0.889,1.241,1.902
				c0,0-1.878-0.581-2.494-0.898c-0.615-0.318-2.955-1.87-2.955-1.87s1.177,1.227,1.944,1.83c0.766,0.602,1.442,1.203,0.694,1.986
				c0,0-0.821-0.585-1.824-1.263l-2.277-1.451c0,0-0.223,0.343,0.646,1.457s1.773,2.338,0.87,3.109c0,0-0.696-1.139-1.96-2.641
				c-1.265-1.502-1.865-2.686-3.372-5.698c-1.506-3.012-3.132-4.657-3.132-4.657L103.608,244.999z"/>
		</g>
		<g>
			<path fill="#2C466D" d="M174.546,192.641c0,0,0.669,17.771-6.718,23.255c-7.387,5.484-1.713-18.854-1.713-18.854l3.182-3.909
				L174.546,192.641z"/>
		</g>
		<g>
			<path fill="#D35971" d="M103.608,244.999c0,0-2.103,3.641-3.03,7.009c0,0-0.904-1.245-1.637-2.091L103.608,244.999z"/>
		</g>
		<g>
			<path fill="#A8A848" d="M107.068,242.754c0,0,6.715-2.175,14.943-1.702c8.228,0.473,15.7,0.818,15.7,0.818
				s-0.284-0.187-1.04-12.608c-0.757-12.421-1.702-21.311-1.702-21.311l-6.809-12.579c0,0-8.712-0.473-11.402-3.31
				c-2.69-2.837-8.27-3.71-8.27-3.71s-9.458,6.358-13.713,13.735s-8.228,29.413-8.039,31.588
				c0.189,2.175,10.876,18.726,10.876,18.726l8.701-8.323c0,0-8.126-13.43-8.13-14.659c-0.004-1.229,4.475-14.754,4.475-14.754
				l1.718,27.711L107.068,242.754z"/>
		</g>
		<g>
			<path fill="#F99680" d="M190.045,203.231c-1.553,1.387-2.735,2.569-3.964,4.697c-1.229,2.128-4.776,3.31-4.776,3.31
				s0.946,1.702,2.648,1.088c1.702-0.615,4.303-1.608,4.398-0.615s-0.709,4.114-3.31,5.533c-2.601,1.419-3.452,3.121-2.459,4.209
				c0,0,0.993-0.898,1.844-1.371s2.459-1.419,3.216-2.175c0,0-0.615,1.009-1.529,1.639c-0.914,0.63-1.545,1.513-0.662,2.396
				c0,0,1.765-1.229,2.301-1.765c0.536-0.536,2.459-2.932,2.459-2.932s-0.82,1.671-1.419,2.554
				c-0.599,0.883-1.103,1.734-0.063,2.301c0,0,0.662-0.883,1.482-1.923l1.892-2.27c0,0,0.347,0.284-0.189,1.734
				c-0.536,1.45-1.072,3.026,0.126,3.531c0,0,0.347-1.419,1.166-3.405c0.82-1.986,1.052-3.42,1.622-7.062
				c0.569-3.641,1.718-5.897,1.718-5.897L190.045,203.231z"/>
		</g>
		<g>
			<path fill="#E53362" d="M169.393,194.615c0,0,9.993-4.193,15.447-4.697c5.454-0.504,1.955-9.019,1.955-9.019
				s-13.358-0.61-16.941,0.878C166.272,183.266,169.393,194.615,169.393,194.615z"/>
		</g>
		<g>
			<path fill="#81813B" d="M119.494,194.615c0,0-1.375,18.012,12.22,19.331s-0.793-20.686-0.793-20.686L119.494,194.615z"/>
		</g>
		<g>
			<path fill="#E53362" d="M140.429,180.509c0,0-9.603,15.362-9.507,25.198c0.095,9.836,5.749,32.318,5.749,32.318
				s4.666-1.072,13.493-1.828c8.827-0.757,20.05-0.504,20.05-0.504s-2.588-7.818-2.366-18.6
				c0.222-10.782-11.709-47.599-15.905-34.537C143.101,183.361,140.429,180.509,140.429,180.509z"/>
		</g>
		<g>
			<path fill="#E53362" d="M117.818,184.748c4.382-0.536,11.92,0,11.92,0v12.925c0,0-12.866-2.68-13.654-5.612
				C115.296,189.13,117.818,184.748,117.818,184.748z"/>
		</g>
		<g>
			<circle fill="#82C2D1" cx="214.261" cy="108.327" r="18.557"/>
		</g>
		<g>
			<path fill="#F99680" d="M162.282,100.785l-0.003-0.001c0.274-0.711,0.431-1.481,0.431-2.289c0-3.517-2.851-6.368-6.368-6.368
				c-2.281,0-4.276,1.203-5.4,3.005c-0.596-0.42-1.318-0.672-2.103-0.672c-2.02,0-3.657,1.637-3.657,3.657
				c0,1.674,1.131,3.07,2.666,3.504l-0.014,0.01c0,0-0.383,6.511-4.103,8.907c0,0,4.035,3.846,7.566,4.414
				c0,0,0.898-7.726,2.688-7.299c0.002,0,0.003-0.001,0.005-0.001c1.542,1.128,3.017,1.786,3.36,1.814
				c0.606,0.051,3.397-5.533,4.488-7.767c0.165-0.282,0.308-0.577,0.429-0.884C162.271,100.808,162.282,100.785,162.282,100.785z"/>
		</g>
		<g>
			<path fill="#F99680" d="M185.424,116.07l2.979,6.006c0,0,1.955-1.513,4.697-1.797c2.743-0.284,6.368-1.844,7.574-1.939
				c1.206-0.095,2.719-0.567,3.239-0.851c0.52-0.284,0.638-0.78,0.946-0.993c0.307-0.213,0.331-0.686,0.118-0.851
				c-0.213-0.166-0.922,0.567-1.561,0.875c-0.638,0.307-2.056,0.438-1.844,0.26c0.423-0.354,2.317-1.182,3.074-1.797
				c0.757-0.615,0.591-0.733,1.064-1.419c0.473-0.686,0.236-1.135,0-1.371c-0.236-0.236-0.52-0.024-0.78,0.402
				c-0.26,0.426-0.686,1.017-1.561,1.631c-0.875,0.615-2.262,1.229-2.829,1.009c0,0,1.955-1.387,3.058-2.932
				c0.402-0.563,0.378-1.009,0.757-1.923c0.378-0.914,0.095-1.482-0.41-1.482c-0.504,0-0.599,0.82-0.946,1.482
				c-0.347,0.662-0.914,1.419-1.671,2.112c-0.757,0.694-2.806,1.45-2.364,0.725c0.441-0.725,2.522-2.175,2.837-2.806
				s0.536-1.45,0.694-1.892c0.158-0.441,0.441-0.694-0.284-0.914c-0.725-0.221-1.135,1.293-2.333,2.459
				c-1.198,1.166-3.2,2.081-4.571,2.033s0.473-2.128,0.473-2.128v-3.074c0,0-1.277,1.608-2.175,2.27s-2.364,2.128-3.972,4.114
				C188.025,115.266,185.424,116.07,185.424,116.07z"/>
		</g>
		<g>
			<path fill="#E53362" d="M194.592,180.509c0,0,5.398-1.026,7.028,4.364c1.631,5.391-0.545,16.456-2.72,23.076l-10.337-4.634
				c0,0,6.602-12.323,5.774-15.335C193.51,184.968,193.594,182.103,194.592,180.509z"/>
		</g>
		<g>
			<path fill="#B22449" d="M121.16,184.51c0,0-5.179,4.084-4.166,8.372l-7.722-3.11c0,0-0.812-2.328-4.897-3.298
				c0,0,2.181-1.596,5.479-2.26c3.298-0.664,4.37,1.766,4.37,1.766l3.594-1.231L121.16,184.51z"/>
		</g>
		<g>
			<path fill="#B22449" d="M183.015,184.214c0,0,0.313,3.939-2.714,6.524c0,0,3.149-0.391,5.389-0.984
				c2.24-0.592,1.358-5.826,1.358-5.826L183.015,184.214z"/>
		</g>
		<g>
			<path fill="#F99680" d="M187.174,126.174l3.531,3.279c0,0,1.513-2.018,3.594-3.909c2.081-1.892,5.927-2.837,5.927-2.837
				l-2.774-3.972l-5.422,1.072l0.504,3.342L187.174,126.174z"/>
		</g>
		<g>
			<path fill="#D35971" d="M153.991,107.651c-2.346-2.126-4.206-4.711-4.206-4.711s-2.555,4.814,2.411,7.341
				C152.196,110.281,152.869,107.729,153.991,107.651z"/>
		</g>
		<g>
			
				<ellipse transform="matrix(0.5375 -0.8433 0.8433 0.5375 -14.1951 178.5069)" fill="#D35971" cx="155.64" cy="102.195" rx="1.088" ry="1.828"/>
		</g>
		<g>
			
				<ellipse transform="matrix(0.4031 -0.9152 0.9152 0.4031 -0.5615 208.9845)" fill="#D35971" cx="159.92" cy="104.923" rx="0.602" ry="1.011"/>
		</g>
		<g>
			<path fill="#D35971" d="M149.128,99.63c0,0,2.139-3.941-2.464-3.405L149.128,99.63z"/>
		</g>
		<g>
			<path fill="#D35971" d="M185.424,116.07c0,0,3.472,4.402,5.196,4.818c0,0-1.413,0.62-2.217,1.188L185.424,116.07z"/>
		</g>
		<g>
			<path fill="#D35971" d="M192.025,120.457c0,0,1.13-0.083,2.241-0.367c1.111-0.284,3.475-0.939,3.475-0.939
				s-2.508,2.494-5.309,3.336L192.025,120.457z"/>
		</g>
		<g>
			<path fill="#343A3A" d="M145.74,96.175c0,0-2.137-7.815,0-8.43s5.819-0.567,5.819-0.567s-0.466-2.695,1.851-3.216
				s3.452,1.04,3.452,1.04s0.946-3.878,4.918-3.216s2.364,5.296,2.364,5.296s2.885-1.608,3.783,0.993s-1.844,3.216-1.844,3.216
				s2.979,3.31,1.088,6.904s-4.726,2.099-4.726,2.099l0.16-0.665c0,0-3.142-1.151-2.291-4.366c0,0-2.412,1.513-2.885-1.324
				c0,0-2.364-2.837-4.776-0.236c0,0,0.213,2.317-2.081,3.145c0,0,0.524-0.831,0.369-1.716
				C150.942,95.132,148.019,93.183,145.74,96.175z"/>
		</g>
		<g>
			<path fill="#F99680" d="M116.021,169.628c-0.023-0.028-0.047-0.054-0.07-0.081c-0.149-0.172-0.251-0.289-0.251-0.289
				l-0.002,0.011c-1.451-1.567-3.52-2.554-5.824-2.554c-4.388,0-7.944,3.557-7.944,7.944c0,1.704,0.541,3.278,1.454,4.572
				c-0.879,0.681-1.454,1.734-1.454,2.931c0,2.054,1.665,3.72,3.72,3.72c1.787,0,3.276-1.261,3.635-2.94
				c0.001,0.001,0.001,0.002,0.001,0.002c1.304,1.602,0.083,3.505,0.083,3.505c1.324,4.351,6.62,6.431,6.62,6.431
				s0.694-6.746,1.828-8.133c1.135-1.387,4.666-1.513,5.485-3.72C124.028,179.076,117.536,171.385,116.021,169.628z"/>
		</g>
		<g>
			<path fill="#F99680" d="M198.778,174.061c0.054-0.366,0.091-0.738,0.091-1.119c0-4.205-3.409-7.613-7.613-7.613
				c-2.736,0-5.128,1.448-6.47,3.614l-0.005-0.003c0,0-7.57,9.692-5.678,12.529c1.892,2.837,5.611,2.774,6.368,4.161
				c0.757,1.387-0.63,4.287-0.63,4.287s3.909,3.657,9.647-1.387c0,0-1.72-5.495,0.464-8.621c0.68,0.892,1.742,1.477,2.95,1.477
				c2.054,0,3.72-1.666,3.72-3.72C201.621,175.915,200.407,174.457,198.778,174.061z"/>
		</g>
		<g>
			<path fill="#D35971" d="M185.233,185.305l6.409-4.795c0,0,2.183,4.367-6.297,8.101
				C185.345,188.611,186.133,186.387,185.233,185.305z"/>
		</g>
		<g>
			<path fill="#343A3A" d="M184.786,168.943c0,0-3.287-3.788-0.781-6.625c2.506-2.837,4.35-2.351,4.35-2.351
				s-2.223-3.087,0.615-3.418c0,0,0.378-1.986,2.128-1.324c0,0,1.277-3.168,4.965-2.364c3.688,0.804,3.499,4.256,3.499,4.256
				s3.026-0.268,4.445,3.72c1.419,3.988-1.797,5.69-1.797,5.69s2.506,1.939,0.993,3.31c0,0,2.081,3.357,1.371,4.729
				c-0.709,1.371-3.042,2.308-3.042,2.308s-0.483-2.15-2.756-2.812c0,0-3.471,2.364-5.741,4.918c-2.27,2.554-5.17,5.454-5.548,5.643
				c-0.378,0.189-1.629,1.093-2.303,0.655c-0.674-0.438-3.655,0.038-5.704-1.696c-2.049-1.734-1.545-4.477-1.293-5.076
				c0.252-0.599,1.324-2.774,2.175-3.405c0.851-0.63,2.049-1.198,3.089-0.567c0,0,0.41-0.536,0.662,0
				c0.252,0.536,0.095,0.694,0.095,0.694s0.914-0.757,1.072-0.126c0.158,0.631-0.189,0.694-0.189,0.694s1.398,0.732,1.229,2.617
				c-0.165,1.852,4.54,1.379-1.734,2.207c-0.641,0.085-0.126-1.734,0.315-2.585s-2.427-2.301-2.995-2.301
				c-0.567,0-1.103,1.702-1.103,2.68s0.946-0.327,1.671-0.148c0.725,0.179,0.536,1.882,2.301,2.008
				c1.765,0.126,3.751-0.883,6.053-2.648s3.058-3.216,3.058-3.216s-0.441-0.441-0.252-1.986c0.189-1.545,1.229-2.617,1.229-2.617
				s-1.45-1.293-1.324-3.216c0,0-3.72,3.058-5.895,0.095C187.646,166.684,186.701,166.302,184.786,168.943z"/>
		</g>
		<g>
			<path fill="#343A3A" d="M115.353,168.926c0,0,2.654-3.976-1.696-3.85c0,0,1.948-4.918-1.012-7.944
				c-2.96-3.026-6.176,1.576-6.176,1.576s-0.946-2.755-2.774-2.607c-1.828,0.148-1.765,2.67-1.765,2.67s-2.585-0.757-4.792,1.639
				c-2.207,2.396,0.757,5.738,0.757,5.738s-2.207,1.072-2.207,3.657c0,2.585,1.892,2.963,1.892,2.963s-1.513,6.62-1.135,7.44
				c0.378,0.82,5.485,1.569,5.485,1.569s0.213-1.6,1.454-2.546c0,0,1.627-0.458,2.538,0.819c0,0-0.083-2.601-2.163-3.547
				c0,0,1.182-2.317,0.047-4.161c0,0,3.121,1.608,4.729-1.608c0,0,0.757,1.324,3.405,0.757c2.648-0.567,2.128-2.885,2.128-2.885
				S114.464,169.434,115.353,168.926z"/>
		</g>
		<g>
			<path fill="#D35971" d="M119.684,183.606c-3.868,1.693-7.603,0.345-7.603,0.345s1.018,3.812,4.576,4.4
				C116.657,188.352,116.955,184.49,119.684,183.606z"/>
		</g>
		<g>
			<path fill="#D35971" d="M107.73,182.793c0,0-0.631-1.797-2.869-1.892s-1.955,2.49-1.955,2.49L107.73,182.793z"/>
		</g>
		<g>
			<path fill="#B22449" d="M170.437,194.191c0,0,2.298-3.16,2.298-6.932c0-3.772-2.88-5.481-2.88-5.481L170.437,194.191z"/>
		</g>
		<g>
			<polygon fill="#F99680" points="159.481,209.239 160.062,220.875 167.124,220.497 167.847,209.653 			"/>
		</g>
		<g>
			
				<ellipse transform="matrix(0.7071 -0.7071 0.7071 0.7071 -92.2134 132.3395)" fill="#D35971" cx="113.641" cy="177.481" rx="1.718" ry="1.182"/>
		</g>
		<g>
			
				<ellipse transform="matrix(0.7071 -0.7071 0.7071 0.7071 -87.523 134.3744)" fill="#D35971" cx="118.443" cy="172.837" rx="1.264" ry="0.87"/>
		</g>
		<g>
			<circle fill="#343A3A" cx="112.104" cy="174.1" r="0.402"/>
		</g>
		<g>
			<circle fill="#343A3A" cx="115.763" cy="170.157" r="0.402"/>
		</g>
		<g>
			<path fill="#B22449" d="M141.629,196.743c0,0,0.61-12.056,6.716-11.348c6.106,0.708,6.505,9.222,9.757,13.855
				c3.252,4.633,4.99-15.511,1.378-19.862c-3.611-4.35-7.899-7.03-14.456-4.886s-8.165-3.395-9.016,5.285
				C135.157,188.468,141.629,196.743,141.629,196.743z"/>
		</g>
		<g>
			<path fill="#D35971" d="M196.221,178.947c0,0,1.009-3.121,4.256-1.734L196.221,178.947z"/>
		</g>
		<g>
			
				<ellipse transform="matrix(0.5989 -0.8009 0.8009 0.5989 -64.1229 221.3869)" fill="#D35971" cx="188.929" cy="174.702" rx="0.946" ry="1.434"/>
		</g>
		<g>
			
				<ellipse transform="matrix(0.5989 -0.8009 0.8009 0.5989 -64.3794 215.8939)" fill="#D35971" cx="183.318" cy="172.211" rx="0.946" ry="1.434"/>
		</g>
		<g>
			<circle fill="#343A3A" cx="185.69" cy="169.204" r="0.455"/>
		</g>
		<g>
			<circle fill="#343A3A" cx="189.755" cy="171.214" r="0.455"/>
		</g>
		<g>
			<circle fill="#343A3A" cx="157.743" cy="99.62" r="0.432"/>
		</g>
		<g>
			<path fill="#F9B655" d="M142.703,111.438c-3.322-2.036-7.735-2.792-9.532,6.003s-3.688,27.711-3.405,34.425
				c0.284,6.715,0.851,14.281,0.851,14.281s12.557-7.503,18.51-7.629c5.953-0.126,8.223,1.448,8.223,1.448
				s-0.378-17.967,3.153-16.958s14.502,5.044,16.015,4.161c1.513-0.883,14.816-17.717,14.816-17.717l-4.16-3.279l5.359-3.026
				l-0.507-2.691c0,0-0.927,0.122-1.762,0.531s-1.86,1.088-1.86,1.088l-4.445-8.985c0,0-17.906,10.435-18.158,10.435
				s-14.402-9.317-14.402-9.317L142.703,111.438z"/>
		</g>
		<g>
			<path fill="#F99680" d="M134.558,210.577l4.572,9.92c0,0,3.909-0.063,4.792-3.405l-2.681-10.306L134.558,210.577z"/>
		</g>
		<g>
			<path fill="#D35971" d="M159.481,209.239l0.197,3.948c0,0,5.845,2.073,8.169-3.534L159.481,209.239z"/>
		</g>
		<g>
			<path fill="#D35971" d="M134.558,210.577c0,0,4.524,4.014,7.669,0l-0.986-3.79L134.558,210.577z"/>
		</g>
		<g>
			<path fill="#343A3A" d="M136.673,161.605c-3.282,0.823-9.46,0.823-10.595,14.694c-1.135,13.871,3.724,33.038,9.554,34.804
				c5.83,1.765,6.145-6.179,6.177-11.223s-2.414-16.169-1.38-19.37s12.887-0.175,12.887-0.175s3.909-0.631,4.414,11.475
				c0.504,12.106,1.012,18.158,3.406,20.428c2.394,2.27,8.573-1.135,9.456-10.971c0.883-9.836-1.513-30.895-4.161-35.119
				C163.782,161.924,136.673,161.605,136.673,161.605z"/>
		</g>
		<g>
			<circle fill="#343A3A" cx="161.408" cy="102.195" r="0.432"/>
		</g>
		<g>
			<path fill="#F0CFBD" d="M144.544,109.904l-1.841,1.534l8.279,7.075l0.415-4.305l0.657,2.854l-0.495-4.13l-0.104,1.009
				c0,0-2.238-0.095-4.272-1.387C145.151,111.263,144.544,109.904,144.544,109.904z"/>
		</g>
		<g>
			<path fill="#DB833A" d="M160.794,143.093c-4.199-1.283-7.478-1.598-7.478-1.598l4.703,6.027
				C158.019,147.522,158.629,142.41,160.794,143.093z"/>
		</g>
		<g>
			<path fill="#DB833A" d="M188.403,122.076l-8.732,7.062c0,0,11.349-2.963,12.862-5.99l-0.507-2.691c0,0-0.606,0.031-1.671,0.488
				C189.29,121.402,188.403,122.076,188.403,122.076z"/>
		</g>
		<g>
			<path fill="#DB833A" d="M179.671,129.137c0,0-16.551,15.293-19.751,13.699l5.282,1.672
				C165.202,144.509,175.509,142.126,179.671,129.137z"/>
		</g>
		<g>
			<path fill="#DB833A" d="M171.916,135.841c0,0,5.232,1.366,9.394-2.164c4.161-3.531,4.114-9.192,4.114-9.192L171.916,135.841z"/>
		</g>
		<g>
			<path fill="#303535" d="M136.673,161.605c0,0-5.677,2.226-3.219,9.343c2.459,7.117,7.116,9.952,7.116,9.952l12.745-0.565
				c0,0,12.185-6.391,5.667-17.003L136.673,161.605z"/>
		</g>
		<g>
			<path fill="#343A3A" d="M137.564,169.127c0,0-3.258-4.823-0.468-6.904c0,0-2.306-2.837-1.129-5.722s5.007-2.695,5.007-2.695
				s0.236-1.797,1.702-1.229c0,0,2.79-3.357,6.147-1.702c3.357,1.655,2.979,4.54,2.979,4.54s1.371-0.804,2.27-0.236
				c0.898,0.567,0.567,1.75,0.567,1.75s4.981,1.97,3.247,5.958c0,0,1.387-0.331,1.04,2.128c-0.347,2.459-1.573,4.505-1.573,4.505
				L137.564,169.127z"/>
		</g>
		<g>
			<path fill="#F99680" d="M155.633,168.891c-0.388,0-0.754,0.085-1.087,0.232c-0.781-3.566-3.955-6.238-7.756-6.238
				c-3.552,0-6.558,2.332-7.575,5.548c-1.417,0.08-2.545,1.243-2.545,2.68c0,1.489,1.207,2.696,2.695,2.696
				c0.021,0,0.04-0.006,0.06-0.006c0.001,0.001,0.001,0.003,0.002,0.004l-0.062,0.002c0,0-0.028,7.499,3.312,10.405l-0.018,0.003
				c0,0,0.82,6.662,3.137,7.892s4.35-1.182,4.965-2.648c0.615-1.466,1.18-6.906,1.18-6.906l-0.004,0.001
				c0.64-0.769,1.114-1.564,1.377-2.222c0.718-1.795,1.163-4.866,1.336-6.244c0.305,0.12,0.634,0.191,0.981,0.191
				c1.489,0,2.695-1.207,2.695-2.696C158.328,170.097,157.121,168.891,155.633,168.891z"/>
		</g>
		<g>
			<path fill="#D35971" d="M155.42,170.333l0.922,2.577C156.342,172.91,157.973,170.948,155.42,170.333z"/>
		</g>
		<g>
			<path fill="#D35971" d="M138.42,172.201l0.544-2.506C138.964,169.694,136.93,170.191,138.42,172.201z"/>
		</g>
		<g>
			<path fill="#343A3A" d="M143.921,217.092c0,0,2.207,5.517,3.058,7.314c0.851,1.797,4.067,7.802,4.067,7.802
				s-11.412,6.132-14.439,9.536c0,0-1.955-2.585,0-5.99s4.666-5.801,4.224-9.647c-0.441-3.846-1.702-5.611-1.702-5.611
				L143.921,217.092z"/>
		</g>
		<g>
			<path fill="#D35971" d="M142.504,184.053c1.047,0.773,2.466-1.969,5.161-1.52c2.695,0.449,2.55,1.486,4.278,0.022l-0.239,2.015
				c0,0-4.303,5.518-8.502,2.517C143.201,187.087,142.639,184.699,142.504,184.053z"/>
		</g>
		<g>
			<ellipse fill="#D35971" cx="150.51" cy="172.437" rx="1.608" ry="1.025"/>
		</g>
		<g>
			<ellipse fill="#D35971" cx="143.417" cy="172.646" rx="1.608" ry="1.025"/>
		</g>
		<g>
			<circle fill="#343A3A" cx="150.36" cy="168.489" r="0.426"/>
		</g>
		<g>
			<circle fill="#343A3A" cx="143.417" cy="168.276" r="0.426"/>
		</g>
		<g>
			<path fill="#343A3A" d="M160.062,220.875v16.488l17.749,0.662c0,0-0.378-3.499-4.54-4.729s-6.631-5.543-6.147-12.799
				L160.062,220.875z"/>
		</g>
		<g>
			<path fill="#F0CFBD" d="M142.678,184.214c0,0-1.043,4.207-0.451,7.99c0.592,3.783,2.436,4.54,2.436,4.54l1.986-4.296
				C146.648,192.447,144.142,191.92,142.678,184.214z"/>
		</g>
		<g>
			<path fill="#F0CFBD" d="M146.648,192.447l2.175,4.296c0,0,1.888-1.277,3.119-5.627c1.231-4.35,0-8.561,0-8.561
				S151.33,192.69,146.648,192.447z"/>
		</g>
		<g>
			<path fill="#F0CFBD" d="M109.37,186.45l-0.883,1.902l5.154,9.321l2.349-4.792l1.955,3.279l-1.647-5.681l-0.213,1.583
				C116.084,192.061,113.783,192.629,109.37,186.45z"/>
		</g>
		<g>
			<path fill="#E53362" d="M109.854,184.214c0,0-8.933,1.511-11.109,9.929c-2.175,8.417,2.648,20.145,2.648,20.145l9.174-5.048
				c0,0-4.006-12.404-4.114-14.955c-0.142-3.357,2.818-4.513,2.818-4.513S110.095,185.979,109.854,184.214z"/>
		</g>
		<g>
			<path fill="#F99680" d="M109.157,210.015c1.553,1.387,2.735,2.569,3.964,4.697s4.776,3.31,4.776,3.31s-0.946,1.702-2.648,1.088
				c-1.702-0.615-4.303-1.608-4.398-0.615c-0.095,0.993,0.709,4.114,3.31,5.533s3.452,3.121,2.459,4.209
				c0,0-0.993-0.898-1.844-1.371c-0.851-0.473-2.459-1.419-3.216-2.175c0,0,0.615,1.009,1.529,1.639
				c0.914,0.631,1.545,1.513,0.662,2.396c0,0-1.765-1.229-2.301-1.765c-0.536-0.536-2.459-2.932-2.459-2.932s0.82,1.671,1.419,2.554
				c0.599,0.883,1.103,1.734,0.063,2.301c0,0-0.662-0.883-1.482-1.923l-1.892-2.27c0,0-0.347,0.284,0.189,1.734
				c0.536,1.45,1.072,3.026-0.126,3.531c0,0-0.347-1.419-1.166-3.405c-0.82-1.986-1.052-3.42-1.622-7.062
				c-0.569-3.641-1.718-5.897-1.718-5.897L109.157,210.015z"/>
		</g>
		<g>
			<path fill="#D35971" d="M109.157,210.015c0,0-3.402,3.097-5.488,6.301c0,0-0.529-1.599-1.012-2.724L109.157,210.015z"/>
		</g>
		<g>
			<path fill="#F0CFBD" d="M194.487,188.531l-7.125,2.668v4.772c0,0,5.546-3.843,6.808-5.705
				C194.171,190.266,194.716,189.412,194.487,188.531z"/>
		</g>
		<g>
			<polygon fill="#F0CFBD" points="185.345,188.611 187.363,191.199 185.786,195.277 184.841,189.918 			"/>
		</g>
		<g>
			<path fill="#D35971" d="M189.492,203.732c0,0,4.472,2.279,5.916,6.243c0,0,0.42-1.726,1.137-3.168L189.492,203.732z"/>
		</g>
		<g>
			<path fill="#F99680" d="M224.221,187.479c0,0,0.877-1.234,0.546-4.922c-0.331-3.688-2.648-4.871-2.648-4.871
				s0.236-1.608,1.75-1.088c1.513,0.52,3.594,4.823,5.249,0.946c1.655-3.878,3.357-10.782,4.35-10.829
				c0.993-0.047,1.277,0,0.993,1.371s-1.939,8.228-1.939,8.228s0.993-0.662,1.419-0.378c0.426,0.284,0.624,1.655,0.624,1.655
				s0.51-0.189,1.172,0.426c0.662,0.615,0,1.844,0,1.844s0.662-0.757,1.229,0.142c0.567,0.898-0.851,2.913-0.851,2.913
				s0.567,2.074-0.473,3.292s-4.35,4.811-4.35,4.811L224.221,187.479z"/>
		</g>
		<g>
			<path fill="#D35971" d="M224.221,187.479c0,0,5.34-1.032,7.956,2.579l-0.884,0.962L224.221,187.479z"/>
		</g>
		<g>
			<path fill="#81813B" d="M103.888,234.527l0.38,6.131l1.105,1.858l1.695,0.238l2.089-0.556
				C109.157,242.198,105.342,241.573,103.888,234.527z"/>
		</g>
		<g>
			<path fill="#81813B" d="M107.472,198.944c0,0-0.404-2.406,0.636-5.023c1.04-2.617,1.893-2.83,1.893-2.83l-0.73-1.32
				c0,0-2.497,1.156-2.76,3.488S107.472,198.944,107.472,198.944z"/>
		</g>
		<g>
			<path fill="#2C466D" d="M203.614,211.565c-3.579-2.985-6.17,1.252-2.888,7.362C200.726,218.927,201.472,209.969,203.614,211.565z
				"/>
		</g>
		<g>
			<path fill="#2C466D" d="M192.223,192.251l0.103,3.235c0,0,1.529-3.484,1.845-5.219L192.223,192.251z"/>
		</g>
		<g>
			<path fill="#303535" d="M122.547,285.88c0.252-14.249,0-28.625,0-28.625s12.041,19.025,1.229,38.705L122.547,285.88z"/>
		</g>
		<g>
			<path fill="#303535" d="M155.018,276.801c-0.567-11.727-1.513-28.297-1.513-28.297s15.889,16.138,3.216,37.16L155.018,276.801z"
				/>
		</g>
		<g>
			<path fill="#303535" d="M185.093,293.572l-1.702-32.849C183.391,260.723,195.79,271.287,185.093,293.572z"/>
		</g>
		<g>
			<path fill="#343A3A" d="M146.884,340.608l7.188-0.378c0,0,0.315,13.241,1.198,16.519c0.883,3.279,2.018,6.305,2.207,7.881
				h-10.592c0,0,0.252-9.647,0.504-13.619C147.641,347.039,146.884,340.608,146.884,340.608z"/>
		</g>
		<g>
			<path fill="#343A3A" d="M165.358,339.851c0,0,0.567,12.295,0.378,15.258c-0.189,2.963-0.378,9.521-0.378,9.521h11.063
				c0,0-0.786-2.837-1.29-5.044c-0.504-2.207-1.892-8.07-2.144-11.034c-0.252-2.963-1.135-8.701-1.135-8.701H165.358z"/>
		</g>
		<g>
			<path fill="#343A3A" d="M112.018,348.237l-0.82,16.393h20.933c0,0-0.024-3.089-5.34-5.107s-8.153-0.504-8.153-11.286H112.018z"/>
		</g>
		<g>
			<path fill="#343A3A" d="M127.591,346.85v13.808h20.554c0,0,0.757-4.224-4.918-5.801c-5.675-1.576-8.74-6.422-8.658-10.398
				l-7.07,0.446L127.591,346.85z"/>
		</g>
		<g>
			<path fill="#343A3A" d="M198.523,337.455c0,0,1.765,18.032,2.396,19.735c0.631,1.702,4.035,3.783,4.414,7.44h-12.547
				c0,0-0.946-7.629-0.82-9.899c0.126-2.27-0.567-17.276-0.567-17.276H198.523z"/>
		</g>
		<g>
			<path fill="#343A3A" d="M184.399,338.338l1.639,19.892h-16.74c0,0-0.221-3.499,3.058-4.634s5.43-5.444,4.918-15.258H184.399z"/>
		</g>
		<g>
			<path fill="#474F50" d="M244.108,108.826h-11.291c-0.276,0-0.5-0.224-0.5-0.5s0.224-0.5,0.5-0.5h11.291
				c0.276,0,0.5,0.224,0.5,0.5S244.385,108.826,244.108,108.826z"/>
		</g>
		<g>
			<path fill="#D35971" d="M232.522,176.315c0,0-2.664,5.28-2.349,5.848c0.315,0.567,0.662,0.82,1.009,0.694s0.82-1.079,0.82-1.079
				s-0.473,1.646-0.221,1.867c0.252,0.221,1.103,0.441,1.166,0.221s1.04-1.04,1.04-1.04s-0.851,1.387-0.567,1.734
				c0.284,0.347,0.725,0.315,1.135,0c0.41-0.315,1.561-1.642,1.561-1.642s0.186,0.691,0.14,1.639s-0.343,1.379-1.508,2.67
				c0,0,0.638-1.122-1.543-1.69c-2.181-0.567-3.946-1.04-4.324-3.089C228.503,180.397,232.522,176.315,232.522,176.315z"/>
		</g>
	</g>
	<g id="woman_3_">
		<g>
			<g>
				<g>
					<path fill="#B22449" d="M426.201,216.05c0.153-4.576,1.983-8.314,1.983-8.314s-9.377,3.745-6.328,13.123L426.201,216.05z"/>
				</g>
				<g>
					<path fill="#F99680" d="M432.913,326.493c0,0,2.441,16.094,1.678,19.907c0,0,4.195,3.356,7.551-0.61l-1.449-20.746
						C440.692,325.044,438.328,327.638,432.913,326.493z"/>
				</g>
				<g>
					<path fill="#F99680" d="M471.038,326.131c0,0,5.992,1.679,8.549-3.788l8.485,19.232l-7.333,2.886L471.038,326.131z"/>
				</g>
				<g>
					<path fill="#D35971" d="M432.913,326.493l0.552,3.916c0,0,6.609-0.525,7.395-5.538L432.913,326.493z"/>
				</g>
				<g>
					<path fill="#ED5526" d="M436.345,172.956c0,0,6.636-3.966,10.297-1.068c3.661,2.898,2.975,13.195,15.789,13.958
						c12.814,0.763,21.28,17.009,12.585,25.018c-8.695,8.009-16.498,4.573-16.498,4.573L430.09,192.71c0,0,2.02-4.881,1.163-8.466
						S429.251,171.049,436.345,172.956z"/>
				</g>
				<g>
					<path fill="#D35971" d="M472.008,327.964l2.311,4.367c0,0,6.684-1.91,5.806-8.812L472.008,327.964z"/>
				</g>
				<g>
					<path fill="#3C5E93" d="M425.361,240.61c-1.525,15.56-0.61,40.544,0.763,51.544c1.373,11,4.271,30.373,6.788,34.339
						c2.517,3.966,7.78-1.449,7.78-1.449s4.042-3.28,2.517-22.195c-1.525-18.916-1.068-32.645-1.068-32.645s12.051,34.17,18,45.154
						c5.949,10.983,11.746,12.585,11.746,12.585s6.254,1.297,8.238-4.424c1.983-5.72-4.729-21.89-11.136-39.891
						c-6.407-18-11.132-45.077-11.132-45.077L425.361,240.61z"/>
				</g>
				<g>
					<path fill="#F99680" d="M445.24,179.897c-0.526,0-1.014,0.149-1.441,0.391c-0.712-2.659-3.199-4.625-6.167-4.625
						c-3.523,0-6.378,2.766-6.378,6.178c0,0-0.114,8.752,3.375,9.61c0.472,0.116,0.969,0.121,1.475,0.049
						c-0.027,0.03,0.641,2.697-0.617,4.47c0,0,2.975,4.462,8.066-0.801c0,0-0.744-5.184,0.458-9.657c0-0.001,0-0.001,0-0.001
						c0.375,0.173,0.789,0.276,1.23,0.276c1.627,0,2.946-1.319,2.946-2.946C448.186,181.216,446.867,179.897,445.24,179.897z"/>
				</g>
				<g>
					<path fill="#E53362" d="M435.487,195.971c-3.093-2.593-7.837-7.227-12.185-0.667c-4.348,6.559-8.009,17.467-8.009,17.467
						l-4.5-12.051l-8.466,6.102c0,0,6.865,19.831,10.907,19.984s12.966-10.755,12.966-10.755s-0.305,2.288,0.915,5.492
						c1.22,3.203-1.754,19.068-1.754,19.068h3.89l-0.229,1.297c0,0,29.289-1.525,29.67-4.042c0.381-2.517,0.763-37.679-3.966-41.95
						c-4.729-4.271-11.174-0.744-11.174-0.744S437.603,199.69,435.487,195.971z"/>
				</g>
				<g>
					<circle fill="#82C2D1" cx="408.279" cy="213.672" r="22.974"/>
				</g>
				<g>
					<path fill="#F99680" d="M430.338,234.356c0,0-5.32,1.144-7.837,0c-2.517-1.144-4.576-4.576-4.576-4.576s-1.5,0.578-0.928,2.237
						c0.572,1.659,2.245,2.784-0.387,2.848c-2.632,0.064-9.325-0.235-11.156,0c-1.831,0.235-1.259,1.494-1.259,1.494
						s4.233,0.057,6.35,0.686c0,0-4.119,0.057-4.062,1.831c0,0,3.947-0.572,5.835-0.629s6.407,1.545,8.524,2.002
						s8.409,0.362,8.409,0.362L430.338,234.356z"/>
				</g>
				<g>
					<path fill="#2C466D" d="M442.142,270.204c0,0-3.432-11.479-4.615-17.772c0,0-11.983,11.898,4.572,26.657
						C442.099,279.089,441.961,274.142,442.142,270.204z"/>
				</g>
				<g>
					<path fill="#474F50" d="M441.976,343.422l1.92,21.208h-25.704c0,0-0.458-4.348,6.788-5.949
						c7.246-1.602,9.871-11.98,9.756-14.722C434.736,343.959,437.616,345.324,441.976,343.422z"/>
				</g>
				<g>
					<path fill="#474F50" d="M480.479,343.422c0,0,1.866-4.084,6.934-3.337c0,0,4.153,7.765,5.983,10.968
						c1.831,3.203,5.034,9.305,4.881,13.577h-12.814c0,0-0.915-8.543-1.373-11.288C483.634,350.596,480.479,343.422,480.479,343.422
						z"/>
				</g>
				<g>
					<path fill="#ED5526" d="M446.247,180.083c0,0-7.309,5.382-10.055-4.419c0,0-2.86,5.072-4.939,6.178
						c0,0-0.629-6.598,4.405-7.284C440.692,173.871,446.247,180.083,446.247,180.083z"/>
				</g>
				<g>
					<path fill="#ED5526" d="M436.192,175.663c0,0,0.61,4.996,3.527,6.026c0,0-2.917-0.038-3.794-5.72v-0.839L436.192,175.663z"/>
				</g>
				<g>
					<path fill="#D35971" d="M436.104,191.501c1.967-0.148,4.016-0.679,5.103-2.481c0,0,0.548,4.701-5.032,5.168
						C436.176,194.189,436.388,193.025,436.104,191.501z"/>
				</g>
				<g>
					<ellipse fill="#D35971" cx="432.868" cy="184.816" rx="1.081" ry="0.754"/>
				</g>
				<g>
					<ellipse fill="#D35971" cx="438.738" cy="184.816" rx="1.081" ry="0.754"/>
				</g>
				<g>
					<path fill="#D35971" d="M444.582,184.062c0,0-0.305-3.06,2.517-2.221L444.582,184.062z"/>
				</g>
				<g>
					<path fill="#D35971" d="M430.338,234.356c0,0-3.604,2.8-3.261,6.263l2.174-0.008L430.338,234.356z"/>
				</g>
				<g>
					<polygon fill="#F0CFBD" points="429.023,241.907 430.614,232.945 432.836,232.945 431.234,241.78 					"/>
				</g>
				<g>
					<path fill="#B22449" d="M432.836,232.945l14.873-1.869C447.71,231.076,438.557,221.465,432.836,232.945z"/>
				</g>
				<g>
					<path fill="#F0CFBD" d="M443.423,193.911c0,0-3.089,2.646-5.038,3.515l1.488,2.571l3.836-4.907L443.423,193.911z"/>
				</g>
				<g>
					<polygon fill="#F0CFBD" points="435.878,195.259 438.385,197.426 436.72,199.776 435.487,195.971 					"/>
				</g>
				<g>
					<path fill="#474F50" d="M385.306,212.477h-16.238c-0.276,0-0.5-0.224-0.5-0.5s0.224-0.5,0.5-0.5h16.238
						c0.276,0,0.5,0.224,0.5,0.5S385.582,212.477,385.306,212.477z"/>
				</g>
			</g>
		</g>
		<g>
			<circle fill="#474F50" cx="432.478" cy="182.821" r="0.507"/>
		</g>
		<g>
			<circle fill="#474F50" cx="438.497" cy="182.666" r="0.507"/>
		</g>
	</g>
	<g id="grass_4_">
		<g>
			<g>
				<path fill="#A8A848" d="M208.329,364.63c0,0-3.076-22.243,16.754-33.864c0,0,0.114,6.011-1.14,10.013l-3.533,0.825l2.735,2.187
					c0,0-4.559,10.834-13.904,20.839H208.329z"/>
			</g>
			<g>
				<path fill="#A8A848" d="M211.749,364.63c0,0,6.04-14.981,23.135-15.522c0,0-1.368,5.138-4.787,7.761l-2.279-0.838l0.456,2.704
					c0,0-4.103,4.218-15.043,5.895H211.749z"/>
			</g>
			<g>
				<path fill="#FFFFFF" d="M209.241,364.88c-0.015,0-0.03-0.001-0.046-0.004c-0.136-0.025-0.226-0.156-0.2-0.292
					c2.601-14.005,15.747-33.76,15.879-33.957c0.077-0.115,0.234-0.145,0.347-0.069c0.115,0.077,0.146,0.232,0.069,0.347
					c-0.132,0.197-13.222,19.868-15.803,33.771C209.465,364.796,209.359,364.88,209.241,364.88z"/>
			</g>
			<g>
				<path fill="#FFFFFF" d="M213.23,364.88c-0.064,0-0.13-0.025-0.179-0.075c-0.097-0.099-0.095-0.257,0.004-0.354
					c0.096-0.094,9.738-9.454,21.715-15.566c0.124-0.062,0.273-0.014,0.336,0.109s0.014,0.273-0.109,0.336
					c-11.909,6.078-21.496,15.386-21.592,15.479C213.356,364.857,213.294,364.88,213.23,364.88z"/>
			</g>
		</g>
		<g>
			<g>
				<path fill="#A8A848" d="M105.954,364.63c0,0,2.266-16.382-12.339-24.941c0,0-0.084,4.427,0.839,7.375l2.602,0.607l-2.014,1.61
					c0,0,3.357,7.979,10.24,15.348H105.954z"/>
			</g>
			<g>
				<path fill="#A8A848" d="M103.435,364.63c0,0-4.449-11.034-17.039-11.432c0,0,1.007,3.784,3.525,5.716l1.679-0.617l-0.336,1.992
					c0,0,3.022,3.107,11.08,4.342H103.435z"/>
			</g>
			<g>
				<path fill="#FFFFFF" d="M105.281,364.88c-0.118,0-0.224-0.084-0.246-0.204c-1.899-10.228-11.531-24.702-11.629-24.848
					c-0.076-0.114-0.046-0.27,0.069-0.347c0.111-0.076,0.269-0.046,0.347,0.069c0.098,0.146,9.787,14.706,11.705,25.033
					c0.025,0.136-0.064,0.267-0.2,0.292C105.312,364.879,105.296,364.88,105.281,364.88z"/>
			</g>
			<g>
				<path fill="#FFFFFF" d="M102.344,364.88c-0.063,0-0.126-0.023-0.175-0.071c-0.07-0.068-7.128-6.918-15.887-11.388
					c-0.123-0.062-0.172-0.213-0.109-0.336c0.062-0.123,0.214-0.172,0.336-0.109c8.829,4.505,15.938,11.406,16.01,11.476
					c0.099,0.097,0.101,0.255,0.004,0.354C102.474,364.855,102.408,364.88,102.344,364.88z"/>
			</g>
		</g>
		<g>
			<g>
				<path fill="#A8A848" d="M320.11,364.63c0,0-2.763-32.088,19.011-39.342c21.774-7.254-16.53,39.342-16.53,39.342H320.11z"/>
			</g>
			<g>
				<path fill="#A8A848" d="M325.663,364.63c0,0,11.21-22.248,24.515-20.809c13.305,1.439-20.942,20.809-20.942,20.809H325.663z"/>
			</g>
			<g>
				<path fill="#FFFFFF" d="M320.858,364.88c-0.025,0-0.052-0.004-0.077-0.012c-0.131-0.043-0.203-0.184-0.161-0.315
					c6.432-19.897,13.726-32.224,23.651-39.969c0.106-0.084,0.265-0.066,0.351,0.044c0.085,0.108,0.065,0.266-0.044,0.351
					c-9.841,7.679-17.083,19.932-23.481,39.729C321.062,364.813,320.964,364.88,320.858,364.88z"/>
			</g>
			<g>
				<path fill="#FFFFFF" d="M327.187,364.88c-0.053,0-0.106-0.017-0.151-0.052c-0.11-0.083-0.131-0.24-0.047-0.35
					c11.415-14.938,25.396-20.088,25.535-20.139c0.132-0.045,0.272,0.021,0.32,0.15c0.047,0.13-0.021,0.273-0.15,0.32
					c-0.139,0.05-13.986,5.155-25.309,19.971C327.337,364.846,327.263,364.88,327.187,364.88z"/>
			</g>
		</g>
		<g>
			<g>
				<path fill="#A8A848" d="M400.673,364.63c0,0-1.811-21.034,12.462-25.789c14.273-4.755-10.836,25.789-10.836,25.789H400.673z"/>
			</g>
			<g>
				<path fill="#A8A848" d="M404.313,364.63c0,0,7.349-14.584,16.07-13.641c8.721,0.943-13.728,13.641-13.728,13.641H404.313z"/>
			</g>
			<g>
				<path fill="#FFFFFF" d="M401.164,364.88c-0.025,0-0.052-0.004-0.077-0.012c-0.131-0.043-0.203-0.184-0.161-0.315
					c4.222-13.06,9.012-21.152,15.532-26.242c0.109-0.085,0.265-0.065,0.352,0.043c0.085,0.109,0.065,0.267-0.043,0.352
					c-6.438,5.023-11.176,13.043-15.364,26.002C401.368,364.813,401.27,364.88,401.164,364.88z"/>
			</g>
			<g>
				<path fill="#FFFFFF" d="M405.312,364.88c-0.053,0-0.106-0.017-0.151-0.052c-0.11-0.083-0.131-0.24-0.047-0.35
					c7.499-9.812,16.687-13.197,16.778-13.23c0.13-0.044,0.273,0.021,0.32,0.15s-0.021,0.273-0.15,0.32
					c-0.091,0.032-9.146,3.374-16.552,13.062C405.462,364.846,405.388,364.88,405.312,364.88z"/>
			</g>
		</g>
	</g>
	<g id="speech_bubble_2_">
		<g>
			<path fill="#E53362" d="M279.306,244.748h-42.748c-5.005,0-9.063,4.058-9.063,9.063c0,5.005,4.058,9.063,9.063,9.063h7.062
				c-0.52,2.147-1.579,5.798-2.974,6.89c0,0,6.875-3.703,7.987-6.89h30.673c5.005,0,9.063-4.058,9.063-9.063
				C288.369,248.805,284.311,244.748,279.306,244.748z"/>
		</g>
		<g>
			<path fill="#FFFFFF" d="M253.819,257.851c-0.329,0-0.658-0.018-0.987-0.055c-1.575-0.174-2.531-0.712-3.109-1.334
				c-1.068,0.572-2.412,0.963-4.067,1.043c-1.712,0.085-2.919-0.302-3.737-0.853c-0.804,0.444-1.823,0.754-3.093,0.852
				c-2.236,0.174-3.934-0.324-5.03-1.476c-1.623-1.704-1.33-4.193-1.316-4.299c0.017-0.136,0.13-0.233,0.279-0.217
				c0.137,0.018,0.233,0.143,0.217,0.279c-0.003,0.023-0.274,2.365,1.186,3.895c0.988,1.035,2.547,1.485,4.626,1.319
				c1.09-0.084,1.979-0.334,2.692-0.693c-0.363-0.322-0.63-0.675-0.824-1.011c-0.948-1.634-0.679-3.738,0.056-4.889
				c0.451-0.706,1.052-1.057,1.683-1.005c1.185,0.107,2.07,1.446,2.059,3.114c-0.01,1.319-0.598,2.821-2.058,3.835
				c0.734,0.431,1.763,0.729,3.238,0.647c1.532-0.074,2.779-0.426,3.773-0.942c-0.182-0.272-0.306-0.55-0.389-0.81
				c-0.634-1.983,0.545-4.395,1.641-5.373c0.546-0.488,1.082-0.648,1.519-0.456c0.759,0.341,1.102,1.452,0.854,2.765
				c-0.263,1.389-1.16,2.946-2.866,4.018c0.596,0.592,1.506,0.958,2.724,1.094c1.991,0.214,4.077-0.325,5.913-1.246
				c-0.552-0.508-0.825-1.065-0.953-1.56c-0.493-1.912,0.853-4.136,2.437-5.345c1.294-0.988,2.641-1.254,3.604-0.703
				c0.868,0.496,1.142,1.396,0.771,2.535c-0.548,1.683-2.444,3.733-4.914,5.153c0.684,0.412,1.593,0.707,2.711,0.873
				c4.069,0.604,7.636-0.162,10.115-1.391c-0.335-0.375-0.512-0.774-0.597-1.148c-0.349-1.531,0.789-3.282,2.07-3.956
				c0.851-0.449,1.644-0.375,2.176,0.202c0.558,0.604,0.607,1.426,0.139,2.312c-0.479,0.903-1.493,1.861-2.918,2.674
				c0.826,0.561,2.127,0.89,3.833,0.953c0.138,0.005,0.245,0.121,0.24,0.26c-0.005,0.135-0.116,0.24-0.25,0.24
				c-0.003,0-0.006,0-0.01,0c-2.215-0.083-3.534-0.57-4.309-1.186c-2.583,1.324-6.31,2.167-10.564,1.533
				c-1.442-0.214-2.443-0.615-3.136-1.094C257.587,257.278,255.707,257.85,253.819,257.851z M242.262,249.903
				c-0.548,0-0.94,0.481-1.131,0.779c-0.654,1.026-0.893,2.906-0.044,4.369c0.192,0.333,0.467,0.686,0.856,0.997
				c1.428-0.913,1.999-2.309,2.008-3.529c0.01-1.405-0.68-2.528-1.604-2.612C242.318,249.904,242.29,249.903,242.262,249.903z
				 M251.794,249.845c-0.224,0-0.506,0.142-0.804,0.408c-0.969,0.865-2.06,3.09-1.497,4.848c0.083,0.261,0.199,0.5,0.347,0.716
				c1.611-0.99,2.455-2.435,2.698-3.722c0.201-1.063-0.032-1.974-0.567-2.214C251.917,249.857,251.858,249.845,251.794,249.845z
				 M262.77,248.663c-0.657,0-1.422,0.303-2.184,0.884c-1.452,1.108-2.693,3.121-2.255,4.822c0.144,0.557,0.461,1.037,0.943,1.435
				c2.448-1.347,4.374-3.337,4.908-4.978c0.298-0.915,0.114-1.569-0.544-1.946C263.384,248.735,263.09,248.663,262.77,248.663z
				 M275.098,250.725c-0.314,0-0.617,0.123-0.821,0.23c-1.094,0.575-2.108,2.114-1.815,3.403c0.087,0.383,0.281,0.722,0.577,1.014
				c1.414-0.777,2.415-1.704,2.878-2.579c0.256-0.484,0.453-1.179-0.063-1.738C275.626,250.809,275.357,250.725,275.098,250.725z"/>
		</g>
	</g>
	<g id="tree">
		<g>
			<path fill="#474F50" d="M309.05,365.13c-0.276,0-0.5-0.224-0.5-0.5V166.148c0-0.085,0.021-0.169,0.062-0.243l36.821-66.296
				c0.135-0.242,0.439-0.326,0.681-0.194c0.241,0.135,0.328,0.438,0.194,0.681l-36.759,66.183V364.63
				C309.55,364.907,309.326,365.13,309.05,365.13z"/>
		</g>
		<g>
			<path fill="#474F50" d="M309.05,166.648c-0.276,0-0.5-0.224-0.5-0.5v-39.265c0-0.276,0.224-0.5,0.5-0.5s0.5,0.224,0.5,0.5v39.265
				C309.55,166.424,309.326,166.648,309.05,166.648z"/>
		</g>
		<g>
			<path fill="#474F50" d="M309.05,141.995c-0.165,0-0.327-0.082-0.423-0.232l-26.229-41.444c-0.147-0.233-0.078-0.542,0.155-0.69
				c0.23-0.146,0.541-0.08,0.69,0.155l26.229,41.444c0.147,0.233,0.078,0.542-0.155,0.69
				C309.234,141.97,309.142,141.995,309.05,141.995z"/>
		</g>
		<g>
			<path fill="#474F50" d="M317.787,150.915c-0.248,0-0.463-0.185-0.495-0.438c-0.034-0.274,0.16-0.524,0.434-0.559l23.039-2.894
				c0.267-0.036,0.523,0.159,0.559,0.434c0.034,0.274-0.16,0.524-0.434,0.559l-23.039,2.894
				C317.829,150.914,317.809,150.915,317.787,150.915z"/>
		</g>
		<g>
			<path fill="#474F50" d="M334.226,121.319c-0.194,0-0.379-0.114-0.46-0.304L327,105.118c-0.108-0.255,0.01-0.548,0.264-0.656
				c0.256-0.107,0.548,0.011,0.656,0.264l6.766,15.896c0.108,0.255-0.01,0.548-0.264,0.656
				C334.357,121.306,334.291,121.319,334.226,121.319z"/>
		</g>
		<g>
			<path fill="#474F50" d="M309.05,227.313c-0.127,0-0.253-0.048-0.351-0.144c-0.197-0.193-0.199-0.511-0.006-0.707l34.804-35.359
				c0.194-0.197,0.511-0.199,0.707-0.006c0.197,0.193,0.199,0.511,0.006,0.707l-34.804,35.359
				C309.309,227.263,309.179,227.313,309.05,227.313z"/>
		</g>
		<g>
			<path fill="#474F50" d="M309.05,205.171c-0.134,0-0.267-0.054-0.365-0.158l-28.657-30.662c-0.188-0.202-0.178-0.519,0.023-0.707
				c0.202-0.188,0.519-0.176,0.707,0.023l28.657,30.662c0.188,0.202,0.178,0.519-0.023,0.707
				C309.295,205.126,309.172,205.171,309.05,205.171z"/>
		</g>
		<g>
			<circle fill="#82C2D1" cx="274.044" cy="78.143" r="26.053"/>
		</g>
		<g>
			<circle fill="#82C2D1" cx="322.079" cy="92.694" r="13.891"/>
		</g>
		<g>
			<circle fill="#82C2D1" cx="353.667" cy="146.516" r="13.891"/>
		</g>
		<g>
			<circle fill="#82C2D1" cx="348.117" cy="186.205" r="18.922"/>
		</g>
		<g>
			<circle fill="#82C2D1" cx="270.376" cy="161.588" r="18.922"/>
		</g>
		<g>
			<circle fill="#82C2D1" cx="309.05" cy="117.804" r="9.079"/>
		</g>
		<g>
			<circle fill="#82C2D1" cx="354.446" cy="87.521" r="17.402"/>
		</g>
		<g>
			<path fill="#474F50" d="M413.354,180.289c-0.008,0-0.016,0-0.024-0.001c-0.275-0.013-0.488-0.247-0.475-0.523l0.095-1.996
				c0.012-0.275,0.201-0.498,0.521-0.477c0.276,0.012,0.489,0.246,0.477,0.521l-0.095,2
				C413.841,180.081,413.62,180.289,413.354,180.289z M413.536,176.292c-0.006,0-0.013,0-0.019,0
				c-0.276-0.011-0.491-0.243-0.481-0.519c0.025-0.666,0.05-1.331,0.071-1.997c0.009-0.27,0.231-0.483,0.5-0.483
				c0.005,0,0.011,0,0.017,0c0.275,0.009,0.492,0.24,0.483,0.517c-0.021,0.666-0.046,1.333-0.071,2.001
				C414.025,176.08,413.804,176.292,413.536,176.292z M413.664,172.295c-0.004,0-0.007,0-0.011,0
				c-0.276-0.006-0.495-0.235-0.489-0.511c0.015-0.666,0.027-1.331,0.036-1.996c0.004-0.273,0.227-0.493,0.5-0.493
				c0.002,0,0.004,0,0.007,0c0.275,0.004,0.497,0.23,0.493,0.507c-0.009,0.667-0.021,1.336-0.036,2.004
				C414.158,172.078,413.936,172.295,413.664,172.295z M413.714,168.254c-0.276,0-0.5-0.183-0.5-0.459
				c0-0.721-0.004-1.357-0.013-1.994c-0.004-0.276,0.217-0.503,0.493-0.507c0.002,0,0.005,0,0.007,0c0.273,0,0.496,0.22,0.5,0.493
				c0.009,0.641,0.013,1.283,0.013,1.926C414.214,167.99,413.99,168.254,413.714,168.254z M413.658,164.297
				c-0.27,0-0.492-0.214-0.5-0.485c-0.02-0.664-0.045-1.327-0.075-1.988c-0.014-0.275,0.199-0.51,0.476-0.522
				c0.271-0.037,0.511,0.2,0.522,0.476c0.032,0.667,0.058,1.336,0.077,2.006c0.008,0.276-0.209,0.507-0.485,0.515
				C413.668,164.297,413.663,164.297,413.658,164.297z M413.469,160.305c-0.261,0-0.48-0.202-0.498-0.467
				c-0.045-0.663-0.095-1.323-0.153-1.982c-0.024-0.275,0.179-0.518,0.454-0.542c0.251-0.021,0.518,0.179,0.542,0.454
				c0.059,0.665,0.11,1.333,0.155,2.004c0.019,0.275-0.189,0.514-0.466,0.532C413.492,160.305,413.48,160.305,413.469,160.305z
				 M413.116,156.324c-0.251,0-0.467-0.188-0.496-0.443c-0.074-0.659-0.156-1.316-0.246-1.972c-0.038-0.273,0.153-0.526,0.427-0.563
				c0.266-0.038,0.526,0.152,0.563,0.427c0.092,0.663,0.174,1.328,0.25,1.995c0.031,0.274-0.166,0.522-0.44,0.554
				C413.154,156.323,413.136,156.324,413.116,156.324z M412.568,152.365c-0.24,0-0.451-0.174-0.492-0.418
				c-0.108-0.653-0.227-1.304-0.354-1.952c-0.054-0.271,0.122-0.534,0.394-0.587c0.268-0.053,0.533,0.123,0.587,0.394
				c0.13,0.658,0.25,1.318,0.36,1.981c0.045,0.272-0.139,0.53-0.411,0.575C412.624,152.363,412.596,152.365,412.568,152.365z
				 M411.795,148.443c-0.228,0-0.434-0.156-0.487-0.388c-0.149-0.645-0.308-1.286-0.478-1.925c-0.07-0.267,0.088-0.54,0.355-0.611
				c0.269-0.073,0.54,0.088,0.611,0.355c0.172,0.648,0.334,1.3,0.485,1.956c0.062,0.269-0.105,0.537-0.375,0.6
				C411.87,148.439,411.832,148.443,411.795,148.443z M410.767,144.578c-0.215,0-0.412-0.139-0.479-0.354
				c-0.192-0.632-0.396-1.26-0.611-1.885c-0.09-0.261,0.049-0.546,0.31-0.636c0.26-0.091,0.546,0.049,0.636,0.31
				c0.22,0.637,0.427,1.276,0.623,1.92c0.08,0.264-0.068,0.543-0.333,0.624C410.864,144.572,410.814,144.578,410.767,144.578z
				 M409.46,140.798c-0.2,0-0.389-0.121-0.466-0.318c-0.239-0.614-0.49-1.225-0.755-1.831c-0.11-0.253,0.005-0.548,0.258-0.658
				c0.252-0.107,0.548,0.005,0.658,0.258c0.271,0.62,0.527,1.242,0.771,1.868c0.101,0.258-0.027,0.548-0.284,0.647
				C409.582,140.787,409.521,140.798,409.46,140.798z M407.862,137.132c-0.185,0-0.363-0.104-0.449-0.281
				c-0.288-0.592-0.589-1.179-0.903-1.762c-0.131-0.243-0.04-0.547,0.203-0.678c0.245-0.129,0.546-0.04,0.678,0.203
				c0.32,0.597,0.627,1.195,0.921,1.799c0.121,0.248,0.018,0.548-0.23,0.668C408.011,137.116,407.937,137.132,407.862,137.132z
				 M405.964,133.612c-0.17,0-0.336-0.087-0.43-0.244c-0.335-0.563-0.684-1.123-1.048-1.679c-0.15-0.23-0.086-0.541,0.146-0.692
				c0.229-0.148,0.54-0.086,0.692,0.146c0.37,0.567,0.727,1.139,1.069,1.714c0.142,0.237,0.063,0.544-0.174,0.686
				C406.14,133.589,406.052,133.612,405.964,133.612z M403.776,130.266c-0.155,0-0.309-0.072-0.406-0.209
				c-0.381-0.531-0.775-1.061-1.185-1.584c-0.17-0.218-0.131-0.532,0.087-0.702c0.218-0.171,0.531-0.131,0.702,0.087
				c0.417,0.535,0.819,1.074,1.208,1.617c0.161,0.225,0.109,0.537-0.115,0.697C403.979,130.236,403.878,130.266,403.776,130.266z
				 M401.317,127.116c-0.135,0-0.27-0.055-0.368-0.162c-0.45-0.489-0.906-0.968-1.367-1.436c-0.193-0.196-0.191-0.513,0.006-0.707
				c0.195-0.193,0.512-0.191,0.707,0.006c0.469,0.476,0.933,0.962,1.391,1.461c0.187,0.203,0.174,0.52-0.03,0.706
				C401.56,127.072,401.438,127.116,401.317,127.116z M398.508,124.27c-0.123,0-0.246-0.045-0.343-0.136
				c-0.483-0.455-0.973-0.897-1.468-1.329c-0.208-0.182-0.229-0.498-0.048-0.706c0.181-0.209,0.497-0.229,0.706-0.048
				c0.503,0.439,1.002,0.892,1.495,1.354c0.201,0.189,0.211,0.506,0.021,0.707C398.773,124.217,398.641,124.27,398.508,124.27z
				 M395.497,121.641c-0.111,0-0.223-0.036-0.314-0.111c-0.516-0.418-1.037-0.823-1.563-1.217c-0.221-0.165-0.266-0.479-0.101-0.7
				c0.167-0.221,0.48-0.265,0.7-0.101c0.536,0.401,1.067,0.814,1.593,1.24c0.215,0.174,0.248,0.489,0.074,0.703
				C395.787,121.577,395.643,121.641,395.497,121.641z M392.296,119.244c-0.099,0-0.197-0.028-0.284-0.089
				c-0.545-0.376-1.095-0.74-1.65-1.094c-0.232-0.148-0.302-0.457-0.153-0.69c0.149-0.232,0.459-0.3,0.69-0.153
				c0.565,0.359,1.127,0.731,1.682,1.115c0.228,0.157,0.284,0.468,0.127,0.695C392.61,119.169,392.454,119.244,392.296,119.244z
				 M388.927,117.1c-0.086,0-0.173-0.022-0.253-0.068c-0.569-0.334-1.146-0.656-1.725-0.968c-0.243-0.131-0.335-0.434-0.204-0.677
				s0.435-0.334,0.677-0.204c0.591,0.317,1.177,0.646,1.758,0.985c0.238,0.14,0.318,0.446,0.179,0.685
				C389.266,117.011,389.098,117.1,388.927,117.1z M385.408,115.21c-0.074,0-0.149-0.017-0.221-0.051
				c-0.593-0.292-1.191-0.571-1.793-0.841c-0.252-0.112-0.365-0.408-0.252-0.66c0.112-0.252,0.408-0.367,0.66-0.252
				c0.613,0.273,1.222,0.559,1.826,0.854c0.247,0.122,0.35,0.422,0.229,0.67C385.771,115.108,385.593,115.21,385.408,115.21z
				 M381.761,113.579c-0.062,0-0.126-0.012-0.188-0.036c-0.613-0.248-1.229-0.485-1.851-0.712c-0.259-0.095-0.393-0.382-0.298-0.642
				c0.095-0.258,0.381-0.392,0.642-0.298c0.631,0.23,1.259,0.472,1.882,0.724c0.256,0.104,0.38,0.396,0.276,0.651
				C382.146,113.461,381.958,113.579,381.761,113.579z M378.005,112.206c-0.052,0-0.104-0.008-0.156-0.025
				c-0.628-0.206-1.26-0.401-1.896-0.588c-0.265-0.077-0.417-0.354-0.339-0.62c0.077-0.264,0.351-0.417,0.62-0.339
				c0.646,0.188,1.287,0.388,1.927,0.598c0.262,0.086,0.405,0.368,0.318,0.631C378.411,112.073,378.215,112.206,378.005,112.206z
				 M374.164,111.081c-0.041,0-0.083-0.005-0.125-0.016c-0.64-0.165-1.283-0.321-1.93-0.468c-0.27-0.061-0.438-0.328-0.377-0.598
				c0.06-0.27,0.325-0.441,0.598-0.377c0.656,0.148,1.31,0.307,1.959,0.474c0.268,0.069,0.428,0.342,0.359,0.609
				C374.59,110.932,374.387,111.081,374.164,111.081z M370.263,110.199c-0.032,0-0.064-0.003-0.098-0.01
				c-0.65-0.128-1.302-0.245-1.956-0.354c-0.272-0.045-0.456-0.303-0.411-0.575c0.045-0.271,0.299-0.46,0.575-0.411
				c0.664,0.11,1.325,0.229,1.985,0.359c0.271,0.053,0.447,0.315,0.394,0.587C370.705,110.034,370.496,110.199,370.263,110.199z
				 M366.314,109.541c-0.023,0-0.047-0.002-0.07-0.005c-0.655-0.091-1.312-0.173-1.974-0.246c-0.274-0.031-0.472-0.278-0.441-0.553
				c0.03-0.275,0.267-0.478,0.553-0.441c0.669,0.075,1.336,0.157,2.001,0.25c0.273,0.038,0.464,0.29,0.426,0.564
				C366.774,109.361,366.56,109.541,366.314,109.541z M362.334,109.097c-0.015,0-0.029-0.001-0.044-0.002
				c-0.659-0.057-1.32-0.104-1.984-0.146c-0.276-0.017-0.485-0.254-0.469-0.529c0.018-0.275,0.243-0.491,0.529-0.469
				c0.672,0.041,1.343,0.091,2.01,0.147c0.274,0.023,0.479,0.266,0.455,0.541C362.809,108.9,362.591,109.097,362.334,109.097z
				 M358.336,108.852c-0.006,0-0.013,0-0.02,0c-0.662-0.025-1.325-0.043-1.99-0.054c-0.276-0.005-0.496-0.231-0.492-0.508
				c0.005-0.276,0.201-0.464,0.508-0.492c0.673,0.011,1.344,0.028,2.014,0.054c0.275,0.011,0.49,0.243,0.48,0.52
				C358.825,108.64,358.604,108.852,358.336,108.852z M352.332,108.824c-0.27,0-0.492-0.215-0.5-0.486
				c-0.008-0.275,0.21-0.506,0.486-0.514c0.672-0.019,1.341-0.03,2.01-0.034c0.001,0,0.002,0,0.003,0c0.274,0,0.498,0.222,0.5,0.497
				c0.002,0.276-0.221,0.501-0.497,0.503c-0.661,0.004-1.324,0.016-1.988,0.034C352.341,108.824,352.337,108.824,352.332,108.824z"
				/>
		</g>
		<g>
			<path fill="#474F50" d="M280.794,108.826h-2c-0.276,0-0.5-0.224-0.5-0.5s0.224-0.5,0.5-0.5h2c0.276,0,0.5,0.224,0.5,0.5
				S281.07,108.826,280.794,108.826z M276.794,108.826h-2c-0.276,0-0.5-0.224-0.5-0.5s0.224-0.5,0.5-0.5h2
				c0.276,0,0.5,0.224,0.5,0.5S277.07,108.826,276.794,108.826z M272.794,108.826h-2c-0.276,0-0.5-0.224-0.5-0.5s0.224-0.5,0.5-0.5
				h2c0.276,0,0.5,0.224,0.5,0.5S273.07,108.826,272.794,108.826z M268.794,108.826h-2c-0.276,0-0.5-0.224-0.5-0.5
				s0.224-0.5,0.5-0.5h2c0.276,0,0.5,0.224,0.5,0.5S269.07,108.826,268.794,108.826z"/>
		</g>
		<g>
			<path fill="#474F50" d="M369.067,274.653h-1.169c-0.276,0-0.5-0.224-0.5-0.5s0.224-0.5,0.5-0.5h1.169c0.276,0,0.5,0.224,0.5,0.5
				S369.344,274.653,369.067,274.653z M365.898,274.653h-2c-0.276,0-0.5-0.224-0.5-0.5s0.224-0.5,0.5-0.5h2
				c0.276,0,0.5,0.224,0.5,0.5S366.175,274.653,365.898,274.653z M361.898,274.653h-2c-0.276,0-0.5-0.224-0.5-0.5s0.224-0.5,0.5-0.5
				h2c0.276,0,0.5,0.224,0.5,0.5S362.175,274.653,361.898,274.653z M357.898,274.653h-2c-0.276,0-0.5-0.224-0.5-0.5
				s0.224-0.5,0.5-0.5h2c0.276,0,0.5,0.224,0.5,0.5S358.175,274.653,357.898,274.653z M353.898,274.653h-2
				c-0.276,0-0.5-0.224-0.5-0.5s0.224-0.5,0.5-0.5h2c0.276,0,0.5,0.224,0.5,0.5S354.175,274.653,353.898,274.653z M349.898,274.653
				h-2c-0.276,0-0.5-0.224-0.5-0.5s0.224-0.5,0.5-0.5h2c0.276,0,0.5,0.224,0.5,0.5S350.175,274.653,349.898,274.653z
				 M345.898,274.653h-2c-0.276,0-0.5-0.224-0.5-0.5s0.224-0.5,0.5-0.5h2c0.276,0,0.5,0.224,0.5,0.5
				S346.175,274.653,345.898,274.653z M341.898,274.653h-2c-0.276,0-0.5-0.224-0.5-0.5s0.224-0.5,0.5-0.5h2
				c0.276,0,0.5,0.224,0.5,0.5S342.175,274.653,341.898,274.653z"/>
		</g>
		<g>
			<path fill="#474F50" d="M383.023,289.407h-1.047c-0.276,0-0.5-0.224-0.5-0.5s0.224-0.5,0.5-0.5h1.047c0.276,0,0.5,0.224,0.5,0.5
				S383.3,289.407,383.023,289.407z M379.977,289.407h-2c-0.276,0-0.5-0.224-0.5-0.5s0.224-0.5,0.5-0.5h2c0.276,0,0.5,0.224,0.5,0.5
				S380.253,289.407,379.977,289.407z M375.977,289.407h-2c-0.276,0-0.5-0.224-0.5-0.5s0.224-0.5,0.5-0.5h2
				c0.276,0,0.5,0.224,0.5,0.5S376.253,289.407,375.977,289.407z M371.977,289.407h-2c-0.276,0-0.5-0.224-0.5-0.5s0.224-0.5,0.5-0.5
				h2c0.276,0,0.5,0.224,0.5,0.5S372.253,289.407,371.977,289.407z M367.977,289.407h-2c-0.276,0-0.5-0.224-0.5-0.5
				s0.224-0.5,0.5-0.5h2c0.276,0,0.5,0.224,0.5,0.5S368.253,289.407,367.977,289.407z M363.977,289.407h-2
				c-0.276,0-0.5-0.224-0.5-0.5s0.224-0.5,0.5-0.5h2c0.276,0,0.5,0.224,0.5,0.5S364.253,289.407,363.977,289.407z M359.977,289.407
				h-2c-0.276,0-0.5-0.224-0.5-0.5s0.224-0.5,0.5-0.5h2c0.276,0,0.5,0.224,0.5,0.5S360.253,289.407,359.977,289.407z"/>
		</g>
		<g>
			<path fill="#474F50" d="M345.871,305.673h-0.208c-0.276,0-0.5-0.224-0.5-0.5s0.224-0.5,0.5-0.5h0.208c0.276,0,0.5,0.224,0.5,0.5
				S346.147,305.673,345.871,305.673z M343.663,305.673h-2c-0.276,0-0.5-0.224-0.5-0.5s0.224-0.5,0.5-0.5h2
				c0.276,0,0.5,0.224,0.5,0.5S343.939,305.673,343.663,305.673z M339.663,305.673h-2c-0.276,0-0.5-0.224-0.5-0.5s0.224-0.5,0.5-0.5
				h2c0.276,0,0.5,0.224,0.5,0.5S339.939,305.673,339.663,305.673z M335.663,305.673h-2c-0.276,0-0.5-0.224-0.5-0.5
				s0.224-0.5,0.5-0.5h2c0.276,0,0.5,0.224,0.5,0.5S335.939,305.673,335.663,305.673z M331.663,305.673h-2
				c-0.276,0-0.5-0.224-0.5-0.5s0.224-0.5,0.5-0.5h2c0.276,0,0.5,0.224,0.5,0.5S331.939,305.673,331.663,305.673z M327.663,305.673
				h-2c-0.276,0-0.5-0.224-0.5-0.5s0.224-0.5,0.5-0.5h2c0.276,0,0.5,0.224,0.5,0.5S327.939,305.673,327.663,305.673z"/>
		</g>
		<g>
			<path fill="#474F50" d="M268.697,317.401h-1.243c-0.276,0-0.5-0.224-0.5-0.5s0.224-0.5,0.5-0.5h1.243c0.276,0,0.5,0.224,0.5,0.5
				S268.974,317.401,268.697,317.401z M265.454,317.401h-2c-0.276,0-0.5-0.224-0.5-0.5s0.224-0.5,0.5-0.5h2
				c0.276,0,0.5,0.224,0.5,0.5S265.73,317.401,265.454,317.401z M261.454,317.401h-2c-0.276,0-0.5-0.224-0.5-0.5s0.224-0.5,0.5-0.5
				h2c0.276,0,0.5,0.224,0.5,0.5S261.73,317.401,261.454,317.401z M257.454,317.401h-2c-0.276,0-0.5-0.224-0.5-0.5
				s0.224-0.5,0.5-0.5h2c0.276,0,0.5,0.224,0.5,0.5S257.73,317.401,257.454,317.401z M253.454,317.401h-2
				c-0.276,0-0.5-0.224-0.5-0.5s0.224-0.5,0.5-0.5h2c0.276,0,0.5,0.224,0.5,0.5S253.73,317.401,253.454,317.401z"/>
		</g>
	</g>
</g>
</svg>
