<?xml version="1.0" encoding="utf-8"?>
<!-- Generator: Adobe Illustrator 25.1.0, SVG Export Plug-In . SVG Version: 6.00 Build 0)  -->
<svg version="1.1" id="Tirui" xmlns="http://www.w3.org/2000/svg" xmlns:xlink="http://www.w3.org/1999/xlink" x="0px" y="0px"
	 viewBox="0 0 600 400" enable-background="new 0 0 600 400" xml:space="preserve">
<g id="Deep_Learning">
	<g id="background_7_">
		<path fill="#FFF8EE" d="M304.617,310.945c14.324-21.252,22.686-46.854,22.686-74.41c0-73.622-59.682-133.304-133.304-133.304
			S60.695,162.913,60.695,236.535c0,27.556,8.363,53.158,22.686,74.41H304.617z"/>
		<circle fill="#FFF8EE" cx="436.69" cy="177.975" r="103.204"/>
		<path fill="#ADD8D8" d="M59.281,310.945h237.513c0,0-50.134,14.283-131.715,14.283S59.281,310.945,59.281,310.945z"/>
		<path fill="#ADD8D8" d="M296.647,310.945H534.16c0,0-50.134,14.283-131.715,14.283S296.647,310.945,296.647,310.945z"/>
	</g>
	<g id="grass_7_">
		<g>
			<g>
				<g>
					<polygon fill="#FFFFFF" points="483.936,310.945 540.719,310.945 538.889,297.775 526.149,299.035 536.839,291.397 
						529.81,280.707 518.535,290.165 524.978,277.046 515.606,270.31 508.138,284.889 510.774,268.562 497.449,265.362 
						494.813,282.464 493.202,265.362 480.17,265.362 					"/>
				</g>
			</g>
			<g>
				<g>
					<rect x="483.445" y="304.507" fill="#A8A848" width="56.449" height="1"/>
				</g>
			</g>
			<g>
				<g>
					<path fill="#FFFFFF" d="M498.877,305.257c-0.01,0-0.021-0.001-0.03-0.002c-0.138-0.017-0.234-0.142-0.218-0.278l4.688-38.176
						c0.018-0.137,0.145-0.23,0.278-0.218c0.138,0.017,0.234,0.142,0.218,0.278l-4.688,38.176
						C499.109,305.164,499.002,305.257,498.877,305.257z"/>
				</g>
			</g>
			<g>
				<g>
					
						<rect x="494.355" y="288.957" transform="matrix(0.4805 -0.877 0.877 0.4805 12.1794 599.4746)" fill="#A8A848" width="35.465" height="1"/>
				</g>
			</g>
			<g>
				<g>
					
						<rect x="508.053" y="294.963" transform="matrix(0.7488 -0.6628 0.6628 0.7488 -64.5932 420.4916)" fill="#A8A848" width="28.801" height="0.999"/>
				</g>
			</g>
			<g>
				<g>
					<path fill="#FFFFFF" d="M488.443,305.257c-0.131,0-0.24-0.102-0.249-0.233l-2.636-39.645c-0.01-0.138,0.095-0.257,0.232-0.266
						c0.006-0.001,0.012-0.001,0.017-0.001c0.131,0,0.24,0.102,0.249,0.233l2.636,39.645c0.01,0.138-0.095,0.257-0.232,0.266
						C488.454,305.257,488.448,305.257,488.443,305.257z"/>
				</g>
			</g>
		</g>
		<g>
			<g>
				<path fill="#A8A848" d="M99.389,267.493c0,0-37.692,8.528-40.109,43.452H87.69C87.69,310.945,104.354,283.565,99.389,267.493z"
					/>
			</g>
			<g>
				<path fill="#FFFFFF" d="M98.296,311.195c-0.124,0-0.231-0.092-0.248-0.218l-5.376-41.367c-0.018-0.137,0.079-0.263,0.216-0.28
					c0.132-0.012,0.262,0.079,0.28,0.216l5.376,41.367c0.018,0.137-0.079,0.263-0.216,0.28
					C98.317,311.194,98.307,311.195,98.296,311.195z"/>
			</g>
			<g>
				<path fill="#FFFFFF" d="M94.717,311.195c-0.109,0-0.209-0.072-0.24-0.182l-10.544-37.237c-0.038-0.133,0.039-0.271,0.172-0.309
					c0.14-0.04,0.271,0.04,0.309,0.172l10.544,37.237c0.038,0.133-0.039,0.271-0.172,0.309
					C94.762,311.192,94.739,311.195,94.717,311.195z"/>
			</g>
			<g>
				<path fill="#FFFFFF" d="M91.496,311.195c-0.094,0-0.184-0.053-0.227-0.144l-15.045-32.058c-0.059-0.125-0.005-0.274,0.12-0.333
					c0.123-0.056,0.274-0.006,0.333,0.12l15.045,32.058c0.059,0.125,0.005,0.274-0.12,0.333
					C91.568,311.188,91.532,311.195,91.496,311.195z"/>
			</g>
			<g>
				<path fill="#FFFFFF" d="M88.567,311.195c-0.075,0-0.149-0.034-0.198-0.098l-19.253-25.148c-0.084-0.11-0.063-0.267,0.046-0.351
					c0.111-0.086,0.268-0.062,0.351,0.046l19.253,25.148c0.084,0.11,0.063,0.267-0.046,0.351
					C88.674,311.179,88.62,311.195,88.567,311.195z"/>
			</g>
			<g>
				<path fill="#FFFFFF" d="M85.199,311.195c-0.06,0-0.12-0.021-0.168-0.065l-20.454-18.584c-0.103-0.093-0.11-0.251-0.017-0.353
					c0.092-0.103,0.251-0.109,0.353-0.017l20.454,18.584c0.103,0.093,0.11,0.251,0.017,0.353
					C85.335,311.168,85.268,311.195,85.199,311.195z"/>
			</g>
			<g>
				<path fill="#FFFFFF" d="M81.099,311.195c-0.047,0-0.095-0.014-0.137-0.041L61.809,298.58c-0.116-0.076-0.148-0.23-0.072-0.346
					c0.075-0.115,0.232-0.146,0.346-0.072l19.153,12.574c0.116,0.076,0.148,0.23,0.072,0.346
					C81.26,311.155,81.18,311.195,81.099,311.195z"/>
			</g>
			<g>
				<path fill="#FFFFFF" d="M74.07,311.195c-0.034,0-0.069-0.007-0.103-0.022l-13.932-6.287c-0.126-0.057-0.182-0.204-0.125-0.33
					c0.056-0.126,0.203-0.185,0.33-0.125l13.932,6.287c0.126,0.057,0.182,0.204,0.125,0.33
					C74.257,311.141,74.165,311.195,74.07,311.195z"/>
			</g>
		</g>
		<g>
			<g>
				<g>
					<path fill="#FFFFFF" d="M154.425,310.945c0,0-3.952-30.112,21.527-45.843c0,0,0.146,8.137-1.464,13.555l-4.539,1.116
						l3.514,2.96c0,0-5.857,14.667-17.865,28.212H154.425z"/>
				</g>
			</g>
			<g>
				<g>
					<path fill="#FFFFFF" d="M158.819,310.945c0,0,7.761-20.281,29.726-21.013c0,0-1.757,6.956-6.15,10.506l-2.929-1.135
						l0.586,3.661c0,0-5.272,5.711-19.329,7.981H158.819z"/>
				</g>
			</g>
			<g>
				<g>
					<path fill="#A8A848" d="M156.09,311.032l-0.984-0.174c3.347-18.987,20.253-45.757,20.424-46.025l0.844,0.537
						C176.204,265.636,159.402,292.24,156.09,311.032z"/>
				</g>
			</g>
			<g>
				<g>
					<path fill="#A8A848" d="M161.081,311.294l-0.717-0.697c0.123-0.127,12.532-12.818,27.944-21.104l0.473,0.881
						C173.505,298.587,161.204,311.168,161.081,311.294z"/>
				</g>
			</g>
		</g>
		<g>
			<g>
				<g>
					<path fill="#A8A848" d="M407.682,310.945c0,0,3.284-39.176-22.598-48.032c-25.882-8.856,19.649,48.032,19.649,48.032H407.682z"
						/>
				</g>
			</g>
			<g>
				<g>
					<path fill="#A8A848" d="M401.082,310.945c0,0-13.325-27.163-29.14-25.406s24.893,25.406,24.893,25.406H401.082z"/>
				</g>
			</g>
			<g>
				<g>
					<path fill="#FFFFFF" d="M406.793,311.195c-0.106,0-0.205-0.068-0.238-0.175c-7.608-24.179-16.223-39.146-27.93-48.531
						c-0.107-0.087-0.125-0.244-0.039-0.352c0.088-0.106,0.245-0.125,0.352-0.039c11.79,9.451,20.454,24.493,28.094,48.771
						c0.042,0.132-0.031,0.272-0.163,0.313C406.843,311.191,406.817,311.195,406.793,311.195z"/>
				</g>
			</g>
			<g>
				<g>
					<path fill="#FFFFFF" d="M399.27,311.195c-0.076,0-0.151-0.035-0.2-0.101c-13.473-18.108-29.939-24.339-30.104-24.399
						c-0.129-0.048-0.195-0.191-0.147-0.321c0.048-0.129,0.188-0.197,0.321-0.147c0.166,0.062,16.771,6.344,30.331,24.569
						c0.083,0.111,0.06,0.268-0.051,0.35C399.374,311.18,399.321,311.195,399.27,311.195z"/>
				</g>
			</g>
		</g>
	</g>
	<g id="object_6_">
		<g>
			<rect x="232.291" y="99.31" fill="#F2E5D6" width="66.054" height="27.043"/>
		</g>
		<g>
			<rect x="171.67" y="115.062" fill="#F2E5D6" width="50.446" height="66.749"/>
		</g>
		<g>
			<rect x="310.101" y="127.342" fill="#F2E5D6" width="59.94" height="59.94"/>
		</g>
		<g>
			<g>
				<path fill="#474F50" d="M229.628,234.104c-0.01,0-0.02,0-0.029-0.001c-0.344-0.02-0.685-0.049-1.023-0.087
					c-0.274-0.031-0.472-0.278-0.441-0.553c0.031-0.274,0.281-0.47,0.553-0.441c0.321,0.036,0.645,0.063,0.971,0.083
					c0.275,0.016,0.486,0.253,0.47,0.528C230.111,233.898,229.892,234.104,229.628,234.104z"/>
			</g>
			<g>
				<path fill="#474F50" d="M226.622,233.673c-0.037,0-0.074-0.004-0.112-0.013c-0.664-0.153-1.34-0.348-2.009-0.578
					c-0.261-0.09-0.399-0.374-0.31-0.636c0.09-0.261,0.377-0.397,0.636-0.31c0.636,0.219,1.277,0.403,1.907,0.549
					c0.27,0.062,0.437,0.33,0.375,0.6C227.056,233.517,226.851,233.673,226.622,233.673z M222.772,232.352
					c-0.069,0-0.14-0.015-0.207-0.045c-0.618-0.281-1.241-0.599-1.854-0.941c-0.241-0.136-0.327-0.44-0.192-0.681
					c0.135-0.243,0.44-0.326,0.681-0.192c0.589,0.33,1.188,0.635,1.779,0.904c0.252,0.114,0.362,0.411,0.248,0.662
					C223.144,232.243,222.962,232.352,222.772,232.352z M219.215,230.37c-0.095,0-0.189-0.026-0.274-0.082
					c-0.574-0.378-1.139-0.774-1.693-1.188c-0.222-0.165-0.268-0.479-0.103-0.7c0.167-0.222,0.479-0.266,0.7-0.103
					c0.539,0.401,1.086,0.788,1.645,1.154c0.23,0.151,0.295,0.462,0.144,0.692C219.537,230.291,219.377,230.37,219.215,230.37z
					 M215.944,227.938c-0.112,0-0.226-0.037-0.318-0.114c-0.529-0.438-1.049-0.888-1.56-1.344c-0.206-0.185-0.224-0.5-0.04-0.706
					c0.185-0.206,0.502-0.224,0.706-0.04c0.501,0.448,1.011,0.89,1.53,1.318c0.213,0.177,0.243,0.491,0.067,0.704
					C216.23,227.877,216.088,227.938,215.944,227.938z M212.902,225.222c-0.124,0-0.249-0.046-0.346-0.139
					c-0.491-0.47-0.975-0.944-1.449-1.418l0.339-0.371l0.384-0.32c0.453,0.452,0.931,0.921,1.418,1.387
					c0.199,0.19,0.206,0.507,0.016,0.707C213.165,225.17,213.034,225.222,212.902,225.222z M210.196,222.184
					c-0.153,0-0.305-0.07-0.402-0.203c-0.41-0.557-0.805-1.12-1.184-1.691c-0.152-0.23-0.09-0.541,0.141-0.693
					c0.227-0.15,0.539-0.092,0.693,0.141c0.369,0.558,0.754,1.107,1.154,1.65c0.164,0.223,0.116,0.535-0.105,0.699
					C210.403,222.152,210.3,222.184,210.196,222.184z M207.943,218.789c-0.17,0-0.336-0.087-0.43-0.245
					c-0.353-0.593-0.689-1.192-1.012-1.796c-0.13-0.243-0.037-0.547,0.206-0.677c0.242-0.13,0.546-0.039,0.677,0.206
					c0.314,0.59,0.644,1.176,0.988,1.757c0.142,0.237,0.063,0.544-0.175,0.685C208.118,218.767,208.03,218.789,207.943,218.789z
					 M206.029,215.189c-0.188,0-0.367-0.105-0.452-0.286c-0.294-0.623-0.573-1.251-0.838-1.883
					c-0.106-0.255,0.013-0.548,0.268-0.654c0.256-0.105,0.548,0.013,0.654,0.268c0.259,0.618,0.532,1.232,0.82,1.842
					c0.118,0.25,0.011,0.548-0.238,0.666C206.174,215.174,206.102,215.189,206.029,215.189z M204.457,211.429
					c-0.204,0-0.396-0.125-0.47-0.328c-0.236-0.645-0.459-1.294-0.669-1.947c-0.085-0.264,0.06-0.545,0.322-0.629
					c0.262-0.086,0.545,0.06,0.629,0.322c0.206,0.642,0.425,1.277,0.657,1.91c0.095,0.259-0.038,0.546-0.298,0.642
					C204.572,211.419,204.515,211.429,204.457,211.429z M203.214,207.547c-0.22,0-0.421-0.146-0.482-0.367
					c-0.182-0.661-0.352-1.325-0.509-1.992c-0.063-0.269,0.103-0.538,0.371-0.602c0.271-0.068,0.539,0.103,0.602,0.371
					c0.155,0.655,0.321,1.308,0.501,1.957c0.073,0.267-0.083,0.541-0.35,0.615C203.303,207.541,203.258,207.547,203.214,207.547z
					 M202.278,203.579c-0.233,0-0.442-0.165-0.489-0.403c-0.133-0.673-0.253-1.347-0.362-2.023c-0.045-0.273,0.141-0.53,0.413-0.574
					c0.269-0.042,0.529,0.141,0.573,0.414c0.107,0.665,0.226,1.329,0.356,1.99c0.054,0.271-0.122,0.533-0.394,0.587
					C202.344,203.576,202.311,203.579,202.278,203.579z M201.628,199.554c-0.248,0-0.463-0.185-0.495-0.437
					c-0.087-0.679-0.162-1.36-0.229-2.041c-0.026-0.275,0.175-0.52,0.449-0.546c0.274-0.022,0.521,0.174,0.547,0.449
					c0.065,0.671,0.141,1.342,0.226,2.012c0.035,0.274-0.159,0.524-0.433,0.559C201.671,199.553,201.649,199.554,201.628,199.554z
					 M201.234,195.495c-0.262,0-0.481-0.202-0.499-0.466c-0.046-0.684-0.082-1.367-0.11-2.05c-0.011-0.276,0.204-0.508,0.479-0.52
					c0.268-0.02,0.509,0.204,0.521,0.479c0.026,0.673,0.062,1.348,0.108,2.022c0.019,0.275-0.189,0.514-0.465,0.533
					C201.257,195.495,201.245,195.495,201.234,195.495z M201.071,191.421c-0.272,0-0.496-0.219-0.5-0.493
					c-0.006-0.39-0.009-0.78-0.008-1.168l0.004-0.882c0.003-0.274,0.227-0.495,0.5-0.495c0.002,0,0.003,0,0.005,0
					c0.276,0.003,0.498,0.229,0.495,0.505l-0.004,0.874c-0.001,0.384,0.002,0.768,0.008,1.152c0.004,0.276-0.217,0.503-0.492,0.507
					C201.076,191.421,201.073,191.421,201.071,191.421z"/>
			</g>
			<g>
				<path fill="#474F50" d="M201.112,187.329c-0.006,0-0.012,0-0.018,0c-0.276-0.01-0.492-0.241-0.482-0.517l0.04-1.002
					c0.012-0.269,0.232-0.478,0.499-0.478c0.007,0,0.015,0,0.022,0c0.275,0.012,0.489,0.246,0.478,0.521l-0.039,0.994
					C201.603,187.116,201.381,187.329,201.112,187.329z"/>
			</g>
		</g>
		<g>
			<g>
				<path fill="#474F50" d="M319.181,240.022c-0.157,0-0.312-0.074-0.41-0.214c-0.158-0.226-0.103-0.538,0.124-0.696l0.817-0.573
					c0.227-0.158,0.537-0.104,0.697,0.121c0.158,0.227,0.104,0.538-0.121,0.697l-0.821,0.575
					C319.38,239.993,319.28,240.022,319.181,240.022z"/>
			</g>
			<g>
				<path fill="#474F50" d="M321.641,238.287c-0.155,0-0.31-0.073-0.407-0.209c-0.16-0.226-0.108-0.537,0.116-0.698
					c0.542-0.387,1.085-0.776,1.628-1.17c0.223-0.162,0.536-0.114,0.698,0.11c0.162,0.224,0.113,0.536-0.11,0.698
					c-0.545,0.396-1.09,0.787-1.634,1.176C321.843,238.257,321.741,238.287,321.641,238.287z M324.892,235.926
					c-0.152,0-0.304-0.07-0.401-0.202c-0.165-0.222-0.118-0.535,0.104-0.699c0.535-0.397,1.07-0.799,1.604-1.203
					c0.218-0.166,0.533-0.124,0.7,0.097c0.167,0.22,0.124,0.533-0.097,0.7c-0.535,0.406-1.072,0.81-1.611,1.209
					C325.1,235.894,324.995,235.926,324.892,235.926z M328.093,233.493c-0.148,0-0.295-0.066-0.394-0.192
					c-0.171-0.218-0.132-0.531,0.086-0.701c0.524-0.411,1.048-0.826,1.566-1.245c0.215-0.175,0.529-0.14,0.703,0.074
					c0.174,0.215,0.141,0.529-0.074,0.703c-0.522,0.423-1.05,0.842-1.58,1.255C328.31,233.459,328.201,233.493,328.093,233.493z
					 M331.219,230.966c-0.143,0-0.284-0.061-0.383-0.179c-0.178-0.212-0.15-0.527,0.062-0.704c0.512-0.429,1.019-0.862,1.522-1.301
					c0.209-0.181,0.524-0.158,0.706,0.05c0.181,0.209,0.158,0.524-0.05,0.706c-0.508,0.44-1.021,0.878-1.536,1.311
					C331.446,230.928,331.332,230.966,331.219,230.966z M334.251,228.323c-0.136,0-0.271-0.055-0.369-0.163
					c-0.187-0.204-0.172-0.521,0.032-0.706c0.493-0.45,0.981-0.904,1.464-1.364c0.199-0.188,0.516-0.184,0.707,0.018
					c0.19,0.199,0.183,0.516-0.018,0.707c-0.486,0.464-0.98,0.924-1.479,1.378C334.492,228.28,334.371,228.323,334.251,228.323z
					 M337.16,225.545c-0.128,0-0.255-0.049-0.353-0.146c-0.195-0.194-0.196-0.511-0.002-0.707c0.47-0.473,0.933-0.952,1.388-1.437
					c0.188-0.203,0.505-0.211,0.706-0.022c0.202,0.188,0.212,0.505,0.022,0.706c-0.461,0.492-0.93,0.978-1.407,1.458
					C337.417,225.496,337.289,225.545,337.16,225.545z M339.911,222.609c-0.118,0-0.235-0.041-0.331-0.125
					c-0.207-0.183-0.227-0.499-0.044-0.706c0.44-0.499,0.872-1.006,1.294-1.518c0.175-0.214,0.49-0.245,0.703-0.068
					c0.214,0.175,0.244,0.49,0.068,0.703c-0.428,0.521-0.867,1.036-1.315,1.545C340.187,222.552,340.05,222.609,339.911,222.609z
					 M342.466,219.502c-0.106,0-0.213-0.033-0.303-0.103c-0.22-0.167-0.263-0.481-0.095-0.7c0.403-0.529,0.796-1.065,1.177-1.607
					c0.159-0.225,0.471-0.28,0.697-0.121c0.226,0.159,0.279,0.471,0.121,0.697c-0.389,0.552-0.789,1.098-1.2,1.637
					C342.765,219.435,342.616,219.502,342.466,219.502z M344.775,216.211c-0.093,0-0.187-0.025-0.271-0.079
					c-0.232-0.149-0.3-0.459-0.15-0.691c0.051-0.079,0.102-0.159,0.152-0.238c0.021-0.049,0.05-0.094,0.084-0.133
					c0.274-0.438,0.541-0.879,0.799-1.324c0.139-0.239,0.447-0.32,0.683-0.183c0.239,0.138,0.321,0.444,0.183,0.683
					c-0.103,0.178-0.206,0.354-0.312,0.529c0.304-0.048,0.603-0.105,0.896-0.171c0.27-0.064,0.537,0.107,0.598,0.377
					c0.062,0.27-0.107,0.537-0.377,0.598c-0.58,0.132-1.183,0.23-1.794,0.294c-0.022,0.036-0.046,0.072-0.069,0.109
					C345.101,216.13,344.939,216.211,344.775,216.211z M342.988,215.608c-0.05,0-0.101-0.008-0.15-0.023
					c-0.665-0.209-1.314-0.521-1.931-0.926c-0.23-0.151-0.295-0.462-0.144-0.692c0.151-0.232,0.462-0.295,0.692-0.144
					c0.539,0.354,1.105,0.626,1.683,0.809c0.264,0.083,0.409,0.363,0.326,0.627C343.397,215.472,343.201,215.608,342.988,215.608z
					 M348.867,215.006c-0.2,0-0.39-0.121-0.467-0.319c-0.1-0.258,0.029-0.548,0.286-0.647c0.602-0.232,1.188-0.512,1.743-0.831
					c0.236-0.138,0.544-0.057,0.683,0.185c0.138,0.239,0.055,0.545-0.185,0.683c-0.6,0.345-1.231,0.646-1.88,0.897
					C348.988,214.995,348.928,215.006,348.867,215.006z M339.646,213.451c-0.132,0-0.264-0.052-0.361-0.154
					c-0.477-0.499-0.911-1.06-1.293-1.665c-0.147-0.233-0.077-0.543,0.156-0.689c0.234-0.147,0.543-0.077,0.689,0.156
					c0.347,0.55,0.74,1.057,1.17,1.507c0.191,0.2,0.184,0.517-0.016,0.707C339.894,213.405,339.77,213.451,339.646,213.451z
					 M352.34,213.016c-0.147,0-0.294-0.065-0.393-0.19c-0.171-0.217-0.134-0.531,0.083-0.702c0.499-0.394,0.981-0.833,1.436-1.305
					c0.191-0.198,0.51-0.205,0.707-0.014c0.199,0.191,0.205,0.508,0.014,0.707c-0.485,0.505-1.002,0.975-1.537,1.396
					C352.558,212.98,352.448,213.016,352.34,213.016z M346.787,212.731c-0.078,0-0.156-0.018-0.229-0.056
					c-0.245-0.127-0.342-0.429-0.215-0.674c0.304-0.587,0.593-1.182,0.866-1.784c0.113-0.252,0.412-0.362,0.661-0.249
					c0.252,0.113,0.363,0.41,0.249,0.661c-0.279,0.618-0.576,1.229-0.888,1.831C347.143,212.633,346.968,212.731,346.787,212.731z
					 M355.126,210.137c-0.105,0-0.211-0.033-0.301-0.101c-0.221-0.166-0.265-0.479-0.099-0.7c0.381-0.506,0.748-1.052,1.091-1.624
					c0.143-0.237,0.45-0.316,0.686-0.172c0.237,0.142,0.314,0.449,0.172,0.686c-0.361,0.603-0.748,1.179-1.149,1.712
					C355.427,210.068,355.277,210.137,355.126,210.137z M337.51,210.071c-0.2,0-0.389-0.121-0.466-0.318
					c-0.259-0.663-0.449-1.347-0.567-2.03c-0.047-0.272,0.136-0.531,0.408-0.578c0.267-0.046,0.531,0.136,0.578,0.408
					c0.106,0.618,0.278,1.236,0.513,1.837c0.101,0.258-0.027,0.547-0.284,0.647C337.632,210.061,337.57,210.071,337.51,210.071z
					 M348.447,209.074c-0.061,0-0.122-0.011-0.183-0.034c-0.257-0.101-0.384-0.391-0.283-0.648c0.138-0.352,0.271-0.706,0.398-1.062
					c0.052-0.219,0.109-0.488,0.157-0.76s0.313-0.459,0.579-0.405c0.271,0.048,0.453,0.307,0.405,0.579
					c-0.052,0.295-0.113,0.588-0.186,0.876c-0.146,0.412-0.281,0.776-0.423,1.138C348.836,208.954,348.646,209.074,348.447,209.074z
					 M357.197,206.698c-0.073,0-0.146-0.016-0.217-0.05c-0.249-0.119-0.354-0.418-0.233-0.667c0.279-0.581,0.542-1.189,0.78-1.81
					c0.1-0.257,0.386-0.385,0.646-0.287c0.258,0.1,0.386,0.389,0.287,0.646c-0.248,0.645-0.521,1.278-0.813,1.884
					C357.562,206.594,357.383,206.698,357.197,206.698z M336.85,206.136c-0.009,0-0.019,0-0.027-0.001
					c-0.276-0.015-0.487-0.251-0.472-0.526c0.021-0.399,0.072-0.795,0.148-1.175c0.079-0.315,0.162-0.613,0.256-0.914
					c0.083-0.263,0.361-0.413,0.627-0.328c0.263,0.082,0.41,0.363,0.328,0.627c-0.088,0.281-0.167,0.562-0.235,0.836
					c-0.062,0.31-0.106,0.657-0.126,1.009C337.334,205.93,337.113,206.136,336.85,206.136z M349.208,205.127
					c-0.276,0-0.5-0.194-0.5-0.471v-0.059c0-0.641-0.055-1.264-0.164-1.852c-0.05-0.271,0.13-0.532,0.401-0.582
					c0.273-0.051,0.532,0.128,0.583,0.4c0.119,0.648,0.18,1.332,0.18,2.033C349.708,204.874,349.484,205.127,349.208,205.127z
					 M358.65,202.952c-0.049,0-0.098-0.007-0.146-0.022c-0.264-0.08-0.412-0.36-0.331-0.624c0.191-0.627,0.365-1.265,0.52-1.911
					c0.063-0.268,0.329-0.434,0.603-0.37c0.269,0.064,0.435,0.334,0.37,0.603c-0.16,0.667-0.338,1.324-0.537,1.97
					C359.062,202.813,358.864,202.952,358.65,202.952z M337.952,202.291c-0.07,0-0.141-0.015-0.208-0.045
					c-0.251-0.115-0.361-0.412-0.247-0.663c0.302-0.659,0.64-1.274,1.004-1.828c0.153-0.231,0.462-0.295,0.693-0.143
					c0.23,0.152,0.294,0.462,0.143,0.692c-0.337,0.512-0.65,1.082-0.93,1.694C338.323,202.183,338.142,202.291,337.952,202.291z
					 M348.453,201.236c-0.19,0-0.373-0.11-0.456-0.296c-0.267-0.595-0.604-1.113-1.002-1.54c-0.188-0.202-0.178-0.518,0.023-0.707
					c0.202-0.189,0.519-0.178,0.707,0.024c0.475,0.507,0.872,1.118,1.184,1.814c0.113,0.252,0,0.547-0.252,0.661
					C348.591,201.222,348.521,201.236,348.453,201.236z M359.59,199.043c-0.029,0-0.06-0.002-0.089-0.008
					c-0.272-0.049-0.453-0.309-0.404-0.581c0.116-0.65,0.216-1.306,0.298-1.962c0.033-0.275,0.296-0.468,0.558-0.434
					c0.274,0.034,0.469,0.284,0.435,0.558c-0.084,0.674-0.186,1.347-0.306,2.015C360.038,198.873,359.827,199.043,359.59,199.043z
					 M340.194,198.98c-0.133,0-0.265-0.052-0.363-0.156c-0.189-0.201-0.181-0.517,0.02-0.707c0.586-0.554,1.206-0.956,1.843-1.193
					c0.257-0.097,0.547,0.034,0.644,0.293c0.097,0.259-0.035,0.547-0.294,0.643c-0.511,0.191-1.018,0.521-1.505,0.983
					C340.441,198.935,340.317,198.98,340.194,198.98z M345.736,198.4c-0.067,0-0.137-0.014-0.202-0.043
					c-0.239-0.105-0.494-0.193-0.76-0.259c-0.035-0.009-0.069-0.021-0.102-0.038c-0.312-0.156-0.626-0.268-0.933-0.332
					c-0.271-0.057-0.443-0.321-0.387-0.592c0.056-0.271,0.328-0.444,0.592-0.387c0.374,0.078,0.753,0.21,1.126,0.392
					c0.301,0.079,0.593,0.18,0.867,0.302c0.253,0.112,0.367,0.407,0.255,0.659C346.111,198.29,345.928,198.4,345.736,198.4z
					 M360.089,195.054c-0.013,0-0.025,0-0.038-0.001c-0.275-0.021-0.482-0.26-0.462-0.536c0.05-0.664,0.081-1.326,0.098-1.984
					c0.007-0.271,0.229-0.487,0.5-0.487c0.004,0,0.008,0,0.013,0c0.275,0.007,0.494,0.236,0.487,0.513
					c-0.017,0.674-0.05,1.353-0.1,2.033C360.567,194.854,360.348,195.054,360.089,195.054z"/>
			</g>
			<g>
				<path fill="#474F50" d="M360.185,190.968c-0.271,0-0.493-0.215-0.5-0.487c-0.009-0.331-0.021-0.661-0.037-0.987
					c-0.015-0.275,0.198-0.51,0.474-0.524c0.31-0.011,0.512,0.199,0.524,0.475c0.018,0.334,0.03,0.672,0.039,1.011
					c0.007,0.276-0.211,0.506-0.487,0.513C360.193,190.968,360.188,190.968,360.185,190.968z"/>
			</g>
		</g>
		<g>
			<g>
				<path fill="#474F50" d="M283.948,137.745c-0.229,0-0.436-0.158-0.487-0.39c-0.073-0.323-0.147-0.646-0.224-0.969
					c-0.064-0.269,0.103-0.539,0.371-0.602c0.264-0.065,0.537,0.103,0.602,0.371c0.078,0.327,0.152,0.653,0.226,0.98
					c0.062,0.27-0.108,0.537-0.377,0.598C284.021,137.741,283.984,137.745,283.948,137.745z"/>
			</g>
			<g>
				<path fill="#474F50" d="M283.321,135.153c-0.223,0-0.426-0.149-0.484-0.375c-0.139-0.534-0.284-1.066-0.435-1.598
					c-0.075-0.266,0.079-0.542,0.346-0.617c0.265-0.077,0.542,0.08,0.617,0.345c0.152,0.538,0.3,1.078,0.44,1.619
					c0.069,0.267-0.092,0.54-0.358,0.609C283.405,135.148,283.362,135.153,283.321,135.153z M282.411,131.946
					c-0.214,0-0.411-0.138-0.478-0.353c-0.163-0.527-0.332-1.053-0.506-1.578c-0.087-0.262,0.055-0.545,0.317-0.632
					c0.262-0.086,0.545,0.056,0.632,0.317c0.176,0.53,0.347,1.063,0.512,1.597c0.082,0.264-0.066,0.543-0.33,0.625
					C282.51,131.939,282.46,131.946,282.411,131.946z"/>
			</g>
			<g>
				<path fill="#474F50" d="M281.358,128.781c-0.205,0-0.397-0.127-0.471-0.332c-0.111-0.312-0.226-0.623-0.341-0.934
					c-0.096-0.259,0.036-0.547,0.295-0.643c0.256-0.096,0.546,0.036,0.643,0.294c0.117,0.314,0.231,0.629,0.345,0.945
					c0.093,0.26-0.042,0.546-0.303,0.639C281.471,128.772,281.414,128.781,281.358,128.781z"/>
			</g>
		</g>
		<g>
			<g>
				<path fill="#474F50" d="M270.289,204.233c-0.101,0-0.203-0.03-0.291-0.093c-0.225-0.161-0.276-0.474-0.116-0.698
					c0.192-0.268,0.382-0.539,0.57-0.812c0.157-0.229,0.469-0.285,0.695-0.127c0.228,0.156,0.284,0.468,0.127,0.695
					c-0.19,0.276-0.384,0.552-0.578,0.825C270.599,204.161,270.444,204.233,270.289,204.233z"/>
			</g>
			<g>
				<path fill="#474F50" d="M271.916,201.84c-0.094,0-0.188-0.026-0.271-0.08c-0.232-0.15-0.298-0.46-0.148-0.691
					c0.341-0.526,0.674-1.058,1.002-1.594c0.145-0.237,0.454-0.31,0.688-0.166c0.235,0.144,0.31,0.452,0.166,0.688
					c-0.332,0.544-0.671,1.083-1.016,1.615C272.24,201.76,272.079,201.84,271.916,201.84z M273.89,198.604
					c-0.085,0-0.171-0.021-0.249-0.066c-0.239-0.138-0.322-0.443-0.185-0.683c0.312-0.544,0.618-1.092,0.918-1.645
					c0.133-0.244,0.438-0.331,0.678-0.201c0.243,0.132,0.333,0.435,0.201,0.678c-0.304,0.56-0.613,1.115-0.93,1.666
					C274.23,198.514,274.062,198.604,273.89,198.604z M275.695,195.272c-0.077,0-0.154-0.018-0.228-0.055
					c-0.246-0.125-0.344-0.427-0.218-0.673c0.285-0.559,0.565-1.122,0.838-1.687c0.119-0.249,0.422-0.352,0.667-0.233
					c0.249,0.12,0.354,0.419,0.233,0.667c-0.276,0.572-0.559,1.142-0.848,1.708C276.053,195.173,275.877,195.272,275.695,195.272z
					 M277.343,191.859c-0.07,0-0.141-0.015-0.208-0.045c-0.251-0.115-0.361-0.411-0.247-0.663c0.262-0.571,0.516-1.146,0.765-1.722
					c0.108-0.254,0.404-0.371,0.657-0.261c0.253,0.109,0.37,0.403,0.261,0.657c-0.251,0.583-0.509,1.165-0.772,1.743
					C277.714,191.75,277.532,191.859,277.343,191.859z M278.846,188.378c-0.063,0-0.127-0.012-0.189-0.037
					c-0.255-0.104-0.378-0.396-0.273-0.652c0.238-0.583,0.47-1.167,0.695-1.752c0.1-0.257,0.386-0.384,0.646-0.287
					c0.258,0.099,0.386,0.389,0.287,0.646c-0.228,0.592-0.463,1.183-0.703,1.771C279.229,188.261,279.043,188.378,278.846,188.378z
					 M280.21,184.841c-0.057,0-0.114-0.01-0.171-0.03c-0.26-0.095-0.394-0.381-0.299-0.641c0.216-0.592,0.426-1.185,0.63-1.778
					c0.09-0.261,0.37-0.4,0.636-0.31c0.261,0.09,0.399,0.374,0.31,0.635c-0.206,0.599-0.418,1.198-0.636,1.795
					C280.605,184.715,280.414,184.841,280.21,184.841z"/>
			</g>
			<g>
				<path fill="#474F50" d="M281.448,181.252c-0.052,0-0.104-0.008-0.155-0.024c-0.263-0.086-0.405-0.368-0.32-0.631l0.305-0.948
					c0.083-0.263,0.362-0.41,0.628-0.325c0.263,0.083,0.409,0.365,0.325,0.628l-0.307,0.956
					C281.854,181.118,281.659,181.252,281.448,181.252z"/>
			</g>
		</g>
		<g>
			<g>
				<path fill="#FAB5B5" d="M238.992,212.074c0,0-22.446-0.081-15.141,23.137c0,0-15.938,3.892-11.821,22.121
					s26.236,15.54,26.236,15.54s2.851,18.097,23.97,24.073c21.118,5.977,49.342-13.68,53.36-22.579c0,0,21.683,11.422,32.839-4.516
					c11.157-15.938,1.859-45.595-22.048-44.115c0,0,1.195-15.205-12.086-20.676c-13.282-5.47-22.712,2.835-22.712,2.835
					s-10.758-19.33-29.22-17.072S238.992,212.074,238.992,212.074z"/>
			</g>
			<g>
				<path fill="#F47697" d="M238.992,272.345c-0.012,0-0.023-0.001-0.035-0.001c-0.826-0.019-1.481-0.7-1.466-1.526
					c0.008-0.362,0.264-8.959,8.203-16.048c8.061-7.196,20.812-10.103,37.91-8.645c0.891-1.688,2.562-5.891-0.87-8.879
					c-0.373-0.325-0.562-0.812-0.506-1.303s0.351-0.923,0.787-1.154c0.601-0.325,5.836-3.382,3.116-9.534
					c-0.335-0.758,0.008-1.644,0.766-1.979c0.76-0.335,1.644,0.008,1.979,0.766c2.592,5.861-0.179,10.153-2.857,12.327
					c3.288,4.263,1.327,9.687-0.36,12.177c-0.308,0.452-0.818,0.709-1.383,0.651c-16.663-1.567-28.959,1.046-36.525,7.759
					c-6.98,6.193-7.257,13.848-7.259,13.925C240.47,271.695,239.803,272.345,238.992,272.345z"/>
			</g>
			<g>
				<path fill="#F47697" d="M315.594,274.372c-0.262,0-0.527-0.068-0.769-0.212c-6.532-3.901-10.336-8.458-13.566-16.254
					c-0.317-0.766,0.046-1.643,0.812-1.96c0.764-0.319,1.643,0.047,1.96,0.812c2.995,7.228,6.338,11.246,12.334,14.826
					c0.711,0.425,0.943,1.346,0.519,2.058C316.602,274.111,316.104,274.372,315.594,274.372z"/>
			</g>
			<g>
				<path fill="#F47697" d="M273.457,282.739c-0.677,0-1.29-0.46-1.457-1.146c-0.096-0.395-2.285-9.733,2.998-15.937
					c3.081-3.618,7.992-5.343,14.559-5.136c-0.104-2.899,0.252-8.648,4.116-12.8c3.286-3.53,8.286-5.056,14.868-4.535
					c20.768,1.645,25.751,12.186,25.953,12.634c0.341,0.755,0.005,1.644-0.751,1.983c-0.752,0.343-1.643,0.005-1.983-0.751
					c-0.04-0.083-4.608-9.383-23.455-10.876c-5.612-0.438-9.792,0.76-12.424,3.576c-4.272,4.574-3.219,12.063-3.208,12.139
					c0.067,0.452-0.075,0.911-0.387,1.245c-0.311,0.333-0.751,0.512-1.214,0.473c-6.466-0.505-11.102,0.836-13.791,3.993
					c-4.301,5.05-2.386,13.202-2.365,13.284c0.195,0.805-0.299,1.615-1.104,1.812C273.693,282.726,273.574,282.739,273.457,282.739z
					"/>
			</g>
			<g>
				<path fill="#F47697" d="M268.211,248.622c-0.656,0-1.26-0.435-1.444-1.098c-1.403-5.048-1.036-9.121,1.093-12.106
					c1.771-2.485,4.351-3.601,6.163-4.097c-1.065-2.456-2.445-6.902-0.749-10.854c1.383-3.223,4.451-5.388,9.121-6.437
					c4.474-1.004,8.301-0.383,11.373,1.847c4.572,3.315,6.07,9.229,6.515,11.746c5.022,0.852,8.258,2.845,9.627,5.934
					c2.355,5.317-1.963,11.62-2.147,11.886c-0.476,0.68-1.41,0.847-2.088,0.375c-0.68-0.474-0.848-1.407-0.376-2.087
					c0.046-0.066,3.54-5.203,1.865-8.966c-1.019-2.287-3.843-3.745-8.396-4.335c-0.694-0.09-1.234-0.648-1.301-1.345
					c-0.007-0.071-0.777-7.395-5.471-10.788c-2.343-1.694-5.349-2.145-8.944-1.339c-3.672,0.824-6.032,2.399-7.017,4.683
					c-1.851,4.293,1.468,9.963,1.501,10.02c0.268,0.45,0.281,1.007,0.037,1.47c-0.245,0.462-0.712,0.765-1.234,0.796
					c-0.033,0.003-3.967,0.306-6.051,3.254c-1.563,2.212-1.775,5.422-0.63,9.54c0.222,0.799-0.245,1.625-1.043,1.848
					C268.479,248.604,268.344,248.622,268.211,248.622z"/>
			</g>
			<g>
				<path fill="#F47697" d="M255.626,226.145c-0.319,0-0.641-0.101-0.913-0.311c-0.654-0.504-0.779-1.439-0.278-2.096
					c0.294-0.384,7.335-9.345,21.146-5.048c0.791,0.247,1.232,1.088,0.986,1.879s-1.085,1.232-1.879,0.986
					c-11.744-3.659-17.628,3.692-17.873,4.009C256.519,225.945,256.075,226.145,255.626,226.145z"/>
			</g>
			<g>
				<path fill="#F47697" d="M248.382,256.009c-0.559,0-1.095-0.313-1.354-0.851c-3.639-7.575,0.919-14.166,4.771-17.453
					c-4.52-4.366-6.737-9.04-6.599-13.914c0.243-8.555,7.696-14.418,8.014-14.663c0.656-0.506,1.597-0.387,2.104,0.269
					c0.507,0.654,0.387,1.596-0.268,2.104c-0.092,0.072-6.661,5.283-6.853,12.396c-0.118,4.389,2.21,8.688,6.918,12.78
					c0.352,0.306,0.541,0.759,0.513,1.224c-0.028,0.466-0.272,0.893-0.659,1.152c-0.379,0.257-9.269,6.415-5.237,14.808
					c0.358,0.747,0.044,1.643-0.703,2.002C248.821,255.962,248.6,256.009,248.382,256.009z"/>
			</g>
			<g>
				<path fill="#F47697" d="M234.477,255.112c-3.528,0-7.471-0.989-11.495-3.852c-0.676-0.48-0.833-1.417-0.354-2.092
					c0.481-0.675,1.418-0.833,2.092-0.354c11.017,7.839,21.078-0.565,21.501-0.926c0.631-0.539,1.577-0.465,2.114,0.161
					c0.539,0.628,0.47,1.572-0.157,2.112C248.095,250.235,242.309,255.112,234.477,255.112z"/>
			</g>
			<g>
				<path fill="#F47697" d="M239.816,229.495c-7.593,0-11.359-5.091-11.407-5.157c-0.482-0.673-0.329-1.61,0.344-2.094
					c0.671-0.479,1.605-0.331,2.09,0.339c0.219,0.296,5.069,6.637,15.515,2.563c0.771-0.301,1.642,0.08,1.942,0.853
					c0.301,0.771-0.081,1.642-0.853,1.942C244.576,229.062,242.033,229.495,239.816,229.495z"/>
			</g>
			<g>
				<path fill="#F9EEE8" d="M250.412,203.541c-0.179,0-0.36-0.032-0.537-0.102c-0.77-0.297-1.156-1.154-0.863-1.926
					c0.186-0.491,4.782-12.003,23.643-8.26c0.812,0.161,1.341,0.95,1.18,1.763c-0.161,0.812-0.948,1.342-1.764,1.179
					c-16.254-3.221-20.102,5.998-20.257,6.391C251.58,203.178,251.013,203.541,250.412,203.541z"/>
			</g>
			<g>
				<g>
					<path fill="#F9EEE8" d="M348.467,251.015c-0.795,0-1.458-0.625-1.497-1.428c-0.456-9.438-6.065-13.998-6.305-14.188
						c-0.646-0.514-0.759-1.455-0.247-2.104c0.51-0.648,1.449-0.764,2.1-0.255c0.282,0.221,6.923,5.534,7.448,16.402
						c0.04,0.827-0.599,1.53-1.426,1.57C348.516,251.014,348.491,251.015,348.467,251.015z"/>
				</g>
			</g>
			<g>
				<g>
					<path fill="#F9EEE8" d="M347.072,264.413c-0.257,0-0.518-0.065-0.755-0.204c-0.716-0.418-0.957-1.337-0.54-2.052
						c2.378-4.074,1.679-6.781,1.647-6.895c-0.216-0.792,0.241-1.62,1.029-1.848c0.792-0.225,1.61,0.212,1.848,0.997
						c0.049,0.159,1.15,3.974-1.933,9.257C348.09,264.146,347.588,264.413,347.072,264.413z"/>
				</g>
			</g>
			<g>
				<path fill="#F9EEE8" d="M224.844,268.096c-0.273,0-0.55-0.075-0.799-0.232c-0.146-0.093-14.567-9.448-7.339-25.396
					c0.342-0.754,1.229-1.088,1.985-0.747c0.755,0.342,1.089,1.231,0.747,1.985c-6.139,13.542,5.705,21.3,6.213,21.623
					c0.697,0.445,0.903,1.372,0.46,2.07C225.825,267.85,225.34,268.096,224.844,268.096z"/>
			</g>
		</g>
		<g>
			<rect x="233.755" y="97.458" fill="#AFE3E8" width="65.016" height="26.887"/>
		</g>
		<g>
			<rect x="311.215" y="124.474" fill="#AFE3E8" width="60.758" height="60.758"/>
		</g>
		<g>
			<rect x="174.15" y="111.808" fill="#AFE3E8" width="51.374" height="67.849"/>
		</g>
		<g>
			<polygon fill="#FFFFFF" points="321.296,174.275 360.187,174.275 346.368,158.872 334.552,169.047 327.809,163.563 			"/>
		</g>
		<g>
			<circle fill="#FFFFFF" cx="334.777" cy="147.483" r="11.312"/>
		</g>
		<g>
			<path fill="#FFFFFF" d="M293.391,102.53h-32.785c-0.138,0-0.25-0.112-0.25-0.25s0.112-0.25,0.25-0.25h32.785
				c0.138,0,0.25,0.112,0.25,0.25S293.528,102.53,293.391,102.53z"/>
		</g>
		<g>
			<path fill="#FFFFFF" d="M286.323,106.923h-25.718c-0.138,0-0.25-0.112-0.25-0.25s0.112-0.25,0.25-0.25h25.718
				c0.138,0,0.25,0.112,0.25,0.25S286.461,106.923,286.323,106.923z"/>
		</g>
		<g>
			<path fill="#FFFFFF" d="M290.843,111.536h-30.237c-0.138,0-0.25-0.112-0.25-0.25s0.112-0.25,0.25-0.25h30.237
				c0.138,0,0.25,0.112,0.25,0.25S290.98,111.536,290.843,111.536z"/>
		</g>
		<g>
			<path fill="#FFFFFF" d="M275.725,116.807h-15.119c-0.138,0-0.25-0.112-0.25-0.25s0.112-0.25,0.25-0.25h15.119
				c0.138,0,0.25,0.112,0.25,0.25S275.862,116.807,275.725,116.807z"/>
		</g>
		<g>
			<rect x="174.15" y="111.808" fill="#C3F9FC" width="1.326" height="67.849"/>
		</g>
		<g>
			<rect x="233.755" y="97.458" fill="#C3F9FC" width="1.135" height="26.887"/>
		</g>
		<g>
			<path fill="#93CCCE" d="M252.198,119.522h-12.835c0-1.217-0.987-2.204-2.204-2.204v-12.835c1.217,0,2.204-0.987,2.204-2.204
				h12.835c0,1.217,0.987,2.204,2.204,2.204v12.835C253.185,117.319,252.198,118.305,252.198,119.522z"/>
		</g>
		<g>
			<path fill="#FFFFFF" d="M253.04,118.973h-12.835c-0.138,0-0.25-0.112-0.25-0.25c0-1.077-0.876-1.954-1.953-1.954
				c-0.138,0-0.25-0.112-0.25-0.25v-12.835c0-0.138,0.112-0.25,0.25-0.25c1.077,0,1.953-0.876,1.953-1.954
				c0-0.138,0.112-0.25,0.25-0.25h12.835c0.138,0,0.25,0.112,0.25,0.25c0,1.077,0.877,1.954,1.954,1.954
				c0.138,0,0.25,0.112,0.25,0.25v12.835c0,0.138-0.112,0.25-0.25,0.25c-1.077,0-1.954,0.876-1.954,1.954
				C253.29,118.861,253.178,118.973,253.04,118.973z M240.442,118.473h12.36c0.117-1.154,1.037-2.074,2.191-2.191v-12.36
				c-1.154-0.117-2.074-1.037-2.191-2.191h-12.36c-0.117,1.154-1.037,2.074-2.19,2.191v12.36
				C239.405,116.399,240.325,117.319,240.442,118.473z"/>
		</g>
		<g>
			<path fill="#FFFFFF" d="M298.528,153.924c-0.784,0-1.422-0.638-1.422-1.421c0-0.784,0.638-1.422,1.422-1.422
				c0.783,0,1.421,0.638,1.421,1.422C299.949,153.286,299.312,153.924,298.528,153.924z M298.528,151.581
				c-0.509,0-0.922,0.414-0.922,0.922c0,0.508,0.413,0.921,0.922,0.921c0.508,0,0.921-0.414,0.921-0.921
				C299.449,151.994,299.036,151.581,298.528,151.581z"/>
		</g>
		<g>
			<g>
				<g>
					<rect x="232.62" y="140.578" fill="#AFE3E8" width="71.751" height="33.46"/>
				</g>
				<g>
					<rect x="236.049" y="142.262" fill="#93CCCE" width="64.824" height="1.757"/>
				</g>
				<g>
					<rect x="236.049" y="144.854" fill="#93CCCE" width="64.824" height="1.757"/>
				</g>
				<g>
					<rect x="236.049" y="147.446" fill="#93CCCE" width="64.824" height="1.757"/>
				</g>
				<g>
					<rect x="236.049" y="150.039" fill="#93CCCE" width="64.824" height="1.757"/>
				</g>
				<g>
					<rect x="236.049" y="152.631" fill="#93CCCE" width="64.824" height="1.757"/>
				</g>
				<g>
					<rect x="236.049" y="155.223" fill="#93CCCE" width="64.824" height="1.757"/>
				</g>
				<g>
					<rect x="236.049" y="157.815" fill="#93CCCE" width="64.824" height="1.757"/>
				</g>
				<g>
					<rect x="236.049" y="160.407" fill="#93CCCE" width="64.824" height="1.757"/>
				</g>
				<g>
					<rect x="236.049" y="163" fill="#93CCCE" width="64.824" height="1.757"/>
				</g>
				<g>
					<rect x="236.049" y="165.592" fill="#93CCCE" width="64.824" height="1.757"/>
				</g>
				<g>
					<rect x="236.049" y="168.184" fill="#93CCCE" width="64.824" height="1.757"/>
				</g>
				<g>
					<rect x="236.049" y="170.776" fill="#93CCCE" width="64.824" height="1.757"/>
				</g>
			</g>
			<g>
				<path fill="#FFFFFF" d="M258.941,162.507c-3.099,0-4.111-2.256-5.178-4.63c-0.849-1.889-1.727-3.843-3.7-5.032
					c-4.644-2.802-9.718,4.529-9.768,4.604c-0.078,0.115-0.234,0.144-0.348,0.066c-0.114-0.078-0.144-0.233-0.066-0.347
					c0.219-0.32,5.388-7.792,10.439-4.751c2.108,1.271,3.06,3.388,3.898,5.256c1.206,2.686,2.163,4.806,5.818,4.245
					c3.1-0.477,5.815-3.047,8.441-5.534c2.871-2.717,5.586-5.284,8.547-4.834c2.882,0.438,4.09,2.84,5.156,4.96
					c1.046,2.083,1.944,3.889,4.152,3.65c4.62-0.485,11.355-6.768,11.423-6.832c0.1-0.095,0.258-0.09,0.354,0.011
					c0.094,0.101,0.089,0.259-0.012,0.354c-0.28,0.264-6.925,6.461-11.712,6.964c-2.55,0.271-3.567-1.768-4.652-3.922
					c-1.061-2.109-2.157-4.291-4.783-4.69c-2.734-0.417-5.35,2.072-8.129,4.704c-2.682,2.539-5.455,5.165-8.709,5.665
					C259.692,162.477,259.303,162.507,258.941,162.507z"/>
			</g>
			<g>
				<path fill="#FFFFFF" d="M239.579,159.901c-0.784,0-1.422-0.638-1.422-1.421s0.638-1.421,1.422-1.421
					c0.783,0,1.421,0.638,1.421,1.421S240.362,159.901,239.579,159.901z M239.579,157.558c-0.509,0-0.922,0.414-0.922,0.921
					s0.413,0.921,0.922,0.921c0.508,0,0.921-0.414,0.921-0.921S240.087,157.558,239.579,157.558z"/>
			</g>
			<g>
				<path fill="#FFFFFF" d="M274.72,166.72h-36.312c-0.138,0-0.25-0.112-0.25-0.25s0.112-0.25,0.25-0.25h36.312
					c0.138,0,0.25,0.112,0.25,0.25S274.857,166.72,274.72,166.72z"/>
			</g>
			<g>
				<path fill="#FFFFFF" d="M262.529,169.312h-24.122c-0.138,0-0.25-0.112-0.25-0.25s0.112-0.25,0.25-0.25h24.122
					c0.138,0,0.25,0.112,0.25,0.25S262.667,169.312,262.529,169.312z"/>
			</g>
			<g>
				<path fill="#FFFFFF" d="M252.975,171.905h-14.567c-0.138,0-0.25-0.112-0.25-0.25s0.112-0.25,0.25-0.25h14.567
					c0.138,0,0.25,0.112,0.25,0.25S253.112,171.905,252.975,171.905z"/>
			</g>
		</g>
		<g>
			<rect x="311.215" y="124.474" fill="#C3F9FC" width="1.504" height="60.758"/>
		</g>
		<g>
			<path fill="#FFFFFF" d="M315.647,134.824c-0.138,0-0.25-0.112-0.25-0.25v-4.686c0-0.138,0.112-0.25,0.25-0.25h4.539
				c0.138,0,0.25,0.112,0.25,0.25s-0.112,0.25-0.25,0.25h-4.289v4.436C315.897,134.712,315.785,134.824,315.647,134.824z"/>
		</g>
		<g>
			<path fill="#FFFFFF" d="M366.898,134.824c-0.138,0-0.25-0.112-0.25-0.25v-4.436h-4.29c-0.138,0-0.25-0.112-0.25-0.25
				s0.112-0.25,0.25-0.25h4.54c0.138,0,0.25,0.112,0.25,0.25v4.686C367.148,134.712,367.036,134.824,366.898,134.824z"/>
		</g>
		<g>
			<path fill="#FFFFFF" d="M320.187,180.622h-4.539c-0.138,0-0.25-0.112-0.25-0.25v-4.686c0-0.138,0.112-0.25,0.25-0.25
				s0.25,0.112,0.25,0.25v4.436h4.289c0.138,0,0.25,0.112,0.25,0.25S320.324,180.622,320.187,180.622z"/>
		</g>
		<g>
			<path fill="#FFFFFF" d="M366.898,180.622h-4.54c-0.138,0-0.25-0.112-0.25-0.25s0.112-0.25,0.25-0.25h4.29v-4.436
				c0-0.138,0.112-0.25,0.25-0.25s0.25,0.112,0.25,0.25v4.686C367.148,180.51,367.036,180.622,366.898,180.622z"/>
		</g>
		<g>
			<defs>
				<rect id="SVGID_4_" x="175.475" y="121.249" width="49.847" height="58.408"/>
			</defs>
			<clipPath id="SVGID_1_">
				<use xlink:href="#SVGID_4_"  overflow="visible"/>
			</clipPath>
			<g clip-path="url(#SVGID_1_)">
				<g>
					<path fill="#FAB5B5" d="M199.872,322.628l1.84,19.178l5.715-0.484c0,0,0.969-19.372,0.194-23.536L199.872,322.628z"/>
				</g>
				<g>
					<path fill="#FAB5B5" d="M235.952,318.851c0,0,6.925-1.598,7.119-3.874l6.877,20.631c0,0-3.584,3.245-5.957,1.986
						L235.952,318.851z"/>
				</g>
				<g>
					<path fill="#E28383" d="M235.952,318.851c0,0,2.26,4.129,5.553,3.501c3.293-0.628,1.566-7.375,1.566-7.375L235.952,318.851z"/>
				</g>
				<g>
					<path fill="#E28383" d="M199.872,322.628c0,0,2.102,7.103,8.049,3.551l-0.208-8.65L199.872,322.628z"/>
				</g>
				<g>
					<path fill="#474F50" d="M189.615,216.873c-0.413,18.971,3.59,49.578,3.978,63.525c0.387,13.948,3.777,40.939,6.28,42.23
						c2.502,1.291,6.021-0.258,7.749-4.843c1.727-4.585,3.664-20.34,1.082-37.775c-2.583-17.434,0-34.223,0-34.223
						s5.682,24.796,10.332,36.419s5.811,15.756,9.815,24.796c4.003,9.04,7.103,11.849,7.103,11.849s5.327,1.001,7.119-3.874
						s-6.215-28.509-9.444-41.036c-3.229-12.527-5.89-32.673-8.305-43.134s-4.561-18.008-4.561-18.008l-15.804-4.011
						L189.615,216.873z"/>
				</g>
				<g>
					<path fill="#84B1BE" d="M196.531,160.068c0,0-0.223,1.582-5.907,0.291s-6.394-1.485-8.008,1.55s-9.88,29.122-9.686,30.543
						c0.194,1.421,11.171,5.747,11.171,5.747l2.647-8.782c0,0-3.035-1.162-3.035-2.26c0-1.098,5.553-15.174,6.457-13.366
						c0.904,1.808,2.066,19.242,0.775,27.831s-2.131,15.304-2.131,15.304l13.173-0.839l2.97-7.297l1.873,7.555l14.722-3.745
						c0,0-1.669-10.654-2.322-18.623s-2.456-20.25-1.035-19.216c1.421,1.033,8.201,10.396,8.007,10.913
						c-0.194,0.517-3.745,2.002-3.745,2.002l4.843,8.33c0,0,9.815-7.49,9.428-9.234c-0.387-1.743-15.368-27.455-16.272-27.449
						s-14.852,2.46-14.852,2.46l-1.679-0.71L196.531,160.068z"/>
				</g>
				<g>
					<path fill="#FAB5B5" d="M184.675,196.291c0,0,4.752-0.063,4.881,0.454c0.129,0.517-0.387,2.421,0.581,2.486
						c0.969,0.065,4.778,0,4.778,0s-0.355-1.001-1.582-1.001s-1.647-0.484-0.517-0.743s3.971-1.065,4.003-1.517
						s-0.194-0.872-0.807-0.743c-0.613,0.129-3.035,0.743-3.487,0.646c-0.452-0.097-0.936-0.904,0.065-1.033
						c1.001-0.129,3.648-0.355,3.745-0.872c0.097-0.517-0.323-0.839-0.872-0.904c-0.549-0.065-2.97,0.097-3.099,0
						c-0.129-0.097-0.097-1.065,1.098-1.001c1.195,0.065,2.389,0.575,2.906-0.003c0.517-0.578,0.291-0.998,0.291-0.998
						s-1.388,0.097-2.744-0.291c-1.356-0.387-3.193-0.452-3.292,0c-0.098,0.452-0.647,1.356-0.647,1.356l-3.767-0.927
						L184.675,196.291z"/>
				</g>
				<g>
					<path fill="#FAB5B5" d="M219.744,189.933c0,0,0.065-1.195-0.678-1.291c-0.743-0.097-4.52,0.936-4.52,1.614
						c0,0.678,0.775,0.71,1.356,0.581c0.581-0.129,2.228-0.613,2.357-0.517c0.129,0.097-2.454,1.195-2.906,1.776
						c-0.452,0.581-0.387,1.098,0.258,0.969c0.646-0.129,3.261-1.679,3.455-1.453s-1.485,1.356-2.744,2.357
						c-1.259,1.001-0.743,1.873-0.161,1.517c0.581-0.355,3.035-2.163,3.196-1.873c0.161,0.291-1.291,1.679-2.292,2.389
						c-1.001,0.71-0.258,1.873-0.258,1.873s0.743-1.291,2.002-1.873s1.937-1.065,2.002-1.485c0.065-0.42,0.097-0.549,0.549-0.678
						c0.452-0.129,3.964-1.237,3.964-1.237l-2.48-4.265L219.744,189.933z"/>
				</g>
				<g>
					<path fill="#FAB5B5" d="M208.517,145.596l0.024-0.347c0,0-0.006,0-0.006,0c0.001-0.043,0.006-0.085,0.006-0.129
						c0-3.317-2.689-6.005-6.005-6.005s-6.005,2.689-6.005,6.005c0,0.009,0.001,0.017,0.001,0.026
						c-1.857,0.134-3.327,1.667-3.327,3.558c0,1.979,1.604,3.584,3.584,3.584c0.346,0,0.674-0.065,0.991-0.156
						c0.45,3.589-1.249,7.074-1.249,7.937c0,1.098,3.616,3.519,4.778,3.584c1.162,0.065,2.615-2.583,2.615-2.583
						c-0.646-1.388-0.243-5.274-0.243-5.274l0.006-0.004c0.224,0.049,0.453,0.081,0.69,0.081c1.812,0,3.323-1.498,3.67-3.488
						l0.001-0.001l0.003-0.038c0.045-0.27,0.072-0.547,0.072-0.832c0-0.032-0.007-0.061-0.008-0.092l0.392-5.655
						C208.511,145.709,208.512,145.652,208.517,145.596z"/>
				</g>
				<g>
					<path fill="#474F50" d="M196.621,145.224c0,0,0.62,0.605,0.458,1.606c0,0,1.195-2.454,0.839-4.423c0,0,1.195-0.904,1.324-2.034
						c0,0,1.453-0.032,1.873-0.194c0,0,0.097,1.969,2.486,1.55c0,0-0.743,3.196,2.325,2.421c0,0,1.162,1.776,2.615,0.226
						c0,0-0.013,1.062-0.076,1.969c0,0,3.595,0.195,2.982-3.777c0,0,2.744,0.129,3.229-3.584c0.484-3.713-3.39-3.745-3.39-3.745
						s0.226-2.099-1.195-2.486c-1.421-0.387-1.711,1.162-1.711,1.162s-0.065-4.133-3.681-3.551
						c-3.616,0.581-2.163,4.229-2.163,4.229s-2.873-1.291-3.713,1.453c0,0-5.65-0.097-5.456,3.067s1.532,6.559,1.532,6.559
						S195.749,145.224,196.621,145.224z"/>
				</g>
				<g>
					<path fill="#474F50" d="M201.712,341.806l5.715-0.484l0.494,15.336h-19.882c0,0-1.098-2.712,5.553-4.391
						C200.243,350.588,202.003,344.836,201.712,341.806z"/>
				</g>
				<g>
					<path fill="#474F50" d="M243.991,337.593c0,0-0.032,0.856,1.065,4.213c1.098,3.358,3.035,10.525,2.26,11.171
						c-0.775,0.646-1.55,1.55-0.775,3.681h11.365c0,0,0.71,0.969-2.26-7.103c-2.97-8.072-5.698-13.948-5.698-13.948
						S247.042,338.561,243.991,337.593z"/>
				</g>
				<g>
					
						<ellipse transform="matrix(0.1156 -0.9933 0.9933 0.1156 30.6916 332.3294)" fill="#E28383" cx="201.971" cy="148.929" rx="1.211" ry="1.695"/>
				</g>
				<g>
					
						<ellipse transform="matrix(0.1156 -0.9933 0.9933 0.1156 35.0836 338.5921)" fill="#E28383" cx="207.684" cy="149.594" rx="1.009" ry="1.413"/>
				</g>
				<g>
					<path fill="#E28383" d="M197.273,150.027c0,0,0.065-3.842-2.615-2.325L197.273,150.027z"/>
				</g>
				<g>
					<path fill="#E28383" d="M203.686,155.79c-3.282-0.823-4.896-2.631-4.896-2.631s-0.578,6.066,4.828,6.552
						C203.619,159.711,203.49,156.71,203.686,155.79z"/>
				</g>
				<g>
					<path fill="#E28383" d="M186.21,191.201c0,0,1.579,2.595,0.736,5.118l-2.27-0.029L186.21,191.201z"/>
				</g>
				<g>
					<path fill="#E28383" d="M222.843,188.337c0,0-0.57,2.23,0.179,4.988l2.3-0.723L222.843,188.337z"/>
				</g>
				<g>
					<path fill="#F0CFBD" d="M194.501,140.171c-0.109,0-0.21-0.072-0.241-0.183c-0.013-0.046-0.31-1.145,0.216-1.975
						c0.279-0.441,0.729-0.719,1.339-0.824c0.141-0.031,0.267,0.067,0.289,0.203c0.023,0.136-0.067,0.266-0.203,0.289
						c-0.465,0.081-0.802,0.282-1.002,0.599c-0.408,0.645-0.159,1.564-0.156,1.574c0.037,0.133-0.041,0.271-0.174,0.308
						C194.546,140.168,194.523,140.171,194.501,140.171z"/>
				</g>
				<g>
					<path fill="#568A96" d="M196.976,158.352c0,0,2.718,4.747,4.015,5.24c0,0-1.192-0.175-1.119,2.464c0,0-3.217-3.412-3.594-5.641
						L196.976,158.352z"/>
				</g>
				<g>
					<path fill="#568A96" d="M200.991,163.593c0,0,2.231-0.816,2.723-3.22l1.988,1.389l-3.021,4.295
						C202.681,166.057,202.197,164.047,200.991,163.593z"/>
				</g>
				<g>
					<polygon fill="#568A96" points="186.748,189.416 185.154,188.652 182.145,197.401 184.1,198.198 					"/>
				</g>
				<g>
					<polygon fill="#568A96" points="222.456,187.673 227.299,196.002 229.035,194.637 224.302,186.843 					"/>
				</g>
				<g>
					<path fill="#568A96" d="M190.17,173.79c-1.421-2.454-4.925-0.517-5.724,2.26c-0.798,2.777,1.488,4.901,1.488,4.901
						S189.137,173.015,190.17,173.79z"/>
				</g>
				<g>
					<path fill="#568A96" d="M217.872,174.812c1.033-2.83,5.659-0.973,4.379,4.846C222.251,179.658,218.388,174.413,217.872,174.812
						z"/>
				</g>
				<g>
					<path fill="#F0CFBD" d="M205.086,208.376c-0.135,0-0.245-0.106-0.25-0.242c-0.255-7.667-4.055-43.641-4.094-44.003
						c-0.014-0.137,0.085-0.26,0.223-0.275c0.143-0.015,0.261,0.085,0.275,0.222c0.038,0.363,3.841,36.354,4.096,44.041
						c0.005,0.138-0.104,0.253-0.242,0.258C205.092,208.376,205.089,208.376,205.086,208.376z"/>
				</g>
				<g>
					<path fill="#F0CFBD" d="M210.991,174.409c-1.769,0-3.142-0.63-3.234-0.674c-0.125-0.059-0.179-0.208-0.12-0.332
						c0.06-0.126,0.21-0.177,0.333-0.12c0.035,0.017,3.523,1.612,6.434-0.409c0.11-0.078,0.271-0.051,0.348,0.062
						c0.079,0.113,0.051,0.269-0.062,0.348C213.45,174.145,212.138,174.409,210.991,174.409z"/>
				</g>
				<g>
					<circle fill="#474F50" cx="202.197" cy="146.734" r="0.468"/>
				</g>
				<g>
					<circle fill="#474F50" cx="207.459" cy="147.202" r="0.468"/>
				</g>
				<g>
					<path fill="#F0CFBD" d="M236.179,185.533c0,0-1.112,1.396,0,2.502c0,0,0.579-0.633,0.555-1.192
						C236.71,186.284,236.179,185.533,236.179,185.533z"/>
				</g>
				<g>
					<path fill="#F0CFBD" d="M173.382,190.231c0,0,2.731,0.724,1.954,4.039c0,0-1.994-0.946-2.273-1.552
						C172.784,192.112,172.882,192.418,173.382,190.231z"/>
				</g>
				<g>
					<path fill="#474F50" d="M198.468,350.442c-0.212,0-0.401-0.134-0.472-0.334c-0.205-0.582-1.933-5.717,0.487-6.639
						c0.59-0.229,0.956,0.003,1.122,0.161c1.005,0.96-0.129,4.843-0.663,6.468c-0.066,0.203-0.255,0.342-0.47,0.344
						C198.472,350.442,198.47,350.442,198.468,350.442z M198.929,344.372c-0.01,0.007-0.042,0.014-0.09,0.031
						c-0.855,0.327-0.712,2.155-0.36,3.735C198.963,346.288,199.168,344.708,198.929,344.372z"/>
				</g>
				<g>
					<path fill="#474F50" d="M198.468,350.442c-0.007,0-0.014,0-0.02,0c-1.323-0.054-4.446-0.307-4.865-1.515
						c-0.108-0.312-0.104-0.8,0.54-1.352c0.562-0.482,1.202-0.669,1.852-0.547c1.63,0.308,2.806,2.437,2.935,2.678
						c0.084,0.158,0.077,0.35-0.018,0.501C198.8,350.354,198.64,350.442,198.468,350.442z M195.589,347.992
						c-0.278,0-0.547,0.113-0.815,0.344c-0.22,0.188-0.243,0.288-0.243,0.289c0.14,0.279,1.452,0.603,2.976,0.75
						c-0.443-0.59-1.077-1.243-1.718-1.363C195.721,347.999,195.654,347.992,195.589,347.992z"/>
				</g>
				<g>
					<path fill="#474F50" d="M240.865,344.071c-0.619,0-1.157-0.102-1.537-0.354c-0.413-0.276-0.632-0.702-0.632-1.232
						s0.22-0.976,0.637-1.289c1.779-1.336,7.102,0.15,7.702,0.324c0.204,0.06,0.349,0.24,0.36,0.452s-0.111,0.409-0.308,0.49
						C246.313,342.783,243.072,344.071,240.865,344.071z M241.648,341.639c-0.755,0-1.376,0.102-1.715,0.356
						c-0.164,0.123-0.237,0.274-0.237,0.489c0,0.242,0.09,0.335,0.188,0.4c0.759,0.507,3.227-0.061,5.342-0.788
						C244.041,341.84,242.711,341.639,241.648,341.639z"/>
				</g>
				<g>
					<path fill="#474F50" d="M244.486,348.633c-0.236,0-0.478-0.061-0.719-0.181c-0.487-0.243-0.783-0.64-0.854-1.146
						c-0.282-1.975,3.241-5.301,3.644-5.674c0.152-0.139,0.374-0.173,0.559-0.082c0.186,0.09,0.296,0.284,0.279,0.489
						c-0.073,0.903-0.523,5.454-2.209,6.404C244.963,348.57,244.728,348.633,244.486,348.633z M246.229,343.375
						c-1.204,1.29-2.447,2.938-2.326,3.79c0.019,0.126,0.069,0.271,0.312,0.393c0.235,0.117,0.376,0.073,0.479,0.016
						C245.403,347.174,245.948,345.189,246.229,343.375z"/>
				</g>
			</g>
		</g>
		<g>
			<polygon fill="#C3F9FC" points="175.475,146.435 205.933,111.808 213.548,111.808 175.475,156.246 			"/>
		</g>
		<g>
			<polygon fill="#C3F9FC" points="175.475,144.092 204.03,111.808 201.247,111.808 175.475,141.017 			"/>
		</g>
	</g>
	<g id="man_wear_yellow_tshirt_1_">
		<path fill="#D35971" d="M414.615,241.661c0,0,5.981,10.897,10.035,11.302c4.055,0.405,13.695-6.988,13.695-6.988v-9.028
			L414.615,241.661z"/>
		<path fill="#343A3A" d="M439.364,279.878v31.068h65.467c0,0,0.191-16.394-2.033-34.35S439.364,279.878,439.364,279.878z"/>
		<path fill="#F9B655" d="M450.854,193.259c0,0-25.595-11.86-29.852,13.431h9.731l7.445,34.971c0,0,1.475,28.028-2.073,37.759
			c0,0,21.996,3.446,39.432,2.027s28.585-5.271,28.585-5.271l-1.716-15.734l6.455-35.557c0,0-5.753-28.585-15.281-35.276
			s-23.416-1.064-23.416-1.064L450.854,193.259z"/>
		<path fill="#2C466D" d="M452.263,241.661h-48.668c-0.733,0-1.385-0.506-1.621-1.257l-9.802-31.268
			c-0.376-1.201,0.449-2.446,1.621-2.446h48.668c0.733,0,1.385,0.505,1.621,1.257l9.802,31.268
			C454.26,240.416,453.435,241.661,452.263,241.661z"/>
		<linearGradient id="SVGID_2_" gradientUnits="userSpaceOnUse" x1="431.2397" y1="224.2328" x2="484.9639" y2="186.119">
			<stop  offset="0" style="stop-color:#8BF7FF"/>
			<stop  offset="0.9944" style="stop-color:#C5F9FF;stop-opacity:0"/>
		</linearGradient>
		<polygon fill="url(#SVGID_2_)" points="444.386,208.974 478.738,158.865 504.793,203.722 453.092,236.747 		"/>
		<path fill="#DB833A" d="M485.597,233.096l-4.638-16.725c0,0-5.17,7.481-5.094,17.691c0.076,10.21,12.62,12.263,12.62,12.263
			L485.597,233.096z"/>
		<path fill="#F99680" d="M462.823,169.5c0.001-0.012,0.001-0.022,0.002-0.034c3.352-0.363,5.97-3.169,5.97-6.618
			c0-3.695-2.995-6.69-6.69-6.69c-2.098,0-3.947,0.985-5.174,2.497c-1.96-3.268-5.526-5.462-9.613-5.462
			c-6.193,0-11.214,5.02-11.214,11.214c0,1.851,0.456,3.592,1.25,5.13c0,0-0.004,0.001-0.004,0.001s8.638,17.334,12.591,16.421
			c0.706-0.163,1.547-0.533,2.446-1.065l0.001,0.002c0,0,2.874,7.905-1.535,8.361c0,0,3.725,6.31,9.123,4.637
			c5.398-1.673,10.187-9.351,10.187-9.351S461.639,180.637,462.823,169.5z"/>
		<path fill="#F99680" d="M485.597,233.096c0,0,2.813,11.404-3.193,12.696s-22.693,0.418-26.381-8.249
			c-3.687-8.667-3.649-9.579-3.649-9.579s-2.281-0.038-1.977,2.167c0.304,2.205,1.444,5.36-0.342,5.284
			c-1.787-0.076-3.383-0.532-5.246-2.509c-1.863-1.977-3.611-3.991-4.409-2.813c0,0,2.319,3.497,2.927,4.143
			c0.608,0.646,2.547,3.026,1.977,2.882s-2.737-0.715-3.915-2.615c-1.178-1.901-3.687-2.509-4.409-1.52c0,0,1.673,1.178,2.851,2.357
			c1.178,1.178,4.181,3.649,3.345,3.573c-0.836-0.076-3.193-0.646-4.752-2.471c-1.559-1.825-3.573-2.129-3.991-1.064
			c0,0,2.357,1.444,3.345,2.585c0.988,1.14,3.041,2.243,2.737,2.243s-3.193,0.266-4.181-0.38s-2.091-0.418-2.357,0.38
			c0,0,2.547,1.102,5.208,1.711c2.661,0.608,10.225,3.202,12.202,4.357c1.977,1.155,26.229,19.971,39.077,19.059
			c12.848-0.912,18.854-11.556,19.766-22.427c0.912-10.872-1.368-18.018-1.368-18.018S495.936,227.774,485.597,233.096z"/>
		<linearGradient id="SVGID_3_" gradientUnits="userSpaceOnUse" x1="423.763" y1="217.9872" x2="444.2635" y2="133.0569">
			<stop  offset="0" style="stop-color:#8BF7FF"/>
			<stop  offset="0.9944" style="stop-color:#C5F9FF;stop-opacity:0"/>
		</linearGradient>
		<polygon fill="url(#SVGID_3_)" points="442.461,206.69 489.576,108.314 414.615,92.906 393.793,206.69 		"/>
		<path fill="#474F50" d="M456.932,158.655c-0.047,3.129,1.018,4.802,1.018,4.802s-2.788-1.47-3.852-3.953
			c-1.064-2.483-2.129-4.511-3.852-2.585s-4.866,0.355-4.866,0.355s-0.304,5.677-6.031,3.446c0,0,2.119,5.274-2.843,6.641
			c0,0,0.478,1.438,0.85,2.177c0,0-2.264,2.384-7.636,1.877c-5.372-0.507-6.031-7.248-4.409-9.326c0,0-3.497-2.493-1.064-5.934
			c0,0-4.866-3.543-2.23-9.068c2.636-5.524,9.376-3.294,9.376-3.294s2.534-4.967,7.653-5.068c5.119-0.101,6.487,4.764,6.487,4.764
			s14.546-1.673,16.269,0.862c1.723,2.534,1.221,11.875,1.221,11.875S460.078,155.5,456.932,158.655z"/>
		<path fill="#D35971" d="M452.388,184.895c4.7-2.683,7.183-8.109,7.741-11.961c0,0,4.698,13.646-7.078,18.556
			C453.051,191.491,454.074,190.318,452.388,184.895z"/>
		<path fill="#D35971" d="M461.421,165.662c0,0-2.483-7.222,3.51-6.69L461.421,165.662z"/>
		
			<ellipse transform="matrix(0.866 -0.5 0.5 0.866 -23.9643 248.5016)" fill="#D35971" cx="451.728" cy="168.969" rx="3.459" ry="2.015"/>
		
			<ellipse transform="matrix(0.866 -0.5 0.5 0.866 -28.2931 244.5347)" fill="#D35971" cx="442.162" cy="175.063" rx="2.714" ry="1.581"/>
		<circle fill="#474F50" cx="439.906" cy="171.485" r="0.874"/>
		<circle fill="#474F50" cx="449.105" cy="166.277" r="0.874"/>
		<path fill="#D35971" d="M485.597,233.096c0,0,0.927,4.145,0.638,6.389c0,0,14.339,1.518,22.625-14.599
			C508.861,224.885,496.063,227.622,485.597,233.096z"/>
		<path fill="#2C466D" d="M450.854,193.259c0,0,2.103,4.058,7.805,4.257c5.702,0.199,11.505-8.971,11.505-8.971
			s1.558-0.548,1.936-0.66c0,0-2.772,8.136-10.222,11.202c-7.45,3.066-11.847-2.95-13.31-6.721
			C448.567,192.367,450.119,192.955,450.854,193.259z"/>
		<path fill="#2C466D" d="M485.597,233.096l-0.894-3.225c0,0,10.866-7.022,23.328-8.665l0.83,3.679
			C508.861,224.885,492.477,229.637,485.597,233.096z"/>
		<path fill="#303535" d="M458.71,310.945l-1.989-23.821C456.721,287.124,437.22,299.896,458.71,310.945z"/>
	</g>
	<g id="speech_bubble_5_">
		<g>
			<path fill="#A8A848" d="M408.639,166.954h-33.118c-3.878,0-7.022,3.144-7.022,7.021c0,3.878,3.144,7.021,7.022,7.021h5.471
				c-0.403,1.663-1.223,4.492-2.304,5.338c0,0,5.326-2.869,6.188-5.338h23.764c3.878,0,7.021-3.144,7.021-7.021
				C415.661,170.098,412.517,166.954,408.639,166.954z"/>
		</g>
		<g>
			<path fill="#FFFFFF" d="M388.893,177.161c-0.257,0-0.514-0.014-0.77-0.042c-1.21-0.134-1.956-0.542-2.415-1.019
				c-0.827,0.436-1.865,0.732-3.137,0.793c-1.333,0.068-2.26-0.229-2.901-0.65c-0.624,0.338-1.412,0.575-2.389,0.649
				c-1.756,0.14-3.08-0.255-3.941-1.161c-1.275-1.339-1.046-3.294-1.035-3.376c0.018-0.137,0.127-0.231,0.279-0.217
				c0.137,0.017,0.233,0.142,0.217,0.279c-0.002,0.018-0.209,1.808,0.903,2.973c0.754,0.789,1.95,1.125,3.538,1.004
				c0.799-0.062,1.456-0.24,1.99-0.496c-0.255-0.238-0.445-0.495-0.588-0.74c-0.753-1.299-0.548-2.918,0.045-3.847
				c0.36-0.566,0.851-0.854,1.356-0.805c0.947,0.086,1.655,1.147,1.646,2.469c-0.008,1.016-0.45,2.171-1.546,2.966
				c0.628,0.343,1.429,0.494,2.401,0.451c1.149-0.056,2.091-0.315,2.845-0.697c-0.125-0.198-0.213-0.399-0.273-0.588
				c-0.498-1.559,0.427-3.453,1.286-4.222c0.442-0.395,0.88-0.522,1.238-0.363c0.612,0.275,0.891,1.16,0.693,2.203
				c-0.202,1.072-0.888,2.273-2.184,3.112c0.452,0.42,1.129,0.682,2.024,0.781c1.512,0.166,3.084-0.234,4.479-0.921
				c-0.398-0.387-0.6-0.807-0.696-1.182c-0.389-1.505,0.666-3.252,1.908-4.2c1.021-0.779,2.088-0.985,2.853-0.548
				c0.698,0.399,0.92,1.121,0.623,2.031c-0.421,1.294-1.864,2.868-3.75,3.974c0.513,0.291,1.183,0.501,1.999,0.622
				c3.057,0.453,5.8-0.13,7.723-1.059c-0.227-0.276-0.35-0.567-0.412-0.84c-0.275-1.212,0.621-2.596,1.632-3.128
				c0.683-0.36,1.322-0.301,1.755,0.168c0.449,0.487,0.49,1.146,0.115,1.855c-0.365,0.691-1.132,1.422-2.205,2.048
				c0.633,0.399,1.604,0.633,2.866,0.68c0.138,0.005,0.245,0.121,0.24,0.259c-0.005,0.135-0.116,0.241-0.25,0.241
				c-0.003,0-0.006,0-0.01,0c-1.703-0.063-2.731-0.436-3.344-0.909c-2.009,1.022-4.894,1.667-8.185,1.178
				c-1.108-0.164-1.885-0.472-2.427-0.839C391.807,176.721,390.353,177.161,388.893,177.161z M379.939,171.004
				c-0.398,0-0.688,0.358-0.828,0.578c-0.499,0.781-0.68,2.213-0.034,3.327c0.164,0.283,0.371,0.527,0.618,0.731
				c1.063-0.697,1.49-1.747,1.497-2.666c0.007-1.042-0.517-1.906-1.191-1.968C379.98,171.005,379.96,171.004,379.939,171.004z
				 M395.827,170.043c-0.496,0-1.076,0.231-1.656,0.673c-1.11,0.848-2.061,2.384-1.727,3.678c0.104,0.408,0.335,0.763,0.685,1.059
				c1.866-1.035,3.332-2.554,3.739-3.807c0.222-0.68,0.089-1.166-0.396-1.442C396.283,170.097,396.065,170.043,395.827,170.043z
				 M387.325,170.959c-0.157,0-0.367,0.106-0.586,0.302c-0.739,0.661-1.572,2.357-1.144,3.696c0.058,0.179,0.135,0.344,0.231,0.495
				c1.203-0.757,1.835-1.846,2.019-2.816c0.148-0.786-0.022-1.481-0.407-1.654C387.405,170.967,387.367,170.959,387.325,170.959z
				 M405.378,171.642c-0.232,0-0.458,0.092-0.609,0.172c-0.829,0.437-1.6,1.602-1.378,2.575c0.061,0.266,0.191,0.503,0.387,0.712
				c1.078-0.593,1.843-1.291,2.186-1.939c0.19-0.359,0.338-0.874-0.04-1.283C405.76,171.702,405.566,171.642,405.378,171.642z"/>
		</g>
		<g>
			<g>
				<path fill="#F2E5D6" d="M144.721,142.377h18.964c2.22,0,4.021,1.8,4.021,4.02c0,2.22-1.8,4.021-4.021,4.021h-3.133
					c0.231,0.952,0.7,2.572,1.319,3.057c0,0-3.05-1.643-3.543-3.057h-13.607c-2.22,0-4.021-1.8-4.021-4.021
					C140.7,144.178,142.5,142.377,144.721,142.377z"/>
			</g>
		</g>
		<g>
			<g>
				<path fill="#F2E5D6" d="M512.392,159.088h-30.326c-3.551,0-6.429,2.951-6.429,6.591c0,3.64,2.879,6.591,6.429,6.591h5.01
					c-0.369,1.561-1.12,4.216-2.11,5.01c0,0,4.877-2.693,5.666-5.01h21.76c3.551,0,6.429-2.951,6.429-6.591
					C518.821,162.039,515.943,159.088,512.392,159.088z"/>
			</g>
		</g>
		<g>
			<g>
				<path fill="#474F50" d="M413.047,132.714c-0.045,0-0.09-0.012-0.13-0.037c-0.619-0.377-1.184-0.76-1.68-1.139
					c-0.11-0.084-0.131-0.241-0.047-0.351c0.083-0.11,0.24-0.131,0.35-0.047c0.396,0.303,0.855,0.62,1.342,0.927
					c-0.246-0.492-0.486-1.134-0.714-1.909c-0.038-0.132,0.037-0.271,0.17-0.31c0.131-0.039,0.271,0.037,0.311,0.169
					c0.22,0.749,0.449,1.365,0.684,1.831c0.062,0.124,0.012,0.274-0.111,0.336c-0.034,0.017-0.071,0.026-0.107,0.026
					c0.021,0.013,0.042,0.026,0.063,0.039c0.118,0.072,0.155,0.226,0.084,0.343C413.213,132.672,413.131,132.714,413.047,132.714z
					 M409.923,130.232c-0.072,0-0.144-0.031-0.193-0.091c-0.223-0.271-0.392-0.534-0.502-0.784h-0.805
					c-0.138,0-0.25-0.112-0.25-0.25s0.112-0.25,0.25-0.25h0.974c0.106,0,0.201,0.067,0.236,0.167
					c0.085,0.243,0.247,0.512,0.483,0.799c0.088,0.107,0.072,0.264-0.035,0.352C410.035,130.214,409.979,130.232,409.923,130.232z
					 M415.133,129.357h-2c-0.138,0-0.25-0.112-0.25-0.25s0.112-0.25,0.25-0.25h2c0.138,0,0.25,0.112,0.25,0.25
					S415.271,129.357,415.133,129.357z M406.423,129.357h-2c-0.138,0-0.25-0.112-0.25-0.25s0.112-0.25,0.25-0.25h2
					c0.138,0,0.25,0.112,0.25,0.25S406.561,129.357,406.423,129.357z M402.423,129.357h-2c-0.138,0-0.25-0.112-0.25-0.25
					s0.112-0.25,0.25-0.25h2c0.138,0,0.25,0.112,0.25,0.25S402.561,129.357,402.423,129.357z M398.423,129.357h-2
					c-0.138,0-0.25-0.112-0.25-0.25s0.112-0.25,0.25-0.25h2c0.138,0,0.25,0.112,0.25,0.25S398.561,129.357,398.423,129.357z
					 M394.423,129.357l-2.009-0.002c-0.139-0.004-0.246-0.12-0.242-0.258c0.006-0.138,0.117-0.249,0.258-0.242l1.993,0.002
					c0.138,0,0.25,0.112,0.25,0.25S394.561,129.357,394.423,129.357z M417.124,129.236c-0.114,0-0.218-0.079-0.244-0.195
					c-0.03-0.135,0.055-0.269,0.189-0.299c0.622-0.141,1.2-0.402,1.719-0.776c0.112-0.081,0.269-0.056,0.35,0.057
					c0.08,0.112,0.055,0.268-0.057,0.349c-0.574,0.414-1.214,0.703-1.902,0.858C417.16,129.234,417.142,129.236,417.124,129.236z
					 M390.487,128.909c-0.035,0-0.07-0.007-0.104-0.022c-0.64-0.293-1.207-0.707-1.686-1.229c-0.093-0.102-0.086-0.26,0.016-0.353
					c0.102-0.094,0.26-0.087,0.354,0.015c0.433,0.473,0.946,0.847,1.525,1.111c0.125,0.058,0.181,0.206,0.123,0.332
					C390.673,128.854,390.582,128.909,390.487,128.909z M420.282,126.96c-0.044,0-0.089-0.012-0.13-0.036
					c-0.118-0.072-0.155-0.226-0.084-0.344c0.331-0.545,0.545-1.143,0.636-1.775c0.02-0.137,0.146-0.23,0.282-0.212
					c0.137,0.02,0.231,0.146,0.212,0.283c-0.1,0.7-0.336,1.36-0.702,1.964C420.449,126.917,420.366,126.96,420.282,126.96z
					 M387.861,126.036c-0.104,0-0.199-0.064-0.235-0.167c-0.197-0.558-0.297-1.142-0.297-1.737c0-0.111,0.003-0.221,0.011-0.33
					c0.009-0.137,0.106-0.239,0.266-0.233c0.138,0.009,0.242,0.128,0.232,0.266c-0.006,0.098-0.009,0.197-0.009,0.297
					c0,0.538,0.09,1.066,0.268,1.571c0.046,0.13-0.021,0.273-0.152,0.319C387.917,126.031,387.889,126.036,387.861,126.036z
					 M420.836,123.107c-0.111,0-0.212-0.074-0.242-0.187c-0.162-0.616-0.443-1.184-0.837-1.689
					c-0.085-0.109-0.065-0.266,0.044-0.351c0.106-0.085,0.266-0.065,0.351,0.043c0.435,0.559,0.747,1.188,0.927,1.869
					c0.035,0.134-0.045,0.271-0.179,0.306C420.878,123.105,420.856,123.107,420.836,123.107z M388.105,122.151
					c-0.038,0-0.076-0.008-0.112-0.027c-0.123-0.062-0.173-0.212-0.111-0.335c0.317-0.631,0.751-1.183,1.289-1.64
					c0.104-0.089,0.262-0.077,0.353,0.028c0.09,0.105,0.077,0.263-0.028,0.353c-0.487,0.414-0.879,0.913-1.166,1.483
					C388.285,122.101,388.197,122.151,388.105,122.151z M418.447,120.034c-0.042,0-0.083-0.01-0.122-0.032
					c-0.556-0.311-1.16-0.503-1.797-0.57c-0.138-0.015-0.236-0.138-0.223-0.275c0.015-0.137,0.139-0.235,0.275-0.222
					c0.704,0.075,1.373,0.287,1.988,0.631c0.12,0.067,0.163,0.22,0.096,0.34C418.62,119.988,418.534,120.034,418.447,120.034z
					 M391.073,119.63c-0.106,0-0.205-0.068-0.238-0.176c-0.041-0.132,0.032-0.272,0.164-0.313c0.503-0.156,1.026-0.236,1.557-0.236
					h2c0.138,0,0.25,0.112,0.25,0.25s-0.112,0.25-0.25,0.25h-2c-0.479,0-0.954,0.072-1.408,0.213
					C391.123,119.627,391.098,119.63,391.073,119.63z M414.556,119.406h-2c-0.138,0-0.25-0.112-0.25-0.25s0.112-0.25,0.25-0.25h2
					c0.138,0,0.25,0.112,0.25,0.25S414.693,119.406,414.556,119.406z M410.556,119.406h-2c-0.138,0-0.25-0.112-0.25-0.25
					s0.112-0.25,0.25-0.25h2c0.138,0,0.25,0.112,0.25,0.25S410.693,119.406,410.556,119.406z M406.556,119.406h-2
					c-0.138,0-0.25-0.112-0.25-0.25s0.112-0.25,0.25-0.25h2c0.138,0,0.25,0.112,0.25,0.25S406.693,119.406,406.556,119.406z
					 M402.556,119.406h-2c-0.138,0-0.25-0.112-0.25-0.25s0.112-0.25,0.25-0.25h2c0.138,0,0.25,0.112,0.25,0.25
					S402.693,119.406,402.556,119.406z M398.556,119.406h-2c-0.138,0-0.25-0.112-0.25-0.25s0.112-0.25,0.25-0.25h2
					c0.138,0,0.25,0.112,0.25,0.25S398.693,119.406,398.556,119.406z"/>
			</g>
		</g>
		<g>
			<g>
				<path fill="#3C5E93" d="M350.378,100.299h-28.289c-3.312,0-5.998,2.685-5.998,5.998c0,3.312,2.685,5.998,5.998,5.998h4.674
					c-0.344,1.421-1.045,3.837-1.968,4.56c0,0,4.55-2.451,5.285-4.56h20.299c3.312,0,5.998-2.685,5.998-5.998
					C356.375,102.984,353.69,100.299,350.378,100.299z"/>
			</g>
			<g>
				<path fill="#FFFFFF" d="M333.509,109.054c-0.221,0-0.44-0.012-0.66-0.036c-1.026-0.114-1.667-0.458-2.065-0.861
					c-0.708,0.367-1.591,0.617-2.671,0.669c-1.135,0.059-1.929-0.191-2.481-0.549c-0.534,0.286-1.206,0.485-2.036,0.548
					c-1.507,0.116-2.651-0.221-3.396-1.002c-1.101-1.156-0.902-2.843-0.894-2.914c0.017-0.137,0.127-0.233,0.279-0.217
					c0.137,0.017,0.233,0.142,0.217,0.279c-0.002,0.015-0.176,1.528,0.763,2.51c0.636,0.666,1.647,0.945,2.992,0.846
					c0.654-0.05,1.195-0.193,1.64-0.397c-0.201-0.196-0.354-0.404-0.47-0.603c-0.65-1.123-0.473-2.522,0.039-3.324
					c0.314-0.494,0.729-0.749,1.192-0.704c0.828,0.075,1.447,0.998,1.439,2.146c-0.007,0.863-0.377,1.843-1.288,2.528
					c0.523,0.271,1.188,0.387,1.98,0.354c0.958-0.047,1.746-0.26,2.38-0.574c-0.098-0.161-0.167-0.323-0.216-0.476
					c-0.431-1.347,0.367-2.982,1.109-3.645c0.388-0.346,0.774-0.459,1.096-0.316c0.538,0.242,0.785,1.014,0.614,1.921
					c-0.173,0.914-0.751,1.936-1.843,2.656c0.381,0.336,0.94,0.546,1.674,0.627c1.272,0.141,2.588-0.19,3.761-0.76
					c-0.321-0.326-0.488-0.677-0.568-0.991c-0.336-1.301,0.572-2.809,1.643-3.625c0.885-0.676,1.812-0.852,2.478-0.471
					c0.613,0.351,0.808,0.982,0.549,1.778c-0.357,1.1-1.574,2.433-3.167,3.381c0.428,0.231,0.977,0.398,1.642,0.497
					c2.587,0.382,4.903-0.103,6.534-0.88c-0.179-0.23-0.279-0.471-0.331-0.698c-0.239-1.051,0.538-2.251,1.413-2.712
					c0.593-0.31,1.169-0.254,1.542,0.151c0.396,0.428,0.433,1.006,0.104,1.627c-0.309,0.583-0.949,1.201-1.847,1.732
					c0.535,0.318,1.342,0.506,2.381,0.544c0.138,0.005,0.245,0.121,0.24,0.259c-0.005,0.135-0.116,0.241-0.25,0.241
					c-0.003,0-0.006,0-0.01,0c-1.446-0.054-2.329-0.368-2.86-0.771c-1.722,0.871-4.186,1.418-6.991,1
					c-0.94-0.14-1.604-0.399-2.071-0.711C335.995,108.681,334.754,109.054,333.509,109.054z M325.863,103.794
					c-0.323,0-0.562,0.295-0.677,0.477c-0.421,0.658-0.573,1.865-0.028,2.804c0.134,0.229,0.3,0.429,0.498,0.597
					c0.881-0.588,1.234-1.464,1.24-2.231c0.006-0.871-0.427-1.593-0.984-1.644C325.896,103.795,325.879,103.794,325.863,103.794z
					 M339.434,102.974c-0.415,0-0.903,0.194-1.392,0.567c-0.939,0.717-1.743,2.013-1.463,3.104c0.087,0.334,0.273,0.625,0.556,0.871
					c1.575-0.878,2.81-2.161,3.154-3.22c0.184-0.562,0.075-0.962-0.321-1.188C339.812,103.018,339.631,102.974,339.434,102.974z
					 M332.169,103.756c-0.124,0-0.293,0.088-0.474,0.249c-0.624,0.558-1.327,1.99-0.966,3.12c0.044,0.137,0.102,0.265,0.174,0.383
					c0.998-0.64,1.523-1.55,1.677-2.362c0.124-0.655-0.014-1.232-0.327-1.373C332.229,103.761,332.2,103.756,332.169,103.756z
					 M347.591,104.339c-0.191,0-0.377,0.076-0.503,0.142c-0.696,0.367-1.343,1.344-1.157,2.159c0.048,0.212,0.15,0.403,0.303,0.572
					c0.9-0.5,1.538-1.084,1.826-1.628c0.229-0.432,0.218-0.786-0.029-1.055C347.899,104.388,347.744,104.339,347.591,104.339z"/>
			</g>
		</g>
		<g>
			<g>
				<path fill="#F99048" d="M82.853,128.439h26.774c3.135,0,5.676,2.541,5.676,5.676c0,3.135-2.541,5.676-5.676,5.676h-4.423
					c0.326,1.344,0.989,3.631,1.863,4.315c0,0-4.306-2.32-5.002-4.315H82.853c-3.135,0-5.676-2.541-5.676-5.676
					C77.176,130.981,79.718,128.439,82.853,128.439z"/>
			</g>
			<g>
				<path fill="#FFFFFF" d="M109.483,131.865H82.247c-0.138,0-0.25-0.112-0.25-0.25s0.112-0.25,0.25-0.25h27.236
					c0.138,0,0.25,0.112,0.25,0.25S109.621,131.865,109.483,131.865z"/>
			</g>
			<g>
				<path fill="#FFFFFF" d="M109.483,134.208H82.247c-0.138,0-0.25-0.112-0.25-0.25s0.112-0.25,0.25-0.25h27.236
					c0.138,0,0.25,0.112,0.25,0.25S109.621,134.208,109.483,134.208z"/>
			</g>
			<g>
				<path fill="#FFFFFF" d="M101.442,136.523H82.247c-0.138,0-0.25-0.112-0.25-0.25s0.112-0.25,0.25-0.25h19.195
					c0.138,0,0.25,0.112,0.25,0.25S101.58,136.523,101.442,136.523z"/>
			</g>
		</g>
	</g>
	<g id="man_wear_red_tshirt_1_">
		<path fill="#474F50" d="M155.678,165.148c-2.342-6.043-10.727-2.568-10.727-2.568c-2.141-0.519-5.293-7.545-10.783-9.28
			c1.114-1.365,1.784-3.107,1.784-5.006c0-4.376-3.547-7.923-7.923-7.923s-7.923,3.547-7.923,7.923c0,3.64,2.457,6.698,5.801,7.627
			c-0.68,0.67-1.365,1.422-2.062,2.227c-3.603,3.585-10.251,9.466-15.911,10.4c-8.234,1.36-15.335-0.076-23.796,11.331
			c0,0,6.27-7.177,14.882-7.932c6.603-0.579,11-0.99,15.309-3.7c-2.406,1.847-5.141,3.246-8.359,3.7
			c-12.842,1.813-25.609,8.159-25.458,25.005c0.151,16.846,17.513,17.434,17.513,17.434s9.833,1.905,21.466,4.625
			s28.479-12.767,32.793-18.854c4.314-6.087,0.219-9.324-1.367-15.442C149.333,178.595,158.02,171.192,155.678,165.148z"/>
		<g>
			<path fill="#474F50" d="M84.14,179.879c0,0,3.268-3.721,8.313-6.086c0.149-0.681,0.303-1.341,0.459-1.981
				C90.087,173.317,87.203,175.749,84.14,179.879z"/>
			<path fill="#474F50" d="M124.124,170.414c-5.998-1.488-5.475,10.212-23.139,19.29c-10.486,5.389-10.652-4.434-9.055-13.306
				c-6.701,3.804-11.51,10.185-11.417,20.554c0.151,16.846,17.513,17.434,17.513,17.434s9.833,1.905,21.466,4.625
				s28.479-12.767,32.793-18.854c4.314-6.087,0.219-9.324-1.367-15.442c-0.008-0.029-0.007-0.059-0.014-0.089
				c-0.487-0.301-0.996-0.607-1.544-0.927C141.533,179.132,130.122,171.902,124.124,170.414z"/>
		</g>
		<path fill="#3C5E93" d="M96.244,287.524c0,0-6.338,12.342-8.554,23.421h58.923l4.03-31.172L96.244,287.524z"/>
		<path fill="#E53362" d="M118.058,205.035c-4.482-3.475-9.619-8.612-14.655-0.957c-5.036,7.655-16.317,35.354-18.533,43.714
			c-2.216,8.36-3.928,13.295,2.518,13.396c6.446,0.101,13.824-0.041,13.824-0.041s-2.744,10.717-5.464,17.365
			c-2.72,6.648-3.827,8.763-3.827,8.763s11.684,7.756,23.066,5.54s30.519-13.9,36.26-12.993c0,0,1.612-17.123,2.014-23.771
			c0,0,5.036,6.346,9.77,4.633c4.734-1.712,21.192-34.246,21.192-34.246l-9.911-11.281c0,0-10.979,18.835-11.281,18.835
			s-3.626-33.138-11.08-33.893c-7.454-0.756-17.274,5.313-17.274,5.313L118.058,205.035z"/>
		<path fill="#F99680" d="M149.871,181.632c0.011-0.051,0.018-0.086,0.018-0.086l-0.005,0c0.129-0.688,0.204-1.395,0.204-2.12
			c0-6.3-5.107-11.407-11.407-11.407c-3.414,0-6.468,1.507-8.559,3.883c-1.27-1.01-2.875-1.617-4.623-1.617
			c-4.109,0-7.441,3.331-7.441,7.441c0,4.002,3.162,7.257,7.123,7.425l-0.022,0.016c0,0-2.644,19.112-7.101,19.868
			c0,0,5.666,10.047,12.162,8.612c6.497-1.435,4.457-8.234,4.457-8.234s-2.793-1.894,0.303-8.312
			c0.002-0.004,0.003-0.007,0.005-0.011c1.077,0.446,2.225,0.797,3.454,1.002c2.741,0.564,5.644-1.669,7.411-5.317
			c2.335-4.167,3.635-9.447,3.956-10.859C149.829,181.82,149.852,181.727,149.871,181.632z"/>
		<path fill="#F99680" d="M128.907,239.786l-0.878,12.287c0,0,10.475-0.604,12.49-0.604c2.014,0,2.77-1.914,3.928-2.72
			c1.158-0.806,5.238-3.072,5.389-4.13c0.151-1.058,0.151-1.058,0.151-1.058s-0.101-6.144-0.907-6.346c0,0-9.669,2.014-10.626,0.907
			l-0.05-1.309c0,0-2.014-1.209-3.777,0C132.864,238.022,128.907,239.786,128.907,239.786z"/>
		<path fill="#F99680" d="M175.895,216.959l7.003,7.953c0,0,7.227-6.261,7.68-6.979c0.453-0.718-0.907-1.171-0.907-2.115
			s0.68-2.493,0.113-3.286c-0.567-0.793-1.473-1.095-1.398-1.7s0.076-0.755,0.076-0.755s-0.529-1.02-0.907-2.115
			c0,0,6.534-9.141,5.099-10.123s-8.574,8.423-9.556,8.914s-2.568-0.529-3.286,1.171S175.895,216.959,175.895,216.959z"/>
		<path fill="#474F50" d="M149.361,173.231c-2.975-7.781-4.032-7.177-10.756-7.177c-6.723,0-14.481,4.36-14.481,4.36
			s2.762,6.671,9.424,6.443c6.306-0.216,10.138-2.96,11.823-4.517c-0.703,2.117-2.392,8.294,0.902,10.749
			c0,0-1.435-1.284-1.246-5.061c0.11-2.19,0.673-3.863,1.13-4.901c-0.301,3.201-0.419,9.537,3.205,10.571
			C149.361,183.698,152.336,181.012,149.361,173.231z"/>
		<path fill="#D35971" d="M134.981,197.1c-5.063-2.339-7.782-9.893-7.782-9.893s-2.787,12.464,6.349,15.411
			C133.548,202.617,133.548,200.804,134.981,197.1z"/>
		
			<ellipse transform="matrix(0.4428 -0.8966 0.8966 0.4428 -90.5809 225.9387)" fill="#D35971" cx="136.491" cy="185.847" rx="1.612" ry="2.871"/>
		
			<ellipse transform="matrix(0.4428 -0.8966 0.8966 0.4428 -88.6266 236.7975)" fill="#D35971" cx="146.204" cy="189.704" rx="1.337" ry="2.382"/>
		<path fill="#D35971" d="M128.907,239.786c0,0,4.793,4.539,3.355,12.051l-4.233,0.235L128.907,239.786z"/>
		<path fill="#D35971" d="M175.895,216.959l1.382-3.172c0,0,5.646,4.865,5.621,11.125L175.895,216.959z"/>
		<path fill="#B22449" d="M101.212,261.147l24.192-1.672c0,0-7.739,14.859-27.108,11.824L101.212,261.147z"/>
		<path fill="#B22449" d="M125.404,238.576l-20.088,1.662C105.317,240.237,113.109,226.489,125.404,238.576z"/>
		<path fill="#B22449" d="M153.261,256.051l1.108-17.727c0,0,8.756,7.765,4.479,22.113
			C158.847,260.437,155.603,259.022,153.261,256.051z"/>
		<polygon fill="#F0CFBD" points="127.199,259.475 128.861,238.324 125.404,238.576 123.424,259.612 		"/>
		<polygon fill="#F0CFBD" points="174.312,215.157 172.658,217.987 182.564,229.661 184.223,226.438 		"/>
		<path fill="#F0CFBD" d="M118.058,205.035c0,0,1.135-0.339,1.765-1.301c0,0,3.749,7.382,8.811,7.949
			c5.061,0.567,5.248-7.381,5.248-7.381s0.455,0.884,0.795,1.111c0,0,2.455,7.063-4.873,8.838
			C122.477,216.026,118.058,205.035,118.058,205.035z"/>
		<path fill="#2C466D" d="M128.861,310.945l5.212-18.583c0,0,9.669,4.684,6.194,18.583H128.861z"/>
		<path fill="#F0CFBD" d="M138.455,238.122v-7.101l10.727-0.378l-0.101,6.572C149.081,237.216,142.232,240.162,138.455,238.122z"/>
		<polygon fill="#F0CFBD" points="137.812,231.097 149.635,230.644 149.635,228.906 137.812,229.473 		"/>
		<circle fill="#A8A848" cx="143.831" cy="235.113" r="2.505"/>
		<circle fill="#474F50" cx="139.682" cy="181.673" r="0.85"/>
		<circle fill="#474F50" cx="147.954" cy="184.808" r="0.85"/>
		<path fill="#D35971" d="M122.289,173.722c0,0,5.666,1.284,2.266,7.252L122.289,173.722z"/>
	</g>
</g>
</svg>
