<?xml version="1.0" encoding="utf-8"?>
<!-- Generator: Adobe Illustrator 25.1.0, SVG Export Plug-In . SVG Version: 6.00 Build 0)  -->
<svg version="1.1" id="Tirui" xmlns="http://www.w3.org/2000/svg" xmlns:xlink="http://www.w3.org/1999/xlink" x="0px" y="0px"
	 viewBox="0 0 600 400" enable-background="new 0 0 600 400" xml:space="preserve">
<g id="Logic_Programming">
	<g id="background_9_">
		<g>
			<g>
				<circle fill="#FFF8EE" cx="357.885" cy="200.905" r="78.133"/>
			</g>
			<g>
				<path fill="#FFF8EE" d="M86.193,358.964c0,0-52.205-38.174-33.051-104.499s122.557-114.906,198.092-45.739
					s10.558,150.238,10.558,150.238H86.193z"/>
			</g>
		</g>
		<g>
			<path fill="#84B1BE" d="M53.695,358.83h282.859c0,0-83.007-10.601-147.936-10.601S53.695,358.83,53.695,358.83z"/>
		</g>
		<g>
			<path fill="#84B1BE" d="M427.977,358.778h116.475C544.451,358.778,509.094,327.558,427.977,358.778z"/>
		</g>
	</g>
	<g id="data_1_">
		<g>
			<g>
				<path fill="#474F50" d="M476.839,153.072c-0.27,0-0.492-0.215-0.5-0.486c-0.008-0.275,0.21-0.506,0.486-0.514
					c0.662-0.019,1.32-0.051,1.974-0.1c0.268-0.018,0.516,0.187,0.536,0.462c0.02,0.275-0.187,0.516-0.462,0.536
					c-0.669,0.049-1.343,0.083-2.021,0.102C476.848,153.072,476.844,153.072,476.839,153.072z M480.824,152.78
					c-0.249,0-0.465-0.187-0.495-0.44c-0.033-0.273,0.162-0.522,0.437-0.556c0.656-0.079,1.309-0.173,1.955-0.282
					c0.269-0.043,0.531,0.138,0.576,0.41c0.046,0.272-0.138,0.53-0.41,0.576c-0.662,0.111-1.33,0.207-2.002,0.288
					C480.865,152.779,480.845,152.78,480.824,152.78z M484.767,152.118c-0.23,0-0.438-0.16-0.488-0.395
					c-0.059-0.27,0.112-0.536,0.383-0.594c0.646-0.141,1.286-0.295,1.92-0.464c0.271-0.074,0.542,0.088,0.612,0.354
					c0.071,0.267-0.088,0.541-0.354,0.612c-0.649,0.173-1.305,0.331-1.967,0.474C484.837,152.114,484.801,152.118,484.767,152.118z
					 M488.629,151.09c-0.212,0-0.409-0.136-0.477-0.349c-0.084-0.264,0.062-0.544,0.325-0.628c0.63-0.2,1.253-0.414,1.87-0.642
					c0.255-0.098,0.546,0.036,0.642,0.296c0.096,0.259-0.036,0.546-0.296,0.642c-0.631,0.233-1.27,0.453-1.913,0.657
					C488.729,151.083,488.679,151.09,488.629,151.09z M492.373,149.707c-0.194,0-0.379-0.114-0.46-0.304
					c-0.108-0.254,0.01-0.548,0.264-0.656c0.607-0.259,1.207-0.529,1.8-0.813c0.246-0.116,0.548-0.015,0.667,0.235
					c0.119,0.249,0.014,0.547-0.235,0.667c-0.604,0.29-1.218,0.566-1.839,0.831C492.505,149.694,492.438,149.707,492.373,149.707z
					 M495.971,147.979c-0.178,0-0.35-0.095-0.44-0.263c-0.131-0.243-0.04-0.546,0.203-0.678c0.58-0.312,1.151-0.638,1.714-0.977
					c0.238-0.14,0.545-0.066,0.687,0.171c0.142,0.236,0.065,0.544-0.171,0.687c-0.576,0.347-1.161,0.68-1.755,1
					C496.133,147.96,496.051,147.979,495.971,147.979z M499.394,145.923c-0.161,0-0.319-0.078-0.416-0.223
					c-0.153-0.229-0.091-0.54,0.139-0.693c0.548-0.366,1.088-0.743,1.618-1.133c0.22-0.165,0.534-0.117,0.698,0.106
					c0.164,0.222,0.116,0.535-0.106,0.698c-0.542,0.399-1.094,0.786-1.655,1.16C499.586,145.895,499.489,145.923,499.394,145.923z
					 M502.61,143.556c-0.146,0-0.29-0.063-0.389-0.186c-0.174-0.215-0.141-0.529,0.074-0.703c0.513-0.415,1.015-0.841,1.507-1.278
					c0.207-0.183,0.522-0.165,0.706,0.042c0.184,0.206,0.164,0.522-0.042,0.706c-0.504,0.447-1.018,0.883-1.542,1.308
					C502.832,143.52,502.721,143.556,502.61,143.556z M505.599,140.9c-0.13,0-0.261-0.051-0.358-0.151
					c-0.192-0.197-0.188-0.515,0.01-0.707c0.472-0.459,0.932-0.93,1.382-1.411c0.189-0.201,0.507-0.213,0.706-0.024
					c0.202,0.188,0.213,0.505,0.024,0.706c-0.46,0.493-0.932,0.976-1.415,1.446C505.851,140.853,505.725,140.9,505.599,140.9z
					 M508.327,137.98c-0.115,0-0.229-0.039-0.324-0.119c-0.21-0.179-0.235-0.494-0.057-0.705c0.428-0.503,0.843-1.015,1.246-1.535
					c0.17-0.22,0.484-0.258,0.701-0.09c0.219,0.169,0.259,0.483,0.09,0.701c-0.413,0.534-0.838,1.058-1.275,1.572
					C508.609,137.921,508.469,137.98,508.327,137.98z M510.775,134.818c-0.1,0-0.199-0.029-0.287-0.091
					c-0.226-0.158-0.281-0.47-0.122-0.696c0.378-0.54,0.745-1.089,1.099-1.646c0.147-0.233,0.458-0.301,0.689-0.154
					c0.233,0.147,0.303,0.456,0.154,0.689c-0.361,0.57-0.736,1.131-1.124,1.685C511.088,134.744,510.933,134.818,510.775,134.818z
					 M512.92,131.437c-0.085,0-0.17-0.021-0.248-0.066c-0.24-0.137-0.323-0.442-0.186-0.682c0.326-0.572,0.641-1.152,0.94-1.741
					c0.126-0.246,0.427-0.342,0.673-0.218c0.245,0.125,0.344,0.427,0.218,0.673c-0.308,0.603-0.628,1.196-0.964,1.782
					C513.262,131.346,513.093,131.437,512.92,131.437z M514.74,127.872c-0.069,0-0.14-0.015-0.207-0.045
					c-0.251-0.114-0.362-0.41-0.248-0.662c0.271-0.599,0.529-1.207,0.773-1.821c0.103-0.257,0.393-0.38,0.649-0.28
					c0.257,0.103,0.382,0.393,0.28,0.649c-0.25,0.63-0.514,1.252-0.793,1.866C515.111,127.762,514.93,127.872,514.74,127.872z
					 M516.219,124.149c-0.054,0-0.108-0.009-0.162-0.027c-0.262-0.09-0.4-0.374-0.311-0.635c0.213-0.622,0.413-1.25,0.599-1.885
					c0.076-0.265,0.35-0.418,0.62-0.339c0.265,0.077,0.417,0.354,0.339,0.62c-0.189,0.648-0.394,1.292-0.612,1.928
					C516.62,124.019,516.427,124.149,516.219,124.149z M517.34,120.311c-0.038,0-0.078-0.005-0.117-0.014
					c-0.269-0.065-0.434-0.335-0.369-0.604c0.154-0.639,0.295-1.282,0.419-1.932c0.052-0.271,0.313-0.446,0.586-0.396
					c0.271,0.052,0.448,0.314,0.396,0.586c-0.128,0.664-0.271,1.322-0.429,1.977C517.771,120.158,517.565,120.311,517.34,120.311z
					 M518.096,116.386c-0.024,0-0.049-0.002-0.073-0.005c-0.273-0.04-0.462-0.294-0.423-0.567c0.095-0.648,0.174-1.303,0.237-1.96
					c0.027-0.275,0.287-0.467,0.546-0.45c0.275,0.027,0.477,0.271,0.45,0.546c-0.065,0.675-0.146,1.345-0.243,2.009
					C518.554,116.208,518.34,116.386,518.096,116.386z M518.481,112.409c-0.008,0-0.017,0-0.025-0.001
					c-0.276-0.014-0.488-0.249-0.474-0.524c0.033-0.655,0.052-1.313,0.055-1.976c0.001-0.275,0.225-0.498,0.5-0.498
					c0.001,0,0.001,0,0.002,0c0.276,0.001,0.499,0.226,0.498,0.502c-0.003,0.678-0.021,1.352-0.057,2.022
					C518.967,112.202,518.746,112.409,518.481,112.409z M518.502,108.41c-0.267,0-0.488-0.21-0.5-0.479
					c-0.027-0.662-0.07-1.319-0.127-1.974c-0.024-0.274,0.18-0.518,0.455-0.541c0.261-0.027,0.517,0.18,0.541,0.455
					c0.059,0.668,0.102,1.341,0.131,2.017c0.012,0.276-0.203,0.51-0.479,0.521C518.516,108.41,518.509,108.41,518.502,108.41z
					 M518.153,104.428c-0.246,0-0.461-0.182-0.494-0.433c-0.089-0.655-0.192-1.307-0.311-1.952
					c-0.049-0.271,0.131-0.532,0.402-0.582c0.265-0.042,0.532,0.13,0.582,0.402c0.12,0.661,0.226,1.326,0.316,1.997
					c0.037,0.273-0.154,0.525-0.428,0.562C518.198,104.427,518.176,104.428,518.153,104.428z M517.438,100.497
					c-0.228,0-0.433-0.155-0.487-0.387c-0.15-0.645-0.313-1.283-0.491-1.916c-0.074-0.266,0.08-0.541,0.347-0.616
					c0.267-0.073,0.541,0.081,0.616,0.347c0.182,0.646,0.349,1.299,0.503,1.959c0.062,0.269-0.104,0.537-0.374,0.601
					C517.513,100.493,517.475,100.497,517.438,100.497z M516.354,96.648c-0.21,0-0.404-0.133-0.475-0.343
					c-0.208-0.627-0.432-1.246-0.668-1.859c-0.099-0.258,0.029-0.547,0.287-0.646c0.257-0.097,0.547,0.029,0.646,0.287
					c0.242,0.627,0.47,1.262,0.684,1.904c0.087,0.262-0.055,0.545-0.317,0.632C516.459,96.64,516.405,96.648,516.354,96.648z
					 M514.916,92.924c-0.191,0-0.375-0.111-0.457-0.298c-0.267-0.603-0.546-1.198-0.838-1.786c-0.123-0.247-0.022-0.547,0.225-0.67
					c0.245-0.124,0.548-0.022,0.67,0.225c0.3,0.602,0.585,1.211,0.857,1.827c0.112,0.252-0.002,0.548-0.255,0.659
					C515.053,92.91,514.983,92.924,514.916,92.924z M513.139,89.351c-0.175,0-0.346-0.093-0.437-0.257
					c-0.32-0.575-0.654-1.143-1.001-1.701c-0.146-0.235-0.073-0.543,0.161-0.688c0.233-0.144,0.542-0.074,0.688,0.161
					c0.354,0.572,0.696,1.153,1.024,1.742c0.135,0.241,0.048,0.546-0.193,0.68C513.305,89.331,513.222,89.351,513.139,89.351z
					 M511.034,85.958c-0.159,0-0.315-0.076-0.412-0.217c-0.374-0.545-0.759-1.078-1.155-1.603c-0.167-0.22-0.123-0.534,0.097-0.7
					c0.218-0.166,0.533-0.124,0.7,0.097c0.406,0.536,0.801,1.083,1.183,1.64c0.156,0.228,0.099,0.539-0.129,0.695
					C511.23,85.929,511.132,85.958,511.034,85.958z M508.622,82.773c-0.144,0-0.285-0.062-0.385-0.18
					c-0.421-0.507-0.854-1.003-1.299-1.488c-0.187-0.204-0.172-0.521,0.031-0.707c0.204-0.188,0.521-0.173,0.707,0.031
					c0.454,0.497,0.897,1.005,1.33,1.523c0.176,0.213,0.147,0.528-0.064,0.705C508.849,82.735,508.735,82.773,508.622,82.773z
					 M505.926,79.824c-0.128,0-0.255-0.049-0.353-0.146c-0.468-0.466-0.945-0.92-1.433-1.363c-0.205-0.186-0.22-0.502-0.034-0.706
					c0.187-0.206,0.503-0.219,0.706-0.034c0.499,0.453,0.988,0.919,1.466,1.395c0.196,0.195,0.196,0.512,0.002,0.707
					C506.183,79.775,506.054,79.824,505.926,79.824z M502.966,77.135c-0.112,0-0.226-0.037-0.318-0.114
					c-0.508-0.42-1.025-0.829-1.553-1.226c-0.221-0.166-0.265-0.479-0.099-0.7c0.168-0.223,0.481-0.263,0.7-0.099
					c0.539,0.406,1.068,0.823,1.588,1.253c0.213,0.177,0.243,0.491,0.067,0.704C503.252,77.074,503.109,77.135,502.966,77.135z
					 M499.768,74.732c-0.098,0-0.195-0.028-0.281-0.087c-0.546-0.371-1.099-0.73-1.66-1.076c-0.235-0.145-0.309-0.452-0.164-0.688
					c0.146-0.235,0.456-0.309,0.688-0.164c0.575,0.354,1.142,0.721,1.699,1.102c0.229,0.155,0.287,0.467,0.132,0.694
					C500.084,74.656,499.927,74.732,499.768,74.732z M496.36,72.635c-0.082,0-0.165-0.02-0.241-0.062
					c-0.578-0.318-1.163-0.624-1.756-0.917c-0.247-0.122-0.349-0.422-0.227-0.67c0.122-0.247,0.424-0.349,0.67-0.227
					c0.606,0.299,1.205,0.612,1.795,0.938c0.242,0.133,0.33,0.438,0.196,0.679C496.707,72.543,496.536,72.635,496.36,72.635z
					 M492.768,70.866c-0.067,0-0.135-0.014-0.2-0.042c-0.604-0.263-1.215-0.513-1.832-0.749c-0.259-0.098-0.388-0.387-0.289-0.645
					c0.098-0.26,0.39-0.387,0.645-0.289c0.633,0.24,1.258,0.496,1.877,0.767c0.253,0.11,0.368,0.404,0.258,0.658
					C493.144,70.754,492.96,70.866,492.768,70.866z M489.023,69.438c-0.052,0-0.104-0.008-0.156-0.025
					c-0.624-0.205-1.254-0.396-1.891-0.57c-0.267-0.074-0.423-0.35-0.35-0.615c0.074-0.266,0.352-0.42,0.615-0.35
					c0.652,0.181,1.298,0.375,1.938,0.586c0.263,0.086,0.405,0.369,0.318,0.631C489.429,69.305,489.233,69.438,489.023,69.438z
					 M485.172,68.374c-0.036,0-0.073-0.004-0.111-0.013c-0.641-0.146-1.286-0.275-1.937-0.392c-0.271-0.049-0.453-0.308-0.404-0.58
					c0.049-0.271,0.307-0.45,0.58-0.404c0.666,0.118,1.327,0.252,1.983,0.401c0.269,0.061,0.438,0.329,0.376,0.599
					C485.606,68.216,485.4,68.374,485.172,68.374z M481.237,67.673c-0.021,0-0.044-0.001-0.065-0.004
					c-0.65-0.085-1.307-0.154-1.966-0.21c-0.274-0.022-0.479-0.265-0.456-0.54s0.271-0.471,0.54-0.456
					c0.675,0.056,1.345,0.127,2.011,0.214c0.274,0.036,0.467,0.287,0.432,0.561C481.699,67.489,481.484,67.673,481.237,67.673z
					 M477.252,67.341c-0.006,0-0.012,0-0.019,0c-0.525-0.02-1.053-0.029-1.583-0.029h-0.397c-0.276,0-0.5-0.224-0.5-0.5
					s0.224-0.5,0.5-0.5h0.397c0.542,0,1.083,0.01,1.62,0.029c0.275,0.011,0.491,0.242,0.481,0.519
					C477.742,67.13,477.52,67.341,477.252,67.341z M473.253,67.312h-2c-0.276,0-0.5-0.224-0.5-0.5s0.224-0.5,0.5-0.5h2
					c0.276,0,0.5,0.224,0.5,0.5S473.529,67.312,473.253,67.312z M469.253,67.312h-2c-0.276,0-0.5-0.224-0.5-0.5s0.224-0.5,0.5-0.5h2
					c0.276,0,0.5,0.224,0.5,0.5S469.529,67.312,469.253,67.312z M465.253,67.312h-2c-0.276,0-0.5-0.224-0.5-0.5s0.224-0.5,0.5-0.5h2
					c0.276,0,0.5,0.224,0.5,0.5S465.529,67.312,465.253,67.312z M461.253,67.312h-2c-0.276,0-0.5-0.224-0.5-0.5s0.224-0.5,0.5-0.5h2
					c0.276,0,0.5,0.224,0.5,0.5S461.529,67.312,461.253,67.312z M457.253,67.312h-2c-0.276,0-0.5-0.224-0.5-0.5s0.224-0.5,0.5-0.5h2
					c0.276,0,0.5,0.224,0.5,0.5S457.529,67.312,457.253,67.312z M453.253,67.312h-2c-0.276,0-0.5-0.224-0.5-0.5s0.224-0.5,0.5-0.5h2
					c0.276,0,0.5,0.224,0.5,0.5S453.529,67.312,453.253,67.312z M449.253,67.312h-2c-0.276,0-0.5-0.224-0.5-0.5s0.224-0.5,0.5-0.5h2
					c0.276,0,0.5,0.224,0.5,0.5S449.529,67.312,449.253,67.312z M445.253,67.312h-2c-0.276,0-0.5-0.224-0.5-0.5s0.224-0.5,0.5-0.5h2
					c0.276,0,0.5,0.224,0.5,0.5S445.529,67.312,445.253,67.312z M441.253,67.312h-2c-0.276,0-0.5-0.224-0.5-0.5s0.224-0.5,0.5-0.5h2
					c0.276,0,0.5,0.224,0.5,0.5S441.529,67.312,441.253,67.312z M437.253,67.312h-2c-0.276,0-0.5-0.224-0.5-0.5s0.224-0.5,0.5-0.5h2
					c0.276,0,0.5,0.224,0.5,0.5S437.529,67.312,437.253,67.312z M433.253,67.312h-2c-0.276,0-0.5-0.224-0.5-0.5s0.224-0.5,0.5-0.5h2
					c0.276,0,0.5,0.224,0.5,0.5S433.529,67.312,433.253,67.312z M429.253,67.312h-2c-0.276,0-0.5-0.224-0.5-0.5s0.224-0.5,0.5-0.5h2
					c0.276,0,0.5,0.224,0.5,0.5S429.529,67.312,429.253,67.312z M425.253,67.312h-2c-0.276,0-0.5-0.224-0.5-0.5s0.224-0.5,0.5-0.5h2
					c0.276,0,0.5,0.224,0.5,0.5S425.529,67.312,425.253,67.312z M421.253,67.312h-2c-0.276,0-0.5-0.224-0.5-0.5s0.224-0.5,0.5-0.5h2
					c0.276,0,0.5,0.224,0.5,0.5S421.529,67.312,421.253,67.312z M417.253,67.312h-2c-0.276,0-0.5-0.224-0.5-0.5s0.224-0.5,0.5-0.5h2
					c0.276,0,0.5,0.224,0.5,0.5S417.529,67.312,417.253,67.312z M413.253,67.312h-2c-0.276,0-0.5-0.224-0.5-0.5s0.224-0.5,0.5-0.5h2
					c0.276,0,0.5,0.224,0.5,0.5S413.529,67.312,413.253,67.312z M409.253,67.312h-2c-0.276,0-0.5-0.224-0.5-0.5s0.224-0.5,0.5-0.5h2
					c0.276,0,0.5,0.224,0.5,0.5S409.529,67.312,409.253,67.312z M405.253,67.312h-2c-0.276,0-0.5-0.224-0.5-0.5s0.224-0.5,0.5-0.5h2
					c0.276,0,0.5,0.224,0.5,0.5S405.529,67.312,405.253,67.312z M401.253,67.312h-2c-0.276,0-0.5-0.224-0.5-0.5s0.224-0.5,0.5-0.5h2
					c0.276,0,0.5,0.224,0.5,0.5S401.529,67.312,401.253,67.312z M397.253,67.312h-2c-0.276,0-0.5-0.224-0.5-0.5s0.224-0.5,0.5-0.5h2
					c0.276,0,0.5,0.224,0.5,0.5S397.529,67.312,397.253,67.312z M393.253,67.312h-2c-0.276,0-0.5-0.224-0.5-0.5s0.224-0.5,0.5-0.5h2
					c0.276,0,0.5,0.224,0.5,0.5S393.529,67.312,393.253,67.312z M389.253,67.312h-2c-0.276,0-0.5-0.224-0.5-0.5s0.224-0.5,0.5-0.5h2
					c0.276,0,0.5,0.224,0.5,0.5S389.529,67.312,389.253,67.312z M385.253,67.312h-2c-0.276,0-0.5-0.224-0.5-0.5s0.224-0.5,0.5-0.5h2
					c0.276,0,0.5,0.224,0.5,0.5S385.529,67.312,385.253,67.312z M381.253,67.312h-2c-0.276,0-0.5-0.224-0.5-0.5s0.224-0.5,0.5-0.5h2
					c0.276,0,0.5,0.224,0.5,0.5S381.529,67.312,381.253,67.312z M377.253,67.312h-2c-0.276,0-0.5-0.224-0.5-0.5s0.224-0.5,0.5-0.5h2
					c0.276,0,0.5,0.224,0.5,0.5S377.529,67.312,377.253,67.312z M373.253,67.312h-2c-0.276,0-0.5-0.224-0.5-0.5s0.224-0.5,0.5-0.5h2
					c0.276,0,0.5,0.224,0.5,0.5S373.529,67.312,373.253,67.312z M369.253,67.312h-2c-0.276,0-0.5-0.224-0.5-0.5s0.224-0.5,0.5-0.5h2
					c0.276,0,0.5,0.224,0.5,0.5S369.529,67.312,369.253,67.312z M365.253,67.312h-2c-0.276,0-0.5-0.224-0.5-0.5s0.224-0.5,0.5-0.5h2
					c0.276,0,0.5,0.224,0.5,0.5S365.529,67.312,365.253,67.312z M361.253,67.312h-2c-0.276,0-0.5-0.224-0.5-0.5s0.224-0.5,0.5-0.5h2
					c0.276,0,0.5,0.224,0.5,0.5S361.529,67.312,361.253,67.312z M357.253,67.312h-2c-0.276,0-0.5-0.224-0.5-0.5s0.224-0.5,0.5-0.5h2
					c0.276,0,0.5,0.224,0.5,0.5S357.529,67.312,357.253,67.312z M353.253,67.312h-2c-0.276,0-0.5-0.224-0.5-0.5s0.224-0.5,0.5-0.5h2
					c0.276,0,0.5,0.224,0.5,0.5S353.529,67.312,353.253,67.312z M349.253,67.312h-2c-0.276,0-0.5-0.224-0.5-0.5s0.224-0.5,0.5-0.5h2
					c0.276,0,0.5,0.224,0.5,0.5S349.529,67.312,349.253,67.312z M345.253,67.312h-2c-0.276,0-0.5-0.224-0.5-0.5s0.224-0.5,0.5-0.5h2
					c0.276,0,0.5,0.224,0.5,0.5S345.529,67.312,345.253,67.312z M341.253,67.312h-2c-0.276,0-0.5-0.224-0.5-0.5s0.224-0.5,0.5-0.5h2
					c0.276,0,0.5,0.224,0.5,0.5S341.529,67.312,341.253,67.312z M337.253,67.312h-2c-0.276,0-0.5-0.224-0.5-0.5s0.224-0.5,0.5-0.5h2
					c0.276,0,0.5,0.224,0.5,0.5S337.529,67.312,337.253,67.312z M333.253,67.312h-2c-0.276,0-0.5-0.224-0.5-0.5s0.224-0.5,0.5-0.5h2
					c0.276,0,0.5,0.224,0.5,0.5S333.529,67.312,333.253,67.312z M329.253,67.312h-2c-0.276,0-0.5-0.224-0.5-0.5s0.224-0.5,0.5-0.5h2
					c0.276,0,0.5,0.224,0.5,0.5S329.529,67.312,329.253,67.312z M325.253,67.312h-2c-0.276,0-0.5-0.224-0.5-0.5s0.224-0.5,0.5-0.5h2
					c0.276,0,0.5,0.224,0.5,0.5S325.529,67.312,325.253,67.312z M321.253,67.312h-2c-0.276,0-0.5-0.224-0.5-0.5s0.224-0.5,0.5-0.5h2
					c0.276,0,0.5,0.224,0.5,0.5S321.529,67.312,321.253,67.312z M317.253,67.312h-2c-0.276,0-0.5-0.224-0.5-0.5s0.224-0.5,0.5-0.5h2
					c0.276,0,0.5,0.224,0.5,0.5S317.529,67.312,317.253,67.312z M313.253,67.312h-2c-0.276,0-0.5-0.224-0.5-0.5s0.224-0.5,0.5-0.5h2
					c0.276,0,0.5,0.224,0.5,0.5S313.529,67.312,313.253,67.312z M309.253,67.312h-2c-0.276,0-0.5-0.224-0.5-0.5s0.224-0.5,0.5-0.5h2
					c0.276,0,0.5,0.224,0.5,0.5S309.529,67.312,309.253,67.312z M305.253,67.312h-2c-0.276,0-0.5-0.224-0.5-0.5s0.224-0.5,0.5-0.5h2
					c0.276,0,0.5,0.224,0.5,0.5S305.529,67.312,305.253,67.312z M301.253,67.312h-2c-0.276,0-0.5-0.224-0.5-0.5s0.224-0.5,0.5-0.5h2
					c0.276,0,0.5,0.224,0.5,0.5S301.529,67.312,301.253,67.312z M297.253,67.312h-2c-0.276,0-0.5-0.224-0.5-0.5s0.224-0.5,0.5-0.5h2
					c0.276,0,0.5,0.224,0.5,0.5S297.529,67.312,297.253,67.312z M293.253,67.312h-2c-0.276,0-0.5-0.224-0.5-0.5s0.224-0.5,0.5-0.5h2
					c0.276,0,0.5,0.224,0.5,0.5S293.529,67.312,293.253,67.312z M289.253,67.312h-2c-0.276,0-0.5-0.224-0.5-0.5s0.224-0.5,0.5-0.5h2
					c0.276,0,0.5,0.224,0.5,0.5S289.529,67.312,289.253,67.312z M285.253,67.312h-2c-0.276,0-0.5-0.224-0.5-0.5s0.224-0.5,0.5-0.5h2
					c0.276,0,0.5,0.224,0.5,0.5S285.529,67.312,285.253,67.312z M281.253,67.312h-2c-0.276,0-0.5-0.224-0.5-0.5s0.224-0.5,0.5-0.5h2
					c0.276,0,0.5,0.224,0.5,0.5S281.529,67.312,281.253,67.312z M277.253,67.312h-2c-0.276,0-0.5-0.224-0.5-0.5s0.224-0.5,0.5-0.5h2
					c0.276,0,0.5,0.224,0.5,0.5S277.529,67.312,277.253,67.312z M273.253,67.312h-2c-0.276,0-0.5-0.224-0.5-0.5s0.224-0.5,0.5-0.5h2
					c0.276,0,0.5,0.224,0.5,0.5S273.529,67.312,273.253,67.312z"/>
			</g>
			<g>
				<path fill="#474F50" d="M475.046,239.025h-2c-0.276,0-0.5-0.224-0.5-0.5s0.224-0.5,0.5-0.5h2c0.276,0,0.5,0.224,0.5,0.5
					S475.322,239.025,475.046,239.025z M471.046,239.025h-2c-0.276,0-0.5-0.224-0.5-0.5s0.224-0.5,0.5-0.5h2
					c0.276,0,0.5,0.224,0.5,0.5S471.322,239.025,471.046,239.025z M467.046,239.025h-2c-0.276,0-0.5-0.224-0.5-0.5
					s0.224-0.5,0.5-0.5h2c0.276,0,0.5,0.224,0.5,0.5S467.322,239.025,467.046,239.025z M463.046,239.025h-2
					c-0.276,0-0.5-0.224-0.5-0.5s0.224-0.5,0.5-0.5h2c0.276,0,0.5,0.224,0.5,0.5S463.322,239.025,463.046,239.025z M459.046,239.025
					h-2c-0.276,0-0.5-0.224-0.5-0.5s0.224-0.5,0.5-0.5h2c0.276,0,0.5,0.224,0.5,0.5S459.322,239.025,459.046,239.025z
					 M455.046,239.025h-2c-0.276,0-0.5-0.224-0.5-0.5s0.224-0.5,0.5-0.5h2c0.276,0,0.5,0.224,0.5,0.5
					S455.322,239.025,455.046,239.025z M451.046,239.025h-2c-0.276,0-0.5-0.224-0.5-0.5s0.224-0.5,0.5-0.5h2
					c0.276,0,0.5,0.224,0.5,0.5S451.322,239.025,451.046,239.025z M447.046,239.025h-2c-0.276,0-0.5-0.224-0.5-0.5
					s0.224-0.5,0.5-0.5h2c0.276,0,0.5,0.224,0.5,0.5S447.322,239.025,447.046,239.025z M443.046,239.025h-2
					c-0.276,0-0.5-0.224-0.5-0.5s0.224-0.5,0.5-0.5h2c0.276,0,0.5,0.224,0.5,0.5S443.322,239.025,443.046,239.025z M439.046,239.025
					h-2c-0.276,0-0.5-0.224-0.5-0.5s0.224-0.5,0.5-0.5h2c0.276,0,0.5,0.224,0.5,0.5S439.322,239.025,439.046,239.025z
					 M435.046,239.025h-2c-0.276,0-0.5-0.224-0.5-0.5s0.224-0.5,0.5-0.5h2c0.276,0,0.5,0.224,0.5,0.5
					S435.322,239.025,435.046,239.025z M431.046,239.025h-2c-0.276,0-0.5-0.224-0.5-0.5s0.224-0.5,0.5-0.5h2
					c0.276,0,0.5,0.224,0.5,0.5S431.322,239.025,431.046,239.025z M427.046,239.025h-2c-0.276,0-0.5-0.224-0.5-0.5
					s0.224-0.5,0.5-0.5h2c0.276,0,0.5,0.224,0.5,0.5S427.322,239.025,427.046,239.025z M423.046,239.025h-2
					c-0.276,0-0.5-0.224-0.5-0.5s0.224-0.5,0.5-0.5h2c0.276,0,0.5,0.224,0.5,0.5S423.322,239.025,423.046,239.025z M419.046,239.025
					h-2c-0.276,0-0.5-0.224-0.5-0.5s0.224-0.5,0.5-0.5h2c0.276,0,0.5,0.224,0.5,0.5S419.322,239.025,419.046,239.025z
					 M415.046,239.025h-2c-0.276,0-0.5-0.224-0.5-0.5s0.224-0.5,0.5-0.5h2c0.276,0,0.5,0.224,0.5,0.5
					S415.322,239.025,415.046,239.025z M411.046,239.025h-2c-0.276,0-0.5-0.224-0.5-0.5s0.224-0.5,0.5-0.5h2
					c0.276,0,0.5,0.224,0.5,0.5S411.322,239.025,411.046,239.025z M407.046,239.025h-2c-0.276,0-0.5-0.224-0.5-0.5
					s0.224-0.5,0.5-0.5h2c0.276,0,0.5,0.224,0.5,0.5S407.322,239.025,407.046,239.025z M403.046,239.025h-2
					c-0.276,0-0.5-0.224-0.5-0.5s0.224-0.5,0.5-0.5h2c0.276,0,0.5,0.224,0.5,0.5S403.322,239.025,403.046,239.025z M399.046,239.025
					h-2c-0.276,0-0.5-0.224-0.5-0.5s0.224-0.5,0.5-0.5h2c0.276,0,0.5,0.224,0.5,0.5S399.322,239.025,399.046,239.025z
					 M395.046,239.025h-2c-0.276,0-0.5-0.224-0.5-0.5s0.224-0.5,0.5-0.5h2c0.276,0,0.5,0.224,0.5,0.5
					S395.322,239.025,395.046,239.025z M391.046,239.025h-2c-0.276,0-0.5-0.224-0.5-0.5s0.224-0.5,0.5-0.5h2
					c0.276,0,0.5,0.224,0.5,0.5S391.322,239.025,391.046,239.025z M387.046,239.025h-2c-0.276,0-0.5-0.224-0.5-0.5
					s0.224-0.5,0.5-0.5h2c0.276,0,0.5,0.224,0.5,0.5S387.322,239.025,387.046,239.025z M383.046,239.025h-2
					c-0.276,0-0.5-0.224-0.5-0.5s0.224-0.5,0.5-0.5h2c0.276,0,0.5,0.224,0.5,0.5S383.322,239.025,383.046,239.025z M379.046,239.025
					h-2c-0.276,0-0.5-0.224-0.5-0.5s0.224-0.5,0.5-0.5h2c0.276,0,0.5,0.224,0.5,0.5S379.322,239.025,379.046,239.025z
					 M375.046,239.025h-2c-0.276,0-0.5-0.224-0.5-0.5s0.224-0.5,0.5-0.5h2c0.276,0,0.5,0.224,0.5,0.5
					S375.322,239.025,375.046,239.025z M371.046,239.025h-2c-0.276,0-0.5-0.224-0.5-0.5s0.224-0.5,0.5-0.5h2
					c0.276,0,0.5,0.224,0.5,0.5S371.322,239.025,371.046,239.025z M367.046,239.025h-2c-0.276,0-0.5-0.224-0.5-0.5
					s0.224-0.5,0.5-0.5h2c0.276,0,0.5,0.224,0.5,0.5S367.322,239.025,367.046,239.025z M363.046,239.025h-2
					c-0.276,0-0.5-0.224-0.5-0.5s0.224-0.5,0.5-0.5h2c0.276,0,0.5,0.224,0.5,0.5S363.322,239.025,363.046,239.025z M359.046,239.025
					h-2c-0.276,0-0.5-0.224-0.5-0.5s0.224-0.5,0.5-0.5h2c0.276,0,0.5,0.224,0.5,0.5S359.322,239.025,359.046,239.025z
					 M355.046,239.025h-2c-0.276,0-0.5-0.224-0.5-0.5s0.224-0.5,0.5-0.5h2c0.276,0,0.5,0.224,0.5,0.5
					S355.322,239.025,355.046,239.025z M351.046,239.025h-2c-0.276,0-0.5-0.224-0.5-0.5s0.224-0.5,0.5-0.5h2
					c0.276,0,0.5,0.224,0.5,0.5S351.322,239.025,351.046,239.025z M347.046,239.025h-2c-0.276,0-0.5-0.224-0.5-0.5
					s0.224-0.5,0.5-0.5h2c0.276,0,0.5,0.224,0.5,0.5S347.322,239.025,347.046,239.025z M343.046,239.025h-2
					c-0.276,0-0.5-0.224-0.5-0.5s0.224-0.5,0.5-0.5h2c0.276,0,0.5,0.224,0.5,0.5S343.322,239.025,343.046,239.025z M339.046,239.025
					h-2c-0.276,0-0.5-0.224-0.5-0.5s0.224-0.5,0.5-0.5h2c0.276,0,0.5,0.224,0.5,0.5S339.322,239.025,339.046,239.025z
					 M335.046,239.025h-2c-0.276,0-0.5-0.224-0.5-0.5s0.224-0.5,0.5-0.5h2c0.276,0,0.5,0.224,0.5,0.5
					S335.322,239.025,335.046,239.025z M331.046,239.025h-2c-0.276,0-0.5-0.224-0.5-0.5s0.224-0.5,0.5-0.5h2
					c0.276,0,0.5,0.224,0.5,0.5S331.322,239.025,331.046,239.025z M327.046,239.025h-2c-0.276,0-0.5-0.224-0.5-0.5
					s0.224-0.5,0.5-0.5h2c0.276,0,0.5,0.224,0.5,0.5S327.322,239.025,327.046,239.025z M323.046,239.025h-2
					c-0.276,0-0.5-0.224-0.5-0.5s0.224-0.5,0.5-0.5h2c0.276,0,0.5,0.224,0.5,0.5S323.322,239.025,323.046,239.025z M319.046,239.025
					h-2c-0.276,0-0.5-0.224-0.5-0.5s0.224-0.5,0.5-0.5h2c0.276,0,0.5,0.224,0.5,0.5S319.322,239.025,319.046,239.025z
					 M315.046,239.025h-2c-0.276,0-0.5-0.224-0.5-0.5s0.224-0.5,0.5-0.5h2c0.276,0,0.5,0.224,0.5,0.5
					S315.322,239.025,315.046,239.025z M311.046,239.025h-2c-0.276,0-0.5-0.224-0.5-0.5s0.224-0.5,0.5-0.5h2
					c0.276,0,0.5,0.224,0.5,0.5S311.322,239.025,311.046,239.025z M307.046,239.025h-2c-0.276,0-0.5-0.224-0.5-0.5
					s0.224-0.5,0.5-0.5h2c0.276,0,0.5,0.224,0.5,0.5S307.322,239.025,307.046,239.025z M303.046,239.025h-2
					c-0.276,0-0.5-0.224-0.5-0.5s0.224-0.5,0.5-0.5h2c0.276,0,0.5,0.224,0.5,0.5S303.322,239.025,303.046,239.025z M299.046,239.025
					h-2c-0.276,0-0.5-0.224-0.5-0.5s0.224-0.5,0.5-0.5h2c0.276,0,0.5,0.224,0.5,0.5S299.322,239.025,299.046,239.025z
					 M295.046,239.025h-2c-0.276,0-0.5-0.224-0.5-0.5s0.224-0.5,0.5-0.5h2c0.276,0,0.5,0.224,0.5,0.5
					S295.322,239.025,295.046,239.025z M291.046,239.025h-2c-0.276,0-0.5-0.224-0.5-0.5s0.224-0.5,0.5-0.5h2
					c0.276,0,0.5,0.224,0.5,0.5S291.322,239.025,291.046,239.025z M287.046,239.025h-2c-0.276,0-0.5-0.224-0.5-0.5
					s0.224-0.5,0.5-0.5h2c0.276,0,0.5,0.224,0.5,0.5S287.322,239.025,287.046,239.025z M283.046,239.025h-2
					c-0.276,0-0.5-0.224-0.5-0.5s0.224-0.5,0.5-0.5h2c0.276,0,0.5,0.224,0.5,0.5S283.322,239.025,283.046,239.025z M279.046,239.025
					h-2c-0.276,0-0.5-0.224-0.5-0.5s0.224-0.5,0.5-0.5h2c0.276,0,0.5,0.224,0.5,0.5S279.322,239.025,279.046,239.025z
					 M275.046,239.025h-2c-0.276,0-0.5-0.224-0.5-0.5s0.224-0.5,0.5-0.5h2c0.276,0,0.5,0.224,0.5,0.5
					S275.322,239.025,275.046,239.025z M271.046,239.025h-2c-0.276,0-0.5-0.224-0.5-0.5s0.224-0.5,0.5-0.5h2
					c0.276,0,0.5,0.224,0.5,0.5S271.322,239.025,271.046,239.025z M267.046,239.025h-2c-0.276,0-0.5-0.224-0.5-0.5
					s0.224-0.5,0.5-0.5h2c0.276,0,0.5,0.224,0.5,0.5S267.322,239.025,267.046,239.025z M263.046,239.025h-2
					c-0.276,0-0.5-0.224-0.5-0.5s0.224-0.5,0.5-0.5h2c0.276,0,0.5,0.224,0.5,0.5S263.322,239.025,263.046,239.025z M259.046,239.025
					h-2c-0.276,0-0.5-0.224-0.5-0.5s0.224-0.5,0.5-0.5h2c0.276,0,0.5,0.224,0.5,0.5S259.322,239.025,259.046,239.025z
					 M255.046,239.025h-2c-0.276,0-0.5-0.224-0.5-0.5s0.224-0.5,0.5-0.5h2c0.276,0,0.5,0.224,0.5,0.5
					S255.322,239.025,255.046,239.025z M251.046,239.025h-2c-0.276,0-0.5-0.224-0.5-0.5s0.224-0.5,0.5-0.5h2
					c0.276,0,0.5,0.224,0.5,0.5S251.322,239.025,251.046,239.025z M247.046,239.025h-2c-0.276,0-0.5-0.224-0.5-0.5
					s0.224-0.5,0.5-0.5h2c0.276,0,0.5,0.224,0.5,0.5S247.322,239.025,247.046,239.025z M243.046,239.025h-2
					c-0.276,0-0.5-0.224-0.5-0.5s0.224-0.5,0.5-0.5h2c0.276,0,0.5,0.224,0.5,0.5S243.322,239.025,243.046,239.025z M239.046,239.025
					h-2c-0.276,0-0.5-0.224-0.5-0.5s0.224-0.5,0.5-0.5h2c0.276,0,0.5,0.224,0.5,0.5S239.322,239.025,239.046,239.025z
					 M235.046,239.025h-2c-0.276,0-0.5-0.224-0.5-0.5s0.224-0.5,0.5-0.5h2c0.276,0,0.5,0.224,0.5,0.5
					S235.322,239.025,235.046,239.025z M231.046,239.025h-2c-0.276,0-0.5-0.224-0.5-0.5s0.224-0.5,0.5-0.5h2
					c0.276,0,0.5,0.224,0.5,0.5S231.322,239.025,231.046,239.025z M227.046,239.025h-2c-0.276,0-0.5-0.224-0.5-0.5
					s0.224-0.5,0.5-0.5h2c0.276,0,0.5,0.224,0.5,0.5S227.322,239.025,227.046,239.025z M223.046,239.025h-2
					c-0.276,0-0.5-0.224-0.5-0.5s0.224-0.5,0.5-0.5h2c0.276,0,0.5,0.224,0.5,0.5S223.322,239.025,223.046,239.025z M219.046,239.025
					h-2c-0.276,0-0.5-0.224-0.5-0.5s0.224-0.5,0.5-0.5h2c0.276,0,0.5,0.224,0.5,0.5S219.322,239.025,219.046,239.025z
					 M215.046,239.025h-2c-0.276,0-0.5-0.224-0.5-0.5s0.224-0.5,0.5-0.5h2c0.276,0,0.5,0.224,0.5,0.5
					S215.322,239.025,215.046,239.025z M211.046,239.025h-2c-0.276,0-0.5-0.224-0.5-0.5s0.224-0.5,0.5-0.5h2
					c0.276,0,0.5,0.224,0.5,0.5S211.322,239.025,211.046,239.025z M207.046,239.025h-2c-0.276,0-0.5-0.224-0.5-0.5
					s0.224-0.5,0.5-0.5h2c0.276,0,0.5,0.224,0.5,0.5S207.322,239.025,207.046,239.025z M203.046,239.025h-2
					c-0.276,0-0.5-0.224-0.5-0.5s0.224-0.5,0.5-0.5h2c0.276,0,0.5,0.224,0.5,0.5S203.322,239.025,203.046,239.025z M199.046,239.025
					h-2c-0.276,0-0.5-0.224-0.5-0.5s0.224-0.5,0.5-0.5h2c0.276,0,0.5,0.224,0.5,0.5S199.322,239.025,199.046,239.025z
					 M195.046,239.025h-2c-0.276,0-0.5-0.224-0.5-0.5s0.224-0.5,0.5-0.5h2c0.276,0,0.5,0.224,0.5,0.5
					S195.322,239.025,195.046,239.025z M191.046,239.025h-2c-0.276,0-0.5-0.224-0.5-0.5s0.224-0.5,0.5-0.5h2
					c0.276,0,0.5,0.224,0.5,0.5S191.322,239.025,191.046,239.025z M187.046,239.025h-2c-0.276,0-0.5-0.224-0.5-0.5
					s0.224-0.5,0.5-0.5h2c0.276,0,0.5,0.224,0.5,0.5S187.322,239.025,187.046,239.025z M183.046,239.025h-2
					c-0.276,0-0.5-0.224-0.5-0.5s0.224-0.5,0.5-0.5h2c0.276,0,0.5,0.224,0.5,0.5S183.322,239.025,183.046,239.025z M179.046,239.025
					h-2c-0.276,0-0.5-0.224-0.5-0.5s0.224-0.5,0.5-0.5h2c0.276,0,0.5,0.224,0.5,0.5S179.322,239.025,179.046,239.025z
					 M175.046,239.025h-2c-0.276,0-0.5-0.224-0.5-0.5s0.224-0.5,0.5-0.5h2c0.276,0,0.5,0.224,0.5,0.5
					S175.322,239.025,175.046,239.025z M171.046,239.025h-2c-0.276,0-0.5-0.224-0.5-0.5s0.224-0.5,0.5-0.5h2
					c0.276,0,0.5,0.224,0.5,0.5S171.322,239.025,171.046,239.025z M167.046,239.025h-2c-0.276,0-0.5-0.224-0.5-0.5
					s0.224-0.5,0.5-0.5h2c0.276,0,0.5,0.224,0.5,0.5S167.322,239.025,167.046,239.025z M163.046,239.025h-2
					c-0.276,0-0.5-0.224-0.5-0.5s0.224-0.5,0.5-0.5h2c0.276,0,0.5,0.224,0.5,0.5S163.322,239.025,163.046,239.025z M159.046,239.025
					h-2c-0.276,0-0.5-0.224-0.5-0.5s0.224-0.5,0.5-0.5h2c0.276,0,0.5,0.224,0.5,0.5S159.322,239.025,159.046,239.025z
					 M155.046,239.025h-2c-0.276,0-0.5-0.224-0.5-0.5s0.224-0.5,0.5-0.5h2c0.276,0,0.5,0.224,0.5,0.5
					S155.322,239.025,155.046,239.025z M151.046,239.025h-2c-0.276,0-0.5-0.224-0.5-0.5s0.224-0.5,0.5-0.5h2
					c0.276,0,0.5,0.224,0.5,0.5S151.322,239.025,151.046,239.025z M147.046,239.025h-2c-0.276,0-0.5-0.224-0.5-0.5
					s0.224-0.5,0.5-0.5h2c0.276,0,0.5,0.224,0.5,0.5S147.322,239.025,147.046,239.025z M143.046,239.025h-2
					c-0.276,0-0.5-0.224-0.5-0.5s0.224-0.5,0.5-0.5h2c0.276,0,0.5,0.224,0.5,0.5S143.322,239.025,143.046,239.025z M139.046,239.025
					h-2c-0.276,0-0.5-0.224-0.5-0.5s0.224-0.5,0.5-0.5h2c0.276,0,0.5,0.224,0.5,0.5S139.322,239.025,139.046,239.025z
					 M135.046,239.025h-2c-0.276,0-0.5-0.224-0.5-0.5s0.224-0.5,0.5-0.5h2c0.276,0,0.5,0.224,0.5,0.5
					S135.322,239.025,135.046,239.025z M131.046,239.025h-2c-0.276,0-0.5-0.224-0.5-0.5s0.224-0.5,0.5-0.5h2
					c0.276,0,0.5,0.224,0.5,0.5S131.322,239.025,131.046,239.025z M127.047,239.009c-0.005,0-0.009,0-0.014,0
					c-0.678-0.019-1.352-0.053-2.021-0.102c-0.275-0.021-0.481-0.261-0.462-0.536c0.021-0.275,0.27-0.483,0.536-0.462
					c0.653,0.049,1.312,0.081,1.974,0.1c0.276,0.008,0.494,0.238,0.486,0.514C127.539,238.795,127.316,239.009,127.047,239.009z
					 M477.045,239.003c-0.269,0-0.491-0.214-0.5-0.484c-0.009-0.275,0.208-0.507,0.484-0.516c0.662-0.021,1.32-0.058,1.974-0.108
					c0.272-0.037,0.516,0.183,0.537,0.459c0.021,0.275-0.184,0.516-0.459,0.537c-0.669,0.053-1.343,0.09-2.021,0.112
					C477.056,239.003,477.05,239.003,477.045,239.003z M123.061,238.716c-0.021,0-0.04-0.001-0.061-0.004
					c-0.672-0.081-1.34-0.177-2.003-0.288c-0.272-0.046-0.456-0.304-0.41-0.576c0.046-0.273,0.315-0.455,0.576-0.41
					c0.647,0.109,1.3,0.203,1.956,0.282c0.274,0.033,0.47,0.282,0.437,0.556C123.525,238.53,123.31,238.716,123.061,238.716z
					 M481.029,238.69c-0.248,0-0.464-0.186-0.495-0.438c-0.034-0.274,0.161-0.523,0.435-0.558c0.656-0.081,1.308-0.179,1.954-0.291
					c0.263-0.046,0.53,0.136,0.578,0.408c0.047,0.271-0.136,0.53-0.408,0.577c-0.662,0.115-1.329,0.215-2.001,0.298
					C481.07,238.689,481.05,238.69,481.029,238.69z M119.118,238.056c-0.034,0-0.07-0.004-0.105-0.012
					c-0.661-0.143-1.317-0.301-1.968-0.474c-0.267-0.071-0.425-0.345-0.354-0.612c0.071-0.267,0.337-0.429,0.612-0.354
					c0.635,0.169,1.275,0.323,1.921,0.464c0.271,0.059,0.441,0.324,0.383,0.594C119.556,237.896,119.349,238.056,119.118,238.056z
					 M484.969,238.011c-0.229,0-0.437-0.158-0.488-0.392c-0.06-0.27,0.11-0.536,0.38-0.597c0.645-0.144,1.285-0.301,1.919-0.473
					c0.27-0.071,0.541,0.086,0.613,0.352c0.072,0.267-0.085,0.541-0.352,0.613c-0.649,0.176-1.304,0.337-1.964,0.484
					C485.041,238.007,485.004,238.011,484.969,238.011z M115.255,237.028c-0.05,0-0.101-0.008-0.15-0.023
					c-0.647-0.204-1.286-0.424-1.92-0.659c-0.259-0.096-0.391-0.384-0.295-0.643c0.097-0.26,0.383-0.391,0.643-0.295
					c0.618,0.229,1.242,0.443,1.874,0.644c0.263,0.083,0.408,0.364,0.325,0.627C115.664,236.892,115.467,237.028,115.255,237.028z
					 M488.827,236.964c-0.211,0-0.407-0.135-0.476-0.346c-0.085-0.263,0.059-0.545,0.321-0.63c0.629-0.204,1.251-0.421,1.866-0.651
					c0.256-0.099,0.547,0.034,0.644,0.292c0.098,0.259-0.033,0.547-0.292,0.644c-0.629,0.236-1.267,0.459-1.909,0.667
					C488.93,236.956,488.878,236.964,488.827,236.964z M111.496,235.639c-0.065,0-0.131-0.013-0.195-0.039
					c-0.623-0.265-1.239-0.543-1.847-0.836c-0.249-0.119-0.354-0.418-0.233-0.667c0.119-0.25,0.418-0.354,0.667-0.233
					c0.594,0.285,1.194,0.558,1.804,0.814c0.254,0.108,0.373,0.401,0.266,0.656C111.876,235.525,111.69,235.639,111.496,235.639z
					 M492.565,235.561c-0.193,0-0.378-0.113-0.459-0.303c-0.109-0.254,0.008-0.548,0.262-0.656c0.605-0.261,1.203-0.535,1.793-0.821
					c0.25-0.12,0.549-0.017,0.668,0.23c0.121,0.248,0.018,0.548-0.23,0.668c-0.604,0.294-1.215,0.574-1.836,0.841
					C492.698,235.549,492.632,235.561,492.565,235.561z M107.887,233.904c-0.081,0-0.162-0.02-0.237-0.06
					c-0.595-0.321-1.182-0.656-1.76-1.004c-0.236-0.143-0.312-0.45-0.171-0.687c0.143-0.237,0.45-0.31,0.687-0.171
					c0.564,0.34,1.138,0.667,1.719,0.98c0.243,0.132,0.334,0.435,0.203,0.678C108.236,233.809,108.064,233.904,107.887,233.904z
					 M496.153,233.816c-0.177,0-0.348-0.094-0.438-0.26c-0.133-0.242-0.044-0.546,0.198-0.679c0.578-0.316,1.149-0.646,1.711-0.986
					c0.236-0.142,0.544-0.067,0.688,0.168c0.143,0.236,0.067,0.544-0.169,0.688c-0.574,0.349-1.157,0.684-1.749,1.008
					C496.317,233.797,496.235,233.816,496.153,233.816z M104.458,231.841c-0.096,0-0.192-0.027-0.277-0.084
					c-0.562-0.374-1.114-0.762-1.658-1.163c-0.223-0.164-0.27-0.478-0.105-0.699c0.164-0.223,0.479-0.267,0.699-0.105
					c0.53,0.392,1.07,0.77,1.619,1.136c0.229,0.153,0.292,0.463,0.139,0.693C104.777,231.763,104.619,231.841,104.458,231.841z
					 M499.566,231.744c-0.16,0-0.317-0.077-0.414-0.221c-0.155-0.229-0.095-0.539,0.135-0.693c0.546-0.369,1.084-0.75,1.612-1.142
					c0.223-0.163,0.535-0.119,0.699,0.104c0.165,0.222,0.118,0.535-0.104,0.699c-0.54,0.401-1.09,0.79-1.649,1.167
					C499.761,231.716,499.663,231.744,499.566,231.744z M101.236,229.468c-0.11,0-0.222-0.036-0.314-0.111
					c-0.524-0.425-1.038-0.861-1.542-1.311c-0.207-0.184-0.225-0.499-0.041-0.705c0.183-0.208,0.499-0.226,0.705-0.041
					c0.492,0.438,0.994,0.864,1.507,1.279c0.215,0.174,0.248,0.488,0.074,0.703C101.526,229.405,101.382,229.468,101.236,229.468z
					 M502.771,229.362c-0.145,0-0.288-0.062-0.388-0.184c-0.174-0.214-0.143-0.529,0.071-0.704c0.511-0.417,1.011-0.845,1.501-1.285
					c0.204-0.186,0.521-0.169,0.706,0.038c0.185,0.205,0.167,0.521-0.038,0.706c-0.502,0.45-1.014,0.889-1.536,1.316
					C502.995,229.325,502.883,229.362,502.771,229.362z M98.251,226.809c-0.126,0-0.252-0.048-0.35-0.143
					c-0.482-0.471-0.953-0.953-1.414-1.447c-0.188-0.202-0.177-0.519,0.025-0.707c0.203-0.187,0.518-0.176,0.707,0.025
					c0.449,0.482,0.91,0.953,1.381,1.414c0.197,0.193,0.201,0.51,0.008,0.707C98.511,226.758,98.381,226.809,98.251,226.809z
					 M505.745,226.693c-0.129,0-0.258-0.05-0.356-0.149c-0.193-0.196-0.191-0.513,0.006-0.707c0.47-0.463,0.929-0.937,1.376-1.42
					c0.188-0.203,0.505-0.213,0.707-0.027c0.202,0.188,0.215,0.504,0.027,0.707c-0.459,0.495-0.928,0.979-1.409,1.453
					C505.999,226.645,505.872,226.693,505.745,226.693z M95.525,223.886c-0.142,0-0.282-0.06-0.381-0.177
					c-0.437-0.514-0.86-1.037-1.272-1.57c-0.169-0.219-0.129-0.532,0.09-0.701c0.216-0.168,0.53-0.13,0.701,0.09
					c0.402,0.521,0.818,1.033,1.243,1.535c0.179,0.21,0.153,0.526-0.058,0.704C95.755,223.847,95.64,223.886,95.525,223.886z
					 M508.461,223.757c-0.114,0-0.229-0.038-0.322-0.117c-0.211-0.178-0.238-0.493-0.061-0.705c0.425-0.505,0.839-1.019,1.24-1.542
					c0.168-0.219,0.483-0.261,0.701-0.092c0.219,0.168,0.26,0.481,0.092,0.701c-0.411,0.535-0.833,1.061-1.268,1.577
					C508.745,223.697,508.604,223.757,508.461,223.757z M93.083,220.724c-0.157,0-0.312-0.074-0.409-0.213
					c-0.387-0.552-0.76-1.111-1.122-1.683c-0.147-0.233-0.078-0.542,0.155-0.69c0.236-0.146,0.543-0.077,0.69,0.155
					c0.353,0.558,0.718,1.105,1.095,1.644c0.159,0.227,0.104,0.538-0.122,0.696C93.282,220.695,93.183,220.724,93.083,220.724z
					 M510.895,220.582c-0.099,0-0.198-0.029-0.285-0.089c-0.227-0.157-0.283-0.469-0.126-0.696c0.376-0.541,0.74-1.092,1.092-1.651
					c0.147-0.233,0.457-0.304,0.689-0.156c0.233,0.146,0.304,0.455,0.156,0.689c-0.359,0.571-0.731,1.134-1.115,1.688
					C511.208,220.507,511.053,220.582,510.895,220.582z M90.946,217.352c-0.173,0-0.342-0.091-0.435-0.252
					c-0.333-0.584-0.652-1.177-0.959-1.777c-0.126-0.246-0.028-0.548,0.218-0.673c0.246-0.124,0.548-0.028,0.673,0.218
					c0.299,0.587,0.612,1.166,0.938,1.736c0.137,0.24,0.053,0.546-0.187,0.683C91.116,217.331,91.03,217.352,90.946,217.352z
					 M513.021,217.192c-0.084,0-0.169-0.021-0.247-0.065c-0.24-0.136-0.324-0.441-0.188-0.682c0.325-0.572,0.636-1.154,0.933-1.743
					c0.124-0.248,0.428-0.345,0.671-0.222c0.247,0.124,0.346,0.425,0.222,0.671c-0.305,0.604-0.623,1.2-0.956,1.788
					C513.364,217.101,513.195,217.192,513.021,217.192z M89.133,213.797c-0.19,0-0.372-0.109-0.456-0.294
					c-0.276-0.611-0.539-1.231-0.788-1.858c-0.102-0.257,0.023-0.548,0.28-0.649c0.257-0.104,0.547,0.023,0.649,0.28
					c0.243,0.613,0.5,1.218,0.771,1.815c0.113,0.252,0.002,0.548-0.25,0.661C89.272,213.782,89.202,213.797,89.133,213.797z
					 M514.825,213.619c-0.068,0-0.138-0.014-0.204-0.044c-0.252-0.112-0.365-0.408-0.252-0.66c0.269-0.602,0.523-1.21,0.765-1.826
					c0.101-0.258,0.389-0.383,0.648-0.283c0.257,0.101,0.384,0.392,0.283,0.648c-0.247,0.63-0.508,1.254-0.784,1.869
					C515.198,213.508,515.016,213.619,514.825,213.619z M87.658,210.086c-0.208,0-0.401-0.13-0.473-0.338
					c-0.219-0.636-0.423-1.279-0.612-1.927c-0.078-0.266,0.074-0.543,0.339-0.62c0.268-0.079,0.543,0.074,0.62,0.339
					c0.186,0.634,0.386,1.262,0.599,1.884c0.09,0.261-0.049,0.546-0.311,0.635C87.767,210.077,87.712,210.086,87.658,210.086z
					 M516.286,209.888c-0.053,0-0.107-0.009-0.16-0.026c-0.262-0.089-0.402-0.372-0.313-0.634c0.21-0.622,0.407-1.252,0.59-1.887
					c0.076-0.267,0.354-0.423,0.618-0.343c0.266,0.076,0.419,0.354,0.343,0.618c-0.187,0.65-0.388,1.294-0.604,1.932
					C516.689,209.757,516.495,209.888,516.286,209.888z M86.538,206.25c-0.226,0-0.431-0.153-0.486-0.383
					c-0.158-0.652-0.301-1.312-0.429-1.978c-0.052-0.271,0.126-0.533,0.397-0.585c0.267-0.05,0.532,0.125,0.585,0.397
					c0.124,0.649,0.265,1.293,0.419,1.931c0.064,0.268-0.101,0.538-0.369,0.604C86.616,206.245,86.576,206.25,86.538,206.25z
					 M517.388,206.046c-0.038,0-0.076-0.004-0.115-0.014c-0.269-0.063-0.435-0.333-0.371-0.602c0.151-0.639,0.288-1.283,0.41-1.933
					c0.051-0.272,0.315-0.452,0.583-0.399c0.271,0.051,0.45,0.312,0.399,0.583c-0.124,0.665-0.265,1.325-0.42,1.979
					C517.819,205.891,517.614,206.046,517.388,206.046z M85.781,202.324c-0.244,0-0.458-0.18-0.494-0.429
					c-0.096-0.665-0.177-1.334-0.243-2.008c-0.026-0.274,0.175-0.52,0.449-0.547c0.281-0.01,0.52,0.175,0.547,0.449
					c0.064,0.658,0.144,1.313,0.237,1.963c0.039,0.273-0.15,0.526-0.424,0.566C85.829,202.322,85.806,202.324,85.781,202.324z
					 M518.125,202.115c-0.023,0-0.047-0.002-0.07-0.005c-0.273-0.038-0.464-0.291-0.426-0.564c0.091-0.649,0.167-1.304,0.228-1.962
					c0.025-0.275,0.277-0.468,0.544-0.452c0.275,0.025,0.478,0.27,0.452,0.544c-0.062,0.674-0.141,1.344-0.233,2.009
					C518.584,201.934,518.37,202.115,518.125,202.115z M85.396,198.345c-0.265,0-0.486-0.208-0.499-0.475
					c-0.034-0.67-0.053-1.343-0.057-2.021c-0.002-0.276,0.221-0.501,0.497-0.503c0.001,0,0.002,0,0.003,0
					c0.274,0,0.498,0.222,0.5,0.497c0.004,0.663,0.022,1.322,0.055,1.977c0.015,0.276-0.198,0.511-0.474,0.524
					C85.412,198.345,85.403,198.345,85.396,198.345z M518.492,198.136c-0.007,0-0.015,0-0.022-0.001
					c-0.276-0.012-0.489-0.246-0.477-0.521c0.029-0.656,0.045-1.314,0.045-1.977c0-0.276,0.224-0.5,0.5-0.5s0.5,0.224,0.5,0.5
					c0,0.678-0.016,1.352-0.047,2.021C518.979,197.927,518.758,198.136,518.492,198.136z M85.377,194.348c-0.007,0-0.014,0-0.021,0
					c-0.275-0.012-0.49-0.244-0.479-0.521c0.028-0.677,0.071-1.35,0.13-2.018c0.024-0.275,0.282-0.474,0.541-0.455
					c0.275,0.023,0.479,0.267,0.455,0.541c-0.057,0.654-0.1,1.312-0.126,1.973C85.865,194.137,85.645,194.348,85.377,194.348z
					 M85.727,190.366c-0.022,0-0.045-0.001-0.067-0.005c-0.273-0.036-0.466-0.288-0.429-0.562c0.09-0.671,0.195-1.337,0.316-1.999
					c0.051-0.271,0.307-0.445,0.583-0.401c0.271,0.051,0.451,0.311,0.401,0.583c-0.119,0.645-0.223,1.295-0.311,1.95
					C86.188,190.183,85.973,190.366,85.727,190.366z M86.442,186.434c-0.037,0-0.074-0.004-0.112-0.013
					c-0.27-0.062-0.438-0.331-0.375-0.6c0.152-0.659,0.319-1.313,0.503-1.962c0.075-0.266,0.349-0.421,0.618-0.345
					c0.266,0.076,0.42,0.353,0.345,0.618c-0.18,0.633-0.343,1.27-0.491,1.913C86.876,186.278,86.67,186.434,86.442,186.434z
					 M87.525,182.586c-0.053,0-0.105-0.008-0.158-0.025c-0.262-0.088-0.403-0.371-0.316-0.633c0.215-0.644,0.443-1.279,0.686-1.908
					c0.1-0.259,0.391-0.387,0.646-0.287c0.258,0.1,0.386,0.39,0.287,0.646c-0.238,0.615-0.461,1.237-0.67,1.865
					C87.93,182.453,87.734,182.586,87.525,182.586z M88.967,178.848c-0.067,0-0.136-0.014-0.201-0.042
					c-0.253-0.111-0.368-0.406-0.257-0.659c0.273-0.62,0.561-1.231,0.862-1.836c0.123-0.246,0.423-0.348,0.671-0.224
					c0.247,0.123,0.347,0.424,0.224,0.671c-0.294,0.589-0.575,1.187-0.841,1.791C89.342,178.737,89.159,178.848,88.967,178.848z
					 M90.753,175.264c-0.083,0-0.166-0.021-0.243-0.063c-0.241-0.135-0.328-0.438-0.193-0.68c0.329-0.591,0.672-1.173,1.028-1.746
					c0.146-0.233,0.454-0.304,0.689-0.16c0.234,0.146,0.306,0.454,0.16,0.689c-0.349,0.56-0.684,1.128-1.005,1.703
					C91.098,175.172,90.928,175.264,90.753,175.264z M92.864,171.865c-0.098,0-0.196-0.028-0.283-0.088
					c-0.228-0.156-0.285-0.468-0.129-0.695c0.383-0.557,0.777-1.104,1.186-1.642c0.168-0.221,0.482-0.263,0.7-0.097
					c0.221,0.167,0.264,0.48,0.097,0.7c-0.398,0.526-0.785,1.062-1.158,1.604C93.18,171.789,93.022,171.865,92.864,171.865z
					 M95.281,168.678c-0.113,0-0.228-0.038-0.32-0.116c-0.212-0.178-0.24-0.492-0.063-0.704c0.433-0.518,0.877-1.025,1.332-1.523
					c0.187-0.204,0.502-0.218,0.707-0.031c0.203,0.187,0.218,0.503,0.031,0.707c-0.445,0.486-0.88,0.982-1.303,1.488
					C95.566,168.617,95.424,168.678,95.281,168.678z M97.983,165.729c-0.129,0-0.257-0.049-0.354-0.147
					c-0.194-0.196-0.193-0.513,0.002-0.707c0.479-0.476,0.967-0.939,1.466-1.393c0.204-0.185,0.521-0.171,0.706,0.034
					c0.186,0.204,0.171,0.521-0.034,0.706c-0.487,0.443-0.965,0.897-1.433,1.361C98.238,165.68,98.111,165.729,97.983,165.729z
					 M100.943,163.046c-0.144,0-0.287-0.062-0.386-0.182c-0.176-0.213-0.146-0.528,0.067-0.704c0.52-0.429,1.049-0.846,1.589-1.25
					c0.22-0.167,0.534-0.122,0.699,0.1c0.166,0.221,0.122,0.534-0.1,0.699c-0.526,0.396-1.044,0.804-1.552,1.223
					C101.168,163.008,101.056,163.046,100.943,163.046z M104.139,160.648c-0.159,0-0.316-0.076-0.413-0.219
					c-0.155-0.229-0.097-0.539,0.132-0.694c0.556-0.379,1.122-0.744,1.697-1.098c0.233-0.146,0.542-0.07,0.688,0.164
					c0.145,0.235,0.071,0.543-0.164,0.688c-0.562,0.346-1.114,0.703-1.658,1.072C104.334,160.62,104.236,160.648,104.139,160.648z
					 M107.541,158.559c-0.176,0-0.347-0.093-0.438-0.259c-0.134-0.241-0.046-0.546,0.196-0.679c0.588-0.325,1.185-0.637,1.789-0.935
					c0.249-0.121,0.549-0.02,0.67,0.227c0.122,0.248,0.021,0.548-0.227,0.67c-0.591,0.292-1.174,0.596-1.75,0.913
					C107.706,158.54,107.623,158.559,107.541,158.559z M111.121,156.798c-0.192,0-0.377-0.112-0.458-0.301
					c-0.11-0.253,0.005-0.548,0.259-0.657c0.615-0.269,1.237-0.522,1.868-0.763c0.256-0.098,0.547,0.03,0.646,0.288
					c0.099,0.259-0.03,0.547-0.288,0.646c-0.617,0.236-1.226,0.484-1.827,0.746C111.256,156.784,111.188,156.798,111.121,156.798z
					 M114.853,155.376c-0.21,0-0.406-0.134-0.476-0.345c-0.086-0.262,0.058-0.545,0.32-0.631c0.639-0.209,1.284-0.403,1.936-0.584
					c0.271-0.074,0.541,0.082,0.615,0.348c0.074,0.267-0.082,0.542-0.348,0.615c-0.638,0.177-1.268,0.367-1.893,0.572
					C114.956,155.368,114.904,155.376,114.853,155.376z M118.705,154.31c-0.229,0-0.436-0.157-0.487-0.39
					c-0.062-0.27,0.107-0.537,0.377-0.598c0.654-0.148,1.315-0.282,1.982-0.401c0.271-0.044,0.531,0.132,0.58,0.404
					c0.049,0.271-0.132,0.531-0.404,0.58c-0.651,0.117-1.298,0.247-1.938,0.392C118.778,154.306,118.741,154.31,118.705,154.31z
					 M122.64,153.61c-0.247,0-0.462-0.184-0.495-0.436c-0.035-0.273,0.157-0.524,0.432-0.561c0.666-0.087,1.336-0.158,2.01-0.214
					c0.276-0.025,0.517,0.181,0.54,0.456s-0.182,0.518-0.456,0.54c-0.658,0.056-1.314,0.125-1.965,0.21
					C122.684,153.609,122.661,153.61,122.64,153.61z M126.624,153.278c-0.268,0-0.489-0.212-0.5-0.481
					c-0.01-0.276,0.206-0.508,0.481-0.519c0.539-0.02,1.078-0.022,1.623-0.028h0.395c0.276,0,0.5,0.224,0.5,0.5s-0.224,0.5-0.5,0.5
					h-0.396c-0.536-0.007-1.061,0.009-1.585,0.028C126.636,153.278,126.63,153.278,126.624,153.278z M475.65,153.25h-1.027
					c-0.276,0-0.5-0.224-0.5-0.5s0.224-0.5,0.5-0.5h1.027c0.276,0,0.5,0.224,0.5,0.5S475.927,153.25,475.65,153.25z M472.623,153.25
					h-2c-0.276,0-0.5-0.224-0.5-0.5s0.224-0.5,0.5-0.5h2c0.276,0,0.5,0.224,0.5,0.5S472.899,153.25,472.623,153.25z M468.623,153.25
					h-2c-0.276,0-0.5-0.224-0.5-0.5s0.224-0.5,0.5-0.5h2c0.276,0,0.5,0.224,0.5,0.5S468.899,153.25,468.623,153.25z M464.623,153.25
					h-2c-0.276,0-0.5-0.224-0.5-0.5s0.224-0.5,0.5-0.5h2c0.276,0,0.5,0.224,0.5,0.5S464.899,153.25,464.623,153.25z M460.623,153.25
					h-2c-0.276,0-0.5-0.224-0.5-0.5s0.224-0.5,0.5-0.5h2c0.276,0,0.5,0.224,0.5,0.5S460.899,153.25,460.623,153.25z M456.623,153.25
					h-2c-0.276,0-0.5-0.224-0.5-0.5s0.224-0.5,0.5-0.5h2c0.276,0,0.5,0.224,0.5,0.5S456.899,153.25,456.623,153.25z M452.623,153.25
					h-2c-0.276,0-0.5-0.224-0.5-0.5s0.224-0.5,0.5-0.5h2c0.276,0,0.5,0.224,0.5,0.5S452.899,153.25,452.623,153.25z M448.623,153.25
					h-2c-0.276,0-0.5-0.224-0.5-0.5s0.224-0.5,0.5-0.5h2c0.276,0,0.5,0.224,0.5,0.5S448.899,153.25,448.623,153.25z M444.623,153.25
					h-2c-0.276,0-0.5-0.224-0.5-0.5s0.224-0.5,0.5-0.5h2c0.276,0,0.5,0.224,0.5,0.5S444.899,153.25,444.623,153.25z M440.623,153.25
					h-2c-0.276,0-0.5-0.224-0.5-0.5s0.224-0.5,0.5-0.5h2c0.276,0,0.5,0.224,0.5,0.5S440.899,153.25,440.623,153.25z M436.623,153.25
					h-2c-0.276,0-0.5-0.224-0.5-0.5s0.224-0.5,0.5-0.5h2c0.276,0,0.5,0.224,0.5,0.5S436.899,153.25,436.623,153.25z M432.623,153.25
					h-2c-0.276,0-0.5-0.224-0.5-0.5s0.224-0.5,0.5-0.5h2c0.276,0,0.5,0.224,0.5,0.5S432.899,153.25,432.623,153.25z M428.623,153.25
					h-2c-0.276,0-0.5-0.224-0.5-0.5s0.224-0.5,0.5-0.5h2c0.276,0,0.5,0.224,0.5,0.5S428.899,153.25,428.623,153.25z M424.623,153.25
					h-2c-0.276,0-0.5-0.224-0.5-0.5s0.224-0.5,0.5-0.5h2c0.276,0,0.5,0.224,0.5,0.5S424.899,153.25,424.623,153.25z M420.623,153.25
					h-2c-0.276,0-0.5-0.224-0.5-0.5s0.224-0.5,0.5-0.5h2c0.276,0,0.5,0.224,0.5,0.5S420.899,153.25,420.623,153.25z M416.623,153.25
					h-2c-0.276,0-0.5-0.224-0.5-0.5s0.224-0.5,0.5-0.5h2c0.276,0,0.5,0.224,0.5,0.5S416.899,153.25,416.623,153.25z M412.623,153.25
					h-2c-0.276,0-0.5-0.224-0.5-0.5s0.224-0.5,0.5-0.5h2c0.276,0,0.5,0.224,0.5,0.5S412.899,153.25,412.623,153.25z M408.623,153.25
					h-2c-0.276,0-0.5-0.224-0.5-0.5s0.224-0.5,0.5-0.5h2c0.276,0,0.5,0.224,0.5,0.5S408.899,153.25,408.623,153.25z M404.623,153.25
					h-2c-0.276,0-0.5-0.224-0.5-0.5s0.224-0.5,0.5-0.5h2c0.276,0,0.5,0.224,0.5,0.5S404.899,153.25,404.623,153.25z M400.623,153.25
					h-2c-0.276,0-0.5-0.224-0.5-0.5s0.224-0.5,0.5-0.5h2c0.276,0,0.5,0.224,0.5,0.5S400.899,153.25,400.623,153.25z M396.623,153.25
					h-2c-0.276,0-0.5-0.224-0.5-0.5s0.224-0.5,0.5-0.5h2c0.276,0,0.5,0.224,0.5,0.5S396.899,153.25,396.623,153.25z M392.623,153.25
					h-2c-0.276,0-0.5-0.224-0.5-0.5s0.224-0.5,0.5-0.5h2c0.276,0,0.5,0.224,0.5,0.5S392.899,153.25,392.623,153.25z M388.623,153.25
					h-2c-0.276,0-0.5-0.224-0.5-0.5s0.224-0.5,0.5-0.5h2c0.276,0,0.5,0.224,0.5,0.5S388.899,153.25,388.623,153.25z M384.623,153.25
					h-2c-0.276,0-0.5-0.224-0.5-0.5s0.224-0.5,0.5-0.5h2c0.276,0,0.5,0.224,0.5,0.5S384.899,153.25,384.623,153.25z M380.623,153.25
					h-2c-0.276,0-0.5-0.224-0.5-0.5s0.224-0.5,0.5-0.5h2c0.276,0,0.5,0.224,0.5,0.5S380.899,153.25,380.623,153.25z M376.623,153.25
					h-2c-0.276,0-0.5-0.224-0.5-0.5s0.224-0.5,0.5-0.5h2c0.276,0,0.5,0.224,0.5,0.5S376.899,153.25,376.623,153.25z M372.623,153.25
					h-2c-0.276,0-0.5-0.224-0.5-0.5s0.224-0.5,0.5-0.5h2c0.276,0,0.5,0.224,0.5,0.5S372.899,153.25,372.623,153.25z M368.623,153.25
					h-2c-0.276,0-0.5-0.224-0.5-0.5s0.224-0.5,0.5-0.5h2c0.276,0,0.5,0.224,0.5,0.5S368.899,153.25,368.623,153.25z M364.623,153.25
					h-2c-0.276,0-0.5-0.224-0.5-0.5s0.224-0.5,0.5-0.5h2c0.276,0,0.5,0.224,0.5,0.5S364.899,153.25,364.623,153.25z M360.623,153.25
					h-2c-0.276,0-0.5-0.224-0.5-0.5s0.224-0.5,0.5-0.5h2c0.276,0,0.5,0.224,0.5,0.5S360.899,153.25,360.623,153.25z M356.623,153.25
					h-2c-0.276,0-0.5-0.224-0.5-0.5s0.224-0.5,0.5-0.5h2c0.276,0,0.5,0.224,0.5,0.5S356.899,153.25,356.623,153.25z M352.623,153.25
					h-2c-0.276,0-0.5-0.224-0.5-0.5s0.224-0.5,0.5-0.5h2c0.276,0,0.5,0.224,0.5,0.5S352.899,153.25,352.623,153.25z M348.623,153.25
					h-2c-0.276,0-0.5-0.224-0.5-0.5s0.224-0.5,0.5-0.5h2c0.276,0,0.5,0.224,0.5,0.5S348.899,153.25,348.623,153.25z M344.623,153.25
					h-2c-0.276,0-0.5-0.224-0.5-0.5s0.224-0.5,0.5-0.5h2c0.276,0,0.5,0.224,0.5,0.5S344.899,153.25,344.623,153.25z M340.623,153.25
					h-2c-0.276,0-0.5-0.224-0.5-0.5s0.224-0.5,0.5-0.5h2c0.276,0,0.5,0.224,0.5,0.5S340.899,153.25,340.623,153.25z M336.623,153.25
					h-2c-0.276,0-0.5-0.224-0.5-0.5s0.224-0.5,0.5-0.5h2c0.276,0,0.5,0.224,0.5,0.5S336.899,153.25,336.623,153.25z M332.623,153.25
					h-2c-0.276,0-0.5-0.224-0.5-0.5s0.224-0.5,0.5-0.5h2c0.276,0,0.5,0.224,0.5,0.5S332.899,153.25,332.623,153.25z M328.623,153.25
					h-2c-0.276,0-0.5-0.224-0.5-0.5s0.224-0.5,0.5-0.5h2c0.276,0,0.5,0.224,0.5,0.5S328.899,153.25,328.623,153.25z M324.623,153.25
					h-2c-0.276,0-0.5-0.224-0.5-0.5s0.224-0.5,0.5-0.5h2c0.276,0,0.5,0.224,0.5,0.5S324.899,153.25,324.623,153.25z M320.623,153.25
					h-2c-0.276,0-0.5-0.224-0.5-0.5s0.224-0.5,0.5-0.5h2c0.276,0,0.5,0.224,0.5,0.5S320.899,153.25,320.623,153.25z M316.623,153.25
					h-2c-0.276,0-0.5-0.224-0.5-0.5s0.224-0.5,0.5-0.5h2c0.276,0,0.5,0.224,0.5,0.5S316.899,153.25,316.623,153.25z M312.623,153.25
					h-2c-0.276,0-0.5-0.224-0.5-0.5s0.224-0.5,0.5-0.5h2c0.276,0,0.5,0.224,0.5,0.5S312.899,153.25,312.623,153.25z M308.623,153.25
					h-2c-0.276,0-0.5-0.224-0.5-0.5s0.224-0.5,0.5-0.5h2c0.276,0,0.5,0.224,0.5,0.5S308.899,153.25,308.623,153.25z M304.623,153.25
					h-2c-0.276,0-0.5-0.224-0.5-0.5s0.224-0.5,0.5-0.5h2c0.276,0,0.5,0.224,0.5,0.5S304.899,153.25,304.623,153.25z M300.623,153.25
					h-2c-0.276,0-0.5-0.224-0.5-0.5s0.224-0.5,0.5-0.5h2c0.276,0,0.5,0.224,0.5,0.5S300.899,153.25,300.623,153.25z M296.623,153.25
					h-2c-0.276,0-0.5-0.224-0.5-0.5s0.224-0.5,0.5-0.5h2c0.276,0,0.5,0.224,0.5,0.5S296.899,153.25,296.623,153.25z M292.623,153.25
					h-2c-0.276,0-0.5-0.224-0.5-0.5s0.224-0.5,0.5-0.5h2c0.276,0,0.5,0.224,0.5,0.5S292.899,153.25,292.623,153.25z M288.623,153.25
					h-2c-0.276,0-0.5-0.224-0.5-0.5s0.224-0.5,0.5-0.5h2c0.276,0,0.5,0.224,0.5,0.5S288.899,153.25,288.623,153.25z M284.623,153.25
					h-2c-0.276,0-0.5-0.224-0.5-0.5s0.224-0.5,0.5-0.5h2c0.276,0,0.5,0.224,0.5,0.5S284.899,153.25,284.623,153.25z M280.623,153.25
					h-2c-0.276,0-0.5-0.224-0.5-0.5s0.224-0.5,0.5-0.5h2c0.276,0,0.5,0.224,0.5,0.5S280.899,153.25,280.623,153.25z M276.623,153.25
					h-2c-0.276,0-0.5-0.224-0.5-0.5s0.224-0.5,0.5-0.5h2c0.276,0,0.5,0.224,0.5,0.5S276.899,153.25,276.623,153.25z M272.623,153.25
					h-2c-0.276,0-0.5-0.224-0.5-0.5s0.224-0.5,0.5-0.5h2c0.276,0,0.5,0.224,0.5,0.5S272.899,153.25,272.623,153.25z M268.623,153.25
					h-2c-0.276,0-0.5-0.224-0.5-0.5s0.224-0.5,0.5-0.5h2c0.276,0,0.5,0.224,0.5,0.5S268.899,153.25,268.623,153.25z M264.623,153.25
					h-2c-0.276,0-0.5-0.224-0.5-0.5s0.224-0.5,0.5-0.5h2c0.276,0,0.5,0.224,0.5,0.5S264.899,153.25,264.623,153.25z M260.623,153.25
					h-2c-0.276,0-0.5-0.224-0.5-0.5s0.224-0.5,0.5-0.5h2c0.276,0,0.5,0.224,0.5,0.5S260.899,153.25,260.623,153.25z M256.623,153.25
					h-2c-0.276,0-0.5-0.224-0.5-0.5s0.224-0.5,0.5-0.5h2c0.276,0,0.5,0.224,0.5,0.5S256.899,153.25,256.623,153.25z M252.623,153.25
					h-2c-0.276,0-0.5-0.224-0.5-0.5s0.224-0.5,0.5-0.5h2c0.276,0,0.5,0.224,0.5,0.5S252.899,153.25,252.623,153.25z M248.623,153.25
					h-2c-0.276,0-0.5-0.224-0.5-0.5s0.224-0.5,0.5-0.5h2c0.276,0,0.5,0.224,0.5,0.5S248.899,153.25,248.623,153.25z M244.623,153.25
					h-2c-0.276,0-0.5-0.224-0.5-0.5s0.224-0.5,0.5-0.5h2c0.276,0,0.5,0.224,0.5,0.5S244.899,153.25,244.623,153.25z M240.623,153.25
					h-2c-0.276,0-0.5-0.224-0.5-0.5s0.224-0.5,0.5-0.5h2c0.276,0,0.5,0.224,0.5,0.5S240.899,153.25,240.623,153.25z M236.623,153.25
					h-2c-0.276,0-0.5-0.224-0.5-0.5s0.224-0.5,0.5-0.5h2c0.276,0,0.5,0.224,0.5,0.5S236.899,153.25,236.623,153.25z M232.623,153.25
					h-2c-0.276,0-0.5-0.224-0.5-0.5s0.224-0.5,0.5-0.5h2c0.276,0,0.5,0.224,0.5,0.5S232.899,153.25,232.623,153.25z M228.623,153.25
					h-2c-0.276,0-0.5-0.224-0.5-0.5s0.224-0.5,0.5-0.5h2c0.276,0,0.5,0.224,0.5,0.5S228.899,153.25,228.623,153.25z M224.623,153.25
					h-2c-0.276,0-0.5-0.224-0.5-0.5s0.224-0.5,0.5-0.5h2c0.276,0,0.5,0.224,0.5,0.5S224.899,153.25,224.623,153.25z M220.623,153.25
					h-2c-0.276,0-0.5-0.224-0.5-0.5s0.224-0.5,0.5-0.5h2c0.276,0,0.5,0.224,0.5,0.5S220.899,153.25,220.623,153.25z M216.623,153.25
					h-2c-0.276,0-0.5-0.224-0.5-0.5s0.224-0.5,0.5-0.5h2c0.276,0,0.5,0.224,0.5,0.5S216.899,153.25,216.623,153.25z M212.623,153.25
					h-2c-0.276,0-0.5-0.224-0.5-0.5s0.224-0.5,0.5-0.5h2c0.276,0,0.5,0.224,0.5,0.5S212.899,153.25,212.623,153.25z M208.623,153.25
					h-2c-0.276,0-0.5-0.224-0.5-0.5s0.224-0.5,0.5-0.5h2c0.276,0,0.5,0.224,0.5,0.5S208.899,153.25,208.623,153.25z M204.623,153.25
					h-2c-0.276,0-0.5-0.224-0.5-0.5s0.224-0.5,0.5-0.5h2c0.276,0,0.5,0.224,0.5,0.5S204.899,153.25,204.623,153.25z M200.623,153.25
					h-2c-0.276,0-0.5-0.224-0.5-0.5s0.224-0.5,0.5-0.5h2c0.276,0,0.5,0.224,0.5,0.5S200.899,153.25,200.623,153.25z M196.623,153.25
					h-2c-0.276,0-0.5-0.224-0.5-0.5s0.224-0.5,0.5-0.5h2c0.276,0,0.5,0.224,0.5,0.5S196.899,153.25,196.623,153.25z M192.623,153.25
					h-2c-0.276,0-0.5-0.224-0.5-0.5s0.224-0.5,0.5-0.5h2c0.276,0,0.5,0.224,0.5,0.5S192.899,153.25,192.623,153.25z M188.623,153.25
					h-2c-0.276,0-0.5-0.224-0.5-0.5s0.224-0.5,0.5-0.5h2c0.276,0,0.5,0.224,0.5,0.5S188.899,153.25,188.623,153.25z M184.623,153.25
					h-2c-0.276,0-0.5-0.224-0.5-0.5s0.224-0.5,0.5-0.5h2c0.276,0,0.5,0.224,0.5,0.5S184.899,153.25,184.623,153.25z M180.623,153.25
					h-2c-0.276,0-0.5-0.224-0.5-0.5s0.224-0.5,0.5-0.5h2c0.276,0,0.5,0.224,0.5,0.5S180.899,153.25,180.623,153.25z M176.623,153.25
					h-2c-0.276,0-0.5-0.224-0.5-0.5s0.224-0.5,0.5-0.5h2c0.276,0,0.5,0.224,0.5,0.5S176.899,153.25,176.623,153.25z M172.623,153.25
					h-2c-0.276,0-0.5-0.224-0.5-0.5s0.224-0.5,0.5-0.5h2c0.276,0,0.5,0.224,0.5,0.5S172.899,153.25,172.623,153.25z M168.623,153.25
					h-2c-0.276,0-0.5-0.224-0.5-0.5s0.224-0.5,0.5-0.5h2c0.276,0,0.5,0.224,0.5,0.5S168.899,153.25,168.623,153.25z M164.623,153.25
					h-2c-0.276,0-0.5-0.224-0.5-0.5s0.224-0.5,0.5-0.5h2c0.276,0,0.5,0.224,0.5,0.5S164.899,153.25,164.623,153.25z M160.623,153.25
					h-2c-0.276,0-0.5-0.224-0.5-0.5s0.224-0.5,0.5-0.5h2c0.276,0,0.5,0.224,0.5,0.5S160.899,153.25,160.623,153.25z M156.623,153.25
					h-2c-0.276,0-0.5-0.224-0.5-0.5s0.224-0.5,0.5-0.5h2c0.276,0,0.5,0.224,0.5,0.5S156.899,153.25,156.623,153.25z M152.623,153.25
					h-2c-0.276,0-0.5-0.224-0.5-0.5s0.224-0.5,0.5-0.5h2c0.276,0,0.5,0.224,0.5,0.5S152.899,153.25,152.623,153.25z M148.623,153.25
					h-2c-0.276,0-0.5-0.224-0.5-0.5s0.224-0.5,0.5-0.5h2c0.276,0,0.5,0.224,0.5,0.5S148.899,153.25,148.623,153.25z M144.623,153.25
					h-2c-0.276,0-0.5-0.224-0.5-0.5s0.224-0.5,0.5-0.5h2c0.276,0,0.5,0.224,0.5,0.5S144.899,153.25,144.623,153.25z M140.623,153.25
					h-2c-0.276,0-0.5-0.224-0.5-0.5s0.224-0.5,0.5-0.5h2c0.276,0,0.5,0.224,0.5,0.5S140.899,153.25,140.623,153.25z M136.623,153.25
					h-2c-0.276,0-0.5-0.224-0.5-0.5s0.224-0.5,0.5-0.5h2c0.276,0,0.5,0.224,0.5,0.5S136.899,153.25,136.623,153.25z M132.623,153.25
					h-2c-0.276,0-0.5-0.224-0.5-0.5s0.224-0.5,0.5-0.5h2c0.276,0,0.5,0.224,0.5,0.5S132.899,153.25,132.623,153.25z"/>
			</g>
		</g>
		<g>
			<path fill="#CAEDEF" d="M330.351,90.68h-61.367c-1.245,0-2.254-1.009-2.254-2.254V45.199c0-1.245,1.009-2.254,2.254-2.254h61.367
				c1.245,0,2.254,1.009,2.254,2.254v43.227C332.605,89.671,331.595,90.68,330.351,90.68z"/>
		</g>
		<g>
			<path fill="#CAEDEF" d="M202.981,174.639h-61.367c-1.245,0-2.254-1.009-2.254-2.254v-43.227c0-1.245,1.009-2.254,2.254-2.254
				h61.367c1.245,0,2.254,1.009,2.254,2.254v43.227C205.235,173.63,204.226,174.639,202.981,174.639z"/>
		</g>
		<g>
			<path fill="#CAEDEF" d="M330.351,174.639h-61.367c-1.245,0-2.254-1.009-2.254-2.254v-43.227c0-1.245,1.009-2.254,2.254-2.254
				h61.367c1.245,0,2.254,1.009,2.254,2.254v43.227C332.605,173.63,331.595,174.639,330.351,174.639z"/>
		</g>
		<g>
			<path fill="#CAEDEF" d="M457.72,174.639h-61.367c-1.245,0-2.254-1.009-2.254-2.254v-43.227c0-1.245,1.009-2.254,2.254-2.254
				h61.367c1.245,0,2.254,1.009,2.254,2.254v43.227C459.974,173.63,458.965,174.639,457.72,174.639z"/>
		</g>
		<g>
			<path fill="#CAEDEF" d="M202.981,255.599h-61.367c-1.245,0-2.254-1.009-2.254-2.254v-43.227c0-1.245,1.009-2.254,2.254-2.254
				h61.367c1.245,0,2.254,1.009,2.254,2.254v43.227C205.235,254.59,204.226,255.599,202.981,255.599z"/>
		</g>
		<g>
			<rect x="266.73" y="207.865" fill="#CAEDEF" width="65.874" height="47.734"/>
		</g>
		<g>
			<path fill="#CAEDEF" d="M457.72,255.599h-61.367c-1.245,0-2.254-1.009-2.254-2.254v-43.227c0-1.245,1.009-2.254,2.254-2.254
				h61.367c1.245,0,2.254,1.009,2.254,2.254v43.227C459.974,254.59,458.965,255.599,457.72,255.599z"/>
		</g>
		<g>
			<path fill="#FFFFFF" d="M315.297,147.934h-31.076c-0.138,0-0.25-0.112-0.25-0.25s0.112-0.25,0.25-0.25h31.076
				c0.138,0,0.25,0.112,0.25,0.25S315.435,147.934,315.297,147.934z"/>
		</g>
		<g>
			<path fill="#FFFFFF" d="M315.297,150.608h-31.076c-0.138,0-0.25-0.112-0.25-0.25s0.112-0.25,0.25-0.25h31.076
				c0.138,0,0.25,0.112,0.25,0.25S315.435,150.608,315.297,150.608z"/>
		</g>
		<g>
			<path fill="#FFFFFF" d="M306.123,153.25h-21.902c-0.138,0-0.25-0.112-0.25-0.25s0.112-0.25,0.25-0.25h21.902
				c0.138,0,0.25,0.112,0.25,0.25S306.261,153.25,306.123,153.25z"/>
		</g>
		<g>
			<path fill="#FFFFFF" d="M187.161,229.324h-31.076c-0.138,0-0.25-0.112-0.25-0.25s0.112-0.25,0.25-0.25h31.076
				c0.138,0,0.25,0.112,0.25,0.25S187.299,229.324,187.161,229.324z"/>
		</g>
		<g>
			<path fill="#FFFFFF" d="M187.161,231.998h-31.076c-0.138,0-0.25-0.112-0.25-0.25s0.112-0.25,0.25-0.25h31.076
				c0.138,0,0.25,0.112,0.25,0.25S187.299,231.998,187.161,231.998z"/>
		</g>
		<g>
			<path fill="#FFFFFF" d="M177.987,234.64h-21.902c-0.138,0-0.25-0.112-0.25-0.25s0.112-0.25,0.25-0.25h21.902
				c0.138,0,0.25,0.112,0.25,0.25S178.125,234.64,177.987,234.64z"/>
		</g>
		<g>
			<path fill="#FFFFFF" d="M296.715,68.812c-0.179,0-0.356-0.009-0.534-0.029c-0.817-0.09-1.337-0.36-1.665-0.681
				c-0.569,0.29-1.275,0.485-2.136,0.527c-0.902,0.037-1.549-0.149-2-0.434c-0.432,0.226-0.97,0.382-1.632,0.433
				c-1.228,0.098-2.16-0.182-2.77-0.82c-0.902-0.947-0.74-2.325-0.732-2.384c0.017-0.136,0.142-0.233,0.278-0.217
				c0.138,0.018,0.234,0.142,0.218,0.279c-0.001,0.012-0.138,1.207,0.601,1.979c0.501,0.524,1.302,0.746,2.366,0.665
				c0.49-0.038,0.901-0.138,1.241-0.282c-0.143-0.147-0.253-0.301-0.339-0.449c-0.533-0.919-0.388-2.065,0.032-2.724
				c0.26-0.407,0.613-0.614,1.005-0.589c0.691,0.063,1.208,0.826,1.201,1.775c-0.005,0.688-0.291,1.466-0.991,2.023
				c0.402,0.189,0.907,0.273,1.498,0.244c0.739-0.035,1.351-0.195,1.847-0.433c-0.066-0.118-0.116-0.235-0.151-0.348
				c-0.353-1.104,0.3-2.441,0.906-2.982c0.441-0.394,0.773-0.334,0.934-0.261c0.454,0.203,0.664,0.846,0.521,1.598
				c-0.138,0.73-0.593,1.546-1.447,2.132c0.298,0.239,0.722,0.391,1.27,0.451c0.985,0.105,2.018-0.141,2.938-0.576
				c-0.235-0.256-0.361-0.527-0.424-0.771c-0.275-1.067,0.466-2.3,1.339-2.967c0.728-0.555,1.491-0.698,2.046-0.382
				c0.508,0.29,0.677,0.832,0.464,1.486c-0.285,0.876-1.239,1.934-2.495,2.7c0.327,0.163,0.738,0.282,1.229,0.355
				c2.041,0.301,3.873-0.069,5.173-0.677c-0.127-0.177-0.2-0.359-0.239-0.532c-0.204-0.896,0.443-1.858,1.161-2.235
				c0.496-0.262,0.98-0.213,1.299,0.131c0.333,0.361,0.365,0.846,0.091,1.364c-0.243,0.46-0.74,0.945-1.434,1.369
				c0.421,0.228,1.037,0.361,1.821,0.391c0.138,0.005,0.245,0.121,0.24,0.26c-0.005,0.135-0.116,0.24-0.25,0.24
				c-0.003,0-0.006,0-0.01,0c-1.153-0.043-1.868-0.292-2.305-0.613c-1.395,0.698-3.372,1.132-5.622,0.797
				c-0.749-0.111-1.284-0.317-1.663-0.564C298.711,68.515,297.715,68.812,296.715,68.812z M290.569,64.583
				c-0.237,0-0.416,0.224-0.504,0.361c-0.33,0.518-0.45,1.466-0.021,2.204c0.1,0.172,0.223,0.321,0.369,0.449
				c0.663-0.453,0.933-1.119,0.937-1.738c0.005-0.676-0.323-1.235-0.746-1.274C290.592,64.584,290.58,64.583,290.569,64.583z
				 M301.48,63.924c-0.323,0-0.705,0.153-1.089,0.446c-0.725,0.553-1.377,1.598-1.158,2.444c0.063,0.249,0.201,0.468,0.407,0.654
				c1.24-0.699,2.21-1.71,2.481-2.546c0.21-0.644-0.126-0.835-0.236-0.898C301.768,63.957,301.63,63.924,301.48,63.924z
				 M295.639,64.552c-0.085,0-0.214,0.068-0.348,0.188c-0.492,0.439-1.048,1.567-0.764,2.457c0.029,0.09,0.066,0.175,0.11,0.254
				c0.763-0.504,1.165-1.209,1.284-1.84c0.107-0.565-0.041-0.962-0.235-1.049C295.673,64.555,295.657,64.552,295.639,64.552z
				 M308.04,65.02c-0.133,0-0.269,0.052-0.381,0.11c-0.544,0.286-1.051,1.048-0.906,1.682c0.034,0.15,0.104,0.287,0.207,0.41
				c0.696-0.393,1.189-0.848,1.414-1.272c0.173-0.326,0.168-0.593-0.016-0.791C308.265,65.057,308.153,65.02,308.04,65.02z"/>
		</g>
		<g>
			<path fill="#FFFFFF" d="M424.585,154.25c-0.179,0-0.356-0.009-0.534-0.029c-0.817-0.09-1.337-0.36-1.665-0.681
				c-0.569,0.29-1.275,0.485-2.136,0.527c-0.902,0.037-1.549-0.149-2-0.434c-0.432,0.226-0.97,0.382-1.632,0.433
				c-1.228,0.098-2.16-0.182-2.77-0.82c-0.902-0.947-0.74-2.325-0.732-2.384c0.017-0.136,0.142-0.233,0.278-0.217
				c0.138,0.018,0.234,0.142,0.218,0.279c-0.001,0.012-0.138,1.207,0.601,1.979c0.501,0.524,1.302,0.746,2.366,0.665
				c0.49-0.038,0.901-0.138,1.241-0.282c-0.143-0.147-0.253-0.301-0.339-0.449c-0.533-0.919-0.388-2.065,0.032-2.724
				c0.26-0.407,0.613-0.614,1.005-0.589c0.691,0.063,1.208,0.826,1.201,1.775c-0.005,0.688-0.291,1.466-0.991,2.023
				c0.402,0.189,0.907,0.273,1.498,0.244c0.739-0.035,1.351-0.195,1.847-0.433c-0.066-0.118-0.116-0.235-0.151-0.348
				c-0.353-1.104,0.3-2.441,0.906-2.982c0.441-0.394,0.773-0.334,0.934-0.261c0.454,0.203,0.664,0.846,0.521,1.598
				c-0.138,0.73-0.593,1.546-1.447,2.132c0.298,0.239,0.722,0.391,1.27,0.451c0.985,0.105,2.018-0.141,2.938-0.576
				c-0.235-0.256-0.361-0.527-0.424-0.771c-0.275-1.067,0.466-2.3,1.339-2.967c0.728-0.555,1.491-0.698,2.046-0.382
				c0.508,0.29,0.677,0.832,0.464,1.486c-0.285,0.876-1.239,1.934-2.495,2.7c0.327,0.163,0.738,0.282,1.229,0.355
				c2.041,0.301,3.873-0.069,5.173-0.677c-0.127-0.177-0.2-0.359-0.239-0.532c-0.204-0.896,0.443-1.858,1.161-2.235
				c0.496-0.262,0.98-0.213,1.299,0.131c0.333,0.361,0.365,0.846,0.091,1.364c-0.243,0.46-0.74,0.945-1.434,1.369
				c0.421,0.228,1.037,0.361,1.821,0.391c0.138,0.005,0.245,0.121,0.24,0.26c-0.005,0.135-0.116,0.24-0.25,0.24
				c-0.003,0-0.006,0-0.01,0c-1.153-0.043-1.868-0.292-2.305-0.613c-1.395,0.698-3.372,1.132-5.622,0.797
				c-0.749-0.111-1.284-0.317-1.663-0.564C426.581,153.953,425.585,154.25,424.585,154.25z M418.439,150.02
				c-0.237,0-0.416,0.224-0.504,0.361c-0.33,0.518-0.45,1.466-0.021,2.204c0.1,0.172,0.223,0.321,0.369,0.449
				c0.663-0.453,0.933-1.119,0.937-1.738c0.005-0.676-0.323-1.235-0.746-1.274C418.462,150.021,418.45,150.02,418.439,150.02z
				 M429.351,149.361c-0.323,0-0.705,0.153-1.089,0.446c-0.725,0.553-1.377,1.598-1.158,2.444c0.063,0.249,0.201,0.468,0.407,0.654
				c1.24-0.699,2.21-1.71,2.481-2.546c0.21-0.644-0.126-0.835-0.236-0.898C429.638,149.394,429.5,149.361,429.351,149.361z
				 M423.509,149.99c-0.085,0-0.214,0.068-0.348,0.188c-0.492,0.439-1.048,1.567-0.764,2.457c0.029,0.09,0.066,0.175,0.11,0.254
				c0.763-0.504,1.165-1.209,1.284-1.84c0.107-0.565-0.041-0.962-0.235-1.049C423.543,149.993,423.527,149.99,423.509,149.99z
				 M435.91,150.458c-0.133,0-0.269,0.052-0.381,0.11c-0.544,0.286-1.051,1.048-0.906,1.682c0.034,0.15,0.104,0.287,0.207,0.41
				c0.696-0.393,1.189-0.848,1.414-1.272c0.173-0.326,0.168-0.593-0.016-0.791C436.135,150.495,436.023,150.458,435.91,150.458z"/>
		</g>
		<g>
			<path fill="#FFFFFF" d="M161.479,155.613c-3.099,0-4.111-2.256-5.178-4.63c-0.849-1.889-1.727-3.843-3.7-5.032
				c-4.644-2.802-9.718,4.529-9.768,4.604c-0.078,0.115-0.234,0.144-0.348,0.066c-0.114-0.078-0.144-0.233-0.066-0.347
				c0.219-0.32,5.388-7.792,10.439-4.751c2.108,1.271,3.06,3.388,3.898,5.256c1.206,2.686,2.163,4.806,5.818,4.245
				c3.1-0.477,5.815-3.047,8.441-5.534c2.871-2.717,5.586-5.284,8.547-4.834c2.882,0.438,4.09,2.84,5.156,4.96
				c1.046,2.083,1.944,3.889,4.152,3.65c4.62-0.485,11.355-6.768,11.423-6.832c0.1-0.095,0.258-0.09,0.354,0.011
				c0.094,0.101,0.089,0.259-0.012,0.354c-0.28,0.264-6.925,6.461-11.712,6.964c-2.55,0.271-3.567-1.768-4.652-3.922
				c-1.061-2.109-2.157-4.291-4.783-4.69c-2.734-0.417-5.35,2.072-8.129,4.704c-2.682,2.539-5.455,5.165-8.709,5.665
				C162.23,155.582,161.84,155.613,161.479,155.613z"/>
		</g>
	</g>
	<g id="man_1_">
		<g>
			<path fill="#8DD2E2" d="M473.67,240.868c-12.402,2.806-22.082-6.084-47.789,7.051c-25.707,13.135-47.63,84.488-47.63,84.488
				s1.821,25.037,49.725,26.37c47.904,1.333,76.793-23.107,87.238-68.331S501.016,221.181,473.67,240.868z"/>
		</g>
		<g>
			<path fill="#7FC7D3" d="M378.251,332.407c0,0,46.71,29.935,95.419-29.474l-67.831-14.17l-20.557,23.622L378.251,332.407z"/>
		</g>
		<g>
			<path fill="#B22449" d="M457.138,262.235c0,0,3.749-16.115,12.69-18.786C478.77,240.778,457.138,262.235,457.138,262.235z"/>
		</g>
		<g>
			<path fill="#7FC7D3" d="M488.512,234.265c18.035,10.29,18.219,45.817-9.206,54.498l-5.636-47.895
				C473.67,240.868,482.054,234.444,488.512,234.265z"/>
		</g>
		<g>
			<path fill="#E53362" d="M448.353,273.506c0,0,7.639-8.284,11.528-15.951c3.889-7.667,9.667-12.889,9.667-12.889l8.881-0.278
				c0,0,3.23-1.833,5.563,9.056c2.333,10.889,2.889,28.444-8.333,46.444c0,0-5.842-4.889-10.81-11
				C459.881,282.778,448.353,273.506,448.353,273.506z"/>
		</g>
		<g>
			<path fill="#B22449" d="M449.527,274.466c0,0,9.039,9.071,11.835,9.052S458.562,269.377,449.527,274.466z"/>
		</g>
		<g>
			<path fill="#474F50" d="M475.659,299.889c-5.333,10.444-20.926,14.778-40.963,11.333l-16.704-25.316l-9.37-15.129
				c0,0,31.315,3.791,39.731,2.729L475.659,299.889z"/>
		</g>
		<g>
			<path fill="#F99680" d="M479.075,223.333c-1.005,0-1.899,0.442-2.524,1.132c-0.847-2.25-3.013-3.854-5.559-3.854
				c-2.962,0-5.411,2.169-5.863,5.004l-0.003,0c-0.006,0.041-0.01,0.084-0.016,0.126c-0.013,0.091-0.027,0.182-0.035,0.274
				c-0.561,4.369-0.218,9.639,2.639,11.041c0.716,0.351,1.541,0.39,2.393,0.233l-0.002,0.003c0.887,1.82-0.558,7.375-0.558,7.375
				s-2.46,7.5,8.881-0.278c0,0-0.664-8.863,0.339-14.237c0.001-0.006,0.001-0.01,0.002-0.016c0.102,0.009,0.201,0.031,0.306,0.031
				c1.887,0,3.417-1.53,3.417-3.417S480.962,223.333,479.075,223.333z"/>
		</g>
		<g>
			<path fill="#F99680" d="M430.103,287.815c0,0-35.407-6.815-43.259-0.889c-7.852,5.926-10.963,26.222-15.556,38.667
				c-4.593,12.444-8,16.741-13.185,18.667c-5.185,1.926-10.074,3.15-10.074,3.15s0.296,3.221,3.259,2.628
				c2.963-0.593,7.852-1.333,13.481-0.593c5.63,0.741,12.889,2.447,12.444-2.036c-0.444-4.483-1.778-8.631,1.037-15.001
				s16.296-24.889,17.333-32c0,0,4.444-2.519,14.667,3.259c10.222,5.778,24.444,7.556,24.444,7.556S434.992,295.815,430.103,287.815
				z"/>
		</g>
		<g>
			<path fill="#F99680" d="M417.992,285.906l-9.37-15.129c0,0-22.222-2.815-23.852,5.185s6.222,19.155,4.593,22.689
				s-11.407,9.756-15.852,11.534c0,0,11.259,1.481,16.741-1.185s13.778-2.667,14.667,0.148c0,0,0.593-5.289-3.259-10.497
				C397.807,293.444,417.992,285.906,417.992,285.906z"/>
		</g>
		<g>
			<polygon fill="#AFE3E8" points="398.548,250.556 403.548,252.056 409.381,266.611 424.381,268.165 426.992,272.69 
				406.474,270.778 			"/>
		</g>
		<g>
			<path fill="#FCD6D6" d="M404.918,309.148c0.695,2.675-1.037,7.074-6.926,7.074s-7.222,0.333-14.111,4
				c-6.889,3.667-10.464,4.141-11.732,2.904c-1.268-1.237-2.453-12.756,1.362-12.941c3.815-0.185,10.222,1.593,16.741-1.185
				S404.177,306.296,404.918,309.148z"/>
		</g>
		<g>
			<path fill="#F99680" d="M463.807,268.926l14.589,1.737c0,0-5.033,29.893-16.218,27.893s-26.148-27.259-29.185-28.444
				c-3.037-1.185-3.278,1.5-4.5,1.167c0,0,0.13,0.611-0.204,0.833c0,0-1.593-0.741-2.259-0.926
				c-0.667-0.185-1.704-0.778-1.667-1.148c0.037-0.37,0.037-0.37,0.037-0.37l0.481-2.741c0,0-1.63,0.519-1.926,1.407
				s-0.519,2.296-2.296,2.111c0,0,0.593-2.37,1.704-3.852s3.963-3.185,5.741-3.222c1.778-0.037,7.778,0,11.778,2.963
				c4,2.963,20.296,18.074,21.481,17.185S463.807,268.926,463.807,268.926z"/>
		</g>
		<g>
			<path fill="#B22449" d="M478.396,270.663h1.226l1.778-9.403c0,0,7.727,11.599-4.951,17.92
				C476.448,279.179,477.577,275.881,478.396,270.663z"/>
		</g>
		<g>
			<path fill="#474F50" d="M476.551,224.465c-0.559,1.572-0.337,2.794-0.337,2.794s-1.481-1.296-1.556-3.667
				c0,0-1.815,0.667-2.074-0.926c0,0-1.704,2.889-4.222,0.63c0,0-1.264,2.32-3.021,1.438l-0.267,1.281c0,0-5.009,0.466-4.231-4.015
				c0,0-3.667-0.852-2.333-4.963c1.333-4.111,5-2.556,5-2.556s-1.407-4.481,2.741-5.074c4.148-0.593,4.333,2.63,4.333,2.63
				s3-3.481,6.148-1.926c3.148,1.556,3.667,6.259,3.667,6.259s4.889,2.296,4.741,4.074c-0.148,1.778-2.749,5.493-2.749,5.493
				S480.474,221.259,476.551,224.465z"/>
		</g>
		<g>
			<path fill="#D35971" d="M434.696,311.222c-5.296-0.92-11.342-2.311-13.465-2.999c0,0,0.853-12.107,11.455-14.11
				C432.686,294.114,434.992,302.481,434.696,311.222z"/>
		</g>
		<g>
			<path fill="#D35971" d="M463.807,268.926l-0.394,3.794c0,0,10,2.566,14.982-2.057L463.807,268.926z"/>
		</g>
		<g>
			<polygon fill="#F0CFBD" points="463.807,268.926 464.325,265.667 480.222,267.49 479.622,270.663 478.396,270.663 			"/>
		</g>
		<g>
			<path fill="#D35971" d="M417.992,285.906l-12.929-2.388c0,0,0.551-4.95,8.518-4.735L417.992,285.906z"/>
		</g>
		<g>
			<path fill="#D35971" d="M386.494,287.391c1.553,3.054,5.974,10.893,0.264,14.362c0,0-6.335,2.062-6.94-3.623
				C379.819,298.13,382.885,289.782,386.494,287.391z"/>
		</g>
		<g>
			<path fill="#D35971" d="M402.841,300.485c0,0-0.67-3.851,0-6.372c0,0,2.883,4.127,2.998,7.395
				C405.839,301.509,404.191,300.75,402.841,300.485z"/>
		</g>
		<g>
			<path fill="#D35971" d="M470.108,237.288c2.884-0.455,5.551-3.023,5.551-3.023s0.497,4.805-5.391,6.603
				C470.268,240.868,470.506,238.736,470.108,237.288z"/>
		</g>
		<g>
			<ellipse fill="#D35971" cx="472.27" cy="230.667" rx="1.759" ry="1.074"/>
		</g>
		<g>
			<ellipse fill="#D35971" cx="465.828" cy="230.349" rx="1.238" ry="0.756"/>
		</g>
		<g>
			<circle fill="#474F50" cx="471.937" cy="227.981" r="0.722"/>
		</g>
		<g>
			<circle fill="#474F50" cx="465.828" cy="227.981" r="0.722"/>
		</g>
		<g>
			<path fill="#D35971" d="M477.881,227.981c0,0-0.593-4.019,2.889-2.537L477.881,227.981z"/>
		</g>
		<g>
			<polygon fill="#84B1BE" points="396.548,250.852 404.548,273.36 426.992,275.148 426.992,272.69 406.474,270.778 
				398.548,250.556 			"/>
		</g>
		<g>
			<path fill="#7FC7D3" d="M483.731,343.544c0,0-31.85-20.544-47.406,15.234C436.325,358.778,461.915,359.533,483.731,343.544z"/>
		</g>
	</g>
	<g id="plant">
		<g>
			<g>
				<path fill="#BEE9EA" d="M158.128,331.377l6.662-6.391c0.075-1.718,0.02-3.471-0.189-5.249
					c-1.823-15.46-14.14-26.715-27.512-25.139c-13.372,1.576-22.734,15.387-20.912,30.847c1.823,15.46,14.14,26.715,27.512,25.139
					c9.514-1.122,16.994-8.44,19.864-18.136L158.128,331.377z"/>
			</g>
			<g>
				<g>
					<path fill="#76CCCA" d="M146.28,359.33c-0.238,0-0.449-0.172-0.491-0.415l-10.312-59.507c-0.048-0.271,0.135-0.53,0.407-0.577
						c0.27-0.055,0.529,0.135,0.577,0.407l10.312,59.507c0.048,0.271-0.135,0.53-0.407,0.577
						C146.338,359.328,146.309,359.33,146.28,359.33z"/>
				</g>
				<g>
					<path fill="#76CCCA" d="M142.115,335.289c-0.109,0-0.219-0.035-0.311-0.107c-0.216-0.172-0.253-0.486-0.082-0.703
						l10.393-13.141c0.172-0.217,0.488-0.252,0.703-0.082c0.216,0.172,0.253,0.486,0.082,0.703l-10.393,13.141
						C142.409,335.223,142.263,335.289,142.115,335.289z"/>
				</g>
				<g>
					<path fill="#76CCCA" d="M141.125,328.26c-0.058,0-0.115-0.01-0.172-0.03l-14.103-5.17c-0.26-0.096-0.393-0.383-0.298-0.642
						c0.096-0.261,0.384-0.391,0.642-0.298l14.103,5.17c0.26,0.096,0.393,0.383,0.298,0.642
						C141.521,328.135,141.329,328.26,141.125,328.26z"/>
				</g>
				<g>
					<path fill="#76CCCA" d="M139.236,318.675c-0.095,0-0.189-0.026-0.273-0.082c-0.231-0.15-0.296-0.461-0.146-0.691l6.267-9.582
						c0.152-0.231,0.464-0.296,0.692-0.145c0.231,0.15,0.296,0.461,0.146,0.691l-6.268,9.582
						C139.559,318.595,139.399,318.675,139.236,318.675z"/>
				</g>
				<g>
					<path fill="#76CCCA" d="M137.393,308.039c-0.05,0-0.1-0.007-0.15-0.023l-7.73-2.43c-0.264-0.082-0.41-0.363-0.327-0.627
						c0.082-0.263,0.365-0.413,0.626-0.326l7.732,2.43c0.263,0.082,0.409,0.363,0.326,0.627
						C137.803,307.902,137.605,308.039,137.393,308.039z"/>
				</g>
			</g>
		</g>
		<g>
			<g>
				<path fill="#BEE9EA" d="M103.363,341.792l4.135-3.967c0.047-1.066,0.013-2.154-0.118-3.258
					c-1.131-9.595-8.776-16.58-17.075-15.602c-8.299,0.978-14.11,9.55-12.978,19.145c1.131,9.595,8.776,16.58,17.075,15.602
					c5.905-0.696,10.547-5.238,12.328-11.256L103.363,341.792z"/>
			</g>
			<g>
				<g>
					<path fill="#76CCCA" d="M96.009,359.33c-0.238,0-0.449-0.172-0.491-0.415l-6.399-36.932c-0.048-0.271,0.135-0.53,0.407-0.577
						c0.267-0.056,0.53,0.135,0.577,0.407l6.399,36.932c0.048,0.271-0.135,0.53-0.407,0.577
						C96.066,359.328,96.037,359.33,96.009,359.33z"/>
				</g>
				<g>
					<path fill="#76CCCA" d="M93.425,344.409c-0.109,0-0.219-0.035-0.311-0.107c-0.216-0.172-0.253-0.486-0.082-0.703l6.449-8.155
						c0.172-0.217,0.487-0.252,0.703-0.082c0.216,0.172,0.253,0.486,0.082,0.703l-6.449,8.155
						C93.719,344.343,93.572,344.409,93.425,344.409z"/>
				</g>
				<g>
					<path fill="#76CCCA" d="M92.811,340.047c-0.058,0-0.115-0.01-0.172-0.03l-8.753-3.208c-0.26-0.096-0.393-0.383-0.298-0.642
						c0.095-0.26,0.385-0.392,0.642-0.298l8.753,3.208c0.26,0.096,0.393,0.383,0.298,0.642
						C93.206,339.922,93.015,340.047,92.811,340.047z"/>
				</g>
				<g>
					<path fill="#76CCCA" d="M91.638,334.098c-0.095,0-0.189-0.026-0.273-0.082c-0.231-0.15-0.296-0.461-0.145-0.691l3.89-5.947
						c0.151-0.231,0.463-0.297,0.691-0.145c0.231,0.15,0.296,0.461,0.145,0.691l-3.89,5.947
						C91.96,334.018,91.801,334.098,91.638,334.098z"/>
				</g>
				<g>
					<path fill="#76CCCA" d="M90.494,327.498c-0.05,0-0.1-0.008-0.15-0.023l-4.799-1.509c-0.263-0.082-0.409-0.363-0.326-0.627
						c0.082-0.263,0.36-0.408,0.627-0.326l4.799,1.509c0.263,0.082,0.409,0.363,0.326,0.627
						C90.904,327.361,90.707,327.498,90.494,327.498z"/>
				</g>
			</g>
		</g>
		<g>
			<g>
				<path fill="#BEE9EA" d="M221.565,358.801c0,0,1.993-23.781-13.717-29.156c-15.711-5.376,11.927,29.156,11.927,29.156H221.565z"
					/>
			</g>
			<g>
				<path fill="#BEE9EA" d="M217.559,358.801c0,0-8.089-16.488-17.688-15.422c-9.6,1.067,15.111,15.422,15.111,15.422H217.559z"/>
			</g>
			<g>
				<path fill="#76CCCA" d="M221.025,359.3c-0.213,0-0.41-0.137-0.477-0.35c-4.597-14.607-9.79-23.642-16.84-29.291
					c-0.216-0.173-0.25-0.488-0.078-0.703c0.175-0.216,0.489-0.248,0.703-0.078c7.214,5.782,12.509,14.964,17.168,29.771
					c0.083,0.264-0.063,0.545-0.326,0.627C221.126,359.293,221.075,359.3,221.025,359.3z"/>
			</g>
			<g>
				<path fill="#76CCCA" d="M216.459,359.3c-0.152,0-0.303-0.069-0.401-0.201c-8.105-10.896-18.016-14.655-18.115-14.692
					c-0.259-0.096-0.391-0.383-0.295-0.642c0.095-0.26,0.386-0.394,0.642-0.296c0.103,0.037,10.278,3.887,18.571,15.032
					c0.165,0.222,0.118,0.535-0.103,0.7C216.668,359.268,216.563,359.3,216.459,359.3z"/>
			</g>
		</g>
		<g>
			<g>
				<path fill="#A8A848" d="M270.662,314.839c0,0-38.134,8.628-40.579,43.961h41.514
					C271.596,358.801,270.375,333.358,270.662,314.839z"/>
			</g>
			<g>
				<path fill="#FFFFFF" d="M269.556,359.05c-0.124,0-0.231-0.092-0.248-0.218l-5.439-41.852c-0.018-0.137,0.079-0.263,0.216-0.28
					c0.139-0.013,0.262,0.079,0.28,0.216l5.439,41.852c0.018,0.137-0.079,0.263-0.216,0.28
					C269.577,359.049,269.566,359.05,269.556,359.05z"/>
			</g>
			<g>
				<path fill="#FFFFFF" d="M265.935,359.05c-0.109,0-0.209-0.072-0.24-0.182l-10.668-37.673c-0.038-0.133,0.039-0.271,0.172-0.309
					c0.14-0.038,0.271,0.041,0.309,0.172l10.668,37.673c0.038,0.133-0.039,0.271-0.172,0.309
					C265.979,359.048,265.957,359.05,265.935,359.05z"/>
			</g>
			<g>
				<path fill="#FFFFFF" d="M262.676,359.05c-0.094,0-0.184-0.053-0.227-0.144l-15.222-32.433c-0.059-0.125-0.005-0.274,0.12-0.333
					c0.124-0.055,0.273-0.005,0.333,0.12l15.222,32.433c0.059,0.125,0.005,0.274-0.12,0.333
					C262.748,359.043,262.712,359.05,262.676,359.05z"/>
			</g>
			<g>
				<path fill="#FFFFFF" d="M259.713,359.05c-0.075,0-0.149-0.034-0.198-0.098l-19.479-25.442c-0.084-0.11-0.063-0.267,0.046-0.351
					c0.111-0.085,0.268-0.062,0.351,0.046l19.479,25.442c0.084,0.11,0.063,0.267-0.046,0.351
					C259.819,359.034,259.766,359.05,259.713,359.05z"/>
			</g>
			<g>
				<path fill="#FFFFFF" d="M256.305,359.05c-0.06,0-0.12-0.021-0.168-0.065l-20.693-18.801c-0.103-0.093-0.11-0.251-0.017-0.353
					c0.092-0.102,0.25-0.11,0.353-0.017l20.693,18.801c0.103,0.093,0.11,0.251,0.017,0.353
					C256.44,359.023,256.373,359.05,256.305,359.05z"/>
			</g>
			<g>
				<path fill="#FFFFFF" d="M252.157,359.05c-0.047,0-0.095-0.014-0.137-0.041l-19.379-12.721c-0.116-0.076-0.148-0.23-0.072-0.346
					s0.231-0.146,0.346-0.072l19.379,12.721c0.116,0.076,0.148,0.23,0.072,0.346C252.318,359.01,252.238,359.05,252.157,359.05z"/>
			</g>
			<g>
				<path fill="#FFFFFF" d="M245.046,359.05c-0.034,0-0.069-0.007-0.103-0.022l-14.095-6.36c-0.126-0.057-0.182-0.204-0.125-0.33
					c0.056-0.127,0.204-0.185,0.33-0.125l14.095,6.36c0.126,0.057,0.183,0.204,0.125,0.33
					C245.232,358.996,245.141,359.05,245.046,359.05z"/>
			</g>
		</g>
		<g>
			<g>
				<path fill="#A8A848" d="M279.154,358.766c0,0-2.268-17.28,12.353-26.307c0,0,0.084,4.67-0.84,7.779l-2.605,0.641l2.017,1.699
					c0,0-3.361,8.417-10.252,16.189H279.154z"/>
			</g>
			<g>
				<path fill="#A8A848" d="M281.676,358.766c0,0,4.454-11.638,17.058-12.058c0,0-1.008,3.991-3.529,6.029l-1.681-0.651l0.336,2.101
					c0,0-3.025,3.277-11.092,4.58H281.676z"/>
			</g>
			<g>
				<path fill="#FFFFFF" d="M279.827,359.015c-0.014,0-0.028-0.001-0.043-0.004c-0.137-0.023-0.228-0.153-0.203-0.289
					c1.919-10.889,11.618-26.244,11.716-26.397c0.075-0.117,0.23-0.149,0.345-0.077c0.117,0.074,0.151,0.229,0.077,0.345
					c-0.097,0.153-9.743,15.426-11.646,26.216C280.052,358.93,279.946,359.015,279.827,359.015z"/>
			</g>
			<g>
				<path fill="#FFFFFF" d="M282.769,359.015c-0.062,0-0.126-0.023-0.174-0.07c-0.1-0.097-0.102-0.255-0.006-0.354
					c0.071-0.073,7.188-7.352,16.027-12.104c0.119-0.066,0.272-0.02,0.338,0.102s0.021,0.273-0.102,0.338
					c-8.769,4.715-15.834,11.939-15.904,12.012C282.898,358.99,282.834,359.015,282.769,359.015z"/>
			</g>
		</g>
	</g>
	<g id="speech_bubble_6_">
		<g>
			<g>
				<path fill="#F2E5D6" d="M539.286,173.202h-33.768c-3.954,0-7.159,3.239-7.159,7.234c0,3.995,3.205,7.234,7.159,7.234h5.579
					c-0.411,1.713-1.247,4.627-2.35,5.499c0,0,5.431-2.956,6.309-5.499h24.23c3.954,0,7.159-3.239,7.159-7.234
					C546.445,176.441,543.24,173.202,539.286,173.202z"/>
			</g>
		</g>
		<g>
			<g>
				<path fill="#FFFFFF" d="M409.032,218.99h28.062c3.286,0,5.949,2.664,5.949,5.949c0,3.286-2.664,5.949-5.949,5.949h-4.636
					c0.341,1.409,1.036,3.806,1.952,4.523c0,0-4.513-2.431-5.243-4.523h-20.135c-3.286,0-5.949-2.664-5.949-5.949
					C403.083,221.654,405.747,218.99,409.032,218.99z"/>
			</g>
			<g>
				<path fill="#76CCCA" d="M425.774,227.926c-1.226,0-2.448-0.354-3.541-0.901c-0.483,0.295-1.144,0.537-2.042,0.67
					c-2.747,0.409-5.19-0.106-6.94-0.954c-0.574,0.387-1.472,0.678-2.859,0.729c-0.246,0.001-0.508-0.205-0.519-0.481
					c-0.01-0.275,0.205-0.508,0.481-0.519c0.766-0.028,1.394-0.138,1.864-0.319c-0.738-0.495-1.271-1.046-1.548-1.568
					c-0.374-0.708-0.323-1.401,0.141-1.903c0.454-0.492,1.138-0.567,1.832-0.202c0.946,0.498,1.801,1.775,1.529,2.969
					c-0.039,0.175-0.104,0.357-0.205,0.538c1.555,0.678,3.693,1.075,6.077,0.723c0.369-0.056,0.772-0.144,1.145-0.284
					c-1.44-0.952-2.522-2.196-2.86-3.236c-0.294-0.901-0.054-1.652,0.659-2.061c0.751-0.428,1.774-0.248,2.735,0.486
					c1.093,0.834,2.098,2.397,1.721,3.859c-0.069,0.268-0.193,0.56-0.408,0.844c1.024,0.453,2.168,0.705,3.303,0.58
					c0.516-0.057,0.935-0.181,1.254-0.369c-0.956-0.738-1.476-1.712-1.642-2.59c-0.195-1.032,0.101-1.89,0.753-2.183
					c0.24-0.108,0.732-0.203,1.358,0.354c0.903,0.807,1.608,2.52,1.173,3.88c-0.028,0.091-0.063,0.184-0.106,0.278
					c0.557,0.237,1.228,0.396,2.025,0.436c0.562,0.023,1.057-0.031,1.473-0.171c-0.737-0.706-1.044-1.619-1.05-2.436
					c-0.009-1.271,0.703-2.294,1.656-2.381c0.541-0.042,1.057,0.248,1.419,0.814c0.549,0.86,0.739,2.358,0.043,3.559
					c-0.066,0.115-0.151,0.243-0.258,0.375c0.349,0.12,0.754,0.204,1.22,0.24c1.266,0.091,2.195-0.161,2.771-0.766
					c0.85-0.893,0.688-2.267,0.686-2.28c-0.034-0.273,0.159-0.524,0.434-0.559c0.264-0.036,0.523,0.158,0.559,0.434
					c0.01,0.075,0.22,1.862-0.954,3.095c-0.793,0.834-1.992,1.189-3.57,1.073c-0.801-0.062-1.462-0.245-2-0.509
					c-0.568,0.329-1.365,0.57-2.476,0.509c-1.029-0.05-1.888-0.274-2.59-0.609c-0.435,0.38-1.087,0.69-2.067,0.799
					C426.225,227.914,425.999,227.925,425.774,227.926z M433.348,222.71c-0.008,0-0.016,0-0.024,0.001
					c-0.416,0.038-0.751,0.656-0.746,1.378c0.005,0.666,0.279,1.38,0.95,1.896c0.117-0.119,0.218-0.252,0.304-0.398
					c0.473-0.815,0.359-1.921-0.022-2.521C433.739,222.957,433.558,222.71,433.348,222.71z M419.887,221.897
					c-0.151,0-0.287,0.031-0.402,0.098c-0.124,0.07-0.415,0.236-0.204,0.882c0.287,0.884,1.382,2.099,2.845,2.968
					c0.165-0.174,0.288-0.38,0.352-0.622c0.248-0.965-0.516-2.171-1.359-2.815C420.681,222.074,420.242,221.897,419.887,221.897z
					 M427.094,222.672L427.094,222.672c-0.129,0.062-0.274,0.476-0.16,1.079c0.129,0.683,0.546,1.44,1.321,2.018
					c0.09-0.232,0.126-0.5,0.108-0.801C428.29,223.702,427.373,222.672,427.094,222.672z M411.803,223.249
					c-0.104,0-0.189,0.036-0.257,0.108c-0.062,0.067-0.249,0.271,0.009,0.758c0.248,0.469,0.775,0.97,1.518,1.412
					c0.06-0.095,0.102-0.195,0.126-0.303c0.153-0.678-0.412-1.542-1.021-1.862C412.034,223.287,411.909,223.249,411.803,223.249z"/>
			</g>
		</g>
		<g>
			<g>
				<path fill="#F9B655" d="M131.891,271.14H107.55c-2.85,0-5.161,2.31-5.161,5.16c0,2.85,2.311,5.161,5.161,5.161h4.021
					c-0.296,1.222-0.899,3.301-1.694,3.923c0,0,3.915-2.109,4.548-3.923h17.466c2.85,0,5.16-2.31,5.16-5.161
					C137.051,273.45,134.741,271.14,131.891,271.14z"/>
			</g>
			<g>
				<path fill="#FFFFFF" d="M117.375,278.708c-0.19,0-0.381-0.01-0.57-0.031c-0.878-0.097-1.433-0.388-1.781-0.732
					c-0.608,0.312-1.366,0.522-2.289,0.567c-0.979,0.045-1.658-0.161-2.138-0.467c-0.461,0.243-1.038,0.411-1.748,0.466
					c-1.312,0.1-2.301-0.191-2.95-0.873c-0.959-1.007-0.786-2.474-0.778-2.535c0.018-0.137,0.127-0.232,0.279-0.217
					c0.137,0.018,0.233,0.142,0.217,0.279c-0.002,0.013-0.148,1.299,0.647,2.131c0.54,0.563,1.403,0.802,2.546,0.717
					c0.538-0.041,0.986-0.152,1.356-0.313c-0.159-0.161-0.283-0.331-0.378-0.494c-0.566-0.978-0.412-2.197,0.034-2.896
					c0.274-0.432,0.663-0.666,1.06-0.622c0.73,0.066,1.276,0.875,1.27,1.881c-0.005,0.739-0.315,1.575-1.076,2.17
					c0.437,0.212,0.987,0.304,1.636,0.274c0.803-0.038,1.465-0.214,2-0.473c-0.075-0.13-0.13-0.261-0.17-0.384
					c-0.375-1.173,0.319-2.597,0.965-3.174c0.345-0.306,0.689-0.403,0.98-0.277c0.479,0.215,0.699,0.895,0.548,1.691
					c-0.147,0.783-0.639,1.659-1.561,2.283c0.321,0.267,0.784,0.435,1.386,0.502c1.072,0.119,2.182-0.155,3.174-0.63
					c-0.261-0.275-0.397-0.57-0.466-0.835c-0.292-1.134,0.496-2.445,1.426-3.155c0.773-0.59,1.586-0.741,2.171-0.407
					c0.535,0.306,0.713,0.878,0.488,1.569c-0.306,0.94-1.336,2.077-2.688,2.896c0.355,0.182,0.807,0.315,1.347,0.396
					c2.2,0.327,4.169-0.079,5.564-0.734c-0.142-0.192-0.223-0.393-0.266-0.58c-0.216-0.95,0.472-1.972,1.233-2.372
					c0.521-0.275,1.035-0.225,1.369,0.137c0.351,0.381,0.385,0.892,0.095,1.439c-0.263,0.496-0.801,1.02-1.553,1.474
					c0.454,0.253,1.125,0.402,1.982,0.435c0.138,0.005,0.245,0.121,0.24,0.26c-0.005,0.135-0.116,0.24-0.25,0.24
					c-0.003,0-0.006,0-0.01,0c-1.237-0.047-2-0.313-2.464-0.658c-1.489,0.746-3.609,1.211-6.017,0.854
					c-0.804-0.119-1.375-0.341-1.78-0.606C119.512,278.389,118.445,278.708,117.375,278.708z M110.799,274.182
					c-0.263,0-0.459,0.244-0.555,0.396c-0.356,0.558-0.485,1.58-0.023,2.376c0.11,0.188,0.247,0.354,0.409,0.493
					c0.724-0.488,1.017-1.211,1.021-1.883c0.005-0.732-0.353-1.338-0.814-1.38C110.824,274.183,110.812,274.182,110.799,274.182z
					 M122.473,273.476c-0.349,0-0.762,0.165-1.176,0.481c-0.779,0.595-1.48,1.72-1.245,2.633c0.07,0.274,0.222,0.514,0.45,0.718
					c1.336-0.751,2.382-1.84,2.675-2.74c0.229-0.702-0.14-0.912-0.261-0.981C122.786,273.513,122.637,273.476,122.473,273.476z
					 M116.224,274.149c-0.097,0-0.237,0.073-0.384,0.205c-0.531,0.475-1.129,1.689-0.822,2.648c0.033,0.104,0.076,0.2,0.128,0.29
					c0.831-0.543,1.269-1.307,1.397-1.99c0.117-0.62-0.043-1.044-0.262-1.142C116.265,274.153,116.245,274.149,116.224,274.149z
					 M129.492,274.65c-0.146,0-0.294,0.056-0.416,0.12c-0.588,0.31-1.135,1.133-0.979,1.818c0.038,0.168,0.117,0.321,0.235,0.457
					c0.754-0.423,1.29-0.916,1.532-1.375c0.188-0.356,0.182-0.648-0.02-0.866C129.741,274.691,129.618,274.65,129.492,274.65z"/>
			</g>
		</g>
	</g>
	<g id="object_8_">
		<g>
			<circle fill="#F9B655" cx="522.401" cy="328.272" r="6.605"/>
		</g>
		<g>
			<circle fill="#F9B655" cx="536.491" cy="312.925" r="3.848"/>
		</g>
		<g>
			<circle fill="#F9B655" cx="348.029" cy="326.368" r="3.848"/>
		</g>
		<g>
			<circle fill="#F9B655" cx="524.453" cy="297.493" r="2.739"/>
		</g>
		<g>
			<circle fill="#F9B655" cx="360.624" cy="312.925" r="2.739"/>
		</g>
	</g>
	<g id="dog">
		<g>
			<path fill="#343A3A" d="M120.062,334.55c-4.938,0-8.601-3.072-8.788-3.232c-0.209-0.179-0.234-0.494-0.055-0.704
				c0.18-0.211,0.496-0.235,0.704-0.056c0.053,0.044,5.279,4.416,11.368,2.494c6.406-2.019,11.455-9.954,15.008-23.586
				c10.253-39.355,23.612-49.218,30.663-51.594c5.102-1.718,9.265-0.489,11.459,1.233c0.218,0.171,0.255,0.485,0.085,0.702
				c-0.171,0.219-0.487,0.253-0.702,0.085c-1.989-1.563-5.799-2.662-10.522-1.072c-6.859,2.312-19.88,11.997-30.016,50.897
				c-3.646,13.995-8.924,22.168-15.685,24.291C122.359,334.393,121.178,334.55,120.062,334.55z"/>
		</g>
		<g>
			<g>
				<path fill="#F0CFBD" d="M91.419,353.376c0,0-0.88,5.536,1.363,5.136c2.243-0.4,8.651-5.607,6.488-8.33
					C97.106,347.458,91.419,353.376,91.419,353.376z"/>
			</g>
			<g>
				<path fill="#F0CFBD" d="M70.353,351.577c0,0-1.562,6.727,1.682,6.611c3.244-0.117,2.504-4.584,5.527-6.611
					C80.585,349.55,70.353,351.577,70.353,351.577z"/>
			</g>
			<g>
				<path fill="#FFE9DE" d="M75.848,351.376c0,0,11.198,4.72,23.823,0.201c12.625-4.519-11.912-11.248-11.912-11.248l-14.311,7.85
					L75.848,351.376z"/>
			</g>
			<g>
				<path fill="#D35971" d="M107.039,308.294c0,0-2.684-5.432-3.405-7.114s-2.583,5.467-2.583,5.467S105.638,308.86,107.039,308.294
					z"/>
			</g>
			<g>
				<g>
					<path fill="#F0814A" d="M99.9,330.204c-5.767-7.609,0.731-12.303,8.18-12.062c7.449,0.24,8.41-6.488,4.726-6.728
						c-3.685-0.24-4.325-2.884-4.325-2.884c-3.702-0.325-10.722-3.704-13.245-4.971c-0.377-0.189-0.805,0.134-0.723,0.547
						c0.678,3.43,2.676,14.521,0.992,18.361c-2.002,4.566-9.131,9.692-14.898,9.452c-5.767-0.24-9.612-2.003-9.772-6.168
						c-0.16-4.165,4.165-5.687,4.165-5.687s-6.969-1.522-7.289,2.723c0,0-4.486,0.641-1.121,5.126c0,0-1.922,2.643,2.723,4.726
						c0,0-2.643,4.806-2.563,10.093c0.052,3.405-2.883,6.87-5.174,9.467c0.698-0.193,1.461-0.157,2.29,0.225
						c1.406,0.649,2.503,1.504,3.359,2.382c0.66-0.775,2.063-1.555,4.491-2.221c4.085-1.121,11.454-3.524,12.976-5.607
						c0,0,7.049-1.762,9.292-0.32c2.243,1.442,8.25,7.609,8.25,7.609s2.111,2.937,4.204,3.921c-0.038-1.52,0.393-3.708,2.724-5.403
						c0.837-0.609,1.749-0.982,2.667-1.208c-1.978-1.611-4.389-3.431-4.389-4.519c0-0.654,0.485-1.297,1.095-2.137
						c-1.098,1.086-1.816,1.736-1.816,1.736C110.002,341.53,105.667,337.813,99.9,330.204z"/>
				</g>
				<g>
					<path fill="#FFE9DE" d="M117.423,323.828c6.728-4.646,9.772-6.969,8.09-13.216c-1.682-6.248-5.927-3.765-5.927-3.765
						s-8.097,2.296-10.974,1.682c0,0,0.641,2.643,4.325,2.884c3.685,0.24,2.723,6.969-4.726,6.728
						c-7.449-0.24-14.658,3.524-8.891,11.134c5.767,7.609,10.813,12.255,7.529,17.382c0,0,0.718-0.651,1.816-1.736
						c1.035-1.425,2.429-3.416,2.429-6.994C111.095,332.239,110.695,328.474,117.423,323.828z"/>
				</g>
				<g>
					<path fill="#FFE9DE" d="M61.575,352.198c-1.266,1.435-2.339,2.608-2.596,3.349c-0.721,2.083,1.121,2.964,1.121,2.964h5.687
						c0,0,1.442-0.961,1.041-2.163c-0.162-0.487-0.055-1.014,0.395-1.543c-0.855-0.878-1.953-1.733-3.359-2.382
						C63.036,352.041,62.273,352.006,61.575,352.198z"/>
				</g>
				<g>
					<path fill="#FFE9DE" d="M106.569,358.188c0.421,0.198,0.84,0.324,1.242,0.324c2.403,0,7.209-2.803,6.648-4.405
						c-0.215-0.613-1.274-1.531-2.5-2.529c-0.918,0.226-1.83,0.599-2.667,1.208C106.962,354.48,106.531,356.667,106.569,358.188z"/>
				</g>
			</g>
			<g>
				<circle fill="#343A3A" cx="108.481" cy="314.056" r="1.762"/>
			</g>
			<g>
				<path fill="#D35971" d="M96.981,306.399l4.269,3.324c0.22,0.172,0.233,0.5,0.027,0.689l-0.872,0.798
					c-0.403,0.369-0.899,0.62-1.435,0.727l-1.329,0.266c-0.249,0.05-0.491-0.116-0.533-0.367l-0.849-5.005
					C96.191,306.425,96.657,306.146,96.981,306.399z"/>
			</g>
			<g>
				<path fill="#343A3A" d="M119.736,306.71c-0.302,2.761,3.873,5.097,5.781,4.439c1.908-0.657-0.015-6.124-1.336-6.244
					C122.858,304.785,119.736,306.71,119.736,306.71z"/>
			</g>
			<g>
				<path fill="#343A3A" d="M115.529,319.42c-0.184,0-0.36-0.102-0.448-0.278c-0.122-0.247-0.021-0.547,0.227-0.67
					c7.189-3.565,7.85-7.753,7.855-7.795c0.039-0.273,0.297-0.456,0.564-0.426c0.273,0.038,0.464,0.29,0.426,0.564
					c-0.026,0.192-0.743,4.754-8.402,8.553C115.68,319.403,115.604,319.42,115.529,319.42z"/>
			</g>
			<g>
				<path fill="#343A3A" d="M108.301,332.639c-4.211,0-7.624-1.024-10.177-3.062c-3.632-2.898-4.093-6.785-4.11-6.949
					c-0.09-0.824,0.506-1.563,1.329-1.653c0.819-0.09,1.559,0.502,1.652,1.321c0.048,0.385,1.249,8.689,14.431,7.151
					c0.828-0.095,1.567,0.494,1.663,1.317c0.096,0.822-0.494,1.567-1.317,1.663C110.562,332.569,109.403,332.639,108.301,332.639z"
					/>
			</g>
			<g>
				<circle fill="#F9B655" cx="113.16" cy="332.353" r="2.566"/>
			</g>
		</g>
	</g>
	<g id="woman_4_">
		<g>
			<path fill="#F99680" d="M221.484,189.889c0,0,9.295,5.556,15.072,13c5.778,7.444,9.444,12.444,9.444,12.444
				s4.444-10.222,7.778-18.667s6.741-11.185,8.444-11c1.704,0.185,10.111,1.63,12.815,1.63c0,0,0.111,2-2.593,1.704
				s-3.741-0.222-3.741-0.222s0.482,4.037-0.148,4.259c-0.63,0.222-3.074,1.037-3.074,1.037s-0.148-1,0.37-1.444
				c0,0-1.889,1.704-2.889,1.148c-1-0.556-3.13,4.811-3.407,10.294s-2.519,24.335-14.074,25.669
				c-11.556,1.333-23.704-38.019-23.704-38.019L221.484,189.889z"/>
		</g>
		<g>
			<path fill="#474F50" d="M223.409,165.037c0,0-5.407-5.704-8.889-3.519c-3.481,2.185-4.37,10.481-8.556,9.111
				c-4.185-1.37-17.185-1.63-15.519,11.815S197.668,198,191.112,203c0,0,8.333,3.222,11.333-7.111
				c3-10.333,12.134-10.372,12.134-10.372l10.708-10.698C225.288,174.819,235.26,164.677,223.409,165.037z"/>
		</g>
		<g>
			<path fill="#F99680" d="M225.409,172.741c0-3.58-2.902-6.481-6.482-6.481c-3.58,0-6.482,2.902-6.482,6.481
				c0,0.004,0.001,0.008,0.001,0.012c-0.041-0.002-0.08-0.012-0.121-0.012c-1.733,0-3.139,1.405-3.139,3.139
				s1.405,3.139,3.139,3.139c0.431,0,0.842-0.087,1.216-0.245v0c0.03,0.296,0.111,0.599,0.214,0.903
				c0.482,2.156,1.515,7.651,0.191,10.211c0,0,4.611,4.5,7.833,1.833c0,0-0.659-2.526-0.357-6.874v-0.001
				c1.425-0.848,3.106-2.33,3.302-3.347c0.278-1.444,0.645-8.045,0.645-8.045l-0.002,0
				C225.393,173.221,225.409,172.983,225.409,172.741z"/>
		</g>
		<g>
			<path fill="#F99680" d="M192.281,293.293c0,0-8.416-3.259-13.951-3.74c0,0-0.071-7.739,4.552-8.75c0,0,11.901,2.521,17.573,3.98
				C200.456,284.784,193.625,287.239,192.281,293.293z"/>
		</g>
		<g>
			<path fill="#F99680" d="M253.409,322.407c0,0,5.556,13.778,6.741,17.037c0,0,4.741,0.963,8-2.963l-4.444-14.815
				C263.705,321.667,260.223,324.63,253.409,322.407z"/>
		</g>
		<g>
			<path fill="#D35971" d="M198.977,284.413c0,0-9.187,0.514-10.36,7.588l3.187,1.113L198.977,284.413z"/>
		</g>
		<g>
			<path fill="#3C5E93" d="M213.945,189.889l-4.295,4.092l1.945,23.617c0,0,2.238,1.292,3.794,6.847s0.944,12.444,0.944,12.444
				s13.556-4.667,20.722-3.222c0,0-2-11.833-1.167-17.278s1.722-10.222-0.722-13.111c-2.444-2.889-10-6.722-13.389-11.556
				C221.779,191.722,218.779,193.167,213.945,189.889z"/>
		</g>
		<g>
			<path fill="#2C466D" d="M217.511,203c0,0,4.964,11.869-2.532,20.12c0,0-1.046-3.666-3.382-5.523L217.511,203z"/>
		</g>
		<g>
			<path fill="#F99680" d="M208.557,195.111c-4.111,4.444-21.111,25.222-22.667,27.444c-1.556,2.222-3.889,11.778-3.667,19.333
				c0.222,7.556,0,15.222-2.111,14.556c-2.111-0.667-1.667-4.778-3.222-4.778s-6.333,2.889-6.333,3.667c0,0.778-1.333,5.667,0,5.778
				c1.333,0.111,5.889,4,7.889,4s9.667-1.556,10.333-3c0.667-1.444,3.667-24.889,5.444-28.111
				c1.778-3.222,17.333-13.333,21.556-22.556C220.001,202.222,216.085,186.31,208.557,195.111z"/>
		</g>
		<g>
			<path fill="#D35971" d="M253.409,322.407l2.068,5.15c0,0,8.043-0.928,8.228-5.891L253.409,322.407z"/>
		</g>
		<g>
			<path fill="#474F50" d="M216.334,236.889c-2.704,11.815-5.765,19.222-0.975,32.556c4.79,13.333,7.016,19.259,6.125,19.259
				c-0.891,0-14.372-6.519-22.224-4.37c-7.852,2.148-7.556,6.593-7.407,9.185s19.556,9.852,26.37,12.963
				c6.815,3.111,16.63,4.889,18.833-1.926c2.204-6.815,3.241-15.556,3.241-15.556s5.481,28.889,13.111,33.407
				c7.63,4.519,10.296-0.741,10.296-0.741s2.222-10.889-4.148-30.741c-6.37-19.852-22.5-57.259-22.5-57.259
				S231.927,231.741,216.334,236.889z"/>
		</g>
		<g>
			<path fill="#3C5E93" d="M260.149,339.444l4.741,19.333h25.444c0,0-0.111-5.667-5.556-7.222
				c-5.444-1.556-12.45-1.143-16.762-15.516C268.017,336.04,266.075,339.111,260.149,339.444z"/>
		</g>
		<g>
			<path fill="#3C5E93" d="M182.882,280.804l-18.437-4.841l-4.593,33.63c0,0,6.519-0.296,7.852-7.259
				c1.333-6.963,5.478-13.725,10.626-12.779C178.33,289.554,179.541,281.941,182.882,280.804z"/>
		</g>
		<g>
			<path fill="#303535" d="M240.297,289c0.741-8-2.37-22.667-2.37-22.667s15.684,14.341,4.064,30.282L240.297,289z"/>
		</g>
		<g>
			<path fill="#D35971" d="M221.422,184.848c-2.05,1.189-5.087-1.663-5.087-1.663s0.774,5.333,5.016,4.592L221.422,184.848z"/>
		</g>
		<g>
			<path fill="#D35971" d="M213.038,176.833c0,0-0.556-3.148-3.093-1.574L213.038,176.833z"/>
		</g>
		<g>
			<ellipse fill="#D35971" cx="217.325" cy="177.546" rx="1.435" ry="0.824"/>
		</g>
		<g>
			<ellipse fill="#D35971" cx="223.696" cy="177.472" rx="1.435" ry="0.824"/>
		</g>
		<g>
			<path fill="#474F50" d="M210.616,173.249c0,0,7.079,3.679,12.065-5.785c0,0,0.135,5.24,2.727,5.277c0,0,0.518-2.85-0.741-5.277
				c-1.259-2.427-7.889-3.13-7.889-3.13l-3.741,4L210.616,173.249z"/>
		</g>
		<g>
			<circle fill="#474F50" cx="209.651" cy="163.519" r="3.574"/>
		</g>
		<g>
			<path fill="#474F50" d="M210.616,166.852c0,0-2.06,2.981-4.189,2.704c-2.13-0.278-4.704-1.585-7.519-0.413
				c0,0,2.352-0.532,4.852,0.339c2.5,0.87,4.786,1,5.995-0.556c1.209-1.556,1.279-2.111,1.279-2.111L210.616,166.852z"/>
		</g>
		<g>
			<circle fill="#474F50" cx="217.21" cy="175.246" r="0.58"/>
		</g>
		<g>
			<circle fill="#474F50" cx="223.696" cy="175.246" r="0.58"/>
		</g>
	</g>
</g>
</svg>
