<?xml version="1.0" encoding="utf-8"?>
<!-- Generator: Adobe Illustrator 25.1.0, SVG Export Plug-In . SVG Version: 6.00 Build 0)  -->
<svg version="1.1" id="Tirui" xmlns="http://www.w3.org/2000/svg" xmlns:xlink="http://www.w3.org/1999/xlink" x="0px" y="0px"
	 viewBox="0 0 600 400" enable-background="new 0 0 600 400" xml:space="preserve">
<g id="Speech_Recognition">
	<g id="background_6_">
		<circle fill="#FFF8EE" cx="446.322" cy="189.964" r="78.133"/>
		<path fill="#FFF8EE" d="M174.63,348.022c0,0-52.205-38.174-33.051-104.498s122.557-114.906,198.092-45.739
			s10.558,150.238,10.558,150.238H174.63z"/>
		<path fill="#BEE9EA" d="M118.714,348.022h403.714c0,0-87.469,17.216-218.733,17.216S118.714,348.022,118.714,348.022z"/>
	</g>
	<g id="grass_6_">
		<g>
			<g>
				<path fill="#A8A848" d="M364.133,348.022c0,0,1.573-18.769-10.827-23.012s9.414,23.012,9.414,23.012H364.133z"/>
			</g>
			<g>
				<path fill="#A8A848" d="M360.97,348.022c0,0-6.384-13.014-13.961-12.172c-7.577,0.842,11.926,12.172,11.926,12.172H360.97z"/>
			</g>
			<g>
				<path fill="#FFFFFF" d="M363.706,348.272c-0.106,0-0.205-0.068-0.238-0.175c-3.637-11.558-7.75-18.709-13.338-23.188
					c-0.107-0.087-0.125-0.244-0.039-0.352c0.087-0.107,0.245-0.125,0.352-0.039c5.67,4.546,9.834,11.771,13.502,23.429
					c0.042,0.132-0.031,0.272-0.163,0.313C363.756,348.268,363.73,348.272,363.706,348.272z"/>
			</g>
			<g>
				<path fill="#FFFFFF" d="M360.103,348.272c-0.076,0-0.151-0.035-0.2-0.101c-6.433-8.646-14.285-11.616-14.364-11.646
					c-0.129-0.048-0.195-0.191-0.147-0.321c0.048-0.129,0.187-0.195,0.321-0.147c0.08,0.029,8.071,3.053,14.591,11.815
					c0.083,0.111,0.06,0.268-0.051,0.35C360.207,348.257,360.154,348.272,360.103,348.272z"/>
			</g>
		</g>
		<g>
			<g>
				<g>
					<polygon fill="#A8A848" points="440.194,348.022 477.22,348.022 476.026,339.435 467.719,340.256 474.689,335.275 
						470.106,328.305 462.754,334.473 466.955,325.918 460.844,321.526 455.975,331.032 457.693,320.386 449.004,318.299 
						447.286,329.451 446.235,318.299 437.737,318.299 					"/>
				</g>
				<g>
					<path fill="#FFFFFF" d="M476.682,344.4h-36.808c-0.138,0-0.25-0.112-0.25-0.25s0.112-0.25,0.25-0.25h36.808
						c0.138,0,0.25,0.112,0.25,0.25S476.819,344.4,476.682,344.4z"/>
				</g>
				<g>
					<path fill="#FFFFFF" d="M449.936,344.4c-0.01,0-0.021-0.001-0.03-0.002c-0.138-0.017-0.234-0.142-0.218-0.278l3.057-24.894
						c0.017-0.137,0.14-0.234,0.278-0.218c0.138,0.017,0.234,0.142,0.218,0.278l-3.057,24.894
						C450.168,344.307,450.061,344.4,449.936,344.4z"/>
				</g>
				<g>
					<path fill="#FFFFFF" d="M452.992,344.4c-0.041,0-0.082-0.01-0.12-0.031c-0.121-0.065-0.165-0.218-0.099-0.339l11.115-20.279
						c0.065-0.122,0.22-0.166,0.339-0.099c0.121,0.065,0.165,0.218,0.099,0.339l-11.115,20.279
						C453.166,344.353,453.08,344.4,452.992,344.4z"/>
				</g>
				<g>
					<path fill="#FFFFFF" d="M458.277,344.4c-0.069,0-0.138-0.028-0.188-0.084c-0.091-0.104-0.082-0.262,0.021-0.354l14.063-12.446
						c0.104-0.092,0.262-0.081,0.354,0.021c0.091,0.104,0.082,0.262-0.021,0.354l-14.063,12.446
						C458.396,344.38,458.336,344.4,458.277,344.4z"/>
				</g>
				<g>
					<path fill="#FFFFFF" d="M443.132,344.4c-0.131,0-0.24-0.102-0.249-0.233l-1.719-25.851c-0.01-0.138,0.095-0.257,0.232-0.266
						c0.154-0.016,0.257,0.096,0.266,0.232l1.719,25.851c0.01,0.138-0.095,0.257-0.232,0.266
						C443.143,344.4,443.137,344.4,443.132,344.4z"/>
				</g>
			</g>
			<g>
				<g>
					<polygon fill="#A8A848" points="443.866,348.022 406.84,348.022 408.034,339.435 416.341,340.256 409.371,335.275 
						413.954,328.305 421.306,334.473 417.105,325.918 423.216,321.526 428.085,331.032 426.367,320.386 435.055,318.299 
						436.774,329.451 437.824,318.299 446.322,318.299 					"/>
				</g>
				<g>
					<path fill="#FFFFFF" d="M444.187,344.4h-36.808c-0.138,0-0.25-0.112-0.25-0.25s0.112-0.25,0.25-0.25h36.808
						c0.138,0,0.25,0.112,0.25,0.25S444.324,344.4,444.187,344.4z"/>
				</g>
				<g>
					<path fill="#FFFFFF" d="M434.125,344.4c-0.125,0-0.232-0.093-0.248-0.22l-3.058-24.894c-0.017-0.137,0.08-0.262,0.218-0.278
						c0.134-0.019,0.261,0.081,0.278,0.218l3.058,24.894c0.017,0.137-0.08,0.262-0.218,0.278
						C434.146,344.399,434.135,344.4,434.125,344.4z"/>
				</g>
				<g>
					<path fill="#FFFFFF" d="M431.067,344.4c-0.088,0-0.174-0.047-0.219-0.13l-11.115-20.279c-0.066-0.121-0.022-0.273,0.099-0.339
						c0.12-0.067,0.272-0.023,0.339,0.099l11.115,20.279c0.066,0.121,0.022,0.273-0.099,0.339
						C431.149,344.39,431.108,344.4,431.067,344.4z"/>
				</g>
				<g>
					<path fill="#FFFFFF" d="M425.782,344.4c-0.059,0-0.118-0.021-0.166-0.062l-14.063-12.446c-0.104-0.092-0.112-0.25-0.021-0.354
						c0.093-0.103,0.249-0.113,0.354-0.021l14.063,12.446c0.104,0.092,0.112,0.25,0.021,0.354
						C425.92,344.372,425.852,344.4,425.782,344.4z"/>
				</g>
				<g>
					<path fill="#FFFFFF" d="M440.928,344.4c-0.005,0-0.011,0-0.017-0.001c-0.138-0.009-0.242-0.128-0.232-0.266l1.719-25.851
						c0.01-0.137,0.106-0.245,0.266-0.232c0.138,0.009,0.242,0.128,0.232,0.266l-1.719,25.851
						C441.168,344.298,441.059,344.4,440.928,344.4z"/>
				</g>
			</g>
		</g>
		<g>
			<g>
				<path fill="#A8A848" d="M170.963,304.061c0,0-38.134,8.628-40.579,43.961h41.514
					C171.898,348.022,170.676,322.579,170.963,304.061z"/>
			</g>
			<g>
				<path fill="#FFFFFF" d="M169.857,348.272c-0.124,0-0.231-0.092-0.248-0.218l-5.439-41.852c-0.018-0.137,0.079-0.263,0.216-0.28
					c0.134-0.016,0.262,0.079,0.28,0.216l5.439,41.852c0.018,0.137-0.079,0.263-0.216,0.28
					C169.879,348.271,169.868,348.272,169.857,348.272z"/>
			</g>
			<g>
				<path fill="#FFFFFF" d="M166.236,348.272c-0.109,0-0.209-0.072-0.24-0.182l-10.668-37.673c-0.038-0.133,0.039-0.271,0.172-0.309
					c0.14-0.039,0.271,0.04,0.309,0.172l10.668,37.673c0.038,0.133-0.039,0.271-0.172,0.309
					C166.281,348.269,166.259,348.272,166.236,348.272z"/>
			</g>
			<g>
				<path fill="#FFFFFF" d="M162.977,348.272c-0.094,0-0.184-0.053-0.227-0.144l-15.221-32.433c-0.059-0.125-0.005-0.274,0.12-0.333
					c0.124-0.055,0.273-0.006,0.333,0.12l15.221,32.433c0.059,0.125,0.005,0.274-0.12,0.333
					C163.049,348.264,163.013,348.272,162.977,348.272z"/>
			</g>
			<g>
				<path fill="#FFFFFF" d="M160.014,348.272c-0.075,0-0.149-0.034-0.198-0.098l-19.479-25.443c-0.084-0.11-0.063-0.267,0.046-0.351
					c0.111-0.085,0.268-0.062,0.351,0.046l19.479,25.443c0.084,0.11,0.063,0.267-0.046,0.351
					C160.12,348.256,160.066,348.272,160.014,348.272z"/>
			</g>
			<g>
				<path fill="#FFFFFF" d="M156.606,348.272c-0.06,0-0.12-0.021-0.168-0.065l-20.694-18.801c-0.103-0.093-0.11-0.25-0.017-0.353
					c0.092-0.103,0.251-0.11,0.353-0.017l20.694,18.801c0.103,0.093,0.11,0.25,0.017,0.353
					C156.742,348.245,156.675,348.272,156.606,348.272z"/>
			</g>
			<g>
				<path fill="#FFFFFF" d="M152.458,348.272c-0.047,0-0.095-0.014-0.137-0.041l-19.378-12.722c-0.116-0.076-0.148-0.23-0.072-0.346
					s0.231-0.146,0.346-0.072l19.378,12.722c0.116,0.076,0.148,0.23,0.072,0.346C152.619,348.232,152.539,348.272,152.458,348.272z"
					/>
			</g>
			<g>
				<path fill="#FFFFFF" d="M145.347,348.272c-0.034,0-0.069-0.007-0.103-0.022l-14.095-6.36c-0.126-0.057-0.182-0.204-0.125-0.33
					c0.055-0.126,0.204-0.185,0.33-0.125l14.095,6.36c0.126,0.057,0.183,0.204,0.125,0.33
					C145.533,348.217,145.441,348.272,145.347,348.272z"/>
			</g>
		</g>
	</g>
	<g id="woman_wear_green_tshirt">
		<path fill="#ED5526" d="M544.487,204.681c-9.222-16.111-26.889-14.444-41.889-15.889c-3.428-0.33-6.16-1.093-8.417-2.155
			c1.222,0.318,2.562,0.533,4.047,0.599c13.333,0.593,26.148,1.778,26.148,1.778c-8.593-2-20.37-1.482-27.63-3.5
			c-7.259-2.018-14.099-10.953-14.099-10.953v0c-0.941-1.406-1.922-2.795-3.049-4.104c-6.222-7.222-14.111,0.556-14.111,0.556
			s-3.445-3.296-7.333-1.63c0,0,3.082-1.04,6.113,1.286c-2.332-0.57-7.32-1.335-8.668,2.122c-1.778,4.556,0.473,7.584,0.473,7.584
			l10.039,13.506c0,0,7.377-2.312,13.488,7.244s13.333,27,36.555,35C539.375,244.126,553.709,220.793,544.487,204.681z"/>
		<path fill="#81813B" d="M455.112,195.456c0,0-5.7,3.04-8.793,1.67l-14.611,6.056c0,0,1.327,2.315,3.423,3.87
			s14.244,1.444,17.355-1.667C455.598,202.274,455.112,195.456,455.112,195.456z"/>
		<path fill="#F99680" d="M471.852,181.352c0.047-0.347,0.079-0.699,0.079-1.059c0-4.142-3.184-7.5-7.111-7.5
			c-2.34,0-4.41,1.198-5.706,3.038l-0.002-0.001c0,0-6.737,8.852-5.404,11.963c0.391,0.911,1.455,1.668,2.865,2.167l-0.013,0.005
			c0,0,0.26,3.828-1.796,5.884c0,0,1.778,3.778,9.389,1.833c0,0,3.54-6.551,4.504-9.667c0-0.002,0.001-0.003,0.001-0.004
			c0.606,0.421,1.34,0.671,2.134,0.671c2.071,0,3.75-1.679,3.75-3.75C474.542,183.231,473.403,181.812,471.852,181.352z"/>
		<path fill="#A8A848" d="M441.653,205.947c0,0,9.389-4.487,13.111-10.099c0,0,13.278-4.846,17.722,5.049
			c4.444,9.895,1.111,27.673-1.889,38.673s-8.222,19.222-8.222,19.222s-12.222-12.667-22-16.667c-9.778-4-21.111-5.444-21.111-5.444
			s11.222-11.778,13-15.111C434.042,218.237,441.653,205.947,441.653,205.947z"/>
		<path fill="#81813B" d="M448.986,223.348l0.833,1.889c0,0,5.488-1.778,9.466-4.667c0,0-11.227,22.325-22.433,3.411
			L448.986,223.348z"/>
		<path fill="#F99680" d="M441.653,205.947c0,0-7.278,2.735-14.778-0.376s-17.056-6.444-25.444-5s-15.833,8-15.833,8
			s1.056,1.167,2.667,0.333c1.611-0.833,4.722-1.944,4.722-1.944s0.167,2.111,0.889,2.889c0.722,0.778,4.944,1.444,5.278,1.222
			c0.333-0.222,0.333-0.222,0.333-0.222l3.667-1.889c0,0-0.222-1.167-1.222-1c0,0,1.889-0.722,1.944-1.556
			c0.056-0.833,1.944-0.944,8.667,4.278c6.722,5.222,21.167,17.5,36.444,12.667L441.653,205.947z"/>
		<path fill="#F99680" d="M431.709,203.181c0,0,9.944-0.5,14.611-6.056c0,0-6.389-3.611-11.167-7.944
			c-4.778-4.333-8.833-8.389-13.889-8.722c-5.056-0.333-16.667,0.444-16.667,0.444s-0.111,1.5,1.722,1.722
			c1.833,0.222,6.167,0.889,6.167,0.889s-0.278,4.111,0.333,4.444s4.472,1.556,4.472,1.556s0.75-0.944,0-1.444
			c0,0,2.361,0.5,3.083-0.889c0.722-1.389,4.167,1.833,5.944,6.444S431.709,203.181,431.709,203.181z"/>
		<path fill="#F99680" d="M373.672,296.274c0,0,4.667,6.296,8.074,9.556c3.407,3.259,7.852,9.185,5.63,14.148
			c-2.222,4.963-5.704,7.926-5.704,7.926s3.037,1.259,5.259,0c2.222-1.259,5.185-5.259,8-6.37s6.593-2.519,4.296-5.259
			c-2.296-2.741-4.519-4-5.778-6.815c-1.259-2.815-3.852-13.63-6.148-21.259C387.301,288.2,383.82,296.644,373.672,296.274z"/>
		<path fill="#D35971" d="M373.672,296.274l3.617,4.61c0,0,9.328,0.89,10.013-12.684L373.672,296.274z"/>
		<path fill="#F99680" d="M351.635,276.57c0,0,1.185,9.037,7.407,13.482c0,0-2.296,4-8.296,10.148
			c-6,6.148-5.259,11.704-7.333,12.222s-4.593-2.519-9.185-3.556c-4.593-1.037-10.741-0.963-10.741-4.815
			c0,0,3.02,0.444,7.584,0.074s9.453-1.407,10.638-3.704S350.672,283.237,351.635,276.57z"/>
		<path fill="#D35971" d="M351.635,276.57c0,0-2.204,10.346,4.518,17.534c0,0,2.278-3.016,2.889-4.053
			C359.653,289.015,351.635,276.57,351.635,276.57z"/>
		<path fill="#474F50" d="M419.264,236.681c0,0-14.593-2.185-29.111-1.296c-14.519,0.889-25.63,7.111-31.111,17.926
			s-7.407,23.259-7.407,23.259s0.889,12,7.407,13.482c6.519,1.481,8.741-5.63,8.741-5.63s0.963,9.926,5.889,11.852
			c4.926,1.926,12.111-2.074,13.63-8.074s1.963-12.963,1.074-18.741c-0.889-5.778,3.701-6.37,16.221-1.778
			c12.52,4.593,43.335,10.37,57.779-8.889C462.375,258.793,449.709,239.311,419.264,236.681z"/>
		<path fill="#ED5526" d="M474.332,183.699c-4.104,1.686-12.261-2.758-10.294-9.721c0,0-3.682,4.386-6.366,3.879
			c-2.684-0.507,2.555-5.287,4.259-5.879s7.111-1.037,9.259,1.926C473.338,176.867,474.332,183.699,474.332,183.699z"/>
		<path fill="#F0814A" d="M463.829,177.204c0,0,0.064,2.81,2.546,4.996c0,0-4.203-1.556-2.546-8.259h0.62L463.829,177.204z"/>
		<path fill="#D35971" d="M456.56,189.964c2.63,1.014,5.89,0.754,5.89,0.754s-1.284,3.397-6.327,2.754
			C456.122,193.473,456.855,191.839,456.56,189.964z"/>
		<path fill="#D35971" d="M469.82,185.959c0,0,0.833-2.444,3.333-0.667L469.82,185.959z"/>
		
			<ellipse transform="matrix(0.4429 -0.8966 0.8966 0.4429 91.6179 515.5668)" fill="#D35971" cx="460.695" cy="184.057" rx="1.222" ry="1.861"/>
		
			<ellipse transform="matrix(0.4429 -0.8966 0.8966 0.4429 91.225 510.114)" fill="#D35971" cx="456.11" cy="181.647" rx="0.768" ry="1.169"/>
		<path fill="#D35971" d="M431.709,203.181l-1.328-1.948c0,0,6.105-5.607,15.939-4.107
			C446.32,197.126,442.375,202.385,431.709,203.181z"/>
		<path fill="#D35971" d="M441.653,205.947c0,0,2.818,9.109-1.063,18.477c0,0,4.563,0.424,8.396-1.076L441.653,205.947z"/>
		<circle fill="#81813B" cx="460.602" cy="205.426" r="3.681"/>
		<path fill="#303535" d="M367.783,284.422c-0.852-7.074,0-21.63,0-21.63S354.301,270.385,367.783,284.422z"/>
		<path fill="#303535" d="M388.523,266.603c1.926-8.181,8.327-8.493,13.423,0.144C401.946,266.748,390.598,261.969,388.523,266.603z
			"/>
		<circle fill="#474F50" cx="457.188" cy="180.299" r="0.368"/>
		<circle fill="#474F50" cx="461.116" cy="181.793" r="0.667"/>
	</g>
	<g id="audio">
		<linearGradient id="SVGID_1_" gradientUnits="userSpaceOnUse" x1="119.1964" y1="108.0661" x2="482.9599" y2="108.0661">
			<stop  offset="0.0168" style="stop-color:#CE338A"/>
			<stop  offset="0.1414" style="stop-color:#D5337D"/>
			<stop  offset="0.3929" style="stop-color:#E13369"/>
			<stop  offset="0.5624" style="stop-color:#E53362"/>
			<stop  offset="1" style="stop-color:#F7941D"/>
		</linearGradient>
		<path fill="url(#SVGID_1_)" d="M119.196,98.166c0,0,15.06,0.436,24.967-10.153c9.907-10.588,26.095-36.671,44.668-31.407
			s32.795,34.153,51.906,25.264s46.444-38.667,71-33.333s33.741,37.778,56.704,32.889c22.963-4.889,48.34-30.222,70.762-6.222
			s20.645,44.844,43.756,42.644c0,0-3.111,10.689-19.556,8.911c-16.444-1.778-30.157-24.715-46.634,4.726
			c-16.477,29.441-36.954-3.274-50.049,0c-13.095,3.274-29.54,37.729-70.428,36.724c-40.889-1.005-47.074-37.331-60.87-36.724
			s-22.537,27.446-55.278,13.804S145.211,102.018,119.196,98.166z"/>
		<g>
			<g>
				<path fill="#FFFFFF" d="M169.078,112.093c-0.276,0-0.5-0.224-0.5-0.5V99.885c0-0.276,0.224-0.5,0.5-0.5s0.5,0.224,0.5,0.5
					v11.708C169.578,111.87,169.354,112.093,169.078,112.093z"/>
			</g>
			<g>
				<path fill="#FFFFFF" d="M173.078,114.177c-0.276,0-0.5-0.224-0.5-0.5V97.801c0-0.276,0.224-0.5,0.5-0.5s0.5,0.224,0.5,0.5
					v15.876C173.578,113.954,173.354,114.177,173.078,114.177z"/>
			</g>
			<g>
				<path fill="#FFFFFF" d="M177.078,115.01c-0.276,0-0.5-0.224-0.5-0.5V96.968c0-0.276,0.224-0.5,0.5-0.5s0.5,0.224,0.5,0.5v17.542
					C177.578,114.787,177.354,115.01,177.078,115.01z"/>
			</g>
			<g>
				<path fill="#FFFFFF" d="M181.078,115.289c-0.276,0-0.5-0.224-0.5-0.5V96.69c0-0.276,0.224-0.5,0.5-0.5s0.5,0.224,0.5,0.5v18.099
					C181.578,115.065,181.354,115.289,181.078,115.289z"/>
			</g>
			<g>
				<path fill="#FFFFFF" d="M185.078,113.24c-0.276,0-0.5-0.224-0.5-0.5v-14c0-0.276,0.224-0.5,0.5-0.5s0.5,0.224,0.5,0.5v14
					C185.578,113.016,185.354,113.24,185.078,113.24z"/>
			</g>
			<g>
				<path fill="#FFFFFF" d="M189.078,112.316c-0.276,0-0.5-0.224-0.5-0.5V99.663c0-0.276,0.224-0.5,0.5-0.5s0.5,0.224,0.5,0.5
					v12.153C189.578,112.092,189.354,112.316,189.078,112.316z"/>
			</g>
			<g>
				<path fill="#FFFFFF" d="M193.078,110.733c-0.276,0-0.5-0.224-0.5-0.5v-8.987c0-0.276,0.224-0.5,0.5-0.5s0.5,0.224,0.5,0.5v8.987
					C193.578,110.509,193.354,110.733,193.078,110.733z"/>
			</g>
			<g>
				<path fill="#FFFFFF" d="M197.078,109.066c-0.276,0-0.5-0.224-0.5-0.5v-5.653c0-0.276,0.224-0.5,0.5-0.5s0.5,0.224,0.5,0.5v5.653
					C197.578,108.842,197.354,109.066,197.078,109.066z"/>
			</g>
			<g>
				<path fill="#FFFFFF" d="M201.078,109.399c-0.276,0-0.5-0.224-0.5-0.5v-6.319c0-0.276,0.224-0.5,0.5-0.5s0.5,0.224,0.5,0.5v6.319
					C201.578,109.175,201.354,109.399,201.078,109.399z"/>
			</g>
			<g>
				<path fill="#FFFFFF" d="M205.078,109.705c-0.276,0-0.5-0.224-0.5-0.5v-6.931c0-0.276,0.224-0.5,0.5-0.5s0.5,0.224,0.5,0.5v6.931
					C205.578,109.481,205.354,109.705,205.078,109.705z"/>
			</g>
			<g>
				<path fill="#FFFFFF" d="M209.078,109.983c-0.276,0-0.5-0.224-0.5-0.5v-7.487c0-0.276,0.224-0.5,0.5-0.5s0.5,0.224,0.5,0.5v7.487
					C209.578,109.759,209.354,109.983,209.078,109.983z"/>
			</g>
			<g>
				<path fill="#FFFFFF" d="M213.078,110.289c-0.276,0-0.5-0.224-0.5-0.5v-8.099c0-0.276,0.224-0.5,0.5-0.5s0.5,0.224,0.5,0.5v8.099
					C213.578,110.065,213.354,110.289,213.078,110.289z"/>
			</g>
			<g>
				<path fill="#FFFFFF" d="M217.078,110.843c-0.276,0-0.5-0.224-0.5-0.5v-9.208c0-0.276,0.224-0.5,0.5-0.5s0.5,0.224,0.5,0.5v9.208
					C217.578,110.62,217.354,110.843,217.078,110.843z"/>
			</g>
			<g>
				<path fill="#FFFFFF" d="M221.078,111.122c-0.276,0-0.5-0.224-0.5-0.5v-9.765c0-0.276,0.224-0.5,0.5-0.5s0.5,0.224,0.5,0.5v9.765
					C221.578,110.898,221.354,111.122,221.078,111.122z"/>
			</g>
			<g>
				<path fill="#FFFFFF" d="M225.078,111.789c-0.276,0-0.5-0.224-0.5-0.5V100.19c0-0.276,0.224-0.5,0.5-0.5s0.5,0.224,0.5,0.5
					v11.099C225.578,111.565,225.354,111.789,225.078,111.789z"/>
			</g>
			<g>
				<path fill="#FFFFFF" d="M229.078,112.233c-0.276,0-0.5-0.224-0.5-0.5V99.746c0-0.276,0.224-0.5,0.5-0.5s0.5,0.224,0.5,0.5
					v11.987C229.578,112.009,229.354,112.233,229.078,112.233z"/>
			</g>
			<g>
				<path fill="#FFFFFF" d="M233.078,112.872c-0.276,0-0.5-0.224-0.5-0.5V99.107c0-0.276,0.224-0.5,0.5-0.5s0.5,0.224,0.5,0.5
					v13.265C233.578,112.648,233.354,112.872,233.078,112.872z"/>
			</g>
			<g>
				<path fill="#FFFFFF" d="M237.078,113.593c-0.276,0-0.5-0.224-0.5-0.5V98.385c0-0.276,0.224-0.5,0.5-0.5s0.5,0.224,0.5,0.5
					v14.708C237.578,113.37,237.354,113.593,237.078,113.593z"/>
			</g>
			<g>
				<path fill="#FFFFFF" d="M241.078,114.26c-0.276,0-0.5-0.224-0.5-0.5V97.718c0-0.276,0.224-0.5,0.5-0.5s0.5,0.224,0.5,0.5v16.042
					C241.578,114.037,241.354,114.26,241.078,114.26z"/>
			</g>
			<g>
				<path fill="#FFFFFF" d="M245.078,114.455c-0.276,0-0.5-0.224-0.5-0.5V97.524c0-0.276,0.224-0.5,0.5-0.5s0.5,0.224,0.5,0.5
					v16.431C245.578,114.231,245.354,114.455,245.078,114.455z"/>
			</g>
			<g>
				<path fill="#FFFFFF" d="M249.078,114.149c-0.276,0-0.5-0.224-0.5-0.5V97.83c0-0.276,0.224-0.5,0.5-0.5s0.5,0.224,0.5,0.5v15.819
					C249.578,113.925,249.354,114.149,249.078,114.149z"/>
			</g>
			<g>
				<path fill="#FFFFFF" d="M253.078,113.24c-0.276,0-0.5-0.224-0.5-0.5v-14c0-0.276,0.224-0.5,0.5-0.5s0.5,0.224,0.5,0.5v14
					C253.578,113.016,253.354,113.24,253.078,113.24z"/>
			</g>
			<g>
				<path fill="#FFFFFF" d="M257.078,112.289c-0.276,0-0.5-0.224-0.5-0.5V99.69c0-0.276,0.224-0.5,0.5-0.5s0.5,0.224,0.5,0.5v12.099
					C257.578,112.065,257.354,112.289,257.078,112.289z"/>
			</g>
			<g>
				<path fill="#FFFFFF" d="M261.078,111.316c-0.276,0-0.5-0.224-0.5-0.5v-10.153c0-0.276,0.224-0.5,0.5-0.5s0.5,0.224,0.5,0.5
					v10.153C261.578,111.092,261.354,111.316,261.078,111.316z"/>
			</g>
			<g>
				<path fill="#FFFFFF" d="M265.078,110.872c-0.276,0-0.5-0.224-0.5-0.5v-9.265c0-0.276,0.224-0.5,0.5-0.5s0.5,0.224,0.5,0.5v9.265
					C265.578,110.648,265.354,110.872,265.078,110.872z"/>
			</g>
			<g>
				<path fill="#FFFFFF" d="M269.078,109.927c-0.276,0-0.5-0.224-0.5-0.5v-7.376c0-0.276,0.224-0.5,0.5-0.5s0.5,0.224,0.5,0.5v7.376
					C269.578,109.704,269.354,109.927,269.078,109.927z"/>
			</g>
			<g>
				<path fill="#FFFFFF" d="M273.078,108.566c-0.276,0-0.5-0.224-0.5-0.5v-4.653c0-0.276,0.224-0.5,0.5-0.5s0.5,0.224,0.5,0.5v4.653
					C273.578,108.342,273.354,108.566,273.078,108.566z"/>
			</g>
			<g>
				<path fill="#FFFFFF" d="M277.078,108.76c-0.276,0-0.5-0.224-0.5-0.5v-5.042c0-0.276,0.224-0.5,0.5-0.5s0.5,0.224,0.5,0.5v5.042
					C277.578,108.537,277.354,108.76,277.078,108.76z"/>
			</g>
			<g>
				<path fill="#FFFFFF" d="M281.078,109.455c-0.276,0-0.5-0.224-0.5-0.5v-6.431c0-0.276,0.224-0.5,0.5-0.5s0.5,0.224,0.5,0.5v6.431
					C281.578,109.231,281.354,109.455,281.078,109.455z"/>
			</g>
			<g>
				<path fill="#FFFFFF" d="M285.078,109.927c-0.276,0-0.5-0.224-0.5-0.5v-7.376c0-0.276,0.224-0.5,0.5-0.5s0.5,0.224,0.5,0.5v7.376
					C285.578,109.704,285.354,109.927,285.078,109.927z"/>
			</g>
			<g>
				<path fill="#FFFFFF" d="M289.078,110.372c-0.276,0-0.5-0.224-0.5-0.5v-8.265c0-0.276,0.224-0.5,0.5-0.5s0.5,0.224,0.5,0.5v8.265
					C289.578,110.148,289.354,110.372,289.078,110.372z"/>
			</g>
			<g>
				<path fill="#FFFFFF" d="M293.078,111.399c-0.276,0-0.5-0.224-0.5-0.5V100.58c0-0.276,0.224-0.5,0.5-0.5s0.5,0.224,0.5,0.5
					v10.319C293.578,111.175,293.354,111.399,293.078,111.399z"/>
			</g>
			<g>
				<path fill="#FFFFFF" d="M297.078,112.326c-0.276,0-0.5-0.224-0.5-0.5V99.653c0-0.276,0.224-0.5,0.5-0.5s0.5,0.224,0.5,0.5
					v12.173C297.578,112.102,297.354,112.326,297.078,112.326z"/>
			</g>
			<g>
				<path fill="#FFFFFF" d="M301.078,113.955c-0.276,0-0.5-0.224-0.5-0.5V98.024c0-0.276,0.224-0.5,0.5-0.5s0.5,0.224,0.5,0.5
					v15.431C301.578,113.731,301.354,113.955,301.078,113.955z"/>
			</g>
			<g>
				<path fill="#FFFFFF" d="M305.078,114.881c-0.276,0-0.5-0.224-0.5-0.5V97.098c0-0.276,0.224-0.5,0.5-0.5s0.5,0.224,0.5,0.5
					v17.282C305.578,114.657,305.354,114.881,305.078,114.881z"/>
			</g>
			<g>
				<path fill="#FFFFFF" d="M309.078,115.066c-0.276,0-0.5-0.224-0.5-0.5V96.913c0-0.276,0.224-0.5,0.5-0.5s0.5,0.224,0.5,0.5
					v17.653C309.578,114.842,309.354,115.066,309.078,115.066z"/>
			</g>
			<g>
				<path fill="#FFFFFF" d="M313.078,115.696c-0.276,0-0.5-0.224-0.5-0.5V96.283c0-0.276,0.224-0.5,0.5-0.5s0.5,0.224,0.5,0.5
					v18.913C313.578,115.472,313.354,115.696,313.078,115.696z"/>
			</g>
			<g>
				<path fill="#FFFFFF" d="M317.078,115.289c-0.276,0-0.5-0.224-0.5-0.5V96.69c0-0.276,0.224-0.5,0.5-0.5s0.5,0.224,0.5,0.5v18.099
					C317.578,115.065,317.354,115.289,317.078,115.289z"/>
			</g>
			<g>
				<path fill="#FFFFFF" d="M321.078,114.881c-0.276,0-0.5-0.224-0.5-0.5V97.098c0-0.276,0.224-0.5,0.5-0.5s0.5,0.224,0.5,0.5
					v17.282C321.578,114.657,321.354,114.881,321.078,114.881z"/>
			</g>
			<g>
				<path fill="#FFFFFF" d="M325.078,113.24c-0.276,0-0.5-0.224-0.5-0.5v-14c0-0.276,0.224-0.5,0.5-0.5s0.5,0.224,0.5,0.5v14
					C325.578,113.016,325.354,113.24,325.078,113.24z"/>
			</g>
			<g>
				<path fill="#FFFFFF" d="M329.078,112.539c-0.276,0-0.5-0.224-0.5-0.5V99.44c0-0.276,0.224-0.5,0.5-0.5s0.5,0.224,0.5,0.5v12.599
					C329.578,112.315,329.354,112.539,329.078,112.539z"/>
			</g>
			<g>
				<path fill="#FFFFFF" d="M333.078,110.77c-0.276,0-0.5-0.224-0.5-0.5v-9.062c0-0.276,0.224-0.5,0.5-0.5s0.5,0.224,0.5,0.5v9.062
					C333.578,110.547,333.354,110.77,333.078,110.77z"/>
			</g>
			<g>
				<path fill="#FFFFFF" d="M337.078,109.733c-0.276,0-0.5-0.224-0.5-0.5v-6.987c0-0.276,0.224-0.5,0.5-0.5s0.5,0.224,0.5,0.5v6.987
					C337.578,109.509,337.354,109.733,337.078,109.733z"/>
			</g>
			<g>
				<path fill="#FFFFFF" d="M341.078,108.899c-0.276,0-0.5-0.224-0.5-0.5v-5.319c0-0.276,0.224-0.5,0.5-0.5s0.5,0.224,0.5,0.5v5.319
					C341.578,108.675,341.354,108.899,341.078,108.899z"/>
			</g>
			<g>
				<path fill="#FFFFFF" d="M345.078,109.01c-0.276,0-0.5-0.224-0.5-0.5v-5.542c0-0.276,0.224-0.5,0.5-0.5s0.5,0.224,0.5,0.5v5.542
					C345.578,108.787,345.354,109.01,345.078,109.01z"/>
			</g>
			<g>
				<path fill="#FFFFFF" d="M349.078,109.01c-0.276,0-0.5-0.224-0.5-0.5v-5.542c0-0.276,0.224-0.5,0.5-0.5s0.5,0.224,0.5,0.5v5.542
					C349.578,108.787,349.354,109.01,349.078,109.01z"/>
			</g>
			<g>
				<path fill="#FFFFFF" d="M353.078,110.455c-0.276,0-0.5-0.224-0.5-0.5v-8.431c0-0.276,0.224-0.5,0.5-0.5s0.5,0.224,0.5,0.5v8.431
					C353.578,110.231,353.354,110.455,353.078,110.455z"/>
			</g>
			<g>
				<path fill="#FFFFFF" d="M357.078,111.177c-0.276,0-0.5-0.224-0.5-0.5v-9.876c0-0.276,0.224-0.5,0.5-0.5s0.5,0.224,0.5,0.5v9.876
					C357.578,110.954,357.354,111.177,357.078,111.177z"/>
			</g>
			<g>
				<path fill="#FFFFFF" d="M361.078,112.539c-0.276,0-0.5-0.224-0.5-0.5V99.44c0-0.276,0.224-0.5,0.5-0.5s0.5,0.224,0.5,0.5v12.599
					C361.578,112.315,361.354,112.539,361.078,112.539z"/>
			</g>
			<g>
				<path fill="#FFFFFF" d="M365.078,114.399c-0.276,0-0.5-0.224-0.5-0.5V97.58c0-0.276,0.224-0.5,0.5-0.5s0.5,0.224,0.5,0.5v16.319
					C365.578,114.175,365.354,114.399,365.078,114.399z"/>
			</g>
			<g>
				<path fill="#FFFFFF" d="M369.078,114.593c-0.276,0-0.5-0.224-0.5-0.5V97.385c0-0.276,0.224-0.5,0.5-0.5s0.5,0.224,0.5,0.5
					v16.708C369.578,114.37,369.354,114.593,369.078,114.593z"/>
			</g>
			<g>
				<path fill="#FFFFFF" d="M373.078,114.955c-0.276,0-0.5-0.224-0.5-0.5V97.024c0-0.276,0.224-0.5,0.5-0.5s0.5,0.224,0.5,0.5
					v17.431C373.578,114.731,373.354,114.955,373.078,114.955z"/>
			</g>
			<g>
				<path fill="#FFFFFF" d="M377.078,114.955c-0.276,0-0.5-0.224-0.5-0.5V97.024c0-0.276,0.224-0.5,0.5-0.5s0.5,0.224,0.5,0.5
					v17.431C377.578,114.731,377.354,114.955,377.078,114.955z"/>
			</g>
			<g>
				<path fill="#FFFFFF" d="M381.078,112.983c-0.276,0-0.5-0.224-0.5-0.5V98.996c0-0.276,0.224-0.5,0.5-0.5s0.5,0.224,0.5,0.5
					v13.487C381.578,112.759,381.354,112.983,381.078,112.983z"/>
			</g>
			<g>
				<path fill="#FFFFFF" d="M385.078,112.289c-0.276,0-0.5-0.224-0.5-0.5V99.69c0-0.276,0.224-0.5,0.5-0.5s0.5,0.224,0.5,0.5v12.099
					C385.578,112.065,385.354,112.289,385.078,112.289z"/>
			</g>
			<g>
				<path fill="#FFFFFF" d="M389.078,110.316c-0.276,0-0.5-0.224-0.5-0.5v-8.153c0-0.276,0.224-0.5,0.5-0.5s0.5,0.224,0.5,0.5v8.153
					C389.578,110.092,389.354,110.316,389.078,110.316z"/>
			</g>
			<g>
				<path fill="#FFFFFF" d="M393.078,108.593c-0.276,0-0.5-0.224-0.5-0.5v-4.708c0-0.276,0.224-0.5,0.5-0.5s0.5,0.224,0.5,0.5v4.708
					C393.578,108.37,393.354,108.593,393.078,108.593z"/>
			</g>
			<g>
				<path fill="#FFFFFF" d="M397.078,108.593c-0.276,0-0.5-0.224-0.5-0.5v-4.708c0-0.276,0.224-0.5,0.5-0.5s0.5,0.224,0.5,0.5v4.708
					C397.578,108.37,397.354,108.593,397.078,108.593z"/>
			</g>
			<g>
				<path fill="#FFFFFF" d="M401.078,109.039c-0.276,0-0.5-0.224-0.5-0.5v-5.599c0-0.276,0.224-0.5,0.5-0.5s0.5,0.224,0.5,0.5v5.599
					C401.578,108.815,401.354,109.039,401.078,109.039z"/>
			</g>
			<g>
				<path fill="#FFFFFF" d="M405.078,109.039c-0.276,0-0.5-0.224-0.5-0.5v-5.599c0-0.276,0.224-0.5,0.5-0.5s0.5,0.224,0.5,0.5v5.599
					C405.578,108.815,405.354,109.039,405.078,109.039z"/>
			</g>
			<g>
				<path fill="#FFFFFF" d="M409.078,110.316c-0.276,0-0.5-0.224-0.5-0.5v-8.153c0-0.276,0.224-0.5,0.5-0.5s0.5,0.224,0.5,0.5v8.153
					C409.578,110.092,409.354,110.316,409.078,110.316z"/>
			</g>
			<g>
				<path fill="#FFFFFF" d="M413.078,111.927c-0.276,0-0.5-0.224-0.5-0.5v-11.376c0-0.276,0.224-0.5,0.5-0.5s0.5,0.224,0.5,0.5
					v11.376C413.578,111.704,413.354,111.927,413.078,111.927z"/>
			</g>
			<g>
				<path fill="#FFFFFF" d="M417.078,113.983c-0.276,0-0.5-0.224-0.5-0.5V97.996c0-0.276,0.224-0.5,0.5-0.5s0.5,0.224,0.5,0.5
					v15.487C417.578,113.759,417.354,113.983,417.078,113.983z"/>
			</g>
			<g>
				<path fill="#FFFFFF" d="M421.078,115.149c-0.276,0-0.5-0.224-0.5-0.5V96.83c0-0.276,0.224-0.5,0.5-0.5s0.5,0.224,0.5,0.5v17.819
					C421.578,114.925,421.354,115.149,421.078,115.149z"/>
			</g>
			<g>
				<path fill="#FFFFFF" d="M425.078,111.316c-0.276,0-0.5-0.224-0.5-0.5v-10.153c0-0.276,0.224-0.5,0.5-0.5s0.5,0.224,0.5,0.5
					v10.153C425.578,111.092,425.354,111.316,425.078,111.316z"/>
			</g>
			<g>
				<path fill="#FFFFFF" d="M429.078,110.093c-0.276,0-0.5-0.224-0.5-0.5v-7.708c0-0.276,0.224-0.5,0.5-0.5s0.5,0.224,0.5,0.5v7.708
					C429.578,109.87,429.354,110.093,429.078,110.093z"/>
			</g>
			<g>
				<path fill="#FFFFFF" d="M433.078,108.927c-0.276,0-0.5-0.224-0.5-0.5v-5.376c0-0.276,0.224-0.5,0.5-0.5s0.5,0.224,0.5,0.5v5.376
					C433.578,108.704,433.354,108.927,433.078,108.927z"/>
			</g>
		</g>
		<g>
			<g>
				<path fill="#FFFFFF" d="M301.078,153.246c-5.852,0-10.611-4.76-10.611-10.61c0-5.852,4.76-10.611,10.611-10.611
					s10.611,4.76,10.611,10.611C311.689,148.486,306.93,153.246,301.078,153.246z M301.078,133.024c-5.3,0-9.611,4.312-9.611,9.611
					c0,5.299,4.312,9.61,9.611,9.61s9.611-4.312,9.611-9.61C310.689,137.336,306.378,133.024,301.078,133.024z"/>
			</g>
			<g>
				<path fill="#FFFFFF" d="M301.078,153.246c-0.276,0-0.5-0.224-0.5-0.5v-6.412c0-0.276,0.224-0.5,0.5-0.5s0.5,0.224,0.5,0.5v6.412
					C301.578,153.022,301.354,153.246,301.078,153.246z"/>
			</g>
			<g>
				<path fill="#FFFFFF" d="M302.824,146.334h-3.394c-0.897,0-1.624-0.727-1.624-1.624v-6.485c0-0.897,0.727-1.624,1.624-1.624
					h3.394c0.897,0,1.624,0.727,1.624,1.624v6.485C304.449,145.607,303.721,146.334,302.824,146.334z"/>
			</g>
		</g>
	</g>
	<g id="speech_bubble_4_">
		<g>
			<g>
				<path fill="#3C5E93" d="M244.273,176.063h-27.088c-3.172,0-5.743,2.571-5.743,5.743c0,3.172,2.571,5.743,5.743,5.743h4.475
					c-0.33,1.36-1,3.674-1.885,4.366c0,0,4.356-2.347,5.061-4.366h19.437c3.172,0,5.743-2.571,5.743-5.743
					C250.016,178.634,247.445,176.063,244.273,176.063z"/>
			</g>
			<g>
				<path fill="#FFFFFF" d="M228.12,184.458c-0.211,0-0.422-0.012-0.633-0.035c-0.981-0.108-1.597-0.437-1.979-0.822
					c-0.678,0.351-1.521,0.588-2.554,0.639c-1.086,0.054-1.847-0.183-2.377-0.524c-0.513,0.272-1.155,0.463-1.949,0.523
					c-1.449,0.114-2.545-0.213-3.261-0.963c-1.058-1.111-0.867-2.73-0.858-2.799c0.017-0.136,0.126-0.235,0.279-0.217
					c0.137,0.018,0.233,0.142,0.217,0.279c-0.002,0.014-0.167,1.458,0.728,2.394c0.606,0.635,1.576,0.903,2.856,0.808
					c0.618-0.048,1.131-0.182,1.552-0.373c-0.188-0.186-0.33-0.381-0.439-0.569c-0.625-1.078-0.455-2.423,0.037-3.193
					c0.305-0.477,0.698-0.727,1.152-0.679c0.799,0.072,1.396,0.96,1.388,2.064c-0.006,0.826-0.357,1.762-1.224,2.42
					c0.498,0.254,1.126,0.371,1.876,0.329c0.91-0.044,1.659-0.245,2.264-0.542c-0.091-0.152-0.155-0.304-0.201-0.448
					c-0.414-1.293,0.353-2.864,1.064-3.501c0.375-0.335,0.751-0.442,1.062-0.306c0.52,0.234,0.759,0.979,0.593,1.853
					c-0.165,0.874-0.717,1.851-1.757,2.542c0.363,0.315,0.894,0.513,1.587,0.59c1.212,0.133,2.463-0.18,3.582-0.721
					c-0.304-0.311-0.461-0.645-0.538-0.943c-0.322-1.25,0.55-2.698,1.578-3.483c0.85-0.649,1.742-0.817,2.384-0.451
					c0.583,0.333,0.776,0.958,0.53,1.715c-0.342,1.051-1.502,2.324-3.021,3.233c0.405,0.216,0.925,0.373,1.552,0.466
					c2.47,0.365,4.679-0.096,6.24-0.836c-0.168-0.219-0.262-0.447-0.311-0.662c-0.23-1.012,0.516-2.166,1.357-2.608
					c0.57-0.3,1.128-0.245,1.489,0.146c0.382,0.414,0.418,0.972,0.102,1.57c-0.295,0.557-0.904,1.146-1.757,1.653
					c0.51,0.299,1.275,0.475,2.26,0.511c0.138,0.005,0.245,0.121,0.24,0.26c-0.005,0.135-0.116,0.24-0.25,0.24
					c-0.003,0-0.006,0-0.01,0c-1.383-0.052-2.229-0.352-2.74-0.737c-1.651,0.834-4.013,1.355-6.695,0.957
					c-0.898-0.133-1.535-0.381-1.982-0.679C230.5,184.101,229.312,184.458,228.12,184.458z M220.8,179.422
					c-0.305,0-0.53,0.279-0.64,0.452c-0.4,0.627-0.546,1.777-0.026,2.673c0.125,0.217,0.282,0.404,0.469,0.563
					c0.835-0.561,1.171-1.394,1.176-2.124c0.006-0.828-0.404-1.515-0.933-1.562C220.83,179.423,220.815,179.422,220.8,179.422z
					 M233.793,178.635c-0.395,0-0.86,0.186-1.326,0.541c-0.896,0.685-1.664,1.922-1.396,2.961c0.082,0.315,0.258,0.592,0.523,0.824
					c1.503-0.84,2.68-2.063,3.009-3.074c0.174-0.533,0.072-0.911-0.303-1.126C234.151,178.677,233.98,178.635,233.793,178.635z
					 M226.84,179.384c-0.116,0-0.279,0.084-0.449,0.235c-0.596,0.533-1.267,1.899-0.922,2.977c0.041,0.127,0.094,0.245,0.16,0.354
					c0.947-0.61,1.445-1.477,1.592-2.249c0.118-0.622-0.011-1.171-0.307-1.303C226.893,179.389,226.867,179.384,226.84,179.384z
					 M241.604,179.943c-0.181,0-0.357,0.072-0.476,0.135c-0.664,0.35-1.28,1.279-1.104,2.056c0.045,0.198,0.14,0.378,0.282,0.536
					c0.855-0.477,1.462-1.033,1.736-1.551c0.216-0.409,0.207-0.744-0.026-0.997C241.895,179.989,241.748,179.943,241.604,179.943z"
					/>
			</g>
		</g>
		<g>
			<g>
				<path fill="#E53362" d="M346.193,166.325h35.185c4.12,0,7.46,3.34,7.46,7.459c0,4.12-3.34,7.459-7.46,7.459h-5.813
					c0.428,1.767,1.299,4.772,2.448,5.671c0,0-5.659-3.048-6.574-5.671h-25.246c-4.12,0-7.459-3.34-7.459-7.459
					C338.733,169.665,342.073,166.325,346.193,166.325z"/>
			</g>
			<g>
				<path fill="#FFFFFF" d="M367.172,177.154c-1.552,0-3.098-0.469-4.463-1.18c-0.574,0.391-1.399,0.718-2.579,0.893
					c-3.496,0.519-6.562-0.167-8.695-1.254c-0.646,0.504-1.738,0.901-3.551,0.969c-0.004,0-0.007,0-0.01,0
					c-0.134,0-0.245-0.105-0.25-0.24c-0.005-0.139,0.103-0.255,0.24-0.26c1.357-0.051,2.4-0.306,3.074-0.739
					c-1.149-0.666-1.969-1.445-2.358-2.183c-0.396-0.747-0.353-1.44,0.12-1.953c0.454-0.489,1.126-0.555,1.846-0.175
					c1.068,0.562,2.017,2.025,1.726,3.306c-0.068,0.299-0.207,0.619-0.464,0.921c2.03,0.993,4.938,1.607,8.248,1.114
					c0.881-0.131,1.603-0.358,2.152-0.676c-2.012-1.173-3.552-2.849-4.001-4.228c-0.312-0.959-0.079-1.719,0.655-2.138
					c0.807-0.463,1.935-0.244,3.016,0.582c1.314,1.004,2.431,2.853,2.021,4.444c-0.104,0.4-0.321,0.85-0.752,1.264
					c1.488,0.737,3.171,1.167,4.786,0.991c0.965-0.107,1.691-0.392,2.175-0.849c-1.384-0.889-2.115-2.166-2.33-3.307
					c-0.209-1.101,0.084-2.034,0.728-2.324c0.378-0.164,0.835-0.029,1.299,0.384c0.909,0.813,1.89,2.819,1.361,4.469
					c-0.065,0.204-0.16,0.421-0.298,0.635c0.806,0.411,1.812,0.689,3.044,0.749c1.163,0.055,1.987-0.161,2.581-0.492
					c-1.174-0.843-1.647-2.071-1.655-3.153c-0.01-1.396,0.735-2.517,1.734-2.607c0.546-0.046,1.046,0.252,1.427,0.848
					c0.627,0.982,0.844,2.696,0.047,4.071c-0.153,0.264-0.36,0.541-0.639,0.798c0.573,0.277,1.28,0.471,2.142,0.537
					c1.703,0.13,2.971-0.23,3.773-1.074c1.188-1.247,0.964-3.147,0.962-3.167c-0.018-0.137,0.08-0.262,0.217-0.279
					c0.148-0.016,0.262,0.081,0.279,0.217c0.011,0.087,0.255,2.157-1.096,3.574c-0.912,0.957-2.31,1.374-4.175,1.228
					c-1.04-0.08-1.877-0.332-2.54-0.692c-0.679,0.449-1.654,0.756-3.081,0.693c-1.354-0.065-2.457-0.382-3.336-0.847
					c-0.485,0.508-1.276,0.943-2.564,1.086C367.716,177.139,367.443,177.154,367.172,177.154z M376.683,170.612
					c-0.021,0-0.044,0.001-0.066,0.003c-0.725,0.065-1.287,0.991-1.279,2.106c0.007,0.983,0.465,2.107,1.605,2.851
					c0.303-0.248,0.518-0.525,0.67-0.787c0.689-1.189,0.496-2.718-0.036-3.552C377.425,170.997,377.113,170.612,376.683,170.612z
					 M368.839,170.564c-0.047,0-0.091,0.009-0.129,0.026c-0.415,0.187-0.601,0.933-0.441,1.774c0.196,1.039,0.874,2.204,2.164,3.011
					c0.108-0.165,0.193-0.346,0.257-0.542c0.457-1.429-0.431-3.239-1.22-3.943C369.232,170.677,369.011,170.564,368.839,170.564z
					 M359.804,169.592c-0.255,0-0.49,0.057-0.693,0.173c-0.521,0.298-0.665,0.819-0.428,1.55c0.436,1.336,2,2.956,3.991,4.059
					c0.377-0.318,0.627-0.7,0.74-1.141c0.356-1.381-0.656-3.019-1.84-3.922C360.956,169.839,360.335,169.592,359.804,169.592z
					 M349.657,171.29c-0.204,0-0.413,0.065-0.59,0.257c-0.407,0.441-0.249,0.994-0.045,1.38c0.374,0.708,1.183,1.458,2.321,2.09
					c0.225-0.229,0.373-0.493,0.44-0.79c0.236-1.041-0.586-2.285-1.472-2.752C350.149,171.388,349.907,171.29,349.657,171.29z"/>
			</g>
		</g>
		<g>
			<path fill="#F2E5D6" d="M337.072,201.802h29.917c3.503,0,6.343,2.869,6.343,6.409c0,3.539-2.84,6.409-6.343,6.409h-4.943
				c0.364,1.518,1.105,4.1,2.082,4.872c0,0-4.811-2.619-5.589-4.872h-21.467c-3.503,0-6.343-2.869-6.343-6.409
				C330.729,204.671,333.569,201.802,337.072,201.802z"/>
		</g>
	</g>
	<g id="music_player">
		<g>
			<path fill="#474F50" d="M135.196,186.308c-15.348,0.001-33.371-5.768-49.483-33.437c-10.608-18.218-13.183-32.361-7.649-42.04
				c7.328-12.817,26.634-13.057,26.828-13.058h0.001c0.138,0,0.249,0.111,0.25,0.249s-0.11,0.25-0.249,0.251
				c-0.191,0.001-19.214,0.24-26.396,12.808c-5.437,9.513-2.864,23.487,7.647,41.538c22.441,38.536,48.62,34.261,65.941,31.437
				c7.33-1.196,13.119-2.142,16.813,0.205c0.117,0.074,0.151,0.229,0.077,0.345c-0.074,0.117-0.23,0.152-0.345,0.077
				c-3.534-2.244-9.239-1.313-16.465-0.134C147.148,185.369,141.389,186.308,135.196,186.308z"/>
		</g>
		<rect x="231.618" y="232.851" fill="#F2E5D6" width="91.954" height="43.72"/>
		<g>
			<path fill="#474F50" d="M237.896,248.149c-9.147,0-16.394-2.68-21.536-7.966c-10.488-10.78-9.973-29.6-9.695-39.711
				c0.02-0.716,0.038-1.385,0.051-2c0.091-4.347-0.899-7.294-2.943-8.763c-2.562-1.842-5.944-0.655-5.979-0.643
				c-0.066,0.025-0.138-0.01-0.159-0.075c-0.023-0.064,0.01-0.136,0.075-0.159c0.034-0.014,3.534-1.244,6.207,0.673
				c2.115,1.519,3.142,4.537,3.049,8.973c-0.013,0.615-0.031,1.284-0.051,2.001c-0.276,10.074-0.79,28.825,9.624,39.529
				c5.095,5.236,12.28,7.891,21.357,7.891c0.069,0,0.125,0.056,0.125,0.125S237.965,248.149,237.896,248.149z"/>
		</g>
		<path fill="#474F50" d="M237.774,248.305h-2.608c-0.067,0-0.122-0.055-0.122-0.122v-0.516c0-0.067,0.055-0.122,0.122-0.122h2.608
			c0.067,0,0.122,0.055,0.122,0.122v0.516C237.896,248.251,237.841,248.305,237.774,248.305z"/>
		<g>
			<path fill="#93CCCE" d="M331.194,269.937h-91.015c-1.336,0-2.42-1.083-2.42-2.42V228.53c0-1.336,1.083-2.42,2.42-2.42h91.015
				c1.336,0,2.42,1.083,2.42,2.42v38.988C333.614,268.854,332.531,269.937,331.194,269.937z"/>
			<path fill="#474F50" d="M327.429,248.305h-84.449v-14.383c0-1.29,1.046-2.336,2.336-2.336h79.777c1.29,0,2.336,1.046,2.336,2.336
				V248.305z"/>
			<g>
				<g>
					<linearGradient id="SVGID_2_" gradientUnits="userSpaceOnUse" x1="246.2581" y1="239.1382" x2="303.4724" y2="242.1918">
						<stop  offset="0.0168" style="stop-color:#CE338A"/>
						<stop  offset="0.1414" style="stop-color:#D5337D"/>
						<stop  offset="0.3929" style="stop-color:#E13369"/>
						<stop  offset="0.5624" style="stop-color:#E53362"/>
						<stop  offset="1" style="stop-color:#F7941D"/>
					</linearGradient>
					<path fill="url(#SVGID_2_)" d="M246.617,241.14c-0.138,0-0.25-0.112-0.25-0.25v-3.466c0-0.138,0.112-0.25,0.25-0.25
						s0.25,0.112,0.25,0.25v3.466C246.867,241.028,246.755,241.14,246.617,241.14z"/>
				</g>
				<g>
					<linearGradient id="SVGID_3_" gradientUnits="userSpaceOnUse" x1="246.2615" y1="239.0757" x2="303.4758" y2="242.1293">
						<stop  offset="0.0168" style="stop-color:#CE338A"/>
						<stop  offset="0.1414" style="stop-color:#D5337D"/>
						<stop  offset="0.3929" style="stop-color:#E13369"/>
						<stop  offset="0.5624" style="stop-color:#E53362"/>
						<stop  offset="1" style="stop-color:#F7941D"/>
					</linearGradient>
					<path fill="url(#SVGID_3_)" d="M247.801,241.757c-0.138,0-0.25-0.112-0.25-0.25v-4.699c0-0.138,0.112-0.25,0.25-0.25
						s0.25,0.112,0.25,0.25v4.699C248.051,241.645,247.938,241.757,247.801,241.757z"/>
				</g>
				<g>
					<linearGradient id="SVGID_5_" gradientUnits="userSpaceOnUse" x1="246.2649" y1="239.0123" x2="303.4792" y2="242.0658">
						<stop  offset="0.0168" style="stop-color:#CE338A"/>
						<stop  offset="0.1414" style="stop-color:#D5337D"/>
						<stop  offset="0.3929" style="stop-color:#E13369"/>
						<stop  offset="0.5624" style="stop-color:#E53362"/>
						<stop  offset="1" style="stop-color:#F7941D"/>
					</linearGradient>
					<path fill="url(#SVGID_5_)" d="M248.984,242.004c-0.138,0-0.25-0.112-0.25-0.25v-5.192c0-0.138,0.112-0.25,0.25-0.25
						s0.25,0.112,0.25,0.25v5.192C249.234,241.891,249.122,242.004,248.984,242.004z"/>
				</g>
				<g>
					<linearGradient id="SVGID_6_" gradientUnits="userSpaceOnUse" x1="246.2682" y1="238.9492" x2="303.4825" y2="242.0028">
						<stop  offset="0.0168" style="stop-color:#CE338A"/>
						<stop  offset="0.1414" style="stop-color:#D5337D"/>
						<stop  offset="0.3929" style="stop-color:#E13369"/>
						<stop  offset="0.5624" style="stop-color:#E53362"/>
						<stop  offset="1" style="stop-color:#F7941D"/>
					</linearGradient>
					<path fill="url(#SVGID_6_)" d="M250.169,242.086c-0.138,0-0.25-0.112-0.25-0.25v-5.356c0-0.138,0.112-0.25,0.25-0.25
						s0.25,0.112,0.25,0.25v5.356C250.419,241.973,250.307,242.086,250.169,242.086z"/>
				</g>
				<g>
					<linearGradient id="SVGID_7_" gradientUnits="userSpaceOnUse" x1="246.2716" y1="238.8862" x2="303.4859" y2="241.9398">
						<stop  offset="0.0168" style="stop-color:#CE338A"/>
						<stop  offset="0.1414" style="stop-color:#D5337D"/>
						<stop  offset="0.3929" style="stop-color:#E13369"/>
						<stop  offset="0.5624" style="stop-color:#E53362"/>
						<stop  offset="1" style="stop-color:#F7941D"/>
					</linearGradient>
					<path fill="url(#SVGID_7_)" d="M251.353,241.479c-0.138,0-0.25-0.112-0.25-0.25v-4.144c0-0.138,0.112-0.25,0.25-0.25
						s0.25,0.112,0.25,0.25v4.144C251.603,241.367,251.49,241.479,251.353,241.479z"/>
				</g>
				<g>
					<linearGradient id="SVGID_9_" gradientUnits="userSpaceOnUse" x1="246.2749" y1="238.8237" x2="303.4892" y2="241.8773">
						<stop  offset="0.0168" style="stop-color:#CE338A"/>
						<stop  offset="0.1414" style="stop-color:#D5337D"/>
						<stop  offset="0.3929" style="stop-color:#E13369"/>
						<stop  offset="0.5624" style="stop-color:#E53362"/>
						<stop  offset="1" style="stop-color:#F7941D"/>
					</linearGradient>
					<path fill="url(#SVGID_9_)" d="M252.536,241.207c-0.138,0-0.25-0.112-0.25-0.25v-3.598c0-0.138,0.112-0.25,0.25-0.25
						s0.25,0.112,0.25,0.25v3.598C252.786,241.094,252.674,241.207,252.536,241.207z"/>
				</g>
				<g>
					<linearGradient id="SVGID_11_" gradientUnits="userSpaceOnUse" x1="246.2783" y1="238.7607" x2="303.4926" y2="241.8142">
						<stop  offset="0.0168" style="stop-color:#CE338A"/>
						<stop  offset="0.1414" style="stop-color:#D5337D"/>
						<stop  offset="0.3929" style="stop-color:#E13369"/>
						<stop  offset="0.5624" style="stop-color:#E53362"/>
						<stop  offset="1" style="stop-color:#F7941D"/>
					</linearGradient>
					<path fill="url(#SVGID_11_)" d="M253.721,240.738c-0.138,0-0.25-0.112-0.25-0.25v-2.66c0-0.138,0.112-0.25,0.25-0.25
						s0.25,0.112,0.25,0.25v2.66C253.971,240.626,253.858,240.738,253.721,240.738z"/>
				</g>
				<g>
					<linearGradient id="SVGID_13_" gradientUnits="userSpaceOnUse" x1="246.2816" y1="238.6977" x2="303.4959" y2="241.7513">
						<stop  offset="0.0168" style="stop-color:#CE338A"/>
						<stop  offset="0.1414" style="stop-color:#D5337D"/>
						<stop  offset="0.3929" style="stop-color:#E13369"/>
						<stop  offset="0.5624" style="stop-color:#E53362"/>
						<stop  offset="1" style="stop-color:#F7941D"/>
					</linearGradient>
					<path fill="url(#SVGID_13_)" d="M254.904,240.245c-0.138,0-0.25-0.112-0.25-0.25v-1.674c0-0.138,0.112-0.25,0.25-0.25
						s0.25,0.112,0.25,0.25v1.674C255.154,240.132,255.042,240.245,254.904,240.245z"/>
				</g>
				<g>
					<linearGradient id="SVGID_15_" gradientUnits="userSpaceOnUse" x1="246.285" y1="238.6347" x2="303.4993" y2="241.6883">
						<stop  offset="0.0168" style="stop-color:#CE338A"/>
						<stop  offset="0.1414" style="stop-color:#D5337D"/>
						<stop  offset="0.3929" style="stop-color:#E13369"/>
						<stop  offset="0.5624" style="stop-color:#E53362"/>
						<stop  offset="1" style="stop-color:#F7941D"/>
					</linearGradient>
					<path fill="url(#SVGID_15_)" d="M256.088,240.343c-0.138,0-0.25-0.112-0.25-0.25v-1.871c0-0.138,0.112-0.25,0.25-0.25
						s0.25,0.112,0.25,0.25v1.871C256.338,240.231,256.226,240.343,256.088,240.343z"/>
				</g>
				<g>
					<linearGradient id="SVGID_17_" gradientUnits="userSpaceOnUse" x1="246.2884" y1="238.5712" x2="303.5027" y2="241.6247">
						<stop  offset="0.0168" style="stop-color:#CE338A"/>
						<stop  offset="0.1414" style="stop-color:#D5337D"/>
						<stop  offset="0.3929" style="stop-color:#E13369"/>
						<stop  offset="0.5624" style="stop-color:#E53362"/>
						<stop  offset="1" style="stop-color:#F7941D"/>
					</linearGradient>
					<path fill="url(#SVGID_17_)" d="M257.272,240.433c-0.138,0-0.25-0.112-0.25-0.25v-2.052c0-0.138,0.112-0.25,0.25-0.25
						s0.25,0.112,0.25,0.25v2.052C257.522,240.321,257.41,240.433,257.272,240.433z"/>
				</g>
				<g>
					<linearGradient id="SVGID_19_" gradientUnits="userSpaceOnUse" x1="246.2918" y1="238.5082" x2="303.506" y2="241.5617">
						<stop  offset="0.0168" style="stop-color:#CE338A"/>
						<stop  offset="0.1414" style="stop-color:#D5337D"/>
						<stop  offset="0.3929" style="stop-color:#E13369"/>
						<stop  offset="0.5624" style="stop-color:#E53362"/>
						<stop  offset="1" style="stop-color:#F7941D"/>
					</linearGradient>
					<path fill="url(#SVGID_19_)" d="M258.456,240.515c-0.138,0-0.25-0.112-0.25-0.25v-2.216c0-0.138,0.112-0.25,0.25-0.25
						s0.25,0.112,0.25,0.25v2.216C258.706,240.403,258.594,240.515,258.456,240.515z"/>
				</g>
				<g>
					<linearGradient id="SVGID_21_" gradientUnits="userSpaceOnUse" x1="246.2951" y1="238.4457" x2="303.5094" y2="241.4992">
						<stop  offset="0.0168" style="stop-color:#CE338A"/>
						<stop  offset="0.1414" style="stop-color:#D5337D"/>
						<stop  offset="0.3929" style="stop-color:#E13369"/>
						<stop  offset="0.5624" style="stop-color:#E53362"/>
						<stop  offset="1" style="stop-color:#F7941D"/>
					</linearGradient>
					<path fill="url(#SVGID_21_)" d="M259.64,240.606c-0.138,0-0.25-0.112-0.25-0.25v-2.396c0-0.138,0.112-0.25,0.25-0.25
						s0.25,0.112,0.25,0.25v2.396C259.89,240.494,259.777,240.606,259.64,240.606z"/>
				</g>
				<g>
					<linearGradient id="SVGID_23_" gradientUnits="userSpaceOnUse" x1="246.2985" y1="238.3821" x2="303.5128" y2="241.4357">
						<stop  offset="0.0168" style="stop-color:#CE338A"/>
						<stop  offset="0.1414" style="stop-color:#D5337D"/>
						<stop  offset="0.3929" style="stop-color:#E13369"/>
						<stop  offset="0.5624" style="stop-color:#E53362"/>
						<stop  offset="1" style="stop-color:#F7941D"/>
					</linearGradient>
					<path fill="url(#SVGID_23_)" d="M260.824,240.77c-0.138,0-0.25-0.112-0.25-0.25v-2.726c0-0.138,0.112-0.25,0.25-0.25
						s0.25,0.112,0.25,0.25v2.726C261.074,240.658,260.962,240.77,260.824,240.77z"/>
				</g>
				<g>
					<linearGradient id="SVGID_24_" gradientUnits="userSpaceOnUse" x1="246.3018" y1="238.3196" x2="303.5161" y2="241.3732">
						<stop  offset="0.0168" style="stop-color:#CE338A"/>
						<stop  offset="0.1414" style="stop-color:#D5337D"/>
						<stop  offset="0.3929" style="stop-color:#E13369"/>
						<stop  offset="0.5624" style="stop-color:#E53362"/>
						<stop  offset="1" style="stop-color:#F7941D"/>
					</linearGradient>
					<path fill="url(#SVGID_24_)" d="M262.008,240.853c-0.138,0-0.25-0.112-0.25-0.25v-2.891c0-0.138,0.112-0.25,0.25-0.25
						s0.25,0.112,0.25,0.25v2.891C262.258,240.741,262.146,240.853,262.008,240.853z"/>
				</g>
				<g>
					<linearGradient id="SVGID_25_" gradientUnits="userSpaceOnUse" x1="246.3052" y1="238.2566" x2="303.5195" y2="241.3102">
						<stop  offset="0.0168" style="stop-color:#CE338A"/>
						<stop  offset="0.1414" style="stop-color:#D5337D"/>
						<stop  offset="0.3929" style="stop-color:#E13369"/>
						<stop  offset="0.5624" style="stop-color:#E53362"/>
						<stop  offset="1" style="stop-color:#F7941D"/>
					</linearGradient>
					<path fill="url(#SVGID_25_)" d="M263.192,241.05c-0.138,0-0.25-0.112-0.25-0.25v-3.285c0-0.138,0.112-0.25,0.25-0.25
						s0.25,0.112,0.25,0.25v3.285C263.442,240.938,263.33,241.05,263.192,241.05z"/>
				</g>
				<g>
					<linearGradient id="SVGID_26_" gradientUnits="userSpaceOnUse" x1="246.3086" y1="238.1931" x2="303.5229" y2="241.2467">
						<stop  offset="0.0168" style="stop-color:#CE338A"/>
						<stop  offset="0.1414" style="stop-color:#D5337D"/>
						<stop  offset="0.3929" style="stop-color:#E13369"/>
						<stop  offset="0.5624" style="stop-color:#E53362"/>
						<stop  offset="1" style="stop-color:#F7941D"/>
					</linearGradient>
					<path fill="url(#SVGID_26_)" d="M264.376,241.181c-0.138,0-0.25-0.112-0.25-0.25v-3.548c0-0.138,0.112-0.25,0.25-0.25
						s0.25,0.112,0.25,0.25v3.548C264.626,241.069,264.514,241.181,264.376,241.181z"/>
				</g>
				<g>
					<linearGradient id="SVGID_28_" gradientUnits="userSpaceOnUse" x1="246.3119" y1="238.1306" x2="303.5262" y2="241.1842">
						<stop  offset="0.0168" style="stop-color:#CE338A"/>
						<stop  offset="0.1414" style="stop-color:#D5337D"/>
						<stop  offset="0.3929" style="stop-color:#E13369"/>
						<stop  offset="0.5624" style="stop-color:#E53362"/>
						<stop  offset="1" style="stop-color:#F7941D"/>
					</linearGradient>
					<path fill="url(#SVGID_28_)" d="M265.56,241.371c-0.138,0-0.25-0.112-0.25-0.25v-3.926c0-0.138,0.112-0.25,0.25-0.25
						s0.25,0.112,0.25,0.25v3.926C265.81,241.258,265.697,241.371,265.56,241.371z"/>
				</g>
				<g>
					<linearGradient id="SVGID_29_" gradientUnits="userSpaceOnUse" x1="246.3153" y1="238.0676" x2="303.5296" y2="241.1211">
						<stop  offset="0.0168" style="stop-color:#CE338A"/>
						<stop  offset="0.1414" style="stop-color:#D5337D"/>
						<stop  offset="0.3929" style="stop-color:#E13369"/>
						<stop  offset="0.5624" style="stop-color:#E53362"/>
						<stop  offset="1" style="stop-color:#F7941D"/>
					</linearGradient>
					<path fill="url(#SVGID_29_)" d="M266.744,241.585c-0.138,0-0.25-0.112-0.25-0.25v-4.354c0-0.138,0.112-0.25,0.25-0.25
						s0.25,0.112,0.25,0.25v4.354C266.994,241.472,266.882,241.585,266.744,241.585z"/>
				</g>
				<g>
					<linearGradient id="SVGID_30_" gradientUnits="userSpaceOnUse" x1="246.3186" y1="238.0046" x2="303.5329" y2="241.0582">
						<stop  offset="0.0168" style="stop-color:#CE338A"/>
						<stop  offset="0.1414" style="stop-color:#D5337D"/>
						<stop  offset="0.3929" style="stop-color:#E13369"/>
						<stop  offset="0.5624" style="stop-color:#E53362"/>
						<stop  offset="1" style="stop-color:#F7941D"/>
					</linearGradient>
					<path fill="url(#SVGID_30_)" d="M267.928,241.782c-0.138,0-0.25-0.112-0.25-0.25v-4.748c0-0.138,0.112-0.25,0.25-0.25
						s0.25,0.112,0.25,0.25v4.748C268.178,241.67,268.065,241.782,267.928,241.782z"/>
				</g>
				<g>
					<linearGradient id="SVGID_31_" gradientUnits="userSpaceOnUse" x1="246.322" y1="237.9416" x2="303.5363" y2="240.9952">
						<stop  offset="0.0168" style="stop-color:#CE338A"/>
						<stop  offset="0.1414" style="stop-color:#D5337D"/>
						<stop  offset="0.3929" style="stop-color:#E13369"/>
						<stop  offset="0.5624" style="stop-color:#E53362"/>
						<stop  offset="1" style="stop-color:#F7941D"/>
					</linearGradient>
					<path fill="url(#SVGID_31_)" d="M269.111,241.84c-0.138,0-0.25-0.112-0.25-0.25v-4.863c0-0.138,0.112-0.25,0.25-0.25
						s0.25,0.112,0.25,0.25v4.863C269.361,241.727,269.249,241.84,269.111,241.84z"/>
				</g>
				<g>
					<linearGradient id="SVGID_32_" gradientUnits="userSpaceOnUse" x1="246.3254" y1="237.8781" x2="303.5397" y2="240.9316">
						<stop  offset="0.0168" style="stop-color:#CE338A"/>
						<stop  offset="0.1414" style="stop-color:#D5337D"/>
						<stop  offset="0.3929" style="stop-color:#E13369"/>
						<stop  offset="0.5624" style="stop-color:#E53362"/>
						<stop  offset="1" style="stop-color:#F7941D"/>
					</linearGradient>
					<path fill="url(#SVGID_32_)" d="M270.296,241.749c-0.138,0-0.25-0.112-0.25-0.25v-4.683c0-0.138,0.112-0.25,0.25-0.25
						s0.25,0.112,0.25,0.25v4.683C270.546,241.636,270.434,241.749,270.296,241.749z"/>
				</g>
				<g>
					<linearGradient id="SVGID_33_" gradientUnits="userSpaceOnUse" x1="246.3288" y1="237.8151" x2="303.543" y2="240.8687">
						<stop  offset="0.0168" style="stop-color:#CE338A"/>
						<stop  offset="0.1414" style="stop-color:#D5337D"/>
						<stop  offset="0.3929" style="stop-color:#E13369"/>
						<stop  offset="0.5624" style="stop-color:#E53362"/>
						<stop  offset="1" style="stop-color:#F7941D"/>
					</linearGradient>
					<path fill="url(#SVGID_33_)" d="M271.479,241.479c-0.138,0-0.25-0.112-0.25-0.25v-4.144c0-0.138,0.112-0.25,0.25-0.25
						s0.25,0.112,0.25,0.25v4.144C271.729,241.367,271.617,241.479,271.479,241.479z"/>
				</g>
				<g>
					<linearGradient id="SVGID_34_" gradientUnits="userSpaceOnUse" x1="246.3321" y1="237.7526" x2="303.5464" y2="240.8061">
						<stop  offset="0.0168" style="stop-color:#CE338A"/>
						<stop  offset="0.1414" style="stop-color:#D5337D"/>
						<stop  offset="0.3929" style="stop-color:#E13369"/>
						<stop  offset="0.5624" style="stop-color:#E53362"/>
						<stop  offset="1" style="stop-color:#F7941D"/>
					</linearGradient>
					<path fill="url(#SVGID_34_)" d="M272.663,241.198c-0.138,0-0.25-0.112-0.25-0.25v-3.58c0-0.138,0.112-0.25,0.25-0.25
						s0.25,0.112,0.25,0.25v3.58C272.913,241.086,272.801,241.198,272.663,241.198z"/>
				</g>
				<g>
					<linearGradient id="SVGID_35_" gradientUnits="userSpaceOnUse" x1="246.3355" y1="237.6895" x2="303.5497" y2="240.7431">
						<stop  offset="0.0168" style="stop-color:#CE338A"/>
						<stop  offset="0.1414" style="stop-color:#D5337D"/>
						<stop  offset="0.3929" style="stop-color:#E13369"/>
						<stop  offset="0.5624" style="stop-color:#E53362"/>
						<stop  offset="1" style="stop-color:#F7941D"/>
					</linearGradient>
					<path fill="url(#SVGID_35_)" d="M273.848,240.911c-0.138,0-0.25-0.112-0.25-0.25v-3.006c0-0.138,0.112-0.25,0.25-0.25
						s0.25,0.112,0.25,0.25v3.006C274.098,240.799,273.985,240.911,273.848,240.911z"/>
				</g>
				<g>
					<linearGradient id="SVGID_36_" gradientUnits="userSpaceOnUse" x1="246.3388" y1="237.6265" x2="303.5531" y2="240.6801">
						<stop  offset="0.0168" style="stop-color:#CE338A"/>
						<stop  offset="0.1414" style="stop-color:#D5337D"/>
						<stop  offset="0.3929" style="stop-color:#E13369"/>
						<stop  offset="0.5624" style="stop-color:#E53362"/>
						<stop  offset="1" style="stop-color:#F7941D"/>
					</linearGradient>
					<path fill="url(#SVGID_36_)" d="M275.031,240.779c-0.138,0-0.25-0.112-0.25-0.25v-2.742c0-0.138,0.112-0.25,0.25-0.25
						s0.25,0.112,0.25,0.25v2.742C275.281,240.667,275.169,240.779,275.031,240.779z"/>
				</g>
				<g>
					<linearGradient id="SVGID_37_" gradientUnits="userSpaceOnUse" x1="246.3422" y1="237.5636" x2="303.5565" y2="240.6171">
						<stop  offset="0.0168" style="stop-color:#CE338A"/>
						<stop  offset="0.1414" style="stop-color:#D5337D"/>
						<stop  offset="0.3929" style="stop-color:#E13369"/>
						<stop  offset="0.5624" style="stop-color:#E53362"/>
						<stop  offset="1" style="stop-color:#F7941D"/>
					</linearGradient>
					<path fill="url(#SVGID_37_)" d="M276.215,240.5c-0.138,0-0.25-0.112-0.25-0.25v-2.184c0-0.138,0.112-0.25,0.25-0.25
						s0.25,0.112,0.25,0.25v2.184C276.465,240.387,276.353,240.5,276.215,240.5z"/>
				</g>
				<g>
					<linearGradient id="SVGID_38_" gradientUnits="userSpaceOnUse" x1="246.3456" y1="237.5005" x2="303.5598" y2="240.5541">
						<stop  offset="0.0168" style="stop-color:#CE338A"/>
						<stop  offset="0.1414" style="stop-color:#D5337D"/>
						<stop  offset="0.3929" style="stop-color:#E13369"/>
						<stop  offset="0.5624" style="stop-color:#E53362"/>
						<stop  offset="1" style="stop-color:#F7941D"/>
					</linearGradient>
					<path fill="url(#SVGID_38_)" d="M277.399,240.096c-0.138,0-0.25-0.112-0.25-0.25v-1.377c0-0.138,0.112-0.25,0.25-0.25
						s0.25,0.112,0.25,0.25v1.377C277.649,239.984,277.537,240.096,277.399,240.096z"/>
				</g>
				<g>
					<linearGradient id="SVGID_39_" gradientUnits="userSpaceOnUse" x1="246.3489" y1="237.4375" x2="303.5632" y2="240.4911">
						<stop  offset="0.0168" style="stop-color:#CE338A"/>
						<stop  offset="0.1414" style="stop-color:#D5337D"/>
						<stop  offset="0.3929" style="stop-color:#E13369"/>
						<stop  offset="0.5624" style="stop-color:#E53362"/>
						<stop  offset="1" style="stop-color:#F7941D"/>
					</linearGradient>
					<path fill="url(#SVGID_39_)" d="M278.583,240.154c-0.138,0-0.25-0.112-0.25-0.25v-1.492c0-0.138,0.112-0.25,0.25-0.25
						s0.25,0.112,0.25,0.25v1.492C278.833,240.042,278.721,240.154,278.583,240.154z"/>
				</g>
				<g>
					<linearGradient id="SVGID_40_" gradientUnits="userSpaceOnUse" x1="246.3523" y1="237.374" x2="303.5666" y2="240.4276">
						<stop  offset="0.0168" style="stop-color:#CE338A"/>
						<stop  offset="0.1414" style="stop-color:#D5337D"/>
						<stop  offset="0.3929" style="stop-color:#E13369"/>
						<stop  offset="0.5624" style="stop-color:#E53362"/>
						<stop  offset="1" style="stop-color:#F7941D"/>
					</linearGradient>
					<path fill="url(#SVGID_40_)" d="M279.767,240.359c-0.138,0-0.25-0.112-0.25-0.25v-1.903c0-0.138,0.112-0.25,0.25-0.25
						s0.25,0.112,0.25,0.25v1.903C280.017,240.247,279.904,240.359,279.767,240.359z"/>
				</g>
				<g>
					<linearGradient id="SVGID_41_" gradientUnits="userSpaceOnUse" x1="246.3556" y1="237.3115" x2="303.5699" y2="240.3651">
						<stop  offset="0.0168" style="stop-color:#CE338A"/>
						<stop  offset="0.1414" style="stop-color:#D5337D"/>
						<stop  offset="0.3929" style="stop-color:#E13369"/>
						<stop  offset="0.5624" style="stop-color:#E53362"/>
						<stop  offset="1" style="stop-color:#F7941D"/>
					</linearGradient>
					<path fill="url(#SVGID_41_)" d="M280.951,240.5c-0.138,0-0.25-0.112-0.25-0.25v-2.184c0-0.138,0.112-0.25,0.25-0.25
						s0.25,0.112,0.25,0.25v2.184C281.201,240.387,281.089,240.5,280.951,240.5z"/>
				</g>
				<g>
					<linearGradient id="SVGID_42_" gradientUnits="userSpaceOnUse" x1="246.359" y1="237.248" x2="303.5733" y2="240.3016">
						<stop  offset="0.0168" style="stop-color:#CE338A"/>
						<stop  offset="0.1414" style="stop-color:#D5337D"/>
						<stop  offset="0.3929" style="stop-color:#E13369"/>
						<stop  offset="0.5624" style="stop-color:#E53362"/>
						<stop  offset="1" style="stop-color:#F7941D"/>
					</linearGradient>
					<path fill="url(#SVGID_42_)" d="M282.135,240.631c-0.138,0-0.25-0.112-0.25-0.25v-2.446c0-0.138,0.112-0.25,0.25-0.25
						s0.25,0.112,0.25,0.25v2.446C282.385,240.518,282.272,240.631,282.135,240.631z"/>
				</g>
				<g>
					<linearGradient id="SVGID_43_" gradientUnits="userSpaceOnUse" x1="246.3624" y1="237.1855" x2="303.5767" y2="240.239">
						<stop  offset="0.0168" style="stop-color:#CE338A"/>
						<stop  offset="0.1414" style="stop-color:#D5337D"/>
						<stop  offset="0.3929" style="stop-color:#E13369"/>
						<stop  offset="0.5624" style="stop-color:#E53362"/>
						<stop  offset="1" style="stop-color:#F7941D"/>
					</linearGradient>
					<path fill="url(#SVGID_43_)" d="M283.319,240.935c-0.138,0-0.25-0.112-0.25-0.25v-3.055c0-0.138,0.112-0.25,0.25-0.25
						s0.25,0.112,0.25,0.25v3.055C283.569,240.823,283.457,240.935,283.319,240.935z"/>
				</g>
				<g>
					<linearGradient id="SVGID_44_" gradientUnits="userSpaceOnUse" x1="246.3658" y1="237.122" x2="303.58" y2="240.1756">
						<stop  offset="0.0168" style="stop-color:#CE338A"/>
						<stop  offset="0.1414" style="stop-color:#D5337D"/>
						<stop  offset="0.3929" style="stop-color:#E13369"/>
						<stop  offset="0.5624" style="stop-color:#E53362"/>
						<stop  offset="1" style="stop-color:#F7941D"/>
					</linearGradient>
					<path fill="url(#SVGID_44_)" d="M284.503,241.209c-0.138,0-0.25-0.112-0.25-0.25v-3.603c0-0.138,0.112-0.25,0.25-0.25
						s0.25,0.112,0.25,0.25v3.603C284.753,241.096,284.641,241.209,284.503,241.209z"/>
				</g>
				<g>
					<linearGradient id="SVGID_45_" gradientUnits="userSpaceOnUse" x1="246.3691" y1="237.059" x2="303.5834" y2="240.1126">
						<stop  offset="0.0168" style="stop-color:#CE338A"/>
						<stop  offset="0.1414" style="stop-color:#D5337D"/>
						<stop  offset="0.3929" style="stop-color:#E13369"/>
						<stop  offset="0.5624" style="stop-color:#E53362"/>
						<stop  offset="1" style="stop-color:#F7941D"/>
					</linearGradient>
					<path fill="url(#SVGID_45_)" d="M285.687,241.691c-0.138,0-0.25-0.112-0.25-0.25v-4.567c0-0.138,0.112-0.25,0.25-0.25
						s0.25,0.112,0.25,0.25v4.567C285.937,241.579,285.824,241.691,285.687,241.691z"/>
				</g>
				<g>
					<linearGradient id="SVGID_46_" gradientUnits="userSpaceOnUse" x1="246.3725" y1="236.9964" x2="303.5867" y2="240.05">
						<stop  offset="0.0168" style="stop-color:#CE338A"/>
						<stop  offset="0.1414" style="stop-color:#D5337D"/>
						<stop  offset="0.3929" style="stop-color:#E13369"/>
						<stop  offset="0.5624" style="stop-color:#E53362"/>
						<stop  offset="1" style="stop-color:#F7941D"/>
					</linearGradient>
					<path fill="url(#SVGID_46_)" d="M286.871,241.965c-0.138,0-0.25-0.112-0.25-0.25V236.6c0-0.138,0.112-0.25,0.25-0.25
						s0.25,0.112,0.25,0.25v5.115C287.121,241.853,287.009,241.965,286.871,241.965z"/>
				</g>
				<g>
					<linearGradient id="SVGID_47_" gradientUnits="userSpaceOnUse" x1="246.3758" y1="236.9334" x2="303.5901" y2="239.987">
						<stop  offset="0.0168" style="stop-color:#CE338A"/>
						<stop  offset="0.1414" style="stop-color:#D5337D"/>
						<stop  offset="0.3929" style="stop-color:#E13369"/>
						<stop  offset="0.5624" style="stop-color:#E53362"/>
						<stop  offset="1" style="stop-color:#F7941D"/>
					</linearGradient>
					<path fill="url(#SVGID_47_)" d="M288.055,242.02c-0.138,0-0.25-0.112-0.25-0.25v-5.225c0-0.138,0.112-0.25,0.25-0.25
						s0.25,0.112,0.25,0.25v5.225C288.305,241.908,288.192,242.02,288.055,242.02z"/>
				</g>
				<g>
					<linearGradient id="SVGID_48_" gradientUnits="userSpaceOnUse" x1="246.3792" y1="236.8705" x2="303.5934" y2="239.924">
						<stop  offset="0.0168" style="stop-color:#CE338A"/>
						<stop  offset="0.1414" style="stop-color:#D5337D"/>
						<stop  offset="0.3929" style="stop-color:#E13369"/>
						<stop  offset="0.5624" style="stop-color:#E53362"/>
						<stop  offset="1" style="stop-color:#F7941D"/>
					</linearGradient>
					<path fill="url(#SVGID_48_)" d="M289.238,242.207c-0.138,0-0.25-0.112-0.25-0.25v-5.598c0-0.138,0.112-0.25,0.25-0.25
						s0.25,0.112,0.25,0.25v5.598C289.488,242.094,289.376,242.207,289.238,242.207z"/>
				</g>
				<g>
					<linearGradient id="SVGID_49_" gradientUnits="userSpaceOnUse" x1="246.3826" y1="236.8069" x2="303.5969" y2="239.8605">
						<stop  offset="0.0168" style="stop-color:#CE338A"/>
						<stop  offset="0.1414" style="stop-color:#D5337D"/>
						<stop  offset="0.3929" style="stop-color:#E13369"/>
						<stop  offset="0.5624" style="stop-color:#E53362"/>
						<stop  offset="1" style="stop-color:#F7941D"/>
					</linearGradient>
					<path fill="url(#SVGID_49_)" d="M290.423,242.086c-0.138,0-0.25-0.112-0.25-0.25v-5.356c0-0.138,0.112-0.25,0.25-0.25
						s0.25,0.112,0.25,0.25v5.356C290.673,241.973,290.561,242.086,290.423,242.086z"/>
				</g>
				<g>
					<linearGradient id="SVGID_50_" gradientUnits="userSpaceOnUse" x1="246.3859" y1="236.7444" x2="303.6002" y2="239.798">
						<stop  offset="0.0168" style="stop-color:#CE338A"/>
						<stop  offset="0.1414" style="stop-color:#D5337D"/>
						<stop  offset="0.3929" style="stop-color:#E13369"/>
						<stop  offset="0.5624" style="stop-color:#E53362"/>
						<stop  offset="1" style="stop-color:#F7941D"/>
					</linearGradient>
					<path fill="url(#SVGID_50_)" d="M291.606,241.965c-0.138,0-0.25-0.112-0.25-0.25V236.6c0-0.138,0.112-0.25,0.25-0.25
						s0.25,0.112,0.25,0.25v5.115C291.856,241.853,291.744,241.965,291.606,241.965z"/>
				</g>
				<g>
					<linearGradient id="SVGID_51_" gradientUnits="userSpaceOnUse" x1="246.3893" y1="236.6809" x2="303.6036" y2="239.7345">
						<stop  offset="0.0168" style="stop-color:#CE338A"/>
						<stop  offset="0.1414" style="stop-color:#D5337D"/>
						<stop  offset="0.3929" style="stop-color:#E13369"/>
						<stop  offset="0.5624" style="stop-color:#E53362"/>
						<stop  offset="1" style="stop-color:#F7941D"/>
					</linearGradient>
					<path fill="url(#SVGID_51_)" d="M292.79,241.479c-0.138,0-0.25-0.112-0.25-0.25v-4.144c0-0.138,0.112-0.25,0.25-0.25
						s0.25,0.112,0.25,0.25v4.144C293.04,241.367,292.928,241.479,292.79,241.479z"/>
				</g>
				<g>
					<linearGradient id="SVGID_52_" gradientUnits="userSpaceOnUse" x1="246.3926" y1="236.6184" x2="303.6069" y2="239.672">
						<stop  offset="0.0168" style="stop-color:#CE338A"/>
						<stop  offset="0.1414" style="stop-color:#D5337D"/>
						<stop  offset="0.3929" style="stop-color:#E13369"/>
						<stop  offset="0.5624" style="stop-color:#E53362"/>
						<stop  offset="1" style="stop-color:#F7941D"/>
					</linearGradient>
					<path fill="url(#SVGID_52_)" d="M293.975,241.272c-0.138,0-0.25-0.112-0.25-0.25v-3.729c0-0.138,0.112-0.25,0.25-0.25
						s0.25,0.112,0.25,0.25v3.729C294.225,241.16,294.112,241.272,293.975,241.272z"/>
				</g>
				<g>
					<linearGradient id="SVGID_53_" gradientUnits="userSpaceOnUse" x1="246.396" y1="236.5554" x2="303.6103" y2="239.609">
						<stop  offset="0.0168" style="stop-color:#CE338A"/>
						<stop  offset="0.1414" style="stop-color:#D5337D"/>
						<stop  offset="0.3929" style="stop-color:#E13369"/>
						<stop  offset="0.5624" style="stop-color:#E53362"/>
						<stop  offset="1" style="stop-color:#F7941D"/>
					</linearGradient>
					<path fill="url(#SVGID_53_)" d="M295.158,240.749c-0.138,0-0.25-0.112-0.25-0.25v-2.682c0-0.138,0.112-0.25,0.25-0.25
						s0.25,0.112,0.25,0.25v2.682C295.408,240.636,295.296,240.749,295.158,240.749z"/>
				</g>
				<g>
					<linearGradient id="SVGID_54_" gradientUnits="userSpaceOnUse" x1="246.3994" y1="236.4924" x2="303.6136" y2="239.546">
						<stop  offset="0.0168" style="stop-color:#CE338A"/>
						<stop  offset="0.1414" style="stop-color:#D5337D"/>
						<stop  offset="0.3929" style="stop-color:#E13369"/>
						<stop  offset="0.5624" style="stop-color:#E53362"/>
						<stop  offset="1" style="stop-color:#F7941D"/>
					</linearGradient>
					<path fill="url(#SVGID_54_)" d="M296.342,240.442c-0.138,0-0.25-0.112-0.25-0.25v-2.068c0-0.138,0.112-0.25,0.25-0.25
						s0.25,0.112,0.25,0.25v2.068C296.592,240.33,296.479,240.442,296.342,240.442z"/>
				</g>
				<g>
					<linearGradient id="SVGID_55_" gradientUnits="userSpaceOnUse" x1="246.4027" y1="236.4294" x2="303.617" y2="239.4829">
						<stop  offset="0.0168" style="stop-color:#CE338A"/>
						<stop  offset="0.1414" style="stop-color:#D5337D"/>
						<stop  offset="0.3929" style="stop-color:#E13369"/>
						<stop  offset="0.5624" style="stop-color:#E53362"/>
						<stop  offset="1" style="stop-color:#F7941D"/>
					</linearGradient>
					<path fill="url(#SVGID_55_)" d="M297.526,240.195c-0.138,0-0.25-0.112-0.25-0.25v-1.574c0-0.138,0.112-0.25,0.25-0.25
						s0.25,0.112,0.25,0.25v1.574C297.776,240.083,297.664,240.195,297.526,240.195z"/>
				</g>
				<g>
					<linearGradient id="SVGID_56_" gradientUnits="userSpaceOnUse" x1="246.4061" y1="236.3664" x2="303.6204" y2="239.42">
						<stop  offset="0.0168" style="stop-color:#CE338A"/>
						<stop  offset="0.1414" style="stop-color:#D5337D"/>
						<stop  offset="0.3929" style="stop-color:#E13369"/>
						<stop  offset="0.5624" style="stop-color:#E53362"/>
						<stop  offset="1" style="stop-color:#F7941D"/>
					</linearGradient>
					<path fill="url(#SVGID_56_)" d="M298.71,240.228c-0.138,0-0.25-0.112-0.25-0.25v-1.641c0-0.138,0.112-0.25,0.25-0.25
						s0.25,0.112,0.25,0.25v1.641C298.96,240.116,298.848,240.228,298.71,240.228z"/>
				</g>
				<g>
					<linearGradient id="SVGID_57_" gradientUnits="userSpaceOnUse" x1="246.4094" y1="236.3034" x2="303.6237" y2="239.357">
						<stop  offset="0.0168" style="stop-color:#CE338A"/>
						<stop  offset="0.1414" style="stop-color:#D5337D"/>
						<stop  offset="0.3929" style="stop-color:#E13369"/>
						<stop  offset="0.5624" style="stop-color:#E53362"/>
						<stop  offset="1" style="stop-color:#F7941D"/>
					</linearGradient>
					<path fill="url(#SVGID_57_)" d="M299.894,240.228c-0.138,0-0.25-0.112-0.25-0.25v-1.641c0-0.138,0.112-0.25,0.25-0.25
						s0.25,0.112,0.25,0.25v1.641C300.144,240.116,300.031,240.228,299.894,240.228z"/>
				</g>
				<g>
					<linearGradient id="SVGID_58_" gradientUnits="userSpaceOnUse" x1="246.4128" y1="236.2403" x2="303.6271" y2="239.2939">
						<stop  offset="0.0168" style="stop-color:#CE338A"/>
						<stop  offset="0.1414" style="stop-color:#D5337D"/>
						<stop  offset="0.3929" style="stop-color:#E13369"/>
						<stop  offset="0.5624" style="stop-color:#E53362"/>
						<stop  offset="1" style="stop-color:#F7941D"/>
					</linearGradient>
					<path fill="url(#SVGID_58_)" d="M301.078,240.656c-0.138,0-0.25-0.112-0.25-0.25v-2.496c0-0.138,0.112-0.25,0.25-0.25
						s0.25,0.112,0.25,0.25v2.496C301.328,240.544,301.216,240.656,301.078,240.656z"/>
				</g>
				<g>
					<linearGradient id="SVGID_59_" gradientUnits="userSpaceOnUse" x1="246.4162" y1="236.1769" x2="303.6305" y2="239.2304">
						<stop  offset="0.0168" style="stop-color:#CE338A"/>
						<stop  offset="0.1414" style="stop-color:#D5337D"/>
						<stop  offset="0.3929" style="stop-color:#E13369"/>
						<stop  offset="0.5624" style="stop-color:#E53362"/>
						<stop  offset="1" style="stop-color:#F7941D"/>
					</linearGradient>
					<path fill="url(#SVGID_59_)" d="M302.262,240.869c-0.138,0-0.25-0.112-0.25-0.25v-2.923c0-0.138,0.112-0.25,0.25-0.25
						s0.25,0.112,0.25,0.25v2.923C302.512,240.757,302.399,240.869,302.262,240.869z"/>
				</g>
				<g>
					<linearGradient id="SVGID_60_" gradientUnits="userSpaceOnUse" x1="246.4195" y1="236.1144" x2="303.6338" y2="239.1679">
						<stop  offset="0.0168" style="stop-color:#CE338A"/>
						<stop  offset="0.1414" style="stop-color:#D5337D"/>
						<stop  offset="0.3929" style="stop-color:#E13369"/>
						<stop  offset="0.5624" style="stop-color:#E53362"/>
						<stop  offset="1" style="stop-color:#F7941D"/>
					</linearGradient>
					<path fill="url(#SVGID_60_)" d="M303.445,241.272c-0.138,0-0.25-0.112-0.25-0.25v-3.729c0-0.138,0.112-0.25,0.25-0.25
						s0.25,0.112,0.25,0.25v3.729C303.695,241.16,303.583,241.272,303.445,241.272z"/>
				</g>
				<g>
					<linearGradient id="SVGID_61_" gradientUnits="userSpaceOnUse" x1="246.4229" y1="236.0513" x2="303.6372" y2="239.1049">
						<stop  offset="0.0168" style="stop-color:#CE338A"/>
						<stop  offset="0.1414" style="stop-color:#D5337D"/>
						<stop  offset="0.3929" style="stop-color:#E13369"/>
						<stop  offset="0.5624" style="stop-color:#E53362"/>
						<stop  offset="1" style="stop-color:#F7941D"/>
					</linearGradient>
					<path fill="url(#SVGID_61_)" d="M304.63,241.823c-0.138,0-0.25-0.112-0.25-0.25v-4.83c0-0.138,0.112-0.25,0.25-0.25
						s0.25,0.112,0.25,0.25v4.83C304.88,241.711,304.768,241.823,304.63,241.823z"/>
				</g>
				<g>
					<linearGradient id="SVGID_62_" gradientUnits="userSpaceOnUse" x1="246.4263" y1="235.9883" x2="303.6405" y2="239.0419">
						<stop  offset="0.0168" style="stop-color:#CE338A"/>
						<stop  offset="0.1414" style="stop-color:#D5337D"/>
						<stop  offset="0.3929" style="stop-color:#E13369"/>
						<stop  offset="0.5624" style="stop-color:#E53362"/>
						<stop  offset="1" style="stop-color:#F7941D"/>
					</linearGradient>
					<path fill="url(#SVGID_62_)" d="M305.813,241.881c-0.138,0-0.25-0.112-0.25-0.25v-4.945c0-0.138,0.112-0.25,0.25-0.25
						s0.25,0.112,0.25,0.25v4.945C306.063,241.768,305.951,241.881,305.813,241.881z"/>
				</g>
				<g>
					<linearGradient id="SVGID_63_" gradientUnits="userSpaceOnUse" x1="246.4296" y1="235.9248" x2="303.6439" y2="238.9784">
						<stop  offset="0.0168" style="stop-color:#CE338A"/>
						<stop  offset="0.1414" style="stop-color:#D5337D"/>
						<stop  offset="0.3929" style="stop-color:#E13369"/>
						<stop  offset="0.5624" style="stop-color:#E53362"/>
						<stop  offset="1" style="stop-color:#F7941D"/>
					</linearGradient>
					<path fill="url(#SVGID_63_)" d="M306.998,241.987c-0.138,0-0.25-0.112-0.25-0.25v-5.159c0-0.138,0.112-0.25,0.25-0.25
						s0.25,0.112,0.25,0.25v5.159C307.248,241.875,307.136,241.987,306.998,241.987z"/>
				</g>
				<g>
					<linearGradient id="SVGID_64_" gradientUnits="userSpaceOnUse" x1="246.433" y1="235.8618" x2="303.6473" y2="238.9154">
						<stop  offset="0.0168" style="stop-color:#CE338A"/>
						<stop  offset="0.1414" style="stop-color:#D5337D"/>
						<stop  offset="0.3929" style="stop-color:#E13369"/>
						<stop  offset="0.5624" style="stop-color:#E53362"/>
						<stop  offset="1" style="stop-color:#F7941D"/>
					</linearGradient>
					<path fill="url(#SVGID_64_)" d="M308.182,241.987c-0.138,0-0.25-0.112-0.25-0.25v-5.159c0-0.138,0.112-0.25,0.25-0.25
						s0.25,0.112,0.25,0.25v5.159C308.432,241.875,308.319,241.987,308.182,241.987z"/>
				</g>
				<g>
					<linearGradient id="SVGID_65_" gradientUnits="userSpaceOnUse" x1="246.4363" y1="235.7993" x2="303.6506" y2="238.8529">
						<stop  offset="0.0168" style="stop-color:#CE338A"/>
						<stop  offset="0.1414" style="stop-color:#D5337D"/>
						<stop  offset="0.3929" style="stop-color:#E13369"/>
						<stop  offset="0.5624" style="stop-color:#E53362"/>
						<stop  offset="1" style="stop-color:#F7941D"/>
					</linearGradient>
					<path fill="url(#SVGID_65_)" d="M309.365,241.404c-0.138,0-0.25-0.112-0.25-0.25v-3.992c0-0.138,0.112-0.25,0.25-0.25
						s0.25,0.112,0.25,0.25v3.992C309.615,241.292,309.503,241.404,309.365,241.404z"/>
				</g>
				<g>
					<linearGradient id="SVGID_66_" gradientUnits="userSpaceOnUse" x1="246.4397" y1="235.7363" x2="303.654" y2="238.7898">
						<stop  offset="0.0168" style="stop-color:#CE338A"/>
						<stop  offset="0.1414" style="stop-color:#D5337D"/>
						<stop  offset="0.3929" style="stop-color:#E13369"/>
						<stop  offset="0.5624" style="stop-color:#E53362"/>
						<stop  offset="1" style="stop-color:#F7941D"/>
					</linearGradient>
					<path fill="url(#SVGID_66_)" d="M310.55,241.198c-0.138,0-0.25-0.112-0.25-0.25v-3.58c0-0.138,0.112-0.25,0.25-0.25
						c0.138,0,0.25,0.112,0.25,0.25v3.58C310.8,241.086,310.687,241.198,310.55,241.198z"/>
				</g>
				<g>
					<linearGradient id="SVGID_67_" gradientUnits="userSpaceOnUse" x1="246.4431" y1="235.6728" x2="303.6574" y2="238.7264">
						<stop  offset="0.0168" style="stop-color:#CE338A"/>
						<stop  offset="0.1414" style="stop-color:#D5337D"/>
						<stop  offset="0.3929" style="stop-color:#E13369"/>
						<stop  offset="0.5624" style="stop-color:#E53362"/>
						<stop  offset="1" style="stop-color:#F7941D"/>
					</linearGradient>
					<path fill="url(#SVGID_67_)" d="M311.733,240.614c-0.138,0-0.25-0.112-0.25-0.25v-2.413c0-0.138,0.112-0.25,0.25-0.25
						s0.25,0.112,0.25,0.25v2.413C311.983,240.502,311.871,240.614,311.733,240.614z"/>
				</g>
				<g>
					<linearGradient id="SVGID_68_" gradientUnits="userSpaceOnUse" x1="246.4465" y1="235.6098" x2="303.6607" y2="238.6634">
						<stop  offset="0.0168" style="stop-color:#CE338A"/>
						<stop  offset="0.1414" style="stop-color:#D5337D"/>
						<stop  offset="0.3929" style="stop-color:#E13369"/>
						<stop  offset="0.5624" style="stop-color:#E53362"/>
						<stop  offset="1" style="stop-color:#F7941D"/>
					</linearGradient>
					<path fill="url(#SVGID_68_)" d="M312.917,240.104c-0.138,0-0.25-0.112-0.25-0.25v-1.394c0-0.138,0.112-0.25,0.25-0.25
						s0.25,0.112,0.25,0.25v1.394C313.167,239.992,313.055,240.104,312.917,240.104z"/>
				</g>
				<g>
					<linearGradient id="SVGID_69_" gradientUnits="userSpaceOnUse" x1="246.4498" y1="235.5468" x2="303.6641" y2="238.6003">
						<stop  offset="0.0168" style="stop-color:#CE338A"/>
						<stop  offset="0.1414" style="stop-color:#D5337D"/>
						<stop  offset="0.3929" style="stop-color:#E13369"/>
						<stop  offset="0.5624" style="stop-color:#E53362"/>
						<stop  offset="1" style="stop-color:#F7941D"/>
					</linearGradient>
					<path fill="url(#SVGID_69_)" d="M314.102,240.104c-0.138,0-0.25-0.112-0.25-0.25v-1.394c0-0.138,0.112-0.25,0.25-0.25
						s0.25,0.112,0.25,0.25v1.394C314.352,239.992,314.239,240.104,314.102,240.104z"/>
				</g>
				<g>
					<linearGradient id="SVGID_70_" gradientUnits="userSpaceOnUse" x1="246.4532" y1="235.4843" x2="303.6674" y2="238.5378">
						<stop  offset="0.0168" style="stop-color:#CE338A"/>
						<stop  offset="0.1414" style="stop-color:#D5337D"/>
						<stop  offset="0.3929" style="stop-color:#E13369"/>
						<stop  offset="0.5624" style="stop-color:#E53362"/>
						<stop  offset="1" style="stop-color:#F7941D"/>
					</linearGradient>
					<path fill="url(#SVGID_70_)" d="M315.285,240.236c-0.138,0-0.25-0.112-0.25-0.25v-1.656c0-0.138,0.112-0.25,0.25-0.25
						s0.25,0.112,0.25,0.25v1.656C315.535,240.124,315.423,240.236,315.285,240.236z"/>
				</g>
				<g>
					<linearGradient id="SVGID_71_" gradientUnits="userSpaceOnUse" x1="246.4565" y1="235.4213" x2="303.6708" y2="238.4748">
						<stop  offset="0.0168" style="stop-color:#CE338A"/>
						<stop  offset="0.1414" style="stop-color:#D5337D"/>
						<stop  offset="0.3929" style="stop-color:#E13369"/>
						<stop  offset="0.5624" style="stop-color:#E53362"/>
						<stop  offset="1" style="stop-color:#F7941D"/>
					</linearGradient>
					<path fill="url(#SVGID_71_)" d="M316.469,240.236c-0.138,0-0.25-0.112-0.25-0.25v-1.656c0-0.138,0.112-0.25,0.25-0.25
						s0.25,0.112,0.25,0.25v1.656C316.719,240.124,316.606,240.236,316.469,240.236z"/>
				</g>
				<g>
					<linearGradient id="SVGID_72_" gradientUnits="userSpaceOnUse" x1="246.4599" y1="235.3577" x2="303.6742" y2="238.4113">
						<stop  offset="0.0168" style="stop-color:#CE338A"/>
						<stop  offset="0.1414" style="stop-color:#D5337D"/>
						<stop  offset="0.3929" style="stop-color:#E13369"/>
						<stop  offset="0.5624" style="stop-color:#E53362"/>
						<stop  offset="1" style="stop-color:#F7941D"/>
					</linearGradient>
					<path fill="url(#SVGID_72_)" d="M317.653,240.614c-0.138,0-0.25-0.112-0.25-0.25v-2.413c0-0.138,0.112-0.25,0.25-0.25
						s0.25,0.112,0.25,0.25v2.413C317.903,240.502,317.791,240.614,317.653,240.614z"/>
				</g>
				<g>
					<linearGradient id="SVGID_73_" gradientUnits="userSpaceOnUse" x1="246.4632" y1="235.2952" x2="303.6775" y2="238.3488">
						<stop  offset="0.0168" style="stop-color:#CE338A"/>
						<stop  offset="0.1414" style="stop-color:#D5337D"/>
						<stop  offset="0.3929" style="stop-color:#E13369"/>
						<stop  offset="0.5624" style="stop-color:#E53362"/>
						<stop  offset="1" style="stop-color:#F7941D"/>
					</linearGradient>
					<path fill="url(#SVGID_73_)" d="M318.837,241.091c-0.138,0-0.25-0.112-0.25-0.25v-3.367c0-0.138,0.112-0.25,0.25-0.25
						s0.25,0.112,0.25,0.25v3.367C319.087,240.979,318.975,241.091,318.837,241.091z"/>
				</g>
				<g>
					<linearGradient id="SVGID_74_" gradientUnits="userSpaceOnUse" x1="246.4666" y1="235.2323" x2="303.6809" y2="238.2858">
						<stop  offset="0.0168" style="stop-color:#CE338A"/>
						<stop  offset="0.1414" style="stop-color:#D5337D"/>
						<stop  offset="0.3929" style="stop-color:#E13369"/>
						<stop  offset="0.5624" style="stop-color:#E53362"/>
						<stop  offset="1" style="stop-color:#F7941D"/>
					</linearGradient>
					<path fill="url(#SVGID_74_)" d="M320.021,241.7c-0.138,0-0.25-0.112-0.25-0.25v-4.584c0-0.138,0.112-0.25,0.25-0.25
						s0.25,0.112,0.25,0.25v4.584C320.271,241.588,320.158,241.7,320.021,241.7z"/>
				</g>
				<g>
					<linearGradient id="SVGID_75_" gradientUnits="userSpaceOnUse" x1="246.47" y1="235.1687" x2="303.6843" y2="238.2223">
						<stop  offset="0.0168" style="stop-color:#CE338A"/>
						<stop  offset="0.1414" style="stop-color:#D5337D"/>
						<stop  offset="0.3929" style="stop-color:#E13369"/>
						<stop  offset="0.5624" style="stop-color:#E53362"/>
						<stop  offset="1" style="stop-color:#F7941D"/>
					</linearGradient>
					<path fill="url(#SVGID_75_)" d="M321.205,242.045c-0.138,0-0.25-0.112-0.25-0.25v-5.274c0-0.138,0.112-0.25,0.25-0.25
						s0.25,0.112,0.25,0.25v5.274C321.455,241.932,321.343,242.045,321.205,242.045z"/>
				</g>
				<g>
					<linearGradient id="SVGID_76_" gradientUnits="userSpaceOnUse" x1="246.4733" y1="235.1062" x2="303.6876" y2="238.1598">
						<stop  offset="0.0168" style="stop-color:#CE338A"/>
						<stop  offset="0.1414" style="stop-color:#D5337D"/>
						<stop  offset="0.3929" style="stop-color:#E13369"/>
						<stop  offset="0.5624" style="stop-color:#E53362"/>
						<stop  offset="1" style="stop-color:#F7941D"/>
					</linearGradient>
					<path fill="url(#SVGID_76_)" d="M322.389,240.911c-0.138,0-0.25-0.112-0.25-0.25v-3.006c0-0.138,0.112-0.25,0.25-0.25
						s0.25,0.112,0.25,0.25v3.006C322.639,240.799,322.526,240.911,322.389,240.911z"/>
				</g>
				<g>
					<linearGradient id="SVGID_77_" gradientUnits="userSpaceOnUse" x1="246.4767" y1="235.0432" x2="303.691" y2="238.0968">
						<stop  offset="0.0168" style="stop-color:#CE338A"/>
						<stop  offset="0.1414" style="stop-color:#D5337D"/>
						<stop  offset="0.3929" style="stop-color:#E13369"/>
						<stop  offset="0.5624" style="stop-color:#E53362"/>
						<stop  offset="1" style="stop-color:#F7941D"/>
					</linearGradient>
					<path fill="url(#SVGID_77_)" d="M323.572,240.549c-0.138,0-0.25-0.112-0.25-0.25v-2.281c0-0.138,0.112-0.25,0.25-0.25
						s0.25,0.112,0.25,0.25v2.281C323.822,240.436,323.71,240.549,323.572,240.549z"/>
				</g>
				<g>
					<linearGradient id="SVGID_78_" gradientUnits="userSpaceOnUse" x1="246.4801" y1="234.9802" x2="303.6943" y2="238.0338">
						<stop  offset="0.0168" style="stop-color:#CE338A"/>
						<stop  offset="0.1414" style="stop-color:#D5337D"/>
						<stop  offset="0.3929" style="stop-color:#E13369"/>
						<stop  offset="0.5624" style="stop-color:#E53362"/>
						<stop  offset="1" style="stop-color:#F7941D"/>
					</linearGradient>
					<path fill="url(#SVGID_78_)" d="M324.757,240.204c-0.138,0-0.25-0.112-0.25-0.25v-1.592c0-0.138,0.112-0.25,0.25-0.25
						s0.25,0.112,0.25,0.25v1.592C325.007,240.091,324.895,240.204,324.757,240.204z"/>
				</g>
			</g>
			<rect x="242.979" y="248.305" fill="#AFE8E8" width="84.449" height="0.469"/>
			<circle fill="#88BABA" cx="250.017" cy="258.336" r="6.964"/>
			<circle fill="#AFE8E8" cx="250.419" cy="257.774" r="6.964"/>
			<circle fill="#88BABA" cx="269.16" cy="258.336" r="6.964"/>
			<circle fill="#AFE8E8" cx="269.562" cy="257.774" r="6.964"/>
			<path fill="#AFE8E8" d="M289.147,256.735h-3.536c-0.505,0-0.914-0.409-0.914-0.914v-3.536c0-0.505,0.409-0.914,0.914-0.914h3.536
				c0.505,0,0.914,0.409,0.914,0.914v3.536C290.061,256.326,289.652,256.735,289.147,256.735z"/>
			<path fill="#AFE8E8" d="M296.621,256.735h-3.536c-0.505,0-0.914-0.409-0.914-0.914v-3.536c0-0.505,0.409-0.914,0.914-0.914h3.536
				c0.505,0,0.914,0.409,0.914,0.914v3.536C297.534,256.326,297.125,256.735,296.621,256.735z"/>
			<path fill="#AFE8E8" d="M304.094,256.735h-3.536c-0.505,0-0.914-0.409-0.914-0.914v-3.536c0-0.505,0.409-0.914,0.914-0.914h3.536
				c0.505,0,0.914,0.409,0.914,0.914v3.536C305.008,256.326,304.599,256.735,304.094,256.735z"/>
			<path fill="#AFE8E8" d="M311.568,256.735h-3.536c-0.505,0-0.914-0.409-0.914-0.914v-3.536c0-0.505,0.409-0.914,0.914-0.914h3.536
				c0.505,0,0.914,0.409,0.914,0.914v3.536C312.482,256.326,312.073,256.735,311.568,256.735z"/>
			<path fill="#AFE8E8" d="M319.042,256.735h-3.536c-0.505,0-0.914-0.409-0.914-0.914v-3.536c0-0.505,0.409-0.914,0.914-0.914h3.536
				c0.505,0,0.914,0.409,0.914,0.914v3.536C319.956,256.326,319.547,256.735,319.042,256.735z"/>
			<path fill="#AFE8E8" d="M326.516,256.735h-3.536c-0.505,0-0.914-0.409-0.914-0.914v-3.536c0-0.505,0.409-0.914,0.914-0.914h3.536
				c0.505,0,0.914,0.409,0.914,0.914v3.536C327.429,256.326,327.02,256.735,326.516,256.735z"/>
			<path fill="#AFE8E8" d="M289.147,263.137h-3.536c-0.505,0-0.914-0.409-0.914-0.914v-3.536c0-0.505,0.409-0.914,0.914-0.914h3.536
				c0.505,0,0.914,0.409,0.914,0.914v3.536C290.061,262.728,289.652,263.137,289.147,263.137z"/>
			<path fill="#AFE8E8" d="M296.621,263.137h-3.536c-0.505,0-0.914-0.409-0.914-0.914v-3.536c0-0.505,0.409-0.914,0.914-0.914h3.536
				c0.505,0,0.914,0.409,0.914,0.914v3.536C297.534,262.728,297.125,263.137,296.621,263.137z"/>
			<path fill="#AFE8E8" d="M304.094,263.137h-3.536c-0.505,0-0.914-0.409-0.914-0.914v-3.536c0-0.505,0.409-0.914,0.914-0.914h3.536
				c0.505,0,0.914,0.409,0.914,0.914v3.536C305.008,262.728,304.599,263.137,304.094,263.137z"/>
			<path fill="#AFE8E8" d="M311.568,263.137h-3.536c-0.505,0-0.914-0.409-0.914-0.914v-3.536c0-0.505,0.409-0.914,0.914-0.914h3.536
				c0.505,0,0.914,0.409,0.914,0.914v3.536C312.482,262.728,312.073,263.137,311.568,263.137z"/>
			<path fill="#AFE8E8" d="M319.042,263.137h-3.536c-0.505,0-0.914-0.409-0.914-0.914v-3.536c0-0.505,0.409-0.914,0.914-0.914h3.536
				c0.505,0,0.914,0.409,0.914,0.914v3.536C319.956,262.728,319.547,263.137,319.042,263.137z"/>
			<path fill="#AFE8E8" d="M326.516,263.137h-3.536c-0.505,0-0.914-0.409-0.914-0.914v-3.536c0-0.505,0.409-0.914,0.914-0.914h3.536
				c0.505,0,0.914,0.409,0.914,0.914v3.536C327.429,262.728,327.02,263.137,326.516,263.137z"/>
		</g>
	</g>
	<g id="object_5_">
		<circle fill="#FCE277" cx="499.513" cy="290.02" r="15.522"/>
		<circle fill="#FCE277" cx="483.991" cy="260.455" r="10.401"/>
		<circle fill="#FCE277" cx="422.729" cy="300.896" r="6.713"/>
		<circle fill="#FCE277" cx="130.384" cy="305.542" r="6.713"/>
		<circle fill="#FCE277" cx="451.285" cy="299.011" r="4.463"/>
		<circle fill="#FCE277" cx="128.854" cy="276.57" r="4.463"/>
		<circle fill="#FCE277" cx="406.819" cy="285.907" r="8.198"/>
	</g>
	<g id="man_wear_yellow_tshirt">
		<polygon fill="#9ED1DD" points="168.766,282.274 169.418,333.098 176.245,331.781 174.988,281.316 		"/>
		<path fill="#E53362" d="M142.35,235.403l-6.174,1.857c-0.242,0.073-0.496-0.073-0.554-0.32l-6.755-28.53
			c-0.056-0.234,0.088-0.47,0.322-0.528l6.616-1.638c0.242-0.06,0.485,0.093,0.536,0.337L142.35,235.403z"/>
		<path fill="#9ED1DD" d="M145.06,340.693l0.42-4.202c0.165-1.655,1.333-3.036,2.937-3.475l20.557-5.621
			c0.475-0.13,0.969-0.171,1.458-0.122l5.62,0.561c0.337,0.034,0.668,0.11,0.986,0.227l18.722,6.879
			c1.54,0.566,2.581,2.012,2.629,3.652l0.098,3.329c0.072,2.467-2.077,4.415-4.525,4.101l-0.14-0.018
			c-1.84-0.236-3.279-1.7-3.482-3.544l-0.069-0.63c-0.174-1.585-1.27-2.916-2.791-3.393l-13.617-4.268
			c-0.681-0.214-1.408-0.242-2.104-0.081l-15.364,3.542c-1.745,0.402-3.013,1.911-3.108,3.699l0,0
			c-0.122,2.288-2.13,4.01-4.41,3.782l-0.221-0.022C146.45,344.868,144.84,342.9,145.06,340.693z"/>
		<polygon fill="#9ED1DD" points="142.35,235.403 136.275,237.23 143.924,283.548 189.803,281.316 189.803,266.209 		"/>
		<path fill="#474F50" d="M181.433,314.431l-4.963,15.111l23.926,7.111c0,0,2.296-5.111-4.296-7.556
			c-6.593-2.444-8.444-10.209-7.407-12.741L181.433,314.431z"/>
		<path fill="#474F50" d="M231.618,312.079l9.296,14.796l17.63-14.796c0,0-3.185-3.278-6.593-1.574s-10.704,1.593-14.056-2.87
			L231.618,312.079z"/>
		<path fill="#F99680" d="M186.84,289.765c0,0-3.852,13.778-5.407,24.667c0,0,2.889,4,7.259,1.926c0,0,8.148-19.852,9.481-23.556
			C198.174,292.802,192.248,295.024,186.84,289.765z"/>
		<path fill="#F99680" d="M226.174,286.468l11.722,21.167c0,0-1.556,4.111-6.278,4.444c0,0-11.056-14.611-14.444-21.333
			C217.174,290.746,223.84,289.802,226.174,286.468z"/>
		<path fill="#D35971" d="M167.815,201.166l0.951,9.265l-1.333,2.222l3.77,7.467c0,0,4.804-1.874,5.026-6.096
			c0.222-4.222-2.009-11.002-2.009-11.002L167.815,201.166z"/>
		<g>
			<path fill="#ED5526" d="M150.988,162.209c0,0-4.593-6.815-11.556-1.185c-6.963,5.63-5.926,11.63-18.519,19
				c-12.593,7.37-13.481,22.296-3.259,27.204s17.132-5.815,17.132-5.815l19.035-9.913c0,0,3.593-3.069,2.406-11.476
				C155.042,171.616,159.136,158.209,150.988,162.209z"/>
		</g>
		<path fill="#D35971" d="M226.174,286.468c0,0-0.32,5.673-6.049,9.309l-2.951-5.031L226.174,286.468z"/>
		<path fill="#D35971" d="M198.174,292.802c0,0-5.69,7.517-13.29,4.536c0,0,1.567-6.221,1.956-7.573L198.174,292.802z"/>
		<path fill="#474F50" d="M143.581,245.616c0,0-0.889,25.63,8.741,27.111c9.63,1.481,34.222-4.444,35.259-1.333
			c1.037,3.111-1.926,11.852-0.741,18.37c1.185,6.518,7.111,5.185,11.333,3.037c4.222-2.148,8.667-12.963,8.667-12.963
			s5.556,10.111,10.333,10.907c4.778,0.796,9-4.278,9-4.278s2.296-5-4.667-17s-10.815-16-10.815-16s1.333-5.481-7.704-6.963
			c-9.037-1.481-26.074-1.481-26.074-1.481S157.655,242.505,143.581,245.616z"/>
		<polygon fill="#474F50" points="198.454,186.712 198.099,186.357 170.248,179.32 163.79,200 191.359,207.987 191.404,207.842 
			191.766,207.987 		"/>
		<path fill="#D7F4EF" d="M165.072,200.059l25.222,7.307c0.431,0.125,0.883-0.118,1.016-0.547l6.055-19.429
			c0.141-0.452-0.127-0.929-0.585-1.045l-25.481-6.438c-0.424-0.107-0.858,0.136-0.989,0.554l-5.796,18.56
			C164.377,199.462,164.629,199.93,165.072,200.059z"/>
		<path fill="#F9B655" d="M149.581,190.061c0,0-5.259-0.518-8.667-2.148c-3.407-1.63-8.518,1.333-6.37,12.296
			s9.852,40.296,9.037,45.407c0,0,5.704,5.556,12.963,3.926c7.259-1.63,15.926-5.111,20.37-4.519l-5.556-24.593
			c0,0-2.37-4.741-3.926-7.778l1.333-2.222l-0.222-3.037c0,0-5.481-2.593-8.963-8.222
			C156.099,193.542,150.766,187.098,149.581,190.061z"/>
		<path fill="#DB833A" d="M155.729,222.95l-1.333,1.63l-8.347-5.91c0,0,4.073,20.896,20.358,11.958L155.729,222.95z"/>
		<g>
			<path fill="#F99680" d="M155.042,171.616c0.008-0.136,0.021-0.27,0.021-0.407c0-3.907-3.167-7.074-7.074-7.074
				c-3.435,0-6.296,2.449-6.938,5.696c-0.215-0.034-0.431-0.066-0.655-0.066c-2.291,0-4.148,1.857-4.148,4.148
				c0,2.291,1.857,4.148,4.148,4.148c0.433,0,0.842-0.085,1.234-0.208l-0.152,0.208c0,0,1.511,6.741-0.563,9.852
				c0,0,6.074,5.037,8.667,2.148c0,0-1.138-2.484-0.828-6.094c0-0.002,0-0.004,0-0.006c0.293,0.077,0.591,0.141,0.902,0.174
				c5.63,0.593,5.393-12.518,5.393-12.518H155.042z"/>
		</g>
		<path fill="#F99680" d="M163.211,213.172c0,0,4.37,7.407,8.148,7.259c3.778-0.148,17.111-12.778,17.407-14.444
			c0.296-1.667-0.37-3.37,0-5.185c0.37-1.815,0.556-4.185,0.556-4.185s1-0.111,1.333,1.111c0.333,1.222,0.444,3.63,1.37,3.296
			c0.926-0.333,2.667-3.333,3.296-5.815c0.63-2.481,1.111-3.148,1.889-2.963c0,0-0.037,2.111-0.296,3.37s-0.481,1.667-0.481,1.667
			s1.111-1.778,1.148-3.259c0.037-1.481,1.519-1.481,1.519-1.481s-0.074,3-0.37,4.074s-1.444,5.37-2.259,7.259
			s-17.704,29.519-25.704,28.111c-8-1.407-15.037-9.037-15.037-9.037L163.211,213.172z"/>
		<path fill="#D35971" d="M163.211,213.172c0,0,3.507,6.173-4.024,12.938l-3.457-3.16L163.211,213.172z"/>
		<path fill="#303535" d="M206.84,279.839c1.889-7.037,3.852-26.37,3.852-26.37s9.364,17.827-1.522,30.08L206.84,279.839z"/>
		<path fill="#303535" d="M187.581,271.394c-1.407-6-7.148-4.656-10.167-0.439C177.414,270.955,186.322,269.839,187.581,271.394z"/>
		<path fill="#D35971" d="M148.753,183.961c-2.172-0.826-4.098-1.715-5.431-3.937c0,0,0.466,6.687,5.455,6.677L148.753,183.961z"/>
		<g>
			<path fill="#D35971" d="M141.396,174.802c0,0-0.556-3.63-3.926-1.667L141.396,174.802z"/>
		</g>
		<g>
			<ellipse fill="#D35971" cx="147.859" cy="175.228" rx="1.574" ry="0.981"/>
		</g>
		<g>
			<ellipse fill="#D35971" cx="153.822" cy="175.228" rx="1.574" ry="0.981"/>
		</g>
		<path fill="#DB833A" d="M167.433,212.653l-5.922-10.852c0,0,5.996,5.593,7.033,5.593l0.222,3.037L167.433,212.653z"/>
		<polygon fill="#474F50" points="154.396,224.579 152.661,223.351 161.511,211.191 163.562,212.653 		"/>
		<polygon fill="#474F50" points="166.403,210.766 168.624,208.496 168.766,210.431 167.433,212.653 		"/>
		<path fill="#474F50" d="M140.914,187.913c0,0,3.593,3.25,6.649,3.039c1.765-0.122,2.018-0.891,2.018-0.891l-0.3-0.833
			c0,0-1.834,2.583-7.929-2.144L140.914,187.913z"/>
		<g>
			<path fill="#ED5526" d="M152.661,163.468c-2.858-1.556-6.932-2.074-9.34,0c-2.407,2.074-4.503,6.608-4.503,6.608
				s5.986,2.543,10.425-4.51l-0.054,0.094c0,0-2.608,5.141-5.867,5.253c0,0,4.007,0.595,6.596-6.508c0,0,1.656,6.154,5.067,5.794
				C154.985,170.199,155.52,165.024,152.661,163.468z"/>
		</g>
		<g>
			<circle fill="#474F50" cx="148.428" cy="172.334" r="0.569"/>
		</g>
		<g>
			<circle fill="#474F50" cx="154.084" cy="172.586" r="0.569"/>
		</g>
		<g>
			<path fill="#474F50" d="M147.434,176.025c-2.211,0-4.01-1.798-4.01-4.009s1.799-4.01,4.01-4.01s4.009,1.799,4.009,4.01
				S149.645,176.025,147.434,176.025z M147.434,169.007c-1.659,0-3.01,1.351-3.01,3.01s1.351,3.009,3.01,3.009
				s3.009-1.35,3.009-3.009S149.093,169.007,147.434,169.007z"/>
		</g>
		<g>
			<path fill="#474F50" d="M155.729,176.343c-2.211,0-4.01-1.799-4.01-4.01s1.799-4.009,4.01-4.009s4.009,1.798,4.009,4.009
				S157.94,176.343,155.729,176.343z M155.729,169.325c-1.659,0-3.01,1.35-3.01,3.009s1.351,3.01,3.01,3.01s3.009-1.351,3.009-3.01
				S157.389,169.325,155.729,169.325z"/>
		</g>
		<g>
			<path fill="#474F50" d="M152.1,172.516h-1.157c-0.276,0-0.5-0.224-0.5-0.5s0.224-0.5,0.5-0.5h1.157c0.276,0,0.5,0.224,0.5,0.5
				S152.376,172.516,152.1,172.516z"/>
		</g>
		<g>
			<path fill="#474F50" d="M143.981,171.893c-0.041,0-0.082-0.005-0.123-0.016l-5.163-1.316c-0.268-0.068-0.43-0.34-0.361-0.607
				c0.068-0.269,0.345-0.431,0.607-0.361l5.164,1.316c0.268,0.068,0.429,0.34,0.36,0.607
				C144.408,171.743,144.205,171.893,143.981,171.893z"/>
		</g>
		<path fill="#D35971" d="M165.772,193.653c0,0,0.372-1.037,1.813-1.111c1.441-0.074,2.033-1.37,1.774-2.333
			c0,0-1.296,0.64-2.407,0.746c-1.111,0.106-3.066,1.896-1.552,3.89L165.772,193.653z"/>
		<circle fill="#474F50" cx="149.04" cy="347.32" r="4"/>
		<circle fill="#474F50" cx="194.826" cy="347.32" r="4"/>
		<path fill="#DB833A" d="M161.511,211.191l-8.564-6.935C152.946,204.256,159.168,203.74,161.511,211.191z"/>
		<g>
			<path fill="#474F50" d="M173.409,189.84c-0.227,0-0.454-0.03-0.678-0.095c-0.759-0.217-1.368-0.778-1.716-1.581
				c-0.345-0.794-0.392-1.731-0.132-2.638c0.26-0.907,0.795-1.678,1.508-2.17c0.72-0.497,1.533-0.652,2.293-0.434
				c1.558,0.446,2.387,2.339,1.848,4.22C176.071,188.753,174.755,189.84,173.409,189.84z M174.001,183.077
				c-0.498,0-1.003,0.165-1.468,0.485c-0.665,0.459-1.165,1.181-1.409,2.032c-0.243,0.852-0.2,1.729,0.121,2.47
				c0.317,0.733,0.869,1.244,1.555,1.44c1.429,0.408,2.991-0.683,3.492-2.431s-0.251-3.503-1.676-3.911
				C174.415,183.105,174.209,183.077,174.001,183.077z"/>
		</g>
		
			<ellipse transform="matrix(0.2752 -0.9614 0.9614 0.2752 -53.4641 301.4607)" fill="#F7CB6B" cx="173.2" cy="186.188" rx="3.423" ry="2.812"/>
		<g>
			<path fill="#474F50" d="M181.881,192.602c-0.23,0-0.46-0.031-0.685-0.096c-0.759-0.217-1.368-0.778-1.717-1.581
				c-0.344-0.794-0.391-1.731-0.131-2.638c0.26-0.907,0.795-1.678,1.507-2.17c0.72-0.497,1.533-0.652,2.293-0.434
				c0.76,0.217,1.369,0.779,1.717,1.582c0.344,0.794,0.391,1.731,0.131,2.638l0,0c-0.259,0.907-0.794,1.677-1.507,2.169
				C182.982,192.423,182.429,192.602,181.881,192.602z M182.465,185.839c-0.498,0-1.003,0.165-1.467,0.485
				c-0.665,0.459-1.165,1.181-1.409,2.032s-0.201,1.729,0.12,2.47c0.317,0.733,0.87,1.244,1.556,1.44
				c0.683,0.195,1.424,0.055,2.083-0.399c0.665-0.459,1.165-1.181,1.408-2.031l0,0c0.244-0.852,0.201-1.729-0.12-2.47
				c-0.317-0.733-0.87-1.245-1.556-1.441C182.879,185.867,182.673,185.839,182.465,185.839z"/>
		</g>
		
			<ellipse transform="matrix(0.2752 -0.9614 0.9614 0.2752 -49.9843 311.5999)" fill="#E53362" cx="181.664" cy="188.95" rx="3.423" ry="2.812"/>
		<g>
			<path fill="#474F50" d="M190.809,195.158c-0.23,0-0.46-0.031-0.685-0.096c-0.759-0.217-1.368-0.778-1.717-1.581
				c-0.344-0.794-0.391-1.731-0.131-2.638c0.26-0.907,0.795-1.678,1.508-2.17c0.72-0.497,1.534-0.651,2.293-0.434
				c1.558,0.446,2.387,2.339,1.848,4.22c-0.26,0.907-0.795,1.677-1.508,2.169C191.91,194.978,191.356,195.158,190.809,195.158z
				 M191.394,188.394c-0.498,0-1.003,0.165-1.468,0.485c-0.665,0.459-1.165,1.181-1.409,2.032s-0.201,1.729,0.12,2.47
				c0.317,0.733,0.87,1.244,1.556,1.44c0.684,0.195,1.424,0.055,2.083-0.399c0.665-0.459,1.165-1.181,1.409-2.031
				c0.501-1.748-0.251-3.503-1.676-3.911C191.808,188.423,191.602,188.394,191.394,188.394z"/>
		</g>
		
			<ellipse transform="matrix(0.2752 -0.9614 0.9614 0.2752 -45.9703 322.0355)" fill="#C4C149" cx="190.592" cy="191.506" rx="3.423" ry="2.812"/>
		<g>
			<path fill="#474F50" d="M186.643,202.881c-0.064,0-0.118-0.049-0.124-0.113l-0.604-6.552c-0.017-0.175-0.12-0.327-0.276-0.406
				c-0.157-0.082-0.341-0.074-0.492,0.016l-6.213,3.71c-0.237,0.141-0.523,0.146-0.763,0.009c-0.241-0.136-0.385-0.383-0.385-0.66
				v-4.055c0-0.191-0.101-0.358-0.27-0.448c-0.169-0.092-0.364-0.08-0.523,0.025l-4.149,2.785c-0.199,0.135-0.445,0.167-0.673,0.087
				c-0.228-0.079-0.4-0.257-0.474-0.487l-0.353-1.116c-0.048-0.153-0.162-0.271-0.312-0.326s-0.314-0.035-0.448,0.052l-2.932,1.89
				c-0.056,0.035-0.134,0.021-0.173-0.038c-0.037-0.058-0.021-0.135,0.038-0.173l2.932-1.89c0.2-0.129,0.442-0.156,0.668-0.076
				c0.224,0.081,0.394,0.258,0.466,0.485l0.353,1.116c0.049,0.155,0.165,0.274,0.317,0.327c0.154,0.055,0.318,0.033,0.452-0.058
				l4.149-2.785c0.236-0.159,0.527-0.175,0.78-0.039c0.251,0.134,0.401,0.384,0.401,0.669v4.055c0,0.186,0.097,0.352,0.258,0.443
				c0.162,0.09,0.353,0.088,0.511-0.007l6.214-3.71c0.224-0.133,0.498-0.145,0.733-0.024c0.233,0.119,0.388,0.346,0.411,0.606
				l0.604,6.552c0.007,0.069-0.044,0.13-0.112,0.136C186.65,202.881,186.646,202.881,186.643,202.881z"/>
		</g>
		<polygon opacity="0.5" fill="#FFFFFF" points="166.071,200.348 184.907,183.346 187.955,184.116 168.766,201.129 		"/>
		<polygon opacity="0.5" fill="#FFFFFF" points="170.029,201.494 189.366,184.472 190.592,184.782 171.089,201.802 		"/>
	</g>
</g>
</svg>
